<svg width="206" height="104" viewBox="0 0 206 104" fill="none" xmlns="http://www.w3.org/2000/svg">
<path d="M50.5963 103.43C51.5129 103.644 52.4325 103.832 53.3577 104H48.3559C47.701 103.823 47.0491 103.635 46.403 103.43C44.9824 102.985 43.5836 102.475 42.2068 101.899C36.684 99.5785 31.5967 96.095 27.7478 91.4599C25.8655 89.2142 24.3284 86.6998 23.1873 83.9997C21.9499 80.948 21.1635 77.7319 20.853 74.4529C20.1554 67.7254 20.8671 60.8126 22.1966 54.2048C23.5685 47.3561 25.7832 40.7042 28.7898 34.4013C29.1514 33.6459 29.5252 32.8952 29.9114 32.1493C29.938 32.0879 29.9782 32.0334 30.029 31.9899C30.0798 31.9464 30.1399 31.9151 30.2046 31.8984C30.336 31.8729 30.4722 31.9006 30.5832 31.9754C30.7166 32.052 30.8154 32.1769 30.8594 32.3244C30.9034 32.4719 30.8891 32.6306 30.8196 32.7679C27.7196 38.8215 25.3697 45.2316 23.8221 51.8558C22.3076 58.3182 21.4479 65.08 21.7411 71.7248C22.02 77.9336 23.64 84.0397 27.3151 89.1166C30.6715 93.7518 35.306 97.4063 40.4332 99.895C43.6784 101.45 47.0874 102.635 50.5963 103.43Z" fill="white"/>
<path d="M61.5734 104H60.0987C59.9336 103.812 59.7741 103.621 59.6176 103.43C56.2587 99.3432 53.9832 94.4743 53.0016 89.2735C51.8095 82.7833 52.7368 76.0811 55.6463 70.1599C56.458 68.4995 57.4144 66.9141 58.5044 65.4221C58.8916 65.5048 59.2731 65.5989 59.6489 65.7129C56.7817 69.5168 54.8532 73.9455 54.0207 78.6377C53.2781 83.0346 53.525 87.5419 54.7435 91.831C55.9619 96.1201 58.1212 100.083 61.0638 103.43C61.2288 103.621 61.3997 103.812 61.5734 104Z" fill="white"/>
<path d="M115.725 60.5787H88.4015L88.1118 52.1663C88.0993 51.8016 88.1658 51.4385 88.3069 51.1021C88.4479 50.7656 88.66 50.4637 88.9287 50.2172C89.1974 49.9707 89.5162 49.7855 89.8632 49.6742C90.2103 49.5629 90.5773 49.5282 90.939 49.5725L106.84 51.5222H106.842C109.199 51.5286 111.458 52.4703 113.123 54.1412C114.788 55.812 115.724 58.0757 115.725 60.4362V60.5787Z" fill="#F06D06"/>
<path d="M103.547 30.7383H84.4899C84.2364 30.7382 83.9855 30.7882 83.7513 30.8852C83.5171 30.9823 83.3044 31.1247 83.1251 31.3041C82.9459 31.4836 82.8038 31.6966 82.7068 31.9311C82.6099 32.1656 82.56 32.4169 82.5601 32.6707V51.7536C82.56 52.0074 82.6099 52.2587 82.7068 52.4932C82.8038 52.7276 82.9459 52.9407 83.1251 53.1202C83.3044 53.2996 83.5171 53.442 83.7513 53.5391C83.9855 53.6361 84.2364 53.6861 84.4899 53.686H103.547C103.8 53.6861 104.051 53.6361 104.286 53.5391C104.52 53.442 104.733 53.2996 104.912 53.1202C105.091 52.9407 105.233 52.7277 105.33 52.4932C105.427 52.2587 105.477 52.0074 105.477 51.7536V32.6707C105.477 32.4169 105.427 32.1656 105.33 31.9311C105.233 31.6966 105.091 31.4836 104.912 31.3041C104.733 31.1247 104.52 30.9823 104.286 30.8852C104.051 30.7882 103.8 30.7382 103.547 30.7383Z" fill="#CCCCCC"/>
<path d="M99.2549 45.0078L90.2572 46.7623C89.7235 46.8658 89.1706 46.753 88.7198 46.4488C88.269 46.1445 87.9571 45.6736 87.8526 45.1394L87.161 41.5829C87.0576 41.0485 87.1703 40.4948 87.4741 40.0434C87.7779 39.592 88.2482 39.2797 88.7817 39.1751L97.7794 37.4205C98.3131 37.3171 98.866 37.4298 99.3168 37.7341C99.7676 38.0383 100.079 38.5092 100.184 39.0434L100.876 42.5999C100.979 43.1344 100.866 43.688 100.562 44.1394C100.259 44.5908 99.7884 44.9031 99.2549 45.0078Z" fill="#3F3D56"/>
<path d="M97.455 40.806L90.5884 42.145C90.4628 42.1694 90.3326 42.143 90.2265 42.0714C90.1204 41.9997 90.047 41.8889 90.0226 41.7631C89.9981 41.6373 90.0246 41.507 90.0961 41.4007C90.1676 41.2945 90.2783 41.221 90.4039 41.1965L97.2706 39.8575C97.3962 39.8331 97.5263 39.8595 97.6325 39.9311C97.7386 40.0028 97.8119 40.1136 97.8364 40.2394C97.8608 40.3652 97.8344 40.4955 97.7629 40.6018C97.6914 40.708 97.5806 40.7815 97.455 40.806Z" fill="white"/>
<path d="M96.12 42.789L92.5683 43.4816C92.4427 43.5061 92.3126 43.4796 92.2065 43.408C92.1004 43.3364 92.027 43.2255 92.0025 43.0997C91.9781 42.9739 92.0045 42.8436 92.076 42.7373C92.1476 42.6311 92.2583 42.5576 92.3839 42.5332L95.9356 41.8406C95.9978 41.8284 96.0618 41.8287 96.1239 41.8413C96.1859 41.854 96.245 41.8787 96.2975 41.9142C96.35 41.9496 96.3951 41.9951 96.4301 42.048C96.4651 42.1009 96.4893 42.1602 96.5014 42.2224C96.5135 42.2847 96.5133 42.3488 96.5006 42.4109C96.488 42.4731 96.4633 42.5322 96.4279 42.5848C96.3925 42.6374 96.3471 42.6825 96.2943 42.7175C96.2414 42.7526 96.1822 42.7769 96.12 42.789Z" fill="white"/>
<path d="M105.477 32.6707V35.2071H82.5601V32.6707C82.56 32.4169 82.6099 32.1656 82.7068 31.9311C82.8038 31.6966 82.9459 31.4836 83.1251 31.3041C83.3044 31.1247 83.5171 30.9823 83.7513 30.8852C83.9855 30.7882 84.2364 30.7382 84.4899 30.7383H103.547C103.8 30.7382 104.051 30.7882 104.286 30.8852C104.52 30.9823 104.733 31.1247 104.912 31.3041C105.091 31.4836 105.233 31.6966 105.33 31.9311C105.427 32.1656 105.477 32.4169 105.477 32.6707Z" fill="#B3B3B3"/>
<path d="M151.24 36.0013C151.107 35.5736 150.883 35.1802 150.582 34.8488C150.282 34.5174 149.912 34.2559 149.5 34.083C149.088 33.91 148.642 33.8296 148.196 33.8476C147.749 33.8656 147.312 33.9814 146.914 34.1869L120.696 24.7676L119.542 31.3261L145.676 38.5227C146.065 39.168 146.677 39.648 147.396 39.8717C148.115 40.0954 148.891 40.0472 149.576 39.7364C150.262 39.4256 150.81 38.8737 151.117 38.1853C151.423 37.4969 151.467 36.7198 151.24 36.0013Z" fill="#FFB8B8"/>
<path opacity="0.2" d="M151.24 36.0013C151.107 35.5736 150.883 35.1802 150.582 34.8488C150.282 34.5174 149.912 34.2559 149.5 34.083C149.088 33.91 148.642 33.8296 148.196 33.8476C147.749 33.8656 147.312 33.9814 146.914 34.1869L120.696 24.7676L119.542 31.3261L145.676 38.5227C146.065 39.168 146.677 39.648 147.396 39.8717C148.115 40.0954 148.891 40.0472 149.576 39.7364C150.262 39.4256 150.81 38.8737 151.117 38.1853C151.423 37.4969 151.467 36.7198 151.24 36.0013Z" fill="black"/>
<path d="M125.349 25.9627L122.874 32.4395C122.803 32.6237 122.694 32.7906 122.553 32.9288C122.413 33.067 122.244 33.1732 122.058 33.2402C121.873 33.3071 121.676 33.3333 121.479 33.3169C121.283 33.3006 121.092 33.242 120.921 33.1452L114.903 29.754C113.964 29.3877 113.208 28.6633 112.801 27.7397C112.394 26.8161 112.37 25.7686 112.733 24.8268C113.096 23.8851 113.817 23.126 114.738 22.7159C115.66 22.3058 116.706 22.2782 117.647 22.6392L124.366 24.1314C124.558 24.1742 124.739 24.258 124.897 24.3771C125.054 24.4962 125.183 24.6478 125.277 24.8216C125.37 24.9954 125.425 25.1873 125.437 25.3842C125.45 25.5811 125.42 25.7784 125.349 25.9627Z" fill="#0E5D37"/>
<path d="M153.303 41.9983L143.909 46.2743L145.142 50.924C147.524 59.9028 148.156 69.2571 147.004 78.4755L153.873 79.9119L159.566 65.3736L157.573 48.8399L153.303 41.9983Z" fill="#2F313F"/>
<path d="M171.736 63.5208C165.564 63.5208 160.534 68.0139 160.29 73.6406H183.183C182.939 68.0139 177.909 63.5208 171.736 63.5208Z" fill="#3F3D56"/>
<path d="M166.931 64.4905C166.61 39.0916 152.165 41.4283 152.165 41.4283C152.165 41.4283 152.435 49.3341 152.565 49.5799C161.77 67.0201 146.578 87.4661 127.239 83.7047C126.875 83.6338 126.525 83.5619 126.189 83.4889C123.738 82.9766 121.575 81.549 120.138 79.4963C118.702 77.4436 118.1 74.9201 118.456 72.439C120.361 57.1208 110.886 57.3919 110.886 57.3919H97.0316L89.8367 50.9078C89.5828 50.679 89.2767 50.5159 88.9452 50.4328C88.6138 50.3498 88.267 50.3493 87.9354 50.4315C87.6037 50.5136 87.2972 50.6759 87.0426 50.9041C86.788 51.1323 86.5932 51.4195 86.475 51.7405L85.5494 54.2562C85.5494 54.2562 71.8847 55.6815 73.0235 69.0796H77.2481C77.2379 69.4603 77.2531 69.8412 77.2937 70.2198L108.822 69.9631C110.67 69.9481 112.302 71.4477 112.309 73.2983C112.311 73.7489 112.222 74.1952 112.048 74.6106C111.874 75.0259 111.617 75.4018 111.295 75.7157C110.972 76.0296 110.589 76.2751 110.17 76.4376C109.75 76.6 109.302 76.6759 108.852 76.6609L103.769 76.4913C102.203 83.4754 106.046 88.1789 110.281 91.1365C114.268 93.8807 118.999 95.3357 123.837 95.3056H137.646C155.581 95.3056 158.712 80.1971 158.712 80.1971C168.107 76.2062 166.931 64.4905 166.931 64.4905Z" fill="#3F3D56"/>
<path d="M170.882 103.572C179.726 103.572 186.896 96.3933 186.896 87.5375C186.896 78.6816 179.726 71.5026 170.882 71.5026C162.039 71.5026 154.869 78.6816 154.869 87.5375C154.869 96.3933 162.039 103.572 170.882 103.572Z" fill="#3F3D56"/>
<path d="M170.882 91.4677C173.049 91.4677 174.807 89.7081 174.807 87.5375C174.807 85.367 173.049 83.6074 170.882 83.6074C168.714 83.6074 166.957 85.367 166.957 87.5375C166.957 89.7081 168.714 91.4677 170.882 91.4677Z" fill="white"/>
<path d="M90.0331 103.572C100.213 103.572 108.466 95.3085 108.466 85.1145C108.466 74.9204 100.213 66.6565 90.0331 66.6565C79.8529 66.6565 71.6001 74.9204 71.6001 85.1145C71.6001 95.3085 79.8529 103.572 90.0331 103.572Z" fill="#3F3D56"/>
<path d="M90.033 89.6384C92.5282 89.6384 94.5509 87.6129 94.5509 85.1143C94.5509 82.6158 92.5282 80.5903 90.033 80.5903C87.5379 80.5903 85.5151 82.6158 85.5151 85.1143C85.5151 87.6129 87.5379 89.6384 90.033 89.6384Z" fill="white"/>
<path d="M143.935 47.5377L140.555 38.3445C140.379 37.8653 140.299 37.3562 140.319 36.846C140.339 36.3358 140.46 35.8347 140.674 35.3712C140.887 34.9076 141.19 34.4908 141.565 34.1445C141.94 33.7982 142.379 33.5292 142.857 33.3528L152.548 29.7806C153.39 29.4701 154.284 29.3288 155.181 29.3646C156.077 29.4004 156.958 29.6126 157.772 29.9892C158.587 30.3658 159.319 30.8994 159.928 31.5595C160.536 32.2195 161.009 32.9932 161.319 33.8362C161.599 34.5929 161.742 35.3933 161.741 36.2001C161.737 37.2245 161.506 38.2352 161.063 39.1588C160.621 40.0824 159.978 40.8956 159.182 41.5393C158.607 42.0011 157.961 42.366 157.269 42.6195L143.935 47.5377Z" fill="#3F3D56"/>
<path d="M161.599 36.2001C161.598 37.2036 161.373 38.1942 160.939 39.099C160.505 40.0037 159.875 40.7996 159.094 41.4282C157.895 41.1116 156.78 40.5374 155.825 39.7455C154.87 38.9536 154.099 37.963 153.566 36.8426C153.032 35.7222 152.748 34.4989 152.734 33.2577C152.721 32.0164 152.977 30.787 153.485 29.655C154.462 29.4424 155.474 29.4514 156.446 29.6815C157.418 29.9116 158.327 30.3568 159.105 30.9846C159.883 31.6123 160.511 32.4066 160.943 33.3091C161.374 34.2116 161.599 35.1995 161.599 36.2001Z" fill="#F06D06"/>
<path d="M75.443 70.9324C77.6442 70.9324 79.4286 68.7628 79.4286 66.0863C79.4286 63.4099 77.6442 61.2402 75.443 61.2402C73.2419 61.2402 71.4575 63.4099 71.4575 66.0863C71.4575 68.7628 73.2419 70.9324 75.443 70.9324Z" fill="#F06D06"/>
<path d="M128.127 83.2404H131.617L133.277 74.1761L128.126 74.1764L128.127 83.2404Z" fill="#FFB8B8"/>
<path d="M127.236 82.0994L134.109 82.0991H134.109C134.685 82.0991 135.254 82.2126 135.786 82.433C136.317 82.6534 136.8 82.9765 137.207 83.3837C137.613 83.791 137.936 84.2745 138.156 84.8067C138.376 85.3389 138.49 85.9092 138.49 86.4852V86.6277L127.236 86.6281L127.236 82.0994Z" fill="#2F2E41"/>
<path d="M132.177 79.5201C132.137 79.5201 132.096 79.5182 132.055 79.5143L127.225 79.1621C127.03 79.144 126.841 79.0812 126.674 78.9785C126.507 78.8758 126.365 78.7361 126.26 78.57C126.156 78.4039 126.09 78.216 126.069 78.0207C126.049 77.8253 126.073 77.6278 126.141 77.4434L132.605 62.9009C132.651 62.7713 132.67 62.6334 132.66 62.4961C132.65 62.3588 132.613 62.225 132.549 62.1031C132.485 61.9797 132.396 61.8712 132.288 61.7847C132.179 61.6983 132.054 61.6358 131.919 61.6014C128.88 60.8058 121.081 58.6873 114.33 56.2086C111.438 55.1465 109.616 53.6118 108.916 51.647C107.992 49.0566 109.358 46.6942 109.417 46.5951L109.463 46.5175L115.815 47.0957L122.702 47.6822L137.794 55.786C139.058 56.4708 140.019 57.6074 140.484 58.9695C140.949 60.3317 140.885 61.8193 140.304 63.1361L133.346 78.7599C133.246 78.9861 133.082 79.1783 132.874 79.3133C132.667 79.4482 132.425 79.52 132.177 79.5201Z" fill="#2F2E41"/>
<path d="M116.92 18.3244C120.781 18.3244 123.912 15.1897 123.912 11.3229C123.912 7.45608 120.781 4.32141 116.92 4.32141C113.058 4.32141 109.928 7.45608 109.928 11.3229C109.928 15.1897 113.058 18.3244 116.92 18.3244Z" fill="#FFB8B8"/>
<path d="M126.134 84.0956H129.624L131.285 75.0314L126.133 75.0317L126.134 84.0956Z" fill="#FFB8B8"/>
<path d="M125.243 82.9546L132.116 82.9543H132.117C132.692 82.9543 133.262 83.0678 133.793 83.2882C134.324 83.5086 134.807 83.8317 135.214 84.239C135.621 84.6463 135.943 85.1298 136.164 85.6619C136.384 86.1941 136.497 86.7644 136.497 87.3404V87.483L125.243 87.4834L125.243 82.9546Z" fill="#2F2E41"/>
<path d="M130.185 80.3754C130.144 80.3754 130.103 80.3734 130.062 80.3695L125.232 80.0173C125.037 79.9992 124.848 79.9364 124.681 79.8337C124.514 79.7311 124.372 79.5913 124.268 79.4252C124.163 79.2592 124.098 79.0712 124.077 78.8759C124.056 78.6806 124.08 78.483 124.148 78.2986L130.612 63.7561C130.658 63.6265 130.677 63.4887 130.667 63.3513C130.658 63.214 130.62 63.0802 130.556 62.9583C130.492 62.8349 130.403 62.7264 130.295 62.64C130.186 62.5535 130.061 62.491 129.927 62.4566C126.887 61.661 119.088 59.5425 112.337 57.0638C109.445 56.0017 107.623 54.467 106.923 52.5022C106 49.9118 107.366 47.5495 107.424 47.4503L107.47 47.3727L113.823 47.9509L120.709 48.5374L135.801 56.6412C137.066 57.326 138.026 58.4626 138.492 59.8248C138.957 61.1869 138.893 62.6745 138.312 63.9914L131.354 79.6151C131.253 79.8414 131.089 80.0336 130.882 80.1685C130.674 80.3034 130.432 80.3753 130.185 80.3754Z" fill="#2F2E41"/>
<path d="M119.076 22.2945L111.674 19.7289C111.674 19.7289 107.028 23.3036 109.26 32.1716C110.425 36.7478 110.086 41.5783 108.292 45.946C108.076 46.4864 107.827 47.0129 107.546 47.5227C107.546 47.5227 115.802 57.5 123.488 50.0883L120.499 35.6925C120.499 35.6925 125.197 26.1428 119.076 22.2945Z" fill="#0E5D37"/>
<path d="M117.788 18.5624C116.793 17.0709 116.008 15.0027 117.103 13.5835C118.185 12.1827 120.318 12.3891 121.974 11.7692C124.281 10.9058 125.619 8.19182 125.202 5.76126C124.785 3.3307 122.836 1.31583 120.515 0.491417C118.194 -0.332999 115.576 -0.0648797 113.303 0.884486C110.505 2.05317 108.105 4.3139 107.098 7.17766C106.092 10.0414 106.63 13.4799 108.718 15.681C110.956 18.0409 114.47 18.6698 117.72 18.6317" fill="#2F2E41"/>
<path d="M111.284 5.83929C110.03 6.8615 108.117 6.40748 106.77 5.51037C105.424 4.61325 104.332 3.33582 102.876 2.63244C100.308 1.39243 97.2038 2.21675 94.7049 3.59029C92.206 4.96383 89.9909 6.86141 87.3513 7.93929C84.7117 9.01717 81.3434 9.07045 79.3447 7.03517C78.8528 8.46216 78.8126 10.0064 79.2296 11.4571C79.6465 12.9078 80.5003 14.1944 81.6744 15.1413C82.8485 16.0881 84.2858 16.6493 85.7901 16.748C87.2944 16.8467 88.7925 16.4783 90.08 15.693C92.9722 13.9289 94.5697 10.2301 97.8136 9.25644C99.6087 8.71764 101.536 9.15159 103.35 9.62162C105.165 10.0916 107.056 10.5995 108.887 10.1994C110.718 9.79924 112.431 8.15172 112.198 6.28978L111.284 5.83929Z" fill="#2F2E41"/>
<path d="M150.892 35.7161C150.708 35.308 150.437 34.9454 150.098 34.6536C149.759 34.3618 149.36 34.148 148.929 34.0273C148.499 33.9066 148.047 33.8819 147.606 33.9549C147.165 34.0279 146.745 34.1969 146.376 34.4499L119.198 28.3418L118.86 34.9929L145.682 38.9056C146.147 39.4979 146.813 39.8986 147.554 40.0317C148.295 40.1649 149.059 40.0213 149.701 39.6282C150.344 39.235 150.82 38.6196 151.039 37.8986C151.258 37.1776 151.206 36.401 150.892 35.7161Z" fill="#FFB8B8"/>
<path d="M123.963 28.9529L122.304 35.686C122.257 35.8776 122.169 36.0567 122.046 36.2112C121.924 36.3657 121.769 36.492 121.593 36.5813C121.418 36.6707 121.225 36.7211 121.028 36.7291C120.831 36.7371 120.635 36.7025 120.452 36.6277L114.064 34.0058C113.085 33.759 112.245 33.1337 111.727 32.2672C111.209 31.4007 111.055 30.3637 111.3 29.3838C111.544 28.404 112.167 27.5612 113.031 27.0405C113.895 26.5198 114.93 26.3637 115.909 26.6064L122.761 27.2571C122.957 27.2757 123.147 27.3366 123.318 27.4353C123.488 27.5341 123.636 27.6686 123.75 27.8295C123.864 27.9904 123.942 28.1741 123.978 28.3679C124.015 28.5618 124.01 28.7613 123.963 28.9529Z" fill="#0E5D37"/>
<path d="M147.752 41.0006C148.853 41.0006 149.745 40.1072 149.745 39.0051C149.745 37.903 148.853 37.0096 147.752 37.0096C146.651 37.0096 145.759 37.903 145.759 39.0051C145.759 40.1072 146.651 41.0006 147.752 41.0006Z" fill="#2F313F"/>
<path d="M236 103.715C236 103.79 235.97 103.863 235.916 103.916C235.863 103.97 235.791 104 235.715 104H0.28468C0.209178 104 0.136769 103.97 0.0833807 103.916C0.0299928 103.863 0 103.79 0 103.715C0 103.639 0.0299928 103.567 0.0833807 103.513C0.136769 103.46 0.209178 103.43 0.28468 103.43H235.715C235.791 103.43 235.863 103.46 235.916 103.514C235.97 103.567 236 103.639 236 103.715Z" fill="#3F3D56"/>
</svg>
