<svg width="120" height="120" viewBox="0 0 120 120" fill="none" xmlns="http://www.w3.org/2000/svg">
<g clip-path="url(#clip0_1111_10256)">
<path d="M106.667 20H13.3333C11.5652 20 9.86954 20.7024 8.61929 21.9526C7.36905 23.2029 6.66667 24.8986 6.66667 26.6667V93.3333C6.66667 95.1014 7.36905 96.7971 8.61929 98.0474C9.86954 99.2976 11.5652 100 13.3333 100H106.667C108.435 100 110.13 99.2976 111.381 98.0474C112.631 96.7971 113.333 95.1014 113.333 93.3333V26.6667C113.333 24.8986 112.631 23.2029 111.381 21.9526C110.13 20.7024 108.435 20 106.667 20ZM106.667 93.3333H13.3333V26.6667H106.667V93.3333Z" fill="#2F313F"/>
<path d="M30 46.6667H90C90.8841 46.6667 91.7319 46.3155 92.357 45.6904C92.9821 45.0652 93.3333 44.2174 93.3333 43.3333C93.3333 42.4493 92.9821 41.6014 92.357 40.9763C91.7319 40.3512 90.8841 40 90 40H30C29.1159 40 28.2681 40.3512 27.643 40.9763C27.0179 41.6014 26.6667 42.4493 26.6667 43.3333C26.6667 44.2174 27.0179 45.0652 27.643 45.6904C28.2681 46.3155 29.1159 46.6667 30 46.6667Z" fill="#2F313F"/>
<path d="M30 60H90C90.8841 60 91.7319 59.6488 92.357 59.0237C92.9821 58.3986 93.3333 57.5507 93.3333 56.6667C93.3333 55.7826 92.9821 54.9348 92.357 54.3097C91.7319 53.6845 90.8841 53.3333 90 53.3333H30C29.1159 53.3333 28.2681 53.6845 27.643 54.3097C27.0179 54.9348 26.6667 55.7826 26.6667 56.6667C26.6667 57.5507 27.0179 58.3986 27.643 59.0237C28.2681 59.6488 29.1159 60 30 60Z" fill="#2F313F"/>
<path d="M30 73.3334H63.3333C64.2174 73.3334 65.0652 72.9822 65.6904 72.357C66.3155 71.7319 66.6667 70.8841 66.6667 70C66.6667 69.116 66.3155 68.2681 65.6904 67.643C65.0652 67.0179 64.2174 66.6667 63.3333 66.6667H30C29.1159 66.6667 28.2681 67.0179 27.643 67.643C27.0179 68.2681 26.6667 69.116 26.6667 70C26.6667 70.8841 27.0179 71.7319 27.643 72.357C28.2681 72.9822 29.1159 73.3334 30 73.3334Z" fill="#2F313F"/>
</g>
<defs>
<clipPath id="clip0_1111_10256">
<rect width="120" height="120" fill="white"/>
</clipPath>
</defs>
</svg>
