<svg width="17" height="15" viewBox="0 0 17 15" fill="none" xmlns="http://www.w3.org/2000/svg">
<path d="M8.5712 3.27155C8.75233 3.27155 8.92272 3.18567 9.03048 3.0401L9.03066 3.03986L9.03239 3.03756L9.04366 3.02278C9.05431 3.00895 9.07114 2.98739 9.09382 2.95919C9.13923 2.90275 9.20787 2.82006 9.29717 2.71988C9.47644 2.51876 9.73548 2.25114 10.0538 1.98487C10.7069 1.43848 11.5297 0.964495 12.3807 0.964495C14.1692 0.964495 15.6188 2.41325 15.6188 4.1997C15.6188 4.9664 15.4701 6.29658 14.5404 7.92443C13.6092 9.55507 11.8767 11.5152 8.6615 13.5105C8.63386 13.5273 8.60266 13.5359 8.5712 13.5359C8.53971 13.5359 8.50849 13.5273 8.48084 13.5105C5.26571 11.5152 3.53322 9.55506 2.60198 7.92443C1.67232 6.29658 1.52358 4.9664 1.52358 4.1997C1.52358 2.41325 2.97319 0.964495 4.76167 0.964495C5.61274 0.964495 6.4355 1.43848 7.08863 1.98487C7.40692 2.25114 7.66595 2.51876 7.84522 2.71988C7.93452 2.82006 8.00316 2.90275 8.04857 2.95919C8.07125 2.98739 8.08808 3.00895 8.09873 3.02278L8.11 3.03756L8.11173 3.03986L8.11191 3.0401L8.11199 3.0402C8.11203 3.04026 8.11207 3.04032 8.11212 3.04038C8.21988 3.18578 8.39018 3.27155 8.5712 3.27155Z" stroke="#F06D06" stroke-width="1.14286" stroke-linecap="round" stroke-linejoin="round"/>
</svg>
