<svg width="149" height="131" viewBox="0 0 149 131" fill="none" xmlns="http://www.w3.org/2000/svg">
<path d="M125.919 114.982L108.617 102.782C114.452 97.1148 119.76 89.0454 124.835 79.9216L142.138 92.1218C135.224 99.9496 129.367 107.632 125.919 114.982Z" fill="#0E5D37"/>
<path d="M125.924 101.993C128.744 101.993 131.03 99.7134 131.03 96.9018C131.03 94.0901 128.744 91.8108 125.924 91.8108C123.103 91.8108 120.817 94.0901 120.817 96.9018C120.817 99.7134 123.103 101.993 125.924 101.993Z" fill="white"/>
<path d="M42.4543 59.3099H40.555C40.4882 59.3099 40.4242 59.3364 40.377 59.3835C40.3297 59.4305 40.3032 59.4944 40.3032 59.561V60.392C40.3032 60.425 40.3097 60.4577 40.3224 60.4881C40.335 60.5186 40.3536 60.5462 40.377 60.5696C40.4003 60.5929 40.4281 60.6114 40.4587 60.624C40.4892 60.6366 40.522 60.6431 40.555 60.6431H40.8698V61.8883H42.1396V60.6431H42.4543C42.5211 60.6431 42.5851 60.6166 42.6323 60.5696C42.6796 60.5225 42.7061 60.4586 42.7061 60.392V59.561C42.7061 59.4944 42.6796 59.4305 42.6323 59.3835C42.5851 59.3364 42.5211 59.3099 42.4543 59.3099Z" fill="#E6E6E6"/>
<path d="M44.3564 66.916C43.1933 65.2192 42.5986 63.1989 42.6577 61.1445C42.6588 61.0971 42.6434 61.0508 42.6141 61.0135C42.5848 60.9761 42.5434 60.9501 42.497 60.9397V60.5806H40.4911V60.9347H40.4635C40.4364 60.9347 40.4097 60.9401 40.3847 60.9504C40.3598 60.9608 40.3371 60.9759 40.318 60.995C40.2989 61.014 40.2838 61.0367 40.2735 61.0616C40.2632 61.0865 40.2579 61.1132 40.2579 61.1401C40.2579 61.1451 40.2581 61.1501 40.2585 61.1551C40.4436 63.2513 39.8763 65.345 38.6576 67.0632C38.5871 67.1634 38.5511 67.2836 38.555 67.4059L38.7743 74.1696C38.7796 74.3205 38.8431 74.4635 38.9516 74.5688C39.0601 74.6741 39.2052 74.7336 39.3566 74.7347H43.8936C44.0467 74.7335 44.1933 74.6727 44.3022 74.5653C44.411 74.4579 44.4735 74.3123 44.4762 74.1597L44.5608 67.5927C44.5633 67.3516 44.492 67.1156 44.3564 66.916Z" fill="#0E5D37"/>
<path opacity="0.2" d="M42.0587 59.5807C42.0587 59.7243 42.0014 59.8621 41.8996 59.9636C41.7977 60.0652 41.6595 60.1223 41.5154 60.1223C41.3713 60.1223 41.2332 60.0652 41.1313 59.9636C41.0294 59.8621 40.9722 59.7243 40.9722 59.5807" fill="black"/>
<path d="M43.4731 68.2191H39.6431V70.7646H43.4731V68.2191Z" fill="white"/>
<path d="M102.557 85.733H99.0021C98.8771 85.733 98.7572 85.7825 98.6688 85.8707C98.5804 85.9588 98.5308 86.0783 98.5308 86.2029V87.7587C98.5308 87.8833 98.5804 88.0028 98.6688 88.0909C98.7572 88.1791 98.8771 88.2286 99.0021 88.2286H99.5913V90.5595H101.968V88.2286H102.557C102.682 88.2286 102.802 88.1791 102.891 88.0909C102.979 88.0028 103.029 87.8833 103.029 87.7587V86.2029C103.029 86.0783 102.979 85.9588 102.891 85.8707C102.802 85.7825 102.682 85.733 102.557 85.733Z" fill="#E6E6E6"/>
<path d="M106.118 99.9708C103.941 96.7946 102.828 93.0128 102.938 89.1673C102.94 89.0786 102.911 88.9919 102.857 88.922C102.802 88.8521 102.724 88.8032 102.637 88.7838V88.1116H98.8826V88.7744H98.8309C98.7803 88.7745 98.7302 88.7845 98.6835 88.8039C98.6367 88.8232 98.5943 88.8516 98.5586 88.8873C98.5228 88.923 98.4945 88.9654 98.4752 89.012C98.4559 89.0586 98.446 89.1086 98.4461 89.159C98.4461 89.1684 98.4464 89.1777 98.4471 89.187C98.743 93.2978 97.7441 96.9843 95.4505 100.247C95.3185 100.434 95.2511 100.659 95.2583 100.888L95.6689 113.549C95.6788 113.831 95.7977 114.099 96.0008 114.296C96.2039 114.493 96.4755 114.605 96.7589 114.607H105.252C105.538 114.605 105.813 114.491 106.017 114.29C106.22 114.089 106.337 113.816 106.342 113.53L106.501 101.238C106.505 100.786 106.372 100.344 106.118 99.9708Z" fill="#0E5D37"/>
<path opacity="0.2" d="M101.816 86.2399C101.816 86.5087 101.709 86.7666 101.518 86.9567C101.328 87.1469 101.069 87.2537 100.799 87.2537C100.529 87.2537 100.271 87.1469 100.08 86.9567C99.8894 86.7666 99.7822 86.5087 99.7822 86.2399" fill="black"/>
<path d="M104.774 104.176H97.3815C97.2721 104.176 97.164 104.2 97.0645 104.246C96.9651 104.291 96.8768 104.358 96.8055 104.44C96.7342 104.523 96.6818 104.62 96.6517 104.725C96.6217 104.83 96.6147 104.94 96.6314 105.048L97.7485 112.287H104.163L105.52 105.072C105.54 104.963 105.537 104.851 105.509 104.743C105.481 104.636 105.429 104.535 105.358 104.45C105.287 104.364 105.197 104.295 105.096 104.248C104.996 104.201 104.885 104.176 104.774 104.176Z" fill="white"/>
<path d="M92.4134 114.962H71.2207C72.7024 106.976 72.3615 97.3325 71.2207 86.9617H92.4134C91.303 97.3326 90.9711 106.976 92.4134 114.962Z" fill="#0E5D37"/>
<path d="M81.9451 105.289C84.7654 105.289 87.0517 103.01 87.0517 100.198C87.0517 97.3865 84.7654 95.1072 81.9451 95.1072C79.1247 95.1072 76.8384 97.3865 76.8384 100.198C76.8384 103.01 79.1247 105.289 81.9451 105.289Z" fill="white"/>
<path d="M5.72998 26.8408L10.4875 26.4096L13.5152 19.0798L8.10887 16.0614L5.72998 26.8408Z" fill="#FFB8B8"/>
<path d="M49.3926 46.9637C49.5508 46.5704 49.613 46.1452 49.574 45.7232C49.535 45.3013 49.396 44.8946 49.1684 44.5367C48.9409 44.1788 48.6312 43.8799 48.2651 43.6647C47.8989 43.4495 47.4867 43.3241 47.0624 43.2989L39.6755 42.8597L38.5879 46.4654L46.1923 48.5473C46.8277 48.7213 47.5051 48.656 48.0954 48.364C48.6856 48.0719 49.1474 47.5735 49.3926 46.9637Z" fill="#FFB8B8"/>
<path d="M41.4606 48.6078L41.3793 41.8421L24.9714 39.232L12.3311 24.7795C11.6734 24.0275 10.7647 23.5387 9.77315 23.4035C8.78166 23.2684 7.77462 23.496 6.9386 24.0444C6.43242 24.3763 6.00556 24.8151 5.68818 25.3297C5.37081 25.8442 5.17067 26.422 5.10192 27.0221C5.03316 27.6223 5.09747 28.2301 5.29029 28.8028C5.48311 29.3754 5.79974 29.8989 6.2178 30.3361L16.646 43.13L41.4606 48.6078Z" fill="#F06D06"/>
<path d="M2.05371 124.719H6.3788L17.1067 76.3647L28.2205 91.3023L34.7082 123.641H38.817L37.952 88.9308L23.4629 51.8494H9.19011C5.28972 58.8865 2.23003 66.1405 5.73004 73.6239L2.05371 124.719Z" fill="#2F2E41"/>
<path d="M32.0572 127.656C32.0094 127.808 31.9947 127.969 32.0142 128.128C32.0337 128.286 32.0868 128.439 32.17 128.576C32.2533 128.712 32.3648 128.83 32.4971 128.92C32.6294 129.01 32.7795 129.071 32.9374 129.099L43.5209 130.972C43.9391 131.048 44.3709 130.969 44.7348 130.75C45.0987 130.531 45.3695 130.186 45.4964 129.782C45.6197 129.395 45.6025 128.978 45.4477 128.603C45.2929 128.227 45.0105 127.919 44.65 127.73C42.3229 126.539 40.3201 124.803 38.8133 122.672C37.6501 123.751 36.35 123.65 34.9695 122.854L33.5051 123.037L32.0572 127.656Z" fill="#2F2E41"/>
<path d="M0.0513838 127.656C0.00356219 127.808 -0.0111137 127.969 0.00833807 128.128C0.0277898 128.286 0.0809194 128.439 0.164191 128.576C0.247463 128.712 0.358967 128.83 0.491277 128.92C0.623587 129.01 0.773666 129.071 0.931526 129.099L11.5151 130.972C11.9333 131.048 12.365 130.969 12.7289 130.75C13.0928 130.531 13.3637 130.186 13.4905 129.782C13.6139 129.395 13.5966 128.978 13.4418 128.603C13.2871 128.227 13.0046 127.919 12.6441 127.73C10.317 126.539 8.31429 124.803 6.80748 122.672C5.64428 123.751 4.34418 123.65 2.96362 122.854L1.49929 123.037L0.0513838 127.656Z" fill="#2F2E41"/>
<path d="M13.6235 21.7746C16.9676 21.7746 19.6786 19.0719 19.6786 15.7381C19.6786 12.4042 16.9676 9.70154 13.6235 9.70154C10.2793 9.70154 7.56836 12.4042 7.56836 15.7381C7.56836 19.0719 10.2793 21.7746 13.6235 21.7746Z" fill="#FFB8B8"/>
<path d="M8.21692 53.4662L24.0035 53.035L19.3673 38.4885C22.2485 33.8839 19.3488 29.284 15.2452 24.685L12.0014 22.5291L6.81125 22.0979C4.56413 24.495 3.33458 27.666 3.38013 30.9466C3.48289 37.9716 4.73061 45.6191 8.21692 53.4662Z" fill="#F06D06"/>
<path d="M44.4874 63.2577C44.788 62.9582 45.013 62.5917 45.1436 62.1884C45.2743 61.7852 45.307 61.3568 45.239 60.9385C45.171 60.5202 45.0043 60.124 44.7526 59.7825C44.5008 59.4411 44.1713 59.1641 43.7912 58.9745L37.1732 55.6738L34.7505 58.5622L40.9202 63.4586C41.4357 63.8677 42.0843 64.0734 42.7422 64.0364C43.4001 63.9993 44.0213 63.7222 44.4874 63.2577Z" fill="#FFB8B8"/>
<path d="M36.5464 61.6586L39.1415 55.4065L25.0865 46.572L19.1683 28.3275C18.8604 27.3782 18.2178 26.5724 17.3596 26.0593C16.5014 25.5462 15.4857 25.3606 14.5007 25.5368C13.9043 25.6435 13.3387 25.8795 12.8439 26.2281C12.3491 26.5767 11.9371 27.0294 11.6371 27.5542C11.3371 28.079 11.1563 28.6631 11.1076 29.2651C11.0589 29.8672 11.1435 30.4726 11.3553 31.0386L15.8942 46.8907L36.5464 61.6586Z" fill="#F06D06"/>
<path d="M3.67578 13.3665C3.67578 15.7153 5.20589 19.3529 7.13585 20.9121C8.4344 21.9613 10.1505 21.9171 10.8122 20.481C11.4909 19.0077 13.8306 15.5448 17.9486 13.3665C23.4381 10.4626 16.0018 5.49449 10.8122 6.25203C6.91244 6.82128 3.67578 9.43729 3.67578 13.3665Z" fill="#2F2E41"/>
<path d="M7.35195 10.1327C9.74063 10.1327 11.677 8.20229 11.677 5.82095C11.677 3.43961 9.74063 1.50916 7.35195 1.50916C4.96327 1.50916 3.02686 3.43961 3.02686 5.82095C3.02686 8.20229 4.96327 10.1327 7.35195 10.1327Z" fill="#2F2E41"/>
<path d="M12.3259 4.3118C12.3255 3.22476 11.913 2.17804 11.171 1.38144C10.4291 0.584844 9.41256 0.0972256 8.3252 0.0163256C8.43266 0.00835299 8.54008 0 8.64958 0C9.79666 0 10.8968 0.454276 11.7079 1.26289C12.519 2.07151 12.9747 3.16824 12.9747 4.3118C12.9747 5.45536 12.519 6.55207 11.7079 7.36069C10.8968 8.16931 9.79666 8.62359 8.64958 8.62359C8.54008 8.62359 8.43266 8.61523 8.3252 8.60726C9.41256 8.52636 10.4291 8.03874 11.171 7.24214C11.9129 6.44555 12.3255 5.39884 12.3259 4.3118Z" fill="#2F2E41"/>
<path d="M13.7314 17.894C14.2689 17.894 14.7046 17.3148 14.7046 16.6004C14.7046 15.886 14.2689 15.3069 13.7314 15.3069C13.194 15.3069 12.7583 15.886 12.7583 16.6004C12.7583 17.3148 13.194 17.894 13.7314 17.894Z" fill="#FFB8B8"/>
<path d="M136.275 116.811H68.9471L54.6897 49.6196H42.522V46.6047H57.141L71.3984 113.796H136.275V116.811Z" fill="#3F3D56"/>
<path d="M78.8137 129.086C82.3928 129.086 85.2943 126.194 85.2943 122.626C85.2943 119.058 82.3928 116.165 78.8137 116.165C75.2345 116.165 72.333 119.058 72.333 122.626C72.333 126.194 75.2345 129.086 78.8137 129.086Z" fill="#3F3D56"/>
<path d="M127.202 129.086C130.782 129.086 133.683 126.194 133.683 122.626C133.683 119.058 130.782 116.165 127.202 116.165C123.623 116.165 120.722 119.058 120.722 122.626C120.722 126.194 123.623 129.086 127.202 129.086Z" fill="#3F3D56"/>
<path d="M135.048 115.391H69.5414L57.9834 58.4492H145.895C146.343 58.4493 146.786 58.5462 147.194 58.7333C147.601 58.9204 147.963 59.1933 148.255 59.5331C148.546 59.873 148.761 60.2718 148.883 60.7021C149.005 61.1324 149.032 61.5839 148.963 62.0257L138.116 112.776C138.004 113.506 137.632 114.172 137.069 114.652C136.506 115.132 135.789 115.394 135.048 115.391ZM70.2528 114.53H135.048C135.583 114.532 136.1 114.343 136.507 113.996C136.913 113.65 137.181 113.169 137.262 112.642L148.109 61.892C148.159 61.5731 148.139 61.2472 148.051 60.9366C147.963 60.626 147.808 60.3382 147.598 60.0928C147.388 59.8475 147.126 59.6506 146.832 59.5155C146.538 59.3805 146.218 59.3106 145.895 59.3106H59.0323L70.2528 114.53Z" fill="#3F3D56"/>
<path d="M82.2758 115.209L74.7065 58.9501L75.5589 58.8097L83.1282 115.069L82.2758 115.209Z" fill="#3F3D56"/>
<path d="M124.363 114.777L123.51 114.639L130.858 58.811L131.712 58.9489L124.363 114.777Z" fill="#3F3D56"/>
<path d="M104.311 58.88H103.447V115.139H104.311V58.88Z" fill="#3F3D56"/>
<path d="M62.3971 73.955L62.395 74.8164L146.037 75.0183L146.04 74.1569L62.3971 73.955Z" fill="#3F3D56"/>
<path d="M140.137 100.565L66.6553 101.066L66.6612 101.928L140.143 101.427L140.137 100.565Z" fill="#3F3D56"/>
<path d="M43.8179 50.2656C46.4426 50.2656 48.5704 49.1086 48.5704 47.6813C48.5704 46.2541 46.4426 45.097 43.8179 45.097C41.1932 45.097 39.0654 46.2541 39.0654 47.6813C39.0654 49.1086 41.1932 50.2656 43.8179 50.2656Z" fill="#3F3D56"/>
</svg>
