<svg width="120" height="23" viewBox="0 0 120 23" fill="none" xmlns="http://www.w3.org/2000/svg">
<g clip-path="url(#clip0_910_5133)">
<path d="M14.8599 20.1845V23H0V5.03442H4.01304V20.1845H14.8599Z" fill="white"/>
<path d="M31.6917 20.1329V23H16.3525V5.03442H31.486L31.418 7.95317H20.3656V12.1168L30.894 12.0636V14.8308H20.3656V20.1329H31.6917Z" fill="white"/>
<path d="M48.0272 20.2909V23H33.2188V5.03442H37.2882L37.182 20.1877L48.0272 20.2909Z" fill="white"/>
<path d="M64.1608 20.2909V23H49.354V5.03442H53.4218L53.3156 20.1877L64.1608 20.2909Z" fill="white"/>
<path d="M103.638 20.2909V23H88.8311V5.03442H92.8988L92.7927 20.1877L103.638 20.2909Z" fill="white"/>
<path d="M120 20.2909V23H105.193V5.03442H109.261L109.155 20.1877L120 20.2909Z" fill="white"/>
<path d="M78.5495 5.03442H74.4652L65.4209 23.0016H69.7324L71.7539 18.6074H81.0602L83.2408 23.0016H87.3865L78.5495 5.03442ZM73.0623 15.9434L76.3788 8.91264L79.7866 15.9434H73.0623Z" fill="white"/>
<path d="M29.5143 0L25.362 3.85081H21.8066L25.5112 0H29.5143Z" fill="#F06D06"/>
</g>
<defs>
<clipPath id="clip0_910_5133">
<rect width="120" height="23" fill="white"/>
</clipPath>
</defs>
</svg>
