<svg width="120" height="120" viewBox="0 0 120 120" fill="none" xmlns="http://www.w3.org/2000/svg">
<path d="M93.6 73.8C95.35 69.55 96.3 65 96.3 60C96.3 56.4 95.75 52.95 94.8 49.75C91.55 50.5 88.15 50.9 84.6 50.9C77.3299 50.9078 70.1644 49.1676 63.7076 45.8261C57.2509 42.4846 51.6922 37.6398 47.5 31.7C43.0155 42.5509 34.5556 51.279 23.85 56.1C23.65 57.35 23.65 58.7 23.65 60C23.65 64.7736 24.5902 69.5004 26.417 73.9105C28.2437 78.3207 30.9213 82.3279 34.2967 85.7033C41.1136 92.5203 50.3594 96.35 60 96.35C65.25 96.35 70.3 95.2 74.85 93.15C77.7 98.6 79 101.3 78.9 101.3C70.7 104.05 64.35 105.4 60 105.4C47.9 105.4 36.35 100.65 27.85 92.1C22.68 86.9459 18.8369 80.615 16.65 73.65H10V50.9H15.45C17.1012 42.8626 20.8975 35.4221 26.4359 29.368C31.9744 23.3139 39.0485 18.872 46.9076 16.5138C54.7668 14.1556 63.1177 13.9689 71.0743 15.9735C79.031 17.9782 86.2965 22.0995 92.1 27.9C98.4011 34.1763 102.699 42.1805 104.45 50.9H110V73.65H109.7L91.9 90L65.4 87V78.65H89.55L93.6 73.8ZM46.35 58.85C47.85 58.85 49.3 59.45 50.35 60.55C51.4052 61.6139 51.9973 63.0516 51.9973 64.55C51.9973 66.0484 51.4052 67.4862 50.35 68.55C49.3 69.6 47.85 70.2 46.35 70.2C43.2 70.2 40.65 67.7 40.65 64.55C40.65 61.4 43.2 58.85 46.35 58.85ZM73.6 58.85C76.75 58.85 79.25 61.4 79.25 64.55C79.25 67.7 76.75 70.2 73.6 70.2C70.45 70.2 67.9 67.7 67.9 64.55C67.9 63.0383 68.5005 61.5885 69.5695 60.5195C70.6385 59.4505 72.0883 58.85 73.6 58.85Z" fill="#2F313F"/>
</svg>
