<svg width="200" height="177" viewBox="0 0 200 177" fill="none" xmlns="http://www.w3.org/2000/svg">
<path d="M111.639 32.9202C111.759 31.8642 112.599 31.2658 113.639 31.3714C114.679 31.477 115.359 32.181 115.239 33.237C115.119 34.293 114.279 34.8914 113.239 34.7858C112.199 34.7154 111.519 34.0114 111.639 32.9202ZM117.759 31.829L119.199 31.9698L113.719 37.7074L112.279 37.5666L117.759 31.829ZM114.039 33.1314C114.119 32.4978 113.879 32.2514 113.559 32.2162C113.239 32.181 112.959 32.4274 112.879 33.0258C112.799 33.6594 113.039 33.9058 113.359 33.941C113.679 33.9762 113.959 33.765 114.039 33.1314ZM116.239 36.2642C116.359 35.2082 117.199 34.6098 118.239 34.7154C119.279 34.821 119.959 35.525 119.839 36.581C119.719 37.637 118.879 38.2354 117.839 38.1298C116.799 38.0594 116.119 37.3554 116.239 36.2642ZM118.639 36.4754C118.719 35.8418 118.479 35.5954 118.159 35.5602C117.839 35.525 117.559 35.7714 117.479 36.3698C117.399 37.0034 117.639 37.2498 117.959 37.285C118.279 37.3202 118.559 37.109 118.639 36.4754Z" fill="#E0E0E0"/>
<path d="M152 28.2384C151.56 25.9152 152.76 24.1552 155 23.8032C157.24 23.4864 159 24.7888 159.48 27.112C159.92 29.4352 158.72 31.1952 156.48 31.512C154.28 31.864 152.44 30.5616 152 28.2384ZM158 27.3584C157.68 25.6688 156.64 24.7888 155.24 24.9648C153.88 25.176 153.2 26.3376 153.52 27.992C153.84 29.6816 154.92 30.5616 156.28 30.3856C157.68 30.1744 158.36 29.048 158 27.3584ZM164.76 22.5008L166.52 22.2544L158.24 38.0592L156.48 38.3056L164.76 22.5008ZM163.48 33.4128C163.04 31.0896 164.24 29.3296 166.48 29.0128C168.72 28.696 170.52 30.0336 170.96 32.3216C171.4 34.6448 170.2 36.4048 167.96 36.7568C165.72 37.0384 163.92 35.7008 163.48 33.4128ZM169.48 32.5328C169.16 30.8432 168.08 29.9632 166.72 30.1392C165.32 30.3504 164.64 31.4768 165 33.1664C165.32 34.856 166.36 35.736 167.76 35.56C169.12 35.3488 169.8 34.1872 169.48 32.5328Z" fill="#E0E0E0"/>
<path d="M29.4393 77.342C28.7193 75.934 29.2793 74.6668 30.6793 74.1036C32.0793 73.5404 33.5193 74.0332 34.2393 75.4412C34.9593 76.8844 34.3993 78.1164 32.9993 78.6796C31.6393 79.2076 30.1993 78.7852 29.4393 77.342ZM32.6393 76.0748C32.1993 75.23 31.7193 75.054 31.2793 75.23C30.8393 75.406 30.6393 75.8636 31.0793 76.7084C31.5193 77.5532 32.0393 77.7292 32.4393 77.5532C32.8793 77.3772 33.0393 76.9196 32.6393 76.0748ZM36.2793 72.062L38.1993 71.3228L35.9993 82.0236L34.0793 82.7628L36.2793 72.062ZM38.0393 78.6092C37.3193 77.2012 37.8793 75.934 39.2793 75.3708C40.6793 74.8076 42.1193 75.3004 42.8393 76.7084C43.5593 78.1516 42.9993 79.3836 41.5993 79.9468C40.1993 80.51 38.7593 80.0524 38.0393 78.6092ZM41.1993 77.3772C40.7593 76.5324 40.2793 76.3564 39.8393 76.5324C39.3993 76.7084 39.1993 77.166 39.6393 78.0108C40.0793 78.8556 40.5593 79.0316 40.9993 78.8556C41.4393 78.6796 41.6393 78.222 41.1993 77.3772Z" fill="#E0E0E0"/>
<path d="M178.519 104.938L180.559 105.431L171.079 112.506L169.039 112.013L178.519 104.938ZM169.439 105.22C169.919 103.706 171.279 103.072 172.719 103.424C174.199 103.776 174.959 104.938 174.519 106.452C174.039 107.965 172.679 108.599 171.239 108.247C169.759 107.895 168.959 106.733 169.439 105.22ZM172.799 106.029C173.079 105.149 172.839 104.727 172.359 104.586C171.919 104.48 171.399 104.727 171.159 105.607C170.879 106.487 171.159 106.944 171.599 107.05C172.079 107.156 172.519 106.909 172.799 106.029ZM175.119 110.992C175.599 109.479 176.919 108.845 178.399 109.197C179.879 109.549 180.639 110.711 180.199 112.224C179.719 113.738 178.359 114.372 176.919 114.02C175.439 113.668 174.639 112.506 175.119 110.992ZM178.479 111.802C178.759 110.922 178.479 110.5 178.039 110.359C177.559 110.253 177.079 110.5 176.839 111.38C176.559 112.26 176.839 112.682 177.279 112.823C177.719 112.964 178.199 112.682 178.479 111.802Z" fill="#E0E0E0"/>
<path d="M101.639 64.9167C101.599 64.2127 102.039 63.7551 102.719 63.7199C103.399 63.6847 103.879 64.1423 103.919 64.8463C103.959 65.5503 103.519 66.0079 102.839 66.0431C102.159 66.0431 101.679 65.5855 101.639 64.9167ZM103.359 64.8463C103.359 64.3887 103.119 64.1071 102.759 64.1423C102.399 64.1423 102.199 64.4239 102.199 64.8815C102.199 65.3391 102.479 65.6207 102.799 65.5855C103.199 65.5855 103.399 65.3391 103.359 64.8463ZM105.599 63.6495L106.279 63.6143L103.199 67.9439L102.519 67.9791L105.599 63.6495ZM104.879 66.7823C104.839 66.0783 105.279 65.6207 105.959 65.5855C106.639 65.5503 107.119 66.0079 107.159 66.7119C107.199 67.4159 106.759 67.8735 106.079 67.9087C105.359 67.9439 104.879 67.4863 104.879 66.7823ZM106.599 66.7471C106.599 66.2895 106.359 66.0079 105.999 66.0431C105.639 66.0431 105.439 66.3247 105.439 66.7823C105.439 67.2399 105.679 67.5215 106.039 67.4863C106.399 67.4863 106.599 67.2047 106.599 66.7471Z" fill="#E0E0E0"/>
<path d="M176.52 65.1271C176.48 64.4231 176.92 63.9655 177.6 63.9303C178.28 63.8951 178.76 64.3527 178.8 65.0567C178.84 65.7607 178.4 66.2183 177.72 66.2535C177.04 66.2535 176.56 65.7959 176.52 65.1271ZM178.28 65.0567C178.28 64.5991 178.04 64.3175 177.68 64.3527C177.32 64.3527 177.12 64.6343 177.12 65.0919C177.12 65.5495 177.4 65.8311 177.72 65.7959C178.08 65.7959 178.28 65.5143 178.28 65.0567ZM180.52 63.8599L181.2 63.8247L178.12 68.1543L177.44 68.1895L180.52 63.8599ZM179.76 66.9927C179.72 66.2887 180.16 65.8311 180.84 65.7959C181.52 65.7607 182 66.2183 182.04 66.9223C182.08 67.6263 181.64 68.0839 180.96 68.1191C180.28 68.1543 179.8 67.6967 179.76 66.9927ZM181.48 66.9575C181.48 66.4999 181.24 66.2183 180.88 66.2535C180.52 66.2535 180.32 66.5351 180.32 66.9927C180.32 67.4503 180.56 67.7319 180.92 67.6967C181.28 67.6967 181.52 67.4151 181.48 66.9575Z" fill="#E0E0E0"/>
<path d="M116.52 51.4707L119.64 52.9843L116.52 54.4979L114.8 57.2435L113.08 54.4979L109.92 52.9843L113.08 51.4707L114.8 48.6899L116.52 51.4707Z" fill="#EBEBEB"/>
<path d="M106.92 47.633L108 48.161L106.92 48.689L106.32 49.6042L105.76 48.689L104.68 48.161L105.76 47.633L106.32 46.7178L106.92 47.633Z" fill="#EBEBEB"/>
<path d="M96.4802 72.238L97.5602 72.7308L96.4802 73.2588L95.8802 74.2092L95.3202 73.2588L94.2402 72.7308L95.3202 72.238L95.8802 71.2876L96.4802 72.238Z" fill="#EBEBEB"/>
<path d="M157.64 49.6745L159.56 50.6249L157.64 51.5401L156.56 53.2297L155.52 51.5401L153.6 50.6249L155.52 49.6745L156.56 47.9849L157.64 49.6745Z" fill="#EBEBEB"/>
<path d="M171.719 74.5614L173.439 75.7582L171.359 76.3918L170.039 77.9406L169.279 76.1102L167.559 74.9486L169.599 74.2798L170.959 72.731L171.719 74.5614Z" fill="#EBEBEB"/>
<path d="M142.238 59.6363L143.598 60.2699L142.238 60.9386L141.518 62.1355L140.758 60.9386L139.398 60.2699L140.758 59.6363L141.518 58.4395L142.238 59.6363Z" fill="#EBEBEB"/>
<path d="M168.399 150.734C169.359 151.086 170.039 151.86 170.399 152.74C170.759 153.585 170.799 154.535 170.679 155.45C170.439 157.21 169.319 158.97 168.119 160.378C166.439 159.076 166.039 156.823 165.959 155.697C165.719 153.866 166.639 150.452 168.399 150.734Z" fill="#00A661"/>
<path d="M170.041 163.265C169.761 162.279 170.241 161.188 171.121 160.519C172.001 159.851 173.201 159.569 174.361 159.639C174.881 159.675 175.481 159.815 175.761 160.203C176.041 160.555 176.001 161.083 175.801 161.47C175.561 161.857 175.161 162.139 174.761 162.385C173.241 163.159 171.681 163.687 170.041 163.265Z" fill="#00A661"/>
<path d="M167.881 168.65C167.881 168.65 167.881 168.509 167.921 168.298C167.961 168.052 168.041 167.7 168.121 167.313C168.321 166.503 168.561 165.341 169.281 164.215C170.001 163.089 171.001 162.244 171.801 161.857C172.201 161.645 172.561 161.505 172.841 161.469C172.961 161.434 173.081 161.434 173.121 161.399C173.201 161.399 173.241 161.399 173.241 161.399C173.241 161.434 172.641 161.505 171.841 161.962C171.041 162.385 170.081 163.194 169.361 164.321C168.641 165.412 168.401 166.573 168.201 167.383C168.081 167.805 168.001 168.122 167.961 168.333C167.921 168.509 167.881 168.65 167.881 168.65Z" fill="#263238"/>
<path d="M167.96 153.373C167.96 153.373 167.96 153.443 168 153.513C168 153.619 168 153.795 168.04 153.971C168.08 154.358 168.08 154.921 168.12 155.625C168.16 157.033 168.2 158.969 168.2 161.117C168.2 163.264 168.12 165.2 168.08 166.608C168.04 167.312 168 167.875 168 168.262C168 168.438 167.96 168.614 167.96 168.72C167.96 168.825 167.96 168.861 167.92 168.861C167.92 168.861 167.92 168.79 167.92 168.72C167.92 168.614 167.92 168.438 167.92 168.262C167.92 167.84 167.96 167.277 167.96 166.608C168 165.2 168.04 163.264 168.04 161.117C168.04 158.969 168.04 157.033 168 155.625C168 154.921 167.96 154.358 167.96 153.971C167.96 153.795 167.96 153.619 167.96 153.513C167.92 153.443 167.96 153.373 167.96 153.373Z" fill="#263238"/>
<path d="M167.12 164.321C166.72 162.209 165.12 160.273 162.92 159.358C162.36 159.111 161.64 158.97 161.16 159.322C160.68 159.674 160.8 160.343 161.04 160.871C162 162.983 164.52 164.497 167.08 164.462" fill="#00A661"/>
<path d="M163.199 161.012C163.199 161.012 163.319 161.047 163.559 161.153C163.679 161.188 163.799 161.258 163.959 161.329C164.119 161.399 164.279 161.505 164.479 161.61C164.679 161.716 164.879 161.857 165.079 161.997C165.279 162.138 165.479 162.314 165.719 162.49C166.119 162.877 166.559 163.3 166.919 163.828C167.279 164.356 167.519 164.884 167.719 165.377C167.799 165.623 167.879 165.869 167.919 166.116C167.959 166.327 167.999 166.573 168.039 166.749C168.079 166.961 168.079 167.137 168.079 167.277C168.079 167.418 168.079 167.559 168.079 167.665C168.079 167.876 168.039 168.017 168.039 168.017C167.999 168.017 168.079 167.524 167.959 166.749C167.919 166.573 167.919 166.327 167.839 166.116C167.799 165.905 167.719 165.658 167.639 165.412C167.439 164.919 167.199 164.391 166.879 163.898C166.519 163.405 166.119 162.948 165.719 162.561C165.519 162.385 165.319 162.209 165.119 162.068C164.919 161.927 164.719 161.786 164.559 161.681C163.679 161.258 163.159 161.047 163.199 161.012Z" fill="#263238"/>
<path d="M74.6401 45.521C75.1201 45.521 80.5601 46.6826 82.0801 49.041C83.6001 51.3994 84.2801 60.0938 84.2801 60.0938C84.2801 60.0938 84.7201 66.1834 83.7601 69.1402C82.8001 72.097 79.6801 86.4586 78.5601 89.3802C77.0801 93.1114 75.0001 99.3066 75.0001 99.3066L57.0801 88.1482L74.6401 45.521Z" fill="#F06D06"/>
<path d="M80.321 32.0047C79.561 33.4831 79.801 35.2079 80.241 36.7567C80.681 38.3055 81.361 39.8895 81.321 41.5087C81.321 43.9023 80.601 47.1407 75.121 45.5919C71.801 44.6415 74.841 53.3711 73.041 56.0111C72.681 56.5391 72.321 57.0671 71.761 57.4191C70.401 58.2639 68.561 57.7711 67.001 57.2431C66.521 57.0671 65.961 56.8559 65.841 56.3983C65.801 56.1519 65.881 55.9407 65.921 55.6943C68.641 47.7391 71.361 39.7487 74.121 31.7935" fill="#263238"/>
<path d="M70.9994 50.6275C74.1594 49.9587 75.1194 48.5859 75.1594 46.1571C75.1994 43.0595 75.1994 43.0595 75.1994 43.0595C75.1994 43.0595 78.6794 42.8835 79.4794 38.3427C79.8794 36.0899 80.2394 32.3939 79.9994 29.3667C79.7994 26.6211 76.5594 21.7987 73.4794 22.1155L64.9994 25.741C64.0394 25.8466 63.3594 26.5507 63.3594 27.3603L63.9994 45.0307" fill="#FFBEA9"/>
<path d="M78.0388 32.529C78.0388 32.8458 77.7587 33.0922 77.3987 33.1274C77.0387 33.1626 76.7188 32.9162 76.7188 32.5994C76.7188 32.2826 76.9987 32.0362 77.3587 32.001C77.7187 32.001 78.0388 32.2122 78.0388 32.529Z" fill="#263238"/>
<path d="M79.1194 31.4393C79.0794 31.5449 78.4793 31.2633 77.7593 31.4041C77.0793 31.5449 76.6393 31.9673 76.5593 31.8969C76.5193 31.8617 76.5594 31.6857 76.7194 31.5097C76.8794 31.2985 77.2393 31.0873 77.6793 31.0169C78.1193 30.9465 78.5193 31.0169 78.7593 31.1577C79.0393 31.2633 79.1194 31.4041 79.1194 31.4393Z" fill="#263238"/>
<path d="M71.1598 32.4601C71.1598 32.7769 70.8798 33.0233 70.5198 33.0585C70.1598 33.0937 69.8398 32.8473 69.8398 32.5305C69.8398 32.2137 70.1198 31.9673 70.4798 31.9321C70.8398 31.9321 71.1598 32.1433 71.1598 32.4601Z" fill="#263238"/>
<path d="M72.0386 32.1134C71.9186 32.1838 71.5186 31.691 70.7586 31.4798C69.9986 31.2686 69.3586 31.4798 69.3186 31.3742C69.2786 31.339 69.4386 31.1982 69.7186 31.0926C69.9986 30.987 70.4386 30.9518 70.9186 31.0574C71.3986 31.163 71.7186 31.4446 71.8786 31.6558C72.0386 31.9022 72.0786 32.0782 72.0386 32.1134Z" fill="#263238"/>
<path d="M74.6786 36.0814C74.6786 36.0462 75.1186 35.9758 75.8386 35.9054C76.0386 35.9054 76.1986 35.8702 76.2386 35.7294C76.2786 35.6238 76.1986 35.4478 76.1186 35.2366C75.9586 34.8494 75.7586 34.427 75.5586 34.0046C74.7986 32.2798 74.2786 30.8366 74.3186 30.8014C74.3986 30.7662 75.0786 32.1742 75.8386 33.899C76.0386 34.3214 76.1986 34.7438 76.3586 35.131C76.4386 35.307 76.5586 35.5182 76.4386 35.7646C76.3986 35.8702 76.2386 35.9758 76.1586 36.011C76.0386 36.0462 75.9586 36.0462 75.8386 36.0462C75.1586 36.1166 74.6786 36.1166 74.6786 36.0814Z" fill="#263238"/>
<path d="M75.1993 43.0967C75.1993 43.0967 71.7193 43.3079 68.2793 41.4775C68.2793 41.4775 69.9993 44.7159 75.1993 44.2935V43.0967Z" fill="#E4977C"/>
<path d="M74.5587 37.6382C74.1987 37.1806 73.6787 36.8638 73.1987 36.8286C72.8787 36.8286 72.5587 36.9342 72.3987 37.2158C72.2387 37.4974 72.2787 37.9198 72.5187 38.2718C72.7987 38.659 73.2387 38.7998 73.5987 38.7294C73.9587 38.659 74.2387 38.4478 74.4787 38.2014C74.5587 38.131 74.6387 38.0606 74.6787 37.9902C74.7187 37.8846 74.6787 37.7438 74.5587 37.6382Z" fill="#E4977C"/>
<path d="M72.5995 36.54C72.7195 36.54 72.7195 37.2088 73.3995 37.7016C74.0795 38.1944 74.8795 38.124 74.8795 38.1944C74.8795 38.2296 74.6795 38.3352 74.3595 38.3352C73.9995 38.3352 73.5195 38.2648 73.1195 37.948C72.7195 37.6664 72.5195 37.244 72.5195 36.9624C72.4395 36.6808 72.5195 36.54 72.5995 36.54Z" fill="#263238"/>
<path d="M72.639 29.1863C72.559 29.3623 71.839 29.2215 70.999 29.2215C70.159 29.2215 69.439 29.3623 69.359 29.2215C69.319 29.1511 69.439 29.0103 69.759 28.8695C70.039 28.7287 70.479 28.6231 70.999 28.5879C71.519 28.5879 71.959 28.6935 72.239 28.8343C72.559 28.9751 72.679 29.1159 72.639 29.1863Z" fill="#263238"/>
<path d="M79.3182 30.0677C79.1582 30.2085 78.5582 30.0677 77.7982 30.0677C77.0782 30.0325 76.4382 30.1733 76.2782 29.9973C76.1982 29.9269 76.3182 29.7861 76.5982 29.6453C76.8782 29.5045 77.3182 29.3989 77.8382 29.3989C78.3582 29.3989 78.7982 29.5397 79.0382 29.6805C79.3182 29.8565 79.3982 29.9973 79.3182 30.0677Z" fill="#263238"/>
<path d="M52.3192 46.8579C53.4392 45.2387 57.0792 41.4019 58.3992 38.7619C59.3192 36.8611 59.9992 30.2435 61.9592 26.8291C63.9192 23.4147 66.2392 22.0419 68.5192 21.4787C70.7992 20.9507 72.4792 21.6547 73.5192 22.4643C74.5592 23.2739 74.8792 25.6323 74.8792 25.6323C74.8792 25.6323 69.3992 26.6883 67.5592 29.4339C65.4392 32.6019 64.9192 34.1859 64.9192 34.1859L64.2392 35.9107C64.2392 35.9107 64.8792 39.2547 65.1192 40.9091C65.3592 42.5635 64.9592 44.0771 63.4392 44.7811L60.3192 46.7171C60.3192 46.7171 61.9992 62.6979 61.7992 62.8035C61.3192 63.1203 57.4392 62.4163 53.9192 61.7123C53.2392 61.5715 52.8792 55.9395 52.8792 55.9395L51.8392 61.2195L49.1992 60.6915C49.2392 60.6563 49.9992 50.1315 52.3192 46.8579Z" fill="#263238"/>
<path d="M74.7591 25.632C74.7591 25.632 78.1591 25.3504 79.3191 28.448C79.8391 29.856 80.2391 33.904 80.2391 33.904C80.2391 33.904 80.6791 30.6656 80.5191 28.8352C80.3591 27.0048 79.3191 24.6816 77.7191 23.3792C76.1591 22.112 74.8391 21.5488 72.0391 21.6896C72.0391 21.6896 73.1591 22.1472 73.8791 23.0624C74.2391 23.52 74.3191 23.872 74.7591 25.632Z" fill="#263238"/>
<path d="M64.9606 34.4047C64.9206 33.3839 63.6406 32.7151 62.6806 33.2431C62.1206 33.5247 61.7206 34.0879 61.7606 35.1439C61.8806 37.9951 65.1206 37.2911 65.1206 37.2207C65.1206 37.1503 65.0406 35.6015 64.9606 34.4047Z" fill="#FFBEA9"/>
<path d="M64.0812 36.1536C64.0812 36.1536 64.0412 36.1888 63.9212 36.224C63.8412 36.2592 63.6812 36.2944 63.4812 36.2592C63.1212 36.1536 62.8412 35.696 62.8012 35.168C62.7612 34.9216 62.8412 34.6752 62.9212 34.464C63.0012 34.2528 63.1612 34.112 63.3212 34.0768C63.4812 34.0416 63.6012 34.112 63.6412 34.2176C63.6812 34.288 63.6812 34.3584 63.6812 34.3584C63.6812 34.3584 63.7612 34.3232 63.7212 34.1824C63.7212 34.112 63.6812 34.0768 63.6012 34.0064C63.5212 33.936 63.4012 33.936 63.2812 33.936C63.0412 33.9712 62.8012 34.1824 62.7212 34.3936C62.6012 34.64 62.5212 34.9216 62.5612 35.2032C62.6012 35.7664 62.9612 36.2944 63.4412 36.4C63.6812 36.4352 63.8412 36.3648 63.9612 36.2944C64.0812 36.224 64.0812 36.1536 64.0812 36.1536Z" fill="#E4977C"/>
<path d="M63.2801 25.1763C61.2801 27.6403 59.9201 30.4915 59.2801 33.4835C58.8801 35.3491 58.7601 37.3907 57.4801 38.9043C56.8001 39.7139 55.8401 40.3123 55.3201 41.2275C54.7601 42.2131 54.8401 43.4099 54.2001 44.3251C53.5201 45.3459 52.1201 45.8387 51.2001 46.7187C49.4801 48.3731 49.8801 50.9427 49.1601 53.0899C48.7201 54.4627 47.8001 55.6947 46.5601 56.6099C46.1201 56.9267 45.6001 57.3139 45.7601 57.8067C45.8401 58.0883 46.1601 58.2643 46.4801 58.4051C47.4801 58.8627 48.3601 60.5171 49.4401 60.7283C49.6801 55.5891 52.4801 49.4291 55.5601 45.0643C57.3201 42.5651 59.2401 40.0659 59.9201 37.2147C60.3601 35.3139 60.2801 33.3779 60.5201 31.4419C60.7601 29.5059 61.4401 27.5347 63.0801 26.2675" fill="#263238"/>
<path d="M62.2809 37.9885C62.2409 38.0237 61.9609 37.9181 61.5609 37.5309C61.2009 37.1437 60.7209 36.4749 60.6409 35.5245C60.6009 35.0669 60.6409 34.5037 60.8409 33.9757C61.0409 33.4477 61.4009 32.9197 61.8409 32.4621C62.2809 32.0045 62.8009 31.5469 63.3209 31.1245C63.8409 30.7021 64.4409 30.2797 65.0409 29.8925C66.2809 29.0829 67.5609 28.4493 68.7609 27.9565C69.9609 27.4637 71.0809 27.1469 71.9209 26.7597C72.8009 26.4077 73.4009 26.0205 73.8009 25.7037C74.2009 25.3869 74.3609 25.1757 74.4409 25.2109C74.4809 25.2461 74.4409 25.5277 74.1209 25.9501C73.8009 26.3725 73.1609 26.9005 72.2809 27.3581C71.4009 27.8157 70.3209 28.2029 69.2009 28.7309C68.0809 29.2589 66.8809 29.8925 65.6809 30.6669C65.0809 31.0541 64.5209 31.4413 64.0009 31.8285C63.4809 32.2157 63.0009 32.6029 62.5609 33.0253C62.1609 33.4125 61.8409 33.8349 61.6409 34.2573C61.4409 34.6797 61.3609 35.1021 61.3609 35.4893C61.3609 36.2989 61.6409 36.8973 61.8809 37.3197C62.1609 37.7069 62.3609 37.9181 62.2809 37.9885Z" fill="#263238"/>
<path d="M63.6011 38.0948C63.6011 38.0948 63.5611 38.0948 63.4411 38.0244C63.3211 37.9892 63.2011 37.8836 63.0011 37.778C62.6411 37.5316 62.2011 37.1092 61.8411 36.4756C61.5211 35.842 61.2811 34.9972 61.5611 34.082C61.8411 33.1668 62.6011 32.322 63.5211 31.6532C64.4411 30.9844 65.4011 30.4564 66.2811 29.9636C67.1611 29.4708 67.9611 29.0836 68.6411 28.7316C69.3211 28.4148 69.8811 28.1684 70.2811 27.9924C70.4811 27.922 70.6411 27.8516 70.7211 27.8164C70.8011 27.7812 70.8811 27.746 70.8811 27.7812C70.8811 27.7812 70.6811 27.8868 70.2811 28.0628C69.8811 28.2388 69.3611 28.5204 68.6811 28.8372C68.0011 29.1892 67.2011 29.6116 66.3211 30.0692C65.4811 30.562 64.4811 31.09 63.6011 31.7588C62.6811 32.4276 61.9611 33.202 61.7211 34.082C61.4411 34.9268 61.6411 35.7716 61.9611 36.4052C62.2811 37.0388 62.6811 37.4612 63.0411 37.7076C63.4011 37.9892 63.6411 38.0948 63.6011 38.0948Z" fill="#455A64"/>
<path d="M70.041 21.2688C70.041 21.2336 70.441 21.1984 71.121 21.3392C71.761 21.48 72.641 21.7968 73.401 22.3952C74.161 22.9936 74.561 23.768 74.721 24.3312C74.801 24.6128 74.801 24.8592 74.801 25C74.801 25.176 74.801 25.2464 74.761 25.2464C74.721 25.2464 74.721 24.8944 74.561 24.3312C74.401 23.8032 74.001 23.064 73.241 22.5008C72.481 21.9376 71.681 21.5856 71.041 21.4448C70.481 21.2688 70.041 21.304 70.041 21.2688Z" fill="#455A64"/>
<path d="M61.8405 36.8272C61.8405 36.8272 61.6805 36.968 61.4805 37.2144C61.2405 37.496 60.9605 37.9184 60.8805 38.4816C60.8005 39.0448 60.9205 39.784 61.4005 40.4176C61.8805 41.0512 62.8005 41.5792 63.8405 41.4384C64.3205 41.4032 64.8005 41.192 65.1205 40.9104C65.4405 40.6288 65.6405 40.2416 65.7205 39.8544C65.9205 39.08 65.8005 38.376 65.5205 37.848C65.2405 37.32 64.7605 37.0384 64.4005 36.8976C64.0405 36.792 63.8405 36.792 63.8405 36.7568C63.8405 36.7568 63.8805 36.7568 64.0005 36.7568C64.1205 36.7568 64.2405 36.792 64.4405 36.8272C64.8005 36.9328 65.3205 37.2144 65.6405 37.7776C65.9605 38.3408 66.0805 39.08 65.8805 39.8896C65.8005 40.2768 65.6005 40.6992 65.2405 41.016C64.8805 41.3328 64.3605 41.544 63.8405 41.6144C63.2805 41.6848 62.7605 41.544 62.3205 41.3328C61.8805 41.1216 61.5205 40.8048 61.2405 40.488C60.7205 39.8192 60.6005 39.0096 60.7205 38.4112C60.8405 37.8128 61.1605 37.3552 61.4005 37.1088C61.5205 36.968 61.6405 36.8976 61.7205 36.8272C61.8005 36.8624 61.8405 36.8272 61.8405 36.8272Z" fill="#E0E0E0"/>
<path d="M49.1204 160.906L51.4004 152.247L43.4004 151.05V157.421L45.6404 160.308L49.1204 160.906Z" fill="#FFBEA9"/>
<path d="M49.8809 160.489L49.6009 160.876C49.6009 160.876 55.0009 167.494 54.2009 168.726L39.8809 160.63L43.1609 156.546C44.6409 158.623 46.7609 159.996 49.8809 160.489Z" fill="#F06D06"/>
<g opacity="0.6">
<path d="M43.5998 158.725C43.2798 158.619 42.8798 158.795 42.7598 159.077C42.6398 159.358 42.8398 159.71 43.1598 159.816C43.4798 159.922 43.9598 159.71 44.0398 159.429C44.1198 159.147 43.8798 158.725 43.5198 158.725" fill="white"/>
</g>
<g opacity="0.6">
<path d="M39.8809 160.629L40.6809 159.643L54.1209 167.774C54.1209 167.774 54.5609 168.373 54.2009 168.725L39.8809 160.629Z" fill="white"/>
</g>
<path d="M49.6008 160.943C49.5608 161.013 49.2008 160.837 48.6808 160.837C48.2008 160.837 47.8008 160.978 47.7608 160.943C47.7208 160.908 48.0808 160.591 48.6808 160.591C49.3208 160.591 49.6808 160.908 49.6008 160.943Z" fill="#263238"/>
<path d="M50.7205 162.356C50.6805 162.426 50.3205 162.356 49.8805 162.497C49.4405 162.602 49.2005 162.849 49.1205 162.814C49.0405 162.778 49.2805 162.391 49.8005 162.25C50.3205 162.074 50.7605 162.286 50.7205 162.356Z" fill="#263238"/>
<path d="M50.4001 164.392C50.3201 164.357 50.4401 164.005 50.8801 163.758C51.3201 163.512 51.7201 163.582 51.7201 163.653C51.7201 163.723 51.3601 163.794 51.0401 163.97C50.6801 164.181 50.4801 164.427 50.4001 164.392Z" fill="#263238"/>
<path d="M29.4398 105.994L36.6398 106.839L33.8798 113.809L26.1598 111.485L25.7598 108.916L29.4398 105.994Z" fill="#FFBEA9"/>
<path d="M26.922 111.938L26.482 111.762C26.482 111.762 20.402 117.113 19.002 116.655L25.282 103.877L30.002 105.884C28.122 107.433 27.002 109.369 26.922 111.938Z" fill="#F06D06"/>
<g opacity="0.6">
<path d="M27.8801 106.627C27.9201 106.345 27.6801 106.064 27.4001 105.993C27.0801 105.958 26.7601 106.134 26.6801 106.416C26.6401 106.697 26.8801 107.049 27.2001 107.084C27.5201 107.12 27.8801 106.838 27.8801 106.556" fill="white"/>
</g>
<g opacity="0.6">
<path d="M25.32 103.911L26.48 104.404L20 116.442C20 116.442 19.44 116.9 19 116.654L25.32 103.911Z" fill="white"/>
</g>
<path d="M26.4395 111.833C26.3595 111.798 26.4795 111.481 26.3995 111.094C26.3195 110.706 26.1195 110.425 26.1595 110.39C26.1995 110.354 26.5595 110.601 26.6795 111.058C26.7595 111.516 26.4795 111.868 26.4395 111.833Z" fill="#263238"/>
<path d="M25.1604 112.923C25.0804 112.923 25.0804 112.606 24.9204 112.254C24.7204 111.937 24.4404 111.761 24.4804 111.691C24.4804 111.62 24.9204 111.726 25.1604 112.148C25.3604 112.571 25.2004 112.923 25.1604 112.923Z" fill="#263238"/>
<path d="M22.9604 113.004C22.9604 112.934 23.3604 113.004 23.6804 113.286C24.0004 113.603 24.0004 113.955 23.9204 113.955C23.8404 113.955 23.7204 113.708 23.4804 113.462C23.2404 113.18 22.9204 113.04 22.9604 113.004Z" fill="#263238"/>
<path d="M68.92 99.3061C68.28 99.5877 60.28 126.797 57.72 127.924L52.6 150.029C52.6 150.029 53.08 150.487 52.96 151.472C52.84 152.458 52.36 152.599 52.36 152.599C52.36 152.599 44.96 153.408 42 151.508C42 151.508 42.36 149.572 42.52 149.396C42.68 149.255 43.4 131.69 45.2 127.607C47 123.524 49.4 110.57 49.16 107.965C48.92 105.36 48.12 99.2709 48.28 97.3349C48.44 95.3989 49.2 93.4629 49.2 93.4629L68.92 99.3061Z" fill="#263238"/>
<path d="M72.0799 100.432C72.0799 100.432 69.3599 116.836 66.9999 119.511C64.6399 122.186 61.4399 122.256 60.6799 122.362C59.9199 122.468 32.2799 113.492 32.2799 113.492C32.2799 113.492 31.8399 106.874 32.7199 105.888C32.7199 105.888 35.1999 105.994 35.7599 106.663L50.1199 108.458L55.3999 94.3428L72.0799 100.432Z" fill="#263238"/>
<path d="M67.3612 100.397C67.3612 100.397 67.3613 100.503 67.3213 100.679C67.2813 100.89 67.2013 101.137 67.1213 101.489C66.9213 102.193 66.6413 103.213 66.3213 104.445C65.6013 106.945 64.6412 110.359 63.5612 114.125C62.4812 117.927 61.3612 121.306 60.2812 123.7C59.7612 124.897 59.2412 125.847 58.8812 126.481C58.7212 126.797 58.5613 127.044 58.4413 127.22C58.3213 127.396 58.2812 127.466 58.2812 127.466C58.2812 127.466 58.3213 127.361 58.4013 127.185C58.4813 127.009 58.6413 126.762 58.8013 126.445C59.1613 125.812 59.6013 124.861 60.1213 123.665C61.1613 121.271 62.2813 117.892 63.3213 114.09C64.4013 110.324 65.4013 106.909 66.1213 104.41C66.4813 103.178 66.8013 102.193 67.0013 101.489C67.1213 101.172 67.2013 100.89 67.2413 100.679C67.3213 100.468 67.3612 100.397 67.3612 100.397Z" fill="#455A64"/>
<path d="M48.361 96.9126C48.361 96.9126 48.361 96.983 48.321 97.159C48.321 97.335 48.281 97.5462 48.281 97.863C48.281 98.4966 48.361 99.3766 48.481 100.468C48.601 101.559 48.761 102.897 48.881 104.34C49.001 105.783 49.281 107.402 49.281 109.092C49.321 112.506 48.441 115.498 47.921 117.645C47.641 118.701 47.441 119.581 47.281 120.215C47.201 120.497 47.161 120.743 47.121 120.919C47.081 121.095 47.041 121.165 47.041 121.165C47.041 121.165 47.041 121.095 47.081 120.919C47.121 120.743 47.161 120.497 47.201 120.215C47.321 119.617 47.521 118.737 47.761 117.645C48.241 115.463 49.121 112.471 49.041 109.092C49.041 107.402 48.761 105.818 48.641 104.34C48.521 102.897 48.361 101.559 48.281 100.468C48.201 99.3766 48.161 98.4614 48.161 97.8278C48.161 97.511 48.201 97.2646 48.241 97.1238C48.321 96.983 48.361 96.9126 48.361 96.9126Z" fill="#455A64"/>
<path d="M35.5199 106.557C35.5599 106.557 35.3999 106.979 35.1599 107.648C34.9599 108.317 34.6799 109.232 34.5199 110.288C34.3599 111.344 34.2799 112.295 34.2799 112.999C34.2799 113.703 34.2799 114.125 34.2799 114.125C34.2799 114.125 34.2399 114.019 34.1999 113.808C34.1599 113.597 34.1599 113.315 34.1199 112.999C34.0799 112.295 34.1199 111.344 34.2799 110.253C34.4399 109.197 34.7199 108.247 34.9999 107.578C35.1199 107.261 35.2399 106.979 35.3199 106.803C35.4799 106.627 35.5199 106.522 35.5199 106.557Z" fill="#455A64"/>
<path d="M28.0799 112.612C28.0799 112.647 28.0399 112.718 27.9999 112.718C27.9599 112.718 27.9199 112.682 27.9199 112.612C27.9199 112.577 27.9599 112.506 27.9999 112.506C28.0399 112.506 28.0799 112.542 28.0799 112.612Z" fill="#455A64"/>
<path d="M42.7598 149.08C42.7598 149.044 43.3198 149.15 44.1998 149.256C45.0798 149.396 46.3198 149.537 47.7198 149.643C49.0798 149.748 50.3598 149.819 51.2398 149.854C52.1598 149.889 52.7198 149.889 52.7198 149.924C52.7198 149.924 52.5598 149.96 52.3198 149.96C52.0798 149.96 51.6798 149.96 51.2398 149.96C50.3198 149.96 49.0798 149.924 47.6798 149.784C46.2798 149.643 45.0398 149.467 44.1598 149.326C43.7198 149.256 43.3598 149.185 43.1198 149.115C42.8798 149.15 42.7598 149.08 42.7598 149.08Z" fill="#455A64"/>
<path d="M71.4414 101.769C71.5214 101.734 76.6814 101.769 76.6814 101.769C76.6814 101.769 80.5614 85.1902 81.0014 80.1214C81.4414 75.0526 71.6014 82.4798 71.6014 82.4798L71.4414 101.769Z" fill="#F06D06"/>
<path d="M79.2412 96.2787C79.4012 97.0531 79.6812 97.7219 79.5612 98.4963C79.5212 98.7075 79.4812 98.9539 79.3612 99.1299C79.2012 99.3763 78.9612 99.5523 78.7212 99.7283C78.1212 100.151 77.5612 100.538 76.9612 100.96C76.7612 101.101 76.5212 101.242 76.3212 101.101C76.2012 100.996 76.2012 100.82 76.2012 100.679C76.2812 100.256 76.4412 99.8339 76.6812 99.4467L77.3212 97.1587L76.6812 95.9619L79.2412 96.2787Z" fill="#FFBEA9"/>
<path d="M64.4809 44.042C64.4809 44.042 69.4809 44.042 72.4409 49.8148C72.4409 49.8148 81.3209 63.4372 81.5209 69.2804C81.5209 69.2804 81.4009 77.9044 79.7609 83.0084C78.1209 88.1124 73.3609 101.594 73.3609 101.594C73.3609 101.594 58.4809 100.468 55.4809 98.5668C52.4809 96.666 45.8809 96.9476 45.8809 96.9476C45.8809 96.9476 49.9209 86.1412 54.8809 79.594C59.8409 73.0468 57.8809 61.3956 57.8809 61.3956C57.8809 61.3956 56.4809 44.0772 64.4809 44.042Z" fill="#F06D06"/>
<path d="M71.6016 101.419C71.6016 101.419 71.6816 101.419 71.8416 101.419C72.0016 101.419 72.2416 101.419 72.5216 101.419C73.1216 101.419 74.0416 101.383 75.1616 101.278L75.1216 101.313C76.1616 98.1098 77.8416 92.6538 79.2816 86.353C80.4416 81.3546 81.1616 76.7434 81.3616 73.3994C81.4816 71.7098 81.4816 70.3722 81.4416 69.4218C81.4016 68.9642 81.4016 68.6122 81.4016 68.3306C81.4016 68.225 81.4016 68.1194 81.4016 68.049C81.4016 68.1194 81.4016 68.225 81.4416 68.3306C81.4816 68.577 81.4816 68.9642 81.5216 69.4218C81.5616 70.3722 81.6016 71.7098 81.5216 73.3994C81.3616 76.7434 80.6816 81.3546 79.4816 86.3882C78.0416 92.689 76.2816 98.145 75.2016 101.313V101.348H75.1616C74.0416 101.419 73.1216 101.454 72.5216 101.419C72.2016 101.419 71.9616 101.383 71.8416 101.383C71.6816 101.419 71.6016 101.419 71.6016 101.419Z" fill="#263238"/>
<path d="M75.1611 46.5062C75.2011 46.0134 80.6811 53.5814 82.1211 61.5718C82.6411 64.4582 81.4011 68.0134 81.4011 68.0134L71.1211 47.703C71.1211 47.703 74.8811 50.9414 75.1611 46.5062Z" fill="#E0E0E0"/>
<path d="M67.6408 44.8867C67.6408 44.8867 68.1208 45.1683 68.8408 45.8371C69.2008 46.1539 69.5608 46.6467 69.8808 47.2099C70.2008 47.8083 70.4808 48.4771 70.8008 49.2515C70.8008 49.8851 70.9608 50.5891 71.2408 51.2931C71.5208 51.9971 71.9208 52.7011 72.3608 53.4403C73.2808 54.8835 74.2808 56.5027 75.2008 58.1923C77.3208 61.9235 78.9208 65.4435 80.0008 68.0131C80.5208 69.2803 80.9208 70.3363 81.2008 71.0755C81.3208 71.4275 81.4408 71.7091 81.4808 71.9203C81.5608 72.0963 81.5608 72.2019 81.5608 72.2019C81.5608 72.2019 81.5208 72.0963 81.4408 71.9203C81.3608 71.7091 81.2408 71.4275 81.1208 71.0755C80.8408 70.3715 80.4008 69.3155 79.8408 68.0483C78.7608 65.4787 77.1208 61.9939 75.0008 58.2627C74.0408 56.5731 73.0808 54.9891 72.1608 53.5107C71.7208 52.7715 71.3208 52.0323 71.0408 51.3283C70.7608 50.6243 70.6008 49.8851 70.6008 49.2515V49.2867C70.2808 48.5123 70.0408 47.8435 69.7208 47.2451C69.4408 46.6467 69.0808 46.1891 68.7208 45.8723C68.4008 45.5203 68.0808 45.3091 67.8808 45.1331C67.8008 45.0627 67.7208 44.9923 67.6408 44.9571C67.6408 44.8867 67.6008 44.8867 67.6408 44.8867Z" fill="#263238"/>
<path d="M74.5604 75.1236C74.5604 75.1236 74.6404 75.1236 74.7604 75.1588C74.8804 75.2292 75.0804 75.3348 75.2004 75.546C75.3204 75.7572 75.3604 76.074 75.2004 76.3556C75.0404 76.6724 74.6004 76.8484 74.2004 76.778C73.8004 76.7428 73.4004 76.4964 73.3204 76.1796C73.2404 75.8628 73.3604 75.5812 73.5204 75.37C73.6804 75.194 73.8804 75.0884 74.0404 75.0532C74.2004 75.018 74.2804 75.0532 74.2804 75.0532C74.2804 75.0884 73.9204 75.0884 73.6804 75.4404C73.5604 75.6164 73.4804 75.8628 73.5604 76.1092C73.6404 76.3556 73.9204 76.5316 74.2804 76.5668C74.6404 76.602 74.9604 76.4612 75.0804 76.2148C75.2404 76.0036 75.2004 75.722 75.1204 75.546C74.8804 75.2292 74.5204 75.1588 74.5604 75.1236Z" fill="#263238"/>
<path d="M61.6413 76.4604C61.6413 76.4604 61.4013 76.39 60.9213 76.2492C60.6813 76.1788 60.4012 76.1084 60.0812 76.038C59.7612 76.0028 59.3612 75.9676 58.9612 76.0732C58.5612 76.1788 58.1613 76.4252 57.9213 76.8124C57.6413 77.1996 57.4812 77.6572 57.2812 78.1148C56.8412 79.0652 56.4012 80.086 55.8812 81.1772C55.7612 81.4588 55.6012 81.7756 55.4812 82.022L55.4013 81.8812C57.8413 81.8108 59.9613 82.4444 61.3213 83.078C62.0013 83.3948 62.5212 83.7116 62.8812 83.9228C63.0412 84.0284 63.1612 84.134 63.2812 84.2044C63.3612 84.2748 63.4013 84.31 63.4013 84.31C63.4013 84.31 63.2013 84.2044 62.8413 83.9932C62.4813 83.782 61.9612 83.5004 61.2812 83.1836C59.9212 82.5852 57.8413 81.9868 55.4413 82.0572H55.2812L55.3213 81.9164C55.4413 81.6348 55.5613 81.3532 55.7213 81.0716C56.2013 79.9804 56.6813 78.9596 57.1213 78.0092C57.3613 77.5516 57.5213 77.094 57.8013 76.7068C57.9613 76.4956 58.1213 76.3196 58.3213 76.214C58.5213 76.0732 58.7612 76.0028 58.9612 75.9324C59.4012 75.8268 59.8012 75.862 60.1612 75.9324C60.5212 76.0028 60.8013 76.0732 61.0013 76.1788C61.2413 76.2492 61.4013 76.3196 61.5213 76.39C61.6013 76.4252 61.6813 76.4604 61.6413 76.4604Z" fill="#263238"/>
<path d="M81.5201 72.4848C81.5201 72.4848 81.5201 72.4496 81.5201 72.344C81.5201 72.2384 81.5601 72.1328 81.5601 71.9568C81.6001 71.6048 81.7201 71.1472 81.8001 70.5488C82.0401 69.3168 82.3201 67.592 82.7201 65.5152C82.7601 64.4592 82.8401 63.3328 82.8401 62.1008C82.8401 61.5024 82.8001 60.8688 82.7601 60.2352C82.7601 59.9184 82.6801 59.6016 82.6401 59.2848C82.6001 58.968 82.5201 58.6512 82.4801 58.2992C82.0801 56.3632 81.4001 54.568 80.6001 53.0192C79.8401 51.4704 78.9601 50.1328 78.1201 49.0416C77.2801 47.9856 76.5201 47.176 75.9601 46.648C75.6801 46.3664 75.4401 46.1904 75.3201 46.0496C75.1601 45.9088 75.0801 45.8384 75.0801 45.8384C75.0801 45.8384 75.1601 45.9088 75.3201 46.0144C75.4801 46.1552 75.7201 46.3312 76.0001 46.5776C76.5601 47.1056 77.3601 47.88 78.2001 48.9712C79.0401 50.0272 79.9201 51.3648 80.7201 52.9488C81.5201 54.5328 82.2401 56.328 82.6001 58.264C82.6801 58.5808 82.7201 58.9328 82.7601 59.2496C82.8001 59.5664 82.8401 59.8832 82.8801 60.2352C82.9201 60.8688 82.9601 61.5024 82.9601 62.1008C82.9201 63.3328 82.8801 64.4592 82.8001 65.5152C82.4001 67.592 82.0401 69.3168 81.8001 70.5488C81.6801 71.1472 81.5601 71.6048 81.5201 71.9568C81.4801 72.0976 81.4401 72.2384 81.4401 72.3088C81.5201 72.4496 81.5201 72.4848 81.5201 72.4848Z" fill="#263238"/>
<path d="M74.0404 93.4631C74.2404 93.3927 78.0804 94.7303 78.8404 95.6103C79.4804 96.3143 79.3204 96.9127 79.3204 96.9127C79.3204 96.9127 74.4404 95.0823 73.4404 95.1879C72.4404 95.3287 71.7604 96.5959 71.1204 95.7511C70.5204 94.9415 70.4004 94.8359 70.4004 94.8359L74.0404 93.4631Z" fill="#FFBEA9"/>
<path d="M64.4409 44.8867C65.8409 44.8867 69.4409 47.2803 69.6409 53.4755C69.8409 59.4947 69.4009 70.3715 69.4009 70.3715L75.0809 92.8995C75.2409 93.1107 69.5609 95.7859 67.0409 95.1875C67.0409 95.1875 60.4809 74.8419 59.9209 72.3427C59.3609 69.8435 58.1609 58.1571 58.6009 55.5171C59.0809 52.8771 58.3609 44.8867 64.4409 44.8867Z" fill="#F06D06"/>
<path d="M67.7216 92.7588C67.4016 92.5476 66.8816 92.7588 66.8416 93.0756C66.7616 93.4276 67.2016 93.7444 67.5616 93.6388C67.9216 93.5332 68.0816 93.0756 67.8416 92.8292" fill="#E0E0E0"/>
<path d="M67.8011 92.8293C67.8011 92.8293 67.8411 92.8293 67.9211 92.8997C67.9611 92.9701 68.0011 93.0757 68.0011 93.2517C67.9611 93.3925 67.8811 93.5685 67.6811 93.7093C67.4811 93.8149 67.1611 93.7797 66.9611 93.6037C66.7611 93.4629 66.6811 93.1813 66.7611 92.9701C66.8411 92.7589 67.0411 92.6533 67.2411 92.6181C67.4011 92.5829 67.5611 92.6181 67.6411 92.6533C67.7211 92.6885 67.7611 92.7237 67.7611 92.7237C67.7611 92.7589 67.5611 92.6533 67.3211 92.7237C67.2011 92.7589 67.0411 92.8645 67.0011 93.0053C66.9611 93.1461 67.0011 93.3221 67.1611 93.4277C67.3211 93.5333 67.5211 93.5685 67.6811 93.4981C67.8411 93.4277 67.9211 93.2869 67.9611 93.1813C67.9211 92.9701 67.8011 92.8293 67.8011 92.8293Z" fill="#263238"/>
<path d="M67.1613 91.4214C66.8413 91.3158 66.4413 91.5622 66.4813 91.8438C66.5213 92.1254 66.9613 92.3366 67.2413 92.1254C67.5213 91.9846 67.4813 91.527 67.1613 91.4214Z" fill="#E0E0E0"/>
<path d="M67.1616 91.4221C67.1616 91.4221 67.2016 91.4221 67.2816 91.4573C67.3616 91.4925 67.4416 91.5981 67.4816 91.7037C67.5216 91.8445 67.5216 92.0205 67.3616 92.1613C67.2016 92.3373 66.9216 92.3725 66.7216 92.2669C66.4816 92.1965 66.3216 91.9853 66.3616 91.7741C66.4016 91.5629 66.5616 91.4573 66.6816 91.3869C66.8016 91.3165 66.9616 91.3165 67.0416 91.3517C67.1216 91.3869 67.1616 91.4221 67.1616 91.4221C67.1616 91.4573 66.9616 91.3869 66.7616 91.5277C66.6816 91.5981 66.5616 91.7037 66.5616 91.8093C66.5616 91.9149 66.6416 92.0557 66.8016 92.1261C66.9616 92.1965 67.1216 92.1613 67.2416 92.0909C67.3216 91.9853 67.3616 91.8797 67.3616 91.7741C67.3216 91.5277 67.1216 91.4573 67.1616 91.4221Z" fill="#263238"/>
<path d="M66.7609 90.0479C66.4409 89.9423 66.0409 90.1887 66.0809 90.4703C66.1209 90.7519 66.5609 90.9631 66.8409 90.7519C67.1209 90.6111 67.0809 90.1887 66.7609 90.0479Z" fill="#E0E0E0"/>
<path d="M66.7612 90.0486C66.7612 90.0486 66.8012 90.0486 66.8812 90.0838C66.9612 90.119 67.0412 90.2246 67.0812 90.3302C67.1212 90.471 67.1212 90.647 66.9612 90.7878C66.8012 90.9638 66.5212 90.999 66.3212 90.8934C66.0812 90.823 65.9212 90.6118 65.9612 90.4006C66.0012 90.1894 66.1612 90.0838 66.2812 90.0134C66.4012 89.943 66.5612 89.943 66.6412 89.9782C66.7212 90.0134 66.7612 90.0486 66.7612 90.0486C66.7612 90.0838 66.5612 90.0134 66.3612 90.1542C66.2812 90.2246 66.1612 90.3302 66.1612 90.4358C66.1612 90.5414 66.2412 90.6822 66.4012 90.7526C66.5612 90.823 66.7212 90.7878 66.8412 90.7174C66.9212 90.6118 66.9612 90.5062 66.9612 90.4006C66.9212 90.1542 66.7612 90.0838 66.7612 90.0486Z" fill="#263238"/>
<path d="M58.6816 54.9186C58.6816 54.9186 58.6816 54.989 58.6816 55.1298C58.6816 55.2706 58.6816 55.4818 58.6816 55.7282C58.6816 56.2562 58.7216 57.0658 58.7616 58.0866C58.8816 60.1282 59.0816 63.1202 59.4416 66.8162C59.5216 67.7314 59.6016 68.717 59.7216 69.7026C59.7616 70.1954 59.8016 70.7234 59.8816 71.2514C59.8816 71.3922 59.9216 71.4978 59.9216 71.6386V71.8498L59.9616 72.0258C60.0016 72.2722 60.0816 72.5538 60.1616 72.8002C60.7616 74.9122 61.4816 77.165 62.2416 79.5586C63.7216 84.3106 65.4016 89.5554 67.1216 95.0818L67.0416 95.0114C68.0016 95.0818 69.0416 95.0114 70.0416 94.765C71.8416 94.3426 73.5216 93.6034 75.0016 92.7234L74.9616 92.829C72.8416 84.4162 70.9216 76.7426 69.3616 70.6178C69.6016 65.6546 69.8016 61.6066 69.9216 58.7906C70.0016 57.3826 70.0416 56.2914 70.0816 55.5522C70.1216 55.2002 70.1216 54.9186 70.1216 54.7074C70.1216 54.5314 70.1616 54.4258 70.1616 54.4258C70.1616 54.4258 70.1616 54.5314 70.1616 54.7074C70.1616 54.9186 70.1616 55.2002 70.1216 55.5522C70.0816 56.2914 70.0416 57.3826 70.0016 58.7906C69.8816 61.6066 69.7216 65.6546 69.5216 70.6178V70.5826C71.0816 76.7074 73.0416 84.3458 75.1616 92.7938V92.8642L75.1216 92.8994C73.6016 93.8146 71.9216 94.5538 70.0816 94.9762C69.0416 95.2226 68.0016 95.293 67.0016 95.2226H66.9216V95.1522C65.2016 89.6258 63.5216 84.381 62.0416 79.629C61.3216 77.2354 60.6016 74.9826 60.0016 72.8706C59.9216 72.589 59.8416 72.3426 59.8016 72.061L59.7616 71.8498V71.6386C59.7616 71.4978 59.7216 71.357 59.7216 71.2514C59.6816 70.7234 59.6416 70.1954 59.5616 69.7026C59.4816 68.6818 59.4016 67.7314 59.3216 66.8162C59.0016 63.1202 58.8016 60.1282 58.7216 58.0866C58.6816 57.0658 58.6816 56.2562 58.6816 55.7282C58.6816 55.4466 58.7216 55.2354 58.7216 55.1298C58.6816 54.989 58.6816 54.9186 58.6816 54.9186Z" fill="#263238"/>
<path d="M171.201 83.5018L151.241 70.689C149.641 69.6682 147.641 69.281 145.721 69.633L92.801 79.313C89.001 80.017 86.601 83.2906 87.441 86.5994L95.601 119.511C96.401 122.82 100.121 124.897 103.881 124.193L156.521 114.02C158.481 113.633 160.161 112.542 161.121 110.958L173.241 91.3514C174.881 88.6762 174.001 85.297 171.201 83.5018ZM162.561 91.9146C162.161 93.9914 159.921 95.3642 157.561 95.0122C155.201 94.6602 153.641 92.689 154.041 90.6122C154.441 88.5354 156.681 87.1626 159.041 87.5146C161.401 87.9018 163.001 89.8378 162.561 91.9146Z" fill="#F06D06"/>
<g opacity="0.4">
<path d="M171.201 83.5018L151.241 70.689C149.641 69.6682 147.641 69.281 145.721 69.633L92.801 79.313C89.001 80.017 86.601 83.2906 87.441 86.5994L95.601 119.511C96.401 122.82 100.121 124.897 103.881 124.193L156.521 114.02C158.481 113.633 160.161 112.542 161.121 110.958L173.241 91.3514C174.881 88.6762 174.001 85.297 171.201 83.5018ZM162.601 91.8794C162.201 93.9562 159.921 95.3642 157.561 95.0122C155.201 94.6602 153.681 92.6538 154.081 90.577C154.481 88.5002 156.801 87.1978 159.161 87.5498C161.521 87.9018 163.041 89.8026 162.601 91.8794Z" fill="black"/>
</g>
<path d="M169.44 82.411L149.48 69.5982C147.88 68.5774 145.88 68.1902 143.96 68.5422L91.0002 78.2222C87.2002 78.9262 84.8002 82.1998 85.6402 85.5086L93.8002 118.421C94.6002 121.729 98.3202 123.806 102.08 123.102L154.72 112.929C156.68 112.542 158.36 111.451 159.32 109.867L171.44 90.2606C173.12 87.5854 172.24 84.2414 169.44 82.411ZM160.76 90.859C160.36 92.9006 158.16 94.2734 155.84 93.9214C153.52 93.5694 151.96 91.6334 152.36 89.5918C152.76 87.5502 154.96 86.1774 157.28 86.5294C159.64 86.8814 161.16 88.8526 160.76 90.859Z" fill="#F06D06"/>
<path d="M136.961 64.4242C136.921 64.4242 135.241 60.4114 133.201 55.4482C131.161 50.485 129.521 46.437 129.561 46.437C129.601 46.437 131.281 50.4498 133.321 55.413C135.361 60.3762 136.961 64.4242 136.961 64.4242Z" fill="#263238"/>
<path d="M151.241 37.9899C151.241 37.9899 151.241 38.0251 151.241 38.0603C151.241 38.0955 151.241 38.1659 151.201 38.2715C151.161 38.4475 151.121 38.6939 151.081 39.0459C150.961 39.7147 150.801 40.6651 150.561 41.8619C150.121 44.2203 149.561 47.4939 148.961 51.1195C148.401 54.7451 147.921 58.0539 147.601 60.4123C147.441 61.6091 147.321 62.5595 147.201 63.2283C147.161 63.5451 147.121 63.8267 147.081 64.0027C147.081 64.0731 147.041 64.1435 147.041 64.2139C147.041 64.1787 147.041 64.1083 147.041 64.0027C147.041 63.8267 147.081 63.5451 147.121 63.2283C147.201 62.5595 147.321 61.6091 147.481 60.4123C147.801 58.0187 148.241 54.7451 148.801 51.1195C149.361 47.4939 149.961 44.2203 150.401 41.8619C150.641 40.6651 150.801 39.7147 150.961 39.0459C151.041 38.7291 151.081 38.4827 151.121 38.2715C151.121 38.2011 151.161 38.1307 151.161 38.0603C151.241 37.9899 151.241 37.9547 151.241 37.9899Z" fill="#263238"/>
<path d="M169.48 51.5752C169.52 51.6104 166.64 54.6376 163.08 58.3336C159.52 62.0648 156.6 65.0568 156.6 65.0216C156.56 64.9864 159.44 61.9592 163 58.2632C166.52 54.5672 169.44 51.5752 169.48 51.5752Z" fill="#263238"/>
<path d="M128.76 66.7831C128.72 66.8183 127.04 65.5511 124.96 64.0023C122.88 62.4535 121.24 61.1511 121.24 61.1511C121.28 61.1159 122.96 62.3831 125.04 63.9319C127.12 65.4807 128.8 66.7479 128.76 66.7831Z" fill="#263238"/>
<path d="M172.439 70.7258C172.439 70.761 170.199 70.6554 167.439 70.4794C164.679 70.3034 162.439 70.1274 162.439 70.0922C162.439 70.057 164.679 70.1626 167.439 70.3386C170.239 70.5146 172.439 70.6906 172.439 70.7258Z" fill="#263238"/>
<g opacity="0.3">
<path d="M90.0006 86.2116C89.7606 85.226 90.2406 84.4164 91.2006 84.2404C92.2006 84.0644 93.0006 84.5572 93.2806 85.578C93.5206 86.5636 93.0406 87.3732 92.0406 87.5492C91.0406 87.7604 90.2406 87.1972 90.0006 86.2116ZM92.4806 85.7188C92.3206 85.05 91.8806 84.7332 91.3606 84.8388C90.8406 84.9444 90.6006 85.402 90.8006 86.0708C90.9606 86.7396 91.4006 87.0564 91.9206 86.9508C92.4006 86.8452 92.6406 86.3876 92.4806 85.7188ZM95.3206 83.5012L96.2806 83.3252L93.1206 90.2948L92.1606 90.4708L95.3206 83.5012ZM95.2006 88.1828C94.9606 87.1972 95.4406 86.3876 96.4006 86.2116C97.4006 86.0356 98.2006 86.5636 98.4806 87.5492C98.7206 88.5348 98.2406 89.3444 97.2406 89.5204C96.2806 89.6964 95.4406 89.1684 95.2006 88.1828ZM97.6806 87.69C97.5206 87.0212 97.0806 86.7044 96.5606 86.81C96.0406 86.9156 95.8006 87.3732 96.0006 88.042C96.1606 88.7108 96.6006 89.0276 97.1206 88.922C97.6406 88.8164 97.8406 88.3588 97.6806 87.69Z" fill="white"/>
</g>
<g opacity="0.3">
<path d="M142.12 77.0266C141.88 76.041 142.36 75.2314 143.32 75.0554C144.32 74.8794 145.12 75.3722 145.4 76.393C145.64 77.3786 145.16 78.1882 144.16 78.3642C143.2 78.5402 142.36 78.0122 142.12 77.0266ZM144.6 76.5338C144.44 75.865 144 75.5482 143.48 75.6538C142.96 75.7594 142.72 76.217 142.92 76.8858C143.08 77.5546 143.52 77.8714 144.04 77.7658C144.56 77.6602 144.76 77.2026 144.6 76.5338ZM147.44 74.281L148.4 74.105L145.24 81.0746L144.28 81.2506L147.44 74.281ZM147.32 78.9978C147.08 78.0122 147.56 77.2026 148.52 77.0266C149.52 76.8506 150.32 77.3786 150.6 78.3642C150.84 79.3498 150.36 80.1594 149.36 80.3354C148.4 80.5114 147.6 79.9834 147.32 78.9978ZM149.8 78.505C149.64 77.8362 149.2 77.5194 148.68 77.625C148.16 77.7306 147.92 78.1882 148.12 78.857C148.28 79.5258 148.72 79.8426 149.24 79.737C149.76 79.6314 150 79.1738 149.8 78.505Z" fill="white"/>
</g>
<path d="M110.437 94.7118L108.264 95.0813L103.429 89.6338L103.38 89.6423C103.449 89.8911 103.518 90.1421 103.585 90.3953C103.652 90.6484 103.719 90.9016 103.786 91.1547C103.852 91.4042 103.919 91.6555 103.986 91.9087L104.811 95.6684L103.284 95.9281L101.529 87.9388L103.686 87.5721L108.502 92.9604L108.541 92.9538C108.479 92.7073 108.416 92.463 108.351 92.2208C108.287 91.9786 108.222 91.7364 108.157 91.4941C108.097 91.2513 108.036 91.0085 107.975 90.7656L107.144 86.9841L108.683 86.7224L110.437 94.7118ZM117.271 90.3697C117.383 90.8797 117.412 91.3434 117.359 91.7606C117.309 92.1772 117.182 92.5446 116.977 92.8628C116.776 93.1768 116.504 93.4346 116.163 93.6362C115.826 93.8371 115.425 93.977 114.962 94.0558C114.528 94.1296 114.114 94.1282 113.72 94.0516C113.329 93.9745 112.97 93.8239 112.642 93.6C112.317 93.3717 112.038 93.0734 111.805 92.705C111.575 92.3359 111.404 91.8963 111.292 91.3863C111.143 90.7087 111.139 90.1143 111.278 89.603C111.418 89.0918 111.685 88.676 112.08 88.3557C112.475 88.0353 112.983 87.8223 113.605 87.7166C114.182 87.6185 114.72 87.6536 115.218 87.822C115.721 87.9898 116.15 88.2872 116.507 88.714C116.868 89.1402 117.122 89.6921 117.271 90.3697ZM113.007 91.0946C113.095 91.4954 113.214 91.8249 113.362 92.0831C113.51 92.3413 113.693 92.5237 113.911 92.6303C114.129 92.7368 114.389 92.7645 114.69 92.7132C114.988 92.6625 115.214 92.5524 115.367 92.3827C115.524 92.2124 115.615 91.9834 115.64 91.6958C115.668 91.4075 115.638 91.063 115.55 90.6623C115.461 90.2579 115.344 89.9303 115.197 89.6793C115.053 89.4241 114.873 89.245 114.656 89.1421C114.439 89.0392 114.179 89.0134 113.878 89.0647C113.433 89.1403 113.142 89.3465 113.007 89.6833C112.874 90.0194 112.875 90.4899 113.007 91.0946ZM121.664 91.5387C121.848 91.5074 122.023 91.4589 122.187 91.3931C122.356 91.3266 122.521 91.2514 122.681 91.1674L122.954 92.4079C122.791 92.5186 122.581 92.6223 122.324 92.719C122.071 92.8187 121.787 92.8954 121.471 92.9491C121.103 93.0117 120.759 93.0096 120.439 92.9431C120.123 92.8723 119.848 92.7055 119.614 92.4428C119.384 92.1758 119.211 91.7801 119.096 91.2555L118.45 88.31L117.644 88.4469L117.489 87.742L118.294 87.027L118.496 85.6548L119.571 85.472L119.857 86.7726L121.583 86.479L121.858 87.7304L120.132 88.024L120.779 90.9694C120.83 91.2026 120.934 91.3662 121.092 91.4603C121.253 91.5501 121.444 91.5762 121.664 91.5387ZM124.058 83.5753L124.439 85.3076C124.505 85.61 124.557 85.8997 124.595 86.1767C124.637 86.453 124.665 86.6486 124.678 86.7634L124.767 86.7484C124.853 86.5146 124.971 86.3168 125.123 86.155C125.278 85.9926 125.459 85.8617 125.666 85.7622C125.873 85.6628 126.103 85.5915 126.357 85.5483C126.802 85.4727 127.207 85.4851 127.572 85.5854C127.937 85.6822 128.247 85.8807 128.504 86.1809C128.76 86.4776 128.945 86.8882 129.061 87.4128L129.935 91.3965L128.253 91.6826L127.469 88.1141C127.374 87.677 127.22 87.361 127.01 87.1663C126.799 86.9716 126.525 86.903 126.186 86.9605C125.848 87.018 125.599 87.1417 125.438 87.3315C125.277 87.5176 125.189 87.7688 125.174 88.0849C125.159 88.3974 125.199 88.7704 125.294 89.2039L125.925 92.0783L124.243 92.3644L122.376 83.8614L124.058 83.5753ZM106.923 105.182L108.265 111.292L106.582 111.578L105.241 105.468L106.923 105.182ZM105.559 102.931C105.809 102.889 106.037 102.91 106.243 102.996C106.448 103.079 106.585 103.276 106.654 103.59C106.722 103.899 106.679 104.13 106.525 104.281C106.37 104.428 106.168 104.523 105.918 104.565C105.664 104.608 105.435 104.587 105.229 104.501C105.026 104.411 104.89 104.211 104.822 103.901C104.754 103.588 104.795 103.36 104.947 103.217C105.101 103.07 105.306 102.974 105.559 102.931ZM112.171 104.171C112.829 104.059 113.398 104.147 113.877 104.436C114.355 104.722 114.681 105.256 114.853 106.039L115.727 110.023L114.045 110.309L113.262 106.74C113.166 106.303 113.012 105.987 112.802 105.793C112.595 105.597 112.32 105.529 111.978 105.587C111.464 105.674 111.15 105.907 111.039 106.285C110.927 106.663 110.943 107.178 111.086 107.83L111.717 110.705L110.035 110.991L108.694 104.881L109.979 104.663L110.377 105.406L110.47 105.39C110.556 105.156 110.682 104.957 110.848 104.793C111.018 104.628 111.216 104.494 111.441 104.391C111.67 104.288 111.914 104.215 112.171 104.171ZM119.853 112.11C118.993 112.257 118.302 112.219 117.78 111.998C117.263 111.78 116.946 111.403 116.828 110.867C116.747 110.499 116.796 110.172 116.973 109.885C117.15 109.598 117.452 109.363 117.877 109.181C117.688 109.138 117.511 109.045 117.347 108.903C117.181 108.757 117.078 108.591 117.037 108.406C116.986 108.172 117.012 107.968 117.114 107.792C117.216 107.612 117.379 107.425 117.603 107.232C117.25 107.149 116.943 106.97 116.685 106.697C116.43 106.423 116.257 106.078 116.166 105.663C116.068 105.218 116.083 104.825 116.21 104.482C116.34 104.135 116.574 103.847 116.913 103.62C117.256 103.391 117.698 103.231 118.238 103.139C118.352 103.12 118.486 103.105 118.64 103.094C118.794 103.083 118.936 103.075 119.065 103.072C119.197 103.069 119.287 103.069 119.333 103.072L121.485 102.706L121.671 103.553L120.759 103.963C120.877 104.083 120.975 104.216 121.053 104.361C121.13 104.507 121.188 104.665 121.226 104.836C121.37 105.492 121.25 106.043 120.868 106.49C120.488 106.933 119.888 107.224 119.068 107.363C118.871 107.385 118.684 107.402 118.507 107.413C118.437 107.493 118.388 107.573 118.36 107.654C118.332 107.734 118.326 107.814 118.344 107.894C118.362 107.974 118.409 108.036 118.488 108.08C118.569 108.119 118.68 108.141 118.823 108.147C118.968 108.149 119.144 108.132 119.35 108.097L120.398 107.919C121.074 107.804 121.621 107.861 122.037 108.088C122.457 108.316 122.728 108.708 122.85 109.265C123.007 109.979 122.827 110.584 122.31 111.08C121.797 111.576 120.978 111.919 119.853 112.11ZM119.686 111.011C120.087 110.942 120.422 110.846 120.692 110.72C120.967 110.598 121.166 110.455 121.29 110.29C121.415 110.129 121.457 109.954 121.415 109.764C121.381 109.611 121.309 109.497 121.197 109.422C121.089 109.349 120.94 109.31 120.748 109.305C120.56 109.299 120.324 109.321 120.041 109.369L119.169 109.517C118.963 109.552 118.785 109.616 118.634 109.71C118.486 109.803 118.378 109.916 118.308 110.049C118.239 110.185 118.221 110.332 118.256 110.489C118.306 110.718 118.456 110.88 118.705 110.973C118.958 111.066 119.285 111.079 119.686 111.011ZM118.939 106.331C119.255 106.277 119.466 106.141 119.57 105.923C119.675 105.705 119.691 105.43 119.618 105.098C119.537 104.73 119.4 104.469 119.205 104.313C119.014 104.152 118.765 104.098 118.46 104.15C118.151 104.203 117.94 104.335 117.826 104.547C117.712 104.756 117.695 105.044 117.776 105.412C117.849 105.743 117.982 105.993 118.175 106.16C118.372 106.327 118.626 106.384 118.939 106.331Z" fill="white"/>
<path d="M114.23 104.929L112.52 105.22L111.076 98.6407L108.886 99.0131L108.577 97.6032L114.666 96.5678L114.975 97.9777L112.786 98.35L114.23 104.929ZM122.46 100.35C122.571 100.86 122.601 101.324 122.547 101.741C122.498 102.158 122.371 102.525 122.166 102.843C121.964 103.157 121.693 103.415 121.352 103.617C121.014 103.818 120.614 103.957 120.151 104.036C119.717 104.11 119.303 104.109 118.908 104.032C118.517 103.955 118.158 103.804 117.831 103.58C117.506 103.352 117.227 103.054 116.993 102.685C116.763 102.316 116.593 101.877 116.481 101.367C116.332 100.689 116.327 100.095 116.467 99.5835C116.606 99.0723 116.873 98.6565 117.268 98.3361C117.663 98.0157 118.172 97.8027 118.793 97.697C119.37 97.5989 119.908 97.634 120.407 97.8025C120.909 97.9703 121.339 98.2676 121.695 98.6944C122.056 99.1206 122.311 99.6725 122.46 100.35ZM118.196 101.075C118.284 101.476 118.402 101.805 118.55 102.064C118.698 102.322 118.882 102.504 119.1 102.611C119.317 102.717 119.577 102.745 119.879 102.694C120.177 102.643 120.402 102.533 120.556 102.363C120.713 102.193 120.804 101.964 120.828 101.676C120.856 101.388 120.827 101.043 120.739 100.643C120.65 100.238 120.532 99.9107 120.385 99.6597C120.242 99.4045 120.061 99.2255 119.844 99.1226C119.627 99.0197 119.368 98.9938 119.066 99.0451C118.621 99.1208 118.331 99.327 118.195 99.6637C118.063 99.9999 118.063 100.47 118.196 101.075ZM118.824 118.057C118.928 118.531 118.902 118.962 118.747 119.352C118.592 119.741 118.313 120.068 117.91 120.333C117.51 120.597 116.994 120.783 116.362 120.891C116.082 120.938 115.804 120.967 115.528 120.976C115.255 120.985 114.988 120.975 114.726 120.948C114.468 120.916 114.216 120.866 113.973 120.798L113.627 119.224C114.046 119.327 114.477 119.411 114.918 119.475C115.359 119.54 115.782 119.538 116.187 119.469C116.466 119.422 116.683 119.347 116.836 119.246C116.993 119.144 117.096 119.022 117.145 118.881C117.194 118.741 117.201 118.589 117.165 118.425C117.121 118.224 117.015 118.065 116.848 117.946C116.681 117.827 116.464 117.726 116.198 117.642C115.935 117.558 115.639 117.471 115.31 117.379C115.104 117.324 114.876 117.253 114.629 117.167C114.38 117.077 114.136 116.957 113.898 116.809C113.659 116.661 113.447 116.468 113.262 116.231C113.079 115.99 112.948 115.687 112.868 115.323C112.763 114.846 112.784 114.419 112.93 114.043C113.076 113.666 113.334 113.354 113.703 113.106C114.075 112.854 114.54 112.681 115.099 112.586C115.518 112.514 115.928 112.496 116.328 112.53C116.731 112.559 117.161 112.63 117.616 112.741L117.354 114.152C116.95 114.066 116.592 114.008 116.28 113.978C115.967 113.944 115.658 113.953 115.353 114.005C115.14 114.041 114.966 114.107 114.83 114.202C114.694 114.293 114.6 114.407 114.55 114.544C114.5 114.677 114.492 114.824 114.527 114.984C114.569 115.174 114.659 115.325 114.798 115.437C114.94 115.545 115.136 115.64 115.387 115.722C115.641 115.804 115.955 115.896 116.329 115.999C116.783 116.122 117.179 116.264 117.516 116.426C117.855 116.584 118.135 116.791 118.356 117.049C118.576 117.302 118.732 117.639 118.824 118.057ZM121.816 113.394C122.386 113.297 122.901 113.322 123.361 113.471C123.82 113.616 124.207 113.875 124.521 114.249C124.836 114.622 125.059 115.106 125.189 115.7L125.366 116.509L121.39 117.185C121.511 117.652 121.734 117.997 122.058 118.222C122.385 118.442 122.785 118.512 123.26 118.431C123.653 118.364 124.005 118.263 124.314 118.127C124.624 117.991 124.934 117.814 125.245 117.595L125.528 118.885C125.255 119.086 124.959 119.25 124.64 119.376C124.324 119.501 123.929 119.604 123.455 119.685C122.837 119.79 122.264 119.77 121.737 119.626C121.213 119.48 120.764 119.2 120.39 118.783C120.02 118.366 119.758 117.806 119.604 117.103C119.447 116.389 119.438 115.774 119.577 115.259C119.718 114.74 119.982 114.325 120.367 114.014C120.752 113.699 121.235 113.492 121.816 113.394ZM122.087 114.577C121.76 114.633 121.511 114.783 121.34 115.028C121.172 115.272 121.12 115.619 121.185 116.069L123.545 115.667C123.487 115.42 123.393 115.208 123.262 115.03C123.135 114.851 122.973 114.72 122.775 114.636C122.582 114.552 122.352 114.532 122.087 114.577ZM128.49 112.259C129.06 112.162 129.575 112.188 130.035 112.336C130.494 112.481 130.881 112.74 131.195 113.114C131.51 113.487 131.732 113.971 131.863 114.565L132.04 115.374L128.064 116.05C128.185 116.517 128.408 116.862 128.732 117.087C129.059 117.307 129.459 117.377 129.934 117.296C130.327 117.23 130.679 117.128 130.988 116.992C131.298 116.857 131.608 116.679 131.919 116.46L132.202 117.75C131.929 117.951 131.633 118.115 131.314 118.241C130.998 118.366 130.603 118.469 130.129 118.55C129.511 118.655 128.938 118.635 128.411 118.491C127.887 118.346 127.438 118.065 127.064 117.648C126.694 117.231 126.432 116.671 126.278 115.968C126.121 115.254 126.112 114.64 126.251 114.125C126.392 113.606 126.656 113.19 127.041 112.879C127.426 112.564 127.909 112.358 128.49 112.259ZM128.761 113.443C128.434 113.498 128.185 113.648 128.013 113.893C127.846 114.137 127.794 114.484 127.859 114.934L130.219 114.533C130.161 114.286 130.067 114.073 129.936 113.895C129.809 113.716 129.647 113.585 129.449 113.501C129.256 113.417 129.026 113.398 128.761 113.443Z" fill="white"/>
<path d="M123.954 114.139L122.249 114.428L121.492 110.98L118.299 111.523L119.056 114.971L117.346 115.262L115.592 107.273L117.302 106.982L117.989 110.113L121.183 109.57L120.495 106.439L122.2 106.149L123.954 114.139ZM127.038 107.158C127.608 107.061 128.123 107.086 128.583 107.235C129.042 107.38 129.429 107.639 129.744 108.013C130.058 108.386 130.281 108.87 130.411 109.464L130.589 110.272L126.612 110.949C126.734 111.415 126.956 111.761 127.28 111.986C127.607 112.206 128.008 112.276 128.482 112.195C128.875 112.128 129.227 112.027 129.537 111.891C129.846 111.755 130.156 111.578 130.467 111.359L130.75 112.649C130.478 112.85 130.182 113.014 129.862 113.14C129.547 113.265 129.152 113.368 128.677 113.449C128.059 113.554 127.487 113.534 126.959 113.39C126.435 113.244 125.986 112.963 125.613 112.547C125.243 112.13 124.98 111.57 124.826 110.867C124.669 110.153 124.66 109.538 124.799 109.023C124.941 108.504 125.204 108.089 125.59 107.778C125.974 107.463 126.457 107.256 127.038 107.158ZM127.31 108.341C126.982 108.397 126.733 108.547 126.562 108.792C126.394 109.036 126.343 109.383 126.407 109.833L128.768 109.431C128.71 109.184 128.615 108.972 128.485 108.794C128.358 108.615 128.195 108.484 127.998 108.4C127.804 108.316 127.575 108.296 127.31 108.341ZM134.611 105.87C134.696 105.855 134.795 105.844 134.907 105.837C135.023 105.824 135.117 105.82 135.19 105.822L135.407 107.407C135.347 107.398 135.266 107.399 135.161 107.409C135.059 107.415 134.972 107.424 134.898 107.437C134.681 107.474 134.476 107.537 134.282 107.626C134.092 107.716 133.929 107.836 133.795 107.987C133.659 108.135 133.566 108.317 133.514 108.534C133.465 108.746 133.473 108.996 133.536 109.284L134.218 112.393L132.536 112.679L131.195 106.57L132.469 106.353L132.943 107.338L133.025 107.324C133.101 107.096 133.21 106.881 133.353 106.679C133.498 106.473 133.676 106.299 133.885 106.158C134.097 106.012 134.339 105.916 134.611 105.87ZM121.821 124.255C122.391 124.158 122.906 124.184 123.366 124.333C123.825 124.478 124.212 124.737 124.526 125.11C124.841 125.484 125.063 125.967 125.194 126.561L125.371 127.37L121.395 128.046C121.516 128.513 121.739 128.859 122.063 129.083C122.39 129.304 122.79 129.374 123.265 129.293C123.658 129.226 124.01 129.125 124.319 128.989C124.629 128.853 124.939 128.676 125.249 128.457L125.533 129.746C125.26 129.947 124.964 130.111 124.645 130.237C124.329 130.363 123.934 130.466 123.46 130.546C122.842 130.652 122.269 130.632 121.742 130.487C121.218 130.342 120.769 130.061 120.395 129.645C120.025 129.228 119.763 128.668 119.609 127.964C119.452 127.25 119.443 126.636 119.582 126.121C119.723 125.602 119.987 125.187 120.372 124.876C120.757 124.561 121.24 124.354 121.821 124.255ZM122.092 125.439C121.765 125.495 121.516 125.645 121.344 125.889C121.177 126.133 121.125 126.48 121.19 126.93L123.55 126.529C123.492 126.282 123.398 126.069 123.267 125.891C123.14 125.713 122.978 125.581 122.78 125.498C122.586 125.414 122.357 125.394 122.092 125.439Z" fill="white"/>
<path d="M133.16 168.863C135.722 168.863 137.8 167.035 137.8 164.779C137.8 162.524 135.722 160.696 133.16 160.696C130.597 160.696 128.52 162.524 128.52 164.779C128.52 167.035 130.597 168.863 133.16 168.863Z" fill="#263238"/>
<path d="M133.159 166.996C134.55 166.996 135.679 166.003 135.679 164.779C135.679 163.554 134.55 162.561 133.159 162.561C131.767 162.561 130.639 163.554 130.639 164.779C130.639 166.003 131.767 166.996 133.159 166.996Z" fill="#E0E0E0"/>
<path d="M141.159 158.161V160.872L133.959 165.976C133.959 165.976 133.399 166.328 132.839 166.398C132.319 166.433 131.799 166.187 131.799 165.483C131.799 164.145 133.679 160.308 133.679 160.308H135.199V158.161H141.159Z" fill="#455A64"/>
<path d="M132.76 165.13C132.76 165.13 132.68 164.954 132.88 164.813C132.96 164.743 133.16 164.673 133.32 164.743C133.48 164.778 133.64 164.954 133.64 165.165C133.64 165.377 133.48 165.517 133.32 165.588C133.12 165.658 132.96 165.588 132.88 165.517C132.68 165.306 132.76 165.13 132.76 165.13C132.8 165.13 132.8 165.271 132.96 165.377C133.04 165.412 133.16 165.447 133.28 165.412C133.4 165.377 133.48 165.271 133.48 165.165C133.48 165.06 133.4 164.954 133.28 164.919C133.16 164.884 133.04 164.884 132.96 164.954C132.8 165.025 132.8 165.165 132.76 165.13Z" fill="#263238"/>
<path d="M133.719 160.309C133.719 160.273 134.119 160.273 134.799 160.238C135.479 160.238 136.399 160.238 137.439 160.273C138.439 160.309 139.319 160.309 140.079 160.344C140.759 160.379 141.159 160.379 141.159 160.414C141.159 160.449 140.759 160.449 140.079 160.485C139.399 160.485 138.479 160.485 137.439 160.449C136.439 160.414 135.559 160.414 134.799 160.379C134.119 160.344 133.719 160.309 133.719 160.309Z" fill="#263238"/>
<path d="M76.9994 168.933C79.562 168.933 81.6394 167.105 81.6394 164.85C81.6394 162.595 79.562 160.767 76.9994 160.767C74.4368 160.767 72.3594 162.595 72.3594 164.85C72.3594 167.105 74.4368 168.933 76.9994 168.933Z" fill="#263238"/>
<path d="M76.9985 167.068C78.3903 167.068 79.5185 166.075 79.5185 164.85C79.5185 163.625 78.3903 162.632 76.9985 162.632C75.6068 162.632 74.4785 163.625 74.4785 164.85C74.4785 166.075 75.6068 167.068 76.9985 167.068Z" fill="#E0E0E0"/>
<path d="M84.9987 157.422V160.907L77.7987 166.011C77.7987 166.011 77.2387 166.363 76.6787 166.434C76.1587 166.469 75.6387 166.222 75.6387 165.518C75.6387 164.181 77.5187 160.344 77.5187 160.344H79.0387V157.422H84.9987Z" fill="#455A64"/>
<path d="M76.6002 165.202C76.6002 165.202 76.5202 165.026 76.7202 164.885C76.8002 164.815 77.0002 164.744 77.1602 164.815C77.3202 164.85 77.4802 165.026 77.4802 165.237C77.4802 165.448 77.3202 165.589 77.1602 165.66C76.9602 165.73 76.8002 165.66 76.7202 165.589C76.4802 165.343 76.5602 165.167 76.6002 165.202C76.6402 165.202 76.6402 165.343 76.8002 165.448C76.8802 165.484 77.0002 165.519 77.1202 165.484C77.2402 165.448 77.3202 165.343 77.3202 165.237C77.3202 165.132 77.2402 165.026 77.1202 164.991C77.0002 164.956 76.8802 164.956 76.8002 165.026C76.6402 165.061 76.6002 165.202 76.6002 165.202Z" fill="#263238"/>
<path d="M77.5195 160.344C77.5195 160.309 77.9195 160.309 78.5995 160.274C79.2795 160.274 80.1995 160.274 81.2395 160.309C82.2395 160.344 83.1195 160.344 83.8795 160.38C84.5595 160.415 84.9595 160.415 84.9595 160.45C84.9595 160.485 84.5595 160.485 83.8795 160.52C83.1995 160.52 82.2795 160.52 81.2395 160.485C80.2395 160.45 79.3595 160.45 78.5995 160.415C77.9595 160.38 77.5195 160.38 77.5195 160.344Z" fill="#263238"/>
<path d="M99.0395 139.153C97.6795 139.153 96.4394 138.379 95.9594 137.217L82.4395 102.334L154.159 112.542L152.519 133.838C152.399 135.14 151.199 136.196 149.719 136.302L99.2395 139.153C99.1595 139.153 99.0795 139.153 99.0395 139.153ZM83.6395 103.214L96.7195 137.006C97.0795 137.921 98.0795 138.52 99.1995 138.449L149.679 135.598C150.759 135.528 151.639 134.753 151.719 133.803L153.319 113.14L83.6395 103.214Z" fill="#455A64"/>
<path d="M85.6791 110.535L82.6791 108.529L79.7191 100.961L77.1191 99.6233L77.5591 99.0249L80.3991 100.468L83.3591 108.107L86.1991 109.972L85.6791 110.535Z" fill="#455A64"/>
<path d="M85.5814 108.868L85.4727 109.566L153.316 117.756L153.425 117.058L85.5814 108.868Z" fill="#455A64"/>
<path d="M89.5552 119.163L89.5078 119.866L153.193 123.19L153.24 122.488L89.5552 119.163Z" fill="#455A64"/>
<path d="M152.467 128.021L93.4844 129.389L93.5054 130.092L152.488 128.725L152.467 128.021Z" fill="#455A64"/>
<path d="M152.101 133.31L96.0488 135.697L96.0875 136.4L152.14 134.013L152.101 133.31Z" fill="#455A64"/>
<path d="M147.159 135.668L146.359 135.598C147.119 127.748 147.599 119.758 147.839 111.873L148.639 111.908C148.399 119.793 147.919 127.783 147.159 135.668Z" fill="#455A64"/>
<path d="M142.56 136.055H141.76C141.76 135.879 141.88 119.371 142.12 111.521L142.92 111.556C142.68 119.371 142.56 135.879 142.56 136.055Z" fill="#455A64"/>
<path d="M137.099 110.254L136.299 110.273L137.072 136.172L137.872 136.154L137.099 110.254Z" fill="#455A64"/>
<path d="M130.54 109.459L129.742 109.511L132.03 136.682L132.828 136.63L130.54 109.459Z" fill="#455A64"/>
<path d="M122.469 108.157L121.676 108.251L126.079 137.102L126.872 137.009L122.469 108.157Z" fill="#455A64"/>
<path d="M113.699 106.725L112.912 106.854L119.437 137.581L120.224 137.451L113.699 106.725Z" fill="#455A64"/>
<path d="M103.309 105.509L102.533 105.682L111.821 137.928L112.596 137.755L103.309 105.509Z" fill="#455A64"/>
<path d="M90.3253 103.654L89.5645 103.872L102.971 140.159L103.732 139.942L90.3253 103.654Z" fill="#455A64"/>
<path d="M143.599 158.795L78.1992 157.844C77.9192 157.844 77.6792 157.739 77.4792 157.563C77.2792 157.387 77.1992 157.175 77.1992 156.929C77.2392 155.908 77.3992 150.699 77.8392 149.537C77.9992 149.115 78.2792 148.446 89.1192 143.764C90.1992 143.307 99.6792 139.223 100.999 139.153C102.359 139.083 114.399 138.625 114.919 138.625C115.479 138.625 115.919 138.977 115.959 139.47C115.999 139.963 115.559 140.35 114.999 140.385C114.879 140.385 102.639 140.843 101.119 140.913C99.3992 141.23 81.5192 148.798 79.6392 150.241C79.4392 150.98 79.2392 153.585 79.1592 156.084L143.559 156.999C144.119 156.999 144.559 157.422 144.559 157.879C144.599 158.407 144.159 158.795 143.599 158.795Z" fill="#455A64"/>
<path d="M114.76 157.316L106.44 157.14C104.88 157.069 103.68 156.647 102.96 155.908C102.24 155.204 101.92 154.253 102 153.021C102.08 151.965 102.48 150.874 103.2 149.888L111.24 139.434L111.92 139.821L103.88 150.276C103.24 151.156 102.84 152.141 102.8 153.092C102.72 154.112 103 154.887 103.56 155.45C104.16 156.048 105.16 156.365 106.48 156.436L114.76 156.612V157.316Z" fill="#455A64"/>
<path d="M112.48 139.787C105.8 129.191 88.2399 101.454 87.3199 100.539C86.7999 100.116 82.5199 98.7786 79.9199 98.0746L80.1599 97.4058C80.8399 97.617 86.9999 99.377 87.8399 100.046C88.6799 100.679 109.04 132.993 113.12 139.435L112.48 139.787Z" fill="#455A64"/>
<path d="M81.7996 97.9688L77.3996 100.327C77.3996 100.327 72.3196 98.2856 71.8796 97.828C71.4396 97.3352 71.3196 95.5752 73.0796 95.2232C74.8396 94.8712 81.7996 97.9688 81.7996 97.9688Z" fill="#455A64"/>
<path d="M73.3205 96.7729C73.3205 96.7729 73.2805 96.7025 73.3205 96.5969C73.3605 96.4913 73.4005 96.2801 73.6005 96.1393C73.8005 95.9985 74.1205 95.8929 74.4805 95.9985C74.8005 96.1041 75.1205 96.3857 75.1205 96.7729C75.1205 97.1249 74.8405 97.4417 74.4805 97.5473C74.1605 97.6529 73.8005 97.5473 73.6005 97.4065C73.4005 97.2657 73.3205 97.0897 73.3205 96.9489C73.2805 96.8433 73.3205 96.7729 73.3205 96.7729C73.3205 96.7729 73.3605 96.8433 73.4005 96.9489C73.4405 97.0545 73.5205 97.1953 73.7205 97.3009C73.8805 97.4065 74.1605 97.4769 74.4405 97.3713C74.7205 97.3009 74.9205 97.0545 74.9205 96.7729C74.9205 96.4913 74.7205 96.2449 74.4405 96.1745C74.1605 96.0689 73.9205 96.1393 73.7205 96.2449C73.5605 96.3505 73.4405 96.4913 73.4005 96.5969C73.3205 96.7377 73.3205 96.7729 73.3205 96.7729Z" fill="#263238"/>
<path d="M78.1992 157.703C78.1992 157.668 92.7992 157.809 110.839 158.055C128.879 158.302 143.479 158.548 143.479 158.618C143.479 158.654 128.879 158.513 110.839 158.266C92.8392 157.985 78.1992 157.738 78.1992 157.703Z" fill="#263238"/>
<path d="M178.841 168.896C178.841 168.931 143.201 169.002 99.2005 169.002C55.2005 169.002 19.5605 168.967 19.5605 168.896C19.5605 168.861 55.2005 168.791 99.2005 168.791C143.161 168.826 178.841 168.861 178.841 168.896Z" fill="#263238"/>
<path d="M52.4802 39.5729L49.3602 34.7505C50.7202 32.7793 51.5202 30.4561 51.5202 27.9921C51.5202 20.8817 44.9602 15.0737 36.8402 15.0737C28.7602 15.0737 22.1602 20.8465 22.1602 27.9921C22.1602 35.1025 28.7202 40.9105 36.8402 40.9105C40.2402 40.9105 43.3202 39.8897 45.8002 38.2001L52.4802 39.5729Z" fill="white"/>
<path d="M52.4799 39.5733C52.1599 39.5029 50.0799 39.0805 45.8399 38.2357C45.7999 38.2357 45.7999 38.2005 45.7999 38.2005L45.8799 38.2709C45.0399 38.8341 44.0399 39.3973 42.8799 39.8549C41.7199 40.3125 40.3599 40.6997 38.8399 40.8757C38.0799 40.9461 37.3199 41.0165 36.5199 40.9813C36.1199 40.9461 35.7199 40.9461 35.3199 40.9109C34.9199 40.8405 34.4799 40.8053 34.0799 40.7349C32.3999 40.4533 30.7199 39.8901 29.1199 39.0101C27.5199 38.1653 26.0799 36.9685 24.8799 35.5253C23.7199 34.0821 22.7999 32.3925 22.3999 30.5269C21.9999 28.6965 22.0399 26.6901 22.5599 24.7893C23.1199 22.8885 24.1599 21.0229 25.7199 19.4741L26.3199 18.9109C26.5199 18.6997 26.7599 18.5589 26.9599 18.3829C27.1999 18.2069 27.3999 18.0309 27.6399 17.8901L28.3599 17.4325C28.5999 17.2565 28.8399 17.1509 29.0799 17.0101C29.3199 16.8693 29.5599 16.7285 29.8399 16.6229C30.1199 16.5173 30.3599 16.4117 30.5999 16.3061C30.8799 16.2005 31.1199 16.0597 31.3999 15.9893C33.5199 15.2501 35.7999 14.9685 37.9599 15.1093C40.1199 15.2501 42.1999 15.7781 43.9999 16.6933C45.7999 17.5733 47.2799 18.7349 48.4799 20.0373C49.6399 21.3397 50.4799 22.7829 50.9999 24.2261C51.5199 25.6693 51.6399 27.1125 51.6399 28.4149C51.5999 29.7525 51.3199 30.9493 50.9199 32.0405C50.5199 33.1317 49.9999 34.0469 49.4399 34.8213V34.7861C51.3599 37.8133 52.3199 39.3621 52.4799 39.5733C52.3199 39.3269 51.3599 37.8485 49.3199 34.7509V34.7157C49.8399 33.9413 50.3599 33.0261 50.7599 31.9349C51.1599 30.8789 51.3999 29.6469 51.4399 28.3445C51.4399 27.0421 51.2799 25.5989 50.7999 24.1909C50.2799 22.7829 49.4799 21.3397 48.3199 20.0373C47.1599 18.7349 45.6799 17.6085 43.8799 16.7285C42.1199 15.8485 40.0399 15.3205 37.9199 15.1797C35.7599 15.0389 33.5199 15.3205 31.4399 16.0597C31.1599 16.1301 30.9199 16.2709 30.6799 16.3765C30.4399 16.4821 30.1599 16.5877 29.9199 16.6933C29.6799 16.8341 29.4399 16.9397 29.1999 17.0805C28.9599 17.2213 28.7199 17.3269 28.4799 17.5029L27.7999 17.9605C27.5599 18.1013 27.3599 18.3125 27.1599 18.4533C26.9599 18.6293 26.7199 18.8053 26.5199 18.9813L25.9199 19.5445C24.3999 21.0581 23.3599 22.8885 22.7999 24.7893C22.2399 26.6901 22.1999 28.6261 22.6399 30.4565C23.0399 32.2869 23.9199 33.9765 25.0799 35.3845C26.2399 36.7925 27.6799 37.9541 29.2399 38.8341C30.7999 39.6789 32.4799 40.2421 34.1199 40.5237C34.5199 40.5941 34.9599 40.6293 35.3599 40.6997C35.7599 40.7349 36.1599 40.7349 36.5599 40.7701C37.3599 40.8053 38.1199 40.7701 38.8799 40.6645C40.3599 40.4885 41.7199 40.1365 42.8799 39.6789C44.0399 39.2213 45.0399 38.6581 45.8799 38.0949C45.8799 38.0949 45.9199 38.0949 45.9599 38.0949V38.1301L45.9199 38.0597C50.0799 39.0805 52.1599 39.5029 52.4799 39.5733Z" fill="#263238"/>
</svg>
