<svg width="213" height="121" viewBox="0 0 213 121" fill="none" xmlns="http://www.w3.org/2000/svg">
<path d="M145.008 36.5926H140.791C140.656 36.5931 140.525 36.5432 140.425 36.4527C140.325 36.3623 140.262 36.2378 140.249 36.1038L139.405 27.4946H146.394L145.55 36.1037C145.537 36.2377 145.474 36.3622 145.374 36.4527C145.274 36.5432 145.143 36.5931 145.008 36.5926Z" fill="#E6E6E6"/>
<path d="M146.382 28.5776H139.416C139.272 28.5775 139.134 28.5204 139.032 28.4188C138.93 28.3173 138.872 28.1797 138.872 28.0361V26.7364C138.872 26.5928 138.93 26.4551 139.032 26.3536C139.134 26.2521 139.272 26.195 139.416 26.1948H146.382C146.527 26.195 146.665 26.2521 146.767 26.3536C146.869 26.4551 146.927 26.5928 146.927 26.7364V28.0361C146.927 28.1797 146.869 28.3173 146.767 28.4188C146.665 28.5203 146.527 28.5775 146.382 28.5776Z" fill="#CCCCCC"/>
<path d="M95.6702 27.3443H78.9644V22.2978C84.2434 18.6422 88.9206 18.96 95.0736 22.5947L95.6702 27.3443Z" fill="#F06D06"/>
<path d="M75.0958 116.98L71.4384 116.98L70.8916 102.942L75.0964 102.942L75.0958 116.98Z" fill="#FFB8B8"/>
<path d="M76.0286 120.507L64.2358 120.507V120.358C64.2358 119.759 64.3546 119.165 64.5852 118.611C64.8159 118.056 65.154 117.553 65.5802 117.129C66.0065 116.705 66.5125 116.368 67.0694 116.139C67.6263 115.909 68.2231 115.791 68.8259 115.791L76.0288 115.791L76.0286 120.507Z" fill="#2F2E41"/>
<path d="M95.6959 116.98L99.3533 116.98L99.9001 102.942L95.6953 102.942L95.6959 116.98Z" fill="#FFB8B8"/>
<path d="M94.7632 115.791L101.966 115.791C102.569 115.791 103.166 115.909 103.723 116.139C104.279 116.368 104.786 116.705 105.212 117.129C105.638 117.553 105.976 118.056 106.207 118.61C106.437 119.165 106.556 119.759 106.556 120.358V120.507L94.7634 120.507L94.7632 115.791Z" fill="#2F2E41"/>
<path d="M95.7922 115.18C95.4871 115.179 95.1913 115.076 94.9532 114.886C94.7151 114.696 94.5488 114.431 94.4814 114.135L85.4165 74.7908C85.3966 74.6908 85.3419 74.601 85.262 74.5373C85.1821 74.4735 85.0821 74.4399 84.9797 74.4423H84.9775C84.8747 74.4404 84.7745 74.4748 84.6948 74.5394C84.6151 74.604 84.5609 74.6946 84.5419 74.7951L76.2174 113.874C76.1525 114.173 75.9869 114.441 75.7481 114.633C75.5092 114.826 75.2115 114.931 74.9041 114.933H70.9386C70.7557 114.933 70.5746 114.895 70.4067 114.823C70.2387 114.751 70.0873 114.645 69.9618 114.513C69.8363 114.381 69.7393 114.224 69.6769 114.053C69.6144 113.882 69.5877 113.7 69.5985 113.518L72.5522 63.9871L73.7407 63.6372L73.763 63.6375L97.1089 63.8407L102.081 113.317C102.098 113.493 102.08 113.672 102.028 113.841C101.975 114.01 101.889 114.168 101.775 114.304C101.661 114.44 101.52 114.552 101.362 114.633C101.204 114.715 101.031 114.764 100.853 114.778L95.8998 115.176C95.8637 115.179 95.8279 115.18 95.7922 115.18Z" fill="#2F2E41"/>
<path d="M86.1508 18.2998C90.1974 18.2998 93.4778 15.0356 93.4778 11.0089C93.4778 6.98227 90.1974 3.71802 86.1508 3.71802C82.1041 3.71802 78.8237 6.98227 78.8237 11.0089C78.8237 15.0356 82.1041 18.2998 86.1508 18.2998Z" fill="#FFB8B8"/>
<path d="M81.6628 69.4176C80.3774 69.4335 79.097 69.2542 77.8659 68.886C76.771 68.5574 75.7552 68.0093 74.881 67.2754C74.0069 66.5416 73.293 65.6375 72.7831 64.6188C72.6216 64.3122 72.5858 63.9553 72.6832 63.623C73.4913 60.8786 77.3962 46.6133 74.9047 35.2731C74.553 33.6977 74.5238 32.068 74.8188 30.4812C75.1138 28.8943 75.7269 27.3828 76.6216 26.0369C77.4955 24.7015 78.6307 23.5549 79.9595 22.6655C81.2884 21.7761 82.7836 21.1622 84.3561 20.8603L84.3562 20.86C84.7694 20.7797 85.1849 20.7139 85.591 20.664C87.3292 20.4511 89.0932 20.6231 90.7568 21.1678C92.4204 21.7125 93.9425 22.6163 95.2141 23.8146C96.5235 25.0364 97.5452 26.5311 98.2061 28.1918C98.8671 29.8525 99.1509 31.6381 99.0373 33.4207L97.1224 63.9972C97.1092 64.2265 97.0363 64.4483 96.9108 64.6411C96.7854 64.8338 96.6118 64.9907 96.407 65.0965C94.2017 66.2465 87.5769 69.4176 81.6628 69.4176Z" fill="#3F3D56"/>
<path d="M94.4285 5.64215C93.6674 3.73877 92.2733 2.15274 90.4788 1.14878C88.6843 0.144817 86.5981 -0.216336 84.5683 0.125604L86.8785 1.98322C84.0082 2.0794 80.9868 1.8749 78.9374 3.87692C79.5898 3.85891 80.445 5.24756 81.0974 5.22955C79.8776 5.25356 78.7715 6.1064 78.2327 7.19564C77.7337 8.31468 77.617 9.56562 77.9004 10.757C78.1413 11.9471 79.9791 14.7352 80.4738 15.845C80.3887 12.9447 86.1267 6.02689 88.9287 6.74884C87.5051 7.27443 86.2698 8.2077 85.3785 9.43095C87.2848 8.47368 89.4406 8.12268 91.554 8.42551C92.0366 8.53562 92.5344 8.56335 93.0262 8.50751C93.3277 8.44817 93.6088 8.31292 93.8428 8.11466C94.0768 7.9164 94.2557 7.66175 94.3626 7.37505C94.4695 7.08836 94.5008 6.77918 94.4533 6.47705C94.4059 6.17492 94.2815 5.88993 94.0919 5.6493L94.4285 5.64215Z" fill="#2F2E41"/>
<path d="M81.1581 67.5816C80.973 67.5812 80.79 67.5428 80.6205 67.4687L66.7187 61.4307C66.4234 61.3047 66.1837 61.0768 66.0438 60.789C65.9038 60.5012 65.873 60.1728 65.957 59.8642L75.1601 25.2698C75.3312 24.6261 75.6296 24.0228 76.0379 23.4953C76.4462 22.9677 76.9561 22.5265 77.5378 22.1975C78.1195 21.8684 78.7614 21.6582 79.4258 21.579C80.0902 21.4998 80.7637 21.5533 81.4071 21.7363L85.087 22.7814L82.4965 66.3233C82.4832 66.5381 82.418 66.7466 82.3066 66.9311C82.1951 67.1155 82.0407 67.2705 81.8563 67.383C81.6465 67.5122 81.4048 67.581 81.1581 67.5816Z" fill="#F06D06"/>
<path d="M106.887 59.8639L106.275 57.5692L105.389 54.2327L104.963 52.6327L104.077 49.305L97.6839 25.2692C97.5133 24.6252 97.2153 24.0216 96.8071 23.4938C96.399 22.966 95.889 22.5246 95.3071 22.1955C94.7253 21.8665 94.0832 21.6564 93.4186 21.5776C92.7541 21.4988 92.0804 21.5529 91.4371 21.7366L87.7588 22.7816L89.5815 53.4074L89.7695 56.6045L89.8888 58.6201V58.6231L90.0796 61.8023L90.3483 66.3233C90.3702 66.6628 90.5205 66.9813 90.7691 67.2149C91.0176 67.4484 91.3458 67.5796 91.6876 67.5819C91.8725 67.5809 92.0552 67.5425 92.2247 67.4691L106.126 61.4312C106.422 61.3053 106.662 61.0772 106.801 60.7892C106.941 60.5011 106.972 60.1725 106.887 59.8639Z" fill="#F06D06"/>
<path d="M67.8245 62.5812C68.2779 62.4635 68.6997 62.2483 69.0604 61.9507C69.4211 61.6532 69.7119 61.2806 69.9122 60.8592C70.1126 60.4377 70.2176 59.9777 70.2199 59.5115C70.2223 59.0453 70.1219 58.5843 69.9258 58.1609L77.0741 35.8303L72.0052 34.7739L65.4515 56.6674C64.7585 57.0424 64.2278 57.6573 63.96 58.3955C63.6921 59.1338 63.7058 59.9442 63.9983 60.6732C64.2908 61.4021 64.8419 61.999 65.5471 62.3506C66.2523 62.7023 67.0626 62.7843 67.8245 62.5812Z" fill="#FFB8B8"/>
<path d="M77.2725 24.8525C78.728 25.0002 79.5467 26.6287 79.1848 28.6564L77.4482 38.3866C77.318 39.116 76.7148 39.6935 76.2134 39.5688L70.3393 38.1077C69.8873 37.9952 69.7209 37.3562 69.977 36.7169L73.5034 27.9143C74.2692 26.0026 75.8613 24.7093 77.2725 24.8525Z" fill="#3F3D56"/>
<path d="M87.2643 56.0805H83.0474C82.9121 56.081 82.7815 56.0311 82.6813 55.9406C82.5811 55.8502 82.5184 55.7257 82.5057 55.5917L81.6616 46.9825H88.6501L87.806 55.5916C87.7933 55.7256 87.7307 55.8501 87.6305 55.9406C87.5303 56.0311 87.3997 56.081 87.2643 56.0805Z" fill="#E6E6E6"/>
<path d="M88.6393 48.0657H81.6731C81.5289 48.0655 81.3905 48.0084 81.2885 47.9069C81.1865 47.8053 81.1291 47.6677 81.1289 47.5241V46.2244C81.1291 46.0808 81.1865 45.9432 81.2885 45.8417C81.3905 45.7401 81.5289 45.683 81.6731 45.6829H88.6393C88.7836 45.683 88.9219 45.7401 89.0239 45.8417C89.126 45.9432 89.1834 46.0808 89.1835 46.2244V47.5241C89.1834 47.6677 89.126 47.8053 89.0239 47.9069C88.9219 48.0084 88.7836 48.0655 88.6393 48.0657Z" fill="#CCCCCC"/>
<path d="M85.2468 51.4635C85.4108 51.4823 85.573 51.514 85.732 51.5583L96.9625 41.9748L96.3061 38.4585L101.51 36.7791L103.28 42.8915C103.423 43.3853 103.401 43.912 103.217 44.3924C103.034 44.8728 102.699 45.2811 102.263 45.5559L88.0394 54.5119C88.0495 55.1446 87.8658 55.7654 87.5127 56.2916C87.1596 56.8179 86.6538 57.2247 86.0627 57.4579C85.4715 57.6912 84.823 57.7398 84.2035 57.5974C83.5839 57.455 83.0225 57.1282 82.5941 56.6605C82.1657 56.1929 81.8905 55.6066 81.8052 54.9795C81.7198 54.3525 81.8284 53.7144 82.1163 53.1502C82.4043 52.5861 82.8581 52.1225 83.4173 51.8212C83.9764 51.5199 84.6146 51.3951 85.2468 51.4635Z" fill="#FFB8B8"/>
<path d="M96.9918 25.6561C98.5465 25.223 100.1 26.4006 100.621 28.4067L103.119 38.0335C103.306 38.7552 102.942 39.5221 102.374 39.6034L95.7195 40.5558C95.2075 40.6291 94.7563 40.1066 94.7375 39.4184L94.4792 29.9451C94.4231 27.8877 95.4844 26.076 96.9918 25.6561Z" fill="#3F3D56"/>
<path d="M186.438 87.1503C183.374 83.095 180.952 78.597 179.255 73.8124C179.157 73.5262 179.164 73.2146 179.275 72.9331C179.386 72.6515 179.594 72.4183 179.862 72.2749L190.346 66.6848C190.516 66.5937 190.704 66.5423 190.897 66.5345C191.089 66.5267 191.281 66.5628 191.457 66.6399C191.637 66.7176 191.797 66.8351 191.924 66.9835C192.051 67.1319 192.143 67.3071 192.192 67.496C193.412 72.1065 195.706 76.3665 198.888 79.9312C199.019 80.0763 199.115 80.2492 199.168 80.4368C199.222 80.6244 199.232 80.8217 199.197 81.0137C199.164 81.2026 199.088 81.3815 198.975 81.5368C198.862 81.692 198.714 81.8196 198.544 81.9096L188.06 87.4997C187.792 87.642 187.481 87.685 187.184 87.621C186.887 87.5571 186.623 87.3903 186.438 87.1503Z" fill="#CCCCCC"/>
<path d="M187.153 86.6154C187.209 86.6854 187.289 86.7337 187.377 86.7518C187.465 86.77 187.557 86.7569 187.637 86.7148L198.122 81.1246C198.172 81.0982 198.216 81.0604 198.25 81.0142C198.284 80.968 198.307 80.9146 198.316 80.8583C198.327 80.7988 198.324 80.7377 198.307 80.6796C198.29 80.6215 198.26 80.568 198.219 80.5235C194.944 76.8537 192.582 72.4683 191.326 67.7219C191.311 67.6632 191.283 67.6087 191.244 67.5626C191.205 67.5166 191.156 67.4801 191.1 67.4562C191.047 67.4328 190.99 67.4219 190.933 67.4243C190.875 67.4266 190.819 67.4422 190.769 67.4698L180.284 73.0599C180.205 73.1026 180.143 73.1716 180.109 73.2549C180.075 73.3382 180.072 73.4307 180.099 73.5162C181.765 78.2151 184.144 82.6327 187.153 86.6154Z" fill="white"/>
<path d="M191.034 74.6625L185.324 77.1707C185.107 77.2658 184.861 77.2713 184.639 77.186C184.418 77.1007 184.24 76.9315 184.144 76.7156L184.003 76.3973C183.907 76.1812 183.902 75.9362 183.987 75.716C184.073 75.4958 184.243 75.3185 184.46 75.2229L190.17 72.7147C190.387 72.6196 190.634 72.6141 190.855 72.6994C191.076 72.7847 191.254 72.9539 191.35 73.1698L191.492 73.4881C191.587 73.7042 191.593 73.9492 191.507 74.1694C191.421 74.3896 191.251 74.5669 191.034 74.6625Z" fill="#CCCCCC"/>
<path d="M193.123 78.5216L187.412 81.0298C187.195 81.125 186.949 81.1305 186.728 81.0452C186.507 80.9598 186.328 80.7907 186.232 80.5748L186.091 80.2564C185.995 80.0403 185.99 79.7953 186.076 79.5751C186.161 79.355 186.331 79.1776 186.548 79.0821L192.259 76.5738C192.476 76.4787 192.722 76.4732 192.943 76.5585C193.165 76.6438 193.343 76.813 193.439 77.0289L193.58 77.3473C193.676 77.5634 193.681 77.8084 193.595 78.0285C193.51 78.2487 193.34 78.426 193.123 78.5216Z" fill="#CCCCCC"/>
<path d="M179.73 75.306C179.336 75.0538 179.002 74.7187 178.752 74.3242C178.503 73.9298 178.343 73.4857 178.284 73.0232C178.225 72.5606 178.269 72.0909 178.413 71.6472C178.556 71.2034 178.796 70.7963 179.115 70.4546L176.707 36.4482L183.643 37.1177L183.834 70.4201C184.375 70.9909 184.687 71.7396 184.711 72.5241C184.735 73.3087 184.469 74.0747 183.963 74.6769C183.457 75.2792 182.747 75.6758 181.966 75.7918C181.186 75.9077 180.391 75.7349 179.73 75.306Z" fill="#A0616A"/>
<path d="M178.277 47.8749C178.114 47.7586 177.98 47.6076 177.884 47.4328C177.788 47.2581 177.733 47.0642 177.722 46.8654L177.214 37.6999C177.164 36.7918 177.453 35.8973 178.026 35.189C178.6 34.4806 179.416 34.0086 180.318 33.8637C181.221 33.7189 182.145 33.9117 182.913 34.4048C183.681 34.8979 184.238 35.6564 184.477 36.5342L186.71 44.7287C186.803 45.0706 186.755 45.4352 186.578 45.7424C186.401 46.0496 186.109 46.2744 185.766 46.3675L179.414 48.0811C179.221 48.1335 179.019 48.1422 178.822 48.1065C178.625 48.0709 178.439 47.9917 178.277 47.8749Z" fill="#3F3D56"/>
<path d="M166.454 117.114H162.796L161.057 103.076H166.454L166.454 117.114Z" fill="#A0616A"/>
<path d="M160.184 116.073H167.238V120.493H155.743C155.743 119.912 155.858 119.338 156.081 118.801C156.304 118.265 156.632 117.778 157.044 117.368C157.456 116.957 157.946 116.632 158.485 116.41C159.024 116.188 159.601 116.073 160.184 116.073Z" fill="#2F2E41"/>
<path d="M180.177 117.114H176.52L174.78 103.076H180.178L180.177 117.114Z" fill="#A0616A"/>
<path d="M173.907 116.073H180.961V120.493H169.466C169.466 119.912 169.581 119.338 169.804 118.801C170.028 118.265 170.355 117.778 170.767 117.368C171.179 116.957 171.669 116.632 172.208 116.41C172.747 116.188 173.324 116.073 173.907 116.073Z" fill="#2F2E41"/>
<path d="M166.281 110.042L162.255 109.851C161.912 109.835 161.589 109.688 161.351 109.442C161.113 109.195 160.979 108.868 160.977 108.526C159.915 92.2234 158.445 74.7426 160.696 67.9894C160.694 67.797 160.735 67.6066 160.814 67.4312C160.894 67.2557 161.01 67.0995 161.156 66.973C161.302 66.8466 161.473 66.753 161.659 66.6986C161.844 66.6442 162.04 66.6304 162.231 66.658L178.338 68.9846C178.657 69.029 178.948 69.1861 179.159 69.4271C179.37 69.6681 179.487 69.9769 179.488 70.2967C181.544 78.2927 181.637 92.7924 181.56 107.858C181.561 108.034 181.527 108.209 181.46 108.372C181.393 108.536 181.295 108.684 181.17 108.809C181.045 108.934 180.897 109.034 180.733 109.101C180.57 109.169 180.394 109.204 180.217 109.204H175.877C175.556 109.205 175.246 109.092 175.003 108.885C174.759 108.678 174.599 108.391 174.55 108.076L171.872 91.1355C171.833 90.8876 171.705 90.6623 171.512 90.501C171.319 90.3397 171.074 90.2533 170.822 90.258C170.57 90.2626 170.328 90.3578 170.141 90.5261C169.954 90.6944 169.834 90.9244 169.804 91.1735L167.678 108.866C167.638 109.191 167.481 109.489 167.235 109.706C166.99 109.922 166.673 110.043 166.345 110.044C166.324 110.044 166.303 110.043 166.281 110.042Z" fill="#2F2E41"/>
<path d="M169.116 70.2984C165.566 68.3358 162.792 67.8201 161.455 67.6873C161.277 67.6703 161.105 67.6175 160.948 67.5321C160.791 67.4467 160.654 67.3306 160.544 67.1908C160.431 67.0499 160.349 66.8878 160.301 66.7143C160.253 66.5407 160.241 66.3593 160.266 66.1811L164.126 37.6685C164.348 36.0005 164.995 34.4167 166.006 33.068C167.017 31.7193 168.359 30.6505 169.902 29.9632C171.396 29.2798 173.041 28.9881 174.681 29.116C176.32 29.2439 177.899 29.787 179.268 30.6938C179.4 30.7813 179.53 30.8707 179.657 30.9619C181.234 32.1112 182.433 33.6991 183.104 35.5255C183.775 37.3519 183.887 39.335 183.427 41.2249C181.06 50.8592 180.247 66.6536 180.108 69.7221C180.097 69.9836 180.009 70.2361 179.854 70.4477C179.699 70.6592 179.485 70.8204 179.238 70.9109C177.782 71.4375 176.245 71.7098 174.696 71.7157C172.744 71.7274 170.823 71.2394 169.116 70.2984Z" fill="#3F3D56"/>
<path d="M172.344 26.0917C176.391 26.0917 179.671 22.8274 179.671 18.8008C179.671 14.7741 176.391 11.5099 172.344 11.5099C168.298 11.5099 165.017 14.7741 165.017 18.8008C165.017 22.8274 168.298 26.0917 172.344 26.0917Z" fill="#A0616A"/>
<path d="M177.529 24.5691C176.162 26.0179 173.624 25.2402 173.445 23.2608C173.431 23.1072 173.432 22.9525 173.448 22.799C173.54 21.9223 174.049 21.1263 173.928 20.2005C173.9 19.9701 173.814 19.7506 173.677 19.5626C172.588 18.1112 170.031 20.2118 169.003 18.8979C168.372 18.0922 169.113 16.8238 168.63 15.9233C167.991 14.7349 166.1 15.3211 164.914 14.6703C163.595 13.9461 163.674 11.9318 164.542 10.7065C165.602 9.21233 167.459 8.41502 169.293 8.30012C171.127 8.18521 172.948 8.67852 174.66 9.34248C176.606 10.0969 178.535 11.1395 179.732 12.8416C181.188 14.9116 181.328 17.6945 180.6 20.1149C180.157 21.5873 178.645 23.3859 177.529 24.5691Z" fill="#2F2E41"/>
<path d="M183.331 31.6574C183.203 31.0578 182.102 30.2385 180.527 29.5705C177.995 28.5501 175.257 28.1393 172.535 28.3714C169.814 28.6035 167.186 29.4721 164.865 30.9064C164.703 30.915 164.549 30.9764 164.426 31.0809C164.302 31.1855 164.217 31.3276 164.182 31.4852L158.884 54.8027L158.195 57.8394L157.739 59.8491L157.049 62.877L156.682 64.4948C156.659 64.5982 156.658 64.7054 156.68 64.8093C156.701 64.9131 156.745 65.0112 156.807 65.0969C156.87 65.1826 156.95 65.254 157.043 65.3063C157.136 65.3586 157.239 65.3906 157.345 65.4002L180.223 67.3653C180.244 67.3653 180.268 67.3683 180.288 67.3683C180.477 67.3671 180.658 67.2948 180.796 67.1659C180.933 67.037 181.016 66.8611 181.028 66.6736L181.246 63.3757L181.479 59.8491L181.58 58.3203L181.81 54.8027L183.334 31.696V31.6752L183.331 31.6574Z" fill="#0E5D37"/>
<path d="M145.792 33.1251C145.829 33.2852 145.853 33.448 145.864 33.6119L158.679 40.9684L161.793 39.1841L165.114 43.5098L158.451 48.2358L143.831 36.7589C143.234 36.9784 142.585 37.0122 141.969 36.8556C141.353 36.699 140.799 36.3595 140.382 35.8822C139.965 35.405 139.703 34.8126 139.632 34.1838C139.561 33.5551 139.685 32.9198 139.986 32.3625C140.286 31.8051 140.751 31.3521 141.317 31.0637C141.883 30.7753 142.523 30.6652 143.154 30.748C143.784 30.8308 144.374 31.1025 144.845 31.5272C145.317 31.9518 145.647 32.5091 145.792 33.1251Z" fill="#A0616A"/>
<path d="M159.137 40.3429C159.115 40.1449 159.139 39.9447 159.206 39.757C159.272 39.5693 159.381 39.3989 159.522 39.2584L166.045 32.7667C166.691 32.1236 167.553 31.7414 168.466 31.6937C169.379 31.646 170.277 31.9362 170.987 32.5084C171.698 33.0806 172.17 33.8942 172.313 34.7925C172.456 35.6907 172.26 36.6098 171.763 37.3727L167.118 44.4948C166.924 44.7916 166.619 44.9998 166.271 45.0735C165.923 45.1473 165.56 45.0806 165.261 44.8881L159.741 41.3234C159.573 41.2154 159.431 41.0712 159.327 40.9015C159.222 40.7318 159.157 40.5409 159.137 40.3429Z" fill="#3F3D56"/>
<path d="M181.81 54.8027L181.58 58.3204L158.195 57.8395L158.884 54.8027H181.81Z" fill="#CCCCCC"/>
<path d="M181.479 59.8491L181.246 63.3757L157.049 62.877L157.739 59.8491H181.479Z" fill="#CCCCCC"/>
<path d="M172.487 4.63538C170.008 4.63564 167.625 5.5963 165.845 7.31393C164.065 9.03156 163.026 11.3713 162.949 13.8377H161.151C160.993 13.8377 160.841 13.9002 160.729 14.0116C160.618 14.1229 160.555 14.2739 160.555 14.4314V16.8062C160.555 16.9636 160.618 17.1146 160.729 17.226C160.841 17.3373 160.993 17.3999 161.151 17.3999H181.437C181.595 17.3999 181.747 17.3373 181.859 17.226C181.971 17.1146 182.034 16.9636 182.034 16.8062V14.1345C182.034 12.8871 181.787 11.6518 181.307 10.4993C180.827 9.34685 180.124 8.29967 179.238 7.41759C178.351 6.53551 177.299 5.83581 176.141 5.35844C174.982 4.88106 173.741 4.63537 172.487 4.63538Z" fill="#0E5D37"/>
<path d="M212.702 121H0.298319C0.2192 121 0.143326 120.969 0.08738 120.913C0.0314343 120.857 0 120.782 0 120.703C0 120.624 0.0314343 120.549 0.08738 120.493C0.143326 120.438 0.2192 120.406 0.298319 120.406H212.702C212.781 120.406 212.857 120.438 212.913 120.493C212.969 120.549 213 120.624 213 120.703C213 120.782 212.969 120.857 212.913 120.913C212.857 120.969 212.781 121 212.702 121Z" fill="#CCCCCC"/>
</svg>
