<svg width="960" height="666" viewBox="0 0 960 666" fill="none" xmlns="http://www.w3.org/2000/svg">
<path d="M852.288 522.378H505.344C499.2 522.378 494.016 517.989 494.016 512.418V68.1369C494.016 62.7353 499.008 58.1777 505.344 58.1777H852.288C858.432 58.1777 863.616 62.5665 863.616 68.1369V512.587C863.616 517.989 858.624 522.378 852.288 522.378ZM505.344 58.6841C499.392 58.6841 494.592 62.9041 494.592 68.1369V512.587C494.592 517.82 499.392 522.04 505.344 522.04H852.288C858.24 522.04 863.04 517.82 863.04 512.587V68.1369C863.04 62.9041 858.24 58.6841 852.288 58.6841H505.344Z" fill="#E0E0E0"/>
<path d="M452.16 522.378H105.024C98.8798 522.378 93.6958 517.989 93.6958 512.418V68.1369C93.6958 62.7353 98.6878 58.1777 105.024 58.1777H451.968C458.112 58.1777 463.296 62.5665 463.296 68.1369V512.587C463.488 517.989 458.304 522.378 452.16 522.378ZM105.024 58.6841C99.0718 58.6841 94.2718 62.9041 94.2718 68.1369V512.587C94.2718 517.82 99.0718 522.04 105.024 522.04H451.968C457.92 522.04 462.72 517.82 462.72 512.587V68.1369C462.72 62.9041 457.92 58.6841 451.968 58.6841H105.024Z" fill="#E0E0E0"/>
<path d="M960 625.515H0V625.852H960V625.515Z" fill="#E0E0E0"/>
<path d="M130.176 649.484H99.2642V649.821H130.176V649.484Z" fill="#E0E0E0"/>
<path d="M429.888 644.927H327.168V645.264H429.888V644.927Z" fill="#E0E0E0"/>
<path d="M201.408 665.183H131.904V665.52H201.408V665.183Z" fill="#E0E0E0"/>
<path d="M809.472 644.758H726.528V645.095H809.472V644.758Z" fill="#E0E0E0"/>
<path d="M838.656 644.758H826.56V645.095H838.656V644.758Z" fill="#E0E0E0"/>
<path d="M710.592 655.223H607.104V655.561H710.592V655.223Z" fill="#E0E0E0"/>
<path d="M269.568 48.2185C265.92 45.6865 260.352 45.5177 256.512 47.5433C251.136 38.0905 236.352 33.8705 225.792 38.9345C223.104 28.8065 211.584 20.8729 199.68 21.0417C187.776 21.2105 176.448 29.3129 173.952 39.4409C173.568 41.1289 173.376 42.8169 172.032 43.9985C169.92 45.8553 166.272 45.3489 163.2 45.0113C153.6 44.3361 143.808 50.2441 141.12 58.5153L274.176 58.0089C275.328 54.2953 273.216 50.7505 269.568 48.2185Z" fill="#F5F5F5"/>
<path d="M828.672 74.5513C825.024 72.0193 819.456 71.8505 815.616 73.8761C810.24 64.4233 795.456 60.2033 784.896 65.2673C782.208 55.1393 770.688 47.2057 758.784 47.3745C746.88 47.5433 735.552 55.6457 733.056 65.7737C732.672 67.4617 732.48 69.1497 731.136 70.3313C729.024 72.1881 725.376 71.6817 722.304 71.3441C712.704 70.6689 702.912 76.5769 700.224 84.8481L833.28 84.3417C834.24 80.4593 832.32 76.9145 828.672 74.5513Z" fill="#F5F5F5"/>
<path d="M901.44 292.135C897.792 289.603 892.224 289.434 888.384 291.459C883.008 282.007 868.224 277.787 857.664 282.851C854.976 272.723 843.456 264.789 831.552 264.958C819.648 265.127 808.32 273.229 805.824 283.357C805.44 285.045 805.248 286.733 803.904 287.915C801.792 289.771 798.144 289.265 795.072 288.927C785.472 288.252 775.68 294.16 772.992 302.431L906.048 301.925C907.2 298.043 905.088 294.498 901.44 292.135Z" fill="#EBEBEB"/>
<path d="M196.032 250.441C191.424 247.403 184.704 247.065 179.712 249.597C173.184 237.781 154.752 232.717 141.504 238.794C138.048 226.134 123.84 216.343 109.056 216.512C94.2719 216.681 80.4479 226.64 77.3759 239.469C76.7999 241.495 76.6079 243.689 74.8799 245.208C72.1919 247.571 67.7759 246.727 63.9359 246.559C52.0319 245.715 39.9359 253.142 36.6719 263.27L201.6 262.763C203.136 257.868 200.64 253.479 196.032 250.441Z" fill="#F5F5F5"/>
<path d="M247.296 391.895C242.688 388.857 235.968 388.519 230.976 391.051C224.448 379.235 206.016 374.171 192.768 380.248C189.312 367.588 175.104 357.798 160.32 357.967C145.536 358.135 131.712 368.094 128.64 380.923C128.064 382.949 127.872 385.143 126.144 386.663C123.456 389.026 119.04 388.182 115.2 388.013C103.296 387.169 91.2 394.596 87.936 404.724L252.864 404.218C254.4 399.323 251.904 394.934 247.296 391.895Z" fill="#F5F5F5"/>
<path d="M562.176 29.9881C558.144 27.2873 552.384 26.9497 547.968 29.3129C542.208 19.1849 526.272 14.6273 514.752 20.0289C511.68 9.05689 499.392 0.616891 486.528 0.785691C473.664 0.954491 461.568 9.56329 458.88 20.7041C458.496 22.3921 458.112 24.4177 456.768 25.5993C454.464 27.6249 450.624 26.9497 447.36 26.7809C436.992 26.1057 426.432 32.5201 423.744 41.2977L566.976 40.7913C568.32 36.5713 566.208 32.6889 562.176 29.9881Z" fill="#EBEBEB"/>
</svg>
