<svg width="23" height="23" viewBox="0 0 23 23" fill="none" xmlns="http://www.w3.org/2000/svg">
<path d="M2.8064 2.19714H4.40357C5.39492 2.19714 6.17514 3.0508 6.09253 4.03297L5.33066 13.1754C5.20215 14.6716 6.38626 15.9567 7.89164 15.9567H17.6674C18.9892 15.9567 20.1458 14.8735 20.2468 13.5609L20.7424 6.67657C20.8526 5.15283 19.696 3.91364 18.1631 3.91364H6.31284" stroke="#F06D06" stroke-width="1.65225" stroke-miterlimit="10" stroke-linecap="round" stroke-linejoin="round"/>
<path d="M15.8867 20.5553C16.5203 20.5553 17.034 20.0416 17.034 19.4079C17.034 18.7742 16.5203 18.2605 15.8867 18.2605C15.253 18.2605 14.7393 18.7742 14.7393 19.4079C14.7393 20.0416 15.253 20.5553 15.8867 20.5553Z" stroke="#F06D06" stroke-width="1.65225" stroke-miterlimit="10" stroke-linecap="round" stroke-linejoin="round"/>
<path d="M8.54314 20.5553C9.17683 20.5553 9.69054 20.0416 9.69054 19.4079C9.69054 18.7742 9.17683 18.2605 8.54314 18.2605C7.90946 18.2605 7.39575 18.7742 7.39575 19.4079C7.39575 20.0416 7.90946 20.5553 8.54314 20.5553Z" stroke="#F06D06" stroke-width="1.65225" stroke-miterlimit="10" stroke-linecap="round" stroke-linejoin="round"/>
<path d="M9.23169 7.70459H20.2467" stroke="#F06D06" stroke-width="1.65225" stroke-miterlimit="10" stroke-linecap="round" stroke-linejoin="round"/>
</svg>
