<svg width="114" height="111" viewBox="0 0 114 111" fill="none" xmlns="http://www.w3.org/2000/svg">
<rect y="30.7817" width="90" height="85.052" rx="20" transform="rotate(-20 0 30.7817)" fill="black" fill-opacity="0.1"/>
<g clip-path="url(#clip0_1048_4998)">
<path d="M64.1676 74.5187C53.3553 78.454 41.4006 72.8795 37.4653 62.0672C33.5299 51.2548 39.1044 39.3002 49.9168 35.3648C60.7291 31.4294 72.6838 37.004 76.6191 47.8163C80.5545 58.6287 74.9799 70.5833 64.1676 74.5187ZM62.7425 70.6033C66.8962 69.0915 70.2792 65.9915 72.1473 61.9854C74.0154 57.9793 74.2156 53.3951 72.7037 49.2414C71.1919 45.0877 68.092 41.7047 64.0858 39.8366C60.0797 37.9685 55.4956 37.7684 51.3419 39.2802C47.1882 40.792 43.8052 43.892 41.9371 47.8981C40.069 51.9042 39.8688 56.4884 41.3806 60.6421C42.8925 64.7958 45.9924 68.1788 49.9986 70.0469C54.0047 71.915 58.5888 72.1151 62.7425 70.6033ZM58.9999 54.2292L66.8307 51.379L68.2557 55.2944L56.5096 59.5697L51.5218 45.8658L55.4372 44.4407L58.9999 54.2292Z" fill="white"/>
</g>
<defs>
<clipPath id="clip0_1048_4998">
<rect width="50" height="50" fill="white" transform="translate(25 40) rotate(-20)"/>
</clipPath>
</defs>
</svg>
