<svg width="1440" height="270" viewBox="0 0 1440 270" fill="none" xmlns="http://www.w3.org/2000/svg">
<g clip-path="url(#clip0_2082_8751)">
<rect width="360" height="270" fill="white"/>
<mask id="mask0_2082_8751" style="mask-type:alpha" maskUnits="userSpaceOnUse" x="0" y="0" width="360" height="270">
<rect width="360" height="270" fill="#FAF7F1" fill-opacity="0.15"/>
</mask>
<g mask="url(#mask0_2082_8751)">
<path d="M366.525 32.1753C371.247 32.1753 375.075 28.3977 375.075 23.7378C375.075 19.0779 371.247 15.3003 366.525 15.3003C361.803 15.3003 357.975 19.0779 357.975 23.7378C357.975 28.3977 361.803 32.1753 366.525 32.1753Z" stroke="#CFCFAF" stroke-width="6.75" stroke-linejoin="round"/>
<path d="M316.35 217.564V220.939C318.214 220.939 319.725 219.428 319.725 217.564H316.35ZM309.6 217.564H306.225C306.225 219.428 307.736 220.939 309.6 220.939V217.564ZM352.32 195.448L355.266 197.095C356.175 195.468 355.594 193.412 353.967 192.502L352.32 195.448ZM349.026 201.34L347.379 204.286C348.16 204.723 349.083 204.831 349.944 204.588C350.806 204.344 351.535 203.768 351.972 202.987L349.026 201.34ZM360.468 202.341L363.113 200.244C361.955 198.783 359.832 198.538 358.371 199.696L360.468 202.341ZM365.85 232.875V236.25C367.714 236.25 369.225 234.739 369.225 232.875H365.85ZM359.1 232.875H355.725C355.725 234.739 357.236 236.25 359.1 236.25V232.875ZM355.178 206.534L353.082 203.889C351.621 205.047 351.375 207.17 352.533 208.63L355.178 206.534ZM319.725 217.564C319.725 209.451 327.176 201.825 337.725 201.825V195.075C324.04 195.075 312.975 205.158 312.975 217.564H319.725ZM309.6 220.939H316.35V214.189H309.6V220.939ZM337.725 188.325C320.962 188.325 306.225 200.811 306.225 217.564H312.975C312.975 205.154 324.044 195.075 337.725 195.075V188.325ZM353.967 192.502C349.195 189.835 343.626 188.325 337.725 188.325V195.075C342.471 195.075 346.907 196.289 350.673 198.394L353.967 192.502ZM351.972 202.987L355.266 197.095L349.374 193.801L346.08 199.693L351.972 202.987ZM337.725 201.825C341.316 201.825 344.618 202.742 347.379 204.286L350.673 198.394C346.907 196.289 342.471 195.075 337.725 195.075V201.825ZM369.225 217.565C369.225 211.036 366.917 205.044 363.113 200.244L357.823 204.437C360.751 208.131 362.475 212.665 362.475 217.565H369.225ZM369.225 232.875V217.565H362.475V232.875H369.225ZM359.1 236.25H365.85V229.5H359.1V236.25ZM355.725 217.565V232.875H362.475V217.565H355.725ZM352.533 208.63C354.583 211.216 355.725 214.293 355.725 217.565H362.475C362.475 212.665 360.751 208.131 357.823 204.437L352.533 208.63ZM358.371 199.696L353.082 203.889L357.275 209.179L362.564 204.986L358.371 199.696Z" fill="#F6AE9F"/>
<path d="M372.15 61.875H380.373C385.897 61.875 390.375 57.5937 390.375 52.3125C390.375 47.0313 385.897 42.75 380.373 42.75H363.927C358.403 42.75 353.925 47.0313 353.925 52.3125" stroke="#F6AE9F" stroke-width="6.75" stroke-linejoin="round"/>
<path d="M362.7 269.101C362.7 260.527 369.63 253.576 378.178 253.576H405.45" stroke="#CFCFAF" stroke-width="6.75" stroke-linejoin="round"/>
<path d="M217.99 12.3252L220.936 13.9719C221.373 13.1906 221.481 12.2677 221.238 11.4064C220.994 10.5451 220.418 9.8159 219.637 9.37916L217.99 12.3252ZM234.214 45.001H237.589C237.589 43.137 236.078 41.626 234.214 41.626V45.001ZM234.214 51.751V55.126C236.078 55.126 237.589 53.6149 237.589 51.751H234.214ZM212.098 9.03172L213.745 6.08572C212.118 5.17626 210.062 5.75797 209.152 7.385L212.098 9.03172ZM218.991 0.882247L216.894 -1.76273C215.433 -0.604937 215.188 1.51783 216.346 2.97861L218.991 0.882247ZM249.525 -4.49951H252.9C252.9 -6.36347 251.389 -7.87451 249.525 -7.87451V-4.49951ZM249.525 2.25049V5.62549C251.389 5.62549 252.9 4.11445 252.9 2.25049H249.525ZM223.183 6.17219L220.538 8.26856C221.696 9.72934 223.819 9.97496 225.28 8.81717L223.183 6.17219ZM218.475 23.626C218.475 20.0348 219.392 16.734 220.936 13.9719L215.044 10.6784C212.939 14.4452 211.725 18.8796 211.725 23.626H218.475ZM234.214 41.626C226.101 41.626 218.475 34.1743 218.475 23.626H211.725C211.725 37.3109 221.808 48.376 234.214 48.376V41.626ZM237.589 51.751V45.001H230.839V51.751H237.589ZM204.975 23.626C204.975 40.3879 217.461 55.126 234.214 55.126V48.376C221.804 48.376 211.725 37.3069 211.725 23.626H204.975ZM209.152 7.385C206.485 12.1564 204.975 17.7244 204.975 23.626H211.725C211.725 18.8796 212.939 14.4452 215.044 10.6784L209.152 7.385ZM219.637 9.37916L213.745 6.08572L210.451 11.9777L216.343 15.2712L219.637 9.37916ZM234.214 -7.87451C227.686 -7.87451 221.694 -5.56714 216.894 -1.76273L221.087 3.52722C224.781 0.599643 229.315 -1.12451 234.214 -1.12451V-7.87451ZM249.525 -7.87451H234.214V-1.12451H249.525V-7.87451ZM252.9 2.25049V-4.49951H246.15V2.25049H252.9ZM234.214 5.62549H249.525V-1.12451H234.214V5.62549ZM225.28 8.81717C227.866 6.76734 230.943 5.62549 234.214 5.62549V-1.12451C229.315 -1.12451 224.781 0.599565 221.087 3.52722L225.28 8.81717ZM216.346 2.97861L220.538 8.26856L225.828 4.07583L221.635 -1.21412L216.346 2.97861Z" fill="#CFCFAF"/>
<path d="M296.438 250.875H295.732C290.717 250.875 286.65 254.955 286.65 259.988C286.65 265.02 290.717 269.1 295.732 269.1H316.718C321.733 269.1 325.8 265.02 325.8 259.988C325.8 254.955 321.733 250.875 316.718 250.875H316.013" stroke="#0E5D37" stroke-width="6.75" stroke-linejoin="round"/>
<path d="M216.9 270C211.059 270 206.325 265.266 206.325 259.425C206.325 253.584 211.059 248.85 216.9 248.85" stroke="#89C7AA" stroke-width="6.75" stroke-linejoin="round"/>
<path d="M307.027 50.175C311.927 50.175 315.9 46.2463 315.9 41.4C315.9 36.5537 311.927 32.625 307.027 32.625H297" stroke="#F6AE9F" stroke-width="6.75" stroke-linejoin="round"/>
<path d="M25.425 1.12514L-24.7387 1.125C-34.5618 1.125 -42.525 9.08315 -42.525 18.9" stroke="#0E5D37" stroke-width="6.75" stroke-linejoin="round"/>
<path d="M343.125 270V235.782C343.125 229.082 337.686 223.65 330.975 223.65C324.264 223.65 318.825 229.082 318.825 235.782V241.078" stroke="#89C7AA" stroke-width="6.75" stroke-linejoin="round"/>
<path d="M-2.70001 90.2251C8.98079 90.2251 18.45 80.9071 18.45 69.4126C18.45 57.9181 8.98079 48.6001 -2.70001 48.6001C-14.3808 48.6001 -23.85 57.9181 -23.85 69.4126" stroke="#F6AE9F" stroke-width="6.75" stroke-linejoin="round"/>
<path d="M14.2607 22.6127C14.2607 28.0182 9.90991 32.4002 4.54287 32.4002C-0.824183 32.4002 -5.17493 28.0182 -5.17493 22.6127C-5.17493 17.2072 -0.824183 12.8252 4.54287 12.8252H23.6251" stroke="#CFCFAF" stroke-width="6.75" stroke-linejoin="round"/>
<path d="M144.9 21.0375V7.90935C144.9 4.16245 147.923 1.125 151.65 1.125C155.377 1.125 158.4 4.16245 158.4 7.90935V34.1657C158.4 37.9126 155.377 40.95 151.65 40.95C147.923 40.95 144.9 37.9126 144.9 34.1657V30.9938" stroke="#F6AE9F" stroke-width="6.75" stroke-linejoin="round"/>
<path d="M132.3 3.15039V37.3119C132.3 47.5229 140.611 55.8004 150.863 55.8004C161.114 55.8004 169.425 47.5229 169.425 37.3119V29.2408" stroke="#89C7AA" stroke-width="6.75" stroke-linejoin="round"/>
<path d="M264.6 12.8252H305.095C320.507 12.8252 333 25.3669 333 40.8377C333 56.3085 320.507 68.8502 305.095 68.8502H292.912" stroke="#89C7AA" stroke-width="6.75" stroke-linejoin="round"/>
<path d="M373.275 69.9751V88.4277C373.275 96.3791 366.769 102.825 358.743 102.825H347.4" stroke="#0E5D37" stroke-width="6.75" stroke-linejoin="round"/>
<path d="M93.6001 81.2251V93.5986C93.6001 102.546 100.853 109.8 109.8 109.8" stroke="#89C7AA" stroke-width="6.75" stroke-linejoin="round"/>
<path d="M68.6251 168.751V149.383C68.6251 138.231 77.3642 128.889 89.1001 126.451" stroke="#F6AE9F" stroke-width="6.75" stroke-linejoin="round"/>
<path d="M292.163 99.1123H315.857C329.501 99.1123 340.93 109.772 343.913 124.087" stroke="#05203D" stroke-width="6.75"/>
<path d="M340.65 72.2929C340.65 66.4152 345.436 61.6504 351.338 61.6504C357.239 61.6504 362.025 66.4152 362.025 72.2929V80.0329C362.025 85.9105 357.239 90.6754 351.338 90.6754C345.436 90.6754 340.65 85.9105 340.65 80.0329V72.2929Z" stroke="#89C7AA" stroke-width="6.75" stroke-linejoin="round"/>
<path d="M119.025 82.8001L119.025 37.6195C119.025 28.7723 111.873 21.6001 103.05 21.6001" stroke="#F6AE9F" stroke-width="6.75" stroke-linejoin="round"/>
<path d="M270.225 55.7999C274.202 55.7999 277.425 52.5764 277.425 48.5999C277.425 44.6235 274.202 41.3999 270.225 41.3999C266.249 41.3999 263.025 44.6235 263.025 48.5999C263.025 52.5764 266.249 55.7999 270.225 55.7999Z" stroke="#89C7AA" stroke-width="6.75" stroke-linejoin="round"/>
<path d="M270.225 68.85C281.657 68.85 290.925 59.7334 290.925 48.4875C290.925 37.2416 281.657 28.125 270.225 28.125C258.794 28.125 249.525 37.2416 249.525 48.4875" stroke="#F6AE9F" stroke-width="6.75" stroke-linejoin="round"/>
<path d="M235.238 15.0747C230.578 15.0747 226.8 18.8522 226.8 23.5122C226.8 28.1722 230.578 31.9497 235.238 31.9497C239.898 31.9497 243.675 28.1722 243.675 23.5122V15.0747" stroke="#0E5D37" stroke-width="6.75" stroke-linejoin="round"/>
<path d="M201.938 182.871C196.532 182.871 192.15 187.214 192.15 192.572C192.15 197.931 196.532 202.275 201.938 202.275C207.343 202.275 211.725 197.931 211.725 192.572V162.9" stroke="#CFCFAF" stroke-width="6.75" stroke-linejoin="round"/>
<path d="M163.762 248.963C163.762 253.871 167.7 257.85 172.557 257.85C177.414 257.85 181.35 253.871 181.35 248.963C181.35 244.054 177.414 240.075 172.557 240.075H143.1" stroke="#F6AE9F" stroke-width="6.75" stroke-linejoin="round"/>
<path d="M126.853 252.451H149.222C153.794 252.451 157.5 256.177 157.5 260.776C157.5 265.374 153.794 269.101 149.222 269.101H126.853C122.281 269.101 118.575 265.374 118.575 260.776C118.575 256.177 122.281 252.451 126.853 252.451Z" stroke="#CFCFAF" stroke-width="6.75" stroke-linejoin="round"/>
<path d="M85.2751 58.9507C85.2751 70.1345 76.2089 79.2007 65.0251 79.2007C53.8413 79.2007 44.7751 70.1345 44.7751 58.9507" stroke="#F6AE9F" stroke-width="6.75" stroke-linejoin="round"/>
<path d="M102.825 69.0753V44.3257C102.825 39.4791 98.8963 35.5503 94.0501 35.5503C89.2038 35.5503 85.2751 39.4791 85.2751 44.3257V48.1566" stroke="#0E5D37" stroke-width="6.75" stroke-linejoin="round"/>
<path d="M50.8501 101.475C54.2052 101.475 56.9251 98.8058 56.9251 95.5128C56.9251 92.2198 54.2052 89.5503 50.8501 89.5503C47.495 89.5503 44.7751 92.2198 44.7751 95.5128C44.7751 98.8058 47.495 101.475 50.8501 101.475Z" stroke="#0E5D37" stroke-width="6.75" stroke-linejoin="round"/>
<path d="M56.0251 55.1757V30.3245C56.0251 25.5062 59.9538 21.6001 64.8001 21.6001C69.6464 21.6001 73.5751 25.5062 73.5751 30.3245V55.1757C73.5751 59.994 69.6464 63.9001 64.8001 63.9001C59.9538 63.9001 56.0251 59.994 56.0251 55.1757Z" stroke="#CFCFAF" stroke-width="6.75" stroke-linejoin="round"/>
<path d="M256.95 69.0752H237.133C224.592 69.0752 214.425 79.2495 214.425 91.8002" stroke="#F6AE9F" stroke-width="6.75" stroke-linejoin="round"/>
<path d="M-2.81247 78.4151C1.84749 78.4151 5.62503 74.6623 5.62503 70.0327C5.62503 65.4032 1.84749 61.6504 -2.81247 61.6504C-7.47243 61.6504 -11.25 65.4032 -11.25 70.0327V124.65" stroke="#0E5D37" stroke-width="6.75" stroke-linejoin="round"/>
<path d="M276.638 112.725C271.729 112.725 267.75 116.654 267.75 121.5C267.75 126.346 271.729 130.275 276.638 130.275C281.546 130.275 285.525 126.346 285.525 121.5V112.725" stroke="#F6AE9F" stroke-width="6.75" stroke-linejoin="round"/>
<path d="M330.975 154.295C330.975 166.876 341.301 177.075 354.037 177.075C366.774 177.075 377.1 166.876 377.1 154.295V129.825" stroke="#89C7AA" stroke-width="6.75" stroke-linejoin="round"/>
<path d="M318.966 164.925H317.819C311.292 164.925 306 159.636 306 153.112C306 146.588 311.292 141.3 317.819 141.3H353.806C360.333 141.3 365.625 146.588 365.625 153.112C365.625 159.636 360.333 164.925 353.806 164.925H353.453" stroke="#0E5D37" stroke-width="6.75" stroke-linejoin="round"/>
<path d="M297 112.725H311.519C321.271 112.725 329.175 120.583 329.175 130.275" stroke="#89C7AA" stroke-width="6.75" stroke-linejoin="round"/>
<path d="M146.475 201.375C151.197 201.375 155.025 197.597 155.025 192.938C155.025 188.278 151.197 184.5 146.475 184.5C141.753 184.5 137.925 188.278 137.925 192.938C137.925 197.597 141.753 201.375 146.475 201.375Z" stroke="#0E5D37" stroke-width="6.75" stroke-linejoin="round"/>
<path d="M125.641 187.992C122.504 199.72 129.29 211.731 140.796 214.82C152.303 217.91 164.173 210.906 167.31 199.178C170.446 187.451 163.661 175.44 152.154 172.35" stroke="#CFCFAF" stroke-width="6.75" stroke-linejoin="round"/>
<path d="M141.223 172.26H99.5399C91.5068 172.256 84.9915 165.618 84.9878 157.433C84.984 149.247 91.4927 142.615 99.5257 142.619C107.559 142.623 114.074 149.261 114.078 157.446H100.506V157.446" stroke="#05203D" stroke-width="6.75"/>
<path d="M140.287 124.2C140.287 126.216 140.287 151.59 140.287 164.025" stroke="#89C7AA" stroke-width="6.75" stroke-linejoin="round"/>
<path d="M63.6795 249.075C60.0733 249.075 57.1501 246.204 57.1501 242.663C57.1501 239.121 60.0733 236.25 63.6795 236.25H70.6501" stroke="#CFCFAF" stroke-width="6.75" stroke-linejoin="round"/>
<path d="M24.6377 258.75C29.7946 258.75 33.9752 254.62 33.9752 249.525C33.9752 244.43 29.7946 240.3 24.6377 240.3C19.4807 240.3 15.3002 244.43 15.3002 249.525C15.3002 254.62 19.4807 258.75 24.6377 258.75Z" stroke="#F6AE9F" stroke-width="6.75" stroke-linejoin="round"/>
<path d="M44.3251 249.3C44.3251 237.868 35.2085 228.6 23.9626 228.6C12.7167 228.6 3.60007 237.868 3.60007 249.3C3.60007 260.732 12.7167 270 23.9626 270" stroke="#0E5D37" stroke-width="6.75" stroke-linejoin="round"/>
<path d="M78.9751 236.251H87.5038C93.2317 236.251 97.8751 231.819 97.8751 226.351C97.8751 220.883 93.2317 216.451 87.5038 216.451H70.4465C64.7185 216.451 60.0751 220.883 60.0751 226.351" stroke="#0E5D37" stroke-width="6.75" stroke-linejoin="round"/>
<path d="M44.5499 222.075C44.5499 211.637 52.975 203.175 63.3681 203.175H96.5249" stroke="#0E5D37" stroke-width="6.75" stroke-linejoin="round"/>
<path d="M33.8625 203.175C33.8625 204.131 33.8625 216.172 33.8625 222.075" stroke="#F6AE9F" stroke-width="6.75" stroke-linejoin="round"/>
<path d="M127.913 146.7C127.913 147.532 127.913 157.996 127.913 163.125" stroke="#F6AE9F" stroke-width="6.75" stroke-linejoin="round"/>
<path d="M153.919 100.238C153.919 105.395 149.785 109.575 144.685 109.575C139.584 109.575 135.45 105.395 135.45 100.238C135.45 95.0809 139.584 90.9004 144.685 90.9004H174.375" stroke="#F6AE9F" stroke-width="6.75" stroke-linejoin="round"/>
<path d="M186.3 120.263V107.134C186.3 103.388 189.323 100.35 193.05 100.35C196.778 100.35 199.8 103.388 199.8 107.134V133.391C199.8 137.138 196.778 140.175 193.05 140.175C189.323 140.175 186.3 137.138 186.3 133.391V130.219" stroke="#CFCFAF" stroke-width="6.75" stroke-linejoin="round"/>
<path d="M174.6 100.35V134.512C174.6 144.723 182.911 153 193.163 153C203.414 153 211.725 144.723 211.725 134.512V126.44" stroke="#89C7AA" stroke-width="6.75" stroke-linejoin="round"/>
<path d="M177.525 69.9751H167.781C160.736 69.9751 155.025 75.717 155.025 82.8001" stroke="#0E5D37" stroke-width="6.75" stroke-linejoin="round"/>
<path d="M186.188 60.3003C186.188 61.6661 186.188 82.4746 186.188 90.9003" stroke="#F6AE9F" stroke-width="6.75" stroke-linejoin="round"/>
<path d="M242.1 110.283V113.25C242.1 117.433 238.686 120.825 234.478 120.825C230.268 120.825 226.854 117.433 226.854 113.25V110.793C226.854 106.641 223.467 103.275 219.291 103.275C215.112 103.275 211.725 106.641 211.725 110.793V113.816" stroke="#89C7AA" stroke-width="6.75" stroke-linejoin="round"/>
<path d="M1.01264 171.918C-3.64733 171.918 -7.42487 175.693 -7.42487 180.347C-7.42487 185.001 -3.64733 188.775 1.01264 188.775C5.6726 188.775 9.45014 185.001 9.45014 180.347V166.95" stroke="#0E5D37" stroke-width="6.75" stroke-linejoin="round"/>
<path d="M10.575 154.575V141.286C10.575 133.633 16.6253 127.223 24.75 125.55" stroke="#CFCFAF" stroke-width="6.75" stroke-linejoin="round"/>
<path d="M1.01259 135C1.01259 133.229 1.01259 113.977 1.01259 103.05" stroke="#89C7AA" stroke-width="6.75" stroke-linejoin="round"/>
<path d="M22.7251 150.273C22.7251 144.323 27.5605 139.5 33.5251 139.5C39.4897 139.5 44.3251 144.323 44.3251 150.273V175.527C44.3251 181.477 39.4897 186.3 33.5251 186.3C27.5605 186.3 22.7251 181.477 22.7251 175.527V150.273Z" stroke="#89C7AA" stroke-width="6.75" stroke-linejoin="round"/>
<path d="M226.8 199.223C226.8 194.324 230.729 190.35 235.575 190.35C240.422 190.35 244.35 194.324 244.35 199.223V209.25" stroke="#F6AE9F" stroke-width="6.75" stroke-linejoin="round"/>
<path d="M262.913 194.4C268.07 194.4 272.25 190.27 272.25 185.175C272.25 180.08 268.07 175.95 262.913 175.95C257.756 175.95 253.575 180.08 253.575 185.175C253.575 190.27 257.756 194.4 262.913 194.4Z" stroke="#F6AE9F" stroke-width="6.75" stroke-linejoin="round"/>
<path d="M244.74 226.013C244.74 230.673 240.975 234.45 236.333 234.45C231.69 234.45 227.925 230.673 227.925 226.013C227.925 221.353 231.69 217.575 236.333 217.575H267.75" stroke="#CFCFAF" stroke-width="6.75" stroke-linejoin="round"/>
<path d="M234.225 163.8H264.862C276.522 163.8 285.975 173.27 285.975 184.95C285.975 196.63 276.522 206.1 264.862 206.1H255.646" stroke="#0E5D37" stroke-width="6.75" stroke-linejoin="round"/>
<path d="M278.775 217.575H288.483C298.282 217.575 306.225 225.552 306.225 235.394V253.575" stroke="#CFCFAF" stroke-width="6.75" stroke-linejoin="round"/>
<path d="M288.225 241.425C291.58 241.425 294.3 238.755 294.3 235.463C294.3 232.17 291.58 229.5 288.225 229.5C284.87 229.5 282.15 232.17 282.15 235.463C282.15 238.755 284.87 241.425 288.225 241.425Z" stroke="#0E5D37" stroke-width="6.75" stroke-linejoin="round"/>
<path d="M255.256 255.6C255.261 257.85 255.265 260.1 255.269 262.35" stroke="#89C7AA" stroke-width="6.75" stroke-linejoin="round"/>
<path d="M255.256 242.325C255.261 244.575 255.265 246.825 255.269 249.075" stroke="#CFCFAF" stroke-width="6.75" stroke-linejoin="round"/>
<path d="M213.181 230.851C213.185 233.101 213.19 235.351 213.194 237.601" stroke="#89C7AA" stroke-width="6.75" stroke-linejoin="round"/>
<path d="M213.181 217.575C213.185 219.825 213.19 222.075 213.194 224.325" stroke="#F6AE9F" stroke-width="6.75" stroke-linejoin="round"/>
<path d="M199.681 217.575C199.685 219.825 199.69 222.075 199.694 224.325" stroke="#CFCFAF" stroke-width="6.75" stroke-linejoin="round"/>
<path d="M106.081 199.8C106.085 202.05 106.09 204.3 106.094 206.55" stroke="#0E5D37" stroke-width="6.75" stroke-linejoin="round"/>
<path d="M6.40624 204.525C6.41053 206.775 6.41481 209.025 6.4191 211.275" stroke="#F6AE9F" stroke-width="6.75" stroke-linejoin="round"/>
<path d="M36.7812 113.625C36.7855 115.875 36.7898 118.125 36.7941 120.375" stroke="#F6AE9F" stroke-width="6.75" stroke-linejoin="round"/>
<path d="M25.7561 96.9746C25.7604 99.2246 25.7646 101.475 25.7689 103.725" stroke="#CFCFAF" stroke-width="6.75" stroke-linejoin="round"/>
<path d="M118.906 106.201C118.911 108.451 118.915 110.701 118.919 112.951" stroke="#89C7AA" stroke-width="6.75" stroke-linejoin="round"/>
<path d="M185.956 34.875C185.96 37.125 185.965 39.375 185.969 41.625" stroke="#89C7AA" stroke-width="6.75" stroke-linejoin="round"/>
<path d="M185.956 22.0503C185.96 24.3003 185.965 26.5503 185.969 28.8003" stroke="#0E5D37" stroke-width="6.75" stroke-linejoin="round"/>
<path d="M259.981 142.2C259.985 144.45 259.99 146.7 259.994 148.95" stroke="#0E5D37" stroke-width="6.75" stroke-linejoin="round"/>
<path d="M275.956 142.2C275.96 144.45 275.965 146.7 275.969 148.95" stroke="#0E5D37" stroke-width="6.75" stroke-linejoin="round"/>
<path d="M291.931 142.2C291.935 144.45 291.94 146.7 291.944 148.95" stroke="#0E5D37" stroke-width="6.75" stroke-linejoin="round"/>
</g>
</g>
<g clip-path="url(#clip1_2082_8751)">
<rect width="360" height="270" transform="translate(360)" fill="white"/>
<mask id="mask1_2082_8751" style="mask-type:alpha" maskUnits="userSpaceOnUse" x="360" y="0" width="360" height="270">
<rect x="360" width="360" height="270" fill="#FAF7F1" fill-opacity="0.15"/>
</mask>
<g mask="url(#mask1_2082_8751)">
<path d="M726.525 32.1753C731.247 32.1753 735.075 28.3977 735.075 23.7378C735.075 19.0779 731.247 15.3003 726.525 15.3003C721.803 15.3003 717.975 19.0779 717.975 23.7378C717.975 28.3977 721.803 32.1753 726.525 32.1753Z" stroke="#CFCFAF" stroke-width="6.75" stroke-linejoin="round"/>
<path d="M676.35 217.564V220.939C678.214 220.939 679.725 219.428 679.725 217.564H676.35ZM669.6 217.564H666.225C666.225 219.428 667.736 220.939 669.6 220.939V217.564ZM712.32 195.448L715.265 197.095C716.175 195.468 715.593 193.412 713.966 192.502L712.32 195.448ZM709.026 201.34L707.379 204.286C708.16 204.723 709.083 204.831 709.944 204.588C710.806 204.344 711.535 203.768 711.972 202.987L709.026 201.34ZM720.468 202.341L723.113 200.244C721.955 198.783 719.832 198.538 718.371 199.696L720.468 202.341ZM725.85 232.875V236.25C727.714 236.25 729.225 234.739 729.225 232.875H725.85ZM719.1 232.875H715.725C715.725 234.739 717.236 236.25 719.1 236.25V232.875ZM715.178 206.534L713.081 203.889C711.621 205.047 711.375 207.17 712.533 208.63L715.178 206.534ZM679.725 217.564C679.725 209.451 687.176 201.825 697.725 201.825V195.075C684.04 195.075 672.975 205.158 672.975 217.564H679.725ZM669.6 220.939H676.35V214.189H669.6V220.939ZM697.725 188.325C680.962 188.325 666.225 200.811 666.225 217.564H672.975C672.975 205.154 684.043 195.075 697.725 195.075V188.325ZM713.966 192.502C709.195 189.835 703.626 188.325 697.725 188.325V195.075C702.471 195.075 706.906 196.289 710.673 198.394L713.966 192.502ZM711.972 202.987L715.265 197.095L709.374 193.801L706.08 199.693L711.972 202.987ZM697.725 201.825C701.316 201.825 704.618 202.742 707.379 204.286L710.673 198.394C706.906 196.289 702.471 195.075 697.725 195.075V201.825ZM729.225 217.565C729.225 211.036 726.917 205.044 723.113 200.244L717.823 204.437C720.751 208.131 722.475 212.665 722.475 217.565H729.225ZM729.225 232.875V217.565H722.475V232.875H729.225ZM719.1 236.25H725.85V229.5H719.1V236.25ZM715.725 217.565V232.875H722.475V217.565H715.725ZM712.533 208.63C714.583 211.216 715.725 214.293 715.725 217.565H722.475C722.475 212.665 720.751 208.131 717.823 204.437L712.533 208.63ZM718.371 199.696L713.081 203.889L717.274 209.179L722.564 204.986L718.371 199.696Z" fill="#F6AE9F"/>
<path d="M732.15 61.875H740.373C745.897 61.875 750.375 57.5937 750.375 52.3125C750.375 47.0313 745.897 42.75 740.373 42.75H723.927C718.403 42.75 713.925 47.0313 713.925 52.3125" stroke="#F6AE9F" stroke-width="6.75" stroke-linejoin="round"/>
<path d="M722.7 269.101C722.7 260.527 729.63 253.576 738.178 253.576H765.45" stroke="#CFCFAF" stroke-width="6.75" stroke-linejoin="round"/>
<path d="M577.99 12.3252L580.936 13.9719C581.373 13.1906 581.481 12.2677 581.238 11.4064C580.994 10.5451 580.418 9.8159 579.637 9.37916L577.99 12.3252ZM594.214 45.001H597.589C597.589 43.137 596.078 41.626 594.214 41.626V45.001ZM594.214 51.751V55.126C596.078 55.126 597.589 53.6149 597.589 51.751H594.214ZM572.098 9.03172L573.745 6.08572C572.118 5.17626 570.062 5.75797 569.152 7.385L572.098 9.03172ZM578.99 0.882247L576.894 -1.76273C575.433 -0.604937 575.188 1.51783 576.345 2.97861L578.99 0.882247ZM609.525 -4.49951H612.9C612.9 -6.36347 611.389 -7.87451 609.525 -7.87451V-4.49951ZM609.525 2.25049V5.62549C611.389 5.62549 612.9 4.11445 612.9 2.25049H609.525ZM583.183 6.17219L580.538 8.26856C581.696 9.72934 583.819 9.97496 585.28 8.81717L583.183 6.17219ZM578.475 23.626C578.475 20.0348 579.392 16.734 580.936 13.9719L575.044 10.6784C572.939 14.4452 571.725 18.8796 571.725 23.626H578.475ZM594.214 41.626C586.101 41.626 578.475 34.1743 578.475 23.626H571.725C571.725 37.3109 581.808 48.376 594.214 48.376V41.626ZM597.589 51.751V45.001H590.839V51.751H597.589ZM564.975 23.626C564.975 40.3879 577.461 55.126 594.214 55.126V48.376C581.804 48.376 571.725 37.3069 571.725 23.626H564.975ZM569.152 7.385C566.485 12.1564 564.975 17.7244 564.975 23.626H571.725C571.725 18.8796 572.939 14.4452 575.044 10.6784L569.152 7.385ZM579.637 9.37916L573.745 6.08572L570.451 11.9777L576.343 15.2712L579.637 9.37916ZM594.214 -7.87451C587.686 -7.87451 581.694 -5.56714 576.894 -1.76273L581.087 3.52722C584.781 0.599643 589.315 -1.12451 594.214 -1.12451V-7.87451ZM609.525 -7.87451H594.214V-1.12451H609.525V-7.87451ZM612.9 2.25049V-4.49951H606.15V2.25049H612.9ZM594.214 5.62549H609.525V-1.12451H594.214V5.62549ZM585.28 8.81717C587.866 6.76734 590.943 5.62549 594.214 5.62549V-1.12451C589.315 -1.12451 584.781 0.599565 581.087 3.52722L585.28 8.81717ZM576.345 2.97861L580.538 8.26856L585.828 4.07583L581.635 -1.21412L576.345 2.97861Z" fill="#CFCFAF"/>
<path d="M656.437 250.875H655.732C650.717 250.875 646.65 254.955 646.65 259.988C646.65 265.02 650.717 269.1 655.732 269.1H676.718C681.733 269.1 685.8 265.02 685.8 259.988C685.8 254.955 681.733 250.875 676.718 250.875H676.012" stroke="#0E5D37" stroke-width="6.75" stroke-linejoin="round"/>
<path d="M576.9 270C571.059 270 566.325 265.266 566.325 259.425C566.325 253.584 571.059 248.85 576.9 248.85" stroke="#89C7AA" stroke-width="6.75" stroke-linejoin="round"/>
<path d="M667.027 50.175C671.927 50.175 675.9 46.2463 675.9 41.4C675.9 36.5537 671.927 32.625 667.027 32.625H657" stroke="#F6AE9F" stroke-width="6.75" stroke-linejoin="round"/>
<path d="M385.425 1.12514L335.261 1.125C325.438 1.125 317.475 9.08315 317.475 18.9" stroke="#0E5D37" stroke-width="6.75" stroke-linejoin="round"/>
<path d="M703.125 270V235.782C703.125 229.082 697.686 223.65 690.975 223.65C684.264 223.65 678.825 229.082 678.825 235.782V241.078" stroke="#89C7AA" stroke-width="6.75" stroke-linejoin="round"/>
<path d="M357.3 90.2251C368.981 90.2251 378.45 80.9071 378.45 69.4126C378.45 57.9181 368.981 48.6001 357.3 48.6001C345.619 48.6001 336.15 57.9181 336.15 69.4126" stroke="#F6AE9F" stroke-width="6.75" stroke-linejoin="round"/>
<path d="M374.261 22.6127C374.261 28.0182 369.91 32.4002 364.543 32.4002C359.176 32.4002 354.825 28.0182 354.825 22.6127C354.825 17.2072 359.176 12.8252 364.543 12.8252H383.625" stroke="#CFCFAF" stroke-width="6.75" stroke-linejoin="round"/>
<path d="M504.9 21.0375V7.90935C504.9 4.16245 507.923 1.125 511.65 1.125C515.377 1.125 518.4 4.16245 518.4 7.90935V34.1657C518.4 37.9126 515.377 40.95 511.65 40.95C507.923 40.95 504.9 37.9126 504.9 34.1657V30.9938" stroke="#F6AE9F" stroke-width="6.75" stroke-linejoin="round"/>
<path d="M492.3 3.15039V37.3119C492.3 47.5229 500.611 55.8004 510.863 55.8004C521.114 55.8004 529.425 47.5229 529.425 37.3119V29.2408" stroke="#89C7AA" stroke-width="6.75" stroke-linejoin="round"/>
<path d="M624.6 12.8252H665.095C680.506 12.8252 693 25.3669 693 40.8377C693 56.3085 680.506 68.8502 665.095 68.8502H652.912" stroke="#89C7AA" stroke-width="6.75" stroke-linejoin="round"/>
<path d="M733.275 69.9751V88.4277C733.275 96.3791 726.769 102.825 718.743 102.825H707.4" stroke="#0E5D37" stroke-width="6.75" stroke-linejoin="round"/>
<path d="M453.6 81.2251V93.5986C453.6 102.546 460.853 109.8 469.8 109.8" stroke="#89C7AA" stroke-width="6.75" stroke-linejoin="round"/>
<path d="M428.625 168.751V149.383C428.625 138.231 437.364 128.889 449.1 126.451" stroke="#F6AE9F" stroke-width="6.75" stroke-linejoin="round"/>
<path d="M652.163 99.1123H675.857C689.501 99.1123 700.929 109.772 703.913 124.087" stroke="#05203D" stroke-width="6.75"/>
<path d="M700.65 72.2929C700.65 66.4152 705.435 61.6504 711.337 61.6504C717.239 61.6504 722.025 66.4152 722.025 72.2929V80.0329C722.025 85.9105 717.239 90.6754 711.337 90.6754C705.435 90.6754 700.65 85.9105 700.65 80.0329V72.2929Z" stroke="#89C7AA" stroke-width="6.75" stroke-linejoin="round"/>
<path d="M479.025 82.8001L479.025 37.6195C479.025 28.7723 471.873 21.6001 463.05 21.6001" stroke="#F6AE9F" stroke-width="6.75" stroke-linejoin="round"/>
<path d="M630.225 55.7999C634.201 55.7999 637.425 52.5764 637.425 48.5999C637.425 44.6235 634.201 41.3999 630.225 41.3999C626.249 41.3999 623.025 44.6235 623.025 48.5999C623.025 52.5764 626.249 55.7999 630.225 55.7999Z" stroke="#89C7AA" stroke-width="6.75" stroke-linejoin="round"/>
<path d="M630.225 68.85C641.657 68.85 650.925 59.7334 650.925 48.4875C650.925 37.2416 641.657 28.125 630.225 28.125C618.793 28.125 609.525 37.2416 609.525 48.4875" stroke="#F6AE9F" stroke-width="6.75" stroke-linejoin="round"/>
<path d="M595.238 15.0747C590.578 15.0747 586.8 18.8522 586.8 23.5122C586.8 28.1722 590.578 31.9497 595.238 31.9497C599.898 31.9497 603.675 28.1722 603.675 23.5122V15.0747" stroke="#0E5D37" stroke-width="6.75" stroke-linejoin="round"/>
<path d="M561.938 182.871C556.532 182.871 552.15 187.214 552.15 192.572C552.15 197.931 556.532 202.275 561.938 202.275C567.343 202.275 571.725 197.931 571.725 192.572V162.9" stroke="#CFCFAF" stroke-width="6.75" stroke-linejoin="round"/>
<path d="M523.762 248.963C523.762 253.871 527.7 257.85 532.557 257.85C537.414 257.85 541.35 253.871 541.35 248.963C541.35 244.054 537.414 240.075 532.557 240.075H503.1" stroke="#F6AE9F" stroke-width="6.75" stroke-linejoin="round"/>
<path d="M486.853 252.451H509.222C513.794 252.451 517.5 256.177 517.5 260.776C517.5 265.374 513.794 269.101 509.222 269.101H486.853C482.281 269.101 478.575 265.374 478.575 260.776C478.575 256.177 482.281 252.451 486.853 252.451Z" stroke="#CFCFAF" stroke-width="6.75" stroke-linejoin="round"/>
<path d="M445.275 58.9507C445.275 70.1345 436.209 79.2007 425.025 79.2007C413.841 79.2007 404.775 70.1345 404.775 58.9507" stroke="#F6AE9F" stroke-width="6.75" stroke-linejoin="round"/>
<path d="M462.825 69.0753V44.3257C462.825 39.4791 458.896 35.5503 454.05 35.5503C449.204 35.5503 445.275 39.4791 445.275 44.3257V48.1566" stroke="#0E5D37" stroke-width="6.75" stroke-linejoin="round"/>
<path d="M410.85 101.475C414.205 101.475 416.925 98.8058 416.925 95.5128C416.925 92.2198 414.205 89.5503 410.85 89.5503C407.495 89.5503 404.775 92.2198 404.775 95.5128C404.775 98.8058 407.495 101.475 410.85 101.475Z" stroke="#0E5D37" stroke-width="6.75" stroke-linejoin="round"/>
<path d="M416.025 55.1757V30.3245C416.025 25.5062 419.954 21.6001 424.8 21.6001C429.646 21.6001 433.575 25.5062 433.575 30.3245V55.1757C433.575 59.994 429.646 63.9001 424.8 63.9001C419.954 63.9001 416.025 59.994 416.025 55.1757Z" stroke="#CFCFAF" stroke-width="6.75" stroke-linejoin="round"/>
<path d="M616.95 69.0752H597.133C584.592 69.0752 574.425 79.2495 574.425 91.8002" stroke="#F6AE9F" stroke-width="6.75" stroke-linejoin="round"/>
<path d="M357.188 78.4151C361.847 78.4151 365.625 74.6623 365.625 70.0327C365.625 65.4032 361.847 61.6504 357.188 61.6504C352.528 61.6504 348.75 65.4032 348.75 70.0327V124.65" stroke="#0E5D37" stroke-width="6.75" stroke-linejoin="round"/>
<path d="M636.638 112.725C631.729 112.725 627.75 116.654 627.75 121.5C627.75 126.346 631.729 130.275 636.638 130.275C641.546 130.275 645.525 126.346 645.525 121.5V112.725" stroke="#F6AE9F" stroke-width="6.75" stroke-linejoin="round"/>
<path d="M690.975 154.295C690.975 166.876 701.301 177.075 714.037 177.075C726.774 177.075 737.1 166.876 737.1 154.295V129.825" stroke="#89C7AA" stroke-width="6.75" stroke-linejoin="round"/>
<path d="M678.966 164.925H677.819C671.292 164.925 666 159.636 666 153.112C666 146.588 671.292 141.3 677.819 141.3H713.806C720.333 141.3 725.625 146.588 725.625 153.112C725.625 159.636 720.333 164.925 713.806 164.925H713.453" stroke="#0E5D37" stroke-width="6.75" stroke-linejoin="round"/>
<path d="M657 112.725H671.519C681.271 112.725 689.175 120.583 689.175 130.275" stroke="#89C7AA" stroke-width="6.75" stroke-linejoin="round"/>
<path d="M506.475 201.375C511.197 201.375 515.025 197.597 515.025 192.938C515.025 188.278 511.197 184.5 506.475 184.5C501.753 184.5 497.925 188.278 497.925 192.938C497.925 197.597 501.753 201.375 506.475 201.375Z" stroke="#0E5D37" stroke-width="6.75" stroke-linejoin="round"/>
<path d="M485.641 187.992C482.504 199.72 489.29 211.731 500.796 214.82C512.303 217.91 524.173 210.906 527.31 199.178C530.446 187.451 523.661 175.44 512.154 172.35" stroke="#CFCFAF" stroke-width="6.75" stroke-linejoin="round"/>
<path d="M501.223 172.26H459.54C451.507 172.256 444.992 165.618 444.988 157.433C444.984 149.247 451.493 142.615 459.526 142.619C467.559 142.623 474.074 149.261 474.078 157.446H460.506V157.446" stroke="#05203D" stroke-width="6.75"/>
<path d="M500.287 124.2C500.287 126.216 500.287 151.59 500.287 164.025" stroke="#89C7AA" stroke-width="6.75" stroke-linejoin="round"/>
<path d="M423.679 249.075C420.073 249.075 417.15 246.204 417.15 242.663C417.15 239.121 420.073 236.25 423.679 236.25H430.65" stroke="#CFCFAF" stroke-width="6.75" stroke-linejoin="round"/>
<path d="M384.638 258.75C389.795 258.75 393.975 254.62 393.975 249.525C393.975 244.43 389.795 240.3 384.638 240.3C379.481 240.3 375.3 244.43 375.3 249.525C375.3 254.62 379.481 258.75 384.638 258.75Z" stroke="#F6AE9F" stroke-width="6.75" stroke-linejoin="round"/>
<path d="M404.325 249.3C404.325 237.868 395.208 228.6 383.963 228.6C372.717 228.6 363.6 237.868 363.6 249.3C363.6 260.732 372.717 270 383.963 270" stroke="#0E5D37" stroke-width="6.75" stroke-linejoin="round"/>
<path d="M438.975 236.251H447.504C453.232 236.251 457.875 231.819 457.875 226.351C457.875 220.883 453.232 216.451 447.504 216.451H430.446C424.718 216.451 420.075 220.883 420.075 226.351" stroke="#0E5D37" stroke-width="6.75" stroke-linejoin="round"/>
<path d="M404.55 222.075C404.55 211.637 412.975 203.175 423.368 203.175H456.525" stroke="#0E5D37" stroke-width="6.75" stroke-linejoin="round"/>
<path d="M393.863 203.175C393.863 204.131 393.863 216.172 393.863 222.075" stroke="#F6AE9F" stroke-width="6.75" stroke-linejoin="round"/>
<path d="M487.913 146.7C487.913 147.532 487.913 157.996 487.913 163.125" stroke="#F6AE9F" stroke-width="6.75" stroke-linejoin="round"/>
<path d="M513.919 100.238C513.919 105.395 509.785 109.575 504.685 109.575C499.584 109.575 495.45 105.395 495.45 100.238C495.45 95.0809 499.584 90.9004 504.685 90.9004H534.375" stroke="#F6AE9F" stroke-width="6.75" stroke-linejoin="round"/>
<path d="M546.3 120.263V107.134C546.3 103.388 549.323 100.35 553.05 100.35C556.778 100.35 559.8 103.388 559.8 107.134V133.391C559.8 137.138 556.778 140.175 553.05 140.175C549.323 140.175 546.3 137.138 546.3 133.391V130.219" stroke="#CFCFAF" stroke-width="6.75" stroke-linejoin="round"/>
<path d="M534.6 100.35V134.512C534.6 144.723 542.911 153 553.163 153C563.414 153 571.725 144.723 571.725 134.512V126.44" stroke="#89C7AA" stroke-width="6.75" stroke-linejoin="round"/>
<path d="M537.525 69.9751H527.781C520.736 69.9751 515.025 75.717 515.025 82.8001" stroke="#0E5D37" stroke-width="6.75" stroke-linejoin="round"/>
<path d="M546.188 60.3003C546.188 61.6661 546.188 82.4746 546.188 90.9003" stroke="#F6AE9F" stroke-width="6.75" stroke-linejoin="round"/>
<path d="M602.1 110.283V113.25C602.1 117.433 598.686 120.825 594.478 120.825C590.268 120.825 586.854 117.433 586.854 113.25V110.793C586.854 106.641 583.467 103.275 579.291 103.275C575.112 103.275 571.725 106.641 571.725 110.793V113.816" stroke="#89C7AA" stroke-width="6.75" stroke-linejoin="round"/>
<path d="M361.013 171.918C356.353 171.918 352.575 175.693 352.575 180.347C352.575 185.001 356.353 188.775 361.013 188.775C365.673 188.775 369.45 185.001 369.45 180.347V166.95" stroke="#0E5D37" stroke-width="6.75" stroke-linejoin="round"/>
<path d="M370.575 154.575V141.286C370.575 133.633 376.625 127.223 384.75 125.55" stroke="#CFCFAF" stroke-width="6.75" stroke-linejoin="round"/>
<path d="M361.013 135C361.013 133.229 361.013 113.977 361.013 103.05" stroke="#89C7AA" stroke-width="6.75" stroke-linejoin="round"/>
<path d="M382.725 150.273C382.725 144.323 387.56 139.5 393.525 139.5C399.49 139.5 404.325 144.323 404.325 150.273V175.527C404.325 181.477 399.49 186.3 393.525 186.3C387.56 186.3 382.725 181.477 382.725 175.527V150.273Z" stroke="#89C7AA" stroke-width="6.75" stroke-linejoin="round"/>
<path d="M586.8 199.223C586.8 194.324 590.729 190.35 595.575 190.35C600.422 190.35 604.35 194.324 604.35 199.223V209.25" stroke="#F6AE9F" stroke-width="6.75" stroke-linejoin="round"/>
<path d="M622.913 194.4C628.07 194.4 632.25 190.27 632.25 185.175C632.25 180.08 628.07 175.95 622.913 175.95C617.756 175.95 613.575 180.08 613.575 185.175C613.575 190.27 617.756 194.4 622.913 194.4Z" stroke="#F6AE9F" stroke-width="6.75" stroke-linejoin="round"/>
<path d="M604.74 226.013C604.74 230.673 600.975 234.45 596.333 234.45C591.69 234.45 587.925 230.673 587.925 226.013C587.925 221.353 591.69 217.575 596.333 217.575H627.75" stroke="#CFCFAF" stroke-width="6.75" stroke-linejoin="round"/>
<path d="M594.225 163.8H624.862C636.522 163.8 645.975 173.27 645.975 184.95C645.975 196.63 636.522 206.1 624.862 206.1H615.646" stroke="#0E5D37" stroke-width="6.75" stroke-linejoin="round"/>
<path d="M638.775 217.575H648.483C658.282 217.575 666.225 225.552 666.225 235.394V253.575" stroke="#CFCFAF" stroke-width="6.75" stroke-linejoin="round"/>
<path d="M648.225 241.425C651.58 241.425 654.3 238.755 654.3 235.463C654.3 232.17 651.58 229.5 648.225 229.5C644.87 229.5 642.15 232.17 642.15 235.463C642.15 238.755 644.87 241.425 648.225 241.425Z" stroke="#0E5D37" stroke-width="6.75" stroke-linejoin="round"/>
<path d="M615.256 255.6C615.26 257.85 615.265 260.1 615.269 262.35" stroke="#89C7AA" stroke-width="6.75" stroke-linejoin="round"/>
<path d="M615.256 242.325C615.261 244.575 615.265 246.825 615.269 249.075" stroke="#CFCFAF" stroke-width="6.75" stroke-linejoin="round"/>
<path d="M573.181 230.851C573.185 233.101 573.19 235.351 573.194 237.601" stroke="#89C7AA" stroke-width="6.75" stroke-linejoin="round"/>
<path d="M573.181 217.575C573.185 219.825 573.19 222.075 573.194 224.325" stroke="#F6AE9F" stroke-width="6.75" stroke-linejoin="round"/>
<path d="M559.681 217.575C559.685 219.825 559.69 222.075 559.694 224.325" stroke="#CFCFAF" stroke-width="6.75" stroke-linejoin="round"/>
<path d="M466.081 199.8C466.085 202.05 466.09 204.3 466.094 206.55" stroke="#0E5D37" stroke-width="6.75" stroke-linejoin="round"/>
<path d="M366.406 204.525C366.41 206.775 366.415 209.025 366.419 211.275" stroke="#F6AE9F" stroke-width="6.75" stroke-linejoin="round"/>
<path d="M396.781 113.625C396.785 115.875 396.79 118.125 396.794 120.375" stroke="#F6AE9F" stroke-width="6.75" stroke-linejoin="round"/>
<path d="M385.756 96.9746C385.76 99.2246 385.765 101.475 385.769 103.725" stroke="#CFCFAF" stroke-width="6.75" stroke-linejoin="round"/>
<path d="M478.906 106.201C478.91 108.451 478.915 110.701 478.919 112.951" stroke="#89C7AA" stroke-width="6.75" stroke-linejoin="round"/>
<path d="M545.956 34.875C545.96 37.125 545.965 39.375 545.969 41.625" stroke="#89C7AA" stroke-width="6.75" stroke-linejoin="round"/>
<path d="M545.956 22.0503C545.96 24.3003 545.965 26.5503 545.969 28.8003" stroke="#0E5D37" stroke-width="6.75" stroke-linejoin="round"/>
<path d="M619.981 142.2C619.985 144.45 619.99 146.7 619.994 148.95" stroke="#0E5D37" stroke-width="6.75" stroke-linejoin="round"/>
<path d="M635.956 142.2C635.96 144.45 635.965 146.7 635.969 148.95" stroke="#0E5D37" stroke-width="6.75" stroke-linejoin="round"/>
<path d="M651.931 142.2C651.935 144.45 651.94 146.7 651.944 148.95" stroke="#0E5D37" stroke-width="6.75" stroke-linejoin="round"/>
</g>
</g>
<g clip-path="url(#clip2_2082_8751)">
<rect width="360" height="270" transform="translate(720)" fill="white"/>
<mask id="mask2_2082_8751" style="mask-type:alpha" maskUnits="userSpaceOnUse" x="720" y="0" width="360" height="270">
<rect x="720" width="360" height="270" fill="#FAF7F1" fill-opacity="0.15"/>
</mask>
<g mask="url(#mask2_2082_8751)">
<path d="M1086.53 32.1753C1091.25 32.1753 1095.08 28.3977 1095.08 23.7378C1095.08 19.0779 1091.25 15.3003 1086.53 15.3003C1081.8 15.3003 1077.98 19.0779 1077.98 23.7378C1077.98 28.3977 1081.8 32.1753 1086.53 32.1753Z" stroke="#CFCFAF" stroke-width="6.75" stroke-linejoin="round"/>
<path d="M1036.35 217.564V220.939C1038.21 220.939 1039.73 219.428 1039.73 217.564H1036.35ZM1029.6 217.564H1026.23C1026.23 219.428 1027.74 220.939 1029.6 220.939V217.564ZM1072.32 195.448L1075.27 197.095C1076.18 195.468 1075.59 193.412 1073.97 192.502L1072.32 195.448ZM1069.03 201.34L1067.38 204.286C1068.16 204.723 1069.08 204.831 1069.94 204.588C1070.81 204.344 1071.53 203.768 1071.97 202.987L1069.03 201.34ZM1080.47 202.341L1083.11 200.244C1081.95 198.783 1079.83 198.538 1078.37 199.696L1080.47 202.341ZM1085.85 232.875V236.25C1087.71 236.25 1089.23 234.739 1089.23 232.875H1085.85ZM1079.1 232.875H1075.73C1075.73 234.739 1077.24 236.25 1079.1 236.25V232.875ZM1075.18 206.534L1073.08 203.889C1071.62 205.047 1071.38 207.17 1072.53 208.63L1075.18 206.534ZM1039.73 217.564C1039.73 209.451 1047.18 201.825 1057.73 201.825V195.075C1044.04 195.075 1032.98 205.158 1032.98 217.564H1039.73ZM1029.6 220.939H1036.35V214.189H1029.6V220.939ZM1057.73 188.325C1040.96 188.325 1026.23 200.811 1026.23 217.564H1032.98C1032.98 205.154 1044.04 195.075 1057.73 195.075V188.325ZM1073.97 192.502C1069.2 189.835 1063.63 188.325 1057.73 188.325V195.075C1062.47 195.075 1066.91 196.289 1070.67 198.394L1073.97 192.502ZM1071.97 202.987L1075.27 197.095L1069.37 193.801L1066.08 199.693L1071.97 202.987ZM1057.73 201.825C1061.32 201.825 1064.62 202.742 1067.38 204.286L1070.67 198.394C1066.91 196.289 1062.47 195.075 1057.73 195.075V201.825ZM1089.23 217.565C1089.23 211.036 1086.92 205.044 1083.11 200.244L1077.82 204.437C1080.75 208.131 1082.48 212.665 1082.48 217.565H1089.23ZM1089.23 232.875V217.565H1082.48V232.875H1089.23ZM1079.1 236.25H1085.85V229.5H1079.1V236.25ZM1075.73 217.565V232.875H1082.48V217.565H1075.73ZM1072.53 208.63C1074.58 211.216 1075.73 214.293 1075.73 217.565H1082.48C1082.48 212.665 1080.75 208.131 1077.82 204.437L1072.53 208.63ZM1078.37 199.696L1073.08 203.889L1077.27 209.179L1082.56 204.986L1078.37 199.696Z" fill="#F6AE9F"/>
<path d="M1092.15 61.875H1100.37C1105.9 61.875 1110.38 57.5937 1110.38 52.3125C1110.38 47.0313 1105.9 42.75 1100.37 42.75H1083.93C1078.4 42.75 1073.93 47.0313 1073.93 52.3125" stroke="#F6AE9F" stroke-width="6.75" stroke-linejoin="round"/>
<path d="M1082.7 269.101C1082.7 260.527 1089.63 253.576 1098.18 253.576H1125.45" stroke="#CFCFAF" stroke-width="6.75" stroke-linejoin="round"/>
<path d="M937.99 12.3252L940.936 13.9719C941.373 13.1906 941.481 12.2677 941.238 11.4064C940.994 10.5451 940.418 9.8159 939.637 9.37916L937.99 12.3252ZM954.214 45.001H957.589C957.589 43.137 956.078 41.626 954.214 41.626V45.001ZM954.214 51.751V55.126C956.078 55.126 957.589 53.6149 957.589 51.751H954.214ZM932.098 9.03172L933.745 6.08572C932.118 5.17626 930.062 5.75797 929.152 7.385L932.098 9.03172ZM938.99 0.882247L936.894 -1.76273C935.433 -0.604937 935.188 1.51783 936.346 2.97861L938.99 0.882247ZM969.525 -4.49951H972.9C972.9 -6.36347 971.389 -7.87451 969.525 -7.87451V-4.49951ZM969.525 2.25049V5.62549C971.389 5.62549 972.9 4.11445 972.9 2.25049H969.525ZM943.183 6.17219L940.538 8.26856C941.696 9.72934 943.819 9.97496 945.28 8.81717L943.183 6.17219ZM938.475 23.626C938.475 20.0348 939.392 16.734 940.936 13.9719L935.044 10.6784C932.939 14.4452 931.725 18.8796 931.725 23.626H938.475ZM954.214 41.626C946.101 41.626 938.475 34.1743 938.475 23.626H931.725C931.725 37.3109 941.808 48.376 954.214 48.376V41.626ZM957.589 51.751V45.001H950.839V51.751H957.589ZM924.975 23.626C924.975 40.3879 937.461 55.126 954.214 55.126V48.376C941.804 48.376 931.725 37.3069 931.725 23.626H924.975ZM929.152 7.385C926.485 12.1564 924.975 17.7244 924.975 23.626H931.725C931.725 18.8796 932.939 14.4452 935.044 10.6784L929.152 7.385ZM939.637 9.37916L933.745 6.08572L930.451 11.9777L936.343 15.2712L939.637 9.37916ZM954.214 -7.87451C947.686 -7.87451 941.694 -5.56714 936.894 -1.76273L941.087 3.52722C944.781 0.599643 949.315 -1.12451 954.214 -1.12451V-7.87451ZM969.525 -7.87451H954.214V-1.12451H969.525V-7.87451ZM972.9 2.25049V-4.49951H966.15V2.25049H972.9ZM954.214 5.62549H969.525V-1.12451H954.214V5.62549ZM945.28 8.81717C947.866 6.76734 950.943 5.62549 954.214 5.62549V-1.12451C949.315 -1.12451 944.781 0.599565 941.087 3.52722L945.28 8.81717ZM936.346 2.97861L940.538 8.26856L945.828 4.07583L941.635 -1.21412L936.346 2.97861Z" fill="#CFCFAF"/>
<path d="M1016.44 250.875H1015.73C1010.72 250.875 1006.65 254.955 1006.65 259.988C1006.65 265.02 1010.72 269.1 1015.73 269.1H1036.72C1041.73 269.1 1045.8 265.02 1045.8 259.988C1045.8 254.955 1041.73 250.875 1036.72 250.875H1036.01" stroke="#0E5D37" stroke-width="6.75" stroke-linejoin="round"/>
<path d="M936.9 270C931.059 270 926.325 265.266 926.325 259.425C926.325 253.584 931.059 248.85 936.9 248.85" stroke="#89C7AA" stroke-width="6.75" stroke-linejoin="round"/>
<path d="M1027.03 50.175C1031.93 50.175 1035.9 46.2463 1035.9 41.4C1035.9 36.5537 1031.93 32.625 1027.03 32.625H1017" stroke="#F6AE9F" stroke-width="6.75" stroke-linejoin="round"/>
<path d="M745.425 1.12514L695.261 1.125C685.438 1.125 677.475 9.08315 677.475 18.9" stroke="#0E5D37" stroke-width="6.75" stroke-linejoin="round"/>
<path d="M1063.13 270V235.782C1063.13 229.082 1057.69 223.65 1050.98 223.65C1044.26 223.65 1038.83 229.082 1038.83 235.782V241.078" stroke="#89C7AA" stroke-width="6.75" stroke-linejoin="round"/>
<path d="M717.3 90.2251C728.981 90.2251 738.45 80.9071 738.45 69.4126C738.45 57.9181 728.981 48.6001 717.3 48.6001C705.619 48.6001 696.15 57.9181 696.15 69.4126" stroke="#F6AE9F" stroke-width="6.75" stroke-linejoin="round"/>
<path d="M734.261 22.6127C734.261 28.0182 729.91 32.4002 724.543 32.4002C719.176 32.4002 714.825 28.0182 714.825 22.6127C714.825 17.2072 719.176 12.8252 724.543 12.8252H743.625" stroke="#CFCFAF" stroke-width="6.75" stroke-linejoin="round"/>
<path d="M864.9 21.0375V7.90935C864.9 4.16245 867.923 1.125 871.65 1.125C875.377 1.125 878.4 4.16245 878.4 7.90935V34.1657C878.4 37.9126 875.377 40.95 871.65 40.95C867.923 40.95 864.9 37.9126 864.9 34.1657V30.9938" stroke="#F6AE9F" stroke-width="6.75" stroke-linejoin="round"/>
<path d="M852.3 3.15039V37.3119C852.3 47.5229 860.611 55.8004 870.863 55.8004C881.114 55.8004 889.425 47.5229 889.425 37.3119V29.2408" stroke="#89C7AA" stroke-width="6.75" stroke-linejoin="round"/>
<path d="M984.6 12.8252H1025.1C1040.51 12.8252 1053 25.3669 1053 40.8377C1053 56.3085 1040.51 68.8502 1025.1 68.8502H1012.91" stroke="#89C7AA" stroke-width="6.75" stroke-linejoin="round"/>
<path d="M1093.28 69.9751V88.4277C1093.28 96.3791 1086.77 102.825 1078.74 102.825H1067.4" stroke="#0E5D37" stroke-width="6.75" stroke-linejoin="round"/>
<path d="M813.6 81.2251V93.5986C813.6 102.546 820.853 109.8 829.8 109.8" stroke="#89C7AA" stroke-width="6.75" stroke-linejoin="round"/>
<path d="M788.625 168.751V149.383C788.625 138.231 797.364 128.889 809.1 126.451" stroke="#F6AE9F" stroke-width="6.75" stroke-linejoin="round"/>
<path d="M1012.16 99.1123H1035.86C1049.5 99.1123 1060.93 109.772 1063.91 124.087" stroke="#05203D" stroke-width="6.75"/>
<path d="M1060.65 72.2929C1060.65 66.4152 1065.44 61.6504 1071.34 61.6504C1077.24 61.6504 1082.02 66.4152 1082.02 72.2929V80.0329C1082.02 85.9105 1077.24 90.6754 1071.34 90.6754C1065.44 90.6754 1060.65 85.9105 1060.65 80.0329V72.2929Z" stroke="#89C7AA" stroke-width="6.75" stroke-linejoin="round"/>
<path d="M839.025 82.8001L839.025 37.6195C839.025 28.7723 831.873 21.6001 823.05 21.6001" stroke="#F6AE9F" stroke-width="6.75" stroke-linejoin="round"/>
<path d="M990.225 55.7999C994.202 55.7999 997.425 52.5764 997.425 48.5999C997.425 44.6235 994.202 41.3999 990.225 41.3999C986.249 41.3999 983.025 44.6235 983.025 48.5999C983.025 52.5764 986.249 55.7999 990.225 55.7999Z" stroke="#89C7AA" stroke-width="6.75" stroke-linejoin="round"/>
<path d="M990.225 68.85C1001.66 68.85 1010.93 59.7334 1010.93 48.4875C1010.93 37.2416 1001.66 28.125 990.225 28.125C978.793 28.125 969.525 37.2416 969.525 48.4875" stroke="#F6AE9F" stroke-width="6.75" stroke-linejoin="round"/>
<path d="M955.238 15.0747C950.578 15.0747 946.8 18.8522 946.8 23.5122C946.8 28.1722 950.578 31.9497 955.238 31.9497C959.898 31.9497 963.675 28.1722 963.675 23.5122V15.0747" stroke="#0E5D37" stroke-width="6.75" stroke-linejoin="round"/>
<path d="M921.938 182.871C916.532 182.871 912.15 187.214 912.15 192.572C912.15 197.931 916.532 202.275 921.938 202.275C927.343 202.275 931.725 197.931 931.725 192.572V162.9" stroke="#CFCFAF" stroke-width="6.75" stroke-linejoin="round"/>
<path d="M883.762 248.963C883.762 253.871 887.7 257.85 892.557 257.85C897.414 257.85 901.35 253.871 901.35 248.963C901.35 244.054 897.414 240.075 892.557 240.075H863.1" stroke="#F6AE9F" stroke-width="6.75" stroke-linejoin="round"/>
<path d="M846.853 252.451H869.222C873.794 252.451 877.5 256.177 877.5 260.776C877.5 265.374 873.794 269.101 869.222 269.101H846.853C842.281 269.101 838.575 265.374 838.575 260.776C838.575 256.177 842.281 252.451 846.853 252.451Z" stroke="#CFCFAF" stroke-width="6.75" stroke-linejoin="round"/>
<path d="M805.275 58.9507C805.275 70.1345 796.209 79.2007 785.025 79.2007C773.841 79.2007 764.775 70.1345 764.775 58.9507" stroke="#F6AE9F" stroke-width="6.75" stroke-linejoin="round"/>
<path d="M822.825 69.0753V44.3257C822.825 39.4791 818.896 35.5503 814.05 35.5503C809.204 35.5503 805.275 39.4791 805.275 44.3257V48.1566" stroke="#0E5D37" stroke-width="6.75" stroke-linejoin="round"/>
<path d="M770.85 101.475C774.205 101.475 776.925 98.8058 776.925 95.5128C776.925 92.2198 774.205 89.5503 770.85 89.5503C767.495 89.5503 764.775 92.2198 764.775 95.5128C764.775 98.8058 767.495 101.475 770.85 101.475Z" stroke="#0E5D37" stroke-width="6.75" stroke-linejoin="round"/>
<path d="M776.025 55.1757V30.3245C776.025 25.5062 779.954 21.6001 784.8 21.6001C789.646 21.6001 793.575 25.5062 793.575 30.3245V55.1757C793.575 59.994 789.646 63.9001 784.8 63.9001C779.954 63.9001 776.025 59.994 776.025 55.1757Z" stroke="#CFCFAF" stroke-width="6.75" stroke-linejoin="round"/>
<path d="M976.95 69.0752H957.133C944.592 69.0752 934.425 79.2495 934.425 91.8002" stroke="#F6AE9F" stroke-width="6.75" stroke-linejoin="round"/>
<path d="M717.188 78.4151C721.847 78.4151 725.625 74.6623 725.625 70.0327C725.625 65.4032 721.847 61.6504 717.188 61.6504C712.528 61.6504 708.75 65.4032 708.75 70.0327V124.65" stroke="#0E5D37" stroke-width="6.75" stroke-linejoin="round"/>
<path d="M996.638 112.725C991.729 112.725 987.75 116.654 987.75 121.5C987.75 126.346 991.729 130.275 996.638 130.275C1001.55 130.275 1005.53 126.346 1005.53 121.5V112.725" stroke="#F6AE9F" stroke-width="6.75" stroke-linejoin="round"/>
<path d="M1050.97 154.295C1050.97 166.876 1061.3 177.075 1074.04 177.075C1086.77 177.075 1097.1 166.876 1097.1 154.295V129.825" stroke="#89C7AA" stroke-width="6.75" stroke-linejoin="round"/>
<path d="M1038.97 164.925H1037.82C1031.29 164.925 1026 159.636 1026 153.112C1026 146.588 1031.29 141.3 1037.82 141.3H1073.81C1080.33 141.3 1085.63 146.588 1085.63 153.112C1085.63 159.636 1080.33 164.925 1073.81 164.925H1073.45" stroke="#0E5D37" stroke-width="6.75" stroke-linejoin="round"/>
<path d="M1017 112.725H1031.52C1041.27 112.725 1049.18 120.583 1049.18 130.275" stroke="#89C7AA" stroke-width="6.75" stroke-linejoin="round"/>
<path d="M866.475 201.375C871.197 201.375 875.025 197.597 875.025 192.938C875.025 188.278 871.197 184.5 866.475 184.5C861.753 184.5 857.925 188.278 857.925 192.938C857.925 197.597 861.753 201.375 866.475 201.375Z" stroke="#0E5D37" stroke-width="6.75" stroke-linejoin="round"/>
<path d="M845.641 187.992C842.504 199.72 849.29 211.731 860.796 214.82C872.303 217.91 884.173 210.906 887.31 199.178C890.446 187.451 883.661 175.44 872.154 172.35" stroke="#CFCFAF" stroke-width="6.75" stroke-linejoin="round"/>
<path d="M861.223 172.26H819.54C811.507 172.256 804.992 165.618 804.988 157.433C804.984 149.247 811.493 142.615 819.526 142.619C827.559 142.623 834.074 149.261 834.078 157.446H820.506V157.446" stroke="#05203D" stroke-width="6.75"/>
<path d="M860.287 124.2C860.287 126.216 860.287 151.59 860.287 164.025" stroke="#89C7AA" stroke-width="6.75" stroke-linejoin="round"/>
<path d="M783.679 249.075C780.073 249.075 777.15 246.204 777.15 242.663C777.15 239.121 780.073 236.25 783.679 236.25H790.65" stroke="#CFCFAF" stroke-width="6.75" stroke-linejoin="round"/>
<path d="M744.638 258.75C749.795 258.75 753.975 254.62 753.975 249.525C753.975 244.43 749.795 240.3 744.638 240.3C739.481 240.3 735.3 244.43 735.3 249.525C735.3 254.62 739.481 258.75 744.638 258.75Z" stroke="#F6AE9F" stroke-width="6.75" stroke-linejoin="round"/>
<path d="M764.325 249.3C764.325 237.868 755.209 228.6 743.963 228.6C732.717 228.6 723.6 237.868 723.6 249.3C723.6 260.732 732.717 270 743.963 270" stroke="#0E5D37" stroke-width="6.75" stroke-linejoin="round"/>
<path d="M798.975 236.251H807.504C813.232 236.251 817.875 231.819 817.875 226.351C817.875 220.883 813.232 216.451 807.504 216.451H790.446C784.718 216.451 780.075 220.883 780.075 226.351" stroke="#0E5D37" stroke-width="6.75" stroke-linejoin="round"/>
<path d="M764.55 222.075C764.55 211.637 772.975 203.175 783.368 203.175H816.525" stroke="#0E5D37" stroke-width="6.75" stroke-linejoin="round"/>
<path d="M753.863 203.175C753.863 204.131 753.863 216.172 753.863 222.075" stroke="#F6AE9F" stroke-width="6.75" stroke-linejoin="round"/>
<path d="M847.913 146.7C847.913 147.532 847.913 157.996 847.913 163.125" stroke="#F6AE9F" stroke-width="6.75" stroke-linejoin="round"/>
<path d="M873.919 100.238C873.919 105.395 869.785 109.575 864.685 109.575C859.584 109.575 855.45 105.395 855.45 100.238C855.45 95.0809 859.584 90.9004 864.685 90.9004H894.375" stroke="#F6AE9F" stroke-width="6.75" stroke-linejoin="round"/>
<path d="M906.3 120.263V107.134C906.3 103.388 909.323 100.35 913.05 100.35C916.778 100.35 919.8 103.388 919.8 107.134V133.391C919.8 137.138 916.778 140.175 913.05 140.175C909.323 140.175 906.3 137.138 906.3 133.391V130.219" stroke="#CFCFAF" stroke-width="6.75" stroke-linejoin="round"/>
<path d="M894.6 100.35V134.512C894.6 144.723 902.911 153 913.163 153C923.414 153 931.725 144.723 931.725 134.512V126.44" stroke="#89C7AA" stroke-width="6.75" stroke-linejoin="round"/>
<path d="M897.525 69.9751H887.781C880.736 69.9751 875.025 75.717 875.025 82.8001" stroke="#0E5D37" stroke-width="6.75" stroke-linejoin="round"/>
<path d="M906.188 60.3003C906.188 61.6661 906.188 82.4746 906.188 90.9003" stroke="#F6AE9F" stroke-width="6.75" stroke-linejoin="round"/>
<path d="M962.1 110.283V113.25C962.1 117.433 958.686 120.825 954.478 120.825C950.268 120.825 946.854 117.433 946.854 113.25V110.793C946.854 106.641 943.467 103.275 939.291 103.275C935.112 103.275 931.725 106.641 931.725 110.793V113.816" stroke="#89C7AA" stroke-width="6.75" stroke-linejoin="round"/>
<path d="M721.013 171.918C716.353 171.918 712.575 175.693 712.575 180.347C712.575 185.001 716.353 188.775 721.013 188.775C725.673 188.775 729.45 185.001 729.45 180.347V166.95" stroke="#0E5D37" stroke-width="6.75" stroke-linejoin="round"/>
<path d="M730.575 154.575V141.286C730.575 133.633 736.625 127.223 744.75 125.55" stroke="#CFCFAF" stroke-width="6.75" stroke-linejoin="round"/>
<path d="M721.013 135C721.013 133.229 721.013 113.977 721.013 103.05" stroke="#89C7AA" stroke-width="6.75" stroke-linejoin="round"/>
<path d="M742.725 150.273C742.725 144.323 747.56 139.5 753.525 139.5C759.49 139.5 764.325 144.323 764.325 150.273V175.527C764.325 181.477 759.49 186.3 753.525 186.3C747.56 186.3 742.725 181.477 742.725 175.527V150.273Z" stroke="#89C7AA" stroke-width="6.75" stroke-linejoin="round"/>
<path d="M946.8 199.223C946.8 194.324 950.729 190.35 955.575 190.35C960.422 190.35 964.35 194.324 964.35 199.223V209.25" stroke="#F6AE9F" stroke-width="6.75" stroke-linejoin="round"/>
<path d="M982.913 194.4C988.07 194.4 992.25 190.27 992.25 185.175C992.25 180.08 988.07 175.95 982.913 175.95C977.756 175.95 973.575 180.08 973.575 185.175C973.575 190.27 977.756 194.4 982.913 194.4Z" stroke="#F6AE9F" stroke-width="6.75" stroke-linejoin="round"/>
<path d="M964.74 226.013C964.74 230.673 960.975 234.45 956.333 234.45C951.69 234.45 947.925 230.673 947.925 226.013C947.925 221.353 951.69 217.575 956.333 217.575H987.75" stroke="#CFCFAF" stroke-width="6.75" stroke-linejoin="round"/>
<path d="M954.225 163.8H984.862C996.522 163.8 1005.98 173.27 1005.98 184.95C1005.98 196.63 996.522 206.1 984.862 206.1H975.646" stroke="#0E5D37" stroke-width="6.75" stroke-linejoin="round"/>
<path d="M998.775 217.575H1008.48C1018.28 217.575 1026.22 225.552 1026.22 235.394V253.575" stroke="#CFCFAF" stroke-width="6.75" stroke-linejoin="round"/>
<path d="M1008.23 241.425C1011.58 241.425 1014.3 238.755 1014.3 235.463C1014.3 232.17 1011.58 229.5 1008.23 229.5C1004.87 229.5 1002.15 232.17 1002.15 235.463C1002.15 238.755 1004.87 241.425 1008.23 241.425Z" stroke="#0E5D37" stroke-width="6.75" stroke-linejoin="round"/>
<path d="M975.256 255.6C975.26 257.85 975.265 260.1 975.269 262.35" stroke="#89C7AA" stroke-width="6.75" stroke-linejoin="round"/>
<path d="M975.256 242.325C975.26 244.575 975.265 246.825 975.269 249.075" stroke="#CFCFAF" stroke-width="6.75" stroke-linejoin="round"/>
<path d="M933.181 230.851C933.185 233.101 933.19 235.351 933.194 237.601" stroke="#89C7AA" stroke-width="6.75" stroke-linejoin="round"/>
<path d="M933.181 217.575C933.185 219.825 933.19 222.075 933.194 224.325" stroke="#F6AE9F" stroke-width="6.75" stroke-linejoin="round"/>
<path d="M919.681 217.575C919.685 219.825 919.69 222.075 919.694 224.325" stroke="#CFCFAF" stroke-width="6.75" stroke-linejoin="round"/>
<path d="M826.081 199.8C826.085 202.05 826.09 204.3 826.094 206.55" stroke="#0E5D37" stroke-width="6.75" stroke-linejoin="round"/>
<path d="M726.406 204.525C726.411 206.775 726.415 209.025 726.419 211.275" stroke="#F6AE9F" stroke-width="6.75" stroke-linejoin="round"/>
<path d="M756.781 113.625C756.786 115.875 756.79 118.125 756.794 120.375" stroke="#F6AE9F" stroke-width="6.75" stroke-linejoin="round"/>
<path d="M745.756 96.9746C745.76 99.2246 745.765 101.475 745.769 103.725" stroke="#CFCFAF" stroke-width="6.75" stroke-linejoin="round"/>
<path d="M838.906 106.201C838.911 108.451 838.915 110.701 838.919 112.951" stroke="#89C7AA" stroke-width="6.75" stroke-linejoin="round"/>
<path d="M905.956 34.875C905.96 37.125 905.965 39.375 905.969 41.625" stroke="#89C7AA" stroke-width="6.75" stroke-linejoin="round"/>
<path d="M905.956 22.0503C905.96 24.3003 905.965 26.5503 905.969 28.8003" stroke="#0E5D37" stroke-width="6.75" stroke-linejoin="round"/>
<path d="M979.981 142.2C979.986 144.45 979.99 146.7 979.994 148.95" stroke="#0E5D37" stroke-width="6.75" stroke-linejoin="round"/>
<path d="M995.956 142.2C995.96 144.45 995.965 146.7 995.969 148.95" stroke="#0E5D37" stroke-width="6.75" stroke-linejoin="round"/>
<path d="M1011.93 142.2C1011.94 144.45 1011.94 146.7 1011.94 148.95" stroke="#0E5D37" stroke-width="6.75" stroke-linejoin="round"/>
</g>
</g>
<g clip-path="url(#clip3_2082_8751)">
<rect width="360" height="270" transform="translate(1080)" fill="white"/>
<mask id="mask3_2082_8751" style="mask-type:alpha" maskUnits="userSpaceOnUse" x="1080" y="0" width="360" height="270">
<rect x="1080" width="360" height="270" fill="#FAF7F1" fill-opacity="0.15"/>
</mask>
<g mask="url(#mask3_2082_8751)">
<path d="M1446.52 32.1753C1451.25 32.1753 1455.07 28.3977 1455.07 23.7378C1455.07 19.0779 1451.25 15.3003 1446.52 15.3003C1441.8 15.3003 1437.97 19.0779 1437.97 23.7378C1437.97 28.3977 1441.8 32.1753 1446.52 32.1753Z" stroke="#CFCFAF" stroke-width="6.75" stroke-linejoin="round"/>
<path d="M1396.35 217.564V220.939C1398.21 220.939 1399.72 219.428 1399.72 217.564H1396.35ZM1389.6 217.564H1386.22C1386.22 219.428 1387.74 220.939 1389.6 220.939V217.564ZM1432.32 195.448L1435.27 197.095C1436.17 195.468 1435.59 193.412 1433.97 192.502L1432.32 195.448ZM1429.03 201.34L1427.38 204.286C1428.16 204.723 1429.08 204.831 1429.94 204.588C1430.81 204.344 1431.53 203.768 1431.97 202.987L1429.03 201.34ZM1440.47 202.341L1443.11 200.244C1441.95 198.783 1439.83 198.538 1438.37 199.696L1440.47 202.341ZM1445.85 232.875V236.25C1447.71 236.25 1449.22 234.739 1449.22 232.875H1445.85ZM1439.1 232.875H1435.72C1435.72 234.739 1437.24 236.25 1439.1 236.25V232.875ZM1435.18 206.534L1433.08 203.889C1431.62 205.047 1431.37 207.17 1432.53 208.63L1435.18 206.534ZM1399.72 217.564C1399.72 209.451 1407.18 201.825 1417.72 201.825V195.075C1404.04 195.075 1392.97 205.158 1392.97 217.564H1399.72ZM1389.6 220.939H1396.35V214.189H1389.6V220.939ZM1417.72 188.325C1400.96 188.325 1386.22 200.811 1386.22 217.564H1392.97C1392.97 205.154 1404.04 195.075 1417.72 195.075V188.325ZM1433.97 192.502C1429.19 189.835 1423.63 188.325 1417.72 188.325V195.075C1422.47 195.075 1426.91 196.289 1430.67 198.394L1433.97 192.502ZM1431.97 202.987L1435.27 197.095L1429.37 193.801L1426.08 199.693L1431.97 202.987ZM1417.72 201.825C1421.32 201.825 1424.62 202.742 1427.38 204.286L1430.67 198.394C1426.91 196.289 1422.47 195.075 1417.72 195.075V201.825ZM1449.22 217.565C1449.22 211.036 1446.92 205.044 1443.11 200.244L1437.82 204.437C1440.75 208.131 1442.47 212.665 1442.47 217.565H1449.22ZM1449.22 232.875V217.565H1442.47V232.875H1449.22ZM1439.1 236.25H1445.85V229.5H1439.1V236.25ZM1435.72 217.565V232.875H1442.47V217.565H1435.72ZM1432.53 208.63C1434.58 211.216 1435.72 214.293 1435.72 217.565H1442.47C1442.47 212.665 1440.75 208.131 1437.82 204.437L1432.53 208.63ZM1438.37 199.696L1433.08 203.889L1437.27 209.179L1442.56 204.986L1438.37 199.696Z" fill="#F6AE9F"/>
<path d="M1452.15 61.875H1460.37C1465.9 61.875 1470.37 57.5937 1470.37 52.3125C1470.37 47.0313 1465.9 42.75 1460.37 42.75H1443.93C1438.4 42.75 1433.92 47.0313 1433.92 52.3125" stroke="#F6AE9F" stroke-width="6.75" stroke-linejoin="round"/>
<path d="M1442.7 269.101C1442.7 260.527 1449.63 253.576 1458.18 253.576H1485.45" stroke="#CFCFAF" stroke-width="6.75" stroke-linejoin="round"/>
<path d="M1297.99 12.3252L1300.94 13.9719C1301.37 13.1906 1301.48 12.2677 1301.24 11.4064C1300.99 10.5451 1300.42 9.8159 1299.64 9.37916L1297.99 12.3252ZM1314.21 45.001H1317.59C1317.59 43.137 1316.08 41.626 1314.21 41.626V45.001ZM1314.21 51.751V55.126C1316.08 55.126 1317.59 53.6149 1317.59 51.751H1314.21ZM1292.1 9.03172L1293.74 6.08572C1292.12 5.17626 1290.06 5.75797 1289.15 7.385L1292.1 9.03172ZM1298.99 0.882247L1296.89 -1.76273C1295.43 -0.604937 1295.19 1.51783 1296.35 2.97861L1298.99 0.882247ZM1329.52 -4.49951H1332.9C1332.9 -6.36347 1331.39 -7.87451 1329.52 -7.87451V-4.49951ZM1329.52 2.25049V5.62549C1331.39 5.62549 1332.9 4.11445 1332.9 2.25049H1329.52ZM1303.18 6.17219L1300.54 8.26856C1301.7 9.72934 1303.82 9.97496 1305.28 8.81717L1303.18 6.17219ZM1298.47 23.626C1298.47 20.0348 1299.39 16.734 1300.94 13.9719L1295.04 10.6784C1292.94 14.4452 1291.72 18.8796 1291.72 23.626H1298.47ZM1314.21 41.626C1306.1 41.626 1298.47 34.1743 1298.47 23.626H1291.72C1291.72 37.3109 1301.81 48.376 1314.21 48.376V41.626ZM1317.59 51.751V45.001H1310.84V51.751H1317.59ZM1284.97 23.626C1284.97 40.3879 1297.46 55.126 1314.21 55.126V48.376C1301.8 48.376 1291.72 37.3069 1291.72 23.626H1284.97ZM1289.15 7.385C1286.48 12.1564 1284.97 17.7244 1284.97 23.626H1291.72C1291.72 18.8796 1292.94 14.4452 1295.04 10.6784L1289.15 7.385ZM1299.64 9.37916L1293.74 6.08572L1290.45 11.9777L1296.34 15.2712L1299.64 9.37916ZM1314.21 -7.87451C1307.69 -7.87451 1301.69 -5.56714 1296.89 -1.76273L1301.09 3.52722C1304.78 0.599643 1309.31 -1.12451 1314.21 -1.12451V-7.87451ZM1329.52 -7.87451H1314.21V-1.12451H1329.52V-7.87451ZM1332.9 2.25049V-4.49951H1326.15V2.25049H1332.9ZM1314.21 5.62549H1329.52V-1.12451H1314.21V5.62549ZM1305.28 8.81717C1307.87 6.76734 1310.94 5.62549 1314.21 5.62549V-1.12451C1309.31 -1.12451 1304.78 0.599565 1301.09 3.52722L1305.28 8.81717ZM1296.35 2.97861L1300.54 8.26856L1305.83 4.07583L1301.64 -1.21412L1296.35 2.97861Z" fill="#CFCFAF"/>
<path d="M1376.44 250.875H1375.73C1370.72 250.875 1366.65 254.955 1366.65 259.988C1366.65 265.02 1370.72 269.1 1375.73 269.1H1396.72C1401.73 269.1 1405.8 265.02 1405.8 259.988C1405.8 254.955 1401.73 250.875 1396.72 250.875H1396.01" stroke="#0E5D37" stroke-width="6.75" stroke-linejoin="round"/>
<path d="M1296.9 270C1291.06 270 1286.32 265.266 1286.32 259.425C1286.32 253.584 1291.06 248.85 1296.9 248.85" stroke="#89C7AA" stroke-width="6.75" stroke-linejoin="round"/>
<path d="M1387.03 50.175C1391.93 50.175 1395.9 46.2463 1395.9 41.4C1395.9 36.5537 1391.93 32.625 1387.03 32.625H1377" stroke="#F6AE9F" stroke-width="6.75" stroke-linejoin="round"/>
<path d="M1105.42 1.12514L1055.26 1.125C1045.44 1.125 1037.47 9.08315 1037.47 18.9" stroke="#0E5D37" stroke-width="6.75" stroke-linejoin="round"/>
<path d="M1423.12 270V235.782C1423.12 229.082 1417.69 223.65 1410.97 223.65C1404.26 223.65 1398.82 229.082 1398.82 235.782V241.078" stroke="#89C7AA" stroke-width="6.75" stroke-linejoin="round"/>
<path d="M1077.3 90.2251C1088.98 90.2251 1098.45 80.9071 1098.45 69.4126C1098.45 57.9181 1088.98 48.6001 1077.3 48.6001C1065.62 48.6001 1056.15 57.9181 1056.15 69.4126" stroke="#F6AE9F" stroke-width="6.75" stroke-linejoin="round"/>
<path d="M1094.26 22.6127C1094.26 28.0182 1089.91 32.4002 1084.54 32.4002C1079.18 32.4002 1074.82 28.0182 1074.82 22.6127C1074.82 17.2072 1079.18 12.8252 1084.54 12.8252H1103.62" stroke="#CFCFAF" stroke-width="6.75" stroke-linejoin="round"/>
<path d="M1224.9 21.0375V7.90935C1224.9 4.16245 1227.92 1.125 1231.65 1.125C1235.38 1.125 1238.4 4.16245 1238.4 7.90935V34.1657C1238.4 37.9126 1235.38 40.95 1231.65 40.95C1227.92 40.95 1224.9 37.9126 1224.9 34.1657V30.9938" stroke="#F6AE9F" stroke-width="6.75" stroke-linejoin="round"/>
<path d="M1212.3 3.15039V37.3119C1212.3 47.5229 1220.61 55.8004 1230.86 55.8004C1241.11 55.8004 1249.42 47.5229 1249.42 37.3119V29.2408" stroke="#89C7AA" stroke-width="6.75" stroke-linejoin="round"/>
<path d="M1344.6 12.8252H1385.1C1400.51 12.8252 1413 25.3669 1413 40.8377C1413 56.3085 1400.51 68.8502 1385.1 68.8502H1372.91" stroke="#89C7AA" stroke-width="6.75" stroke-linejoin="round"/>
<path d="M1453.27 69.9751V88.4277C1453.27 96.3791 1446.77 102.825 1438.74 102.825H1427.4" stroke="#0E5D37" stroke-width="6.75" stroke-linejoin="round"/>
<path d="M1173.6 81.2251V93.5986C1173.6 102.546 1180.85 109.8 1189.8 109.8" stroke="#89C7AA" stroke-width="6.75" stroke-linejoin="round"/>
<path d="M1148.62 168.751V149.383C1148.62 138.231 1157.36 128.889 1169.1 126.451" stroke="#F6AE9F" stroke-width="6.75" stroke-linejoin="round"/>
<path d="M1372.16 99.1123H1395.86C1409.5 99.1123 1420.93 109.772 1423.91 124.087" stroke="#05203D" stroke-width="6.75"/>
<path d="M1420.65 72.2929C1420.65 66.4152 1425.44 61.6504 1431.34 61.6504C1437.24 61.6504 1442.02 66.4152 1442.02 72.2929V80.0329C1442.02 85.9105 1437.24 90.6754 1431.34 90.6754C1425.44 90.6754 1420.65 85.9105 1420.65 80.0329V72.2929Z" stroke="#89C7AA" stroke-width="6.75" stroke-linejoin="round"/>
<path d="M1199.02 82.8001L1199.02 37.6195C1199.02 28.7723 1191.87 21.6001 1183.05 21.6001" stroke="#F6AE9F" stroke-width="6.75" stroke-linejoin="round"/>
<path d="M1350.22 55.7999C1354.2 55.7999 1357.42 52.5764 1357.42 48.5999C1357.42 44.6235 1354.2 41.3999 1350.22 41.3999C1346.25 41.3999 1343.02 44.6235 1343.02 48.5999C1343.02 52.5764 1346.25 55.7999 1350.22 55.7999Z" stroke="#89C7AA" stroke-width="6.75" stroke-linejoin="round"/>
<path d="M1350.22 68.85C1361.66 68.85 1370.92 59.7334 1370.92 48.4875C1370.92 37.2416 1361.66 28.125 1350.22 28.125C1338.79 28.125 1329.52 37.2416 1329.52 48.4875" stroke="#F6AE9F" stroke-width="6.75" stroke-linejoin="round"/>
<path d="M1315.24 15.0747C1310.58 15.0747 1306.8 18.8522 1306.8 23.5122C1306.8 28.1722 1310.58 31.9497 1315.24 31.9497C1319.9 31.9497 1323.67 28.1722 1323.67 23.5122V15.0747" stroke="#0E5D37" stroke-width="6.75" stroke-linejoin="round"/>
<path d="M1281.94 182.871C1276.53 182.871 1272.15 187.214 1272.15 192.572C1272.15 197.931 1276.53 202.275 1281.94 202.275C1287.34 202.275 1291.72 197.931 1291.72 192.572V162.9" stroke="#CFCFAF" stroke-width="6.75" stroke-linejoin="round"/>
<path d="M1243.76 248.963C1243.76 253.871 1247.7 257.85 1252.56 257.85C1257.41 257.85 1261.35 253.871 1261.35 248.963C1261.35 244.054 1257.41 240.075 1252.56 240.075H1223.1" stroke="#F6AE9F" stroke-width="6.75" stroke-linejoin="round"/>
<path d="M1206.85 252.451H1229.22C1233.79 252.451 1237.5 256.177 1237.5 260.776C1237.5 265.374 1233.79 269.101 1229.22 269.101H1206.85C1202.28 269.101 1198.57 265.374 1198.57 260.776C1198.57 256.177 1202.28 252.451 1206.85 252.451Z" stroke="#CFCFAF" stroke-width="6.75" stroke-linejoin="round"/>
<path d="M1165.27 58.9507C1165.27 70.1345 1156.21 79.2007 1145.02 79.2007C1133.84 79.2007 1124.77 70.1345 1124.77 58.9507" stroke="#F6AE9F" stroke-width="6.75" stroke-linejoin="round"/>
<path d="M1182.82 69.0753V44.3257C1182.82 39.4791 1178.9 35.5503 1174.05 35.5503C1169.2 35.5503 1165.27 39.4791 1165.27 44.3257V48.1566" stroke="#0E5D37" stroke-width="6.75" stroke-linejoin="round"/>
<path d="M1130.85 101.475C1134.2 101.475 1136.92 98.8058 1136.92 95.5128C1136.92 92.2198 1134.2 89.5503 1130.85 89.5503C1127.49 89.5503 1124.77 92.2198 1124.77 95.5128C1124.77 98.8058 1127.49 101.475 1130.85 101.475Z" stroke="#0E5D37" stroke-width="6.75" stroke-linejoin="round"/>
<path d="M1136.02 55.1757V30.3245C1136.02 25.5062 1139.95 21.6001 1144.8 21.6001C1149.65 21.6001 1153.57 25.5062 1153.57 30.3245V55.1757C1153.57 59.994 1149.65 63.9001 1144.8 63.9001C1139.95 63.9001 1136.02 59.994 1136.02 55.1757Z" stroke="#CFCFAF" stroke-width="6.75" stroke-linejoin="round"/>
<path d="M1336.95 69.0752H1317.13C1304.59 69.0752 1294.42 79.2495 1294.42 91.8002" stroke="#F6AE9F" stroke-width="6.75" stroke-linejoin="round"/>
<path d="M1077.19 78.4151C1081.85 78.4151 1085.62 74.6623 1085.62 70.0327C1085.62 65.4032 1081.85 61.6504 1077.19 61.6504C1072.53 61.6504 1068.75 65.4032 1068.75 70.0327V124.65" stroke="#0E5D37" stroke-width="6.75" stroke-linejoin="round"/>
<path d="M1356.64 112.725C1351.73 112.725 1347.75 116.654 1347.75 121.5C1347.75 126.346 1351.73 130.275 1356.64 130.275C1361.55 130.275 1365.52 126.346 1365.52 121.5V112.725" stroke="#F6AE9F" stroke-width="6.75" stroke-linejoin="round"/>
<path d="M1410.97 154.295C1410.97 166.876 1421.3 177.075 1434.04 177.075C1446.77 177.075 1457.1 166.876 1457.1 154.295V129.825" stroke="#89C7AA" stroke-width="6.75" stroke-linejoin="round"/>
<path d="M1398.97 164.925H1397.82C1391.29 164.925 1386 159.636 1386 153.112C1386 146.588 1391.29 141.3 1397.82 141.3H1433.81C1440.33 141.3 1445.62 146.588 1445.62 153.112C1445.62 159.636 1440.33 164.925 1433.81 164.925H1433.45" stroke="#0E5D37" stroke-width="6.75" stroke-linejoin="round"/>
<path d="M1377 112.725H1391.52C1401.27 112.725 1409.17 120.583 1409.17 130.275" stroke="#89C7AA" stroke-width="6.75" stroke-linejoin="round"/>
<path d="M1226.47 201.375C1231.2 201.375 1235.02 197.597 1235.02 192.938C1235.02 188.278 1231.2 184.5 1226.47 184.5C1221.75 184.5 1217.92 188.278 1217.92 192.938C1217.92 197.597 1221.75 201.375 1226.47 201.375Z" stroke="#0E5D37" stroke-width="6.75" stroke-linejoin="round"/>
<path d="M1205.64 187.992C1202.5 199.72 1209.29 211.731 1220.8 214.82C1232.3 217.91 1244.17 210.906 1247.31 199.178C1250.45 187.451 1243.66 175.44 1232.15 172.35" stroke="#CFCFAF" stroke-width="6.75" stroke-linejoin="round"/>
<path d="M1221.22 172.26H1179.54C1171.51 172.256 1164.99 165.618 1164.99 157.433C1164.98 149.247 1171.49 142.615 1179.53 142.619C1187.56 142.623 1194.07 149.261 1194.08 157.446H1180.51V157.446" stroke="#05203D" stroke-width="6.75"/>
<path d="M1220.29 124.2C1220.29 126.216 1220.29 151.59 1220.29 164.025" stroke="#89C7AA" stroke-width="6.75" stroke-linejoin="round"/>
<path d="M1143.68 249.075C1140.07 249.075 1137.15 246.204 1137.15 242.663C1137.15 239.121 1140.07 236.25 1143.68 236.25H1150.65" stroke="#CFCFAF" stroke-width="6.75" stroke-linejoin="round"/>
<path d="M1104.64 258.75C1109.79 258.75 1113.97 254.62 1113.97 249.525C1113.97 244.43 1109.79 240.3 1104.64 240.3C1099.48 240.3 1095.3 244.43 1095.3 249.525C1095.3 254.62 1099.48 258.75 1104.64 258.75Z" stroke="#F6AE9F" stroke-width="6.75" stroke-linejoin="round"/>
<path d="M1124.32 249.3C1124.32 237.868 1115.21 228.6 1103.96 228.6C1092.72 228.6 1083.6 237.868 1083.6 249.3C1083.6 260.732 1092.72 270 1103.96 270" stroke="#0E5D37" stroke-width="6.75" stroke-linejoin="round"/>
<path d="M1158.97 236.251H1167.5C1173.23 236.251 1177.87 231.819 1177.87 226.351C1177.87 220.883 1173.23 216.451 1167.5 216.451H1150.45C1144.72 216.451 1140.07 220.883 1140.07 226.351" stroke="#0E5D37" stroke-width="6.75" stroke-linejoin="round"/>
<path d="M1124.55 222.075C1124.55 211.637 1132.97 203.175 1143.37 203.175H1176.52" stroke="#0E5D37" stroke-width="6.75" stroke-linejoin="round"/>
<path d="M1113.86 203.175C1113.86 204.131 1113.86 216.172 1113.86 222.075" stroke="#F6AE9F" stroke-width="6.75" stroke-linejoin="round"/>
<path d="M1207.91 146.7C1207.91 147.532 1207.91 157.996 1207.91 163.125" stroke="#F6AE9F" stroke-width="6.75" stroke-linejoin="round"/>
<path d="M1233.92 100.238C1233.92 105.395 1229.79 109.575 1224.68 109.575C1219.58 109.575 1215.45 105.395 1215.45 100.238C1215.45 95.0809 1219.58 90.9004 1224.68 90.9004H1254.37" stroke="#F6AE9F" stroke-width="6.75" stroke-linejoin="round"/>
<path d="M1266.3 120.263V107.134C1266.3 103.388 1269.32 100.35 1273.05 100.35C1276.78 100.35 1279.8 103.388 1279.8 107.134V133.391C1279.8 137.138 1276.78 140.175 1273.05 140.175C1269.32 140.175 1266.3 137.138 1266.3 133.391V130.219" stroke="#CFCFAF" stroke-width="6.75" stroke-linejoin="round"/>
<path d="M1254.6 100.35V134.512C1254.6 144.723 1262.91 153 1273.16 153C1283.41 153 1291.72 144.723 1291.72 134.512V126.44" stroke="#89C7AA" stroke-width="6.75" stroke-linejoin="round"/>
<path d="M1257.52 69.9751H1247.78C1240.74 69.9751 1235.02 75.717 1235.02 82.8001" stroke="#0E5D37" stroke-width="6.75" stroke-linejoin="round"/>
<path d="M1266.19 60.3003C1266.19 61.6661 1266.19 82.4746 1266.19 90.9003" stroke="#F6AE9F" stroke-width="6.75" stroke-linejoin="round"/>
<path d="M1322.1 110.283V113.25C1322.1 117.433 1318.69 120.825 1314.48 120.825C1310.27 120.825 1306.85 117.433 1306.85 113.25V110.793C1306.85 106.641 1303.47 103.275 1299.29 103.275C1295.11 103.275 1291.72 106.641 1291.72 110.793V113.816" stroke="#89C7AA" stroke-width="6.75" stroke-linejoin="round"/>
<path d="M1081.01 171.918C1076.35 171.918 1072.57 175.693 1072.57 180.347C1072.57 185.001 1076.35 188.775 1081.01 188.775C1085.67 188.775 1089.45 185.001 1089.45 180.347V166.95" stroke="#0E5D37" stroke-width="6.75" stroke-linejoin="round"/>
<path d="M1090.57 154.575V141.286C1090.57 133.633 1096.62 127.223 1104.75 125.55" stroke="#CFCFAF" stroke-width="6.75" stroke-linejoin="round"/>
<path d="M1081.01 135C1081.01 133.229 1081.01 113.977 1081.01 103.05" stroke="#89C7AA" stroke-width="6.75" stroke-linejoin="round"/>
<path d="M1102.72 150.273C1102.72 144.323 1107.56 139.5 1113.52 139.5C1119.49 139.5 1124.32 144.323 1124.32 150.273V175.527C1124.32 181.477 1119.49 186.3 1113.52 186.3C1107.56 186.3 1102.72 181.477 1102.72 175.527V150.273Z" stroke="#89C7AA" stroke-width="6.75" stroke-linejoin="round"/>
<path d="M1306.8 199.223C1306.8 194.324 1310.73 190.35 1315.57 190.35C1320.42 190.35 1324.35 194.324 1324.35 199.223V209.25" stroke="#F6AE9F" stroke-width="6.75" stroke-linejoin="round"/>
<path d="M1342.91 194.4C1348.07 194.4 1352.25 190.27 1352.25 185.175C1352.25 180.08 1348.07 175.95 1342.91 175.95C1337.76 175.95 1333.57 180.08 1333.57 185.175C1333.57 190.27 1337.76 194.4 1342.91 194.4Z" stroke="#F6AE9F" stroke-width="6.75" stroke-linejoin="round"/>
<path d="M1324.74 226.013C1324.74 230.673 1320.98 234.45 1316.33 234.45C1311.69 234.45 1307.92 230.673 1307.92 226.013C1307.92 221.353 1311.69 217.575 1316.33 217.575H1347.75" stroke="#CFCFAF" stroke-width="6.75" stroke-linejoin="round"/>
<path d="M1314.22 163.8H1344.86C1356.52 163.8 1365.97 173.27 1365.97 184.95C1365.97 196.63 1356.52 206.1 1344.86 206.1H1335.65" stroke="#0E5D37" stroke-width="6.75" stroke-linejoin="round"/>
<path d="M1358.77 217.575H1368.48C1378.28 217.575 1386.22 225.552 1386.22 235.394V253.575" stroke="#CFCFAF" stroke-width="6.75" stroke-linejoin="round"/>
<path d="M1368.22 241.425C1371.58 241.425 1374.3 238.755 1374.3 235.463C1374.3 232.17 1371.58 229.5 1368.22 229.5C1364.87 229.5 1362.15 232.17 1362.15 235.463C1362.15 238.755 1364.87 241.425 1368.22 241.425Z" stroke="#0E5D37" stroke-width="6.75" stroke-linejoin="round"/>
<path d="M1335.26 255.6C1335.26 257.85 1335.26 260.1 1335.27 262.35" stroke="#89C7AA" stroke-width="6.75" stroke-linejoin="round"/>
<path d="M1335.26 242.325C1335.26 244.575 1335.26 246.825 1335.27 249.075" stroke="#CFCFAF" stroke-width="6.75" stroke-linejoin="round"/>
<path d="M1293.18 230.851C1293.19 233.101 1293.19 235.351 1293.19 237.601" stroke="#89C7AA" stroke-width="6.75" stroke-linejoin="round"/>
<path d="M1293.18 217.575C1293.19 219.825 1293.19 222.075 1293.19 224.325" stroke="#F6AE9F" stroke-width="6.75" stroke-linejoin="round"/>
<path d="M1279.68 217.575C1279.69 219.825 1279.69 222.075 1279.69 224.325" stroke="#CFCFAF" stroke-width="6.75" stroke-linejoin="round"/>
<path d="M1186.08 199.8C1186.09 202.05 1186.09 204.3 1186.09 206.55" stroke="#0E5D37" stroke-width="6.75" stroke-linejoin="round"/>
<path d="M1086.41 204.525C1086.41 206.775 1086.41 209.025 1086.42 211.275" stroke="#F6AE9F" stroke-width="6.75" stroke-linejoin="round"/>
<path d="M1116.78 113.625C1116.79 115.875 1116.79 118.125 1116.79 120.375" stroke="#F6AE9F" stroke-width="6.75" stroke-linejoin="round"/>
<path d="M1105.76 96.9746C1105.76 99.2246 1105.76 101.475 1105.77 103.725" stroke="#CFCFAF" stroke-width="6.75" stroke-linejoin="round"/>
<path d="M1198.91 106.201C1198.91 108.451 1198.91 110.701 1198.92 112.951" stroke="#89C7AA" stroke-width="6.75" stroke-linejoin="round"/>
<path d="M1265.96 34.875C1265.96 37.125 1265.96 39.375 1265.97 41.625" stroke="#89C7AA" stroke-width="6.75" stroke-linejoin="round"/>
<path d="M1265.96 22.0503C1265.96 24.3003 1265.96 26.5503 1265.97 28.8003" stroke="#0E5D37" stroke-width="6.75" stroke-linejoin="round"/>
<path d="M1339.98 142.2C1339.99 144.45 1339.99 146.7 1339.99 148.95" stroke="#0E5D37" stroke-width="6.75" stroke-linejoin="round"/>
<path d="M1355.96 142.2C1355.96 144.45 1355.96 146.7 1355.97 148.95" stroke="#0E5D37" stroke-width="6.75" stroke-linejoin="round"/>
<path d="M1371.93 142.2C1371.94 144.45 1371.94 146.7 1371.94 148.95" stroke="#0E5D37" stroke-width="6.75" stroke-linejoin="round"/>
</g>
</g>
<defs>
<clipPath id="clip0_2082_8751">
<rect width="360" height="270" fill="white"/>
</clipPath>
<clipPath id="clip1_2082_8751">
<rect width="360" height="270" fill="white" transform="translate(360)"/>
</clipPath>
<clipPath id="clip2_2082_8751">
<rect width="360" height="270" fill="white" transform="translate(720)"/>
</clipPath>
<clipPath id="clip3_2082_8751">
<rect width="360" height="270" fill="white" transform="translate(1080)"/>
</clipPath>
</defs>
</svg>
