<svg width="300" height="298" viewBox="0 0 300 298" fill="none" xmlns="http://www.w3.org/2000/svg">
<g clip-path="url(#clip0_3088_24784)">
<path d="M255.696 149.615C196.927 115.735 101.956 115.735 43.5664 149.615C-14.8236 183.494 -14.4846 238.504 44.3109 272.41C103.106 306.316 198.05 306.323 256.44 272.41C314.83 238.498 314.491 183.527 255.696 149.615Z" fill="#FAFAFA"/>
<path d="M276.169 240.663C278.057 241.753 278.064 243.52 276.169 244.609L268.458 249.053C267.404 249.591 266.238 249.871 265.055 249.871C263.872 249.871 262.705 249.591 261.651 249.053L177.131 200.274C175.243 199.191 175.23 197.424 177.131 196.335L184.835 191.89C185.89 191.353 187.058 191.073 188.242 191.073C189.426 191.073 190.593 191.353 191.649 191.89L276.169 240.663Z" fill="#F0F0F0"/>
<path d="M252.452 247.665C254.347 248.761 254.353 250.521 252.452 251.61L244.741 256.055C243.686 256.592 242.519 256.872 241.334 256.872C240.15 256.872 238.983 256.592 237.928 256.055L165.738 214.383C163.85 213.294 163.837 211.527 165.738 210.437L173.449 205.993C174.504 205.456 175.671 205.176 176.855 205.176C178.04 205.176 179.207 205.456 180.262 205.993L252.452 247.665Z" fill="#F0F0F0"/>
<path d="M43.7926 244.389C38.6143 241.4 30.2387 241.4 25.0871 244.389C19.9354 247.379 19.9686 252.228 25.1469 255.218C30.3251 258.207 38.7074 258.207 43.8524 255.218C48.9974 252.228 48.9642 247.379 43.7926 244.389Z" fill="#F0F0F0"/>
<path d="M69.7638 237.375C85.7639 228.141 111.642 228.141 127.529 237.375C143.416 246.608 143.343 261.582 127.336 270.815C111.329 280.049 85.4581 280.049 69.571 270.815C53.684 261.582 53.7571 246.608 69.7638 237.375Z" fill="#F0F0F0"/>
<path d="M50.7323 207.747L85.1123 187.911C85.349 187.779 85.5462 187.587 85.6834 187.353C85.8207 187.119 85.8931 186.853 85.8931 186.583C85.8931 186.312 85.8207 186.046 85.6834 185.812C85.5462 185.579 85.349 185.386 85.1123 185.254L54.8138 167.683C54.5824 167.55 54.3199 167.479 54.0527 167.479C53.7855 167.479 53.523 167.55 53.2916 167.683L18.1538 187.958C17.9171 188.09 17.7199 188.282 17.5827 188.516C17.4454 188.749 17.373 189.015 17.373 189.286C17.373 189.557 17.4454 189.823 17.5827 190.057C17.7199 190.29 17.9171 190.483 18.1538 190.615L47.6879 207.767C48.1526 208.03 48.6785 208.167 49.2128 208.164C49.7471 208.16 50.271 208.017 50.7323 207.747Z" fill="#F0F0F0"/>
<path d="M157.747 141.543C149.638 136.893 136.529 136.893 128.499 141.543C120.469 146.193 120.482 153.813 128.592 158.49C136.702 163.166 149.81 163.173 157.84 158.49C165.87 153.806 165.857 146.233 157.747 141.543Z" fill="#F0F0F0"/>
<path d="M90.1175 8.96284L87.5117 7.44824L87.6646 85.3572L90.2704 86.8652L90.1175 8.96284Z" fill="#F0F0F0"/>
<path d="M90.2703 86.8654L87.6646 85.3574L57.6719 102.556L60.2776 104.071L90.2703 86.8654Z" fill="#F5F5F5"/>
<path d="M93.2754 88.5792L57.2934 109.239L57.1206 24.4544L93.1025 3.78809L93.2754 88.5792ZM60.2648 104.071L90.2508 86.8653L90.0979 8.96298L60.1318 26.1617L60.2648 104.071Z" fill="#E0E0E0"/>
<path d="M93.1023 3.79488L90.4966 2.28027L54.5146 22.94L57.1204 24.4546L93.1023 3.79488Z" fill="#F5F5F5"/>
<path d="M57.1204 24.455L54.5146 22.9404L54.6875 107.732L57.2932 109.246L57.1204 24.455Z" fill="#F0F0F0"/>
<path d="M90.2639 37.8798L87.6582 36.3652L60.125 52.1888V55.2047L90.2639 37.8798Z" fill="#F5F5F5"/>
<path d="M90.2639 37.8799L60.125 55.2048V58.6392L90.2706 41.3342L90.2639 37.8799Z" fill="#E0E0E0"/>
<path d="M44.2444 35.3361L41.6387 33.8281L41.7916 111.73L44.3907 113.245L44.2444 35.3361Z" fill="#F0F0F0"/>
<path d="M44.3911 113.245L41.792 111.73L11.7993 128.936L14.4051 130.444L44.3911 113.245Z" fill="#F5F5F5"/>
<path d="M47.4023 114.952L11.4204 135.605L11.2476 50.8208L47.2295 30.1611L47.4023 114.952ZM14.3984 130.444L44.3911 113.245L44.2448 35.336L14.2521 52.5679L14.3984 130.444Z" fill="#E0E0E0"/>
<path d="M47.2293 30.1679L44.6235 28.6533L8.6416 49.313L11.2474 50.8276L47.2293 30.1679Z" fill="#F5F5F5"/>
<path d="M11.2473 50.8281L8.6416 49.3135L8.81443 134.105L11.4202 135.619L11.2473 50.8281Z" fill="#F0F0F0"/>
<path d="M44.3909 64.2531L41.7851 62.7451L14.252 78.5687V81.578L44.3909 64.2531Z" fill="#F5F5F5"/>
<path d="M44.3909 64.2529L14.252 81.5778V85.0123L44.3909 67.7073V64.2529Z" fill="#E0E0E0"/>
<path d="M77.4541 185.414L80.3922 187.114L80.3789 183.72L77.4541 185.414Z" fill="#E6E6E6"/>
<path d="M80.266 150.784L51.6958 167.265L80.266 150.784Z" fill="#CFCFCF"/>
<path d="M80.3856 183.72V187.114L83.4434 185.347L83.3304 145.489L48.5981 165.498L48.7112 205.389L51.7689 203.622V200.227L77.4608 185.427L80.3856 183.72ZM51.6958 167.265L80.2793 150.777L80.3191 163.718L51.7357 180.206L51.6958 167.265ZM51.7423 183.746L80.3258 167.258V167.298L80.3657 180.192L51.7822 196.68L51.7423 183.746Z" fill="#E6E6E6"/>
<path d="M80.3461 180.199L80.3128 167.299V167.259L51.7427 183.747L51.7759 196.681L80.3461 180.199Z" fill="#E0E0E0"/>
<path d="M80.2992 163.718L80.266 150.784L51.6958 167.265L51.729 180.206L80.2992 163.718Z" fill="#E0E0E0"/>
<path d="M48.5983 165.505L18.2666 147.895L18.3796 187.779L48.7113 205.396L48.5983 165.505Z" fill="#E0E0E0"/>
<path d="M48.5983 165.505L83.3372 145.463L53.0055 127.846L18.2666 147.894L48.5983 165.505Z" fill="#E0E0E0"/>
<path d="M77.4541 185.414L80.3922 187.114L80.3789 183.72L77.4541 185.414Z" fill="#E6E6E6"/>
<path d="M80.266 150.784L51.6958 167.265L80.266 150.784Z" fill="#CFCFCF"/>
<path opacity="0.8" d="M80.3461 180.199L80.3128 167.299V167.259L51.7427 183.747L51.7759 196.681L80.3461 180.199Z" fill="white"/>
<path opacity="0.8" d="M80.2992 163.718L80.266 150.784L51.6958 167.265L51.729 180.206L80.2992 163.718Z" fill="white"/>
<path d="M70.9531 160.968L70.9398 159.181L61.042 164.894L61.0553 166.674L70.9531 160.968Z" fill="#E0E0E0"/>
<path d="M70.9531 177.217L70.9398 175.43L61.042 181.136L61.0553 182.923L70.9531 177.217Z" fill="#E0E0E0"/>
<path d="M48.5983 165.505L18.2666 147.895L18.3796 187.779L48.7113 205.396L48.5983 165.505Z" fill="#EBEBEB"/>
<path d="M48.5983 165.505L83.3372 145.463L53.0055 127.846L18.2666 147.894L48.5983 165.505Z" fill="#F0F0F0"/>
<path opacity="0.1" d="M151.1 38.7763C150.606 37.9101 149.875 37.2026 148.993 36.7369C145.749 34.8702 140.504 34.8702 137.28 36.7369C136.405 37.2027 135.683 37.9108 135.2 38.7763C134.389 40.4039 135.093 42.2373 137.32 43.5194C140.564 45.3927 145.809 45.3927 149.033 43.5194C151.246 42.2373 151.931 40.4039 151.1 38.7763Z" fill="black"/>
<path d="M151.433 149.209C151.379 150.385 150.582 151.554 149.033 152.451C145.809 154.324 140.564 154.324 137.32 152.451C135.758 151.554 134.954 150.385 134.881 149.209V151.82C134.881 153.049 135.698 154.278 137.32 155.214C140.564 157.081 145.809 157.081 149.033 155.214C150.648 154.278 151.446 153.049 151.433 151.82V149.209Z" fill="#E0E0E0"/>
<path d="M137.32 152.451C140.564 154.324 145.809 154.324 149.033 152.451C150.582 151.554 151.379 150.385 151.433 149.209C151.455 148.688 151.34 148.171 151.1 147.708C150.606 146.842 149.875 146.134 148.993 145.669C145.749 143.802 140.504 143.802 137.28 145.669C136.404 146.13 135.681 146.836 135.2 147.701C134.966 148.166 134.857 148.683 134.881 149.203C134.954 150.385 135.758 151.548 137.32 152.451Z" fill="#F0F0F0"/>
<path d="M136.902 62.9033H136.656V84.7255H136.902V62.9033Z" fill="#E0E0E0"/>
<path d="M137.373 84.958C137.373 85.0776 137.338 85.1945 137.271 85.2939C137.205 85.3933 137.111 85.4708 137 85.5165C136.889 85.5623 136.768 85.5742 136.65 85.5509C136.533 85.5276 136.425 85.47 136.341 85.3855C136.256 85.3009 136.199 85.1932 136.175 85.076C136.152 84.9587 136.164 84.8371 136.21 84.7267C136.255 84.6162 136.333 84.5218 136.432 84.4554C136.532 84.389 136.649 84.3535 136.768 84.3535C136.929 84.3535 137.083 84.4172 137.196 84.5306C137.31 84.6439 137.373 84.7977 137.373 84.958Z" fill="#F0F0F0"/>
<path d="M144.645 55.0312H141.667V148.345C141.678 148.476 141.724 148.602 141.8 148.71C141.876 148.817 141.98 148.902 142.1 148.956C142.426 149.123 142.787 149.21 143.153 149.21C143.52 149.21 143.881 149.123 144.207 148.956C144.327 148.903 144.43 148.818 144.505 148.71C144.58 148.603 144.624 148.476 144.632 148.345L144.645 55.0312Z" fill="#E0E0E0"/>
<path d="M160.26 59.051C158.352 52.408 151.087 38.7832 151.087 38.7832C151.918 40.4107 151.233 42.2442 149.02 43.5263C145.796 45.3996 140.551 45.3996 137.307 43.5263C135.08 42.2442 134.375 40.4107 135.186 38.7832C135.186 38.7832 127.921 52.4412 126.02 59.051C124.73 62.3725 126.312 65.9597 130.766 68.5305C137.646 72.5163 148.767 72.5163 155.607 68.5305C160.041 65.953 161.583 62.3459 160.26 59.051Z" fill="#F0F0F0"/>
<path d="M151.1 38.7763C150.606 37.9101 149.875 37.2026 148.993 36.7369C145.749 34.8702 140.504 34.8702 137.28 36.7369C136.405 37.2027 135.683 37.9108 135.2 38.7763C134.389 40.4039 135.093 42.2373 137.32 43.5194C140.564 45.3927 145.809 45.3927 149.033 43.5194C151.246 42.2373 151.931 40.4039 151.1 38.7763Z" fill="#E0E0E0"/>
<path opacity="0.05" d="M44.5635 140.401C48.4256 138.176 54.6542 138.176 58.5229 140.401C62.3916 142.627 62.3318 146.234 58.4764 148.459C54.6209 150.685 48.3857 150.685 44.517 148.459C40.6483 146.234 40.7081 142.627 44.5635 140.401Z" fill="black"/>
<path d="M41.2198 126.392L51.8023 126.704L62.3849 126.392C62.8435 133.539 61.4476 140.814 59.5199 144.368C59.0657 145.282 58.3325 146.029 57.426 146.5C54.3017 148.3 49.2564 148.3 46.1255 146.5C45.2054 146.022 44.4692 145.254 44.0316 144.314C42.1438 140.74 40.7678 133.5 41.2198 126.392Z" fill="white"/>
<path d="M44.344 122.061C40.1961 124.459 40.1761 128.332 44.2975 130.696C48.4188 133.061 55.1127 133.095 59.2606 130.696C63.4085 128.298 63.4285 124.425 59.3071 122.061C55.1858 119.696 48.4919 119.662 44.344 122.061Z" fill="#EBEBEB"/>
<path d="M45.9859 123.017C42.7486 124.884 42.7287 127.906 45.946 129.773C49.1633 131.64 54.3881 131.64 57.6187 129.773C60.8493 127.906 60.8759 124.884 57.6586 123.017C54.4413 121.151 49.2165 121.151 45.9859 123.017Z" fill="#E0E0E0"/>
<g opacity="0.15">
<path d="M45.9859 123.017C42.7486 124.884 42.7287 127.906 45.946 129.773C49.1633 131.64 54.3881 131.64 57.6187 129.773C60.8493 127.906 60.8759 124.884 57.6586 123.017C54.4413 121.151 49.2165 121.151 45.9859 123.017Z" fill="black"/>
</g>
<path d="M52.6865 126.69C51.8384 127.402 50.8329 127.901 49.7533 128.148C48.6736 128.394 47.5508 128.379 46.4779 128.105C45.4448 127.791 44.5063 127.224 43.7473 126.456C42.9883 125.689 42.4326 124.744 42.1305 123.708C43.3829 123.11 44.53 122.314 45.5273 121.349C43.9386 120.955 42.271 121.015 40.7147 121.522C40.2844 120.846 40.0268 120.074 39.9642 119.275C39.9016 118.476 40.036 117.674 40.3557 116.939C42.1615 116.136 44.1927 115.994 46.0923 116.54C45.3065 115.858 44.3891 115.344 43.3968 115.029C42.4044 114.715 41.3581 114.608 40.3225 114.713C40.1725 111.682 40.6477 108.652 41.7184 105.812C45.6603 106.011 49.4891 107.711 50.7787 108.934C50.8391 110.345 50.6913 111.757 50.34 113.125C50.8492 112.864 51.2842 112.479 51.6049 112.005C51.9256 111.532 52.1215 110.985 52.1746 110.415C54.6408 111.033 55.6977 112.262 56.0833 113.205C55.7273 114.958 54.9209 116.588 53.7434 117.935C56.0633 117.237 57.0072 114.653 57.0072 114.653C59.254 120.054 58.8153 126.166 52.6865 126.69Z" fill="#F06D06"/>
<path opacity="0.2" d="M52.6865 126.69C51.8384 127.402 50.8329 127.901 49.7533 128.148C48.6736 128.394 47.5508 128.379 46.4779 128.105C45.4448 127.791 44.5063 127.224 43.7473 126.456C42.9883 125.689 42.4326 124.744 42.1305 123.708C43.3829 123.11 44.53 122.314 45.5273 121.349C43.9386 120.955 42.271 121.015 40.7147 121.522C40.2844 120.846 40.0268 120.074 39.9642 119.275C39.9016 118.476 40.036 117.674 40.3557 116.939C42.1615 116.136 44.1927 115.994 46.0923 116.54C45.3065 115.858 44.3891 115.344 43.3968 115.029C42.4044 114.715 41.3581 114.608 40.3225 114.713C40.1725 111.682 40.6477 108.652 41.7184 105.812C45.6603 106.011 49.4891 107.711 50.7787 108.934C50.8391 110.345 50.6913 111.757 50.34 113.125C50.8492 112.864 51.2842 112.479 51.6049 112.005C51.9256 111.532 52.1215 110.985 52.1746 110.415C54.6408 111.033 55.6977 112.262 56.0833 113.205C55.7273 114.958 54.9209 116.588 53.7434 117.935C56.0633 117.237 57.0072 114.653 57.0072 114.653C59.254 120.054 58.8153 126.166 52.6865 126.69Z" fill="black"/>
<path opacity="0.3" d="M52.6865 126.69C51.8384 127.402 50.8329 127.901 49.7533 128.148C48.6736 128.394 47.5508 128.379 46.4779 128.105C45.4448 127.791 44.5063 127.224 43.7473 126.456C42.9883 125.689 42.4326 124.744 42.1305 123.708C43.3829 123.11 44.53 122.314 45.5273 121.349C43.9386 120.955 42.271 121.015 40.7147 121.522C40.2844 120.846 40.0268 120.074 39.9642 119.275C39.9016 118.476 40.036 117.674 40.3557 116.939C42.1615 116.136 44.1927 115.994 46.0923 116.54C45.3065 115.858 44.3891 115.344 43.3968 115.029C42.4044 114.715 41.3581 114.608 40.3225 114.713C40.1725 111.682 40.6477 108.652 41.7184 105.812C45.6603 106.011 49.4891 107.711 50.7787 108.934C50.8391 110.345 50.6913 111.757 50.34 113.125C50.8492 112.864 51.2842 112.479 51.6049 112.005C51.9256 111.532 52.1215 110.985 52.1746 110.415C54.6408 111.033 55.6977 112.262 56.0833 113.205C55.7273 114.958 54.9209 116.588 53.7434 117.935C56.0633 117.237 57.0072 114.653 57.0072 114.653C59.254 120.054 58.8153 126.166 52.6865 126.69Z" fill="white"/>
<path d="M52.8263 127.281C52.856 127.28 52.885 127.272 52.9118 127.259C52.9386 127.246 52.9626 127.228 52.9823 127.206C53.0021 127.184 53.0173 127.158 53.027 127.13C53.0367 127.102 53.0408 127.072 53.039 127.042C52.6601 122.06 49.8084 113.843 43.0148 107.06C42.9725 107.018 42.9151 106.994 42.8553 106.994C42.7955 106.994 42.7381 107.018 42.6958 107.06C42.6739 107.081 42.6564 107.106 42.6445 107.134C42.6326 107.162 42.6265 107.192 42.6265 107.223C42.6265 107.253 42.6326 107.283 42.6445 107.311C42.6564 107.339 42.6739 107.364 42.6958 107.386C49.4029 114.075 52.2147 122.173 52.587 127.075C52.5921 127.134 52.6199 127.189 52.6647 127.227C52.7094 127.265 52.7674 127.285 52.8263 127.281Z" fill="#F5F5F5"/>
<path d="M50.9581 129.361C51.7493 130.005 52.6818 130.454 53.6795 130.671C54.6772 130.887 55.7119 130.865 56.6994 130.606C57.6868 130.347 58.5991 129.858 59.3619 129.18C60.1246 128.502 60.7163 127.653 61.0886 126.703C59.9554 126.188 58.9189 125.483 58.0242 124.617C59.5249 124.259 61.0938 124.305 62.571 124.75C63.0215 124.183 63.319 123.509 63.4354 122.794C63.5518 122.079 63.483 121.346 63.2357 120.665C61.5161 119.958 59.6101 119.844 57.8182 120.339C59.412 119.094 61.4198 118.5 63.4351 118.679C63.78 115.998 63.5211 113.275 62.6773 110.707C58.915 110.933 55.1925 112.487 53.9029 113.59C53.7565 114.83 53.8081 116.086 54.0558 117.31C53.5999 117.095 53.2126 116.757 52.9369 116.335C52.6612 115.913 52.5078 115.423 52.4937 114.919C50.1405 115.49 49.0769 116.593 48.6582 117.423C48.8843 118.967 49.5435 120.416 50.5593 121.602C48.4322 120.997 47.7076 118.718 47.7076 118.718C45.2348 123.515 45.268 128.902 50.9581 129.361Z" fill="#F06D06"/>
<path opacity="0.3" d="M50.9581 129.361C51.7493 130.005 52.6818 130.454 53.6795 130.671C54.6772 130.887 55.7119 130.865 56.6994 130.606C57.6868 130.347 58.5991 129.858 59.3619 129.18C60.1246 128.502 60.7163 127.653 61.0886 126.703C59.9554 126.188 58.9189 125.483 58.0242 124.617C59.5249 124.259 61.0938 124.305 62.571 124.75C63.0215 124.183 63.319 123.509 63.4354 122.794C63.5518 122.079 63.483 121.346 63.2357 120.665C61.5161 119.958 59.6101 119.844 57.8182 120.339C59.412 119.094 61.4198 118.5 63.4351 118.679C63.78 115.998 63.5211 113.275 62.6773 110.707C58.915 110.933 55.1925 112.487 53.9029 113.59C53.7565 114.83 53.8081 116.086 54.0558 117.31C53.5999 117.095 53.2126 116.757 52.9369 116.335C52.6612 115.913 52.5078 115.423 52.4937 114.919C50.1405 115.49 49.0769 116.593 48.6582 117.423C48.8843 118.967 49.5435 120.416 50.5593 121.602C48.4322 120.997 47.7076 118.718 47.7076 118.718C45.2348 123.515 45.268 128.902 50.9581 129.361Z" fill="white"/>
<path d="M50.8052 129.899C50.8598 129.9 50.9128 129.881 50.9543 129.845C50.9959 129.81 51.0232 129.761 51.0312 129.707C51.696 125.369 54.8335 118.174 61.5872 112.162C61.6283 112.118 61.6511 112.06 61.6511 112C61.6511 111.939 61.6283 111.881 61.5872 111.837C61.5437 111.794 61.4852 111.771 61.4243 111.771C61.3634 111.771 61.3049 111.794 61.2614 111.837C54.4214 117.929 51.224 125.243 50.5659 129.653C50.5563 129.712 50.5705 129.773 50.6054 129.821C50.6403 129.87 50.693 129.903 50.752 129.913L50.8052 129.899Z" fill="white"/>
<path d="M47.0166 227.186L34.4732 227.551L21.923 227.186C21.3846 235.655 23.0398 244.278 25.3198 248.496C25.8611 249.579 26.7314 250.462 27.8059 251.021C31.5085 253.16 37.491 253.16 41.167 251.021C42.2577 250.453 43.1313 249.543 43.6531 248.43C45.9198 244.192 47.5551 235.609 47.0166 227.186Z" fill="white"/>
<path d="M43.3139 222.05C48.2263 224.887 48.2529 229.484 43.3737 232.32C38.4946 235.157 30.5444 235.157 25.632 232.32C20.7197 229.484 20.6864 224.887 25.5722 222.05C30.458 219.214 38.4015 219.214 43.3139 222.05Z" fill="#EBEBEB"/>
<path d="M41.3731 223.18C45.2086 225.392 45.2286 228.979 41.413 231.191C37.5975 233.403 31.442 233.403 27.5733 231.191C23.7046 228.979 23.7179 225.392 27.5268 223.18C31.3357 220.967 37.5376 220.967 41.3731 223.18Z" fill="#E0E0E0"/>
<g opacity="0.15">
<path d="M41.3731 223.18C45.2086 225.392 45.2286 228.979 41.413 231.191C37.5975 233.403 31.442 233.403 27.5733 231.191C23.7046 228.979 23.7179 225.392 27.5268 223.18C31.3357 220.967 37.5376 220.967 41.3731 223.18Z" fill="black"/>
</g>
<path d="M55.0995 173.683C26.8285 182.936 26.5692 201.836 32.944 215.321C34.5527 218.051 39.4185 219.513 43.6528 202.772L36.2211 203.696L44.8626 199.311L47.1094 192.595L39.8971 193.133L49.0571 189.28C50.7495 183.962 52.7675 178.753 55.0995 173.683Z" fill="#F06D06"/>
<path opacity="0.2" d="M55.0995 173.683C26.8285 182.936 26.5692 201.836 32.944 215.321C34.5527 218.051 39.4185 219.513 43.6528 202.772L36.2211 203.696L44.8626 199.311L47.1094 192.595L39.8971 193.133L49.0571 189.28C50.7495 183.962 52.7675 178.753 55.0995 173.683Z" fill="black"/>
<path opacity="0.2" d="M55.0995 173.683C26.8285 182.936 26.5692 201.836 32.944 215.321C34.5527 218.051 39.4185 219.513 43.6528 202.772L36.2211 203.696L44.8626 199.311L47.1094 192.595L39.8971 193.133L49.0571 189.28C50.7495 183.962 52.7675 178.753 55.0995 173.683Z" fill="white"/>
<path d="M47.103 178.412C32.1931 189.705 30.8437 202.686 35.0581 216.217C33.5691 204.3 31.9604 192.249 47.103 178.412Z" fill="white"/>
<path d="M7.2124 192.881C35.0779 196.807 38.4548 214.364 34.7655 227.962C33.7219 230.766 29.4477 232.938 22.7073 218.051L29.78 217.699L20.9923 215.042L17.7816 209.163L24.5885 208.465L15.4218 206.399C12.9659 201.729 10.2242 197.214 7.2124 192.881Z" fill="#F06D06"/>
<path opacity="0.2" d="M7.2124 192.881C35.0779 196.807 38.4548 214.364 34.7655 227.962C33.7219 230.766 29.4477 232.938 22.7073 218.051L29.78 217.699L20.9923 215.042L17.7816 209.163L24.5885 208.465L15.4218 206.399C12.9659 201.729 10.2242 197.214 7.2124 192.881Z" fill="white"/>
<path d="M15.4419 195.957C31.2093 204.015 34.6194 215.886 32.9443 229.172C32.346 217.826 31.8475 206.333 15.4419 195.957Z" fill="white"/>
<path opacity="0.1" d="M7.2124 192.881C35.0779 196.807 38.4548 214.364 34.7655 227.962C33.7219 230.766 29.4477 232.938 22.7073 218.051L29.78 217.699L20.9923 215.042L17.7816 209.163L24.5885 208.465L15.4218 206.399C12.9659 201.729 10.2242 197.214 7.2124 192.881Z" fill="black"/>
<path d="M63.2561 199.464C37.6971 199.882 32.6784 215.334 34.4931 228.029C35.118 230.686 38.7408 233.104 46.4583 220.442L40.1367 219.306L48.3528 217.905L51.9025 212.969L45.8468 211.574L54.342 210.737C57.0797 206.801 60.0566 203.036 63.2561 199.464Z" fill="#F06D06"/>
<path d="M55.4917 201.317C40.3757 206.811 35.9819 217.114 35.9951 229.271C37.8032 219.134 39.5448 208.831 55.4917 201.317Z" fill="white"/>
<path opacity="0.2" d="M63.2561 199.464C37.6971 199.882 32.6784 215.334 34.4931 228.029C35.118 230.686 38.7408 233.104 46.4583 220.442L40.1367 219.306L48.3528 217.905L51.9025 212.969L45.8468 211.574L54.342 210.737C57.0797 206.801 60.0566 203.036 63.2561 199.464Z" fill="white"/>
<path d="M277.459 49.9107C276.776 48.5147 275.687 47.3572 274.335 46.5892L193.071 0.387222C192.691 0.24223 192.288 0.163586 191.881 0.154717C187.694 0.0683582 183.493 4.00765 182.901 6.07362C182.767 6.33465 182.696 6.62375 182.695 6.91728V182.518C182.694 183.889 183.057 185.235 183.746 186.421C184.435 187.606 185.425 188.588 186.617 189.267L267.887 235.549C267.988 235.598 268.092 235.64 268.199 235.675C273.045 237.728 278.21 233.457 278.21 228.986V53.3385C278.224 52.1536 277.968 50.9812 277.459 49.9107Z" fill="#37474F"/>
<path d="M182.928 6.06704C183.52 4.00107 187.721 0.0883514 191.909 0.148138C192.309 0.159262 192.705 0.237869 193.079 0.380643L274.309 46.5893C275.505 47.2691 276.502 48.2496 277.202 49.4336C277.901 50.6175 278.279 51.9637 278.297 53.3386V229.006C278.297 233.477 273.132 237.748 268.286 235.695C268.18 235.66 268.075 235.618 267.974 235.569L186.644 189.267C185.452 188.588 184.462 187.606 183.773 186.421C183.084 185.235 182.722 183.889 182.722 182.518V6.92399C182.721 6.62597 182.792 6.33207 182.928 6.06704Z" fill="#455A64"/>
<path d="M266.929 71.9053C266.936 71.2199 266.761 70.5451 266.422 69.9491C266.084 69.353 265.594 68.8569 265.002 68.5107L189.508 25.6302C189.212 25.4627 188.878 25.3757 188.538 25.378C188.198 25.3803 187.864 25.4718 187.571 25.6433C187.277 25.8148 187.034 26.0603 186.866 26.3553C186.697 26.6503 186.609 26.9844 186.61 27.3242V168.966C186.608 169.65 186.787 170.323 187.129 170.915C187.471 171.508 187.964 172 188.558 172.341L264.025 215.321C264.32 215.49 264.655 215.578 264.995 215.577C265.335 215.576 265.67 215.485 265.964 215.314C266.258 215.143 266.502 214.898 266.672 214.603C266.841 214.308 266.93 213.974 266.929 213.633V71.9053Z" fill="#00A661"/>
<path opacity="0.2" d="M266.929 71.9053C266.936 71.2199 266.761 70.5451 266.422 69.9491C266.084 69.353 265.594 68.8569 265.002 68.5107L189.508 25.6302C189.212 25.4627 188.878 25.3757 188.538 25.378C188.198 25.3803 187.864 25.4718 187.571 25.6433C187.277 25.8148 187.034 26.0603 186.866 26.3553C186.697 26.6503 186.609 26.9844 186.61 27.3242V168.966C186.608 169.65 186.787 170.323 187.129 170.915C187.471 171.508 187.964 172 188.558 172.341L264.025 215.321C264.32 215.49 264.655 215.578 264.995 215.577C265.335 215.576 265.67 215.485 265.964 215.314C266.258 215.143 266.502 214.898 266.672 214.603C266.841 214.308 266.93 213.974 266.929 213.633V71.9053Z" fill="black"/>
<path opacity="0.3" d="M278.297 53.3381V229.005C278.297 233.476 273.132 237.747 268.286 235.695C268.577 235.8 268.89 235.834 269.198 235.793C269.506 235.753 269.799 235.638 270.053 235.461C270.307 235.283 270.515 235.046 270.658 234.772C270.802 234.497 270.877 234.191 270.878 233.881V58.1942C270.87 56.6637 270.407 55.1702 269.549 53.9028L277.525 49.917C278.04 50.9838 278.304 52.1539 278.297 53.3381Z" fill="black"/>
<path opacity="0.1" d="M191.881 0.155131C192.281 0.166254 192.677 0.244861 193.051 0.387635L274.308 46.5896C275.66 47.3575 276.749 48.5151 277.432 49.9111L269.455 53.8969C268.791 52.8826 267.896 52.0402 266.843 51.439L185.626 5.23702C185.396 5.10666 185.142 5.02465 184.879 4.99601C184.616 4.96737 184.35 4.99271 184.097 5.07046C183.845 5.14822 183.611 5.27675 183.409 5.44818C183.208 5.61961 183.044 5.83033 182.927 6.06739C183.512 4.00806 187.713 0.0887008 191.881 0.155131Z" fill="white"/>
<path d="M216.756 34.2471C216.184 33.9149 215.712 34.174 215.706 34.8317C215.727 35.1913 215.833 35.541 216.014 35.8524C216.195 36.1639 216.447 36.4286 216.749 36.6253L232.703 45.8258C233.274 46.158 233.733 45.879 233.74 45.2213C233.72 44.8654 233.617 44.5191 233.438 44.2109C233.259 43.9026 233.009 43.641 232.709 43.4476L216.756 34.2471Z" fill="#263238"/>
<path d="M236.791 45.8053C236.219 45.4798 235.76 45.7389 235.76 46.3965C235.776 46.7551 235.878 47.1048 236.056 47.4167C236.234 47.7285 236.483 47.9936 236.784 48.1901C237.356 48.5156 237.828 48.2499 237.828 47.5922C237.808 47.2337 237.704 46.8848 237.524 46.5742C237.344 46.2636 237.092 46.0001 236.791 45.8053Z" fill="#263238"/>
<path d="M226.587 32.9117C225.443 32.2474 224.526 32.7722 224.52 34.0875C224.556 34.8027 224.762 35.4992 225.118 36.1202C225.475 36.7412 225.974 37.2693 226.574 37.6615C227.71 38.3258 228.661 37.781 228.661 36.4724C228.62 35.7577 228.411 35.0627 228.05 34.444C227.69 33.8254 227.188 33.3004 226.587 32.9117Z" fill="#263238"/>
<path d="M226.581 198.282C224.261 196.954 222.386 198.01 222.379 200.674C222.448 202.135 222.862 203.559 223.587 204.829C224.313 206.099 225.33 207.179 226.554 207.981C228.874 209.31 230.802 208.22 230.808 205.556C230.725 204.097 230.299 202.678 229.564 201.414C228.83 200.15 227.808 199.077 226.581 198.282Z" fill="#263238"/>
<path d="M254.173 76.7478C254.08 76.502 253.974 76.2562 253.861 76.017C253.398 75.072 252.733 74.2399 251.913 73.5791C251.631 73.3586 251.333 73.1588 251.023 72.9812L177.257 31.044C177.136 30.9895 177.009 30.9494 176.878 30.9244C176.659 30.8786 176.437 30.8498 176.214 30.8381C173.841 30.7916 171.461 32.1667 169.879 33.6613C169.079 34.3551 168.457 35.2296 168.064 36.2122C168.01 36.3302 167.965 36.4524 167.931 36.5776C167.896 36.7099 167.878 36.846 167.878 36.9828V196.368C167.877 197.612 168.208 198.834 168.835 199.909C168.99 200.174 169.16 200.429 169.347 200.673C169.918 201.411 170.63 202.03 171.441 202.493L245.226 244.497C245.317 244.542 245.41 244.582 245.505 244.616C245.505 244.616 245.505 244.616 245.538 244.616C249.939 246.476 254.625 242.623 254.625 238.538V79.1392C254.614 78.3219 254.462 77.5127 254.173 76.7478Z" fill="#0E5D37"/>
<path d="M168.051 36.2124C168.589 34.3324 172.405 30.7585 176.2 30.8382C176.566 30.8453 176.928 30.9149 177.271 31.0442L251.056 72.9814C252.134 73.604 253.03 74.4974 253.656 75.5729C254.282 76.6483 254.617 77.8686 254.625 79.1129V238.571C254.625 242.637 249.972 246.51 245.539 244.65C245.539 244.65 245.539 244.65 245.505 244.65C245.41 244.615 245.317 244.575 245.226 244.53L171.441 202.526C170.36 201.91 169.461 201.018 168.835 199.943C168.21 198.867 167.879 197.646 167.878 196.402V36.983C167.876 36.7163 167.935 36.4526 168.051 36.2124Z" fill="#0E5D37"/>
<path opacity="0.2" d="M254.592 79.1394V238.571C254.592 242.637 249.939 246.509 245.505 244.649C245.505 244.649 245.505 244.649 245.472 244.649C245.738 244.745 246.022 244.776 246.302 244.739C246.581 244.702 246.848 244.598 247.079 244.437C247.311 244.275 247.5 244.061 247.631 243.811C247.762 243.561 247.831 243.284 247.832 243.002V83.5702C247.826 82.1831 247.41 80.8286 246.635 79.6774L253.861 76.0703C254.334 77.0247 254.584 78.0742 254.592 79.1394Z" fill="white"/>
<path opacity="0.4" d="M176.194 30.8382C176.56 30.8453 176.922 30.9149 177.264 31.0442L251.049 72.9813C252.279 73.6856 253.268 74.7434 253.888 76.0172L246.662 79.6243C246.059 78.7029 245.246 77.9379 244.289 77.3923L170.504 35.4485C170.294 35.3309 170.062 35.2573 169.823 35.2323C169.584 35.2072 169.342 35.2311 169.113 35.3027C168.883 35.3742 168.67 35.4917 168.488 35.6481C168.305 35.8046 168.157 35.9966 168.051 36.2124C168.616 34.3324 172.398 30.7585 176.194 30.8382Z" fill="white"/>
<path opacity="0.3" d="M168.051 36.2124C168.589 34.3324 172.405 30.7585 176.2 30.8382C176.566 30.8453 176.928 30.9149 177.271 31.0442L251.056 72.9814C252.134 73.604 253.03 74.4974 253.656 75.5729C254.282 76.6483 254.617 77.8686 254.625 79.1129V238.571C254.625 242.637 249.972 246.51 245.539 244.65C245.539 244.65 245.539 244.65 245.505 244.65C245.41 244.615 245.317 244.575 245.226 244.53L171.441 202.526C170.36 201.91 169.461 201.018 168.835 199.943C168.21 198.867 167.879 197.646 167.878 196.402V36.983C167.876 36.7163 167.935 36.4526 168.051 36.2124Z" fill="white"/>
<path d="M240.261 112.427L174.519 74.4892C173.887 74.1238 173.375 74.4161 173.375 75.1535L173.269 149.203C173.288 149.602 173.402 149.99 173.601 150.337C173.799 150.683 174.078 150.978 174.412 151.196L240.148 189.127C240.779 189.486 241.291 189.2 241.298 188.463L241.391 114.407C241.372 114.011 241.261 113.625 241.064 113.281C240.868 112.937 240.592 112.644 240.261 112.427Z" fill="#0E5D37"/>
<path d="M177.53 49.884L178.314 50.3357L178.321 46.981L177.536 46.5293L177.53 49.884Z" fill="white"/>
<path d="M176.187 49.1068L176.965 49.5586L176.971 46.8482L176.194 46.3965L176.187 49.1068Z" fill="white"/>
<path d="M174.838 48.3361L175.622 48.7878L175.629 46.7683L174.845 46.3232L174.838 48.3361Z" fill="white"/>
<path d="M173.495 47.5583L174.279 48.01V46.6548L173.502 46.2031L173.495 47.5583Z" fill="white"/>
<path d="M180.435 51.5647L185.221 54.3215L185.227 51.5049L180.441 48.748L180.435 51.5647Z" fill="white"/>
<path d="M187.601 55.6965L189.987 57.0783L190 54.255L187.607 52.8799L187.601 55.6965Z" fill="white"/>
<path d="M236.963 83.8227L236.97 81.5508L239.536 83.0322L236.97 81.5508L236.963 83.8227Z" fill="white"/>
<path d="M236.963 83.8227L239.529 85.3041L239.536 83.0322L236.97 81.5508L236.963 83.8227Z" fill="#0E5D37"/>
<path d="M241.344 84.4535V83.5633L236.498 80.7666V84.0881L241.344 86.8848V86.0013L241.962 86.36V84.779L241.344 84.4535ZM239.536 85.337L236.963 83.8556V81.5837L239.536 83.0651V85.337Z" fill="white"/>
<path d="M229.552 79.844L234.331 82.6008L234.338 79.7908L229.558 77.0273L229.552 79.844Z" fill="white"/>
<path d="M206.725 66.511L211.504 69.2678L211.511 66.4512L206.731 63.6943L206.725 66.511Z" fill="white"/>
<path d="M195.537 186.258L195.531 189.061L207.788 196.136L207.795 193.333L195.537 186.258Z" fill="#0E5D37"/>
<path d="M213.418 187.387L200.795 180.106L200.789 182.91L213.412 190.191L213.418 187.387Z" fill="#0E5D37"/>
<path d="M174.426 172.075L189.914 181.076L189.927 178.273L174.432 169.271L174.426 172.075Z" fill="#0E5D37"/>
<path d="M197.405 178.147L174.446 164.834L174.439 167.644L197.399 180.95L197.405 178.147Z" fill="#0E5D37"/>
<path d="M193.304 183.029L221.262 199.165L221.269 196.355L193.31 180.226L193.304 183.029Z" fill="#0E5D37"/>
<path d="M192.56 184.537L174.446 174.088L174.439 176.891L192.553 187.341L192.56 184.537Z" fill="#0E5D37"/>
<path d="M216.663 192.07L239.011 204.964L239.018 202.161L216.669 189.267L216.663 192.07Z" fill="#0E5D37"/>
<path d="M224.52 201.045L238.997 209.396L239.011 206.592L224.526 198.235L224.52 201.045Z" fill="#0E5D37"/>
<path d="M174.439 186.537L202.398 202.666L202.404 199.863L174.446 183.733L174.439 186.537Z" fill="#0E5D37"/>
<path d="M174.446 190.363L174.439 193.167L192.56 203.616V200.806L174.446 190.363Z" fill="#0E5D37"/>
<path d="M206.539 208.877L195.498 202.506V205.316L206.532 211.68L206.539 208.877Z" fill="#0E5D37"/>
<path d="M176.114 155.986C175.945 155.861 175.745 155.785 175.536 155.764C175.326 155.743 175.115 155.778 174.924 155.866C174.26 156.238 174.26 157.454 174.924 158.583L175.303 159.248L177.67 163.34L180.049 162.011L180.435 161.792C181.1 161.42 181.1 160.198 180.435 159.068C180.155 158.55 179.748 158.111 179.252 157.793C179.081 157.671 178.881 157.597 178.673 157.576C178.464 157.555 178.254 157.588 178.062 157.673L177.676 157.892L177.297 157.228C177.016 156.72 176.609 156.292 176.114 155.986Z" fill="white"/>
<path d="M185.978 161.812C186.828 162.364 187.536 163.109 188.043 163.986C188.55 164.864 188.843 165.848 188.897 166.86C188.915 167.372 188.776 167.878 188.498 168.308L188.883 170.215L187.421 168.926C186.905 168.944 186.396 168.808 185.958 168.534C185.11 167.981 184.404 167.236 183.898 166.358C183.392 165.481 183.1 164.497 183.047 163.486C183.054 161.626 184.363 160.882 185.978 161.812Z" fill="white"/>
<path d="M211.012 102.223L214.416 108.435L219.355 110.149L221.442 116.612L226.434 120.166L227.006 126.245L231.566 131.293L230.569 136.388L234.251 142.44L231.778 146.061L234.225 152.511L230.515 154.298L231.486 160.529L226.913 160.31L226.301 165.704L221.309 163.505L219.188 167.537L214.263 163.558L210.833 165.83L206.459 160.476L202.065 160.768L198.661 154.557L193.729 152.843L191.642 146.386L186.65 142.825L186.078 136.754L181.511 131.698L182.515 126.603L178.833 120.552L181.305 116.938L178.859 110.481L182.562 108.687L181.598 102.463L186.171 102.682L186.776 97.2878L191.775 99.4932L193.889 95.4609L198.821 99.4334L202.244 97.1615L206.625 102.516L211.012 102.223Z" fill="#0E5D37"/>
<g opacity="0.4">
<path d="M211.012 102.223L214.416 108.435L219.355 110.149L221.442 116.612L226.434 120.166L227.006 126.245L231.566 131.293L230.569 136.388L234.251 142.44L231.778 146.061L234.225 152.511L230.515 154.298L231.486 160.529L226.913 160.31L226.301 165.704L221.309 163.505L219.188 167.537L214.263 163.558L210.833 165.83L206.459 160.476L202.065 160.768L198.661 154.557L193.729 152.843L191.642 146.386L186.65 142.825L186.078 136.754L181.511 131.698L182.515 126.603L178.833 120.552L181.305 116.938L178.859 110.481L182.562 108.687L181.598 102.463L186.171 102.682L186.776 97.2878L191.775 99.4932L193.889 95.4609L198.821 99.4334L202.244 97.1615L206.625 102.516L211.012 102.223Z" fill="white"/>
</g>
<path d="M206.612 107.246C218.271 113.975 227.69 130.284 227.651 143.676C227.611 157.069 218.132 162.463 206.505 155.74C194.879 149.017 185.427 132.702 185.46 119.316C185.493 105.931 194.946 100.523 206.612 107.246Z" fill="#0E5D37"/>
<g opacity="0.2">
<path d="M206.612 107.246C218.271 113.975 227.69 130.284 227.651 143.676C227.611 157.069 218.132 162.463 206.505 155.74C194.879 149.017 185.427 132.702 185.46 119.316C185.493 105.931 194.946 100.523 206.612 107.246Z" fill="white"/>
</g>
<path d="M220.97 128.297C221.482 128.59 221.788 129.553 221.329 129.719C217.134 131.247 208.247 134.907 202.823 140.168C202.632 140.315 202.398 140.394 202.158 140.394C201.918 140.394 201.684 140.315 201.493 140.168C200.916 139.817 200.453 139.304 200.164 138.694C197.673 133.683 194.883 128.827 191.808 124.152C191.25 123.302 191.609 122.498 192.273 122.883C192.328 122.914 192.379 122.949 192.426 122.99C195.777 125.805 198.711 129.082 201.141 132.722C209.357 127.447 216.815 127.587 220.751 128.218C220.828 128.231 220.902 128.258 220.97 128.297Z" fill="white"/>
<path d="M178.892 63.9801C180.129 64.7842 181.157 65.8688 181.894 67.1457C182.631 68.4225 183.056 69.8553 183.133 71.3273C183.133 74.0243 181.212 75.1138 178.866 73.7586C177.625 72.9575 176.591 71.8741 175.849 70.5971C175.107 69.3201 174.679 67.8858 174.598 66.4114C174.631 63.7144 176.539 62.6249 178.892 63.9801Z" fill="white"/>
<path d="M209.975 85.0713L187.015 71.7588L187.009 74.5621L209.962 87.8747L209.975 85.0713Z" fill="white"/>
<path d="M107.534 89.8008H108.198C112.519 89.8539 117.977 92.7901 120.649 100.323L131.025 120.398L119.16 125.64L112.679 106.687L107.534 89.8008Z" fill="#FFA8A7"/>
<path d="M115.849 103.134C116.674 105.505 116.727 108.063 116.86 110.567C116.993 113.072 117.279 116.107 118.429 118.339C119.694 117.464 121.21 117.022 122.748 117.078C124.286 117.134 125.765 117.686 126.964 118.652C127.824 119.372 128.486 120.3 128.885 121.349L119.16 125.64L112.679 106.688L109.495 96.2383C110.96 96.907 112.277 97.8613 113.368 99.0454C114.459 100.23 115.303 101.619 115.849 103.134Z" fill="#F28F8F"/>
<path d="M119.054 122.033C119.504 120.915 120.232 119.93 121.17 119.172C122.107 118.414 123.223 117.908 124.411 117.702C126.778 117.323 129.47 118.559 131.006 120.406C132.295 121.967 132.096 124.079 131.278 125.933C130.597 127.374 129.437 128.534 127.996 129.216C126.555 129.898 124.921 130.059 123.374 129.673C120.317 128.822 117.897 124.976 119.054 122.033Z" fill="#FFA8A7"/>
<path d="M81.3433 251.485C81.0793 252.016 80.6684 252.461 80.1595 252.766C79.6505 253.071 79.0648 253.223 78.4716 253.206C77.9451 253.105 77.4542 252.868 77.0482 252.519C76.6422 252.169 76.3353 251.719 76.1584 251.213C75.8081 250.208 75.648 249.147 75.6864 248.084C75.6155 244.541 75.6997 241.011 75.939 237.495C78.3718 238.008 80.8513 238.266 83.3375 238.266L82.2008 248.064C82.1406 249.249 81.8493 250.412 81.3433 251.485Z" fill="#FFA8A7"/>
<path d="M73.6192 246.403C74.5365 243.46 75.5402 240.424 75.3275 237.375L75.9391 237.521C75.6998 241.042 75.6156 244.572 75.6865 248.11C75.6481 249.173 75.8081 250.234 76.1584 251.239C76.3354 251.745 76.6423 252.195 77.0483 252.545C77.4543 252.894 77.9451 253.131 78.4717 253.232C79.0648 253.249 79.6506 253.097 80.1595 252.792C80.6685 252.487 81.0793 252.042 81.3433 251.511C81.8493 250.438 82.1406 249.275 82.2008 248.09L83.3375 238.318H84.1219C83.4572 241.972 83.9291 245.725 84.1618 249.439C84.3945 253.152 84.3546 257.018 82.7592 260.373C82.3905 261.279 81.7613 262.056 80.9511 262.605C80.5051 262.846 80.0146 262.994 79.5094 263.04C79.0043 263.086 78.4952 263.028 78.013 262.871C77.0514 262.548 76.1777 262.007 75.4605 261.29C73.8342 259.733 72.7508 257.695 72.3695 255.477C71.851 252.428 72.7018 249.339 73.6192 246.403Z" fill="#455A64"/>
<path d="M112.167 243.586L111.562 247.226C108.671 245.844 107.74 244.297 107.74 244.297C107.667 241.507 107.7 238.63 107.74 237.229C108.511 238.929 110.193 240.078 111.243 241.646C111.63 242.252 111.94 242.904 112.167 243.586Z" fill="#455A64"/>
<path d="M113.098 246.828L111.562 247.226L112.167 243.586C112.546 244.629 112.778 245.745 113.098 246.828Z" fill="#455A64"/>
<path opacity="0.2" d="M112.167 243.586L111.562 247.226C108.671 245.844 107.74 244.297 107.74 244.297C107.667 241.507 107.7 238.63 107.74 237.229C108.511 238.929 110.193 240.078 111.243 241.646C111.63 242.252 111.94 242.904 112.167 243.586Z" fill="black"/>
<path opacity="0.3" d="M113.098 246.828L111.562 247.226L112.167 243.586C112.546 244.629 112.778 245.745 113.098 246.828Z" fill="black"/>
<path d="M107.58 233.19C107.886 232.227 108.287 231.297 108.777 230.413C108.819 231.909 109.279 233.364 110.106 234.611C111.143 236.285 112.532 237.727 113.536 239.434C114.753 241.507 115.384 243.945 116.979 245.738C117.767 246.607 118.745 247.281 119.838 247.706C120.93 248.132 122.107 248.297 123.274 248.19C124.151 248.158 124.981 247.786 125.588 247.153C125.831 246.839 125.964 246.454 125.967 246.057C126.753 246.901 127.624 247.662 128.566 248.329C129.616 249.06 130.879 249.831 131.052 251.099C131.079 251.63 130.951 252.157 130.683 252.616C130.415 253.075 130.019 253.446 129.543 253.683C128.579 254.13 127.528 254.357 126.465 254.348C124.191 254.546 121.899 254.351 119.692 253.77C117.474 253.166 115.554 251.772 114.294 249.85C113.753 248.894 113.346 247.868 113.084 246.801C112.785 245.719 112.532 244.603 112.154 243.56C111.92 242.877 111.603 242.225 111.21 241.62C110.159 240.052 108.478 238.903 107.706 237.202C107.667 237.109 107.62 237.023 107.58 236.93C107.187 235.714 107.187 234.406 107.58 233.19Z" fill="#455A64"/>
<path d="M123.288 248.19C122.12 248.297 120.944 248.132 119.851 247.706C118.758 247.281 117.78 246.607 116.993 245.739C115.397 243.945 114.766 241.507 113.55 239.434C112.546 237.727 111.156 236.286 110.12 234.612C109.293 233.364 108.832 231.909 108.79 230.413L109.169 229.709C112.313 230.267 115.756 230.466 118.781 231.489C119.713 234.666 120.9 237.763 122.331 240.75C123.3 242.682 124.533 244.47 125.993 246.064C125.99 246.461 125.857 246.846 125.614 247.16C125.003 247.793 124.168 248.163 123.288 248.19Z" fill="#FFA8A7"/>
<path d="M114.773 117.071C114.945 119.728 115.116 122.385 115.284 125.042C121.3 149.827 119.506 186.855 119.506 186.855L119.319 232.027C118.467 232.586 117.512 232.97 116.51 233.156C115.507 233.341 114.478 233.326 113.482 233.11C112.486 232.894 111.543 232.483 110.707 231.899C109.872 231.315 109.162 230.57 108.617 229.709C107.594 218.609 102.429 201.144 103.964 187.533C101.884 176.791 100.335 161.512 100.335 161.512L95.2761 187.938L84.7401 238.936C80.087 240.929 75.959 239.561 74.6162 237.754C75.6931 209.621 75.2344 196.096 79.5751 183.089C78.2456 148.193 77.8202 132.422 86.3288 120.432L86.2224 115.901L114.773 117.071Z" fill="#F06D06"/>
<path opacity="0.3" d="M114.773 117.071C114.945 119.728 115.116 122.385 115.284 125.042C121.3 149.827 119.506 186.855 119.506 186.855L119.319 232.027C118.467 232.586 117.512 232.97 116.51 233.156C115.507 233.341 114.478 233.326 113.482 233.11C112.486 232.894 111.543 232.483 110.707 231.899C109.872 231.315 109.162 230.57 108.617 229.709C107.594 218.609 102.429 201.144 103.964 187.533C101.884 176.791 100.335 161.512 100.335 161.512L95.2761 187.938L84.7401 238.936C80.087 240.929 75.959 239.561 74.6162 237.754C75.6931 209.621 75.2344 196.096 79.5751 183.089C78.2456 148.193 77.8202 132.422 86.3288 120.432L86.2224 115.901L114.773 117.071Z" fill="black"/>
<path opacity="0.2" d="M101.478 155.62C104.628 155.05 107.593 153.726 110.119 151.761C109.636 153.158 108.802 154.409 107.698 155.394C106.594 156.379 105.256 157.065 103.811 157.387L101.152 168.401L100.354 161.586L101.478 155.62Z" fill="black"/>
<path d="M104.27 89.3359L107.321 89.5618C107.908 89.6053 108.477 89.7808 108.986 90.0753C109.494 90.3699 109.93 90.7757 110.259 91.2624L117.306 101.692C118.342 103.217 118.851 105.04 118.754 106.881C118.656 108.722 117.959 110.481 116.767 111.889C116.321 112.414 115.991 113.026 115.796 113.686C115.601 114.346 115.547 115.04 115.637 115.722L118.043 139.524C104.19 149.8 85.2987 143.636 78.9971 140.281C79.2364 135.119 81.4233 128.39 84.0424 123.793C84.8814 122.332 85.421 120.718 85.6299 119.046C85.8387 117.374 85.7126 115.677 85.2589 114.055L83.2647 106.9L86.1496 89.8674L104.27 89.3359Z" fill="#455A64"/>
<path d="M115.803 65.1885C116.043 66.4706 117.053 70.3302 116.043 72.4958C115.557 73.5254 115.012 74.1499 115.378 75.2327C115.743 76.3155 117.266 76.9399 117.472 78.1357C117.645 79.0989 116.887 79.9359 116.421 80.7929C116.094 81.4032 115.907 82.0783 115.871 82.7697C115.836 83.4612 115.954 84.1519 116.217 84.7924C116.48 85.4329 116.881 86.0074 117.392 86.4747C117.903 86.9421 118.512 87.2907 119.173 87.4956C118.286 87.4394 117.422 87.1889 116.642 86.7618C115.862 86.3348 115.185 85.7417 114.66 85.0244C114.189 84.3048 113.89 83.4872 113.784 82.634C113.678 81.7809 113.768 80.9148 114.048 80.102C114.255 79.6413 114.404 79.1572 114.494 78.6605C114.573 77.6773 113.915 76.8071 113.397 75.9634C112.23 74.1354 111.738 71.9571 112.008 69.8054C112.307 67.6464 113.895 66.1584 115.803 65.1885Z" fill="#263238"/>
<path d="M116.042 67.6134C116.033 65.5436 115.513 63.508 114.527 61.6878C111.868 56.5395 106.43 52.7929 100.64 52.7065C97.9065 52.6265 95.2224 53.4482 93.0025 55.0449C90.5829 56.8517 89.0141 59.6219 88.1433 62.5116C87.2114 65.2517 87.096 68.2034 87.811 71.008C88.6153 73.7648 90.6361 76.2559 93.3615 77.1727C95.1535 77.6766 97.0332 77.7876 98.8721 77.4982C102.823 77.0779 106.705 76.1583 110.425 74.7613C111.821 74.2365 113.237 73.8312 114.188 72.6421C115.345 71.2171 115.998 69.4485 116.042 67.6134Z" fill="#263238"/>
<path d="M104.27 83.1254V89.888C104.27 89.888 109.794 93.4154 107.467 95.2821C103.08 98.8095 93.6743 89.8481 93.6743 89.8481V78.5684L104.27 83.1254Z" fill="#FFA8A7"/>
<path d="M93.6743 78.5684C94.9639 84.4939 101.226 88.1409 104.27 88.8783V83.1255L93.6743 78.5684Z" fill="#F28F8F"/>
<path d="M86.568 71.9977C86.9648 71.2519 87.6309 70.6851 88.431 70.4128C89.2311 70.1404 90.1049 70.1829 90.8748 70.5316C91.6446 70.8803 92.2526 71.509 92.575 72.2898C92.8974 73.0706 92.9101 73.9448 92.6104 74.7346C92.8994 74.8526 93.2129 74.898 93.5235 74.8667C93.8341 74.8355 94.1323 74.7285 94.3919 74.5552C94.9255 74.1857 95.3262 73.6548 95.5352 73.0406C95.7334 72.2144 95.8733 71.3754 95.954 70.5296C97.6424 70.2639 98.6129 67.4871 98.6129 67.2081C99.0251 67.2878 106.856 67.6465 109.382 63.1094C112.792 63.6873 113.948 67.6797 114.035 67.6598C114.292 69.0661 114.402 70.4955 114.36 71.9246C114.235 74.8597 113.714 77.7645 112.812 80.5605C112.147 82.7726 111.562 85.0312 109.315 86.1805C108.005 86.8012 106.545 87.0319 105.107 86.8448C99.836 86.3067 94.8638 82.2478 92.4775 77.6309C92.0587 78.1373 91.4756 78.4811 90.8295 78.6024C90.1835 78.7238 89.5153 78.6151 88.9411 78.2952C87.9659 77.5612 87.1779 76.6076 86.6411 75.5118C86.3729 74.9669 86.2274 74.37 86.2148 73.7629C86.2021 73.1558 86.3227 72.5532 86.568 71.9977Z" fill="#FFA8A7"/>
<path d="M107.075 72.3896L109.807 77.4317L106.291 77.9432L107.075 72.3896Z" fill="#F28F8F"/>
<path d="M102.861 79.5049L105.46 80.8999C105.22 81.1919 104.892 81.398 104.525 81.4867C104.158 81.5754 103.772 81.542 103.426 81.3915C103.129 81.1897 102.911 80.892 102.808 80.5485C102.705 80.2049 102.723 79.8364 102.861 79.5049Z" fill="#F28F8F"/>
<path opacity="0.3" d="M102.861 79.5049L105.46 80.8999C105.22 81.1919 104.892 81.398 104.525 81.4867C104.158 81.5754 103.772 81.542 103.426 81.3915C103.129 81.1897 102.911 80.892 102.808 80.5485C102.705 80.2049 102.723 79.8364 102.861 79.5049Z" fill="black"/>
<path d="M104.343 81.5173C104.032 81.5645 103.713 81.5207 103.426 81.3911C103.185 81.2464 102.994 81.033 102.875 80.7786C102.757 80.5241 102.717 80.24 102.761 79.9629C103.14 79.9819 103.502 80.1242 103.792 80.3681C104.119 80.6644 104.317 81.0769 104.343 81.5173Z" fill="#F28F8F"/>
<path d="M102.017 72.3762C101.988 72.5725 102.019 72.7729 102.105 72.9518C102.19 73.1307 102.327 73.2802 102.498 73.3814C102.669 73.4827 102.866 73.531 103.064 73.5204C103.262 73.5097 103.453 73.4406 103.612 73.3218C103.771 73.2029 103.891 73.0396 103.957 72.8525C104.023 72.6655 104.032 72.463 103.983 72.2708C103.934 72.0786 103.829 71.9052 103.681 71.7726C103.533 71.64 103.35 71.5542 103.153 71.5259C103.023 71.5071 102.89 71.5142 102.762 71.5467C102.634 71.5793 102.514 71.6367 102.409 71.7157C102.303 71.7946 102.214 71.8936 102.147 72.0069C102.08 72.1203 102.035 72.2458 102.017 72.3762Z" fill="#263238"/>
<path d="M110.399 73.2401C110.372 73.4364 110.404 73.6363 110.491 73.8145C110.577 73.9927 110.715 74.1413 110.886 74.2415C111.057 74.3417 111.254 74.389 111.452 74.3775C111.65 74.3661 111.84 74.2962 111.998 74.1769C112.156 74.0576 112.276 73.8941 112.341 73.7071C112.406 73.52 112.415 73.3178 112.365 73.126C112.316 72.9341 112.211 72.7611 112.063 72.629C111.915 72.4968 111.732 72.4112 111.536 72.3832C111.405 72.3644 111.271 72.3718 111.143 72.4047C111.015 72.4377 110.895 72.4957 110.789 72.5754C110.683 72.655 110.594 72.7547 110.527 72.8688C110.461 72.9829 110.417 73.1091 110.399 73.2401Z" fill="#263238"/>
<path d="M111.928 69.4206L113.922 71.2541C114.057 70.9959 114.109 70.7023 114.071 70.4133C114.033 70.1244 113.907 69.8543 113.709 69.6398C113.462 69.441 113.165 69.3152 112.85 69.2764C112.535 69.2377 112.216 69.2876 111.928 69.4206Z" fill="#263238"/>
<path d="M103.472 68.0986L101.053 69.3143C100.999 69.0262 101.033 68.7285 101.152 68.4604C101.27 68.1923 101.468 67.9666 101.718 67.813C102.008 67.6958 102.326 67.6604 102.635 67.7108C102.944 67.7611 103.234 67.8953 103.472 68.0986Z" fill="#263238"/>
<path d="M95.8479 69.9848C96.2335 71.3932 96.6124 72.9543 95.9543 74.2629C95.5555 75.0534 94.811 75.638 94.4121 76.4285C94.0189 77.348 93.9168 78.3657 94.1196 79.3448C94.3214 80.3168 94.448 81.3029 94.4985 82.2943C94.4848 83.0327 94.3214 83.7607 94.0183 84.4343C93.7153 85.1079 93.2788 85.7132 92.7352 86.2135C92.1917 86.7139 91.5523 87.099 90.8557 87.3457C90.1591 87.5923 89.4197 87.6953 88.6821 87.6486C89.8122 87.808 91.1815 86.7783 91.7665 85.7952C92.3091 84.778 92.5162 83.6155 92.3581 82.4737C92.2517 81.3377 91.9393 80.2283 91.7399 79.1057C91.4772 77.9894 91.4772 76.8274 91.7399 75.7111C92.0656 74.5751 92.8301 73.4857 92.5974 72.3298C92.4711 71.6987 92.059 71.1474 91.9925 70.5096C91.9614 70.0924 92.0773 69.6774 92.3201 69.3365C92.5629 68.9956 92.9173 68.7503 93.322 68.643C94.1662 68.457 95.6219 69.1744 95.8479 69.9848Z" fill="#263238"/>
<path opacity="0.3" d="M104.908 56.4197C104.3 57.1271 103.565 57.7151 102.741 58.1536C99.7974 59.8298 96.4406 60.6426 93.0558 60.4985C92.3725 60.5063 91.6945 60.3775 91.0616 60.1199C90.6298 59.9036 90.2571 59.5855 89.9757 59.1932C89.6943 58.8009 89.5126 58.346 89.4463 57.8679C90.3149 56.2712 91.5524 54.9047 93.0558 53.8821C95.2417 52.5084 97.7867 51.8147 100.368 51.8892C101.899 51.9167 103.418 52.1696 104.875 52.6399C105.225 53.0113 105.468 53.4703 105.579 53.9685C105.649 54.4013 105.625 54.844 105.509 55.2668C105.394 55.6896 105.189 56.0828 104.908 56.4197Z" fill="black"/>
<path d="M106.929 49.8171C106.603 47.1134 104.356 44.9212 101.784 43.9978C99.2026 43.1245 96.3938 43.2047 93.8668 44.2237C91.3567 45.2569 89.179 46.9597 87.5718 49.1461C86.4018 50.6939 85.4646 52.5805 85.6906 54.5137C85.9432 56.759 87.7978 58.6124 89.9582 59.3032C92.1724 59.9267 94.5196 59.899 96.7185 59.2235C98.1676 58.7984 102.801 56.9383 103.964 55.7027C105.466 54.0951 107.188 51.9694 106.929 49.8171Z" fill="#263238"/>
<path opacity="0.2" d="M91.8525 108.747C93.3043 110.828 95.4227 112.351 97.858 113.066C100.293 113.781 102.9 113.645 105.247 112.68C104.252 113.645 103.031 114.345 101.696 114.716C100.36 115.087 98.9529 115.118 97.6025 114.805C94.9369 114.121 92.6502 111.378 91.8525 108.747Z" fill="black"/>
<path d="M110.173 138.833C110.169 138.849 110.169 138.865 110.173 138.88C110.166 138.899 110.166 138.92 110.173 138.94L111.236 140.155C111.232 140.129 111.232 140.102 111.236 140.076C111.276 140.262 111.555 140.255 112.014 139.996L120.928 134.987C121.618 134.59 122.203 134.034 122.636 133.366L130.387 118.944C130.513 118.705 130.507 118.566 130.387 118.499H130.42L129.357 117.284C129.339 117.266 129.319 117.253 129.296 117.244C129.273 117.235 129.248 117.23 129.224 117.23H129.164H129.111H129.058H129.011H128.965H128.918H128.872H128.825H128.772H128.725H128.679H128.626L119.712 122.239H119.665H119.612L119.565 122.273H119.525H119.486H119.452L119.339 122.372V122.405V122.439L119.306 122.478L119.273 122.518V122.565L119.24 122.611V122.658L119.206 122.704L119.173 122.751V122.797V122.837V122.877L111.422 137.299V137.339C111.42 137.352 111.42 137.366 111.422 137.379V137.419C111.42 137.432 111.42 137.445 111.422 137.458C111.42 137.472 111.42 137.485 111.422 137.498C111.245 137.333 111.009 137.244 110.767 137.252C110.525 137.26 110.295 137.364 110.129 137.541C109.964 137.718 109.875 137.954 109.883 138.196C109.891 138.439 109.996 138.668 110.173 138.833ZM130.181 118.473C130.181 118.473 130.214 118.473 130.241 118.473C130.221 118.471 130.201 118.471 130.181 118.473ZM119.811 124.451C119.884 124.378 119.971 124.312 120.057 124.239C119.971 124.312 119.884 124.358 119.811 124.431V124.451ZM111.243 140.016C111.24 140.001 111.24 139.985 111.243 139.969C111.239 139.994 111.239 140.018 111.243 140.043C111.243 140.043 111.243 140.003 111.243 139.996V140.016Z" fill="#E0E0E0"/>
<path opacity="0.2" d="M110.173 138.833C110.169 138.849 110.169 138.865 110.173 138.88C110.166 138.899 110.166 138.92 110.173 138.94L111.236 140.155C111.232 140.129 111.232 140.102 111.236 140.076C111.276 140.262 111.555 140.255 112.014 139.996L120.928 134.987C121.618 134.59 122.203 134.034 122.636 133.366L130.387 118.944C130.513 118.705 130.507 118.566 130.387 118.499H130.42L129.357 117.284C129.339 117.266 129.319 117.253 129.296 117.244C129.273 117.235 129.248 117.23 129.224 117.23H129.164H129.111H129.058H129.011H128.965H128.918H128.872H128.825H128.772H128.725H128.679H128.626L119.712 122.239H119.665H119.612L119.565 122.273H119.525H119.486H119.452L119.339 122.372V122.405V122.439L119.306 122.478L119.273 122.518V122.565L119.24 122.611V122.658L119.206 122.704L119.173 122.751V122.797V122.837V122.877L111.422 137.299V137.339C111.42 137.352 111.42 137.366 111.422 137.379V137.419C111.42 137.432 111.42 137.445 111.422 137.458C111.42 137.472 111.42 137.485 111.422 137.498C111.245 137.333 111.009 137.244 110.767 137.252C110.525 137.26 110.295 137.364 110.129 137.541C109.964 137.718 109.875 137.954 109.883 138.196C109.891 138.439 109.996 138.668 110.173 138.833ZM130.181 118.473C130.181 118.473 130.214 118.473 130.241 118.473C130.221 118.471 130.201 118.471 130.181 118.473ZM119.811 124.451C119.884 124.378 119.971 124.312 120.057 124.239C119.971 124.312 119.884 124.358 119.811 124.431V124.451ZM111.243 140.016C111.24 140.001 111.24 139.985 111.243 139.969C111.239 139.994 111.239 140.018 111.243 140.043C111.243 140.043 111.243 140.003 111.243 139.996V140.016Z" fill="black"/>
<path opacity="0.15" d="M110.179 138.793C110.177 138.78 110.177 138.766 110.179 138.753C110.177 138.74 110.177 138.727 110.179 138.713V138.674C110.177 138.66 110.177 138.647 110.179 138.634V138.594L117.93 124.172L118.994 125.388L111.343 139.723C111.295 139.805 111.261 139.895 111.243 139.989C111.236 140.016 111.235 140.045 111.24 140.073C111.246 140.1 111.258 140.126 111.276 140.148L110.213 138.933C110.206 138.913 110.206 138.892 110.213 138.873C110.209 138.858 110.209 138.842 110.213 138.826C110.199 138.819 110.187 138.807 110.179 138.793Z" fill="white"/>
<path opacity="0.2" d="M118.05 124.046V124.006V123.96L118.083 123.913L118.116 123.867V123.82L118.15 123.774V123.727L118.183 123.687L118.216 123.648V123.614V123.581L118.329 123.482H118.362H118.402H118.442L118.489 123.448H118.542H118.588L127.502 118.439H127.556H127.602H127.649H127.702H127.748H127.795H127.841H127.888H127.934H127.988H128.041H128.101C128.125 118.439 128.15 118.444 128.172 118.453C128.195 118.462 128.216 118.475 128.234 118.493L129.297 119.708C129.253 119.655 129.166 119.642 129.038 119.668C128.866 119.712 128.703 119.781 128.553 119.874L120.809 123.648C120.631 123.747 120.462 123.86 120.303 123.986C120.134 124.117 119.972 124.256 119.818 124.405C119.668 124.545 119.526 124.693 119.393 124.85C119.284 124.984 119.186 125.126 119.1 125.275L118.037 124.059L118.05 124.046Z" fill="white"/>
<path d="M79.1897 96.4703C79.9276 91.1559 83.6102 90.0598 86.1162 89.8672C86.1162 89.8672 89.2604 92.0262 89.2604 101.645L88.9945 125.713L90.7627 126.45C95.7354 128.574 100.931 130.133 106.251 131.1C109.027 128.9 112.479 127.727 116.023 127.779L114.693 130.23C117.186 131.818 122.816 128.948 122.816 128.948C123.228 132.455 120.955 136.096 117.937 137.943C114.919 139.789 86.1295 137.079 80.0472 133.126C76.0189 130.562 77.6342 107.763 79.1897 96.4703Z" fill="#FFA8A7"/>
<path d="M128.905 121.721C129.097 122.668 129.208 123.631 129.237 124.597C129.01 126.896 128.034 129.058 126.458 130.749C126.13 131.118 125.721 131.407 125.262 131.592C125.031 131.68 124.782 131.707 124.538 131.668C124.294 131.63 124.065 131.528 123.873 131.373C123.535 130.968 123.364 130.451 123.394 129.925C123.319 129.146 123.362 128.36 123.52 127.593C123.677 126.815 124.112 126.121 124.743 125.64C125.235 125.36 125.757 125.137 126.299 124.976C126.833 124.75 127.31 124.407 127.695 123.973L128.905 121.721Z" fill="#FFA8A7"/>
<path d="M130.846 65.9128L148.98 55.5099C150.568 54.5998 154.298 55.8354 154.298 58.3863C154.297 58.1798 154.242 57.9771 154.138 57.7984C154.035 57.6197 153.886 57.4712 153.707 57.3678C153.528 57.2643 153.325 57.2095 153.119 57.2087C152.912 57.2079 152.709 57.2612 152.529 57.3633L134.389 67.7662C133.794 68.1131 133.315 68.6286 133.013 69.2476L129.49 67.2547C129.809 66.6904 130.278 66.2258 130.846 65.9128Z" fill="#F06D06"/>
<path d="M133.046 69.2476C132.79 69.7381 132.653 70.282 132.647 70.8353V84.294C132.647 84.5003 132.7 84.7031 132.803 84.882C132.906 85.061 133.054 85.2097 133.233 85.3134C133.411 85.4171 133.614 85.472 133.82 85.4726C134.027 85.4732 134.23 85.4196 134.409 85.317C133.886 85.636 133.289 85.8123 132.677 85.8283C132.065 85.8443 131.46 85.6994 130.921 85.4082C130.383 85.117 129.931 84.6896 129.609 84.1688C129.288 83.648 129.109 83.0521 129.091 82.4406V68.9819C129.091 68.3741 129.249 67.7767 129.549 67.248L133.046 69.2476Z" fill="#F06D06"/>
<path opacity="0.4" d="M130.846 65.9128L148.98 55.5099C150.568 54.5998 154.298 55.8354 154.298 58.3863C154.297 58.1798 154.242 57.9771 154.138 57.7984C154.035 57.6197 153.886 57.4712 153.707 57.3678C153.528 57.2643 153.325 57.2095 153.119 57.2087C152.912 57.2079 152.709 57.2612 152.529 57.3633L134.389 67.7662C133.794 68.1131 133.315 68.6286 133.013 69.2476L129.49 67.2547C129.809 66.6904 130.278 66.2258 130.846 65.9128Z" fill="white"/>
<path opacity="0.2" d="M133.046 69.2476C132.79 69.7381 132.653 70.282 132.647 70.8353V84.294C132.647 84.5003 132.7 84.7031 132.803 84.882C132.906 85.061 133.054 85.2097 133.233 85.3134C133.411 85.4171 133.614 85.472 133.82 85.4726C134.027 85.4732 134.23 85.4196 134.409 85.317C133.886 85.636 133.289 85.8123 132.677 85.8283C132.065 85.8443 131.46 85.6994 130.921 85.4082C130.383 85.117 129.931 84.6896 129.609 84.1688C129.288 83.648 129.109 83.0521 129.091 82.4406V68.9819C129.091 68.3741 129.249 67.7767 129.549 67.248L133.046 69.2476Z" fill="white"/>
<path d="M152.563 57.3636L134.422 67.7665C133.883 68.0771 133.434 68.5243 133.123 69.0631C132.811 69.6019 132.647 70.2133 132.647 70.8356V84.2943C132.647 84.5006 132.701 84.7034 132.804 84.8824C132.906 85.0613 133.054 85.2101 133.233 85.3137C133.411 85.4174 133.614 85.4723 133.82 85.4729C134.027 85.4736 134.23 85.4199 134.409 85.3173L152.55 74.9609C153.09 74.6507 153.539 74.2037 153.852 73.6649C154.165 73.1262 154.33 72.5147 154.331 71.8918V58.3866C154.33 58.1801 154.275 57.9774 154.172 57.7987C154.068 57.62 153.919 57.4716 153.741 57.3681C153.562 57.2646 153.359 57.2098 153.152 57.209C152.946 57.2082 152.742 57.2615 152.563 57.3636Z" fill="#F06D06"/>
<path d="M128.28 77.6974L132.641 78.5145V72.9277L128.127 77.1859C128.087 77.2239 128.058 77.2724 128.044 77.3258C128.03 77.3793 128.03 77.4357 128.046 77.4887C128.062 77.5417 128.092 77.5893 128.134 77.6262C128.175 77.663 128.226 77.6877 128.28 77.6974Z" fill="#F06D06"/>
<path d="M132.641 72.9279L129.064 70.8818L124.557 75.1865C124.523 75.2187 124.497 75.2586 124.481 75.3027C124.466 75.3469 124.46 75.3942 124.466 75.4408C124.472 75.4874 124.489 75.5319 124.515 75.5708C124.541 75.6097 124.576 75.6419 124.617 75.6648L128.18 77.6577L132.641 72.9279Z" fill="#F06D06"/>
<path opacity="0.2" d="M132.641 72.9279L129.064 70.8818L124.557 75.1865C124.523 75.2187 124.497 75.2586 124.481 75.3027C124.466 75.3469 124.46 75.3942 124.466 75.4408C124.472 75.4874 124.489 75.5319 124.515 75.5708C124.541 75.6097 124.576 75.6419 124.617 75.6648L128.18 77.6577L132.641 72.9279Z" fill="white"/>
<path d="M149.804 61.7142C150.249 61.4552 150.562 61.9667 150.156 62.611C147.239 67.2136 144.687 72.0379 142.525 77.0396C142.303 77.6041 141.908 78.0833 141.395 78.4081C141.238 78.532 141.044 78.5994 140.843 78.5994C140.643 78.5994 140.449 78.532 140.292 78.4081C139.216 77.3855 138.04 76.4731 136.782 75.6844C136.436 75.4652 136.722 74.6614 137.167 74.4023C137.221 74.3705 137.279 74.348 137.34 74.3359C138.654 74.0755 140.002 74.0373 141.329 74.223C143.54 69.8067 146.293 65.6828 149.525 61.9467C149.603 61.8532 149.698 61.7745 149.804 61.7142Z" fill="white"/>
</g>
<defs>
<clipPath id="clip0_3088_24784">
<rect width="300" height="297.692" fill="white" transform="translate(0 0.154297)"/>
</clipPath>
</defs>
</svg>
