<svg width="64" height="48" viewBox="0 0 64 48" fill="none" xmlns="http://www.w3.org/2000/svg">
<path d="M35.6729 11.0491L35.4982 10.7935C34.4634 9.20305 33.4297 7.62287 32.3972 6.05291C32.2704 5.85865 32.1128 5.68144 31.9689 5.494C31.7187 5.1532 31.7222 4.97939 32.0751 4.76468C32.9111 4.25689 33.7541 3.74228 34.6278 3.29924C35.899 2.6449 37.1806 1.99056 38.5957 1.69066C41.1279 1.15901 43.5812 1.25784 45.8667 2.63467C47.3141 3.51604 48.5344 4.72159 49.4303 6.15516C50.5885 7.97673 51.3074 10.0401 51.5307 12.1839C51.8942 14.9178 51.4012 17.6966 50.119 20.1416C48.5394 23.093 46.0072 24.8004 42.7932 25.5365C41.4671 25.8859 40.0725 25.8859 38.7465 25.5365C37.5429 25.1442 36.4154 24.5507 35.4125 23.7814C34.9795 23.4593 34.5728 23.1038 34.1961 22.7181C33.9185 22.4454 33.9459 22.3296 34.2852 22.149C35.3885 21.5741 36.4941 21.0061 37.602 20.445C39.1322 19.7353 40.6014 18.9021 41.9948 17.9537C42.3644 17.6814 42.7147 17.3843 43.0433 17.0642C44.0712 16.0418 44.4139 14.7979 44.3008 13.3972C44.2548 12.7072 44.0927 12.0298 43.8211 11.3933C43.057 9.63133 41.7172 8.96676 39.8429 9.39958C38.7774 9.69053 37.7442 10.0879 36.7591 10.5856L35.6729 11.0491Z" fill="#F06D06"/>
<path d="M12.3418 17.4425C12.6536 17.4187 12.938 17.3846 13.2224 17.3744C14.7301 17.313 16.2377 17.2653 17.7454 17.2006C19.4346 17.1324 21.1205 17.0745 22.8063 16.9722C25.4229 16.764 27.9688 16.0239 30.2863 14.7979C32.4998 13.6835 34.7065 12.5623 36.9269 11.4581C37.8646 10.9348 38.8699 10.5415 39.9148 10.2891C40.4732 10.2015 41.0394 10.1718 41.604 10.2005C41.8285 10.2251 42.0394 10.3193 42.2071 10.4697C43.4543 11.5296 44.1328 13.5949 43.5469 15.1456C43.2453 15.8906 42.7411 16.5373 42.0906 17.0131C40.8813 17.9122 39.5772 18.6778 38.2015 19.2965C35.3781 20.6597 32.5615 22.0774 29.7073 23.3861C28.3383 24.0215 26.9293 24.5679 25.4892 25.022C24.1347 25.3947 22.7174 25.4852 21.3261 25.2878C18.0195 24.947 15.5319 23.243 13.6816 20.5643C13.0917 19.5905 12.6408 18.5398 12.3418 17.4425Z" fill="#0E5D37"/>
<path d="M12.0171 16.1606L1.01122 16.2424C0.795355 16.2424 0.576062 16.2424 0.360193 16.2424C0.144324 16.2424 0.10321 16.2015 0.106636 16.0073C0.134048 14.8213 0.147748 13.6217 0.164881 12.4493C0.182013 11.3144 0.206004 10.183 0.212857 9.04129C0.212857 8.80614 0.274534 8.72095 0.534947 8.72095C4.87974 8.72095 9.22452 8.72095 13.5727 8.72095C15.4505 8.72095 17.3419 8.72094 19.2093 8.76865C20.3161 8.79592 21.4262 8.88453 22.5296 8.98336C23.6818 9.12449 24.7386 9.69138 25.4901 10.5715C26.547 11.6807 27.4567 12.9199 28.197 14.259C28.454 14.719 28.4403 14.7361 27.9537 14.9406C27.0267 15.3849 26.0399 15.6937 25.0241 15.8573C24.1023 15.9561 23.1703 16.0277 22.2418 16.0448C18.8392 16.1027 15.4333 16.1334 12.0274 16.1777L12.0171 16.1606Z" fill="#0E5D37"/>
<path d="M21.9812 0.0652682C23.6694 0.103309 25.3095 0.631669 26.6995 1.58525C28.4299 2.73712 29.9531 4.17031 31.2054 5.82482C32.5164 7.48569 33.6747 9.26046 34.6661 11.1277C34.834 11.4412 34.8409 11.4685 34.5188 11.6389C32.8775 12.5216 31.2293 13.394 29.5846 14.2767C29.5299 14.312 29.4634 14.3247 29.3994 14.312C29.3353 14.2992 29.2789 14.2621 29.242 14.2085C29.0793 14.0051 28.9272 13.7935 28.7863 13.5746C27.8752 12.0819 26.7406 10.7362 25.4214 9.58385C24.495 8.80004 23.3638 8.29418 22.1594 8.12523C20.5396 7.90276 18.9048 7.8059 17.2698 7.83554C15.9541 7.8185 14.6349 7.7776 13.3157 7.74352C13.1375 7.74352 12.9559 7.70604 12.7777 7.689C12.5995 7.67196 12.5139 7.59016 12.6029 7.40613C12.6524 7.2712 12.7096 7.1392 12.7743 7.0108C13.8563 4.92993 15.3909 3.11494 17.2664 1.69771C18.4736 0.785003 19.9107 0.221308 21.4193 0.0686795C21.6064 0.0575585 21.794 0.0564176 21.9812 0.0652682Z" fill="#0E5D37"/>
<path d="M63.8389 8.62231V16.1983H52.4082C52.4082 13.7173 52.439 11.2294 51.6338 8.77908C55.749 8.5337 59.7854 8.66321 63.8389 8.62231Z" fill="#F06D06"/>
<path d="M7.86722 46.3761V47.9404H0V38.0265H2.36086V46.3761H7.86722Z" fill="#0E5D37"/>
<path d="M17.05 46.1137V47.678H8.91895V38.0265H16.8307L16.7964 39.5908H11.016V41.9389L16.5223 41.9082V43.5066H11.016V46.1137H17.05Z" fill="#0E5D37"/>
<path d="M25.7056 46.4307V47.9404H17.835V38.0265H19.9354L19.8771 46.3761L25.7056 46.4307Z" fill="#0E5D37"/>
<path d="M34.3609 46.4307V47.9404H26.4902V38.0265H28.5907L28.5324 46.3761L34.3609 46.4307Z" fill="#0E5D37"/>
<path d="M55.3443 46.4307V47.9404H47.4736V38.0265H49.5741L49.5158 46.3761L55.3443 46.4307Z" fill="#0E5D37"/>
<path d="M64 46.4307V47.9404H56.1328V38.0265H58.2298L58.1716 46.3761L64 46.4307Z" fill="#0E5D37"/>
<path d="M41.9575 38.0265H39.7543L34.875 47.9404H36.9309L38.1062 45.3299H43.5063L44.7741 47.9404H46.7341L41.9575 38.0265ZM39.0176 44.028L40.7857 40.1974L42.6017 44.028H39.0176Z" fill="#0E5D37"/>
<path d="M15.81 35.157L13.6102 37.2427H11.7256L13.689 35.157H15.81Z" fill="#F06D06"/>
</svg>
