<svg width="73" height="53" viewBox="0 0 73 53" fill="none" xmlns="http://www.w3.org/2000/svg">
<path d="M27.8695 23.5688L27.733 23.3696C26.9246 22.1295 26.117 20.8974 25.3104 19.6733C25.2113 19.5219 25.0882 19.3837 24.9758 19.2376C24.7803 18.9718 24.783 18.8363 25.0587 18.6689C25.7119 18.273 26.3705 17.8717 27.0531 17.5263C28.0462 17.0161 29.0474 16.5059 30.153 16.2721C32.1312 15.8576 34.0479 15.9346 35.8335 17.0081C36.9642 17.6953 37.9176 18.6353 38.6175 19.7531C39.5224 21.1733 40.084 22.7822 40.2585 24.4537C40.5424 26.5853 40.1573 28.7519 39.1556 30.6583C37.9215 32.9595 35.9432 34.2908 33.4322 34.8647C32.3963 35.1371 31.3067 35.1371 30.2708 34.8647C29.3305 34.5589 28.4496 34.0961 27.6661 33.4962C27.3279 33.2451 27.0101 32.9679 26.7158 32.6672C26.4989 32.4546 26.5204 32.3643 26.7854 32.2234C27.6474 31.7753 28.5111 31.3324 29.3767 30.8948C30.5721 30.3415 31.7199 29.6918 32.8085 28.9524C33.0972 28.7401 33.3709 28.5084 33.6277 28.2589C34.4307 27.4617 34.6984 26.4918 34.6101 25.3997C34.5742 24.8617 34.4475 24.3335 34.2353 23.8372C33.6384 22.4634 32.5917 21.9453 31.1274 22.2827C30.295 22.5096 29.4878 22.8194 28.7181 23.2075L27.8695 23.5688Z" fill="#F06D06"/>
<path d="M9.64233 28.5538C9.88594 28.5352 10.1081 28.5086 10.3303 28.5006C11.5082 28.4528 12.686 28.4156 13.8639 28.3651C15.1836 28.312 16.5007 28.2668 17.8177 28.1871C19.862 28.0247 21.8509 27.4477 23.6615 26.4918C25.3908 25.6229 27.1148 24.7486 28.8494 23.8877C29.582 23.4797 30.3674 23.173 31.1837 22.9763C31.62 22.908 32.0623 22.8848 32.5035 22.9072C32.6788 22.9263 32.8436 22.9998 32.9746 23.1171C33.949 23.9435 34.479 25.5538 34.0213 26.7628C33.7857 27.3437 33.3918 27.848 32.8836 28.219C31.9388 28.92 30.92 29.5169 29.8452 29.9993C27.6394 31.0622 25.439 32.1676 23.2091 33.188C22.1396 33.6834 21.0388 34.1094 19.9138 34.4635C18.8555 34.7541 17.7483 34.8246 16.6613 34.6707C14.078 34.405 12.1346 33.0764 10.689 30.9878C10.2282 30.2285 9.87593 29.4093 9.64233 28.5538Z" fill="#05431E"/>
<path d="M9.38797 27.5543L0.789622 27.618C0.620975 27.618 0.449652 27.618 0.281004 27.618C0.112357 27.618 0.0802358 27.5861 0.0829128 27.4347C0.104328 26.51 0.115032 25.5746 0.128416 24.6605C0.141801 23.7757 0.160544 22.8935 0.165897 22.0033C0.165897 21.82 0.214083 21.7535 0.417531 21.7535C3.8119 21.7535 7.20626 21.7535 10.6033 21.7535C12.0703 21.7535 13.5479 21.7535 15.0069 21.7907C15.8715 21.812 16.7389 21.8811 17.6008 21.9581C18.501 22.0682 19.3266 22.5102 19.9137 23.1964C20.7394 24.0612 21.4501 25.0275 22.0285 26.0715C22.2293 26.4303 22.2186 26.4435 21.8384 26.603C21.1142 26.9494 20.3433 27.1902 19.5497 27.3178C18.8296 27.3948 18.1014 27.4506 17.376 27.4639C14.7178 27.5091 12.0569 27.533 9.396 27.5675L9.38797 27.5543Z" fill="#05431E"/>
<path d="M17.1727 15.0047C18.4916 15.0344 19.7729 15.4463 20.8589 16.1898C22.2107 17.088 23.4007 18.2054 24.379 19.4954C25.4033 20.7904 26.3082 22.1742 27.0828 23.6301C27.2139 23.8745 27.2193 23.8958 26.9676 24.0287C25.6854 24.7169 24.3978 25.3971 23.1128 26.0854C23.0701 26.1129 23.0181 26.1228 22.9681 26.1129C22.9181 26.1029 22.874 26.074 22.8451 26.0322C22.7181 25.8736 22.5992 25.7086 22.4891 25.538C21.7774 24.3741 20.8909 23.3248 19.8603 22.4264C19.1366 21.8152 18.2528 21.4208 17.3119 21.2891C16.0464 21.1156 14.7692 21.0401 13.4919 21.0632C12.464 21.0499 11.4333 21.018 10.4027 20.9914C10.2635 20.9914 10.1216 20.9622 9.98242 20.9489C9.84322 20.9356 9.7763 20.8719 9.8459 20.7284C9.88453 20.6232 9.92922 20.5203 9.97975 20.4201C10.8251 18.7977 12.024 17.3825 13.4892 16.2775C14.4324 15.5659 15.5551 15.1264 16.7337 15.0074C16.8799 14.9987 17.0264 14.9978 17.1727 15.0047Z" fill="#05431E"/>
<path d="M49.8741 21.6766V27.5837H40.9439C40.9439 25.6492 40.9679 23.7094 40.3389 21.7989C43.5539 21.6075 46.7073 21.7085 49.8741 21.6766Z" fill="#F06D06"/>
<path d="M6.14627 51.1134V52.333H0V44.6031H1.84442V51.1134H6.14627Z" fill="#05431E"/>
<path d="M13.3204 50.9088V52.1284H6.96802V44.6031H13.1491L13.1223 45.8228H8.60631V47.6537L12.9082 47.6297V48.876H8.60631V50.9088H13.3204Z" fill="#05431E"/>
<path d="M20.082 51.1559V52.333H13.9331V44.6031H15.5741L15.5286 51.1134L20.082 51.1559Z" fill="#05431E"/>
<path d="M26.8445 51.1559V52.333H20.6956V44.6031H22.3365L22.291 51.1134L26.8445 51.1559Z" fill="#05431E"/>
<path d="M43.2378 51.1559V52.333H37.0889V44.6031H38.7298L38.6843 51.1134L43.2378 51.1559Z" fill="#05431E"/>
<path d="M50 51.1559V52.333H43.8538V44.6031H45.492L45.4465 51.1134L50 51.1559Z" fill="#05431E"/>
<path d="M32.7788 44.6031H31.0576L27.2456 52.333H28.8518L29.77 50.2976H33.9888L34.9793 52.333H36.5105L32.7788 44.6031ZM30.482 49.2825L31.8633 46.2958L33.2821 49.2825H30.482Z" fill="#05431E"/>
<path d="M12.3513 42.3658L10.6327 43.9921H9.1604L10.6943 42.3658H12.3513Z" fill="#F06D06"/>
<path d="M53.24 46.344C53.3 46.008 53.42 45.714 53.6 45.462C53.784 45.206 54.006 45.008 54.266 44.868C54.53 44.728 54.81 44.658 55.106 44.658C55.394 44.658 55.632 44.72 55.82 44.844C56.008 44.968 56.138 45.124 56.21 45.312L56.318 44.712H56.87L56.288 48H55.736L55.85 47.388C55.706 47.58 55.516 47.74 55.28 47.868C55.044 47.992 54.784 48.054 54.5 48.054C54.244 48.054 54.018 48 53.822 47.892C53.626 47.78 53.474 47.622 53.366 47.418C53.258 47.214 53.204 46.978 53.204 46.71C53.204 46.59 53.216 46.468 53.24 46.344ZM56.03 46.35C56.046 46.266 56.054 46.176 56.054 46.08C56.054 45.788 55.966 45.558 55.79 45.39C55.618 45.218 55.398 45.132 55.13 45.132C54.926 45.132 54.73 45.18 54.542 45.276C54.358 45.372 54.2 45.512 54.068 45.696C53.936 45.88 53.848 46.096 53.804 46.344C53.788 46.428 53.78 46.52 53.78 46.62C53.78 46.916 53.866 47.15 54.038 47.322C54.21 47.49 54.43 47.574 54.698 47.574C54.902 47.574 55.096 47.526 55.28 47.43C55.468 47.33 55.628 47.188 55.76 47.004C55.896 46.816 55.986 46.598 56.03 46.35ZM57.2947 46.344C57.3547 46.008 57.4747 45.714 57.6547 45.462C57.8387 45.206 58.0627 45.008 58.3267 44.868C58.5907 44.728 58.8707 44.658 59.1667 44.658C59.4187 44.658 59.6447 44.718 59.8447 44.838C60.0447 44.954 60.1867 45.108 60.2707 45.3L60.5767 43.56H61.1287L60.3427 48H59.7907L59.9047 47.382C59.7647 47.578 59.5767 47.74 59.3407 47.868C59.1047 47.992 58.8447 48.054 58.5607 48.054C58.3047 48.054 58.0787 48 57.8827 47.892C57.6867 47.78 57.5327 47.622 57.4207 47.418C57.3127 47.214 57.2587 46.978 57.2587 46.71C57.2587 46.59 57.2707 46.468 57.2947 46.344ZM60.0847 46.35C60.1007 46.266 60.1087 46.176 60.1087 46.08C60.1087 45.788 60.0207 45.558 59.8447 45.39C59.6727 45.218 59.4527 45.132 59.1847 45.132C58.9807 45.132 58.7847 45.18 58.5967 45.276C58.4127 45.372 58.2547 45.512 58.1227 45.696C57.9907 45.88 57.9027 46.096 57.8587 46.344C57.8427 46.428 57.8347 46.52 57.8347 46.62C57.8347 46.916 57.9207 47.15 58.0927 47.322C58.2647 47.49 58.4847 47.574 58.7527 47.574C58.9567 47.574 59.1507 47.526 59.3347 47.43C59.5227 47.33 59.6827 47.188 59.8147 47.004C59.9507 46.816 60.0407 46.598 60.0847 46.35ZM65.8134 44.652C66.1494 44.652 66.4174 44.744 66.6174 44.928C66.8214 45.108 66.9234 45.372 66.9234 45.72C66.9234 45.848 66.9134 45.962 66.8934 46.062L66.5514 48H66.0114L66.3414 46.14C66.3574 46.056 66.3654 45.966 66.3654 45.87C66.3654 45.626 66.2994 45.442 66.1674 45.318C66.0394 45.19 65.8574 45.126 65.6214 45.126C65.3494 45.126 65.1154 45.21 64.9194 45.378C64.7274 45.542 64.5954 45.78 64.5234 46.092L64.1814 48H63.6414L63.9714 46.14C63.9874 46.048 63.9954 45.956 63.9954 45.864C63.9954 45.624 63.9294 45.442 63.7974 45.318C63.6694 45.19 63.4874 45.126 63.2514 45.126C62.9674 45.126 62.7254 45.218 62.5254 45.402C62.3254 45.582 62.1954 45.844 62.1354 46.188V46.176L61.8114 48H61.2654L61.8474 44.712H62.3934L62.3094 45.186C62.4454 45.014 62.6134 44.882 62.8134 44.79C63.0134 44.698 63.2234 44.652 63.4434 44.652C63.7194 44.652 63.9514 44.714 64.1394 44.838C64.3314 44.962 64.4574 45.144 64.5174 45.384C64.6534 45.152 64.8374 44.972 65.0694 44.844C65.3054 44.716 65.5534 44.652 65.8134 44.652ZM68.401 44.178C68.313 44.178 68.239 44.15 68.179 44.094C68.123 44.034 68.095 43.96 68.095 43.872C68.095 43.752 68.139 43.65 68.227 43.566C68.315 43.478 68.417 43.434 68.533 43.434C68.625 43.434 68.699 43.462 68.755 43.518C68.811 43.574 68.839 43.648 68.839 43.74C68.839 43.86 68.795 43.964 68.707 44.052C68.619 44.136 68.517 44.178 68.401 44.178ZM68.575 44.712L67.993 48H67.447L68.029 44.712H68.575ZM71.1196 44.652C71.4596 44.652 71.7316 44.744 71.9356 44.928C72.1396 45.108 72.2416 45.372 72.2416 45.72C72.2416 45.848 72.2316 45.962 72.2116 46.062L71.8696 48H71.3296L71.6596 46.14C71.6756 46.056 71.6836 45.968 71.6836 45.876C71.6836 45.632 71.6156 45.446 71.4796 45.318C71.3476 45.19 71.1616 45.126 70.9216 45.126C70.6336 45.126 70.3876 45.216 70.1836 45.396C69.9836 45.576 69.8536 45.838 69.7936 46.182V46.17L69.4696 48H68.9236L69.5056 44.712H70.0516L69.9676 45.186C70.1036 45.014 70.2736 44.882 70.4776 44.79C70.6816 44.698 70.8956 44.652 71.1196 44.652Z" fill="#00190B"/>
</svg>
