<svg width="38" height="38" viewBox="0 0 38 38" fill="none" xmlns="http://www.w3.org/2000/svg">
<path d="M0 8C0 3.58172 3.58172 0 8 0H30C34.4183 0 38 3.58172 38 8V30C38 34.4183 34.4183 38 30 38H8C3.58172 38 0 34.4183 0 30V8Z" fill="#F6F6F6"/>
<path d="M12.3333 19C12.3333 16.5002 12.3333 15.2503 12.9699 14.374C13.1755 14.0911 13.4243 13.8422 13.7073 13.6366C14.5835 13 15.8334 13 18.3333 13H19.6666C22.1664 13 23.4163 13 24.2925 13.6366C24.5755 13.8422 24.8244 14.0911 25.03 14.374C25.6666 15.2503 25.6666 16.5002 25.6666 19C25.6666 21.4998 25.6666 22.7497 25.03 23.626C24.8244 23.9089 24.5755 24.1578 24.2925 24.3634C23.4163 25 22.1664 25 19.6666 25H18.3333C15.8334 25 14.5835 25 13.7073 24.3634C13.4243 24.1578 13.1755 23.9089 12.9699 23.626C12.3333 22.7497 12.3333 21.4998 12.3333 19Z" stroke="#454545" stroke-width="1.2" stroke-linejoin="round"/>
<path d="M17.3333 13.3334L17.3333 24.6667" stroke="#454545" stroke-width="1.2" stroke-linejoin="round"/>
<path d="M14.3333 15.6666C14.3333 15.6666 14.9427 15.6666 15.3333 15.6666" stroke="#454545" stroke-width="1.2" stroke-linecap="round" stroke-linejoin="round"/>
<path d="M14.3333 18.3334H15.3333" stroke="#454545" stroke-width="1.2" stroke-linecap="round" stroke-linejoin="round"/>
<path d="M22.3333 17.6666L21.5156 18.3714C21.1719 18.6677 21 18.8159 21 19C21 19.1841 21.1719 19.3322 21.5156 19.6285L22.3333 20.3333" stroke="#454545" stroke-width="1.2" stroke-linecap="round" stroke-linejoin="round"/>
</svg>
