<svg width="550" height="500" viewBox="0 0 550 500" fill="none" xmlns="http://www.w3.org/2000/svg">
<path d="M437.261 463.69C408.496 453.33 395.296 425.44 389.455 399.08C388.476 394.68 386.749 390.19 388.036 385.87C389.323 381.55 393.965 377.78 398.739 378.69C402.71 379.45 405.251 382.88 408.056 385.57C411.807 389.156 416.596 391.704 421.872 392.92C425.304 393.71 429.319 393.77 431.937 391.61C435.545 388.61 434.676 383.33 433.51 378.99L427.009 354.75C425.843 350.42 424.677 345.99 425.084 341.54C425.491 337.09 427.779 332.54 432.025 330.43C436.271 328.32 442.497 329.43 444.565 333.51C445.434 335.19 445.511 337.11 446.116 338.88C446.721 340.65 448.162 342.45 450.175 342.55C452.188 342.65 453.805 341 454.905 339.42C458.689 333.98 460.559 327.61 462.22 321.32C463.881 315.03 465.421 308.62 468.644 302.88C471.867 297.14 477.07 292.01 483.813 290.18C490.556 288.35 498.85 290.62 502.172 296.35C505.494 302.08 503.195 309.16 500.214 315.03C495.788 323.74 490.001 331.824 483.032 339.03C481.789 340.32 480.425 341.72 480.271 343.46C479.985 346.57 483.758 348.8 487.146 349.07C490.985 349.38 494.769 348.21 498.597 347.81C502.425 347.41 506.847 348.03 509.091 350.92C512.204 354.92 509.333 360.47 506.11 364.38C499.655 372.216 491.763 378.982 482.779 384.38C479.578 386.3 476.179 388.13 473.891 390.98C471.603 393.83 470.954 398.11 473.462 400.8C475.97 403.49 480.623 403.52 484.143 402.11C487.663 400.7 490.479 398.17 493.68 396.21C499.653 392.54 508.233 391.12 513.788 395.37C517.429 398.17 518.914 402.83 518.562 407.18C518.21 411.53 516.296 415.61 514.162 419.47C506.528 433 495.418 445 481.448 453C467.478 461 453.706 465.42 437.261 463.66" fill="#F5F5F5"/>
<path d="M440.407 445.69C441.466 430.414 443.49 415.205 446.468 400.14C447.202 396.14 447.957 392.183 448.734 388.27C449.482 384.38 450.23 380.52 451.22 376.78C453.126 369.61 455.469 362.543 458.238 355.61C460.823 348.98 463.551 342.77 466.147 336.98C468.743 331.19 471.295 325.84 473.847 321.05C477.822 313.472 482.456 306.196 487.707 299.29C489.555 296.85 491.062 294.99 492.107 293.75C492.613 293.163 493.009 292.693 493.295 292.34C493.422 292.172 493.569 292.017 493.735 291.88C493.63 292.062 493.509 292.236 493.372 292.4L492.272 293.85C491.282 295.13 489.819 297.01 488.015 299.47C482.902 306.434 478.365 313.735 474.441 321.31C471.944 326.1 469.436 331.45 466.862 337.24C464.288 343.03 461.604 349.24 459.041 355.88C456.306 362.8 453.989 369.85 452.1 377C451.121 380.72 450.384 384.55 449.636 388.45C448.888 392.35 448.14 396.31 447.381 400.31C444.405 415.344 442.363 430.518 441.265 445.76" fill="#E0E0E0"/>
<path d="M451.462 376.7C451.071 376.148 450.749 375.558 450.505 374.94C449.944 373.8 449.185 372.12 448.305 370.03C446.501 365.85 444.224 360.03 441.705 353.55C439.186 347.07 436.865 341.29 435.006 337.15C434.071 335.08 433.301 333.41 432.751 332.26C432.423 331.679 432.172 331.065 432.003 330.43C432.436 330.955 432.805 331.522 433.103 332.12C433.752 333.23 434.61 334.87 435.622 336.92C437.646 341.02 440.11 346.81 442.596 353.27C445.082 359.73 447.216 365.42 448.899 369.82L450.846 374.82C451.122 375.426 451.329 376.056 451.462 376.7Z" fill="#E0E0E0"/>
<path d="M510.147 353C509.382 353.336 508.582 353.604 507.76 353.8C506.22 354.26 503.987 354.93 501.248 355.8C495.748 357.56 488.301 360.24 480.194 363.53C472.087 366.82 464.893 370.09 459.767 372.59C457.193 373.83 455.136 374.88 453.717 375.59C453.001 376.003 452.247 376.358 451.462 376.65C452.103 376.148 452.795 375.702 453.53 375.32C454.905 374.51 456.918 373.38 459.459 372.08C464.519 369.44 471.691 366.08 479.82 362.77C486.749 359.93 493.836 357.416 501.05 355.24C503.811 354.41 506.088 353.83 507.65 353.46C508.463 353.231 509.3 353.077 510.147 353Z" fill="#E0E0E0"/>
<path d="M440.891 444.5C440.668 444.325 440.469 444.127 440.297 443.91L438.724 442.12C437.36 440.55 435.424 438.24 433.136 435.37C428.505 429.61 422.389 421.47 415.767 412.42C409.145 403.37 403.106 395.18 398.618 389.34L393.272 382.44C392.689 381.69 392.172 381.07 391.831 380.56C391.49 380.05 391.347 379.89 391.38 379.87C391.413 379.85 391.6 380.05 391.974 380.46L393.547 382.25C394.911 383.81 396.847 386.12 399.135 389C403.766 394.76 409.882 402.89 416.515 411.95C423.148 421.01 429.165 429.19 433.653 435.02L438.999 441.92L440.44 443.81C440.759 444.24 440.924 444.48 440.891 444.5Z" fill="#E0E0E0"/>
<path d="M516.263 403C516.042 403.189 515.794 403.35 515.526 403.48L513.326 404.71L505.263 409.17C498.443 412.94 489.104 418.24 478.797 424.11C468.49 429.98 459.074 435.21 452.177 438.85C448.734 440.67 445.918 442.11 443.96 443.08L441.694 444.18C441.437 444.323 441.159 444.434 440.869 444.51C441.09 444.321 441.338 444.16 441.606 444.03L443.806 442.8L451.869 438.34C458.689 434.57 468.028 429.27 478.346 423.4C488.664 417.53 498.058 412.31 504.955 408.67C508.398 406.85 511.203 405.4 513.172 404.43L515.438 403.34C515.694 403.192 515.972 403.077 516.263 403Z" fill="#E0E0E0"/>
<path d="M67.2133 159.142L52.5195 227.927L164.778 247.746L179.472 178.961L67.2133 159.142Z" fill="#EBEBEB"/>
<path d="M179.652 179.85C179.266 180.132 178.85 180.376 178.409 180.58L174.757 182.52L161.194 189.52L116.171 212.3L115.808 212.48L115.533 212.19L114.862 211.48L81.136 175.22L71.005 164.17L68.288 161.17C67.9497 160.833 67.6511 160.464 67.397 160.07C67.7752 160.377 68.1247 160.711 68.442 161.07L71.313 163.99L81.697 174.85L115.654 210.91L116.325 211.62L115.676 211.51L160.842 188.98L174.559 182.26L178.31 180.48C178.734 180.232 179.184 180.021 179.652 179.85Z" fill="#E0E0E0"/>
<path d="M52.7012 228.82C52.5142 228.61 62.9752 220.68 76.0542 211.09C89.1332 201.5 99.8802 193.89 100.056 194.09C100.232 194.29 89.7822 202.23 76.7032 211.82C63.6242 221.41 52.8772 229 52.7012 228.82Z" fill="#E0E0E0"/>
<path d="M137.555 199.82C137.808 199.7 144.155 210.54 151.712 224.01C159.269 237.48 165.209 248.52 164.912 248.64C164.615 248.76 158.312 237.93 150.744 224.44C143.176 210.95 137.302 199.94 137.555 199.82Z" fill="#E0E0E0"/>
<path d="M224.719 145.35L153.758 152.1L147.917 107.28L218.878 100.52L224.719 145.35Z" fill="#F5F5F5"/>
<path d="M219.175 101C219.009 101.239 218.813 101.46 218.592 101.66L216.832 103.47L210.232 110.06L188.287 131.68L188.111 131.86L187.88 131.72L187.33 131.4C176.528 124.92 166.738 119.07 159.588 114.79L151.217 109.69L149.017 108.28C148.746 108.13 148.492 107.955 148.258 107.76C148.547 107.876 148.823 108.017 149.083 108.18L151.404 109.5C153.472 110.69 156.354 112.37 159.885 114.43L187.726 130.89L188.276 131.21H187.869C196.493 122.83 204.27 115.21 209.957 109.72L216.689 103.27C217.459 102.55 218.075 101.97 218.548 101.54C218.742 101.345 218.951 101.165 219.175 101Z" fill="#E0E0E0"/>
<path d="M154.055 152.62C153.901 152.53 158.455 145.87 164.186 137.76C169.917 129.65 174.702 123.15 174.856 123.25C175.01 123.35 170.456 129.99 164.725 138.11C158.994 146.23 154.198 152.71 154.055 152.62Z" fill="#E0E0E0"/>
<path d="M198.374 120.44C198.506 120.33 204.567 125.92 211.926 132.94C219.285 139.96 225.126 145.75 225.016 145.86C224.906 145.97 218.823 140.38 211.464 133.36C204.105 126.34 198.242 120.56 198.374 120.44Z" fill="#E0E0E0"/>
<path d="M126.39 91.02L87.1753 66.3301L105.699 41.3L144.914 65.9801L126.39 91.02Z" fill="#F5F5F5"/>
<path d="M144.815 66.3601C144.615 66.4172 144.408 66.4541 144.199 66.4701L142.439 66.6901L135.949 67.4201L114.455 69.6801H114.279V69.5301C114.279 69.4001 114.202 69.2701 114.158 69.1401L107.998 49.7501C107.25 47.2901 106.634 45.2901 106.205 43.8501L105.732 42.2501C105.666 42.0649 105.622 41.8738 105.6 41.6801C105.691 41.8538 105.764 42.0345 105.82 42.2201C105.952 42.6201 106.139 43.1501 106.359 43.8101C106.832 45.2301 107.459 47.2201 108.295 49.6601C109.901 54.6601 112.101 61.4901 114.521 69.0401L114.642 69.4201L114.422 69.2801L135.916 67.1301L142.428 66.5301L144.199 66.3901C144.403 66.3667 144.609 66.3567 144.815 66.3601Z" fill="#E0E0E0"/>
<path d="M87.0762 66.7101C87.0762 66.6101 92.5762 65.0301 99.3302 63.2001C106.084 61.3701 111.672 59.9601 111.705 60.0601C111.738 60.1601 106.205 61.7501 99.4402 63.5801C92.6752 65.4101 87.1092 66.8201 87.0762 66.7101Z" fill="#E0E0E0"/>
<path d="M124.971 68C125.092 68 125.477 73.23 125.851 79.7C126.225 86.17 126.412 91.43 126.291 91.44C126.17 91.45 125.774 86.21 125.411 79.74C125.048 73.27 124.85 68 124.971 68Z" fill="#E0E0E0"/>
<path d="M441.606 123.87C441.622 117.754 440.085 111.718 437.116 106.23C434.146 100.742 429.824 95.9515 424.485 92.2305C419.147 88.5094 412.935 85.9584 406.335 84.776C399.735 83.5936 392.923 83.8117 386.43 85.4133C379.938 87.0149 373.939 89.9568 368.902 94.0101C363.864 98.0634 359.923 103.119 357.386 108.783C354.848 114.447 353.783 120.567 354.272 126.666C354.761 132.766 356.792 138.68 360.206 143.95L360.327 144.1C361.999 146.67 364.1 148.51 366.223 151.21L391.6 181.78C392.338 182.665 393.291 183.382 394.384 183.876C395.478 184.37 396.682 184.627 397.903 184.627C399.124 184.627 400.329 184.37 401.422 183.876C402.516 183.382 403.469 182.665 404.206 181.78L429.176 151.71C431.446 149.269 433.565 146.715 435.523 144.06L435.6 144C439.547 137.899 441.621 130.948 441.606 123.87ZM397.881 141.18C394.074 141.18 390.352 140.154 387.186 138.231C384.021 136.308 381.553 133.575 380.096 130.377C378.639 127.179 378.258 123.661 379.001 120.266C379.744 116.871 381.577 113.753 384.269 111.306C386.961 108.858 390.392 107.192 394.126 106.516C397.86 105.841 401.73 106.188 405.248 107.512C408.765 108.837 411.772 111.08 413.887 113.958C416.002 116.835 417.131 120.219 417.131 123.68C417.131 128.321 415.103 132.773 411.493 136.054C407.883 139.336 402.987 141.18 397.881 141.18Z" fill="#F5F5F5"/>
<path d="M475.046 192.09C475.07 188.783 474.252 185.516 472.656 182.545C471.061 179.573 468.731 176.977 465.848 174.96C462.966 172.943 459.609 171.559 456.041 170.917C452.472 170.275 448.789 170.392 445.279 171.259C441.769 172.126 438.526 173.72 435.806 175.915C433.086 178.11 430.961 180.848 429.597 183.914C428.234 186.98 427.669 190.29 427.947 193.588C428.225 196.885 429.339 200.079 431.2 202.92L431.266 203C432.168 204.38 433.301 205.38 434.445 206.83L448.14 223.32C448.536 223.798 449.048 224.186 449.637 224.454C450.226 224.721 450.875 224.86 451.533 224.86C452.192 224.86 452.841 224.721 453.43 224.454C454.019 224.186 454.531 223.798 454.927 223.32L468.391 207.1C469.619 205.786 470.765 204.411 471.823 202.98V202.92C473.944 199.637 475.057 195.897 475.046 192.09ZM451.462 201.42C449.411 201.418 447.406 200.863 445.702 199.826C443.998 198.789 442.67 197.315 441.886 195.592C441.103 193.869 440.899 191.973 441.301 190.144C441.702 188.316 442.691 186.636 444.142 185.318C445.593 184.001 447.441 183.104 449.453 182.741C451.465 182.377 453.55 182.565 455.445 183.279C457.34 183.993 458.959 185.202 460.099 186.752C461.238 188.303 461.846 190.125 461.846 191.99C461.846 193.229 461.577 194.456 461.055 195.601C460.533 196.746 459.768 197.786 458.804 198.662C457.839 199.537 456.695 200.232 455.435 200.705C454.175 201.178 452.825 201.421 451.462 201.42Z" fill="#EBEBEB"/>
<path d="M518.507 463.77C518.507 463.92 409.475 464.03 275.011 464.03C140.547 464.03 31.4932 463.92 31.4932 463.77C31.4932 463.62 140.503 463.51 275.011 463.51C409.519 463.51 518.507 463.63 518.507 463.77Z" fill="#263238"/>
<path d="M208.285 118.94L215.523 212.14C216.097 219.474 219.707 226.338 225.627 231.349C231.546 236.359 239.335 239.143 247.423 239.14C251.801 239.141 256.133 238.324 260.149 236.74C264.166 235.156 267.782 232.839 270.772 229.933C273.763 227.026 276.066 223.592 277.537 219.843C279.007 216.095 279.616 212.111 279.323 208.14C278.685 199.27 278.102 192.01 278.102 192.01C278.102 192.01 302.929 188.5 303.237 165.94C303.413 152.94 300.938 123.34 298.837 100.69C298.143 93.3041 294.424 86.4242 288.417 81.4114C282.41 76.3986 274.552 73.6181 266.398 73.62H251.361C245.228 73.9452 239.23 75.3856 233.72 77.8561C228.211 80.3265 223.302 83.7768 219.286 88.0025C215.269 92.2283 212.226 97.1437 210.337 102.458C208.447 107.772 207.75 113.376 208.285 118.94Z" fill="#B78876"/>
<path d="M278.124 191.73C278.124 191.73 262.438 192.89 245.773 183.37C245.773 183.37 253.418 199.61 278.179 197.58L278.124 191.73Z" fill="#AA6550"/>
<path d="M291.082 128C291.091 128.84 290.738 129.651 290.099 130.258C289.46 130.865 288.585 131.221 287.661 131.25C287.211 131.283 286.758 131.233 286.329 131.104C285.9 130.975 285.503 130.77 285.163 130.499C284.823 130.229 284.545 129.9 284.347 129.531C284.149 129.162 284.034 128.76 284.009 128.35C284 127.51 284.35 126.7 284.987 126.092C285.624 125.483 286.496 125.124 287.419 125.09C287.871 125.057 288.325 125.107 288.756 125.237C289.186 125.366 289.583 125.572 289.925 125.844C290.266 126.115 290.544 126.445 290.743 126.816C290.942 127.186 291.057 127.589 291.082 128Z" fill="#263238"/>
<path d="M294.514 123.36C294.074 123.78 291.39 121.98 287.584 121.99C283.778 122 280.984 123.73 280.555 123.31C280.357 123.12 280.808 122.31 282.018 121.55C283.669 120.512 285.632 119.964 287.639 119.98C289.616 119.973 291.543 120.54 293.139 121.6C294.338 122.42 294.734 123.18 294.514 123.36Z" fill="#263238"/>
<path d="M253.869 128C253.878 128.84 253.526 129.651 252.886 130.258C252.247 130.865 251.372 131.221 250.448 131.25C249.998 131.283 249.545 131.233 249.116 131.104C248.687 130.975 248.29 130.77 247.95 130.499C247.61 130.229 247.332 129.9 247.134 129.531C246.936 129.162 246.821 128.76 246.796 128.35C246.787 127.509 247.139 126.697 247.778 126.088C248.417 125.479 249.292 125.121 250.217 125.09C250.668 125.059 251.121 125.11 251.55 125.24C251.979 125.37 252.376 125.576 252.716 125.847C253.056 126.118 253.333 126.448 253.531 126.818C253.729 127.188 253.844 127.589 253.869 128Z" fill="#263238"/>
<path d="M257.037 124C256.597 124.42 253.902 122.61 250.096 122.62C246.29 122.63 243.496 124.37 243.067 123.94C242.869 123.75 243.309 123 244.53 122.19C246.184 121.158 248.145 120.607 250.151 120.61C252.125 120.616 254.048 121.183 255.651 122.23C256.85 123.06 257.246 123.82 257.037 124Z" fill="#263238"/>
<path d="M270.875 149.72C270.875 149.52 273.229 149.15 277.068 148.72C278.036 148.62 278.96 148.45 279.125 147.84C279.209 146.927 278.983 146.012 278.476 145.22C277.567 143.08 276.606 140.833 275.594 138.48C271.601 128.88 268.697 120.99 269.126 120.85C269.555 120.71 273.141 128.37 277.145 137.96C278.106 140.333 279.026 142.597 279.906 144.75C280.269 145.75 280.907 146.89 280.401 148.22C280.263 148.532 280.047 148.811 279.77 149.035C279.493 149.259 279.163 149.422 278.806 149.51C278.269 149.649 277.714 149.72 277.156 149.72C273.284 149.9 270.886 149.92 270.875 149.72Z" fill="#263238"/>
<path d="M259.655 152.12C260.271 152.12 260.282 155.85 263.824 158.52C267.366 161.19 271.766 160.78 271.799 161.3C271.865 161.54 270.82 162.03 268.961 162.08C266.535 162.111 264.175 161.364 262.295 159.97C260.49 158.63 259.33 156.704 259.061 154.6C258.907 153 259.369 152.1 259.655 152.12Z" fill="#263238"/>
<path d="M258.016 110.42C257.642 111.42 253.836 110.92 249.359 111.42C244.882 111.92 241.263 113.02 240.669 112.17C240.405 111.77 241.032 110.88 242.495 109.97C244.44 108.853 246.64 108.152 248.927 107.922C251.213 107.692 253.528 107.937 255.695 108.64C257.4 109.24 258.181 110 258.016 110.42Z" fill="#263238"/>
<path d="M293.117 113.33C292.446 114.12 289.817 113.33 286.66 113.26C283.503 113.19 280.83 113.79 280.214 112.97C279.939 112.57 280.357 111.78 281.534 111.03C283.104 110.136 284.931 109.687 286.782 109.741C288.633 109.794 290.425 110.347 291.929 111.33C293.04 112.13 293.414 113 293.117 113.33Z" fill="#263238"/>
<path d="M216.7 135.87C216.271 135.7 199.65 131.29 200.2 146.71C200.75 162.13 217.657 158.46 217.679 158.01C217.701 157.56 216.7 135.87 216.7 135.87Z" fill="#B78876"/>
<path d="M212.234 152.32C212.157 152.32 211.948 152.52 211.453 152.74C210.762 153.031 209.975 153.07 209.253 152.85C207.438 152.3 205.843 149.76 205.656 146.98C205.572 145.659 205.808 144.338 206.349 143.11C206.497 142.619 206.774 142.168 207.158 141.796C207.541 141.425 208.019 141.145 208.549 140.98C208.887 140.889 209.248 140.908 209.572 141.034C209.895 141.16 210.16 141.385 210.32 141.67C210.562 142.09 210.463 142.4 210.551 142.43C210.639 142.46 210.914 142.16 210.749 141.52C210.64 141.143 210.392 140.811 210.045 140.58C209.809 140.425 209.542 140.315 209.259 140.255C208.976 140.195 208.682 140.186 208.395 140.23C207.704 140.377 207.065 140.682 206.539 141.116C206.014 141.55 205.619 142.098 205.392 142.71C204.723 144.069 204.425 145.554 204.523 147.04C204.743 150.15 206.591 153.04 209.066 153.58C209.527 153.688 210.009 153.699 210.475 153.615C210.942 153.53 211.381 153.35 211.761 153.09C212.212 152.7 212.3 152.35 212.234 152.32Z" fill="#AA6550"/>
<path d="M207.218 135.35C209.803 134.78 214.28 136.95 215.38 139.15C216.48 141.35 216.722 143.85 217.822 146.06C218.922 148.27 221.408 150.25 224.004 149.69C224.881 149.441 225.67 148.984 226.29 148.368C226.91 147.751 227.34 146.996 227.535 146.18C227.909 144.532 227.928 142.834 227.59 141.18C226.589 133.98 224.928 126.84 224.609 119.58C224.29 112.32 225.423 104.79 229.614 98.58C233.805 92.37 241.494 87.85 249.414 88.44C254.683 88.82 259.523 91.32 264.759 91.99C267.879 92.3651 271.051 92.0891 274.036 91.1829C277.021 90.2766 279.739 88.7641 281.985 86.76C282.557 86.25 285.197 84.66 285.197 84.66C285.197 84.29 284.812 81.07 283.415 79.89C273.02 71.16 254.298 68.72 240.57 71.89C226.842 75.06 213.972 83.89 208.065 95.53C202.158 107.17 203.918 123.53 207.174 135.33" fill="#263238"/>
<path d="M299.068 97.26C299.068 97.26 233.97 78.26 205.81 129.42C205.81 129.42 201.597 116.61 201.597 109.74C201.597 105.15 204.611 77.83 235.543 69.23C235.543 69.23 282.128 53.07 299.068 97.26Z" fill="#0E5D37"/>
<path d="M243.1 98.54C244.257 100.235 245.831 101.663 247.698 102.711C249.565 103.759 251.674 104.398 253.86 104.579C256.045 104.759 258.246 104.475 260.291 103.75C262.335 103.025 264.166 101.878 265.639 100.4C266.286 101.871 267.424 103.122 268.892 103.975C270.361 104.829 272.086 105.244 273.827 105.161C275.568 105.078 277.236 104.503 278.599 103.514C279.961 102.526 280.949 101.175 281.424 99.65C283.189 101.438 285.348 102.869 287.76 103.85C290.235 104.68 293.37 104.36 294.987 102.48C296.604 100.6 296.164 97.63 294.536 95.69C292.758 93.8556 290.483 92.4765 287.936 91.69C280.219 88.6047 271.738 87.4383 263.362 88.31C255.057 89.31 247.016 92.99 241.824 98.97" fill="#263238"/>
<g opacity="0.4">
<path d="M299.068 97.26C293.653 92.0718 286.227 89.0051 278.366 88.71C259.16 87.94 223.223 97.76 205.766 129.42C205.766 129.42 201.553 116.61 201.553 109.74C201.553 105.15 204.567 77.83 235.499 69.23C235.543 69.23 282.128 53.07 299.068 97.26Z" fill="#17191C"/>
</g>
<path d="M208.527 123.43C218.174 110 231.484 98.9 246.455 90.43C261.426 81.96 286.165 73.53 303.215 69.43C308.341 68.19 313.676 67.11 318.901 67.93C324.126 68.75 329.23 71.93 330.517 76.58C332.145 82.43 320.727 91.45 315.37 94.99C310.013 98.53 299.068 103.74 299.068 103.74C299.068 103.74 299.222 92.9 280.126 90.67C254.166 87.58 208.527 123.43 208.527 123.43Z" fill="black"/>
<path d="M261.921 79.2C261.921 79.2 271.293 74.48 280.72 73.38C279.146 72.2676 277.428 71.334 275.605 70.6C270.488 71.3689 265.541 72.8815 260.953 75.08L261.921 79.2Z" fill="#E0E0E0"/>
<path d="M314.754 211.46L294.107 207.32L285.703 205.41L278.707 195.55C278.707 195.55 275.407 213.18 262.878 222.67C261.182 223.932 259.193 224.828 257.062 225.292C254.93 225.757 252.71 225.776 250.569 225.35C247.742 224.81 244.42 224.15 241.956 223.55C241.428 223.42 240.856 223.25 240.24 223.05C231.182 219.992 223.636 214.076 218.977 206.38C216.205 201.9 213.862 197.3 214.665 195.55L204.864 214L147.114 238.18L114.323 311L177.87 328.08L179.85 388.08L167.882 463.72L347.655 463.83L341.275 295.54" fill="#0E5D37"/>
<path d="M268.279 276.61C267.913 276.637 267.545 276.637 267.179 276.61L263.978 276.54L252.549 276.17H252.329V276C252.142 271.49 251.911 266.15 251.658 260.44C251.361 252.21 251.097 244.77 250.888 239.3C250.822 236.64 250.767 234.47 250.723 232.89C250.723 232.18 250.723 231.6 250.723 231.15C250.695 230.948 250.695 230.743 250.723 230.54C250.774 230.737 250.8 230.938 250.8 231.14C250.8 231.6 250.877 232.14 250.921 232.88C251.009 234.46 251.13 236.63 251.273 239.28C251.515 244.75 251.845 252.19 252.208 260.41C252.428 266.13 252.626 271.47 252.802 275.98L252.56 275.77L263.989 276.32L267.179 276.51C267.549 276.507 267.918 276.54 268.279 276.61Z" fill="#263238"/>
<path d="M258.5 252.3C258.752 252.139 259.05 252.049 259.358 252.04C260.072 251.998 260.784 252.144 261.409 252.462C262.034 252.779 262.544 253.255 262.878 253.83C263.192 254.391 263.303 255.028 263.197 255.65C263.08 256.355 262.74 257.014 262.218 257.546C261.697 258.079 261.016 258.462 260.26 258.65C259.494 258.796 258.699 258.747 257.961 258.509C257.224 258.271 256.573 257.853 256.08 257.3C255.68 256.855 255.401 256.331 255.263 255.77C255.126 255.209 255.134 254.627 255.288 254.07C255.459 253.312 255.872 252.616 256.476 252.07C256.894 251.7 257.202 251.58 257.213 251.61C257.224 251.64 256.993 251.82 256.641 252.21C256.153 252.758 255.824 253.407 255.684 254.1C255.572 254.599 255.585 255.114 255.722 255.607C255.86 256.1 256.117 256.559 256.476 256.95C256.916 257.422 257.486 257.778 258.128 257.982C258.77 258.186 259.461 258.23 260.128 258.11C260.777 257.944 261.361 257.613 261.811 257.156C262.261 256.699 262.558 256.135 262.669 255.53C262.76 255.034 262.699 254.525 262.491 254.059C262.283 253.593 261.937 253.188 261.492 252.89C260.888 252.452 260.141 252.209 259.369 252.2C258.797 252.24 258.5 252.34 258.5 252.3Z" fill="#263238"/>
<path d="M256.553 231.17C256.807 230.967 257.12 230.835 257.455 230.79C258.368 230.615 259.32 230.742 260.139 231.15C260.72 231.419 261.216 231.818 261.58 232.31C262.003 232.886 262.215 233.568 262.185 234.26C262.15 235.049 261.855 235.81 261.336 236.443C260.818 237.076 260.102 237.553 259.281 237.81C258.441 238.005 257.557 237.971 256.739 237.711C255.921 237.451 255.206 236.978 254.683 236.35C254.219 235.808 253.939 235.155 253.88 234.47C253.846 233.88 253.951 233.29 254.188 232.74C254.529 231.957 255.134 231.292 255.915 230.84C256.187 230.655 256.511 230.544 256.85 230.52C256.85 230.52 256.531 230.67 256.047 231.01C255.366 231.486 254.854 232.133 254.573 232.87C254.352 233.398 254.285 233.969 254.377 234.528C254.47 235.087 254.719 235.614 255.101 236.06C255.565 236.599 256.192 237.004 256.905 237.226C257.617 237.448 258.385 237.477 259.116 237.31C259.824 237.082 260.443 236.669 260.895 236.123C261.347 235.577 261.612 234.922 261.657 234.24C261.686 233.68 261.542 233.123 261.24 232.633C260.939 232.144 260.493 231.741 259.952 231.47C259.212 231.074 258.352 230.906 257.499 230.99C256.894 231.06 256.575 231.21 256.553 231.17Z" fill="#263238"/>
<path d="M250.701 311.88C250.701 311.88 250.789 311.83 250.976 311.77L251.801 311.48C252.538 311.25 253.583 310.83 254.914 310.27C258.631 308.566 262.043 306.361 265.034 303.73C269.431 299.793 273.318 295.411 276.617 290.67C280.743 284.906 284.511 278.937 287.903 272.79C294.003 261.586 299.355 250.059 303.93 238.27C305.723 233.75 307.12 230.08 308.099 227.55L309.199 224.63C309.32 224.33 309.43 224.08 309.507 223.88C309.538 223.793 309.579 223.71 309.628 223.63C309.62 223.722 309.598 223.813 309.562 223.9C309.496 224.1 309.408 224.35 309.309 224.67C309.056 225.38 308.715 226.36 308.286 227.67C307.373 230.22 306.031 233.91 304.271 238.44C299.814 250.261 294.516 261.805 288.409 273C285.009 279.164 281.218 285.144 277.057 290.91C273.719 295.677 269.776 300.07 265.309 304C262.27 306.627 258.796 308.804 255.013 310.45C253.978 310.882 252.917 311.259 251.834 311.58L250.987 311.82C250.896 311.853 250.799 311.873 250.701 311.88Z" fill="#263238"/>
<path d="M288.574 291.91C289.047 291.91 299.992 291.23 299.992 291.23C299.992 291.23 295.471 298.49 290.763 301.23H281.182L288.574 291.91Z" fill="#FAFAFA"/>
<path d="M248.787 333.87C248.975 333.707 249.181 333.562 249.403 333.44L251.251 332.28C252.846 331.28 255.145 329.78 257.906 327.85C263.406 324.02 270.732 318.3 278.564 311.76C282.48 308.49 286.264 305.41 289.498 302.45C292.4 299.855 295.095 297.074 297.561 294.13C299.216 292.144 300.688 290.037 301.961 287.83C302.445 287.06 302.742 286.43 302.973 286.01C303.078 285.789 303.207 285.578 303.358 285.38C303.288 285.61 303.196 285.834 303.083 286.05C302.885 286.48 302.61 287.13 302.159 287.92C300.951 290.177 299.518 292.329 297.88 294.35C295.447 297.344 292.766 300.166 289.861 302.79C286.616 305.79 282.854 308.88 278.938 312.14C271.106 318.68 263.769 324.38 258.148 328.14C255.343 330.03 253 331.47 251.372 332.44C250.547 332.92 249.898 333.27 249.458 333.52C249.25 333.659 249.025 333.777 248.787 333.87Z" fill="#263238"/>
<path d="M217.943 445C217.943 445 217.943 444.91 218.075 444.76C218.207 444.61 218.35 444.37 218.526 444.1C218.933 443.53 219.549 442.69 220.374 441.63C222.024 439.53 224.576 436.57 227.942 433.09C234.718 426.18 244.211 416.75 254.661 406.31L281.6 379.62L289.795 371.62L291.995 369.45L292.589 368.9L292.809 368.72C292.809 368.72 292.754 368.8 292.633 368.93L292.083 369.52L289.883 371.76L281.82 379.91L255.09 406.63L228.25 433.31C224.851 436.75 222.255 439.66 220.55 441.72C219.703 442.72 219.054 443.57 218.625 444.13L218.13 444.76C218.075 444.844 218.013 444.925 217.943 445Z" fill="#263238"/>
<path d="M313.324 211C314.27 212.29 335.522 214.44 340.725 219.16C345.928 223.88 397.925 259.96 397.925 259.96L360.866 305.3L336.952 300.51L313.324 211Z" fill="#0E5D37"/>
<path opacity="0.4" d="M391.622 255.56L350.075 303.14L360.866 305.3L397.881 259.91L391.622 255.56Z" fill="black"/>
<path d="M324.643 258.2C324.457 257.684 324.314 257.156 324.214 256.62C324.093 256.11 323.95 255.48 323.851 254.74C323.752 254 323.587 253.16 323.532 252.22C323.477 251.28 323.367 250.22 323.367 249.15C323.367 248.08 323.367 246.87 323.466 245.63C323.68 242.933 324.14 240.257 324.841 237.63C325.59 235.016 326.58 232.463 327.8 230C328.383 228.88 328.9 227.8 329.527 226.84C330.154 225.88 330.693 224.99 331.254 224.2C331.815 223.41 332.354 222.73 332.838 222.12C333.238 221.597 333.668 221.093 334.125 220.61C334.485 220.176 334.887 219.771 335.324 219.4C335.024 219.868 334.682 220.313 334.301 220.73C333.96 221.15 333.542 221.66 333.102 222.29C332.662 222.92 332.101 223.59 331.595 224.4C331.089 225.21 330.495 226.07 329.945 227.05C329.395 228.03 328.845 229.05 328.284 230.19C327.126 232.643 326.177 235.174 325.446 237.76C324.761 240.354 324.294 242.992 324.049 245.65C323.972 246.88 323.873 248.05 323.906 249.14C323.939 250.23 323.906 251.25 323.994 252.14C324.082 253.03 324.148 253.91 324.225 254.65C324.302 255.39 324.401 256.02 324.489 256.53C324.6 257.081 324.651 257.64 324.643 258.2Z" fill="#263238"/>
<path d="M341.275 295.48C339.572 292.477 338.041 289.397 336.688 286.25C335.156 283.175 333.797 280.031 332.618 276.83C334.322 279.83 335.856 282.908 337.216 286.05C338.751 289.126 340.106 292.274 341.275 295.48Z" fill="#263238"/>
<path d="M177.87 262.54C177.782 262.54 176.891 261.09 175.208 258.84C173.012 255.909 170.499 253.186 167.706 250.71C164.899 248.253 161.834 246.052 158.554 244.14C156.024 242.68 154.363 241.92 154.407 241.84C154.829 241.946 155.235 242.097 155.617 242.29C156.694 242.755 157.744 243.269 158.763 243.83C162.147 245.663 165.285 247.848 168.113 250.34C170.932 252.84 173.427 255.624 175.549 258.64C176.352 259.8 176.957 260.76 177.331 261.45C177.559 261.792 177.74 262.158 177.87 262.54Z" fill="#263238"/>
<path opacity="0.4" d="M114.323 310.97L116.886 305.3L187.176 322.7L184.393 329.81L114.323 310.97Z" fill="black"/>
<path d="M301.972 288.56H328.735V298.56L294.492 298.36C294.492 298.36 299.783 292.57 301.972 288.56Z" fill="#FAFAFA"/>
<g opacity="0.2">
<path d="M206.514 216.2C207.482 224 208.538 232.05 212.784 238.89C217.03 245.73 225.335 251.12 233.882 249.97C239.58 249.2 244.409 245.74 248.292 241.86C252.175 237.98 255.431 233.59 259.666 230.04C262.227 232.547 265.091 234.785 268.202 236.71C271.346 238.646 275.12 239.552 278.905 239.28C282.634 238.87 284.691 237.52 285.868 234.28C281.886 235.4 279.697 235.23 275.726 234.54C271.341 233.776 267.224 232.061 263.725 229.54C261.393 227.87 260.546 225.36 257.587 225.54C254.848 225.68 252.703 227.65 250.899 229.54C247.987 232.571 244.792 235.368 241.351 237.9C238.051 240.27 234.861 241.9 230.659 241.79C223.74 241.65 218.075 236.71 214.258 231.46C210.735 226.62 208.132 221.275 206.558 215.65" fill="black"/>
</g>
<path d="M287.518 206.47C287.581 206.652 287.621 206.84 287.639 207.03C287.639 207.4 287.771 207.94 287.848 208.64C288.013 210.04 288.178 212.07 288.244 214.64C288.393 221.214 287.702 227.781 286.187 234.21V234.37V234.53H286.022C282.111 235.363 278.03 235.263 274.175 234.24C271.022 233.474 268.043 232.208 265.375 230.5C263.569 229.384 261.95 228.037 260.568 226.5C260.196 226.085 259.851 225.651 259.534 225.2C259.411 225.046 259.304 224.882 259.215 224.71C261.009 226.843 263.162 228.706 265.595 230.23C268.249 231.86 271.187 233.07 274.285 233.81C278.057 234.779 282.038 234.865 285.857 234.06L285.648 234.25V234.09C287.146 227.694 287.883 221.17 287.848 214.63C287.848 212.12 287.727 210.09 287.639 208.68C287.639 208.03 287.562 207.5 287.529 207.07C287.493 206.872 287.49 206.669 287.518 206.47Z" fill="#263238"/>
<path d="M254.1 226.2C254.013 226.413 253.894 226.615 253.748 226.8C253.38 227.355 252.976 227.889 252.538 228.4C250.895 230.263 249.085 231.999 247.126 233.59C245.905 234.59 244.53 235.7 243.045 236.84C242.297 237.41 241.549 238.01 240.713 238.61C239.852 239.201 238.944 239.732 237.996 240.2C235.96 241.221 233.712 241.844 231.396 242.03C228.869 242.225 226.337 241.716 224.136 240.57C221.994 239.41 220.073 237.941 218.449 236.22C216.909 234.661 215.477 233.018 214.159 231.3C211.938 228.384 210.061 225.264 208.56 221.99C207.554 219.789 206.731 217.523 206.096 215.21C205.865 214.39 205.722 213.75 205.634 213.31C205.573 213.091 205.536 212.866 205.524 212.64C205.625 212.848 205.698 213.066 205.744 213.29C205.876 213.72 206.052 214.35 206.305 215.16C207.027 217.438 207.905 219.672 208.934 221.85C210.475 225.074 212.373 228.146 214.599 231.02C215.911 232.715 217.336 234.334 218.867 235.87C220.438 237.545 222.295 238.98 224.367 240.12C226.472 241.213 228.892 241.701 231.308 241.52C233.557 241.344 235.743 240.752 237.732 239.78C238.665 239.33 239.559 238.815 240.405 238.24C241.208 237.68 241.978 237.07 242.726 236.51C244.222 235.38 245.608 234.32 246.84 233.32C248.806 231.779 250.644 230.107 252.34 228.32C252.923 227.68 253.352 227.15 253.638 226.79C253.773 226.582 253.927 226.384 254.1 226.2Z" fill="#263238"/>
<path d="M230.406 341.1L238.887 329.86C238.887 329.86 244.717 311.44 243.925 308.86C243.133 306.28 240.559 296.68 241.164 296.56C241.769 296.44 248.116 294.3 251.559 302C253.704 306.8 254.408 313.12 254.639 317.2C254.664 317.704 254.81 318.197 255.065 318.645C255.32 319.094 255.679 319.486 256.117 319.796C256.555 320.106 257.062 320.326 257.602 320.44C258.143 320.555 258.705 320.562 259.248 320.46C265.111 319.36 274.868 317.69 277.189 318.2C280.555 318.93 283.569 322.83 283.855 324.14C284.141 325.45 281.831 328.4 281.831 328.4C281.831 328.4 284.691 329.73 285.571 331.74C285.692 332.01 285.791 332.28 285.879 332.54C286.148 333.346 286.18 334.201 285.974 335.022C285.768 335.843 285.329 336.6 284.702 337.22L283.8 338.12C283.8 338.12 287.375 339.01 287.815 340.87C288.054 342.228 288.013 343.615 287.694 344.96L284.339 348.11C285.274 348.903 285.887 349.96 286.077 351.11C286.253 352.83 281.226 357.11 281.226 357.11L259.655 364.11L251.097 366.11L230.406 341.1Z" fill="#B78876"/>
<path d="M281.897 328.42C279.432 329.023 276.936 329.514 274.417 329.89C271.943 330.44 269.439 330.874 266.915 331.19C267.591 330.89 268.303 330.665 269.038 330.52C270.369 330.18 272.228 329.76 274.307 329.38C276.386 329 278.267 328.72 279.653 328.56C280.391 328.422 281.146 328.375 281.897 328.42Z" fill="#AA6550"/>
<path d="M283.866 338.12C282.033 338.902 280.121 339.521 278.157 339.97C276.251 340.592 274.284 341.047 272.283 341.33C274.117 340.548 276.028 339.929 277.992 339.48C279.898 338.858 281.865 338.403 283.866 338.12Z" fill="#AA6550"/>
<path d="M285.153 347.69C283.221 348.742 281.193 349.642 279.092 350.38C277.068 351.281 274.963 352.024 272.8 352.6C274.733 351.548 276.76 350.648 278.861 349.91C280.886 349.009 282.99 348.266 285.153 347.69Z" fill="#AA6550"/>
<path d="M180.708 410.56L260.04 362.18L240.02 329.18L167.618 363.03L175.835 327.47L126.698 314.25L114.4 375.15C112.508 402.23 136.4 424.09 165.198 416.98C170.718 415.623 175.957 413.454 180.708 410.56Z" fill="#B78876"/>
<path d="M157.135 382.17C156.992 381.881 156.899 381.574 156.86 381.26C156.697 380.418 156.605 379.565 156.585 378.71C156.544 375.865 157.245 373.051 158.631 370.5C160.037 367.955 162.092 365.754 164.626 364.08C165.381 363.571 166.184 363.122 167.024 362.74C167.326 362.58 167.652 362.462 167.992 362.39C167.992 362.48 166.705 363.05 164.868 364.39C162.463 366.098 160.507 368.272 159.145 370.755C157.782 373.238 157.047 375.966 156.992 378.74C156.937 380.84 157.3 382.16 157.135 382.17Z" fill="#AA6550"/>
<path d="M360.866 305.3C361.361 304.68 417.362 335.7 417.362 335.7L435.314 410.05L461.153 418.67C461.153 418.67 469.216 335.93 463.078 323.05C456.94 310.17 394.713 263.83 394.713 263.83L360.866 305.3Z" fill="#B78876"/>
<path d="M429.594 330C428.347 331.705 426.688 333.128 424.743 334.16C422.899 335.34 420.786 336.126 418.561 336.46C420.571 335.641 422.531 334.727 424.435 333.72C426.23 332.569 427.952 331.327 429.594 330Z" fill="#AA6550"/>
<path d="M293.513 305.46L297.902 376.82L387.398 371.32L384.692 318.2L371.657 302.25L293.513 305.46Z" fill="#263238"/>
<path d="M273.174 378.41C273.438 379.78 281.039 444.41 281.039 444.41L414.238 436L436.777 433.25L426.382 373.07L410.465 369.6L273.174 378.41Z" fill="#E6E2FF"/>
<path opacity="0.4" d="M410.465 369.59L273.174 378.41C273.438 379.78 281.039 444.41 281.039 444.41L419.716 435.64L410.465 369.59Z" fill="black"/>
<path d="M373.978 372.14L297.902 376.82L293.513 305.46L371.657 302.25L373.978 372.14Z" fill="#455A64"/>
<path d="M321.882 304.3L323.488 326.29L327.558 324.17L329.813 326.29L332.618 324.17L336.952 326.29V303.68L321.882 304.3Z" fill="#263238"/>
<path d="M353.683 373.64L348.48 320.08L399.333 332.82L404.239 369.79L353.683 373.64Z" fill="white"/>
<path d="M399.3 332.83C399.21 332.967 399.103 333.095 398.981 333.21L398.002 334.26L394.262 338.14L381.271 351.39L381.073 351.59L380.864 351.4L374 344.8L355.883 327.4L350.438 322.08L348.975 320.62C348.794 320.458 348.635 320.277 348.502 320.08C348.703 320.218 348.891 320.372 349.063 320.54L350.603 321.94L356.169 327.14L374.407 344.44L381.315 351.05H380.908L394.108 337.92L397.969 334.14L399.014 333.14C399.097 333.028 399.193 332.924 399.3 332.83Z" fill="#263238"/>
<path d="M370.821 342.75C370.964 342.82 367.334 349.14 362.725 356.87C358.116 364.6 354.266 370.81 354.123 370.74C353.98 370.67 357.61 364.35 362.219 356.62C366.828 348.89 370.7 342.68 370.821 342.75Z" fill="#263238"/>
<path d="M403.051 369.79C402.919 369.86 399.399 364.74 395.186 358.36C390.973 351.98 387.662 346.73 387.805 346.65C387.948 346.57 391.457 351.7 395.67 358.09C399.883 364.48 403.194 369.72 403.051 369.79Z" fill="#263238"/>
<path d="M380.996 371.55L377.674 337.44L410.058 345.56L413.182 369.1L380.996 371.55Z" fill="#F06D06"/>
<path opacity="0.4" d="M380.996 371.55L377.674 337.44L410.058 345.56L413.182 369.1L380.996 371.55Z" fill="white"/>
<path d="M410.058 345.56C409.827 345.895 409.558 346.206 409.255 346.49C408.65 347.14 407.858 347.97 406.901 348.98L398.651 357.44L398.453 357.65L398.244 357.45L393.844 353.25C389.323 348.94 385.253 345.01 382.327 342.15L378.895 338.74C378.451 338.339 378.046 337.904 377.685 337.44C378.174 337.792 378.63 338.18 379.049 338.6L382.624 341.89C385.627 344.69 389.741 348.58 394.262 352.89L398.662 357.1H398.2L406.593 348.76L409.079 346.37C409.377 346.072 409.704 345.801 410.058 345.56Z" fill="#263238"/>
<path d="M391.908 351.88C392.04 351.95 389.774 355.99 386.837 360.88C385.152 363.896 383.294 366.83 381.271 369.67C382.784 366.592 384.473 363.588 386.331 360.67C388.017 357.652 389.879 354.718 391.908 351.88Z" fill="#263238"/>
<path d="M412.434 369.1C410.575 366.785 408.87 364.371 407.33 361.87C405.622 359.457 404.082 356.949 402.721 354.36C406.272 359.097 409.515 364.019 412.434 369.1Z" fill="#263238"/>
<path d="M401.632 344.12V346.86L406.362 347.36L406.615 345.27L401.632 344.12Z" fill="white"/>
<path d="M384.934 330.21V334.21L393.866 335.55L394.361 332.49L384.934 330.21Z" fill="white"/>
<path d="M350.075 393.58L349.635 373.64L331.848 374.73L333.751 394.99L350.075 393.58Z" fill="black"/>
<path d="M408.079 404.056L378.216 406.632L380.722 430.644L410.585 428.068L408.079 404.056Z" fill="#FAFAFA"/>
<path d="M410.542 428.1C410.505 427.948 410.48 427.795 410.465 427.64C410.465 427.31 410.366 426.88 410.3 426.34C410.168 425.18 409.97 423.53 409.728 421.46C409.255 417.24 408.628 411.28 407.792 404.11L408.056 404.31L378.213 406.92C378.147 406.98 378.697 406.39 378.466 406.64V406.82V407.03V407.43L378.554 408.25L378.719 409.87C378.84 410.94 378.95 412 379.06 413.06C379.269 415.17 379.489 417.23 379.698 419.25C380.105 423.25 380.501 427.1 380.853 430.63L380.578 430.43L402.127 428.69L408.243 428.22L409.882 428.11C410.076 428.096 410.271 428.096 410.465 428.11C410.295 428.146 410.122 428.17 409.948 428.18L408.364 428.35L402.314 428.93L380.633 430.93H380.38V430.7C379.995 427.16 379.588 423.34 379.159 419.32C378.954 417.32 378.737 415.257 378.51 413.13C378.4 412.07 378.29 411.01 378.18 409.93C378.125 409.4 378.07 408.86 378.004 408.32L377.927 407.5V407.1V406.89V406.71C377.696 406.96 378.235 406.36 378.191 406.42L408.045 403.89H408.287V404.11C408.991 411.34 409.574 417.36 409.992 421.62C410.179 423.67 410.322 425.3 410.432 426.46C410.432 426.99 410.509 427.41 410.531 427.73C410.544 427.853 410.548 427.977 410.542 428.1Z" fill="#263238"/>
<path d="M405.702 409.84C405.702 409.99 400.499 410.6 394.042 411.22C390.155 411.685 386.246 411.972 382.327 412.08C382.327 411.94 387.53 411.32 393.987 410.7C400.444 410.08 405.691 409.7 405.702 409.84Z" fill="#263238"/>
<path d="M405.526 413.92C404.489 414.26 403.416 414.504 402.325 414.65C400.323 415.01 397.54 415.43 394.449 415.76C391.358 416.09 388.531 416.27 386.496 416.33C385.399 416.42 384.294 416.42 383.196 416.33C384.284 416.135 385.388 416.021 386.496 415.99C388.52 415.82 391.314 415.59 394.394 415.26C397.474 414.93 400.257 414.57 402.27 414.26C403.345 414.073 404.433 413.96 405.526 413.92Z" fill="#263238"/>
<path d="M406.791 422.84C405.749 423.177 404.673 423.421 403.579 423.57C401.577 423.93 398.794 424.35 395.703 424.68C392.612 425.01 389.796 425.19 387.75 425.25C386.653 425.347 385.548 425.347 384.45 425.25C385.538 425.054 386.642 424.941 387.75 424.91C389.774 424.75 392.579 424.51 395.659 424.18C398.739 423.85 401.522 423.49 403.535 423.18C404.61 422.993 405.698 422.879 406.791 422.84Z" fill="#263238"/>
<path d="M405.284 418.27C401.694 419.008 398.062 419.569 394.405 419.95C390.764 420.512 387.092 420.899 383.405 421.11C386.998 420.384 390.629 419.823 394.284 419.43C397.927 418.874 401.598 418.487 405.284 418.27Z" fill="#263238"/>
<path d="M431.651 455.46C431.651 455.46 456.236 440.67 458.128 433.11C460.02 425.55 461.153 418.67 461.153 418.67L434.885 408.78L437.492 417.38C437.492 417.38 428.076 422.47 427.108 428.64C426.47 432.75 414.293 439.79 414.293 439.79C413.28 438.677 411.991 437.799 410.532 437.227C409.073 436.655 407.485 436.406 405.9 436.5L395.67 437.16L402.589 451.33L431.651 455.46Z" fill="#B78876"/>
<path d="M441.254 435.19C440.897 435.388 440.507 435.534 440.099 435.62C439.329 435.85 438.185 436.08 436.799 436.48C435.234 436.986 433.787 437.752 432.531 438.74C430.948 439.967 429.177 440.978 427.273 441.74C423.751 443.104 419.841 443.402 416.119 442.59C415.465 442.475 414.837 442.262 414.26 441.96C414.023 441.838 413.832 441.656 413.71 441.435C413.589 441.214 413.543 440.965 413.578 440.72C413.596 440.568 413.656 440.422 413.752 440.297C413.848 440.171 413.978 440.069 414.128 440C414.348 439.93 414.469 440 414.469 440C414.469 440 414.348 440 414.183 440.11C414.068 440.186 413.973 440.285 413.906 440.399C413.84 440.514 413.802 440.641 413.798 440.77C413.777 440.976 413.827 441.183 413.942 441.362C414.056 441.541 414.229 441.684 414.436 441.77C414.998 442.021 415.599 442.193 416.218 442.28C419.857 442.954 423.636 442.605 427.053 441.28C428.914 440.527 430.647 439.537 432.201 438.34C433.518 437.345 435.035 436.592 436.667 436.12C438.075 435.76 439.219 435.59 439.967 435.41C440.389 435.306 440.819 435.232 441.254 435.19Z" fill="#AA6550"/>
<path d="M424.226 446.66C424.226 446.74 422.961 446.08 420.871 445.29C418.147 444.277 415.275 443.627 412.346 443.36C411.488 443.28 410.641 443.26 409.827 443.24H409.673L409.585 443.12C408.312 441.308 406.777 439.66 405.02 438.22C403.689 437.13 402.82 436.57 402.82 436.51C402.82 436.45 403.084 436.59 403.502 436.83C404.096 437.179 404.668 437.556 405.218 437.96C407.094 439.35 408.716 441 410.025 442.85L409.794 442.73C410.63 442.73 411.488 442.73 412.368 442.85C415.356 443.112 418.274 443.825 421.003 444.96C421.825 445.3 422.622 445.688 423.39 446.12C423.698 446.259 423.98 446.441 424.226 446.66Z" fill="#AA6550"/>
<path d="M430.87 442.6C430.87 442.74 429.209 443.31 427.273 444.31C425.337 445.31 423.918 446.36 423.808 446.24C425.624 444.316 428.122 443.028 430.87 442.6Z" fill="#AA6550"/>
<path d="M444.191 416C444.191 416.16 442.475 416 440.517 416.45C438.559 416.9 437.217 417.82 437.063 417.69C437.973 416.85 439.116 416.249 440.371 415.951C441.626 415.654 442.946 415.67 444.191 416Z" fill="#AA6550"/>
<path d="M85.5467 407.47C88.7807 410.97 94.2477 409.28 96.6127 406.79C98.9777 404.3 99.7477 400.92 100.441 397.69C102.003 390.31 103.565 382.58 101.145 375.39C100.52 373.202 99.2455 371.213 97.4597 369.64C96.556 368.869 95.4451 368.327 94.2385 368.069C93.0319 367.811 91.7719 367.846 90.5847 368.17C87.8347 369.07 86.3277 371.72 85.3047 374.17C82.272 381.505 81.077 389.362 81.8067 397.17C82.1477 400.81 82.9947 404.58 85.5467 407.4" fill="#0E5D37"/>
<g opacity="0.2">
<path d="M85.5467 407.47C88.7807 410.97 94.2477 409.28 96.6127 406.79C98.9777 404.3 99.7477 400.92 100.441 397.69C102.003 390.31 103.565 382.58 101.145 375.39C100.52 373.202 99.2455 371.213 97.4597 369.64C96.556 368.869 95.4451 368.327 94.2385 368.069C93.0319 367.811 91.7719 367.846 90.5847 368.17C87.8347 369.07 86.3277 371.72 85.3047 374.17C82.272 381.505 81.077 389.362 81.8067 397.17C82.1477 400.81 82.9947 404.58 85.5467 407.4" fill="black"/>
</g>
<path d="M98.1636 425.5C102.652 422.91 108.163 422.17 113.454 422.5C116.303 422.7 119.295 423.22 121.396 424.98C123.497 426.74 124.179 430.08 122.155 431.9C120.827 432.885 119.161 433.416 117.447 433.4C113.355 433.69 108.757 433.4 105.721 435.91C103.983 437.33 102.949 439.55 100.782 440.36C99.6913 440.683 98.5149 440.676 97.4296 440.338C96.3444 440.001 95.4091 439.352 94.7646 438.49C93.5162 436.71 93.071 434.561 93.5216 432.49C93.6546 431.079 94.1424 429.716 94.9473 428.504C95.7521 427.292 96.8526 426.264 98.1636 425.5Z" fill="#0E5D37"/>
<path d="M78.1768 413.47C80.9708 409.85 81.0808 404.89 79.2768 400.78C77.4728 396.67 73.9748 393.35 70.0808 390.71C65.4715 387.607 60.2404 385.352 54.6808 384.07C52.5222 383.478 50.249 383.315 48.0148 383.59C46.918 383.755 45.8808 384.158 44.9907 384.763C44.1006 385.369 43.3835 386.16 42.8998 387.07C41.6348 389.85 43.4168 392.96 45.2648 395.46C48.5162 399.868 52.1387 404.041 56.0998 407.94C59.3008 411.07 62.9198 414.12 67.4408 415.29C71.9618 416.46 76.4828 415.9 78.5398 412.96" fill="#0E5D37"/>
<path d="M90.882 463.78C90.9768 463.211 91.0063 462.635 90.97 462.06C90.97 460.82 90.97 459.26 90.97 457.4C90.9986 455.097 91.1601 452.797 91.454 450.51C91.8501 447.724 92.4939 444.972 93.379 442.28C94.2356 439.593 95.5098 437.03 97.163 434.67C98.5083 432.747 100.308 431.121 102.432 429.91C103.871 429.106 105.442 428.515 107.085 428.16C107.709 428.079 108.323 427.949 108.922 427.77C108.288 427.743 107.653 427.783 107.03 427.89C105.312 428.155 103.659 428.693 102.146 429.48C99.9039 430.68 97.9957 432.332 96.569 434.31C94.8468 436.712 93.5201 439.329 92.631 442.08C91.7372 444.812 91.1042 447.609 90.739 450.44C90.482 452.749 90.3755 455.07 90.42 457.39C90.42 459.39 90.552 460.97 90.629 462.07C90.641 462.647 90.7259 463.221 90.882 463.78Z" fill="#263238"/>
<path d="M90.8818 460.19C90.911 459.927 90.911 459.663 90.8818 459.4C90.8818 458.81 90.7498 458.06 90.6618 457.15C90.4638 455.2 90.1888 452.37 89.9578 448.87C89.4628 441.87 89.1768 432.19 89.4078 421.5C89.6388 410.81 90.4198 401.14 91.3108 394.18C91.5088 392.43 91.7178 390.86 91.9378 389.48C92.1578 388.1 92.3118 386.91 92.4878 385.95C92.6638 384.99 92.7518 384.3 92.8508 383.71C92.9087 383.45 92.9345 383.185 92.9278 382.92C92.8119 383.166 92.7341 383.425 92.6968 383.69C92.5648 384.27 92.3998 385 92.1908 385.9C91.9818 386.8 91.7508 388.05 91.5088 389.43C91.2668 390.81 91.0028 392.37 90.7608 394.12C89.5145 403.202 88.8058 412.339 88.6378 421.49C88.4068 432.2 88.7698 441.91 89.4078 448.91C89.7048 452.41 90.0678 455.24 90.3648 457.18C90.5078 458.09 90.6398 458.83 90.7278 459.42C90.7499 459.681 90.8015 459.939 90.8818 460.19Z" fill="#263238"/>
<path d="M89.0997 441.55C89.0895 440.762 89.0085 439.976 88.8577 439.2C88.6047 437.7 88.1647 435.54 87.4387 432.9C86.5619 429.818 85.4969 426.784 84.2487 423.81C82.7452 420.156 80.9587 416.604 78.9027 413.18C75.2909 406.861 70.4454 401.193 64.6027 396.45C63.5845 395.644 62.5157 394.893 61.4017 394.2C60.9177 393.89 60.4887 393.58 60.0487 393.34L58.8387 392.71C58.1019 392.297 57.3336 391.933 56.5397 391.62C56.4297 391.78 59.8397 393.24 64.2397 396.83C69.9024 401.628 74.6232 407.269 78.1987 413.51C80.2479 416.896 82.0521 420.4 83.5997 424C85.0517 427.32 86.1077 430.39 86.8997 433C87.6917 435.61 88.2087 437.74 88.5497 439.22C88.6626 440.009 88.8466 440.788 89.0997 441.55Z" fill="#263238"/>
</svg>
