<svg width="190" height="53" viewBox="0 0 190 53" fill="none" xmlns="http://www.w3.org/2000/svg">
<path d="M0 25C0 11.1929 11.1929 0 25 0H140C167.614 0 190 22.3858 190 50V50H25C11.1929 50 0 38.8071 0 25V25Z" fill="black" fill-opacity="0.1"/>
<g filter="url(#filter0_d_3833_1599)">
<path d="M41.0965 28.6351V30.4402H32V19H34.7297V28.6351H41.0965Z" fill="white"/>
</g>
<g filter="url(#filter1_d_3833_1599)">
<path d="M51.714 28.3323V30.1374H42.3125V19H51.4605L51.4209 20.8051H44.7372V23.5148L51.1039 23.4793V25.3238H44.7372V28.3323H51.714Z" fill="white"/>
</g>
<g filter="url(#filter2_d_3833_1599)">
<path d="M61.7215 28.6981V30.4402H52.6211V19H55.0497L54.9824 28.6351L61.7215 28.6981Z" fill="white"/>
</g>
<g filter="url(#filter3_d_3833_1599)">
<path d="M71.7298 28.6981V30.4402H62.6294V19H65.058L64.9907 28.6351L71.7298 28.6981Z" fill="white"/>
</g>
<g filter="url(#filter4_d_3833_1599)">
<path d="M95.992 28.6981V30.4402H86.8916V19H89.3202L89.2529 28.6351L95.992 28.6981Z" fill="white"/>
</g>
<g filter="url(#filter5_d_3833_1599)">
<path d="M106 28.6981V30.4402H96.9038V19H99.3285L99.2611 28.6351L106 28.6981Z" fill="white"/>
</g>
<g filter="url(#filter6_d_3833_1599)">
<path d="M80.5129 19H77.9654L72.3237 30.4402H74.7009L76.0598 27.4278H82.3037L83.7696 30.4402H86.0358L80.5129 19ZM77.1136 25.9255L79.158 21.5052L81.2578 25.9255H77.1136Z" fill="white"/>
</g>
<g filter="url(#filter7_d_3833_1599)">
<path d="M49.7226 15L47.179 17.4068H45L47.2702 15H49.7226Z" fill="#F06D06"/>
</g>
<g filter="url(#filter8_d_3833_1599)">
<path d="M141.869 23.557L141.733 23.358C140.924 22.1197 140.117 20.8894 139.31 19.667C139.211 19.5158 139.088 19.3778 138.976 19.2318C138.78 18.9665 138.783 18.8312 139.059 18.664C139.712 18.2686 140.37 17.8679 141.053 17.523C142.046 17.0135 143.047 16.5041 144.153 16.2705C146.131 15.8566 148.048 15.9336 149.833 17.0056C150.964 17.6918 151.917 18.6304 152.617 19.7466C153.522 21.1649 154.084 22.7714 154.258 24.4406C154.542 26.5692 154.157 28.7328 153.155 30.6365C151.921 32.9344 149.943 34.2638 147.432 34.837C146.396 35.109 145.306 35.109 144.271 34.837C143.33 34.5315 142.449 34.0694 141.666 33.4704C141.328 33.2197 141.01 32.9428 140.716 32.6425C140.499 32.4303 140.52 32.34 140.785 32.1994C141.647 31.7518 142.511 31.3096 143.376 30.8727C144.572 30.3201 145.72 29.6714 146.808 28.933C147.097 28.721 147.371 28.4896 147.627 28.2404C148.43 27.4444 148.698 26.4758 148.61 25.3853C148.574 24.848 148.447 24.3206 148.235 23.825C147.638 22.4532 146.591 21.9357 145.127 22.2727C144.295 22.4993 143.488 22.8086 142.718 23.1961L141.869 23.557Z" fill="white"/>
</g>
<g filter="url(#filter9_d_3833_1599)">
<path d="M123.642 28.5348C123.886 28.5163 124.108 28.4897 124.33 28.4818C125.508 28.434 126.686 28.3968 127.864 28.3464C129.183 28.2934 130.5 28.2482 131.817 28.1686C133.862 28.0065 135.851 27.4303 137.661 26.4757C139.391 25.608 141.115 24.735 142.849 23.8753C143.582 23.4679 144.367 23.1617 145.183 22.9652C145.62 22.897 146.062 22.8738 146.503 22.8962C146.679 22.9153 146.843 22.9886 146.974 23.1058C147.949 23.931 148.479 25.539 148.021 26.7464C147.785 27.3265 147.392 27.83 146.883 28.2005C145.939 28.9005 144.92 29.4966 143.845 29.9783C141.639 31.0397 139.439 32.1436 137.209 33.1625C136.139 33.6572 135.039 34.0827 133.914 34.4362C132.855 34.7264 131.748 34.7968 130.661 34.6431C128.078 34.3778 126.134 33.051 124.689 30.9654C124.228 30.2072 123.876 29.3892 123.642 28.5348Z" fill="white"/>
</g>
<g filter="url(#filter10_d_3833_1599)">
<path d="M123.388 27.5368L114.79 27.6005C114.621 27.6005 114.45 27.6005 114.281 27.6005C114.113 27.6005 114.08 27.5686 114.083 27.4174C114.105 26.494 114.115 25.56 114.129 24.6472C114.142 23.7636 114.161 22.8826 114.166 21.9937C114.166 21.8106 114.214 21.7443 114.418 21.7443C117.812 21.7443 121.207 21.7443 124.604 21.7443C126.071 21.7443 127.548 21.7443 129.007 21.7814C129.872 21.8026 130.739 21.8716 131.601 21.9486C132.501 22.0585 133.327 22.4998 133.914 23.1851C134.74 24.0487 135.45 25.0136 136.029 26.0562C136.23 26.4144 136.219 26.4277 135.839 26.5869C135.114 26.9328 134.344 27.1733 133.55 27.3006C132.83 27.3776 132.102 27.4333 131.376 27.4466C128.718 27.4917 126.057 27.5156 123.396 27.5501L123.388 27.5368Z" fill="#F06D06"/>
</g>
<g filter="url(#filter11_i_3833_1599)">
<path d="M131.172 15.0049C132.491 15.0346 133.773 15.4459 134.859 16.1884C136.21 17.0853 137.4 18.2011 138.379 19.4893C139.403 20.7825 140.308 22.1643 141.083 23.6182C141.214 23.8623 141.219 23.8835 140.967 24.0162C139.685 24.7034 138.398 25.3827 137.113 26.07C137.07 26.0975 137.018 26.1074 136.968 26.0975C136.918 26.0875 136.874 26.0586 136.845 26.0169C136.718 25.8585 136.599 25.6938 136.489 25.5234C135.777 24.3611 134.891 23.3133 133.86 22.4161C133.136 21.8058 132.253 21.412 131.312 21.2804C130.046 21.1072 128.769 21.0318 127.492 21.0549C126.464 21.0416 125.433 21.0098 124.402 20.9832C124.263 20.9832 124.121 20.9541 123.982 20.9408C123.843 20.9275 123.776 20.8638 123.846 20.7205C123.884 20.6155 123.929 20.5127 123.98 20.4127C124.825 18.7926 126.024 17.3794 127.489 16.276C128.432 15.5653 129.555 15.1264 130.733 15.0076C130.88 14.9989 131.026 14.9981 131.172 15.0049Z" fill="white"/>
</g>
<g filter="url(#filter12_d_3833_1599)">
<path d="M163.874 21.6674V27.566H154.944C154.944 25.6343 154.968 23.6973 154.339 21.7894C157.554 21.5984 160.707 21.6992 163.874 21.6674Z" fill="white"/>
</g>
<defs>
<filter id="filter0_d_3833_1599" x="28" y="19" width="17.0967" height="19.4402" filterUnits="userSpaceOnUse" color-interpolation-filters="sRGB">
<feFlood flood-opacity="0" result="BackgroundImageFix"/>
<feColorMatrix in="SourceAlpha" type="matrix" values="0 0 0 0 0 0 0 0 0 0 0 0 0 0 0 0 0 0 127 0" result="hardAlpha"/>
<feOffset dy="4"/>
<feGaussianBlur stdDeviation="2"/>
<feComposite in2="hardAlpha" operator="out"/>
<feColorMatrix type="matrix" values="0 0 0 0 0 0 0 0 0 0 0 0 0 0 0 0 0 0 0.25 0"/>
<feBlend mode="normal" in2="BackgroundImageFix" result="effect1_dropShadow_3833_1599"/>
<feBlend mode="normal" in="SourceGraphic" in2="effect1_dropShadow_3833_1599" result="shape"/>
</filter>
<filter id="filter1_d_3833_1599" x="38.3125" y="19" width="17.4014" height="19.1375" filterUnits="userSpaceOnUse" color-interpolation-filters="sRGB">
<feFlood flood-opacity="0" result="BackgroundImageFix"/>
<feColorMatrix in="SourceAlpha" type="matrix" values="0 0 0 0 0 0 0 0 0 0 0 0 0 0 0 0 0 0 127 0" result="hardAlpha"/>
<feOffset dy="4"/>
<feGaussianBlur stdDeviation="2"/>
<feComposite in2="hardAlpha" operator="out"/>
<feColorMatrix type="matrix" values="0 0 0 0 0 0 0 0 0 0 0 0 0 0 0 0 0 0 0.25 0"/>
<feBlend mode="normal" in2="BackgroundImageFix" result="effect1_dropShadow_3833_1599"/>
<feBlend mode="normal" in="SourceGraphic" in2="effect1_dropShadow_3833_1599" result="shape"/>
</filter>
<filter id="filter2_d_3833_1599" x="48.6211" y="19" width="17.1006" height="19.4402" filterUnits="userSpaceOnUse" color-interpolation-filters="sRGB">
<feFlood flood-opacity="0" result="BackgroundImageFix"/>
<feColorMatrix in="SourceAlpha" type="matrix" values="0 0 0 0 0 0 0 0 0 0 0 0 0 0 0 0 0 0 127 0" result="hardAlpha"/>
<feOffset dy="4"/>
<feGaussianBlur stdDeviation="2"/>
<feComposite in2="hardAlpha" operator="out"/>
<feColorMatrix type="matrix" values="0 0 0 0 0 0 0 0 0 0 0 0 0 0 0 0 0 0 0.25 0"/>
<feBlend mode="normal" in2="BackgroundImageFix" result="effect1_dropShadow_3833_1599"/>
<feBlend mode="normal" in="SourceGraphic" in2="effect1_dropShadow_3833_1599" result="shape"/>
</filter>
<filter id="filter3_d_3833_1599" x="58.6294" y="19" width="17.1006" height="19.4402" filterUnits="userSpaceOnUse" color-interpolation-filters="sRGB">
<feFlood flood-opacity="0" result="BackgroundImageFix"/>
<feColorMatrix in="SourceAlpha" type="matrix" values="0 0 0 0 0 0 0 0 0 0 0 0 0 0 0 0 0 0 127 0" result="hardAlpha"/>
<feOffset dy="4"/>
<feGaussianBlur stdDeviation="2"/>
<feComposite in2="hardAlpha" operator="out"/>
<feColorMatrix type="matrix" values="0 0 0 0 0 0 0 0 0 0 0 0 0 0 0 0 0 0 0.25 0"/>
<feBlend mode="normal" in2="BackgroundImageFix" result="effect1_dropShadow_3833_1599"/>
<feBlend mode="normal" in="SourceGraphic" in2="effect1_dropShadow_3833_1599" result="shape"/>
</filter>
<filter id="filter4_d_3833_1599" x="82.8916" y="19" width="17.1006" height="19.4402" filterUnits="userSpaceOnUse" color-interpolation-filters="sRGB">
<feFlood flood-opacity="0" result="BackgroundImageFix"/>
<feColorMatrix in="SourceAlpha" type="matrix" values="0 0 0 0 0 0 0 0 0 0 0 0 0 0 0 0 0 0 127 0" result="hardAlpha"/>
<feOffset dy="4"/>
<feGaussianBlur stdDeviation="2"/>
<feComposite in2="hardAlpha" operator="out"/>
<feColorMatrix type="matrix" values="0 0 0 0 0 0 0 0 0 0 0 0 0 0 0 0 0 0 0.25 0"/>
<feBlend mode="normal" in2="BackgroundImageFix" result="effect1_dropShadow_3833_1599"/>
<feBlend mode="normal" in="SourceGraphic" in2="effect1_dropShadow_3833_1599" result="shape"/>
</filter>
<filter id="filter5_d_3833_1599" x="92.9038" y="19" width="17.0967" height="19.4402" filterUnits="userSpaceOnUse" color-interpolation-filters="sRGB">
<feFlood flood-opacity="0" result="BackgroundImageFix"/>
<feColorMatrix in="SourceAlpha" type="matrix" values="0 0 0 0 0 0 0 0 0 0 0 0 0 0 0 0 0 0 127 0" result="hardAlpha"/>
<feOffset dy="4"/>
<feGaussianBlur stdDeviation="2"/>
<feComposite in2="hardAlpha" operator="out"/>
<feColorMatrix type="matrix" values="0 0 0 0 0 0 0 0 0 0 0 0 0 0 0 0 0 0 0.25 0"/>
<feBlend mode="normal" in2="BackgroundImageFix" result="effect1_dropShadow_3833_1599"/>
<feBlend mode="normal" in="SourceGraphic" in2="effect1_dropShadow_3833_1599" result="shape"/>
</filter>
<filter id="filter6_d_3833_1599" x="68.3237" y="19" width="21.7119" height="19.4402" filterUnits="userSpaceOnUse" color-interpolation-filters="sRGB">
<feFlood flood-opacity="0" result="BackgroundImageFix"/>
<feColorMatrix in="SourceAlpha" type="matrix" values="0 0 0 0 0 0 0 0 0 0 0 0 0 0 0 0 0 0 127 0" result="hardAlpha"/>
<feOffset dy="4"/>
<feGaussianBlur stdDeviation="2"/>
<feComposite in2="hardAlpha" operator="out"/>
<feColorMatrix type="matrix" values="0 0 0 0 0 0 0 0 0 0 0 0 0 0 0 0 0 0 0.25 0"/>
<feBlend mode="normal" in2="BackgroundImageFix" result="effect1_dropShadow_3833_1599"/>
<feBlend mode="normal" in="SourceGraphic" in2="effect1_dropShadow_3833_1599" result="shape"/>
</filter>
<filter id="filter7_d_3833_1599" x="41" y="15" width="12.7227" height="10.4069" filterUnits="userSpaceOnUse" color-interpolation-filters="sRGB">
<feFlood flood-opacity="0" result="BackgroundImageFix"/>
<feColorMatrix in="SourceAlpha" type="matrix" values="0 0 0 0 0 0 0 0 0 0 0 0 0 0 0 0 0 0 127 0" result="hardAlpha"/>
<feOffset dy="4"/>
<feGaussianBlur stdDeviation="2"/>
<feComposite in2="hardAlpha" operator="out"/>
<feColorMatrix type="matrix" values="0 0 0 0 0 0 0 0 0 0 0 0 0 0 0 0 0 0 0.25 0"/>
<feBlend mode="normal" in2="BackgroundImageFix" result="effect1_dropShadow_3833_1599"/>
<feBlend mode="normal" in="SourceGraphic" in2="effect1_dropShadow_3833_1599" result="shape"/>
</filter>
<filter id="filter8_d_3833_1599" x="138.839" y="16.0378" width="15.5103" height="19.0032" filterUnits="userSpaceOnUse" color-interpolation-filters="sRGB">
<feFlood flood-opacity="0" result="BackgroundImageFix"/>
<feColorMatrix in="SourceAlpha" type="matrix" values="0 0 0 0 0 0 0 0 0 0 0 0 0 0 0 0 0 0 127 0" result="hardAlpha"/>
<feOffset/>
<feComposite in2="hardAlpha" operator="out"/>
<feColorMatrix type="matrix" values="0 0 0 0 1 0 0 0 0 1 0 0 0 0 1 0 0 0 1 0"/>
<feBlend mode="normal" in2="BackgroundImageFix" result="effect1_dropShadow_3833_1599"/>
<feBlend mode="normal" in="SourceGraphic" in2="effect1_dropShadow_3833_1599" result="shape"/>
</filter>
<filter id="filter9_d_3833_1599" x="123.642" y="22.8879" width="24.5454" height="11.8345" filterUnits="userSpaceOnUse" color-interpolation-filters="sRGB">
<feFlood flood-opacity="0" result="BackgroundImageFix"/>
<feColorMatrix in="SourceAlpha" type="matrix" values="0 0 0 0 0 0 0 0 0 0 0 0 0 0 0 0 0 0 127 0" result="hardAlpha"/>
<feOffset/>
<feComposite in2="hardAlpha" operator="out"/>
<feColorMatrix type="matrix" values="0 0 0 0 0.054902 0 0 0 0 0.364706 0 0 0 0 0.215686 0 0 0 1 0"/>
<feBlend mode="normal" in2="BackgroundImageFix" result="effect1_dropShadow_3833_1599"/>
<feBlend mode="normal" in="SourceGraphic" in2="effect1_dropShadow_3833_1599" result="shape"/>
</filter>
<filter id="filter10_d_3833_1599" x="114.083" y="21.7443" width="22.0752" height="5.8562" filterUnits="userSpaceOnUse" color-interpolation-filters="sRGB">
<feFlood flood-opacity="0" result="BackgroundImageFix"/>
<feColorMatrix in="SourceAlpha" type="matrix" values="0 0 0 0 0 0 0 0 0 0 0 0 0 0 0 0 0 0 127 0" result="hardAlpha"/>
<feOffset/>
<feComposite in2="hardAlpha" operator="out"/>
<feColorMatrix type="matrix" values="0 0 0 0 1 0 0 0 0 0.243137 0 0 0 0 0.243137 0 0 0 1 0"/>
<feBlend mode="normal" in2="BackgroundImageFix" result="effect1_dropShadow_3833_1599"/>
<feBlend mode="normal" in="SourceGraphic" in2="effect1_dropShadow_3833_1599" result="shape"/>
</filter>
<filter id="filter11_i_3833_1599" x="123.818" y="15.0004" width="17.3535" height="15.1008" filterUnits="userSpaceOnUse" color-interpolation-filters="sRGB">
<feFlood flood-opacity="0" result="BackgroundImageFix"/>
<feBlend mode="normal" in="SourceGraphic" in2="BackgroundImageFix" result="shape"/>
<feColorMatrix in="SourceAlpha" type="matrix" values="0 0 0 0 0 0 0 0 0 0 0 0 0 0 0 0 0 0 127 0" result="hardAlpha"/>
<feOffset dy="4"/>
<feGaussianBlur stdDeviation="2"/>
<feComposite in2="hardAlpha" operator="arithmetic" k2="-1" k3="1"/>
<feColorMatrix type="matrix" values="0 0 0 0 0.776471 0 0 0 0 0.780392 0 0 0 0 0.792157 0 0 0 0.29 0"/>
<feBlend mode="normal" in2="shape" result="effect1_innerShadow_3833_1599"/>
</filter>
<filter id="filter12_d_3833_1599" x="154.339" y="21.6674" width="9.53516" height="5.89868" filterUnits="userSpaceOnUse" color-interpolation-filters="sRGB">
<feFlood flood-opacity="0" result="BackgroundImageFix"/>
<feColorMatrix in="SourceAlpha" type="matrix" values="0 0 0 0 0 0 0 0 0 0 0 0 0 0 0 0 0 0 127 0" result="hardAlpha"/>
<feOffset/>
<feComposite in2="hardAlpha" operator="out"/>
<feColorMatrix type="matrix" values="0 0 0 0 0.054902 0 0 0 0 0.364706 0 0 0 0 0.215686 0 0 0 1 0"/>
<feBlend mode="normal" in2="BackgroundImageFix" result="effect1_dropShadow_3833_1599"/>
<feBlend mode="normal" in="SourceGraphic" in2="effect1_dropShadow_3833_1599" result="shape"/>
</filter>
</defs>
</svg>
