<svg width="480" height="466" viewBox="0 0 480 466" fill="none" xmlns="http://www.w3.org/2000/svg">
<path d="M311.3 416.304L244.437 423.296C242.914 423.455 241.809 424.818 241.969 426.34L242.703 433.359C242.862 434.881 244.225 435.986 245.747 435.827L312.611 428.835C314.133 428.676 315.238 427.313 315.079 425.79L314.345 418.772C314.186 417.249 312.823 416.144 311.3 416.304Z" fill="#0E5D37"/>
<path d="M315.594 379.849L268.613 379.543L204.767 410.998C202.707 412.013 201.131 413.801 200.381 415.972C199.632 418.143 199.771 420.522 200.766 422.592L317.271 405.299L315.594 379.849Z" fill="#0E5D37"/>
<path d="M316.117 405.768L202.254 423.095C203.034 424.736 204.314 426.089 205.91 426.958C207.505 427.828 209.335 428.171 211.138 427.938L309.026 415.297C311.095 415.029 312.986 413.984 314.313 412.373C315.64 410.762 316.304 408.707 316.171 406.624L316.117 405.768Z" fill="white"/>
<path d="M210.017 429.37C208.132 429.37 206.287 428.834 204.695 427.825C203.103 426.816 201.83 425.376 201.024 423.672L200.237 422.021L317.407 404.205L317.557 406.535C317.706 408.962 316.929 411.355 315.382 413.231C313.835 415.107 311.634 416.326 309.223 416.642L211.308 429.262C210.88 429.325 210.449 429.361 210.017 429.37V429.37ZM204.522 424.12C205.307 425.034 206.306 425.738 207.43 426.169C208.554 426.601 209.767 426.746 210.961 426.592L308.849 413.952C310.468 413.739 311.957 412.957 313.052 411.746C314.147 410.535 314.776 408.975 314.826 407.343L204.522 424.12Z" fill="#0E5D37"/>
<path d="M261.793 401.665C261.605 401.665 261.42 401.625 261.248 401.549C261.076 401.473 260.922 401.362 260.795 401.224L250.471 390.03C250.35 389.899 250.256 389.745 250.194 389.577C250.133 389.409 250.105 389.231 250.113 389.052C250.12 388.874 250.163 388.698 250.238 388.536C250.314 388.374 250.42 388.229 250.552 388.108C250.816 387.865 251.166 387.736 251.525 387.75C251.884 387.764 252.223 387.92 252.468 388.183L262.792 399.376C262.913 399.507 263.008 399.661 263.07 399.829C263.132 399.996 263.16 400.174 263.153 400.353C263.146 400.531 263.104 400.707 263.029 400.869C262.954 401.031 262.848 401.177 262.717 401.298C262.466 401.533 262.136 401.664 261.793 401.665Z" fill="white"/>
<path d="M251.279 407.792C251.092 407.792 250.906 407.754 250.734 407.679C250.563 407.604 250.408 407.495 250.281 407.357L239.977 396.157C239.85 396.027 239.751 395.873 239.685 395.704C239.619 395.535 239.587 395.354 239.592 395.173C239.597 394.991 239.638 394.813 239.713 394.647C239.788 394.482 239.896 394.333 240.029 394.21C240.163 394.087 240.32 393.992 240.49 393.931C240.661 393.869 240.843 393.843 241.024 393.853C241.205 393.863 241.383 393.909 241.546 393.988C241.709 394.068 241.855 394.18 241.974 394.316L252.278 405.49C252.399 405.621 252.493 405.775 252.554 405.943C252.616 406.111 252.643 406.289 252.636 406.468C252.628 406.646 252.585 406.821 252.51 406.983C252.435 407.145 252.328 407.291 252.196 407.412C251.949 407.65 251.622 407.786 251.279 407.792Z" fill="white"/>
<path d="M306.302 384.345H277.775C273.558 384.345 269.514 382.67 266.532 379.688C263.55 376.706 261.875 372.662 261.875 368.445V206.582H322.203V368.445C322.201 372.661 320.525 376.705 317.544 379.686C314.562 382.668 310.519 384.343 306.302 384.345V384.345Z" fill="#F06D06"/>
<path d="M477.796 464.812H350.94C350.58 464.812 350.234 464.669 349.979 464.414C349.725 464.159 349.582 463.814 349.582 463.453C349.582 463.093 349.725 462.748 349.979 462.493C350.234 462.238 350.58 462.095 350.94 462.095H477.796C478.157 462.095 478.502 462.238 478.757 462.493C479.012 462.748 479.155 463.093 479.155 463.453C479.155 463.814 479.012 464.159 478.757 464.414C478.502 464.669 478.157 464.812 477.796 464.812Z" fill="#0E5D37"/>
<path d="M109.093 464.615H59.1101C58.7499 464.615 58.4043 464.472 58.1496 464.217C57.8948 463.962 57.7517 463.617 57.7517 463.256C57.7517 462.896 57.8948 462.551 58.1496 462.296C58.4043 462.041 58.7499 461.898 59.1101 461.898H109.093C109.454 461.898 109.799 462.041 110.054 462.296C110.309 462.551 110.452 462.896 110.452 463.256C110.452 463.617 110.309 463.962 110.054 464.217C109.799 464.472 109.454 464.615 109.093 464.615Z" fill="#0E5D37"/>
<path d="M448.495 441.821H394.695C394.335 441.821 393.989 441.678 393.734 441.423C393.48 441.168 393.336 440.823 393.336 440.462C393.336 440.102 393.48 439.757 393.734 439.502C393.989 439.247 394.335 439.104 394.695 439.104H448.495C448.856 439.104 449.201 439.247 449.456 439.502C449.711 439.757 449.854 440.102 449.854 440.462C449.854 440.823 449.711 441.168 449.456 441.423C449.201 441.678 448.856 441.821 448.495 441.821Z" fill="#0E5D37"/>
<path d="M408.625 313.388C408.344 313.388 408.07 313.3 407.841 313.138C407.611 312.975 407.438 312.745 407.345 312.48C407.252 312.214 407.243 311.926 407.32 311.656C407.398 311.386 407.557 311.146 407.776 310.97L442.505 283.122C442.643 283.004 442.804 282.915 442.977 282.86C443.151 282.805 443.333 282.786 443.515 282.803C443.696 282.82 443.872 282.873 444.032 282.96C444.192 283.046 444.333 283.164 444.447 283.306C444.561 283.448 444.645 283.611 444.694 283.786C444.743 283.962 444.757 284.145 444.734 284.325C444.712 284.506 444.653 284.68 444.561 284.837C444.47 284.995 444.348 285.132 444.203 285.241L409.474 313.089C409.234 313.282 408.934 313.388 408.625 313.388Z" fill="#0E5D37"/>
<path d="M349.629 83.8961H308.89C305.165 83.8961 302.146 86.9158 302.146 90.6407V116.546C302.146 120.271 305.165 123.29 308.89 123.29H349.629C353.354 123.29 356.374 120.271 356.374 116.546V90.6407C356.374 86.9158 353.354 83.8961 349.629 83.8961Z" fill="white"/>
<path d="M349.622 124.649H308.87C306.721 124.647 304.661 123.793 303.142 122.274C301.623 120.754 300.768 118.694 300.767 116.546V90.6407C300.768 88.4922 301.623 86.4323 303.142 84.913C304.661 83.3938 306.721 82.5395 308.87 82.5377H349.622C351.769 82.5484 353.824 83.4053 355.343 84.9224C356.861 86.4395 357.72 88.4944 357.732 90.6407V116.546C357.72 118.692 356.861 120.747 355.343 122.264C353.824 123.781 351.769 124.638 349.622 124.649ZM308.87 85.2546C307.442 85.2564 306.073 85.8244 305.063 86.8341C304.053 87.8438 303.485 89.2128 303.483 90.6407V116.546C303.485 117.974 304.053 119.343 305.063 120.352C306.073 121.362 307.442 121.93 308.87 121.932H349.622C351.051 121.932 352.422 121.365 353.433 120.355C354.444 119.345 355.013 117.975 355.015 116.546V90.6407C355.013 89.2116 354.444 87.8416 353.433 86.8317C352.422 85.8218 351.051 85.2546 349.622 85.2546H308.87Z" fill="#0E5D37"/>
<path d="M365.115 58.7163L344.746 93.9974C342.883 97.2233 343.988 101.348 347.214 103.211L369.649 116.163C372.875 118.026 377 116.92 378.862 113.695L399.232 78.4134C401.094 75.1876 399.989 71.0626 396.763 69.2002L374.328 56.2476C371.103 54.3851 366.978 55.4904 365.115 58.7163Z" fill="white"/>
<path d="M373.007 118.421C371.59 118.42 370.199 118.045 368.973 117.334L346.559 104.381C345.637 103.85 344.829 103.141 344.18 102.297C343.532 101.453 343.057 100.489 342.781 99.4608C342.505 98.4327 342.435 97.3603 342.574 96.305C342.713 95.2497 343.058 94.232 343.591 93.3103L363.967 58.0388C364.498 57.1154 365.205 56.3059 366.049 55.6567C366.894 55.0075 367.858 54.5313 368.886 54.2556C369.915 53.9798 370.988 53.9099 372.043 54.0497C373.099 54.1896 374.117 54.5365 375.038 55.0706L397.452 68.0164C399.313 69.0932 400.671 70.8645 401.228 72.9414C401.784 75.0184 401.494 77.2313 400.42 79.0944L380.044 114.366C379.331 115.601 378.305 116.626 377.07 117.338C375.834 118.049 374.433 118.423 373.007 118.421ZM370.331 114.984C371.569 115.695 373.039 115.887 374.418 115.516C375.797 115.146 376.972 114.244 377.687 113.007L398.063 77.736C398.778 76.4982 398.971 75.0275 398.602 73.6471C398.233 72.2666 397.331 71.0891 396.094 70.3733L373.68 57.4207C373.066 57.0663 372.389 56.8363 371.686 56.7438C370.984 56.6514 370.27 56.6983 369.585 56.8818C368.901 57.0654 368.26 57.382 367.698 57.8136C367.136 58.2452 366.664 58.7833 366.31 59.3972L345.934 94.6687C345.579 95.2811 345.347 95.9577 345.254 96.6596C345.161 97.3616 345.207 98.075 345.39 98.759C345.573 99.4431 345.889 100.084 346.321 100.646C346.752 101.207 347.29 101.678 347.904 102.031L370.331 114.984Z" fill="#0E5D37"/>
<path d="M374.842 85.5808C374.538 85.5806 374.243 85.4787 374.004 85.2915C373.765 85.1043 373.596 84.8424 373.523 84.5477C373.451 84.253 373.479 83.9424 373.603 83.6655C373.728 83.3887 373.941 83.1615 374.21 83.0201L398.492 70.2849C398.811 70.1174 399.185 70.0837 399.529 70.1914C399.874 70.299 400.161 70.5391 400.329 70.8588C400.496 71.1786 400.53 71.5518 400.422 71.8963C400.315 72.2409 400.075 72.5286 399.755 72.6961L375.473 85.4245C375.278 85.527 375.062 85.5806 374.842 85.5808Z" fill="#0E5D37"/>
<path d="M360.889 80.8859L330.486 108.003C327.706 110.482 327.463 114.746 329.942 117.525L347.185 136.858C349.665 139.638 353.928 139.882 356.708 137.402L387.111 110.285C389.891 107.806 390.135 103.543 387.655 100.763L370.412 81.4299C367.933 78.6501 363.669 78.4065 360.889 80.8859Z" fill="white"/>
<path d="M352.231 140.495C352.074 140.495 351.918 140.495 351.762 140.495C350.697 140.436 349.654 140.165 348.694 139.698C347.734 139.232 346.877 138.579 346.172 137.778V137.778L328.954 118.455C328.247 117.659 327.703 116.731 327.354 115.725C327.006 114.719 326.859 113.654 326.922 112.592C326.985 111.529 327.257 110.489 327.722 109.531C328.187 108.573 328.837 107.717 329.633 107.01L360.035 79.8958C361.644 78.4706 363.752 77.7418 365.898 77.8691C368.043 77.9965 370.05 78.9696 371.479 80.575L388.718 99.9054C389.425 100.701 389.969 101.629 390.317 102.635C390.666 103.641 390.813 104.706 390.75 105.769C390.687 106.831 390.415 107.871 389.95 108.829C389.485 109.787 388.835 110.644 388.039 111.35L357.617 138.437C356.138 139.766 354.219 140.499 352.231 140.495ZM365.373 80.5614C364.053 80.5561 362.778 81.0401 361.794 81.9198L331.392 109.027C330.325 109.979 329.68 111.316 329.598 112.744C329.517 114.172 330.006 115.574 330.958 116.641L348.203 135.972C348.674 136.5 349.244 136.93 349.881 137.238C350.518 137.546 351.21 137.725 351.916 137.765C352.623 137.805 353.33 137.706 353.998 137.473C354.666 137.24 355.282 136.877 355.81 136.406L386.212 109.292C386.74 108.821 387.17 108.251 387.478 107.614C387.786 106.977 387.965 106.285 388.005 105.579C388.045 104.872 387.946 104.165 387.713 103.497C387.48 102.828 387.117 102.213 386.646 101.685L369.401 82.3545C368.932 81.8255 368.363 81.3947 367.726 81.0869C367.09 80.7792 366.399 80.6005 365.693 80.5614H365.373Z" fill="#0E5D37"/>
<path d="M347.415 371.936H347.293L236.269 362.651L235.95 362.393L88.9816 246.635C88.7364 246.447 88.5567 246.186 88.468 245.889C88.3794 245.593 88.3863 245.276 88.4877 244.984C88.5892 244.691 88.78 244.438 89.0332 244.261C89.2865 244.083 89.5892 243.989 89.8986 243.993H303.891L356.122 360.777C356.269 361.106 356.279 361.481 356.15 361.818C356.021 362.155 355.763 362.426 355.433 362.573C355.27 362.646 355.094 362.686 354.915 362.69C354.737 362.695 354.559 362.665 354.392 362.601C354.055 362.471 353.783 362.214 353.637 361.884L302.125 246.71H93.4576L237.315 359.982L347.524 369.199C347.884 369.213 348.224 369.37 348.468 369.635C348.713 369.9 348.842 370.251 348.828 370.612C348.813 370.972 348.656 371.312 348.391 371.556C348.126 371.801 347.775 371.93 347.415 371.916V371.936Z" fill="#0E5D37"/>
<path d="M236.791 362.699C236.553 362.701 236.319 362.64 236.112 362.522C235.957 362.434 235.82 362.316 235.71 362.175C235.601 362.034 235.52 361.873 235.473 361.701C235.425 361.529 235.412 361.349 235.435 361.172C235.457 360.994 235.514 360.823 235.602 360.668L316.048 219.698C316.228 219.385 316.525 219.157 316.874 219.063C317.222 218.97 317.593 219.018 317.906 219.198C318.218 219.379 318.447 219.675 318.54 220.024C318.634 220.372 318.585 220.743 318.405 221.056L237.973 362.02C237.853 362.227 237.681 362.399 237.473 362.518C237.266 362.638 237.03 362.7 236.791 362.699Z" fill="#0E5D37"/>
<path d="M244.406 363.542L199.877 378.484L149.744 428.97C148.43 430.29 147.574 431.996 147.301 433.839C147.029 435.681 147.354 437.562 148.229 439.206C148.629 439.954 149.135 440.64 149.73 441.243L254.288 387.029L244.406 363.542Z" fill="#0E5D37"/>
<path d="M192.222 410.923C191.996 410.923 191.775 410.867 191.576 410.76L178.169 403.547C178.012 403.462 177.873 403.347 177.76 403.209C177.648 403.071 177.564 402.911 177.512 402.74C177.461 402.57 177.444 402.39 177.463 402.213C177.481 402.035 177.534 401.863 177.619 401.706C177.703 401.549 177.818 401.41 177.957 401.298C178.095 401.185 178.254 401.101 178.425 401.05C178.596 400.999 178.775 400.982 178.953 401C179.13 401.018 179.302 401.071 179.459 401.156L192.86 408.39C193.126 408.533 193.337 408.762 193.458 409.038C193.58 409.315 193.606 409.625 193.532 409.918C193.458 410.211 193.288 410.471 193.05 410.657C192.811 410.843 192.517 410.944 192.215 410.944L192.222 410.923Z" fill="white"/>
<path d="M420.24 201.78H323.167V112.804C323.176 110.655 324.033 108.597 325.552 107.077C327.071 105.557 329.128 104.698 331.277 104.687H412.103C413.169 104.687 414.224 104.897 415.208 105.305C416.193 105.713 417.087 106.311 417.84 107.065C418.593 107.819 419.191 108.713 419.598 109.698C420.005 110.683 420.214 111.738 420.213 112.804L420.24 201.78Z" fill="#F06D06"/>
<path d="M235.222 52.6389H195.828C192.836 52.6389 189.966 51.4503 187.851 49.3345C185.735 47.2188 184.546 44.3492 184.546 41.3572V25.4704C184.546 22.5215 185.718 19.6934 187.803 17.6083C189.888 15.5231 192.716 14.3517 195.665 14.3517H234.971C236.698 14.3508 238.409 14.6903 240.005 15.3507C241.601 16.0111 243.052 16.9796 244.274 18.2007C245.495 19.4218 246.465 20.8717 247.126 22.4675C247.787 24.0634 248.127 25.7738 248.127 27.5012V39.727C248.128 41.4223 247.795 43.1012 247.147 44.6677C246.499 46.2342 245.548 47.6576 244.35 48.8567C243.152 50.0557 241.729 51.0069 240.162 51.6559C238.596 52.3048 236.918 52.6389 235.222 52.6389V52.6389Z" fill="#0E5D37"/>
<path d="M252.902 398.007L191.942 426.355C190.554 427 189.953 428.648 190.598 430.036L193.574 436.435C194.219 437.823 195.867 438.425 197.255 437.779L258.214 409.431C259.602 408.786 260.204 407.138 259.559 405.75L256.583 399.351C255.937 397.963 254.289 397.361 252.902 398.007Z" fill="#0E5D37"/>
<path d="M253.324 387.884L151.272 441.27C152.544 442.569 154.194 443.433 155.986 443.738C157.778 444.043 159.62 443.774 161.25 442.968L249.71 399.2C251.583 398.275 253.032 396.672 253.765 394.717C254.498 392.761 254.459 390.6 253.657 388.672L253.324 387.884Z" fill="white"/>
<path d="M157.419 445.223C156.096 445.221 154.786 444.955 153.567 444.439C152.348 443.924 151.244 443.17 150.321 442.221L149.038 440.917L254.01 385.996L254.906 388.149C255.837 390.395 255.881 392.91 255.028 395.187C254.176 397.464 252.492 399.333 250.315 400.416L161.868 444.204C160.484 444.884 158.961 445.232 157.419 445.223V445.223ZM153.751 441.508C154.79 442.117 155.965 442.457 157.168 442.499C158.372 442.54 159.567 442.281 160.645 441.746L249.113 398.018C250.573 397.288 251.727 396.063 252.369 394.562C253.011 393.06 253.099 391.38 252.617 389.82L153.751 441.508Z" fill="#0E5D37"/>
<path d="M200.175 401.726C199.949 401.729 199.727 401.673 199.53 401.563L186.129 394.33C185.812 394.159 185.576 393.869 185.473 393.523C185.369 393.178 185.408 392.806 185.579 392.489C185.75 392.172 186.04 391.936 186.385 391.833C186.73 391.73 187.102 391.768 187.419 391.939L200.82 399.173C201.089 399.318 201.301 399.549 201.423 399.829C201.544 400.109 201.567 400.422 201.489 400.718C201.41 401.013 201.235 401.273 200.99 401.456C200.746 401.639 200.446 401.734 200.141 401.726H200.175Z" fill="white"/>
<path d="M234.951 371.936L207.939 381.092C205.961 381.763 203.87 382.037 201.786 381.9C199.702 381.762 197.666 381.216 195.793 380.291C193.92 379.366 192.248 378.082 190.872 376.511C189.496 374.94 188.443 373.113 187.773 371.135L148.521 255.295C145.954 247.719 146.503 239.433 150.045 232.26C153.587 225.088 159.834 219.616 167.41 217.049V217.049C174.987 214.482 183.272 215.03 190.445 218.573C197.617 222.115 203.089 228.361 205.656 235.938L244.908 351.771C245.579 353.749 245.853 355.839 245.716 357.923C245.578 360.007 245.031 362.044 244.107 363.916C243.182 365.789 241.898 367.461 240.327 368.837C238.756 370.213 236.929 371.266 234.951 371.936Z" fill="#F06D06"/>
<path d="M322.997 201.882L199.224 268.907C181.218 279.346 159.511 275.55 150.749 260.43C141.98 245.311 149.479 224.595 167.484 214.156L290.272 142.974L322.997 201.882Z" fill="#F06D06"/>
<path d="M205.561 264.288C205.26 264.287 204.967 264.185 204.73 263.998C204.492 263.812 204.323 263.552 204.25 263.259C204.177 262.966 204.203 262.658 204.325 262.381C204.447 262.105 204.657 261.878 204.923 261.734L216.605 255.492C216.763 255.394 216.94 255.328 217.124 255.301C217.308 255.273 217.496 255.283 217.676 255.331C217.856 255.379 218.024 255.464 218.17 255.58C218.316 255.695 218.437 255.84 218.524 256.004C218.612 256.168 218.665 256.349 218.68 256.534C218.695 256.72 218.672 256.907 218.612 257.083C218.551 257.259 218.456 257.421 218.33 257.559C218.205 257.697 218.052 257.807 217.882 257.883L206.2 264.125C206.004 264.231 205.784 264.287 205.561 264.288Z" fill="#0E5D37"/>
<path d="M261.881 235.89C261.58 235.889 261.287 235.787 261.05 235.601C260.812 235.414 260.644 235.154 260.57 234.862C260.497 234.569 260.524 234.26 260.645 233.984C260.767 233.708 260.977 233.48 261.243 233.337L291.4 217.219C291.558 217.124 291.733 217.062 291.915 217.037C292.097 217.012 292.283 217.025 292.46 217.073C292.637 217.122 292.803 217.206 292.947 217.321C293.091 217.436 293.21 217.579 293.297 217.741C293.384 217.903 293.437 218.081 293.453 218.264C293.469 218.447 293.448 218.632 293.391 218.806C293.333 218.981 293.241 219.143 293.12 219.281C292.998 219.419 292.85 219.531 292.684 219.61L262.52 235.727C262.324 235.833 262.104 235.889 261.881 235.89Z" fill="#0E5D37"/>
<path d="M351.66 465.695C350.104 465.696 348.549 465.619 347 465.464C329.341 463.719 313.821 452.206 303.239 433.066C292.813 414.204 288.425 390.112 290.897 365.226C293.37 340.34 302.39 317.579 316.313 301.136C330.455 284.441 347.944 276.215 365.59 277.961C383.236 279.706 398.77 291.212 409.352 310.359C419.778 329.214 424.159 353.306 421.693 378.192C419.228 403.078 410.201 425.839 396.277 442.283C383.386 457.511 367.703 465.695 351.66 465.695ZM360.965 282.484C329.123 282.484 300.291 318.646 295.625 365.695C293.254 389.63 297.431 412.737 307.395 430.763C317.203 448.497 331.433 459.141 347.469 460.73C380.934 464.051 412.096 426.81 416.966 377.724C421.836 328.637 398.573 286.03 365.122 282.688C363.731 282.552 362.346 282.484 360.965 282.484Z" fill="#0E5D37"/>
<path d="M354.879 377.139C358.511 377.139 361.454 373.599 361.454 369.233C361.454 364.866 358.511 361.327 354.879 361.327C351.248 361.327 348.305 364.866 348.305 369.233C348.305 373.599 351.248 377.139 354.879 377.139Z" fill="#0E5D37"/>
<path d="M61.4398 465.695C59.8837 465.696 58.3287 465.619 56.7804 465.464C39.1209 463.719 23.5941 452.206 13.0119 433.066C2.58605 414.204 -1.79487 390.112 0.67067 365.226C3.13621 340.34 12.1629 317.579 26.0868 301.136C40.228 284.441 57.7313 276.215 75.3636 277.961C92.9959 279.706 108.543 291.212 119.125 310.359C129.551 329.214 133.939 353.306 131.473 378.192C129.008 403.078 119.974 425.866 106.05 442.283C93.159 457.511 77.476 465.695 61.4398 465.695ZM70.745 282.484C38.8967 282.484 10.0642 318.646 5.40478 365.695C3.02754 389.63 7.21148 412.737 17.1755 430.763C26.9766 448.497 41.2128 459.141 57.249 460.73C58.6278 460.871 60.013 460.941 61.399 460.941C93.2405 460.941 122.073 424.779 126.739 377.724C131.602 328.637 108.346 286.03 74.8949 282.688C73.5094 282.552 72.126 282.484 70.745 282.484V282.484Z" fill="#0E5D37"/>
<path d="M64.6526 377.139C68.2838 377.139 71.2274 373.599 71.2274 369.233C71.2274 364.866 68.2838 361.327 64.6526 361.327C61.0215 361.327 58.0779 364.866 58.0779 369.233C58.0779 373.599 61.0215 377.139 64.6526 377.139Z" fill="#0E5D37"/>
<path d="M64.6592 362.699C64.5621 362.709 64.4643 362.709 64.3672 362.699C64.1928 362.661 64.0275 362.589 63.8809 362.487C63.7343 362.386 63.6091 362.256 63.5126 362.106C63.4161 361.956 63.3501 361.788 63.3185 361.613C63.2868 361.437 63.29 361.257 63.328 361.082L96.3105 207.343C96.7734 205.232 97.9411 203.343 99.6214 201.985C101.302 200.627 103.394 199.881 105.555 199.871H152.25C152.611 199.871 152.956 200.015 153.211 200.269C153.466 200.524 153.609 200.87 153.609 201.23C153.609 201.59 153.466 201.936 153.211 202.19C152.956 202.445 152.611 202.588 152.25 202.588H105.555C104.016 202.598 102.525 203.13 101.329 204.098C100.132 205.065 99.2986 206.411 98.9662 207.913L65.9837 361.612C65.9213 361.918 65.7556 362.193 65.5144 362.391C65.2732 362.589 64.9712 362.697 64.6592 362.699V362.699Z" fill="#0E5D37"/>
<path d="M65.8206 175.916C64.1417 175.913 62.5129 175.344 61.1969 174.301C59.8809 173.259 58.9543 171.804 58.5667 170.17L44.0587 108.267C43.8152 107.178 43.8187 106.048 44.0691 104.96C44.3194 103.873 44.8101 102.855 45.5052 101.982C46.2004 101.109 47.0822 100.403 48.086 99.9157C49.0898 99.4282 50.19 99.1718 51.3059 99.1652H129.565C131.223 99.1624 132.835 99.7145 134.143 100.734C135.452 101.753 136.381 103.18 136.785 104.789L151.727 164.125C151.994 165.203 152.016 166.326 151.794 167.414C151.571 168.502 151.109 169.526 150.441 170.413C149.773 171.299 148.916 172.026 147.932 172.54C146.947 173.053 145.861 173.341 144.752 173.383L66.0991 175.916H65.8206ZM51.3059 101.882C50.5947 101.887 49.8937 102.051 49.2544 102.362C48.6151 102.674 48.0538 103.125 47.6119 103.682C47.17 104.239 46.8588 104.889 46.7011 105.582C46.5434 106.276 46.5433 106.996 46.7008 107.689L61.2156 169.593C61.4636 170.629 62.0524 171.551 62.8874 172.213C63.7225 172.874 64.7554 173.236 65.8206 173.24H65.9769L144.657 170.673C145.361 170.645 146.05 170.46 146.674 170.133C147.298 169.806 147.842 169.345 148.266 168.782C148.689 168.219 148.983 167.569 149.125 166.878C149.266 166.188 149.253 165.475 149.085 164.791L134.143 105.455C133.881 104.436 133.289 103.533 132.46 102.886C131.63 102.24 130.61 101.887 129.558 101.882H51.3059Z" fill="#0E5D37"/>
<path d="M129.857 125.199H103.931C103.571 125.199 103.226 125.056 102.971 124.801C102.716 124.547 102.573 124.201 102.573 123.841C102.573 123.481 102.716 123.135 102.971 122.88C103.226 122.626 103.571 122.482 103.931 122.482H129.857C130.217 122.482 130.563 122.626 130.817 122.88C131.072 123.135 131.215 123.481 131.215 123.841C131.215 124.201 131.072 124.547 130.817 124.801C130.563 125.056 130.217 125.199 129.857 125.199Z" fill="#0E5D37"/>
<path d="M131.779 136.569H105.846C105.486 136.569 105.14 136.426 104.886 136.171C104.631 135.917 104.488 135.571 104.488 135.211C104.488 134.851 104.631 134.505 104.886 134.25C105.14 133.995 105.486 133.852 105.846 133.852H131.779C132.139 133.852 132.484 133.995 132.739 134.25C132.994 134.505 133.137 134.851 133.137 135.211C133.137 135.571 132.994 135.917 132.739 136.171C132.484 136.426 132.139 136.569 131.779 136.569Z" fill="#0E5D37"/>
<path d="M125.388 147.932H107.382C107.022 147.932 106.676 147.789 106.421 147.534C106.167 147.28 106.023 146.934 106.023 146.574C106.023 146.214 106.167 145.868 106.421 145.613C106.676 145.359 107.022 145.216 107.382 145.216H125.388C125.748 145.216 126.094 145.359 126.348 145.613C126.603 145.868 126.746 146.214 126.746 146.574C126.746 146.934 126.603 147.28 126.348 147.534C126.094 147.789 125.748 147.932 125.388 147.932V147.932Z" fill="#0E5D37"/>
<path d="M96.5342 151.587H70.3167C69.6833 151.586 69.0678 151.376 68.5665 150.989C68.0651 150.602 67.7061 150.06 67.5455 149.447L61.8333 127.42C61.7246 126.997 61.7141 126.555 61.8024 126.127C61.8907 125.7 62.0756 125.298 62.343 124.952C62.6104 124.607 62.9531 124.327 63.345 124.135C63.737 123.942 64.1678 123.842 64.6045 123.841H90.8221C91.4555 123.841 92.0709 124.051 92.5723 124.438C93.0736 124.825 93.4327 125.368 93.5933 125.98L99.3054 148.007C99.4155 148.43 99.4271 148.873 99.3393 149.301C99.2516 149.73 99.0667 150.132 98.7991 150.478C98.5315 150.823 98.1882 151.103 97.7955 151.295C97.4029 151.488 96.9714 151.587 96.5342 151.587Z" fill="#FFBB45"/>
<path d="M83.079 151.654C82.7583 151.66 82.446 151.552 82.1974 151.349C81.9488 151.147 81.7799 150.862 81.7206 150.547L76.9661 125.376C76.9079 125.025 76.9893 124.666 77.1928 124.375C77.3963 124.084 77.7058 123.884 78.0548 123.818C78.4039 123.753 78.7648 123.826 79.0602 124.023C79.3557 124.22 79.5621 124.525 79.6354 124.873L84.3899 150.045C84.4233 150.22 84.4217 150.401 84.3851 150.576C84.3485 150.751 84.2777 150.917 84.1767 151.065C84.0757 151.213 83.9466 151.339 83.7967 151.437C83.6467 151.534 83.479 151.601 83.3031 151.634C83.229 151.646 83.1541 151.653 83.079 151.654V151.654Z" fill="#0E5D37"/>
<path d="M88.2688 133.349C87.6433 133.351 87.0374 133.132 86.5571 132.731L78.4541 126.034C78.3039 125.925 78.1776 125.787 78.083 125.627C77.9884 125.468 77.9275 125.291 77.904 125.107C77.8805 124.923 77.895 124.736 77.9465 124.557C77.998 124.379 78.0854 124.213 78.2035 124.07C78.3215 123.927 78.4676 123.81 78.6327 123.725C78.7979 123.641 78.9786 123.591 79.1637 123.579C79.3489 123.567 79.5345 123.593 79.7091 123.656C79.8838 123.718 80.0438 123.816 80.1793 123.942L88.2823 130.633L91.0875 123.773C91.2337 123.454 91.497 123.205 91.8226 123.076C92.1483 122.948 92.511 122.95 92.8351 123.082C93.1593 123.214 93.4198 123.467 93.5624 123.786C93.705 124.106 93.7187 124.469 93.6006 124.798L90.775 131.672C90.6169 132.065 90.3675 132.415 90.0474 132.692C89.7274 132.97 89.3458 133.167 88.9344 133.268C88.7165 133.321 88.4931 133.349 88.2688 133.349V133.349Z" fill="#0E5D37"/>
<path d="M92.1811 151.41C91.8691 151.408 91.5671 151.299 91.3259 151.102C91.0847 150.904 90.919 150.629 90.8566 150.323L87.1549 132.236C87.0828 131.883 87.154 131.515 87.3527 131.215C87.5514 130.914 87.8614 130.705 88.2145 130.633C88.5675 130.561 88.9348 130.632 89.2354 130.83C89.536 131.029 89.7454 131.339 89.8174 131.692L93.5055 149.78C93.5412 149.954 93.5422 150.135 93.5082 150.31C93.4743 150.485 93.4062 150.652 93.3078 150.801C93.2094 150.949 93.0827 151.078 92.9348 151.177C92.7869 151.277 92.6208 151.347 92.446 151.383C92.3588 151.401 92.27 151.41 92.1811 151.41V151.41Z" fill="#0E5D37"/>
<path d="M465.143 183.754H357.121C352.252 183.754 348.305 187.701 348.305 192.57V270.347C348.305 275.216 352.252 279.163 357.121 279.163H465.143C470.012 279.163 473.959 275.216 473.959 270.347V192.57C473.959 187.701 470.012 183.754 465.143 183.754Z" fill="#F06D06"/>
<path d="M450.763 280.515C450.403 280.515 450.058 280.372 449.803 280.117C449.548 279.862 449.405 279.516 449.405 279.156V228.154C449.405 227.794 449.548 227.448 449.803 227.194C450.058 226.939 450.403 226.796 450.763 226.796C451.124 226.796 451.469 226.939 451.724 227.194C451.979 227.448 452.122 227.794 452.122 228.154V279.156C452.122 279.516 451.979 279.862 451.724 280.117C451.469 280.372 451.124 280.515 450.763 280.515Z" fill="#0E5D37"/>
<path d="M379.073 193.31H360.741C358.693 193.31 357.032 194.971 357.032 197.019V207.193C357.032 209.242 358.693 210.902 360.741 210.902H379.073C381.121 210.902 382.781 209.242 382.781 207.193V197.019C382.781 194.971 381.121 193.31 379.073 193.31Z" fill="white"/>
<path d="M379.895 221.912H359.151C358.791 221.912 358.446 221.769 358.191 221.514C357.936 221.259 357.793 220.914 357.793 220.553C357.793 220.193 357.936 219.848 358.191 219.593C358.446 219.338 358.791 219.195 359.151 219.195H379.895C380.255 219.195 380.6 219.338 380.855 219.593C381.11 219.848 381.253 220.193 381.253 220.553C381.253 220.914 381.11 221.259 380.855 221.514C380.6 221.769 380.255 221.912 379.895 221.912Z" fill="#0E5D37"/>
<path d="M374.413 230.171H359.151C358.791 230.171 358.446 230.028 358.191 229.773C357.936 229.519 357.793 229.173 357.793 228.813C357.793 228.453 357.936 228.107 358.191 227.852C358.446 227.598 358.791 227.454 359.151 227.454H374.413C374.774 227.454 375.119 227.598 375.374 227.852C375.629 228.107 375.772 228.453 375.772 228.813C375.772 229.173 375.629 229.519 375.374 229.773C375.119 230.028 374.774 230.171 374.413 230.171V230.171Z" fill="#0E5D37"/>
<path d="M450.641 229.519C448.04 229.519 445.642 227.923 444.209 225.227L423.717 189.296C423.537 188.983 423.489 188.611 423.583 188.262C423.678 187.913 423.907 187.615 424.22 187.435C424.533 187.255 424.906 187.207 425.255 187.301C425.604 187.396 425.901 187.625 426.081 187.938L446.586 223.902C447.592 225.79 449.113 226.857 450.736 226.782C452.36 226.707 453.949 225.546 454.866 223.583L469.958 188.21C470.028 188.046 470.13 187.897 470.257 187.772C470.385 187.647 470.536 187.549 470.701 187.482C470.867 187.416 471.044 187.382 471.222 187.384C471.401 187.386 471.577 187.423 471.741 187.493C471.905 187.563 472.054 187.665 472.179 187.792C472.304 187.92 472.402 188.071 472.469 188.236C472.535 188.402 472.568 188.579 472.567 188.757C472.565 188.936 472.528 189.112 472.458 189.276L457.325 224.704C455.966 227.658 453.508 229.458 450.791 229.513L450.641 229.519Z" fill="#0E5D37"/>
<path d="M422.339 280.188C421.978 280.188 421.633 280.045 421.378 279.79C421.123 279.536 420.98 279.19 420.98 278.83V198.499C420.688 186.145 427.018 183.482 427.283 183.38C427.613 183.262 427.975 183.276 428.295 183.418C428.615 183.561 428.867 183.822 429 184.146C429.132 184.47 429.134 184.833 429.005 185.158C428.876 185.484 428.627 185.747 428.309 185.893C428.071 186.002 423.453 188.175 423.69 198.466V278.83C423.69 279.189 423.548 279.533 423.295 279.788C423.042 280.043 422.698 280.187 422.339 280.188Z" fill="#0E5D37"/>
<path d="M342.226 220.554H284.248C282.633 220.545 281.087 219.897 279.948 218.751C278.809 217.606 278.169 216.056 278.169 214.441V214.441C278.167 212.995 278.681 211.596 279.619 210.495C280.556 209.394 281.856 208.664 283.284 208.436L341.261 199.118C342.13 198.984 343.017 199.039 343.862 199.279C344.708 199.519 345.492 199.939 346.16 200.509C346.829 201.08 347.366 201.788 347.736 202.585C348.106 203.382 348.3 204.25 348.305 205.129V214.441C348.305 216.056 347.665 217.606 346.526 218.751C345.387 219.897 343.841 220.545 342.226 220.554Z" fill="#0E5D37"/>
<path d="M453.012 132.141H379.609C374.253 132.141 369.91 136.483 369.91 141.84V174.062C369.91 179.418 374.253 183.761 379.609 183.761H453.012C458.368 183.761 462.711 179.418 462.711 174.062V141.84C462.711 136.483 458.368 132.141 453.012 132.141Z" fill="#FFBB45"/>
<path d="M418.325 184.746C417.964 184.746 417.619 184.603 417.364 184.348C417.109 184.093 416.966 183.748 416.966 183.387V132.134C416.966 131.774 417.109 131.428 417.364 131.174C417.619 130.919 417.964 130.776 418.325 130.776C418.685 130.776 419.031 130.919 419.285 131.174C419.54 131.428 419.683 131.774 419.683 132.134V183.387C419.683 183.748 419.54 184.093 419.285 184.348C419.031 184.603 418.685 184.746 418.325 184.746Z" fill="#0E5D37"/>
<path d="M450.376 163.398H434.191L417.163 135.245C416.991 134.937 416.945 134.575 417.035 134.235C417.125 133.894 417.344 133.602 417.645 133.419C417.946 133.237 418.307 133.179 418.65 133.257C418.994 133.335 419.293 133.544 419.486 133.839L435.726 160.681H448.692L460.531 137.011C460.692 136.688 460.975 136.443 461.317 136.329C461.659 136.215 462.032 136.242 462.354 136.403C462.677 136.564 462.922 136.847 463.036 137.189C463.15 137.531 463.123 137.904 462.962 138.227L450.376 163.398Z" fill="#0E5D37"/>
<path d="M419.364 184.745C419.113 184.745 418.868 184.675 418.655 184.543C418.441 184.412 418.268 184.224 418.155 184.001C418.042 183.777 417.993 183.527 418.013 183.277C418.034 183.027 418.123 182.788 418.27 182.586L434.266 160.708H450.275L462.08 178.945C462.187 179.095 462.264 179.265 462.304 179.445C462.344 179.625 462.346 179.811 462.312 179.992C462.278 180.173 462.207 180.346 462.103 180.499C462 180.652 461.867 180.782 461.712 180.882C461.557 180.981 461.383 181.048 461.201 181.079C461.019 181.109 460.833 181.102 460.654 181.058C460.475 181.014 460.306 180.934 460.159 180.823C460.012 180.712 459.889 180.572 459.797 180.412L448.821 163.398H435.645L420.464 184.161C420.341 184.339 420.176 184.485 419.985 184.587C419.794 184.689 419.581 184.743 419.364 184.745Z" fill="#0E5D37"/>
<path d="M327.052 1.38562H297.839C293.649 1.38562 290.252 4.78235 290.252 8.97243V35.4074C290.252 39.5974 293.649 42.9941 297.839 42.9941H327.052C331.242 42.9941 334.638 39.5974 334.638 35.4074V8.97243C334.638 4.78235 331.242 1.38562 327.052 1.38562Z" fill="white"/>
<path d="M327.052 44.3525H297.846C296.67 44.3543 295.505 44.1243 294.417 43.6757C293.33 43.227 292.342 42.5685 291.509 41.7378C290.677 40.907 290.016 39.9204 289.565 38.8342C289.114 37.748 288.881 36.5835 288.88 35.4073V8.97239C288.878 7.79477 289.109 6.62833 289.558 5.53983C290.008 4.45133 290.667 3.46212 291.499 2.62878C292.331 1.79543 293.32 1.13431 294.407 0.683244C295.495 0.232172 296.661 -1.35378e-06 297.839 0H327.045C329.416 0.00359291 331.69 0.94719 333.366 2.62397C335.043 4.30074 335.987 6.5739 335.99 8.94522V35.3801C335.993 36.5563 335.764 37.7215 335.316 38.8091C334.868 39.8966 334.21 40.8853 333.38 41.7186C332.55 42.5518 331.564 43.2133 330.478 43.6653C329.392 44.1172 328.228 44.3508 327.052 44.3525V44.3525ZM297.846 2.74401C296.195 2.7476 294.613 3.40496 293.446 4.57223C292.278 5.7395 291.621 7.32163 291.617 8.97239V35.4073C291.619 37.0586 292.276 38.6418 293.444 39.8095C294.611 40.9771 296.194 41.6339 297.846 41.6357H327.052C328.703 41.6339 330.286 40.9771 331.454 39.8095C332.622 38.6418 333.278 37.0586 333.28 35.4073V8.97239C333.282 8.15269 333.122 7.34066 332.81 6.58266C332.498 5.82467 332.04 5.13556 331.462 4.55468C330.883 3.9738 330.196 3.51252 329.44 3.19719C328.683 2.88185 327.872 2.71863 327.052 2.71685L297.846 2.74401Z" fill="#0E5D37"/>
<path d="M321.937 23.0932C322.818 21.4216 323.242 19.5473 323.167 17.6595C323.028 14.8507 321.799 12.2068 319.742 10.2894C317.685 8.37191 314.961 7.33191 312.15 7.39027C309.338 7.44862 306.66 8.60074 304.684 10.6019C302.708 12.6031 301.59 15.2956 301.568 18.1078C301.574 19.7581 301.96 21.3849 302.695 22.8622C302.906 23.3241 303.13 23.7928 303.375 24.2546C305.231 28.1062 307.328 31.8379 309.651 35.4277C309.899 35.8151 310.239 36.1352 310.641 36.3598C311.042 36.5844 311.493 36.7065 311.953 36.7152C312.413 36.7239 312.868 36.6191 313.278 36.4099C313.688 36.2007 314.04 35.8937 314.303 35.516C316.938 31.6852 319.429 27.6892 321.774 23.5279C321.822 23.4532 321.863 23.3716 321.903 23.2969L321.971 23.1815C321.903 23.1339 321.924 23.0932 321.937 23.0932Z" fill="#FB6D6D"/>
<path d="M312.368 23.4329C314.933 23.4329 317.013 21.3529 317.013 18.7871C317.013 16.2213 314.933 14.1413 312.368 14.1413C309.802 14.1413 307.722 16.2213 307.722 18.7871C307.722 21.3529 309.802 23.4329 312.368 23.4329Z" fill="white"/>
<path d="M185.593 22.5296C185.593 22.5296 177.958 26.4894 181.646 44.1489C182.099 46.3112 181.861 48.5609 180.967 50.581L180.145 52.4217C179.942 52.8866 179.915 53.4096 180.068 53.8931C180.222 54.3767 180.546 54.7879 180.981 55.0502L183.439 56.5105L186.258 67.6836C186.258 67.6836 188.438 79.8754 201.955 74.8697L210.635 71.9151L224.145 78.6121L244.732 56.3136L234.251 48.0136C238.265 46.5941 240.874 42.8991 240.717 39.0548C240.534 34.4701 236.547 31.991 236.37 31.8891C234.542 30.812 232.393 30.4106 230.298 30.7548C226.59 31.434 223.506 34.6331 222.501 38.8714C222.494 38.8714 200.624 51.6202 185.593 22.5296Z" fill="white"/>
<path d="M224.464 80.3098L210.547 73.409L202.396 76.1802C197.696 77.919 193.689 77.8919 190.517 76.0784C186.156 73.5857 185.083 68.607 184.94 68.0025L182.244 57.4136L180.274 56.2454C179.556 55.8114 179.022 55.1299 178.772 54.3292C178.521 53.5285 178.573 52.6639 178.916 51.8984L179.731 50.0577C180.508 48.2972 180.71 46.3363 180.308 44.4543C176.457 25.9389 184.614 21.5037 184.961 21.3203L186.17 20.7022L186.788 21.9044C191.719 31.4134 197.879 37.3293 205.127 39.4349C210.538 40.9084 216.3 40.3802 221.353 37.9474C222.657 33.4646 226.026 30.15 230.074 29.4165C232.491 29.021 234.97 29.4822 237.084 30.7206C237.281 30.8361 241.872 33.648 242.089 38.9934C242.119 40.8733 241.646 42.727 240.72 44.3629C239.793 45.9988 238.446 47.3576 236.819 48.2986L246.735 56.1571L224.464 80.3098ZM210.771 70.4749L223.873 76.9681L242.762 56.4695L231.473 47.5447L233.789 46.7228C237.185 45.5206 239.488 42.3827 239.352 39.0953C239.196 35.2306 235.705 33.0639 235.664 33.0435C234.118 32.1368 232.305 31.7958 230.536 32.079C227.364 32.6563 224.722 35.4751 223.812 39.1904L223.676 39.7541L223.173 40.0394C217.381 43.0793 210.647 43.7935 204.346 42.0363C196.779 39.8288 190.333 33.974 185.171 24.6213C184.408 25.4749 183.796 26.4537 183.365 27.5147C182.196 30.2316 181.184 35.2985 182.978 43.8905C183.5 46.33 183.244 48.8722 182.244 51.1581L181.402 52.9784C181.332 53.1397 181.323 53.3209 181.377 53.4882C181.431 53.6555 181.543 53.7978 181.694 53.8885L184.628 55.6409L187.61 67.4524C187.61 67.4931 188.445 71.7518 191.896 73.7147C194.327 75.0731 197.56 75.0731 201.493 73.5992L210.771 70.4749Z" fill="#0E5D37"/>
<path d="M231.147 44.0878C230.235 44.0925 229.354 43.7537 228.679 43.1387C228.005 42.5236 227.587 41.6775 227.508 40.7683C227.429 39.8591 227.695 38.9535 228.254 38.2315C228.812 37.5095 229.621 37.024 230.521 36.8714C231.421 36.7188 232.345 36.9104 233.11 37.408C233.875 37.9056 234.425 38.6728 234.65 39.5572C234.875 40.4415 234.759 41.3782 234.326 42.1812C233.892 42.9841 233.172 43.5944 232.309 43.8908C231.936 44.0226 231.543 44.0892 231.147 44.0878ZM231.147 39.5574C231.048 39.5591 230.949 39.5774 230.855 39.6118C230.648 39.6883 230.476 39.8399 230.375 40.0367C230.274 40.2336 230.25 40.4612 230.309 40.6745C230.368 40.8879 230.504 41.0714 230.692 41.1888C230.88 41.3062 231.104 41.3489 231.322 41.3084C231.539 41.2679 231.734 41.1472 231.867 40.9702C231.999 40.7933 232.061 40.5729 232.039 40.3527C232.017 40.1325 231.913 39.9286 231.748 39.7813C231.583 39.634 231.368 39.5541 231.147 39.5574V39.5574Z" fill="#0E5D37"/>
<path d="M229.028 42.5525C228.76 42.5536 228.498 42.4756 228.274 42.3281C228.051 42.1807 227.876 41.9705 227.771 41.7239C227.276 40.596 227.185 39.3317 227.513 38.1444C228.192 35.8555 230.502 34.2525 233.266 34.1506C233.626 34.138 233.977 34.2691 234.241 34.5149C234.504 34.7607 234.659 35.1013 234.672 35.4615C234.685 35.8218 234.554 36.1723 234.308 36.436C234.062 36.6997 233.721 36.8549 233.361 36.8675C231.792 36.9218 230.461 37.7641 230.121 38.9051C229.971 39.4922 230.026 40.1129 230.277 40.6643C230.347 40.8288 230.383 41.0054 230.384 41.1839C230.385 41.3625 230.35 41.5394 230.283 41.7047C230.215 41.87 230.116 42.0203 229.99 42.1471C229.865 42.274 229.715 42.3748 229.551 42.4438C229.385 42.5131 229.207 42.55 229.028 42.5525V42.5525Z" fill="#0E5D37"/>
<path d="M196.704 47.7077C197.777 47.7077 198.647 46.838 198.647 45.7652C198.647 44.6923 197.777 43.8226 196.704 43.8226C195.631 43.8226 194.762 44.6923 194.762 45.7652C194.762 46.838 195.631 47.7077 196.704 47.7077Z" fill="#0E5D37"/>
<path d="M193.064 64.2398C192.748 64.242 192.433 64.2215 192.12 64.1787C191.759 64.1192 191.438 63.9191 191.225 63.6223C191.012 63.3255 190.926 62.9564 190.985 62.5961C191.045 62.2359 191.245 61.9139 191.542 61.7012C191.839 61.4885 192.208 61.4024 192.568 61.4619C192.745 61.4619 196.351 61.9645 198.946 57.9435C199.042 57.7918 199.167 57.6606 199.314 57.5575C199.461 57.4544 199.627 57.3814 199.802 57.3428C199.977 57.3042 200.158 57.3007 200.335 57.3325C200.512 57.3644 200.68 57.4309 200.831 57.5283C200.982 57.6257 201.112 57.752 201.213 57.8999C201.315 58.0478 201.386 58.2144 201.423 58.3901C201.46 58.5657 201.462 58.747 201.428 58.9233C201.395 59.0997 201.327 59.2676 201.228 59.4174C198.491 63.6965 194.782 64.2398 193.064 64.2398Z" fill="#0E5D37"/>
<path d="M205.045 0.760803H225.673C231.629 0.766203 237.339 3.13556 241.55 7.34841C245.76 11.5613 248.126 17.2731 248.128 23.2291V23.2291H182.577C182.579 17.2707 184.946 11.5569 189.16 7.34361C193.373 3.13037 199.087 0.762604 205.045 0.760803V0.760803Z" fill="#0E5D37"/>
<path d="M214.683 72.4989C214.683 72.4989 215.987 71.3918 222.467 59.2203L221.156 75.7387L214.683 72.4989Z" fill="#0E5D37"/>
<path d="M222.093 23.229C224.076 30.6749 224.479 38.4534 223.275 46.0641C221.62 56.1738 217.216 65.6336 210.547 73.4092L215.301 75.8068C217.678 73.0766 219.78 70.1191 221.577 66.9771C231.392 49.7658 229.306 31.6105 227.731 23.2494L222.093 23.229Z" fill="#FFBB45"/>
<path d="M221.435 81.5053L245.608 55.8515C248.019 53.126 251.046 51.0162 254.437 49.6978C261.746 46.9334 269.482 48.7605 280.526 53.9972C289.214 58.1538 297.471 63.159 305.175 68.9399C320.742 80.5272 333.022 96.0608 340.039 114.155C345.33 127.807 348.488 144.787 344.175 163.357C339.78 182.273 329.395 195.28 322.854 202.133L276.186 178.701L221.435 81.5053Z" fill="#0E5D37"/>
<path d="M297.486 152.612C297.155 152.609 296.837 152.486 296.59 152.266C296.344 152.045 296.187 151.743 296.148 151.415C296.108 151.086 296.19 150.755 296.378 150.483C296.565 150.211 296.846 150.016 297.166 149.936L319.377 144.502C319.554 144.447 319.74 144.429 319.925 144.449C320.109 144.47 320.288 144.527 320.449 144.619C320.61 144.71 320.751 144.834 320.863 144.982C320.974 145.13 321.054 145.3 321.098 145.48C321.142 145.66 321.148 145.848 321.117 146.031C321.085 146.213 321.017 146.388 320.915 146.543C320.814 146.698 320.681 146.831 320.527 146.933C320.372 147.036 320.198 147.105 320.015 147.138L297.812 152.571C297.704 152.595 297.595 152.609 297.486 152.612Z" fill="white"/>
<path d="M294.199 136.63C286.571 112.036 269.747 76.0378 246.423 73.6334C242.877 73.2734 231.765 72.1255 223.724 79.067C222.259 80.3527 220.965 81.8204 219.872 83.4344C212.788 93.8603 216.381 106.894 217.325 110.338C217.995 112.765 218.887 115.124 219.988 117.388C225.014 126.979 230.036 136.571 235.053 146.166L186.116 162.875C184.834 163.137 183.626 163.677 182.577 164.458L198.735 201.726C200.813 201.484 202.849 200.963 204.787 200.177L278.142 178.694C283.752 177.05 289.268 172.207 292.501 167.528C298.722 158.514 297.282 146.588 294.199 136.63Z" fill="#0E5D37"/>
<path d="M272.226 181.56C271.904 181.563 271.591 181.451 271.344 181.244C271.097 181.037 270.931 180.75 270.876 180.432C270.822 180.115 270.882 179.788 271.046 179.511C271.209 179.233 271.466 179.023 271.771 178.918L277.524 176.88C283.966 174.615 289.324 170.017 292.541 163.994C295.758 157.97 296.599 150.959 294.898 144.346C293.961 140.651 292.86 136.949 291.645 133.343C288.736 124.742 285.051 116.423 280.635 108.49C280.46 108.175 280.418 107.803 280.517 107.457C280.616 107.111 280.849 106.818 281.164 106.643C281.48 106.468 281.851 106.426 282.198 106.525C282.544 106.625 282.837 106.858 283.012 107.173C287.505 115.241 291.256 123.7 294.219 132.446C295.462 136.121 296.576 139.918 297.533 143.646C299.404 150.916 298.48 158.623 294.946 165.245C291.411 171.866 285.522 176.922 278.441 179.414L272.688 181.451C272.541 181.514 272.385 181.551 272.226 181.56Z" fill="white"/>
<path d="M412.986 118.502H331.895C331.535 118.502 331.189 118.359 330.934 118.104C330.679 117.849 330.536 117.504 330.536 117.144C330.536 116.783 330.679 116.438 330.934 116.183C331.189 115.928 331.535 115.785 331.895 115.785H412.986C413.346 115.785 413.692 115.928 413.946 116.183C414.201 116.438 414.344 116.783 414.344 117.144C414.344 117.504 414.201 117.849 413.946 118.104C413.692 118.359 413.346 118.502 412.986 118.502Z" fill="#0E5D37"/>
<path d="M365.978 106.066C365.617 106.066 365.272 105.923 365.017 105.668C364.762 105.413 364.619 105.068 364.619 104.707V79.2368C364.619 78.8765 364.762 78.531 365.017 78.2762C365.272 78.0215 365.617 77.8784 365.978 77.8784C366.338 77.8784 366.683 78.0215 366.938 78.2762C367.193 78.531 367.336 78.8765 367.336 79.2368V104.707C367.336 105.068 367.193 105.413 366.938 105.668C366.683 105.923 366.338 106.066 365.978 106.066Z" fill="#0E5D37"/>
<path d="M180.512 172.384L157.249 181.214C156.217 181.608 155.164 181.947 154.111 182.287C151.822 183.021 145.886 186.091 145.397 198.147C145.397 198.147 144.718 212.091 153.609 211.642C153.609 211.642 158.743 220.296 164.809 216.852C164.809 216.852 173.482 221.702 175.459 212.437C177.601 210.558 179.761 208.604 181.939 206.576C185.416 203.336 188.697 200.116 191.801 196.951L180.512 172.384Z" fill="white"/>
<path d="M169.563 219.501C167.92 219.459 166.303 219.085 164.809 218.4C159.708 220.717 155.021 216.281 152.848 213.035C150.921 212.997 149.085 212.208 147.733 210.834C143.658 206.759 144.011 198.459 144.025 198.106C144.541 185.323 150.953 181.9 153.683 181.023C154.784 180.663 155.775 180.344 156.753 179.971L181.205 170.665L193.431 197.257L192.751 197.936C189.539 201.21 186.211 204.463 182.842 207.601C180.804 209.496 178.766 211.377 176.668 213.198C175.989 216.057 174.569 217.952 172.504 218.91C171.576 219.311 170.574 219.513 169.563 219.501V219.501ZM164.809 215.324L165.488 215.697C165.522 215.697 168.925 217.565 171.431 216.424C172.789 215.813 173.672 214.386 174.148 212.179L174.243 211.737L174.576 211.439C176.736 209.544 178.902 207.581 181.028 205.604C184.132 202.711 187.209 199.715 190.184 196.693L179.819 174.109L157.745 182.511C156.706 182.905 155.707 183.238 154.539 183.604C152.352 184.284 147.217 187.143 146.769 198.228C146.769 198.309 146.463 205.699 149.676 208.919C150.181 209.42 150.791 209.804 151.461 210.045C152.131 210.285 152.845 210.376 153.554 210.311L154.369 210.27L154.79 210.95C155.638 212.288 156.677 213.497 157.874 214.536C160.115 216.424 162.173 216.798 164.157 215.67L164.809 215.324Z" fill="#0E5D37"/>
<path d="M153.608 213.028C153.341 213.028 153.081 212.949 152.858 212.802C152.636 212.654 152.462 212.445 152.358 212.199C152.216 211.867 148.962 203.981 151.679 196.904C151.743 196.737 151.839 196.584 151.962 196.454C152.084 196.325 152.231 196.221 152.394 196.148C152.557 196.075 152.733 196.035 152.912 196.03C153.09 196.025 153.268 196.055 153.435 196.119C153.602 196.183 153.754 196.279 153.884 196.402C154.014 196.524 154.118 196.671 154.191 196.834C154.263 196.998 154.304 197.173 154.308 197.352C154.313 197.53 154.283 197.708 154.219 197.875C151.903 203.94 154.858 211.072 154.898 211.14C155.039 211.471 155.042 211.845 154.907 212.179C154.772 212.512 154.51 212.779 154.178 212.919C153.998 212.996 153.804 213.033 153.608 213.028Z" fill="#0E5D37"/>
<path d="M165.664 218.027C165.426 218.027 165.191 217.963 164.985 217.844C160.781 215.426 158.349 211.147 157.962 205.469C157.8 202.873 158.029 200.267 158.641 197.739C158.674 197.554 158.744 197.379 158.848 197.222C158.951 197.066 159.086 196.933 159.244 196.832C159.402 196.731 159.579 196.663 159.764 196.633C159.949 196.604 160.138 196.612 160.32 196.66C160.501 196.707 160.671 196.791 160.818 196.906C160.966 197.022 161.087 197.167 161.176 197.333C161.265 197.498 161.318 197.679 161.333 197.866C161.348 198.053 161.324 198.241 161.263 198.418C161.263 198.547 158.098 210.712 166.357 215.467C166.615 215.616 166.817 215.847 166.931 216.123C167.045 216.399 167.065 216.705 166.987 216.993C166.91 217.282 166.74 217.537 166.503 217.719C166.266 217.901 165.976 217.999 165.678 218L165.664 218.027Z" fill="#0E5D37"/>
<path d="M175.452 213.823C175.349 213.823 175.246 213.809 175.146 213.782C166.622 211.833 166.5 201.407 167.627 196.163C167.709 195.817 167.923 195.517 168.223 195.327C168.524 195.137 168.887 195.072 169.235 195.147C169.582 195.221 169.887 195.43 170.083 195.726C170.279 196.023 170.351 196.385 170.283 196.734C170.283 196.863 167.709 209.292 175.717 211.14C176.042 211.214 176.329 211.405 176.522 211.677C176.715 211.949 176.802 212.283 176.765 212.615C176.728 212.946 176.57 213.253 176.322 213.476C176.073 213.698 175.752 213.822 175.418 213.823H175.452Z" fill="#0E5D37"/>
<path d="M246.09 19.6972H184.418C184.057 19.6972 183.712 19.554 183.457 19.2993C183.202 19.0445 183.059 18.699 183.059 18.3387C183.059 17.9785 183.202 17.6329 183.457 17.3782C183.712 17.1234 184.057 16.9803 184.418 16.9803H246.09C246.45 16.9803 246.796 17.1234 247.05 17.3782C247.305 17.6329 247.448 17.9785 247.448 18.3387C247.448 18.699 247.305 19.0445 247.05 19.2993C246.796 19.554 246.45 19.6972 246.09 19.6972Z" fill="#0E5D37"/>
<path d="M437.179 89.1262H401.589C397.74 89.1262 394.62 92.2462 394.62 96.0949V125.172C394.62 129.021 397.74 132.141 401.589 132.141H437.179C441.028 132.141 444.148 129.021 444.148 125.172V96.0949C444.148 92.2462 441.028 89.1262 437.179 89.1262Z" fill="#FFC1EB"/>
<path d="M442.871 106.066H395.849C395.489 106.066 395.144 105.923 394.889 105.668C394.634 105.413 394.491 105.068 394.491 104.707C394.491 104.347 394.634 104.001 394.889 103.747C395.144 103.492 395.489 103.349 395.849 103.349H442.871C443.231 103.349 443.577 103.492 443.832 103.747C444.087 104.001 444.23 104.347 444.23 104.707C444.23 105.068 444.087 105.413 443.832 105.668C443.577 105.923 443.231 106.066 442.871 106.066Z" fill="#FB6D6D"/>
<path d="M419.391 133.492C419.031 133.492 418.685 133.349 418.431 133.094C418.176 132.84 418.033 132.494 418.033 132.134V89.1262C418.033 88.7659 418.176 88.4204 418.431 88.1656C418.685 87.9109 419.031 87.7678 419.391 87.7678C419.751 87.7678 420.097 87.9109 420.352 88.1656C420.606 88.4204 420.75 88.7659 420.75 89.1262V132.134C420.75 132.494 420.606 132.84 420.352 133.094C420.097 133.349 419.751 133.492 419.391 133.492Z" fill="#FB6D6D"/>
<path d="M417.964 92.8958L418.032 90.668C418.555 73.2598 424.098 67.5748 428.662 65.8632C429.697 65.4767 430.802 65.3156 431.905 65.3906C433.007 65.4655 434.08 65.7749 435.053 66.2979C435.984 66.7891 436.798 67.4736 437.442 68.3052C438.087 69.1369 438.546 70.0967 438.789 71.1203C441.234 81.5938 420.844 91.4967 419.975 91.9314L417.964 92.8958ZM429.613 68.4035C426.02 69.7619 421.686 74.3534 420.851 88.4334C426.964 85.0985 437.587 77.9124 436.147 71.7384C435.994 71.0886 435.703 70.4797 435.292 69.9532C434.882 69.4268 434.362 68.9954 433.77 68.6887C433.137 68.3488 432.439 68.1476 431.722 68.0984C431.005 68.0492 430.286 68.1532 429.613 68.4035Z" fill="#FB6D6D"/>
<path d="M420.043 92.8958L418.005 91.9314C417.136 91.517 396.746 81.5938 399.191 71.1203C399.434 70.0967 399.893 69.1369 400.537 68.3052C401.182 67.4736 401.996 66.7891 402.927 66.2979C403.9 65.7749 404.973 65.4655 406.075 65.3906C407.178 65.3156 408.283 65.4767 409.318 65.8632C413.882 67.568 419.431 73.2598 419.948 90.668L420.043 92.8958ZM406.642 68.0842C405.803 68.0846 404.977 68.2923 404.238 68.6887C403.645 68.9954 403.125 69.4268 402.715 69.9532C402.305 70.4797 402.013 71.0886 401.86 71.7384C400.42 77.9192 411.016 85.1053 417.163 88.4334C416.321 74.3534 411.987 69.7483 408.394 68.4035C407.834 68.1936 407.24 68.0855 406.642 68.0842Z" fill="#FB6D6D"/>
<path d="M179.962 177.159L188.357 195.898C188.357 195.898 190.123 202.561 198.722 201.699L182.563 164.458C180.207 166.217 177.87 169.837 179.962 177.159Z" fill="#0E5D37"/>
<path d="M234.7 146.431C234.377 146.431 234.065 146.315 233.82 146.105C233.574 145.895 233.412 145.605 233.361 145.286C233.31 144.967 233.375 144.641 233.543 144.365C233.711 144.09 233.972 143.883 234.279 143.782L251.938 137.961C252.28 137.849 252.653 137.877 252.975 138.039C253.296 138.202 253.54 138.485 253.653 138.827C253.766 139.17 253.738 139.543 253.575 139.864C253.413 140.186 253.129 140.43 252.787 140.542L235.128 146.357C234.99 146.404 234.845 146.429 234.7 146.431Z" fill="white"/>
<path d="M467.826 277.125H353.195C350.494 277.125 348.305 279.313 348.305 282.012C348.305 284.711 350.494 286.899 353.195 286.899H467.826C470.526 286.899 472.716 284.711 472.716 282.012C472.716 279.313 470.526 277.125 467.826 277.125Z" fill="#0E5D37"/>
<path d="M133.687 22.4818H91.7525C85.6718 22.4818 80.7424 27.4112 80.7424 33.4919C80.7424 39.5725 85.6718 44.5019 91.7525 44.5019H133.687C139.768 44.5019 144.697 39.5725 144.697 33.4919C144.697 27.4112 139.768 22.4818 133.687 22.4818Z" fill="white"/>
<path d="M133.687 45.8671H91.7528C88.5218 45.7914 85.4486 44.4547 83.1902 42.1428C80.9318 39.8309 79.6675 36.7272 79.6675 33.4953C79.6675 30.2633 80.9318 27.1597 83.1902 24.8477C85.4486 22.5358 88.5218 21.1991 91.7528 21.1234H133.687C136.918 21.1991 139.992 22.5358 142.25 24.8477C144.508 27.1597 145.773 30.2633 145.773 33.4953C145.773 36.7272 144.508 39.8309 142.25 42.1428C139.992 44.4547 136.918 45.7914 133.687 45.8671ZM91.7528 23.8403C89.2365 23.907 86.8456 24.9535 85.0895 26.7569C83.3333 28.5603 82.3505 30.978 82.3505 33.4953C82.3505 36.0125 83.3333 38.4302 85.0895 40.2336C86.8456 42.037 89.2365 43.0835 91.7528 43.1503H133.687C136.204 43.0835 138.595 42.037 140.351 40.2336C142.107 38.4302 143.09 36.0125 143.09 33.4953C143.09 30.978 142.107 28.5603 140.351 26.7569C138.595 24.9535 136.204 23.907 133.687 23.8403H91.7528Z" fill="#0E5D37"/>
<path d="M95.2984 37.0782C97.279 37.0782 98.8846 35.4726 98.8846 33.492C98.8846 31.5113 97.279 29.9057 95.2984 29.9057C93.3178 29.9057 91.7122 31.5113 91.7122 33.492C91.7122 35.4726 93.3178 37.0782 95.2984 37.0782Z" fill="#0E5D37"/>
<path d="M112.721 37.0782C114.701 37.0782 116.307 35.4726 116.307 33.492C116.307 31.5113 114.701 29.9057 112.721 29.9057C110.74 29.9057 109.134 31.5113 109.134 33.492C109.134 35.4726 110.74 37.0782 112.721 37.0782Z" fill="#0E5D37"/>
<path d="M130.141 37.0782C132.122 37.0782 133.728 35.4726 133.728 33.492C133.728 31.5113 132.122 29.9057 130.141 29.9057C128.161 29.9057 126.555 31.5113 126.555 33.492C126.555 35.4726 128.161 37.0782 130.141 37.0782Z" fill="#0E5D37"/>
</svg>
