<svg width="935" height="760" viewBox="0 0 935 760" fill="none" xmlns="http://www.w3.org/2000/svg">
<g clip-path="url(#clip0_200_1326)">
<path d="M379.049 626.135L379.142 630.716L378.488 635.764L383.069 638.101L394.383 638.194L398.59 640.158L399.151 642.869L400.46 645.299L402.985 647.262L405.79 648.29L407.099 651.843L406.444 656.236L408.221 664.463L411.961 671.661L411.026 674.372L407.286 673.717L403.265 670.539L398.871 668.108L396.253 663.995L392.419 661.284L389.427 660.817L387.37 662.313L387.838 667.641L385.968 671.941L385.874 672.969L387.744 673.53L388.586 675.026L388.118 676.522L385.874 678.017L381.854 677.456L378.394 678.391L378.301 679.98L379.049 681.383L379.236 682.878L378.114 687.833L377.833 691.198L378.301 694.844L377.833 698.303L375.309 700.827L373.532 703.631L374.561 707.464L374.093 708.866L373.906 710.175L375.589 713.26L376.15 716.532L370.914 712.979L366.8 712.886L363.902 711.67L360.816 711.764L354.458 713.073L351.279 712.138L350.251 706.062L358.292 693.722L358.666 689.889L357.076 686.992L362.78 670.539L365.772 667.267L366.707 665.304L367.361 663.247L368.483 661.658L369.044 659.789V657.639L368.67 655.488V653.338L368.109 651.375L367.268 649.88L367.922 648.758L368.764 645.206L367.735 636.418L364.743 633.707L362.593 633.24L358.666 631.277L356.983 629.781L360.629 625.201L365.865 622.396L366.52 623.051L370.26 622.49L374 622.303L379.049 626.135V626.135Z" stroke="#DDDDDD" stroke-linecap="round" stroke-linejoin="round"/>
<path d="M407.286 673.717L405.136 676.148L406.445 679.513L407.286 680.915L408.876 682.131L413.457 681.383L415.421 681.85L418.88 684.094L420.189 685.589L419.628 695.124L420.657 699.425L422.807 703.351L425.612 707.277L434.682 716.812L437.674 719.056L438.609 719.242L439.076 719.616L440.198 722.982L441.133 724.29L440.292 726.534L440.198 727.282L440.479 728.31L442.162 729.058L442.816 729.619L443.097 731.488L441.881 732.61L440.292 733.452L439.637 734.76L438.515 737.097L437.019 737.658H433.653L429.259 737.097H422.527L419.348 736.63L417.852 736.723L415.234 738.032L413.738 738.219H410.278L397.001 739.808L396.253 739.341L395.318 739.247L394.383 739.528L393.822 740.369H395.318L396.44 740.93L394.757 741.304L392.233 741.491L389.989 741.117L388.96 740.089L387.838 739.808L381.013 739.341L381.574 738.5L381.013 737.939L379.517 738.032L379.33 737.097L379.61 736.63L380.639 735.882L381.013 735.041L379.33 732.891L379.891 731.769L378.769 730.46L379.049 728.497L380.452 724.851H379.891L379.049 725.412L379.143 723.543L378.488 720.645L377.086 718.495L376.151 716.532L375.59 713.26L373.907 710.175L374.094 708.866L374.561 707.464L373.533 703.631L375.309 700.827L377.834 698.303L378.301 694.844L377.834 691.198L378.114 687.833L379.236 682.878L379.049 681.383L378.301 679.98L378.395 678.391L381.854 677.456L385.875 678.017L388.119 676.522L388.586 675.026L387.745 673.53L385.875 672.969L385.968 671.941L387.838 667.641L387.371 662.313L389.428 660.817L392.42 661.284L396.253 663.995L398.871 668.108L403.266 670.539L407.286 673.717V673.717Z" stroke="#DDDDDD" stroke-linecap="round" stroke-linejoin="round"/>
<path d="M357.077 686.991L354.833 687.646L352.308 688.02L348.194 686.804L338.47 687.739L327.437 686.991L319.303 681.663L318.742 680.635L316.872 679.232L316.124 678.391L316.03 675.68L317.152 673.156L317.807 667.641L314.628 664.275L311.729 664.93L309.018 664.743L308.457 662.967L310.888 650.721L311.823 648.01L316.965 643.803L323.043 642.121L326.409 643.523L329.494 642.681L332.486 636.418L333.515 633.053L336.507 631.277L339.966 630.435L343.519 630.061L350.625 631.557L353.804 630.529L356.983 629.781L358.666 631.277L362.593 633.24L364.744 633.707L367.736 636.418L368.764 645.205L367.923 648.758L367.268 649.879L368.11 651.375L368.671 653.338V655.488L369.045 657.638V659.788L368.484 661.658L367.362 663.247L366.707 665.304L365.772 667.267L362.78 670.539L357.077 686.991V686.991Z" stroke="#DDDDDD" stroke-linecap="round" stroke-linejoin="round"/>
<path d="M372.691 743.173L374.093 743.547L375.496 743.36L378.301 742.613L382.228 742.239L382.976 742.519L382.602 743.547L381.854 744.482L380.545 744.763L377.553 744.669L376.337 744.856L372.504 746.258L371.101 746.352L365.398 745.978L364.182 745.417L363.715 744.389L364.463 742.986L365.304 742.613L369.044 741.397L369.979 741.771L372.691 743.173V743.173ZM357.637 741.491L358.853 741.958L362.406 741.584L363.434 741.958L362.499 742.8L362.032 743.734L361.845 745.978L361.471 747.193L360.723 747.941L358.572 749.063L351.653 750.465L349.035 750.278L348.287 749.343L349.035 747.848L351.56 745.23L353.243 742.519L354.739 740.743L355.393 738.686L356.515 739.341L357.637 741.491V741.491ZM357.076 686.991L358.666 689.889L358.292 693.722L350.251 706.062L351.279 712.138L354.458 713.073L360.816 711.764L363.902 711.67L366.8 712.886L370.914 712.979L376.15 716.531L377.085 718.494L378.488 720.645L379.142 723.542L379.049 725.412L378.02 726.44L377.833 727.282L378.207 729.245V729.993L377.553 730.927V731.488L378.581 732.704L378.862 733.358L377.272 735.041L375.683 736.069L374.841 736.162L374.093 735.508H373.532L372.878 737.097L371.195 736.91L368.483 735.508L366.52 735.415L364.556 735.041L362.78 734.199L361.845 732.891L360.816 733.358H359.414L358.759 734.76L358.105 735.041V735.508L359.133 736.069L358.666 736.63L359.601 736.91L361.003 738.032L363.06 738.499L363.434 738.967L362.873 740.369L359.414 740.93L357.263 737.939L352.401 732.61L351.653 730.927V728.871L351.466 728.123H350.999L349.877 728.59L348.194 728.684L345.856 726.721L345.295 725.879L343.986 722.327L343.051 721.86L342.023 723.262L342.21 724.01L343.145 724.29L343.706 724.851L344.454 727.469L345.202 728.684L346.604 729.151L349.035 730.367L350.718 732.984L350.999 735.602L349.035 736.63L350.064 737.284L351.186 738.406L351.934 739.808L351.373 741.21L349.316 743.547L347.913 744.202L346.324 743.547V745.137L344.921 744.482L343.799 743.547L343.332 742.426L343.706 740.93L342.677 741.865L342.397 743.173L342.864 744.482L343.706 745.697L341.555 746.258H340.994L340.059 744.389L339.592 742.426L339.405 738.499L338.096 736.349L337.722 735.041L338.563 734.48L339.311 732.33L339.592 730.741L339.405 729.619L340.994 730.18L340.433 729.245L338.937 727.562L338.189 724.945L337.815 724.29L336.413 726.253H335.852L335.571 725.038L334.636 723.262L334.262 724.477L334.449 726.347L334.075 726.908L335.01 728.217L336.693 732.891L335.384 732.797L334.636 731.769L333.608 732.33L332.86 730.834L332.112 729.525L329.868 726.908L329.961 728.217L330.335 729.245L331.457 731.208L332.392 732.517L332.205 733.825L331.457 734.667L332.018 735.508L332.766 734.293L334.262 733.919L335.571 734.293L336.226 735.321L335.478 740.649L335.665 742.519L338.376 747.941L339.405 749.25L338.844 750.745L338.096 751.026L337.067 750.932L334.73 749.904L335.197 751.026L333.514 750.558L331.738 749.717L330.055 749.343L328.185 749.998L327.343 749.063L326.689 747.848L326.595 746.445L327.156 745.137L325.847 744.389L324.632 742.426L323.79 739.902L323.416 737.939L323.603 736.536L323.977 735.788L325.099 734.48L325.754 732.423L325.567 731.208L324.258 730.741L322.294 729.619L320.892 727.001L319.676 722.14L319.489 720.271L319.676 719.242L321.079 717.186L320.892 716.531L320.144 716.438L319.209 717.373L318.461 716.438L318.087 715.129L316.778 715.597L315.469 715.129L315.749 716.531L315.936 717.934L316.31 719.055L317.339 719.523L317.993 720.084L318.554 721.486L319.209 724.29L319.489 727.188L319.863 728.59L321.546 729.619L322.575 730.834L323.977 733.358L322.201 734.854L321.827 735.508L321.733 736.63L323.229 744.295L324.071 746.632L325.099 747.848L324.912 749.624L326.502 751.026L327.53 752.148L325.567 753.176L323.136 753.643L320.05 753.83L317.152 753.55L315.469 752.615L315.188 751.493L315.469 746.913L315.936 745.978L314.908 744.669V741.958L315.188 740.649L316.965 735.975L317.152 735.134L317.058 732.891L316.03 734.106L315.095 732.891L312.57 731.769L310.42 730.086L309.204 727.469L308.55 724.664L303.781 721.673L297.33 724.103L294.899 724.29L294.057 721.953L294.431 720.458L293.777 719.523L292.655 719.429L291.533 718.868L289.756 716.531L289.85 713.353L290.691 710.642L292.281 708.305L292.468 707.183L293.216 705.501L294.618 704.005L293.59 702.509L293.029 700.733V699.144L293.403 697.181L293.87 695.592L294.338 694.844L295.74 694.189L296.395 692.507L296.769 688.955L297.891 686.431L299.574 684.841L301.444 683.439L304.062 680.167L305.09 678.017L306.586 677.737L307.802 676.522L307.989 675.587L307.615 674.839L305.371 672.221L298.171 671.567L296.769 668.108L298.358 666.426L300.228 665.584L301.724 663.995L302.659 662.125L303.314 658.293L304.903 654.741L306.867 645.673L309.204 647.823L311.822 648.01L310.887 650.721L308.456 662.967L309.017 664.743L311.729 664.93L314.627 664.276L317.806 667.641L317.152 673.156L316.03 675.68L316.123 678.391L316.871 679.232L318.741 680.635L319.302 681.663L327.437 686.991L338.47 687.739L348.194 686.804L352.308 688.02L354.832 687.646L357.076 686.991V686.991Z" stroke="#DDDDDD" stroke-linecap="round" stroke-linejoin="round"/>
<path d="M506.302 473.948L502.001 480.398L502.936 482.081L505.367 481.614L510.603 479.183L513.689 478.622L525.657 478.248L537.531 479.651L546.32 485.727L553.333 494.514L561.28 501.619L564.74 510.686L561.654 520.128L561.093 529.382L557.727 532.561L553.8 535.365L550.621 539.291L548.284 543.872L545.759 557.52L546.04 562.475L545.105 575.656L543.235 583.228H542.3L539.962 583.695L538.84 584.723L537.064 588.182L535.755 589.397L534.165 590.145L531.08 591.36L529.584 588.836L527.34 584.723L518.083 573.786L511.164 570.234L498.916 572.571L494.521 572.664L492.371 572.197L490.875 570.888L491.623 566.214L489.753 562.194L480.403 556.679L474.793 554.716L469.463 554.248L464.414 556.118L463.386 558.642L464.134 561.633L462.825 563.877L460.207 565.279L456.934 566.12L453.475 566.214L450.389 565.653H447.304L445.06 567.336L442.909 569.673L440.572 570.888L438.047 571.168L436.271 569.112L435.242 566.494L434.681 563.503L433.84 562.194L432.25 562.101L431.876 562.942L431.035 564.157H429.258L427.482 564.531L424.583 568.364L421.591 569.112H418.506L415.233 569.579L414.018 572.197L413.27 578.74L409.81 583.414L404.481 580.143L401.956 574.721L404.574 567.429V563.597L403.733 559.857L401.769 556.679L398.59 555.09L395.785 555.838L393.448 557.614L390.362 557.988L387.37 556.585L384.472 554.435L381.854 552.005L379.703 549.294L376.711 543.031L375.963 539.852L378.955 541.348L382.228 544.059L384.752 545.274L386.809 544.62L387.09 541.068L388.305 537.983L398.684 532.28L401.863 526.952L403.265 520.595L403.452 518.071L404.387 515.828L405.977 513.117L404.013 511.715L401.021 512.088L398.497 510.78L397.562 507.695L396.346 498.253L396.533 489.186L396.253 486.381L394.663 483.577L392.419 481.24L390.082 477.874L389.147 473.855L388.96 469.742L389.334 465.255L393.261 466.189L398.31 466.75L402.05 468.059L404.668 468.62L410.184 469.274L412.896 470.022L416.729 472.359L418.038 472.827L424.583 473.948L426.734 474.79L430.941 476.94L433.372 477.688L435.897 477.968L438.141 478.622L439.917 480.492L443.47 482.549L445.434 484.044L446.369 484.512L447.865 484.886L448.893 483.67L448.332 480.866L444.686 472.827L442.909 467.124L444.125 461.609L448.519 457.963L458.711 456.748L474.419 461.983L480.122 463.291L488.631 463.572L491.436 463.291V462.918L506.302 473.948V473.948Z" stroke="#DDDDDD" stroke-linecap="round" stroke-linejoin="round"/>
<path d="M653.939 342.327L662.26 342.982L689.562 341.86L696.762 355.415L698.632 357.191L701.25 357.658L703.868 358.499L708.356 362.519L710.974 368.221L712.47 370.558L713.218 372.989L712.844 375.7V378.504L715.555 383.085L720.511 385.422L723.69 389.442L724.157 394.957L716.397 411.223L715.836 416.645L716.21 419.542L715.462 422.066L710.226 426.367L690.123 450.578L685.074 455.159L680.773 460.207L680.119 462.637L683.485 471.05L686.57 476.659L688.721 478.809L691.245 479.09L693.302 477.314L694.985 475.164L696.575 472.827L699.006 471.705L701.811 472.92L703.681 475.257L711.254 482.455L714.994 491.429V496.758L715.929 501.899L717.893 506.106L718.921 510.125L714.34 514.613L709.478 521.811L707.982 523.306L706.579 524.428L705.925 525.082L706.392 525.55L708.262 525.924L709.291 526.859L713.218 532.467L716.21 535.739L717.145 537.702L716.49 539.478L715.742 539.852L714.34 539.292L713.498 539.198L712.47 539.572L711.535 540.133L708.262 543.124L707.047 543.872L706.766 545.274L706.299 545.929L703.681 546.396L702.839 546.303L702.185 546.77L701.624 548.172L697.136 551.07L692.367 555.464L690.965 557.427L690.497 559.577L690.965 560.699L692.741 562.662L693.115 564.064L692.928 566.214L692.367 568.271L690.123 573.506L688.253 576.123L686.196 577.338L683.111 577.619L681.054 579.301L679.932 581.919L679.371 585.191L678.903 586.967L677.407 588.369L675.444 589.397L673.48 589.865L672.639 589.771L670.114 589.304L668.992 590.239L667.964 590.332L666.655 589.584L659.549 590.332L657.492 590.052L656.183 588.93L654.687 585.191L653.378 579.114L653.097 576.03L653.284 572.945L653.004 569.205L651.508 566.027L648.89 563.97L641.597 562.662L639.072 560.138L637.576 556.679L636.828 553.127L635.613 550.042L632.995 548.266L626.637 545.835L621.214 542.937L619.157 542.283L617.754 541.161L617.287 537.328L615.884 535.459L614.762 537.702L613.827 540.507L613.173 543.498L612.705 549.481L611.396 550.229L609.807 552.566L609.526 553.781L609.433 555.557L589.424 555.838L587.273 555.183L585.684 553.968L584.842 552.379L583.72 546.676L583.066 545.368L581.944 545.087L580.167 546.209L561.093 562.381L559.317 563.129L557.821 562.662L556.231 561.914L554.455 561.82L552.959 563.503L546.975 582.48L546.04 583.228H543.235L545.105 575.656L546.04 562.475L545.759 557.52L548.284 543.872L550.621 539.292L553.8 535.365L557.727 532.561L561.093 529.383L561.654 520.128L564.74 510.686L561.28 501.619L553.333 494.514L546.32 485.727L537.531 479.651L525.657 478.248L513.689 478.622L510.603 479.183L505.367 481.614L502.936 482.081L502.001 480.399L506.302 473.948L508.92 471.705L520.234 464.133L521.823 462.731L521.543 460.581L520.982 459.178L521.169 457.776L520.888 453.756L516.774 448.522L517.055 446.091L517.896 444.034L519.205 442.352L521.075 441.51L524.909 442.819L526.779 443.754L528.929 444.128L531.267 444.876L533.511 445.156L535.661 445.063L538.84 443.006L540.991 439.641L545.198 439.921L551.089 439.454L556.699 437.865L561.748 434.032L566.236 429.451L571.378 425.712L576.895 422.721L579.045 420.758L583.159 415.803L584.936 412.999L588.676 408.512L606.628 404.118L618.97 397.948L621.681 392.9L621.588 389.909L620.559 385.048L621.12 382.524V380.28L618.876 372.802L617.567 370.652L616.913 368.315L616.071 362.426L616.632 357.378L616.165 353.171L614.482 349.432L618.596 346.721L628.507 346.44L638.044 341.86L643.186 341.018L648.609 342.327H653.939V342.327Z" stroke="#DDDDDD" stroke-linecap="round" stroke-linejoin="round"/>
<path d="M261.893 221.643L265.166 226.037L271.15 236.133L272.365 241.368L270.776 242.116L269.28 243.892L268.625 245.855L268.158 252.492L268.251 254.455L269.56 258.475L269.654 260.344L269.28 262.12L268.158 264.831L267.971 265.766L267.784 268.945L267.316 269.879L267.036 271.469L267.503 274.18L270.028 276.049L271.991 278.386L273.3 281.097L276.012 280.723L277.975 278.48L279.658 275.862L283.679 271.469L292.935 264.271L298.452 263.055L300.509 264.458L301.537 266.888L303.968 267.355L309.672 264.738L312.57 264.177L315.562 264.644L317.339 263.429L316.965 260.251L319.489 259.223L322.294 259.41L324.725 260.344L325.38 261.934L325.847 268.29L327.156 268.664L329.868 267.823L334.169 271.469L334.262 277.825L333.234 280.63L334.917 282.406L340.433 284.462L342.771 286.052L342.584 288.763L340.714 291.193L338.189 292.876L335.665 294.932L333.608 297.456L330.99 299.139L329.12 301.289L332.673 305.87L338.189 308.3L343.986 308.954L355.487 308.767L359.227 311.385L360.723 324.005L360.629 326.903L358.572 328.585L356.141 328.772L354.458 330.081L356.048 332.231L358.853 333.073L360.536 334.475L359.881 336.625L361.003 338.588L363.341 339.803L363.808 342.327L362.032 344.29L360.91 345.319L360.162 346.627L359.881 348.216L359.414 349.712L355.206 352.797L354.552 355.695L356.141 358.125L357.17 358.78L358.479 360.462L358.292 361.584L357.45 364.015L357.918 365.23L359.881 364.669L361.751 365.136L350.812 380.748L350.344 380.841L346.604 378.785L339.405 371.68L334.73 370.278L320.331 370.839L318.461 371.68L318.087 373.924L318.835 430.106L319.302 431.508L321.172 434.873L324.725 435.247L323.697 438.332L321.359 440.576L319.77 441.136L318.554 442.352L318.741 444.128L318.367 445.437L317.245 444.782L316.31 445.53L315.375 447.493L314.908 449.55L313.599 450.952L313.318 450.485L312.196 449.456L312.103 448.989L311.168 448.521L308.269 445.343L305.184 440.482L304.249 439.454L296.582 433.565L296.021 433.284L294.244 429.638L293.216 425.899L293.029 423.562L292.561 422.16L291.907 421.505L290.691 418.982L290.504 416.925L288.634 413.653L287.606 412.625L286.39 411.97L284.801 411.69L281.902 409.727L281.341 409.259L280.032 409.166L276.573 409.82L272.272 410.662L271.711 410.475L269.28 408.231L268.158 407.764L266.942 407.577L258.434 407.67L256.564 408.044L254.039 409.166L253.104 409.353H251.982L248.523 408.792L244.409 408.886L243.474 408.605L243.006 408.044L242.165 406.642L241.043 405.053L240.014 403.464L237.022 402.529L232.534 402.435L231.319 402.061L230.29 401.22L229.355 399.444L228.046 397.855L226.363 396.453L225.335 395.05L223.839 394.116L221.688 393.555L219.351 393.368L217.294 392.713L216.359 391.965L214.956 390.563L213.18 389.348L212.058 389.161L206.822 389.442L199.435 388.226L198.313 387.852L197.378 387.198L196.817 386.17L196.724 383.646L196.35 382.804L195.041 381.402L193.732 379.626L192.516 378.785L188.496 376.822L185.878 375.045L184.475 374.391L184.382 373.924L182.512 373.082L181.483 372.802H180.361L175.312 374.391L171.853 376.448L168.767 377.382L166.336 377.569L164.186 376.822L162.783 375.326L162.596 372.895L163.064 370.558L162.97 368.502L162.035 366.913L159.791 366.071L155.958 365.417L154.649 364.95L153.527 364.015L152.872 362.986L152.592 361.678L152.124 355.788L152.031 355.321L145.205 354.293L139.502 355.041L136.977 350.647L137.071 344.758L137.819 338.401L136.603 333.073H133.892L132.676 332.325L131.461 331.39L105.374 300.354L103.13 298.485L97.8008 297.737L85.3653 298.111L78.1658 299.513L78.3528 298.017L78.1658 296.802L77.4178 295.867L72.1818 290.352L71.0598 288.576L70.9663 287.08L72.5558 283.434L74.5193 280.443L74.8933 279.508V277.919L75.6413 276.704L77.1373 275.208L78.7268 274.647L80.3163 275.021L85.3653 277.638L86.5808 277.451L87.7028 275.956L88.2638 274.46L88.3573 270.347L89.0118 268.29L90.9753 264.364L91.6298 262.214L91.5363 257.82L91.1623 255.577L90.5078 253.988L89.4793 253.427L87.4223 252.959L86.6743 252.025L85.9263 249.407L85.5523 248.566L83.6823 246.696L83.2148 245.761L83.3083 244.359L84.9913 240.152L85.0848 237.815L83.4953 230.804L82.7473 229.402L82.1863 228L81.8123 226.411V224.635L82.6538 221.55L81.9993 220.989L81.3448 220.895L81.9058 220.335L89.0118 221.176L95.9308 225.476L104.626 229.496L108.74 229.963L130.058 229.402L138.099 228.28L145.953 230.337L155.397 236.6L160.446 238.096L160.539 240.059L157.921 254.175L158.015 257.166L157.828 258.568L157.267 259.597L155.303 261.653L155.116 263.055L146.14 268.197L143.148 273.245L142.681 279.134L142.961 282.125L144.177 284.836L146.234 286.426L147.823 288.202L147.356 293.997L146.234 299.793L148.104 301.476L153.34 301.756L154.368 299.7V296.521L155.21 293.717L157.921 292.782L166.991 290.913L169.609 289.978L171.853 288.389L173.816 283.154L171.385 277.825L167.739 272.964L167.271 270.347L167.645 267.636L167.271 261.653L168.58 256.418L171.011 255.483L176.434 256.231L181.67 253.707L187.187 252.118L189.244 250.529L187.561 245.294L184.382 241.274L188.122 236.507L187.935 233.328L187.187 230.15L186.252 227.813L184.101 227.159L183.073 226.598L182.418 225.196L181.39 224.541H180.081L174.097 223.606L168.487 221.269L163.625 217.53L164.84 212.482L175.499 207.715L198.5 203.041L204.204 203.134L208.785 205.938L209.814 211.921L212.619 216.969L215.143 218.558L216.359 221.176L215.891 227.252L215.985 230.337L217.013 233.141L219.07 233.889H226.831L231.973 232.954L245.437 227.252L248.149 226.504L250.86 226.224L252.824 224.635L253.665 223.419L255.629 221.176L256.751 220.241L259.462 220.148L261.893 221.643V221.643Z" stroke="#DDDDDD" stroke-linecap="round" stroke-linejoin="round"/>
<path d="M110.237 536.955L115.753 534.244L117.343 537.609L117.997 541.068L121.176 540.694L124.075 538.824L127.721 538.731L130.246 540.881L131.181 542.844L131.929 544.807L132.116 546.116L132.583 547.237L134.734 547.331L137.539 545.835L139.128 546.303L140.811 546.396L142.12 545.835L143.523 545.461L146.702 545.181L147.917 546.676L146.141 556.959L144.645 558.923L137.632 564.064L133.799 568.177L131.835 573.319V575.749L132.957 577.712L133.986 578.46L136.51 579.301L137.819 579.488L141.84 579.675L145.206 577.525L146.421 575.749L148.385 574.814L149.787 576.871V582.386L150.535 586.032L150.348 587.154L149.413 588.089L148.198 588.462L144.271 591.36L141.746 591.734L140.437 592.202L141.84 593.791H144.177L148.478 595.661L148.572 597.811L147.356 599.213L142.681 598.839L142.588 598.932L135.762 595.941L130.807 595.006L131.181 592.669L131.087 590.613L128.937 589.865L124.449 589.678L122.672 590.145L121.363 589.304L120.241 588.276L118.091 587.715L116.314 586.593L116.127 584.63L120.615 582.199L121.363 580.517L120.522 578.927L118.278 578.086L115.753 578.647L113.416 580.236L111.078 581.451L108.834 579.675L108.741 578.647L107.993 576.777L108.647 574.814L110.517 573.319L111.359 571.262L106.777 570.047L61.3361 570.234L60.5881 570.982L60.4011 572.103L59.4661 573.412L57.9701 573.693L55.1651 573.599L53.3886 571.262L49.8356 569.392L47.9656 568.831L45.5346 569.86L45.0671 570.982L43.9451 575.001L42.7296 576.31L41.6076 577.899L40.7661 581.732L39.6441 583.041L35.0626 583.601L18.0456 582.854L17.2041 583.321L17.2976 584.443L15.8016 586.125L13.7446 587.528L11.7811 587.621L9.72406 586.967L7.10606 587.247L4.02056 586.967L4.30106 585.378L6.07756 580.33L6.17106 578.74L5.51656 575.375V573.786L6.45156 572.103L7.85406 570.888L8.78906 570.234L9.25656 569.299L8.97606 565.747L8.88256 564.905L8.41506 564.531L6.63856 564.251L5.32956 562.942L4.95556 561.446L5.14256 559.764L5.98406 556.492L5.61006 553.127L4.58156 550.135L4.30106 547.331L6.35806 544.526L9.06956 543.311L9.35006 542.47L8.88256 541.722L6.82556 540.039L6.17106 539.198L5.98406 537.702L7.01256 535.646L7.66706 534.804L7.94756 533.028L6.35806 513.678L6.54506 512.836L7.10606 512.462H7.94756L9.63056 512.836L10.0981 511.528L10.2851 508.256L8.60206 505.358L6.26456 502.647L4.76856 499.749L4.30106 496.664L5.23606 483.483L5.04906 482.362L4.30106 481.24L2.52456 479.09L1.58956 476.846L0.935059 475.631L1.49606 475.351L8.13456 470.583L15.7081 470.77L17.6716 474.509L18.0456 483.203L19.4481 487.503L21.5986 487.877L22.3466 483.857L23.4686 480.399L26.4606 480.305L26.9281 487.223L24.0296 495.169L24.1231 496.851L25.6191 500.871L28.8916 503.582L31.4161 506.947L34.9691 513.304L40.3921 518.258L44.6931 519.754L48.9941 519.567L52.1731 516.856L55.2586 509.097L58.5311 506.947L61.3361 509.097L62.7386 512.93L64.9826 514.145L67.2266 512.93L69.5641 511.902L77.3246 512.089L80.0361 515.921L79.9426 520.315L80.1296 521.624L82.4671 523.306L84.7111 524.521L85.1786 525.924V527.419L85.3656 528.635L85.9266 529.756L86.8616 534.431L83.9631 538.45L81.8126 542.002L86.4876 542.189L96.1181 541.068L100.887 539.759L103.037 538.357L105.562 537.515L107.899 537.328L110.237 536.955V536.955Z" stroke="#DDDDDD" stroke-linecap="round" stroke-linejoin="round"/>
<path d="M261.987 500.777L260.584 503.114L258.808 505.264L257.873 505.732L255.722 506.199L254.694 507.134L253.946 509.845L256.283 511.341L256.657 512.743L255.816 514.426L256.096 516.856L256.564 517.978L256.844 519.754L256.096 522.278L255.068 523.4L253.759 524.241L251.889 525.924L250.206 527.887L250.112 528.915L250.299 529.663L246.746 537.889L246.279 539.759L245.25 541.161L243.193 543.311L242.165 546.116L241.978 548.92L243.1 551.257L243.38 552.192L242.352 553.594L242.445 554.809L240.669 555.277L239.921 557.24L238.986 562.194L238.612 563.316L237.49 565.186L236.648 565.747L235.339 566.214L232.908 565.653L231.88 564.718L229.636 564.531L225.802 567.616L224.119 567.897L222.062 562.755L222.81 560.512L224.119 558.549L220.566 555.744H198.781L197.472 556.305L196.537 557.333V559.39L195.321 561.073L194.293 563.129L191.488 565.84L189.15 568.831L188.215 570.514L187.935 573.038L187.654 574.16V576.59L188.028 577.245L188.683 577.525L189.992 579.675L191.394 583.788L189.618 587.902L188.309 589.865L187.748 592.202L186.626 594.165L184.662 595.193L182.979 595.754L181.857 597.437L181.483 599.68L180.361 601.83L180.829 602.578L182.418 603.513L184.288 605.102L185.878 607.065L186.065 608.093L187.748 608.374L189.524 609.402L191.02 611.646L190.927 614.17L182.231 635.39L173.162 623.518L171.572 622.022L168.487 620.713L167.084 619.124L165.121 616.039L162.409 613.141L159.978 611.272L151.563 605.943L146.795 601.456L143.803 599.493L142.587 598.932L142.681 598.839L147.356 599.213L148.571 597.811L148.478 595.661L144.177 593.791H141.839L140.437 592.202L141.746 591.734L144.27 591.36L148.197 588.462L149.413 588.089L150.348 587.154L150.535 586.032L149.787 582.386V576.871L148.384 574.814L146.421 575.749L145.205 577.525L141.839 579.675L137.819 579.488L136.51 579.301L133.985 578.46L132.957 577.712L131.835 575.749V573.319L133.798 568.177L137.632 564.064L144.644 558.923L146.14 556.959L147.917 546.677L150.909 545.087L152.124 543.405L152.685 541.348L154.836 537.796L158.108 535.085L161.194 534.244L164.092 535.459L168.019 537.983L168.954 538.45L171.011 538.637L171.853 538.076L172.04 536.3L171.853 534.524L172.133 532.467L172.04 526.578L172.694 522.839L174.097 519.1L177.463 517.417L181.296 516.295L181.39 513.21L186.813 511.434L189.711 511.341L198.22 511.902L203.736 511.621L207.757 512.836L209.627 516.576L211.31 522.091L215.611 523.774L223.839 516.856L228.14 506.854L229.449 499.375L230.477 497.132L233.937 493.486L235.9 492.271L236.929 490.962L237.677 489.56L239.64 488.438L241.791 489.373L243.754 488.625L245.157 486.381L251.421 485.26L253.759 486.288L253.198 489.373L257.125 495.449L261.987 500.777V500.777Z" stroke="#DDDDDD" stroke-linecap="round" stroke-linejoin="round"/>
<path d="M245.157 486.381L243.754 488.625L241.791 489.373L239.64 488.438L237.677 489.56L236.929 490.962L235.9 492.271L233.937 493.486L230.477 497.132L229.449 499.375L228.14 506.854L223.839 516.856L215.611 523.774L211.31 522.091L209.627 516.576L207.757 512.836L203.736 511.621L198.22 511.902L189.711 511.341L186.813 511.434L181.39 513.21L175.219 496.477L174.751 492.458L175.593 488.999L176.247 479.557L179.894 474.79L182.792 473.388L185.223 471.237L187 464.787L187.935 465.348L188.309 466.75L189.898 467.405L194.76 465.909L199.903 469.181L202.988 469.368L204.952 469.835L208.224 469.274H209.533L210.468 467.405L210.936 464.881L212.619 462.918L215.33 462.076L223.745 461.796L222.156 463.946L222.249 467.311L223.745 467.872L225.896 466.563L228.701 465.909L231.506 465.629L233.002 465.816L234.124 466.657L234.03 468.433L232.254 469.461L230.01 472.266L229.449 475.631L230.571 478.996L233.189 481.333L234.217 481.24L235.526 482.362L241.604 485.353L245.157 486.381Z" stroke="#DDDDDD" stroke-linecap="round" stroke-linejoin="round"/>
<path d="M187 464.787L185.224 471.237L182.793 473.388L179.894 474.79L176.248 479.557L175.593 488.999L174.752 492.458L175.219 496.477L181.39 513.21L181.297 516.295L177.463 517.417L174.097 519.1L172.695 522.839L172.04 526.578L172.134 532.467L171.853 534.524L172.04 536.3L171.853 538.076L171.012 538.637L168.955 538.45L168.02 537.983L164.093 535.459L161.194 534.244L158.109 535.085L154.836 537.796L152.686 541.348L152.125 543.405L150.909 545.087L147.917 546.677L146.702 545.181L143.523 545.461L142.12 545.835L140.811 546.396L139.128 546.303L137.539 545.835L134.734 547.331L132.583 547.237L132.116 546.116L131.929 544.807L131.181 542.844L130.246 540.881L127.721 538.731L124.075 538.824L121.176 540.694L117.997 541.068L117.343 537.609L115.753 534.244L110.237 536.955L115.566 508.536L115.099 506.293L113.603 504.517L112.387 501.993L110.611 499.843L108.46 498.44L106.871 496.664L106.964 494.421L108.273 492.458L109.021 490.214L109.395 487.877L109.676 482.736L110.985 479.183L116.221 480.586L120.241 477.688L120.148 476.005L121.644 474.603L123.046 472.546L124.729 470.864L127.16 471.798L129.311 473.668L132.209 478.342L135.295 478.996L136.978 477.314L139.222 475.725L140.157 474.509L140.905 474.229L142.214 473.107L143.71 472.266L145.112 471.705L146.795 471.424L147.824 469.929L148.011 467.218L147.45 464.6L152.499 464.32L157.548 464.787L161.942 463.852L163.906 463.011L166.056 462.544L171.105 462.076L174.191 460.861L177.463 460.955L179.053 463.666L181.39 465.161L185.878 464.6L187 464.787V464.787Z" stroke="#DDDDDD" stroke-linecap="round" stroke-linejoin="round"/>
<path d="M147.45 464.6L148.011 467.218L147.824 469.929L146.795 471.424L145.112 471.705L143.71 472.266L142.214 473.107L140.905 474.229L140.157 474.509L139.222 475.724L136.978 477.314L135.295 478.996L132.209 478.342L129.311 473.668L127.16 471.798L124.729 470.863L123.046 472.546L121.644 474.603L120.148 476.005L120.241 477.688L116.221 480.585L110.985 479.183L109.676 482.736L109.395 487.877L109.021 490.214L108.273 492.458L106.964 494.421L106.871 496.664L108.46 498.44L110.611 499.843L112.387 501.993L113.603 504.517L115.099 506.293L115.566 508.536L110.237 536.955L107.899 537.328L105.562 537.515L103.037 538.357L100.887 539.759L96.1181 541.068L86.4876 542.189L81.8126 542.002L83.9631 538.45L86.8616 534.431L85.9266 529.756L85.3656 528.635L85.1786 527.419V525.924L84.7111 524.522L82.4671 523.306L80.1296 521.624L79.9426 520.315L80.0361 515.921L77.3246 512.089L69.5641 511.902L67.2266 512.93L64.9826 514.145L62.7386 512.93L61.3361 509.097L58.5311 506.947L55.2586 509.097L52.1731 516.856L48.9941 519.567L44.6931 519.754L40.3921 518.258L34.9691 513.304L31.4161 506.947L28.8916 503.582L25.6191 500.871L24.1231 496.851L24.0296 495.169L26.9281 487.223L26.4606 480.305L23.4686 480.399L22.3466 483.857L21.5986 487.877L19.4481 487.503L18.0456 483.203L17.6716 474.509L15.7081 470.77L8.13456 470.583L1.49606 475.351L0.935059 475.631L1.02856 474.696L2.15056 472.453L2.43106 467.498L3.36606 462.544L3.55306 457.87L3.83356 456.374L4.39456 455.065L5.23606 453.756L5.79706 452.261L5.89056 450.578L5.32956 448.895L3.83356 445.624L3.17906 443.941L2.89856 441.978L2.99206 440.482L3.64656 437.304L3.45956 434.406L3.83356 433.378L5.42306 431.601L5.98406 430.667L6.63856 428.049L6.45156 425.712L11.0331 421.786L14.0251 421.879L20.1961 420.477L22.0661 419.262L23.4686 417.486L27.7696 414.027L29.5461 413.279L30.1071 412.531L31.3226 411.503L32.9121 410.568L36.0911 407.764L37.7741 406.736L39.5506 406.175L40.7661 406.081L42.0751 406.362L42.6361 407.203L43.5711 407.67L44.4126 408.605L45.4411 408.418L54.6041 404.212L58.0636 401.594L61.2426 400.005L64.6086 397.481L80.5971 389.442L82.3736 388.133L83.8696 386.45L84.6176 381.309L86.5811 377.476L90.0406 374.952L93.7806 374.578L97.3336 376.167L99.5776 379.065L101.354 382.524L104.346 385.141L107.806 386.918L116.969 390.189L122.672 391.498H124.823L128.656 389.161L129.965 392.153L127.347 395.985L124.729 397.481L122.859 399.444L121.55 401.501L119.867 403.183L118.839 407.951L119.867 412.718L126.786 428.049L129.498 432.256L132.209 442.819L135.014 446.932L136.791 448.522L138.848 449.83L141.653 454.411L143.897 461.889L144.832 463.478L146.141 463.759L147.45 464.6V464.6Z" stroke="#DDDDDD" stroke-linecap="round" stroke-linejoin="round"/>
<path d="M365.866 622.396L360.63 625.201L356.983 629.781L353.804 630.529L350.625 631.557L343.519 630.062L339.966 630.436L336.507 631.277L333.515 633.053L332.486 636.418L329.494 642.681L326.409 643.523L323.043 642.121L316.965 643.803L311.823 648.01L309.205 647.823L306.867 645.673L307.148 642.401L307.709 640.251L308.457 638.288L309.953 635.577L313.038 631.464L313.506 630.062L313.412 628.005L314.441 623.985L314.16 619.872L314.534 618.096L316.03 616.881L317.9 616.133L318.368 615.479L318.742 614.45L318.929 610.991L318.835 609.87L318.461 608.841L317.433 606.878L317.059 605.757L316.778 602.765L315.376 598.932L314.908 594.632L312.758 586.967L312.384 584.63V582.199L313.132 582.012L314.815 582.106L316.872 582.573L318.835 582.199L321.453 579.675L323.136 572.01L325.006 568.271L330.242 563.316L330.897 565.466L330.803 567.99L331.832 568.458L336.039 568.271L340.527 570.234L342.958 570.701L345.389 571.729L345.015 577.058L340.714 581.732L338.564 587.621L339.312 589.584L340.434 590.145L343.052 590.613L344.174 591.267L345.763 593.417L348.942 600.615L347.914 601.55V603.046L347.446 605.383L348.101 606.317L349.316 606.037L350.438 605.196L351.654 606.037L352.028 607.907L353.898 609.309L353.43 612.02L354.365 614.263L355.674 616.413L356.516 618.844L358.199 620.807L360.349 621.181L362.406 620.527L363.248 620.62L364.65 621.461L365.024 622.303L365.866 622.396V622.396Z" stroke="#DDDDDD" stroke-linecap="round" stroke-linejoin="round"/>
<path d="M649.731 207.154L648.142 208.275L646.926 210.052L645.056 212.108L637.763 216.315L634.023 221.456L631.499 223.419L625.608 225.196L623.271 227.252L620.933 233.141L618.222 242.489L617.1 245.387L612.986 251.183L612.799 253.333L621.12 256.979L623.551 262.401L624.393 268.664L629.909 271.282L634.865 274.366L636.548 279.134L636.361 290.165L636.641 292.502L636.454 294.839L627.572 299.326L627.104 301.943L630.377 306.524L646.459 318.49L648.703 323.724L649.264 328.772L650.573 333.727L652.723 338.214L654.5 340.458L653.939 342.327H648.609L643.186 341.018L638.044 341.86L628.507 346.44L618.596 346.721L614.482 349.432L612.051 348.403L599.054 340.271L560.906 322.509L558.475 323.07L557.353 323.818L556.325 325.594L559.41 329.894L560.439 332.699L559.691 335.316L554.548 337.279L552.585 338.962L550.247 343.823L547.536 344.945L544.45 345.599L532.202 346.253L521.169 344.197L516.4 342.608L513.689 337.934L510.229 333.82L507.424 332.979L505.554 331.016L505.928 328.585L506.957 326.342L508.266 324.192L508.92 321.855L508.546 315.405L506.863 309.983L501.908 308.207L492.932 309.796L490.033 307.833L490.127 295.213L489.753 291.287L488.163 286.986L485.452 283.528L480.87 282.312L476.382 283.154L474.699 281.191L472.923 279.508L470.585 278.199L469.463 276.143L472.175 271.375L473.016 266.234L476.569 262.307L478.72 257.073L478.159 251.651L474.606 247.444L472.455 241.368L472.175 234.731L472.642 228.748L475.073 223.793L479.655 223.513L482.46 222.204L484.61 219.961L487.602 215.38L495.55 207.06L500.786 204.63L503.31 206.032L504.713 205.751L510.603 203.321L515.372 203.414L519.953 204.723L524.815 206.78L529.771 207.06L534.633 206.312L537.718 210.239L541.645 211.641L551.65 210.893L556.138 209.771L559.504 212.95L561.28 217.717V222.858L560.626 227.906L562.402 232.3L566.89 234.17L579.139 233.235L581.85 234.637L584.842 235.759L586.993 234.45L586.058 231.552L587.741 226.224L596.343 222.858L598.961 221.176L600.831 219.026L601.205 216.408L595.595 214.539L588.956 214.258L576.614 211.921L570.911 209.678L563.431 199.675L560.252 193.973L558.849 194.44H556.325L554.829 192.29L555.109 189.673L557.727 184.812L557.634 182.101L556.418 176.398L555.203 173.781L552.585 173.127L549.78 173.501L545.011 174.809L541.739 172.566L543.328 166.676L547.536 162.937L554.081 162.376L556.699 161.161L559.223 159.478L582.972 150.411L584.188 147.7L583.533 144.428L584.001 141.811L589.611 126.012L590.359 122.46L591.481 119.001L593.257 117.319L595.688 116.384L601.485 115.355L603.916 116.945L608.03 117.973L618.315 111.055L623.551 114.701L628.039 119.095L629.068 122.086L630.283 128.349L630.377 131.528L630.751 134.332L632.34 136.856L633.93 139.941L634.397 143.4L634.491 148.915L636.828 161.628L646.178 184.812L646.646 191.542L643.934 203.882L645.991 206.499L649.731 207.154V207.154Z" stroke="#DDDDDD" stroke-linecap="round" stroke-linejoin="round"/>
<path d="M703.12 262.681L704.148 269.506L698.351 278.947L698.164 282.406L699.847 285.865L702.278 288.856L705.177 290.913L708.543 292.221L711.441 294.091L716.677 302.598L722.194 306.15L721.352 312.974L721.82 323.444L720.604 326.716L717.706 329.053L703.307 337.747L696.668 340.738L689.562 341.86L662.26 342.982L653.939 342.327L654.5 340.458L652.723 338.214L650.573 333.727L649.264 328.772L648.703 323.724L646.459 318.49L630.377 306.524L627.104 301.943L627.572 299.326L636.454 294.839L636.641 292.502L636.361 290.165L636.548 279.134L634.865 274.367L629.909 271.282L624.393 268.664L623.551 262.401L621.12 256.979L612.799 253.333L612.986 251.183L617.1 245.387L618.222 242.49L620.933 233.141L623.271 227.252L625.608 225.196L631.499 223.419L634.023 221.456L637.763 216.315L645.056 212.108L646.926 210.052L648.142 208.276L649.731 207.154L660.577 204.256L671.236 209.491L676.192 213.417L680.493 217.998L684.233 223.139L692.367 231.365L694.05 233.515L694.518 236.226L693.583 254.362L694.05 260.064L694.798 262.401L700.221 262.962L703.12 262.681V262.681Z" stroke="#DDDDDD" stroke-linecap="round" stroke-linejoin="round"/>
<path d="M306.867 645.673L304.903 654.74L303.314 658.293L302.659 662.125L301.724 663.995L300.228 665.584L298.358 666.426L296.769 668.108L298.171 671.567L298.265 673.25L297.049 673.904L286.951 675.493L285.736 675.867L284.24 676.989L282.931 678.391L282.557 679.139L282.37 681.196L282.183 681.663L280.78 682.037L277.508 681.943L276.105 682.504L275.451 684.374L275.638 685.215L276.386 686.43L276.479 687.085L276.105 687.926L275.264 688.394L273.3 688.954L271.711 690.357L270.682 690.544L267.877 689.983L267.223 690.263L264.979 693.348L263.67 694.096L261.613 693.815L260.023 693.068L258.34 692.133L255.722 689.796L254.694 690.263L252.169 693.909L250.019 695.031L247.588 695.498L246.185 695.218L244.689 695.685L243.287 696.339L241.791 696.807L239.173 698.676L236.368 700.172L235.152 700.079L233.75 700.266L231.88 699.985L230.384 698.863L226.457 696.713L222.904 695.498L219.912 693.535L217.761 691.759L217.387 690.544L218.977 690.731L220.566 691.105L220.005 690.17L217.855 687.833L217.107 687.365L216.826 687.739V689.141L216.546 689.422L215.33 689.609L214.115 689.983L213.18 689.515L211.31 689.889L210.468 689.422L210.281 688.861L210.468 685.963L210.094 682.411L208.505 675.4L208.879 674.371L210.749 673.904L215.891 673.811L217.387 673.437L217.761 674.652L218.416 675.587L219.07 675.119L219.631 673.904L220.473 673.063L223.184 672.034L224.493 671.847H225.709L226.363 671.38L224.493 669.791L223.745 668.576L223.371 666.239L223.558 665.023L224.026 664.089L225.054 663.434L226.27 663.154L228.794 663.247L229.729 662.78L230.664 661.752L231.786 659.975L230.571 660.536L229.449 661.471L228.42 662.032L226.924 661.658L225.896 662.78L224.119 662.312L222.249 663.247L221.127 665.023L221.595 666.986L220.753 668.95L219.725 670.071L218.416 670.352L216.826 669.697L215.891 668.295L214.956 668.108L214.582 668.576L214.769 669.604L215.798 671.287L211.216 671.1L202.521 668.108L201.492 666.426L198.968 664.182L197.378 663.06L196.817 661.378L196.63 659.695L196.911 658.947L197.378 658.667L198.687 657.264L199.903 656.704L207.57 656.984L210.375 657.545L212.058 658.386H212.525L213.367 657.358L214.582 654.553L215.237 653.619L216.265 653.151L217.481 653.245L218.603 653.525L219.444 654.18L220.286 656.797L221.501 656.517L221.595 655.208L221.034 653.993L219.725 652.684L218.135 651.562L216.826 650.908L215.33 651.001L214.582 651.749L213.647 654.18L212.806 654.927L211.497 655.488L210.094 655.862L208.879 655.769L207.383 654.927L206.728 653.806V652.497L208.224 648.197L208.411 647.075L208.224 645.579H207.757L205.7 651.469L204.858 652.964L203.83 653.993L202.427 654.553L200.651 654.647L199.809 654.927L197.939 655.956L195.976 656.704L194.48 655.769L193.264 654.647L192.049 653.151L191.114 651.562L190.366 649.319L188.87 646.795L188.589 645.018L188.776 643.429L189.244 641.653L189.992 640.251L190.927 639.597L191.862 639.97L193.451 641.186L194.012 641.373L194.386 640.812L193.919 639.316L194.012 638.568L196.443 636.418L202.801 634.081L204.578 631.09L202.988 631.37L200.277 633.801L197.285 634.736L191.301 637.82L190.179 638.662L186.252 642.307L185.504 642.214L182.605 635.857L182.231 635.39L190.927 614.17L196.443 616.787L200.09 620.994L199.342 626.229L199.996 630.248L201.586 631.464L202.895 630.903L207.383 626.977L207.009 624.453L207.757 622.49L212.806 622.77L215.143 622.396L218.042 622.583L221.034 624.733L223.278 625.481L224.026 624.827L224.493 623.798L228.794 621.087L233.563 620.9L242.632 625.855L246.933 630.529L249.551 631.931L251.702 633.614L251.328 636.418L249.738 639.223L250.019 640.064L250.954 640.812L251.328 641.747L251.047 642.681L251.141 643.897L252.45 644.364L253.852 644.271L261.426 642.681L265.446 639.784L268.625 636.044L272.926 632.772L276.199 629.033L277.134 626.042L277.04 622.957L276.012 622.116L274.609 621.742L269.934 617.442L267.597 613.515L266.662 610.43L266.381 607.813L263.857 603.419L264.137 600.615L265.259 598.371L267.036 596.689L269.747 596.969L271.711 599.026L273.3 601.55H275.451L278.63 597.53L280.687 596.221L288.073 593.136L297.517 587.434L302.285 585.471L304.997 585.378L307.802 585.845L309.952 585.097L312.383 582.199V584.63L312.757 586.967L314.908 594.632L315.375 598.932L316.778 602.765L317.058 605.756L317.432 606.878L318.461 608.841L318.835 609.87L318.928 610.991L318.741 614.45L318.367 615.478L317.9 616.133L316.03 616.881L314.534 618.096L314.16 619.872L314.44 623.985L313.412 628.005L313.505 630.061L313.038 631.464L309.952 635.577L308.456 638.288L307.708 640.251L307.147 642.401L306.867 645.673V645.673Z" stroke="#DDDDDD" stroke-linecap="round" stroke-linejoin="round"/>
<path d="M312.383 582.199L309.952 585.097L307.802 585.845L304.997 585.378L302.285 585.471L297.517 587.434L288.073 593.136L280.687 596.221L278.63 597.53L275.451 601.55H273.3L271.711 599.026L269.747 596.969L267.036 596.689L265.259 598.371L264.137 600.615L263.857 603.419L266.381 607.813L266.662 610.43L267.597 613.515L269.934 617.442L274.609 621.742L276.012 622.116L277.04 622.957L277.134 626.042L276.199 629.033L272.926 632.772L268.625 636.044L265.446 639.784L261.426 642.681L253.852 644.271L252.45 644.364L251.141 643.897L251.047 642.681L251.328 641.747L250.954 640.812L250.019 640.064L249.738 639.223L251.328 636.418L251.702 633.614L249.551 631.931L246.933 630.529L242.632 625.855L233.563 620.9L228.794 621.087L224.493 623.798L224.026 624.827L223.278 625.481L221.034 624.733L218.042 622.583L215.143 622.396L212.806 622.77L207.757 622.49L207.009 624.453L207.383 626.977L202.895 630.903L201.586 631.464L199.996 630.248L199.342 626.229L200.09 620.994L196.443 616.787L190.927 614.17L191.02 611.646L189.524 609.402L187.748 608.374L186.065 608.093L185.878 607.065L184.288 605.102L182.418 603.513L180.829 602.578L180.361 601.83L181.483 599.68L181.857 597.437L182.979 595.754L184.662 595.193L186.626 594.165L187.748 592.202L188.309 589.865L189.618 587.902L191.394 583.788L189.992 579.675L188.683 577.525L188.028 577.245L187.654 576.59V574.16L187.935 573.038L188.215 570.514L189.15 568.831L191.488 565.84L194.293 563.129L195.321 561.073L196.537 559.39V557.333L197.472 556.305L198.781 555.744H220.566L224.119 558.549L222.81 560.512L222.062 562.755L224.119 567.897L225.802 567.616L229.636 564.531L231.88 564.718L232.908 565.653L235.339 566.214L236.648 565.747L237.49 565.186L238.612 563.316L238.986 562.194L239.921 557.24L240.669 555.277L242.445 554.809L242.352 553.594L243.38 552.192L243.1 551.257L241.978 548.92L242.165 546.116L243.193 543.311L245.25 541.161L246.279 539.759L246.746 537.889L250.299 529.663L250.112 528.915L250.206 527.887L251.889 525.924L253.759 524.241L255.068 523.4L256.096 522.278L256.844 519.754L256.564 517.978L256.096 516.856L255.816 514.426L256.657 512.743L256.283 511.341L253.946 509.845L254.694 507.134L255.722 506.199L257.873 505.732L258.808 505.264L260.584 503.114L261.987 500.777L263.296 501.432L264.885 501.151L266.194 501.993L265.914 503.488L268.438 504.33L268.999 506.106L268.158 509.565L270.121 512.275L273.674 512.182L277.227 510.686L278.817 509.751L280.313 509.378L281.154 510.78L282.276 511.715L284.894 513.491L287.045 516.015L288.915 516.108L291.813 515.36L293.403 515.547L295.366 517.323L297.143 521.717L298.171 523.119L298.545 524.615L299.574 526.111L303.407 525.363L306.586 524.054L308.643 523.867L309.859 524.802L310.7 525.83L310.887 527.232L311.916 527.793L313.973 528.448L314.16 529.102L315.375 531.813L315.749 534.057L315.375 535.459L314.44 538.357L314.066 542.47L313.412 544.246L313.318 545.087L313.412 548.546L313.225 549.2L311.168 553.594L310.326 556.679L310.233 557.988L310.7 562.101L310.42 572.103L310.7 575.469L312.29 579.862L312.383 582.199V582.199Z" stroke="#DDDDDD" stroke-linecap="round" stroke-linejoin="round"/>
<path d="M375.964 539.852L376.712 543.031L379.704 549.294L381.854 552.005L384.472 554.435L387.371 556.585L390.363 557.988L393.448 557.614L395.786 555.838L398.591 555.09L401.77 556.679L403.733 559.857L404.575 563.596V567.429L401.957 574.721L396.721 575.282L394.103 575.001L391.672 576.59L394.757 586.593L394.664 592.108L391.298 602.578L392.7 604.635L392.794 605.663L393.635 608.935L393.822 611.365L394.383 613.796L394.57 616.133L392.981 618.47L391.111 620.62L390.55 624.546L391.485 628.566L389.334 629.687L386.623 627.07L384.94 625.948L382.976 624.92L379.049 626.135L374 622.303L370.26 622.489L366.52 623.05L365.866 622.396L365.024 622.303L364.65 621.461L363.248 620.62L362.406 620.526L360.349 621.181L358.199 620.807L356.516 618.844L355.674 616.413L354.365 614.263L353.43 612.02L353.898 609.309L352.028 607.906L351.654 606.037L350.438 605.196L349.316 606.037L348.101 606.317L347.446 605.382L347.914 603.045V601.55L348.942 600.615L345.763 593.417L344.174 591.267L343.052 590.612L340.434 590.145L339.312 589.584L338.564 587.621L340.714 581.732L345.015 577.058L345.389 571.729L342.958 570.701L340.527 570.234L336.039 568.271L331.832 568.457L330.803 567.99L330.897 565.466L330.242 563.316L332.299 559.109L334.917 557.427L335.478 559.951L336.039 560.418L337.255 562.194L339.218 563.129L342.584 560.418L345.576 556.866L352.028 552.285L355.955 548.733L360.349 542.844L361.845 541.535L364.276 540.694L366.707 538.731L369.606 537.235L373.346 537.515L375.964 539.852V539.852Z" stroke="#DDDDDD" stroke-linecap="round" stroke-linejoin="round"/>
<path d="M438.047 571.168L439.169 575.469L442.161 578.927L444.218 580.423L444.779 581.171L445.06 582.012L446.369 583.508L446.743 585.938L447.584 588.089L449.174 590.145L449.454 592.669L444.592 595.38L444.031 597.998L445.527 600.335L444.873 605.663L440.478 610.057L438.702 612.394L437.206 614.731L435.803 620.62L434.494 622.676L432.25 621.648H430.193L429.165 623.331L427.949 624.827L424.396 626.509L422.9 627.911L420.937 628.005L419.441 624.453L416.542 623.611L413.363 624.64L412.428 626.603L413.737 629.033L412.709 632.492L409.997 636.792L408.875 637.82L408.782 639.69L409.062 641.466L408.034 643.055L406.818 644.458L406.07 646.327L405.79 648.29L402.985 647.262L400.46 645.299L399.151 642.868L398.59 640.157L394.383 638.194L383.069 638.101L378.488 635.764L379.142 630.716L379.049 626.135L382.976 624.92L384.939 625.948L386.622 627.07L389.334 629.688L391.484 628.566L390.549 624.546L391.11 620.62L392.98 618.47L394.57 616.133L394.383 613.796L393.822 611.365L393.635 608.935L392.793 605.663L392.7 604.635L391.297 602.578L394.663 592.108L394.757 586.593L391.671 576.59L394.102 575.001L396.72 575.282L401.956 574.721L404.481 580.143L409.81 583.414L413.27 578.74L414.018 572.197L415.233 569.579L418.506 569.112H421.591L424.583 568.364L427.482 564.531L429.258 564.157H431.035L431.876 562.942L432.25 562.101L433.84 562.194L434.681 563.503L435.242 566.494L436.271 569.112L438.047 571.168V571.168Z" stroke="#DDDDDD" stroke-linecap="round" stroke-linejoin="round"/>
<path d="M473.017 266.234L472.175 271.375L469.464 276.143L470.586 278.199L472.923 279.508L474.7 281.191L476.383 283.154L475.635 285.397L475.261 288.015L473.391 290.539L470.586 291.847L466.659 296.241L465.256 302.13L467.313 308.113L464.228 318.489V324.566L463.76 327.651L464.415 330.268L461.236 334.755V336.064L461.049 337.466L458.805 339.149V350.366L461.984 355.041L465.63 358.873L468.622 363.08L468.248 367.941L466.659 372.428L463.76 375.793L461.797 380.467L459.272 384.861L456 388.226L452.914 388.6L451.044 386.731L450.016 384.954L448.52 383.459L445.341 379.346L438.328 377.476L435.804 376.448L433.747 378.411L429.259 384.767L423.088 388.133L421.124 380.561L420.283 371.306L417.197 369.437L414.673 367.473L414.766 365.417L414.018 363.641L411.494 361.304L406.725 362.052L403.733 367.567L401.022 368.782L398.404 367.66L395.786 367.473L393.916 365.884L391.391 366.071L389.521 365.136L388.399 362.986L386.249 364.015L383.724 364.576L382.322 361.865L379.517 360.836L377.086 364.295L375.403 365.51L373.439 364.669L371.289 364.389L369.138 364.295L361.752 365.136L359.882 364.669L357.918 365.23L357.451 364.015L358.292 361.584L358.479 360.462L357.17 358.78L356.142 358.125L354.552 355.695L355.207 352.797L359.414 349.712L359.882 348.216L360.162 346.627L360.91 345.318L362.032 344.29L363.809 342.327L363.341 339.803L361.004 338.588L359.882 336.625L360.536 334.475L358.853 333.072L356.048 332.231L354.459 330.081L356.142 328.772L358.573 328.585L360.63 326.903L360.723 324.005L359.227 311.385L355.487 308.767L343.987 308.954L338.19 308.3L332.673 305.87L329.12 301.289L330.99 299.139L333.608 297.456L335.665 294.932L338.19 292.876L340.714 291.193L342.584 288.763L342.771 286.052L340.434 284.462L334.917 282.406L333.234 280.63L334.263 277.825L334.169 271.469L329.868 267.823L327.157 268.664L325.848 268.29L325.38 261.934L324.726 260.344L322.295 259.41L319.49 259.223L316.965 260.251L317.339 263.429L315.563 264.644L312.571 264.177L309.672 264.738L303.969 267.355L301.538 266.888L300.509 264.457L298.452 263.055L292.936 264.271L283.679 271.469L279.659 275.862L277.976 278.48L276.012 280.723L273.301 281.097L271.992 278.386L270.028 276.049L267.504 274.18L267.036 271.469L267.317 269.879L267.784 268.945L267.971 265.766L268.158 264.831L269.28 262.12L269.654 260.344L269.561 258.475L268.252 254.455L268.158 252.492L268.626 245.855L269.28 243.892L270.776 242.116L272.366 241.368L275.919 240.152L277.041 239.124L277.415 238.096L277.508 236.039L278.163 235.011L278.911 234.45L280.781 233.796L281.622 233.235L282.557 232.02L283.96 229.122L284.895 227.906L286.391 227.346L288.074 227.533L293.216 229.402L294.899 229.776H296.676L301.725 228.28H303.875L311.823 225.289L313.132 224.448L314.347 223.419L315.376 222.111L316.124 220.335L317.62 213.23L318.461 210.799L320.051 208.836L325.567 205.378L327.063 203.788L328.372 201.451L331.925 203.227L333.795 203.695L337.909 203.788L339.592 205.004L340.527 206.873L340.247 208.369L339.031 209.304L336.881 211.641L336.974 213.884L342.678 215.38L345.389 217.063L349.503 221.269L352.028 221.643L354.646 220.241L356.516 218.184L356.422 215.847L355.113 213.884L356.422 209.584L362.313 209.678L365.118 210.706L367.268 209.491L367.642 206.686L368.951 204.162L373.813 201.264L379.517 202.386L382.509 203.695L385.22 205.658L386.716 207.715L388.96 208.743L395.225 206.125L397.936 202.012L403.266 201.545L412.429 194.721L423.368 191.168L426.08 192.477L425.986 195.469L424.584 198.086L424.21 200.89L425.799 203.508L428.324 205.191L433.747 207.154L436.271 209.21L438.235 211.828L443.658 213.884L449.548 215.473L457.496 223.98L458.992 235.011L457.496 241.087L458.711 250.529L457.589 253.52L454.317 254.362L452.727 256.512L456.935 260.157L463.199 260.905L466.659 265.018L468.155 265.766L471.334 266.608L473.017 266.234V266.234Z" stroke="#DDDDDD" stroke-linecap="round" stroke-linejoin="round"/>
<path d="M324.726 435.247L329.494 435.06L332.393 435.434L335.852 434.873L335.198 437.584L333.234 442.632L336.974 449.269L337.348 454.411L336.133 466.002L335.198 468.433L333.795 470.676L332.86 473.855L332.767 477.127L333.421 477.314L335.291 476.472L337.909 474.79L340.06 472.733L344.08 470.396L359.788 465.068L362.406 464.787L376.057 465.909L387.09 464.881L389.334 465.255L388.96 469.742L389.147 473.855L390.082 477.875L392.42 481.24L394.664 483.577L396.253 486.381L396.534 489.186L396.347 498.253L397.562 507.695L398.497 510.78L401.022 512.088L404.014 511.715L405.977 513.117L404.388 515.828L403.453 518.071L403.266 520.595L401.863 526.952L398.684 532.28L388.306 537.983L387.09 541.068L386.81 544.62L384.753 545.274L382.228 544.059L378.956 541.348L375.964 539.852L373.346 537.515L369.606 537.235L366.707 538.731L364.276 540.694L361.845 541.535L360.349 542.844L355.955 548.733L352.028 552.285L345.576 556.866L342.584 560.418L339.218 563.129L337.255 562.194L336.039 560.418L335.478 559.951L334.917 557.427L332.299 559.109L330.242 563.316L325.006 568.271L323.136 572.01L321.453 579.675L318.835 582.199L316.872 582.573L314.815 582.106L313.132 582.012L312.384 582.199L312.29 579.862L310.701 575.469L310.42 572.103L310.701 562.101L310.233 557.988L310.327 556.679L311.168 553.594L313.225 549.2L313.412 548.546L313.319 545.087L313.412 544.246L314.067 542.47L314.441 538.357L315.376 535.459L315.75 534.057L315.376 531.813L314.16 529.102L313.973 528.448L311.916 527.793L310.888 527.232L310.701 525.83L309.859 524.802L308.644 523.867L306.587 524.054L303.408 525.363L299.574 526.111L298.546 524.615L298.172 523.119L297.143 521.717L295.367 517.323L293.403 515.547L291.814 515.36L288.915 516.108L287.045 516.015L284.895 513.491L282.277 511.715L281.155 510.78L280.313 509.378L278.817 509.751L277.228 510.686L273.675 512.182L270.122 512.275L268.158 509.565L269 506.106L268.439 504.33L265.914 503.488L266.195 501.993L264.886 501.151L263.296 501.432L261.987 500.777L257.125 495.449L253.198 489.373L253.759 486.288L251.422 485.259L245.157 486.381L241.604 485.353L235.527 482.362L234.218 481.24L233.189 481.333L230.571 478.996L229.449 475.631L230.01 472.266L232.254 469.461L234.031 468.433L234.124 466.657L233.002 465.815L231.506 465.628L228.701 465.909L225.896 466.563L223.746 467.872L222.25 467.311L222.156 463.946L223.746 461.796L223.091 457.028L217.949 453.85L214.77 450.952L214.022 449.456L212.619 448.335L211.497 446.932L209.16 442.445L209.814 439.828L218.697 428.704L222.156 425.525L225.242 426.74L229.169 430.667L236.929 433.565L244.596 435.341L255.349 435.902L263.951 437.865L266.569 437.304L268.158 435.434L268.906 433.097L270.122 424.964L273.301 414.12L276.573 409.82L280.033 409.166L281.342 409.259L281.903 409.727L284.801 411.69L286.391 411.97L287.606 412.625L288.635 413.653L290.505 416.925L290.692 418.982L291.907 421.505L292.562 422.16L293.029 423.562L293.216 425.899L294.245 429.638L296.021 433.284L296.582 433.565L304.249 439.454L305.184 440.482L308.27 445.343L311.168 448.521L312.103 448.989L312.197 449.456L313.319 450.485L313.599 450.952L314.908 449.55L315.376 447.493L316.311 445.53L317.246 444.782L318.368 445.437L318.742 444.128L318.555 442.352L319.77 441.136L321.36 440.576L323.697 438.332L324.726 435.247V435.247Z" stroke="#DDDDDD" stroke-linecap="round" stroke-linejoin="round"/>
<path d="M466.659 372.428L471.147 374.672L474.98 377.476L476.196 382.804L479.842 386.637L484.985 387.665L490.314 387.572L491.623 387.385L492.839 386.824L495.27 386.17L497.42 387.572L498.823 389.348L498.355 391.592L497.233 394.396L493.961 398.79L492.184 400.566L489.286 401.501L487.416 404.305L485.452 406.736L484.143 410.007L485.639 413.84L487.509 416.458L488.07 419.729L487.603 423.562L489.379 426.74L495.831 430.199L500.599 431.508L507.892 431.602L514.998 430.293L519.954 428.797L524.816 428.984L533.885 432.817L538.093 435.528L540.991 439.641L538.841 443.006L535.662 445.063L533.511 445.156L531.267 444.876L528.93 444.128L526.779 443.754L524.909 442.819L521.076 441.51L519.206 442.352L517.897 444.034L517.055 446.091L516.775 448.522L520.889 453.756L521.169 457.776L520.982 459.178L521.543 460.581L521.824 462.731L520.234 464.133L508.921 471.705L506.303 473.948L491.436 462.918V463.292L488.631 463.572L480.123 463.292L474.419 461.983L458.711 456.748L448.52 457.963L444.125 461.609L442.91 467.124L444.686 472.827L448.333 480.866L448.894 483.67L447.865 484.886L446.369 484.512L445.434 484.044L443.471 482.549L439.918 480.492L438.141 478.622L435.897 477.968L433.373 477.688L430.942 476.94L426.734 474.79L424.584 473.948L418.039 472.827L416.73 472.359L412.896 470.022L410.185 469.274L404.668 468.62L402.05 468.059L398.31 466.75L393.261 466.189L389.334 465.255L387.09 464.881L376.057 465.909L362.406 464.787L359.788 465.068L344.08 470.396L340.06 472.733L337.909 474.79L335.291 476.472L333.421 477.314L332.767 477.127L332.86 473.855L333.795 470.677L335.198 468.433L336.133 466.002L337.348 454.411L336.974 449.269L333.234 442.632L335.198 437.584L335.852 434.873L347.072 433.097L358.012 430.199L368.016 425.151L371.476 421.412L374.187 416.925L377.553 407.577L381.2 391.685L380.919 383.926L381.106 379.065L382.883 370.558L384.285 368.034L385.22 367.754L386.155 367.1L386.436 365.604L386.249 364.015L388.399 362.986L389.521 365.137L391.391 366.071L393.916 365.884L395.786 367.474L398.404 367.661L401.022 368.782L403.733 367.567L406.725 362.052L411.494 361.304L414.018 363.641L414.766 365.417L414.673 367.474L417.197 369.437L420.283 371.306L421.124 380.561L423.088 388.133L429.259 384.768L433.747 378.411L435.804 376.448L438.328 377.476L445.341 379.346L448.52 383.459L450.016 384.954L451.044 386.731L452.914 388.6L456 388.226L459.272 384.861L461.797 380.467L463.76 375.793L466.659 372.428V372.428Z" stroke="#DDDDDD" stroke-linecap="round" stroke-linejoin="round"/>
<path d="M618.315 111.055L608.03 117.973L603.916 116.945L601.485 115.355L595.688 116.384L593.257 117.319L591.481 119.001L590.359 122.46L589.611 126.012L584.001 141.811L583.533 144.428L584.188 147.7L582.972 150.411L559.223 159.478L556.699 161.161L554.081 162.376L547.536 162.937L543.328 166.676L541.739 172.566L545.011 174.809L549.78 173.501L552.585 173.127L555.203 173.781L556.418 176.398L557.634 182.101L557.727 184.812L555.109 189.673L554.829 192.29L556.325 194.44H558.849L560.252 193.973L563.431 199.675L570.911 209.678L576.614 211.921L588.956 214.258L595.595 214.539L601.205 216.408L600.831 219.026L598.961 221.176L596.343 222.858L587.741 226.224L586.058 231.552L586.993 234.45L584.842 235.759L581.85 234.637L579.139 233.235L566.89 234.17L562.402 232.3L560.626 227.906L561.28 222.858V217.717L559.504 212.95L556.138 209.771L551.65 210.893L541.645 211.641L537.718 210.239L534.633 206.312L529.771 207.06L524.815 206.78L519.953 204.723L515.372 203.414L510.603 203.321L510.79 202.293L510.697 200.143L510.79 199.114L511.538 196.684L512.754 194.534L519.673 188.271L520.327 186.494L518.644 185.373L517.616 185.092L515.839 183.97L513.689 181.633L512.567 179.951L510.79 175.464L509.949 174.809L507.798 174.529L504.432 174.809L503.217 173.688L504.245 168.827L507.05 164.713L507.798 162.844L508.079 160.881L509.014 158.45L509.201 155.739L508.079 150.972L507.237 148.635L503.591 148.261L500.879 150.13H496.017L495.924 148.074L495.363 146.204L494.802 145.924L491.529 146.391L489.753 147.045L488.163 146.204L487.135 144.428L487.789 143.213L488.537 142.091L489.005 140.782L488.911 133.397L485.639 129.378L480.777 128.817L476.382 127.321L475.728 124.89L475.821 122.18L474.886 119.936L472.923 118.627L470.866 117.505L468.996 116.103L468.341 113.299L468.435 110.214L468.061 108.157L466.191 107.316L461.142 106.007L456.56 105.353L451.979 106.194L448.052 108.251L445.714 111.803L444.405 115.729L443.47 117.225L442.068 116.384L441.787 115.262V114.14L441.226 112.738L437.299 105.727L436.364 103.296L434.681 101.52L428.51 101.333L424.396 98.8093L424.303 93.6679L424.957 88.3394L425.986 86.2829L434.307 84.9741L439.917 84.8807L444.966 85.535L456.934 84.9741L458.43 86.3763L459.833 90.4895L461.89 94.1353L463.76 95.257L465.63 96.0049L467.406 95.9114L469.931 94.5092L470.866 95.7244L471.988 96.7527L475.073 97.0332L479.281 96.0984L483.021 94.0418L486.48 91.3308L487.322 89.9286L487.883 88.4329L488.631 87.3112L489.566 86.4698L490.875 85.8155L491.342 83.8524L514.063 86.5633H516.961L521.075 85.3481L522.478 85.2546L539.027 87.2177L540.617 87.1242L542.019 86.2829L543.515 84.8807L545.572 85.4415L552.959 87.9655L559.784 84.9741L561 83.011L561.841 80.861L563.244 79.8327L568.667 77.4957L572.407 76.5608L579.793 73.5695L583.253 72.6346L586.525 73.6629L588.489 76.7478L590.546 84.6937L591.294 86.7503L594.66 87.2177L599.802 85.722L602.327 86.0024L605.132 87.3112L608.03 87.9655L610.648 87.872L612.799 89.4612L615.23 94.6027L616.632 105.914L618.315 111.055V111.055Z" stroke="#DDDDDD" stroke-linecap="round" stroke-linejoin="round"/>
<path d="M510.604 203.321L504.713 205.752L503.311 206.032L500.786 204.63L495.55 207.06L487.603 215.38L484.611 219.961L482.46 222.204L479.655 223.513L475.074 223.793L472.643 228.748L472.175 234.731L472.456 241.368L474.606 247.444L478.159 251.651L478.72 257.073L476.57 262.308L473.017 266.234L471.334 266.608L468.155 265.766L466.659 265.018L463.199 260.905L456.935 260.157L452.727 256.512L454.317 254.362L457.589 253.52L458.711 250.529L457.496 241.087L458.992 235.011L457.496 223.98L449.548 215.474L443.658 213.884L438.235 211.828L436.271 209.21L433.747 207.154L428.324 205.191L425.799 203.508L424.21 200.891L424.584 198.086L425.986 195.469L426.08 192.477L423.368 191.169L412.429 194.721L403.266 201.545L397.936 202.012L392.607 197.432L391.391 193.412L391.952 189.579L393.168 185.747L395.599 182.849L399.245 181.914L403.546 179.67L407.099 178.829L406.819 175.744L404.855 170.79L404.107 169.761L403.827 168.546L404.294 167.05L404.388 165.555L404.014 163.031L402.331 157.889L402.798 141.25L402.05 133.491L402.985 129.939L408.969 125.732L422.62 120.59L425.425 117.879L428.043 110.214L429.913 106.849L433.466 105.727H437.3L441.227 112.738L441.788 114.14V115.262L442.068 116.384L443.471 117.225L444.406 115.729L445.715 111.803L448.052 108.251L451.979 106.194L456.561 105.353L461.142 106.007L466.191 107.316L468.061 108.157L468.435 110.214L468.342 113.299L468.996 116.103L470.866 117.506L472.923 118.627L474.887 119.936L475.822 122.18L475.728 124.891L476.383 127.321L480.777 128.817L485.639 129.378L488.912 133.397L489.005 140.782L488.538 142.091L487.79 143.213L487.135 144.428L488.164 146.204L489.753 147.046L491.53 146.391L494.802 145.924L495.363 146.204L495.924 148.074L496.018 150.13H500.88L503.591 148.261L507.238 148.635L508.079 150.972L509.201 155.739L509.014 158.45L508.079 160.881L507.799 162.844L507.051 164.713L504.246 168.827L503.217 173.688L504.433 174.809L507.799 174.529L509.949 174.809L510.791 175.464L512.567 179.951L513.689 181.633L515.84 183.97L517.616 185.092L518.645 185.373L520.328 186.494L519.673 188.271L512.754 194.534L511.539 196.684L510.791 199.114L510.697 200.143L510.791 202.293L510.604 203.321V203.321Z" stroke="#DDDDDD" stroke-linecap="round" stroke-linejoin="round"/>
<path d="M491.342 83.8523L490.875 85.8154L489.566 86.4698L488.631 87.3111L487.883 88.4329L487.322 89.9286L486.48 91.3308L483.021 94.0418L479.281 96.0983L475.073 97.0332L471.988 96.7527L470.866 95.7244L469.931 94.5092L467.406 95.9114L465.63 96.0049L463.76 95.257L461.89 94.1352L459.833 90.4895L458.43 86.3763L456.934 84.9741L444.966 85.535L439.917 84.8806L434.307 84.9741L425.986 86.2828L424.957 88.3394L424.303 93.6678L424.396 98.8093L428.51 101.333L434.681 101.52L436.364 103.296L437.299 105.727H433.466L429.913 106.849L428.043 110.214L425.425 117.879L422.62 120.59L408.969 125.732L402.985 129.938L402.05 133.491L402.798 141.25L402.33 157.889L404.013 163.031L404.387 165.555L404.294 167.05L403.826 168.546L404.107 169.761L404.855 170.79L406.818 175.744L407.099 178.829L403.546 179.67L399.245 181.914L395.598 182.849L393.167 185.747L391.952 189.579L391.391 193.412L392.606 197.432L397.936 202.012L395.224 206.125L388.96 208.743L386.716 207.715L385.22 205.658L382.508 203.695L379.516 202.386L373.813 201.264L368.951 204.162L367.642 206.686L367.268 209.491L365.117 210.706L362.312 209.678L356.422 209.584L355.113 213.884L356.422 215.847L356.515 218.184L354.645 220.241L352.027 221.643L349.503 221.269L345.389 217.063L342.677 215.38L336.974 213.884L336.88 211.641L339.031 209.304L340.246 208.369L340.527 206.873L339.592 205.004L337.909 203.788L333.795 203.695L331.925 203.227L328.372 201.451L329.587 197.899L330.335 194.253L330.055 191.449L330.522 188.738L327.904 183.877L330.803 169.668L335.291 167.518H341.088L342.677 168.64L343.986 167.985L347.259 165.461L349.129 163.592L349.503 160.974L350.905 159.665L353.336 160.32L355.674 159.385L354.832 154.711L350.531 151.159L347.913 149.943L346.324 147.98L347.633 145.55L349.316 140.876L349.783 138.819L349.316 136.389L348.661 134.145L348.194 130.032L347.072 126.012L344.921 121.806L345.295 117.038L343.612 113.018L341.181 80.1131L342.49 71.7933L344.547 70.8585L348.287 67.5867L352.962 61.9778L354.739 61.6974L362.78 63.1931H365.585L368.016 62.3517L396.346 45.2447L398.964 44.0295L401.676 43.749L421.404 46.5535L423.461 47.3948L424.396 48.1426L426.266 49.8253L428.323 51.2275L431.035 53.2841L432.157 53.845L434.401 54.4059L435.523 54.9667L436.551 55.9015L438.515 58.2386L446.275 65.3431L447.958 65.9975L450.015 65.0627L452.82 64.8757L454.971 65.3431L456.841 66.1844L460.207 68.8019L461.703 70.4846L463.947 74.2238L465.349 75.813L468.154 77.4956L488.631 83.5719L491.342 83.8523V83.8523Z" stroke="#DDDDDD" stroke-linecap="round" stroke-linejoin="round"/>
<path d="M318.461 57.3973L314.534 60.4822L308.457 64.0344H300.883L293.31 62.1648L292.001 60.9496L290.785 59.4539L287.98 58.6126L286.297 58.3321H282.651L281.529 59.3604L281.155 61.3235L281.061 63.4736L280.126 66.7454L278.256 67.3063L275.171 66.091L269.561 66.8389L264.605 69.5498L263.764 71.7934L265.073 85.4416L262.829 89.8352L260.024 91.0504L257.125 91.8918L239.547 93.5744L235.62 96.6593L232.722 101.427L228.701 106.568L224.961 109.092L224.494 114.327L226.083 120.216L226.364 126.386L222.53 130.593L198.781 131.528L187.281 129.658L184.476 139.193L183.821 176.492L182.325 177.427L180.642 177.614L179.801 176.399L178.585 175.651L176.809 176.212L175.593 175.557L173.91 175.183L172.321 175.557L157.548 182.288L154.836 185.653L151.377 187.803L147.917 186.588L145.393 183.784L146.047 176.212L149.507 168.733L152.125 156.3L151.564 125.732L154.369 120.777L159.979 119.375L165.308 121.058L168.768 119.282L169.048 113.299L166.711 100.492L167.085 97.4071L167.833 94.5092L168.487 88.7134L166.711 83.7589L164.093 79.2718L164.56 76L165.402 73.0086L165.869 71.8868L166.243 70.6716V69.1759L166.43 67.6802L167.646 65.3432L167.926 62.8192L166.524 61.1365L164.467 61.7909L163.064 63.754L161.849 65.8106L159.418 67.3063L156.519 67.0258L153.714 65.7171L151.096 63.8475L148.385 62.9127L145.58 62.1648L140.344 60.2017L135.482 57.3038L133.144 55.0603L130.713 53.0972L127.908 53.7515L125.197 55.0603L120.148 54.2189L114.257 54.4059L113.603 54.4994L113.883 52.7233L113.977 33.5597L119.026 33.3727L121.363 32.9053L123.607 31.877L135.762 20.0984L139.409 17.4809L143.616 15.7983L168.394 9.72202L170.918 9.44158L172.695 10.2829L174.378 11.9656L176.154 12.7134L180.736 12.9939L188.59 11.5916L199.716 12.059L202.428 11.5916L203.269 11.2177L205.7 9.44158L206.729 8.13285L208.038 5.23494L208.973 4.01969L211.123 2.89791L222.624 0.934814L225.148 1.4957L269.187 19.0701L270.87 20.0984L271.711 19.9114L276.199 17.3875L277.695 17.0135L283.305 18.3223L288.448 21.3137L299.387 31.69L312.103 45.7122L318.461 57.3973V57.3973Z" stroke="#DDDDDD" stroke-linecap="round" stroke-linejoin="round"/>
<path d="M342.49 71.7934L341.181 80.1132L343.612 113.018L345.295 117.038L344.921 121.806L347.072 126.012L348.194 130.032L348.661 134.145L349.316 136.389L349.783 138.819L349.316 140.876L347.633 145.55L346.324 147.98L347.913 149.943L350.531 151.159L354.832 154.711L355.674 159.385L353.336 160.32L350.905 159.665L349.503 160.974L349.129 163.592L347.259 165.461L343.986 167.985L342.677 168.64L341.088 167.518H335.291L330.803 169.668L327.904 183.877L330.522 188.738L330.055 191.449L330.335 194.253L329.587 197.899L328.372 201.451L327.063 203.788L325.567 205.378L320.05 208.836L318.461 210.8L317.619 213.23L316.123 220.335L315.375 222.111L314.347 223.419L313.131 224.448L311.822 225.289L303.875 228.28H301.724L296.675 229.776H294.899L293.216 229.402L288.073 227.533L286.39 227.346L284.894 227.907L283.959 229.122L282.557 232.02L281.622 233.235L280.78 233.796L278.91 234.45L278.162 235.011L277.508 236.039L277.414 238.096L277.04 239.124L275.918 240.153L272.365 241.368L271.15 236.133L265.166 226.037L261.893 221.643L261.239 209.584L255.255 200.049L252.169 198.834L250.673 196.404L252.637 190.421L253.011 184.999L249.364 181.447L246.466 180.418L240.669 179.39L239.36 179.764L238.144 180.418L226.363 181.26L221.688 180.231L214.956 177.333L213.834 174.996L211.964 173.501L207.57 174.155L205.7 174.062L204.017 173.22L202.334 173.314L201.025 174.716L200.37 176.586L198.968 177.427L197.191 177.52L193.077 178.549L191.488 178.175L190.179 177.146L187 175.931L183.821 176.492L184.475 139.193L187.28 129.658L198.781 131.528L222.53 130.593L226.363 126.386L226.083 120.217L224.493 114.327L224.961 109.092L228.701 106.568L232.721 101.427L235.62 96.6593L239.547 93.5745L257.125 91.8918L260.023 91.0505L262.828 89.8352L265.072 85.4416L263.763 71.7934L264.605 69.5499L269.56 66.8389L275.17 66.0911L278.256 67.3063L280.126 66.7454L281.061 63.4736L281.154 61.3235L281.528 59.3604L282.65 58.3321H286.297L287.98 58.6126L290.785 59.4539L292 60.9496L293.309 62.1649L300.883 64.0345H308.456L314.534 60.4822L318.461 57.3973L320.331 60.9496L324.912 66.278L327.811 68.8955L330.335 70.8586L332.673 71.6999L335.291 71.9804H341.088L342.49 71.7934V71.7934Z" stroke="#DDDDDD" stroke-linecap="round" stroke-linejoin="round"/>
<path d="M756.509 65.0627L754.639 80.4871L756.041 85.6285L759.501 89.4613L763.708 92.5461L764.363 97.5006L762.399 102.362L758.94 107.129L750.431 115.262L752.021 127.228L748.374 153.963L750.244 161.909L749.87 165.461L745.195 174.716L744.728 177.894L746.785 178.549L749.403 178.175L752.582 179.203L754.826 181.82L756.228 184.625L756.602 187.523L748.748 197.338L745.569 203.134L743.419 205.378L741.736 207.902L741.362 214.632L741.736 221.363L739.398 226.785L734.536 230.431L716.21 236.881L711.816 241.742L710.694 248.098L711.255 254.736L710.413 257.54L708.543 259.877L706.206 261.84L703.12 262.681L700.222 262.962L694.799 262.401L694.051 260.064L693.583 254.362L694.518 236.226L694.051 233.515L692.368 231.365L684.233 223.139L680.493 217.998L676.192 213.417L671.237 209.491L660.578 204.256L649.732 207.154L645.992 206.499L643.935 203.882L646.646 191.542L646.179 184.812L636.829 161.629L634.491 148.915L634.398 143.4L633.93 139.941L632.341 136.856L630.751 134.332L630.377 131.528L630.284 128.349L629.068 122.086L628.04 119.095L623.552 114.701L618.316 111.055L616.633 105.914L615.23 94.6027L612.799 89.4613L610.649 87.8721L608.031 87.9656L605.132 87.3112L602.327 86.0025L599.803 85.722L594.66 87.2177L591.294 86.7503L590.546 84.6937L588.489 76.7479L586.526 73.663L583.253 72.6347L579.794 73.5695L572.407 76.5609L568.667 77.4957L563.244 79.8327L561.842 80.861L561 83.0111L559.785 84.9742L552.959 87.9656L545.573 85.4416L543.516 84.8807L556.793 69.0824L559.411 66.5584L560.907 65.5301L562.496 65.2497L563.431 63.8475L563.712 61.8844L564.086 61.0431L565.395 59.7343L580.168 51.4145L583.44 50.0123L623.365 41.4121L630.845 40.7577L644.963 42.4404L682.831 42.2534L706.393 48.2362L714.995 51.7884L725.747 58.4256L729.394 61.23L730.89 62.0713L735.471 63.1931L739.118 62.7257L740.801 61.6039L742.11 61.3235L746.037 62.7257L746.878 63.1931L747.346 64.5019L748 64.5953L749.122 63.6605L749.87 63.567L750.618 63.941L751.74 65.0627L752.488 64.5953L753.797 64.9693L756.509 65.0627V65.0627Z" stroke="#DDDDDD" stroke-linecap="round" stroke-linejoin="round"/>
<path d="M183.821 176.492L187 175.931L190.179 177.146L191.488 178.175L193.077 178.549L197.191 177.52L198.968 177.427L200.37 176.585L201.025 174.716L202.334 173.314L204.017 173.22L205.7 174.061L207.57 174.155L211.964 173.501L213.834 174.996L214.956 177.333L221.688 180.231L226.363 181.26L238.144 180.418L239.36 179.764L240.669 179.39L246.466 180.418L249.364 181.446L253.011 184.999L252.637 190.421L250.673 196.403L252.169 198.834L255.255 200.049L261.239 209.584L261.893 221.643L259.462 220.148L256.751 220.241L255.629 221.176L253.665 223.419L252.824 224.635L250.86 226.224L248.149 226.504L245.437 227.252L231.973 232.954L226.831 233.889H219.07L217.013 233.141L215.985 230.337L215.891 227.252L216.359 221.176L215.143 218.558L212.619 216.969L209.814 211.921L208.785 205.938L204.204 203.134L198.5 203.041L175.499 207.715L164.84 212.482L163.625 217.53L168.487 221.269L174.097 223.606L180.081 224.541H181.39L182.418 225.196L183.073 226.598L184.101 227.159L186.252 227.813L187.187 230.15L187.935 233.328L188.122 236.507L184.382 241.274L187.561 245.294L189.244 250.529L187.187 252.118L181.67 253.707L176.434 256.231L171.011 255.483L168.58 256.418L167.271 261.653L167.645 267.636L167.271 270.347L167.739 272.964L171.385 277.825L173.816 283.154L171.853 288.389L169.609 289.978L166.991 290.913L157.921 292.782L155.21 293.717L154.368 296.522V299.7L153.34 301.756L148.104 301.476L146.234 299.793L147.356 293.998L147.823 288.202L146.234 286.426L144.177 284.836L142.961 282.125L142.681 279.134L143.148 273.245L146.14 268.197L155.116 263.055L155.303 261.653L157.267 259.597L157.828 258.568L158.015 257.166L157.921 254.175L160.539 240.059L160.446 238.096L155.397 236.6L145.953 230.337L138.099 228.28L130.058 229.402L108.74 229.963L104.626 229.496L95.9308 225.476L89.0118 221.176L81.9058 220.335L81.3448 220.895L79.8488 220.989L77.9788 219.119L64.0473 199.395L62.9253 197.245L62.7383 195.375L64.7953 189.953L65.7303 186.307L71.1533 177.053L72.8363 175.277L76.8568 172.846L77.7918 171.911L78.3528 170.229L77.9788 168.64L77.0438 167.144L75.1738 165.181L74.6128 164.713L73.8648 163.124L73.3973 158.637L73.7713 157.328L74.6128 156.113L76.0153 154.804L77.3243 152.093L76.9503 149.383L74.9868 143.587L75.0803 140.128L77.1373 129.658L76.3893 109.84L76.6698 108.999L93.6868 96.0984L98.7358 91.3309L111.171 71.6999L113.602 54.4994L114.257 54.4059L120.147 54.2189L125.196 55.0603L127.908 53.7515L130.713 53.0972L133.144 55.0603L135.481 57.3038L140.343 60.2017L145.579 62.1648L148.384 62.9127L151.096 63.8475L153.714 65.7171L156.519 67.0258L159.417 67.3063L161.848 65.8106L163.064 63.754L164.466 61.7909L166.523 61.1365L167.926 62.8192L167.645 65.3432L166.43 67.6802L166.243 69.1759V70.6716L165.869 71.8868L165.401 73.0086L164.56 76L164.092 79.2718L166.71 83.7589L168.487 88.7134L167.832 94.5092L167.084 97.4071L166.71 100.492L169.048 113.299L168.767 119.282L165.308 121.058L159.978 119.375L154.368 120.777L151.563 125.732L152.124 156.3L149.506 168.733L146.047 176.212L145.392 183.784L147.917 186.588L151.376 187.803L154.836 185.653L157.547 182.288L172.32 175.557L173.91 175.183L175.593 175.557L176.808 176.212L178.585 175.651L179.8 176.399L180.642 177.614L182.325 177.427L183.821 176.492V176.492Z" stroke="#DDDDDD" stroke-linecap="round" stroke-linejoin="round"/>
<path d="M718.922 510.125L717.893 506.106L715.93 501.899L714.995 496.758V491.429L711.255 482.455L703.681 475.257L701.811 472.92L699.006 471.705L696.575 472.827L694.986 475.164L693.303 477.314L691.246 479.09L688.721 478.809L686.571 476.659L683.485 471.05L680.119 462.637L680.774 460.207L685.075 455.159L690.124 450.578L710.226 426.366L715.462 422.066L716.21 419.542L715.836 416.644L716.397 411.223L724.158 394.957L723.69 389.442L720.511 385.422L715.556 383.085L712.844 378.504V375.7L713.218 372.989L712.47 370.558L710.974 368.221L708.356 362.519L703.868 358.499L701.25 357.658L698.632 357.191L696.762 355.414L689.563 341.86L696.669 340.738L703.307 337.747L717.706 329.053L720.605 326.716L721.82 323.444L721.353 312.974L722.194 306.15L734.723 306.804L744.634 299.793L752.675 289.323L757.163 285.491L762.773 284.275L769.038 283.621L774.648 281.097L776.798 278.667L778.201 275.862L780.164 274.366L783.063 274.18L787.644 270.066L791.852 265.112L798.21 263.616L804.942 264.551L810.178 266.888L814.479 270.721L819.06 273.712L824.39 274.834L828.317 272.684L831.028 262.12L835.329 251.464L836.358 245.948V240.526L837.012 236.039L839.63 235.665L840.752 235.852L841.594 236.6L844.118 237.535L846.643 237.815L857.956 235.385L862.538 235.104L862.07 236.039L848.232 255.951L846.082 260.531L843.183 270.44L840.565 285.304L838.789 290.258V291.287L839.256 292.876L839.443 293.811L839.256 294.839L838.041 297.55L837.106 298.672L835.423 299.98L833.646 301.102L832.15 301.663L826.073 302.411L823.455 303.346L822.052 306.057L822.146 307.646L823.081 310.263L823.361 311.759L822.987 313.628L821.211 316.526L820.65 318.116L820.743 319.892L821.491 321.2L823.829 323.537L824.67 325.314L824.483 326.529L823.735 327.838L822.987 329.801L821.959 335.129L821.585 340.177L819.434 345.786L814.292 347.843L808.214 348.777L802.791 351.114L801.763 351.956L799.519 354.854L798.023 356.162L793.441 358.406L792.974 358.78L792.413 360.182L792.787 360.462L794.937 360.743L795.779 362.426L796.34 364.763L796.246 367.847L795.966 369.343L795.498 370.652L791.945 377.196L790.356 380.935L790.262 384.113L790.823 387.011L789.047 401.781L788.205 405.24L786.522 407.483L785.494 407.951L782.408 407.764L781.567 408.138L781.006 409.073L780.258 411.316L779.136 413.84L777.733 415.336L769.786 419.636L768.57 419.916L767.448 419.636L764.924 418.514L763.989 418.234L762.493 418.421L760.623 419.542L759.407 420.103L758.379 420.197L757.257 420.01L755.106 419.262L755.761 420.477L757.537 424.871L757.818 425.993V428.236L757.163 428.89L754.826 430.573L753.143 433.191L752.208 433.845L750.525 434.125L747.533 433.565L745.85 434.312L744.073 436.836L743.512 440.295L743.699 443.847L744.915 450.204L744.821 451.793L744.26 453.476L741.081 457.963L740.614 459.926V462.918L741.081 466.002L741.549 467.872L741.829 469.181L741.362 470.303L738.463 473.387L730.703 484.231L727.898 489.279L727.337 490.962L727.15 492.644L727.243 494.327L728.365 498.908L728.085 500.497L727.056 501.432L725.841 502.273L723.784 505.358L718.922 510.125V510.125Z" stroke="#DDDDDD" stroke-linecap="round" stroke-linejoin="round"/>
<path d="M386.248 364.015L386.435 365.604L386.155 367.1L385.22 367.754L384.285 368.034L382.882 370.558L381.106 379.065L380.919 383.926L381.199 391.685L377.553 407.577L374.187 416.925L371.475 421.412L368.016 425.151L358.011 430.199L347.072 433.097L335.852 434.873L332.392 435.434L329.494 435.06L324.725 435.247L321.172 434.873L319.302 431.508L318.835 430.106L318.087 373.924L318.461 371.68L320.331 370.839L334.73 370.278L339.405 371.68L346.604 378.785L350.344 380.841L350.812 380.748L361.751 365.137L369.138 364.295L371.288 364.389L373.439 364.669L375.402 365.51L377.085 364.295L379.516 360.836L382.321 361.865L383.724 364.576L386.248 364.015Z" fill="#EAFEF1" stroke="#00A661" stroke-linecap="round" stroke-linejoin="round" stroke-dasharray="3 3"/>
<path d="M862.538 235.105L857.956 235.385L846.643 237.815L844.118 237.535L841.594 236.6L840.752 235.852L839.63 235.665L837.012 236.039L836.358 240.526V245.948L835.329 251.464L831.028 262.121L828.317 272.684L824.39 274.834L819.06 273.712L814.479 270.721L810.178 266.888L804.942 264.551L798.21 263.616L791.852 265.112L787.644 270.066L783.063 274.18L780.164 274.367L778.201 275.862L776.798 278.667L774.648 281.097L769.038 283.621L762.773 284.275L757.163 285.491L752.675 289.323L744.634 299.793L734.723 306.804L722.194 306.15L716.678 302.598L711.442 294.091L708.543 292.221L705.177 290.913L702.279 288.856L699.848 285.865L698.165 282.406L698.352 278.947L704.149 269.505L703.12 262.681L706.206 261.84L708.543 259.877L710.413 257.54L711.255 254.736L710.694 248.098L711.816 241.742L716.21 236.881L734.536 230.43L739.398 226.785L741.736 221.363L741.362 214.632L741.736 207.902L743.419 205.378L745.569 203.134L748.748 197.338L756.602 187.523L756.228 184.625L754.826 181.82L752.582 179.203L749.403 178.175L746.785 178.549L744.728 177.894L745.195 174.716L749.87 165.461L750.244 161.909L748.374 153.963L752.021 127.228L750.431 115.262L758.94 107.129L762.399 102.362L764.363 97.5006L763.708 92.5461L759.501 89.4613L756.041 85.6285L754.639 80.4871L756.509 65.0627L758.659 65.1562L760.436 65.4367L761.932 65.9975L763.147 66.278L764.269 65.7171L764.643 64.7823L765.298 60.4822L765.672 60.2017L768.009 59.7343L769.038 58.1451L769.505 56.369L768.29 55.9016L768.851 54.7798L769.786 53.2841L770.066 51.9754L772.871 49.2645H774.087L775.209 48.3296L775.396 46.5535L777.64 48.4231L778.855 48.7036L779.51 48.2362L780.071 46.46L781.006 45.9926L782.782 45.6187L783.998 44.5904L786.055 42.1599L786.896 40.4772L787.925 41.6925L789.047 41.599L788.205 39.7294L788.392 39.449L789.982 38.7946L791.01 38.6076L790.917 37.7663L793.067 35.3358L794.096 34.4945L793.161 33.3727L791.945 32.9053V32.2509L794.096 33.0923L794.844 32.9988L795.124 31.69L797.368 32.1574L799.519 31.7835L806.438 28.2312L808.495 27.4834L810.645 27.3899L810.178 28.6052L811.019 28.9791L812.515 28.8856L813.824 28.4182L814.385 28.9791L814.946 27.6704L815.414 27.3899L816.162 27.4834L816.349 28.1378L815.881 29.54L817.938 28.6052L820.089 28.2312L821.959 27.5769L823.361 25.7073L822.239 25.5203L822.052 25.1464L822.8 24.0246L824.203 23.8376L824.39 23.1833L823.922 22.155L824.39 21.0332L824.857 20.3788L828.036 17.3875L829.158 16.5461V15.2374L829.813 14.583L832.15 14.2091L851.411 15.0504L869.176 40.1033L887.035 65.1562L895.73 107.597L895.824 113.766L896.385 115.449V117.038L895.917 119.469V120.403L896.665 121.619L897.694 122.18L898.909 122.46L914.898 122.927L919.853 124.236L922.004 125.358L922.191 126.106L921.817 127.321L922.004 128.069L922.565 128.63L924.809 130.312L925.65 130.686V131.341L924.622 131.808L926.118 132.93L927.707 133.771L928.923 134.8L929.484 136.482L929.858 136.856L932.663 135.641L933.598 136.108L934.065 137.791L932.569 139.287L931.541 141.156L930.138 146.859L930.325 147.7L928.923 148.635L929.11 150.224L930.606 153.589L930.699 155.085L930.419 157.702L929.577 160.226L927.894 168.359L927.333 169.668L924.435 173.501L924.061 174.155L924.248 174.809L924.902 175.838L926.585 175.931L927.146 176.305L928.175 177.894L929.39 179.203L930.325 180.512L930.699 182.101L930.793 184.157L930.512 185.747L929.858 187.71L929.11 189.673L928.175 191.075L926.772 191.823L922.752 193.319L921.162 194.253L918.264 196.871L916.674 197.806L912.093 199.301L910.597 200.143L903.678 206.593L903.023 206.78L900.966 207.06L900.031 207.434L897.881 209.678L896.478 210.706L894.795 211.641L893.112 212.015L891.523 211.828L886.006 209.491L883.014 208.556H880.583L877.591 210.986L874.693 213.978L872.075 217.25L870.205 220.615L868.896 223.793L867.961 225.009L864.969 226.691L863.753 227.813L862.912 229.215L862.538 230.804L863.099 233.796L862.538 235.105V235.105Z" stroke="#DDDDDD" stroke-linecap="round" stroke-linejoin="round"/>
<path d="M276.573 409.82L273.301 414.121L270.122 424.964L268.906 433.097L268.158 435.434L266.569 437.304L263.951 437.865L255.349 435.902L244.596 435.341L236.929 433.565L229.169 430.667L225.242 426.741L222.156 425.525L218.697 428.704L209.814 439.828L209.16 442.445L211.497 446.932L212.619 448.335L214.022 449.456L214.77 450.952L217.949 453.85L223.091 457.028L223.746 461.796L215.331 462.076L212.619 462.918L210.936 464.881L210.469 467.405L209.534 469.274H208.225L204.952 469.835L202.989 469.368L199.903 469.181L194.761 465.909L189.899 467.405L188.309 466.75L187.935 465.348L187 464.787L185.878 464.6L181.39 465.161L179.053 463.665L177.463 460.955L174.191 460.861L171.105 462.076L166.056 462.544L163.906 463.011L161.942 463.852L157.548 464.787L152.499 464.32L147.45 464.6L146.141 463.759L144.832 463.478L143.897 461.889L141.653 454.411L138.848 449.83L136.791 448.522L135.014 446.932L132.209 442.819L129.498 432.256L126.786 428.049L119.867 412.718L118.839 407.951L119.867 403.183L121.55 401.501L122.859 399.444L124.729 397.481L127.347 395.985L129.965 392.153L128.656 389.161L124.823 391.498H122.672L116.969 390.189L107.806 386.918L104.346 385.141L101.354 382.524L99.5776 379.065L97.3336 376.167L93.7806 374.578L90.0406 374.952L86.5811 377.476L84.6176 381.309L83.8696 386.45L82.3736 388.133L80.5971 389.442L64.6086 397.481L61.2426 400.005L58.0636 401.594L54.6041 404.212L45.4411 408.418L44.4126 408.605L43.5711 407.67L42.6361 407.203L42.0751 406.362L40.7661 406.081L39.5506 406.175L37.7741 406.736L36.0911 407.764L32.9121 410.568L31.3226 411.503L30.1071 412.531L29.5461 413.279L27.7696 414.027L23.4686 417.486L22.0661 419.262L20.1961 420.477L14.0251 421.879L11.0331 421.786L6.45157 425.712L4.95557 406.455V405.614L5.42307 405.053L6.73207 404.492L7.19957 403.37L6.73207 401.407L7.01257 400.192L7.94757 397.948L8.04107 396.733L7.66707 396.172L7.01257 395.892V395.144L8.13457 393.274L8.60207 391.124L8.78907 386.17L8.50857 384.02L14.4926 384.581L15.5211 384.394L16.9236 383.178L17.7651 382.617L18.6066 382.431L21.0376 382.337L21.8791 382.431L24.2166 383.739H25.1516L30.4811 382.431L32.3511 381.028L33.5666 378.598L36.1846 370.465L37.7741 367.474L38.2416 365.791V360.649L37.9611 359.341L37.0261 356.91L36.4651 354.667L36.7456 352.517L38.2416 350.086L38.8026 349.619L40.1116 349.245L40.6726 348.684L45.4411 342.421L45.5346 342.047L44.9736 340.551L45.5346 338.588L46.8436 338.214L48.3396 338.495L49.7421 338.588L52.2666 337.092L52.8276 335.036L52.1731 332.699L51.2381 330.268L50.9576 328.679L51.1446 326.903L51.7991 325.314L53.1081 324.379L58.6246 322.042L61.7101 321.294L66.3851 321.761L67.7876 320.453L69.7511 316.713L72.2756 313.722L73.1171 312.133L73.5846 305.402L74.0521 304.094L75.2676 302.972L76.3896 302.411L77.4181 301.663L78.1661 299.513L85.3656 298.111L97.8011 297.737L103.131 298.485L105.375 300.354L131.461 331.39L132.677 332.325L133.892 333.073H136.604L137.819 338.401L137.071 344.758L136.978 350.647L139.502 355.041L145.206 354.293L152.031 355.321L152.125 355.788L152.592 361.678L152.873 362.986L153.527 364.015L154.649 364.95L155.958 365.417L159.792 366.071L162.036 366.913L162.971 368.502L163.064 370.558L162.597 372.895L162.784 375.326L164.186 376.822L166.337 377.57L168.768 377.383L171.853 376.448L175.313 374.391L180.362 372.802H181.484L182.512 373.082L184.382 373.924L184.476 374.391L185.878 375.046L188.496 376.822L192.517 378.785L193.732 379.626L195.041 381.402L196.35 382.804L196.724 383.646L196.818 386.17L197.379 387.198L198.314 387.852L199.436 388.226L206.822 389.442L212.058 389.161L213.18 389.348L214.957 390.563L216.359 391.966L217.294 392.713L219.351 393.368L221.689 393.555L223.839 394.116L225.335 395.05L226.364 396.453L228.047 397.855L229.356 399.444L230.291 401.22L231.319 402.062L232.535 402.435L237.023 402.529L240.015 403.464L241.043 405.053L242.165 406.642L243.007 408.044L243.474 408.605L244.409 408.886L248.523 408.792L251.983 409.353H253.105L254.04 409.166L256.564 408.044L258.434 407.67L266.943 407.577L268.158 407.764L269.28 408.231L271.711 410.475L272.272 410.662L276.573 409.82V409.82Z" stroke="#DDDDDD" stroke-linecap="round" stroke-linejoin="round"/>
<path d="M614.482 349.432L616.165 353.171L616.633 357.378L616.072 362.426L616.913 368.315L617.568 370.652L618.877 372.802L621.121 380.28V382.524L620.56 385.048L621.588 389.909L621.682 392.9L618.97 397.948L606.628 404.118L588.676 408.512L584.936 412.999L583.16 415.803L579.046 420.758L576.895 422.721L571.379 425.712L566.236 429.451L561.748 434.032L556.699 437.865L551.089 439.454L545.199 439.921L540.991 439.641L538.093 435.528L533.885 432.817L524.816 428.984L519.954 428.797L514.998 430.293L507.892 431.601L500.599 431.508L495.831 430.199L489.379 426.74L487.603 423.562L488.07 419.729L487.509 416.458L485.639 413.84L484.143 410.007L485.452 406.736L487.416 404.305L489.286 401.501L492.184 400.566L493.961 398.79L497.233 394.396L498.355 391.592L498.823 389.348L497.42 387.572L495.27 386.17L492.839 386.824L491.623 387.385L490.314 387.572L484.985 387.665L479.842 386.637L476.196 382.804L474.98 377.476L471.147 374.672L466.659 372.428L468.248 367.941L468.622 363.08L465.63 358.873L461.984 355.041L458.805 350.366V339.149L461.049 337.466L461.236 336.064V334.755L464.415 330.268L463.76 327.651L464.228 324.566V318.49L467.313 308.113L465.256 302.13L466.659 296.241L470.586 291.847L473.391 290.539L475.261 288.015L475.635 285.397L476.383 283.154L480.871 282.312L485.452 283.528L488.164 286.986L489.753 291.287L490.127 295.213L490.034 307.833L492.932 309.796L501.908 308.207L506.864 309.983L508.547 315.405L508.921 321.855L508.266 324.192L506.957 326.342L505.929 328.585L505.555 331.016L507.425 332.979L510.23 333.82L513.689 337.934L516.401 342.608L521.169 344.197L532.202 346.253L544.451 345.599L547.536 344.945L550.248 343.823L552.585 338.962L554.549 337.279L559.691 335.316L560.439 332.699L559.411 329.894L556.325 325.594L557.354 323.818L558.476 323.07L560.907 322.509L599.055 340.271L612.051 348.403L614.482 349.432V349.432Z" stroke="#DDDDDD" stroke-linecap="round" stroke-linejoin="round"/>
<path d="M531.08 591.36L530.613 591.454L528.369 592.95L526.031 597.53L523.787 598.839L520.702 598.932L519.58 599.493L518.551 600.709L516.307 605.383L514.344 608.187L503.685 616.787L496.485 624.266L494.896 626.696L493.867 627.818L492.652 628.472L492.184 628.94L491.997 631.183L491.717 632.212L490.408 632.399L488.725 631.744L487.042 631.557L485.733 632.773L484.611 634.175L481.899 635.951L481.058 637.26L481.245 638.849L482.086 640.064L482.741 641.466L482.367 643.429L481.058 645.112L479.655 646.14L479.001 647.262L480.029 649.225L481.619 650.721L483.395 652.123L484.798 653.619L485.639 655.769L485.265 657.638L484.143 659.134L482.647 660.536L481.432 662.032L480.964 663.715L481.338 666.8L481.432 668.482L480.871 670.165L479.188 673.53L478.72 675.4L478.814 676.428L479.468 678.298L479.562 679.139L477.505 689.796L476.944 690.731L474.326 691.665L473.484 692.507L471.988 694.844L471.521 695.872L470.399 699.331L469.651 700.827L468.529 702.509L465.443 707.37L464.976 708.772L462.825 710.268L462.171 711.483L462.451 713.166L462.919 715.41L461.61 716.625L460.862 715.877L460.207 715.784L459.553 716.064L458.057 717.56L456.935 720.364L456.748 721.86L457.215 723.075V723.729L456.561 724.945L455.626 725.319L453.475 724.851L452.353 724.945L451.792 724.758L452.821 722.701L453.008 721.86L451.979 721.766L450.483 722.514L449.455 722.701L447.117 721.86L447.024 719.71L447.772 716.905L448.146 714.194H447.678L447.117 716.812L445.434 718.214L443.19 718.027L441.133 716.251L441.788 715.129L441.133 715.036L439.637 714.194L439.918 713.073L439.357 712.231L437.206 710.642L435.243 709.52L434.775 708.212L433.934 706.529L433.373 705.875L431.596 705.22L430.661 704.379L429.446 702.883L428.978 703.351L433.279 707.464L434.308 708.772L436.271 712.512L436.645 714.288L435.336 715.129L436.645 717.466L437.487 718.494L438.609 719.242L437.674 719.055L434.682 716.812L425.612 707.277L422.807 703.351L420.657 699.424L419.628 695.124L420.189 685.589L418.88 684.094L415.421 681.85L413.457 681.383L408.876 682.13L407.286 680.915L406.445 679.513L405.136 676.148L407.286 673.717L411.026 674.372L411.961 671.661L408.221 664.463L406.445 656.236L407.099 651.843L405.79 648.29L406.071 646.327L406.819 644.458L408.034 643.055L409.063 641.466L408.782 639.69L408.876 637.82L409.998 636.792L412.709 632.492L413.738 629.033L412.429 626.603L413.364 624.64L416.543 623.611L419.441 624.453L420.937 628.005L422.901 627.911L424.397 626.509L427.95 624.827L429.165 623.331L430.194 621.648H432.251L434.495 622.677L435.804 620.62L437.206 614.731L438.702 612.394L440.479 610.057L444.873 605.663L445.528 600.335L444.032 597.998L444.593 595.38L449.455 592.669L449.174 590.145L447.585 588.089L446.743 585.939L446.369 583.508L445.06 582.012L444.78 581.171L444.219 580.423L442.162 578.927L439.17 575.469L438.048 571.169L440.572 570.888L442.91 569.673L445.06 567.336L447.304 565.653H450.39L453.475 566.214L456.935 566.121L460.207 565.279L462.825 563.877L464.134 561.633L463.386 558.642L464.415 556.118L469.464 554.249L474.793 554.716L480.403 556.679L489.753 562.194L491.623 566.214L490.875 570.888L492.371 572.197L494.522 572.664L498.916 572.571L511.165 570.234L518.084 573.786L527.34 584.723L529.584 588.836L531.08 591.36V591.36Z" stroke="#DDDDDD" stroke-linecap="round" stroke-linejoin="round"/>
<path d="M316.03 734.106L315.563 734.667L314.347 737.938L313.88 741.491L314.347 744.108L314.067 744.762L313.88 747.286L313.132 745.51L312.851 744.482L312.664 739.714L312.29 738.686L311.636 739.714L310.607 740.369L311.075 741.491L311.168 745.136L311.449 746.352L312.384 748.034L313.038 749.623L313.786 752.241L313.88 753.176L313.225 754.017L312.477 754.298H310.046L307.896 754.484L307.428 754.017L306.587 751.493L306.4 749.063L306.493 745.51L306.119 742.706L304.997 740.649L302.566 740.93L304.81 742.612L305.558 745.323L305.278 748.502L304.249 751.587L304.062 754.204L300.229 755.045L295.741 754.671L293.59 753.176L291.533 753.737L292.094 755.139L290.785 755.606L288.822 755.793L287.419 756.167L285.923 756.821L282.37 756.915L280.781 757.476L279.004 755.326L280.594 751.96L285.643 746.258L283.492 745.978L282.931 746.258L280.22 749.437L279.846 745.23L278.63 741.397H278.163L278.069 742.986L278.256 744.949L278.537 746.913L277.789 746.726L276.854 745.978L275.451 745.697L276.293 747.473L277.134 748.689L277.695 749.997L277.602 752.054L277.041 753.643L276.48 754.765L274.89 755.793L274.984 756.915L276.012 756.541L277.134 756.915L276.667 757.663L274.423 758.411L271.618 758.504L269.654 758.037L268.532 759.065L267.317 758.598L266.569 757.85L266.382 756.728V755.326L266.756 754.017L267.784 752.147L267.971 751.026L266.382 751.587V750.371L266.662 748.221L265.073 747.941L264.138 747.567L263.109 747.847L262.922 748.595L263.109 749.81L263.764 751.587L263.39 752.615L264.418 754.391L264.792 755.606L264.605 757.289L263.951 757.195L263.109 756.354L261.894 755.887L260.211 755.793L259.556 755.419L259.463 752.615L260.024 752.241L258.902 750.465V747.847H258.434L257.873 750.465L256.284 749.437L257.406 752.054L257.686 753.363L256.751 754.298L255.629 754.111L254.414 753.363L252.824 752.054L251.235 751.493L249.458 750.091L248.523 748.221L249.365 746.258L248.523 746.165L247.682 747.006L247.308 747.847L245.999 746.539L242.82 744.762L242.446 743.828L244.035 744.669L243.474 743.641L242.539 743.173L240.295 742.519L238.706 740.649L238.051 739.901L235.994 737.751L235.527 737.377L228.234 730.647L226.083 727.562L225.335 724.29L226.457 724.851V723.355L223.091 721.299L222.156 719.71L221.782 718.494L219.819 715.129L221.595 715.783L220.941 713.914L218.51 711.109L216.359 705.033L215.611 701.387L215.237 700.172L214.209 698.115L213.835 696.994L213.367 695.031L212.339 693.628L212.058 692.413L212.432 691.478L213.367 691.104L214.583 691.198L215.798 691.572L216.64 692.32L218.042 694.283L218.977 694.844L217.762 691.759L219.912 693.535L222.904 695.498L226.457 696.713L230.384 698.863L231.88 699.985L233.75 700.265L235.153 700.079L236.368 700.172L239.173 698.676L241.791 696.807L243.287 696.339L244.69 695.685L246.186 695.218L247.588 695.498L250.019 695.031L252.17 693.909L254.694 690.263L255.723 689.796L258.341 692.133L260.024 693.068L261.613 693.815L263.67 694.096L264.979 693.348L267.223 690.263L267.878 689.983L270.683 690.544L271.711 690.357L273.301 688.954L275.264 688.393L276.106 687.926L276.48 687.085L276.386 686.43L275.638 685.215L275.451 684.374L276.106 682.504L277.508 681.943L280.781 682.037L282.183 681.663L282.37 681.195L282.557 679.139L282.931 678.391L284.24 676.989L285.736 675.867L286.952 675.493L297.05 673.904L298.265 673.25L298.172 671.567L305.371 672.221L307.615 674.839L307.989 675.587L307.802 676.521L306.587 677.737L305.091 678.017L304.062 680.167L301.444 683.439L299.574 684.841L297.891 686.43L296.769 688.954L296.395 692.507L295.741 694.189L294.338 694.844L293.871 695.591L293.403 697.181L293.029 699.144V700.733L293.59 702.509L294.619 704.005L293.216 705.5L292.468 707.183L292.281 708.305L290.692 710.642L289.85 713.353L289.757 716.531L291.533 718.868L292.655 719.429L293.777 719.523L294.432 720.457L294.058 721.953L294.899 724.29L297.33 724.103L303.782 721.673L308.55 724.664L309.205 727.468L310.42 730.086L312.571 731.769L315.095 732.89L316.03 734.106V734.106Z" stroke="#DDDDDD" stroke-linecap="round" stroke-linejoin="round"/>
<path d="M130.806 595.006L114.07 591.921L94.1545 590.239L60.962 591.921L59.1855 591.641L58.2505 590.987L57.5025 590.052L56.3805 589.21L57.6895 588.743L58.531 589.21L59.7465 588.182L60.214 588.556L60.6815 590.893L63.393 588.369L64.141 589.117L65.7305 588.743L67.2265 588.65L68.5355 588.463L69.751 587.808L70.873 586.593L70.9665 585.752L70.873 584.162L71.621 583.882H74.8L76.483 583.602L79.849 582.48L80.971 582.76L82.654 582.106L84.2435 581.171L85.3655 579.956L85.7395 578.273L86.6745 577.899L93.2195 576.871L92.0975 576.217L91.069 576.403L86.6745 575.282L82.28 576.964L78.0725 579.395L74.3325 580.61L72.0885 580.797L69.377 582.199L67.6005 582.76H66.572L65.3565 582.293H64.4215L63.6735 581.638L63.2995 579.675L63.8605 577.993V576.871L62.5515 577.712L61.6165 578.46L59.9335 580.423L57.783 580.797L57.5025 581.451L57.97 583.134L57.6895 584.723L56.661 586.406L56.1 587.902L55.2585 588.836L56.7545 591.174L56.3805 592.95L51.799 593.417L43.1035 593.043L32.912 594.165L20.8505 593.604L3.45947 595.193V590.426L4.02047 586.967L7.10597 587.247L9.72397 586.967L11.781 587.621L13.7445 587.528L15.8015 586.126L17.2975 584.443L17.204 583.321L18.0455 582.854L35.0625 583.602L39.644 583.041L40.766 581.732L41.6075 577.899L42.7295 576.31L43.945 575.001L45.067 570.982L45.5345 569.86L47.9655 568.832L49.8355 569.392L53.3885 571.262L55.165 573.599L57.97 573.693L59.466 573.412L60.401 572.103L60.588 570.982L61.336 570.234L106.777 570.047L111.358 571.262L110.517 573.319L108.647 574.814L107.992 576.777L108.74 578.647L108.834 579.675L111.078 581.451L113.415 580.236L115.753 578.647L118.277 578.086L120.521 578.927L121.363 580.517L120.615 582.199L116.127 584.63L116.314 586.593L118.09 587.715L120.241 588.276L121.363 589.304L122.672 590.145L124.448 589.678L128.936 589.865L131.087 590.613L131.18 592.669L130.806 595.006V595.006Z" stroke="#DDDDDD" stroke-linecap="round" stroke-linejoin="round"/>
</g>
<defs>
<clipPath id="clip0_200_1326">
<rect width="935" height="760" fill="white"/>
</clipPath>
</defs>
</svg>
