<svg width="550" height="500" viewBox="0 0 550 500" fill="none" xmlns="http://www.w3.org/2000/svg">
<path d="M488.29 330.2H289.52C286 330.2 283.03 327.6 283.03 324.3V61.0999C283.03 57.8999 285.89 55.2 289.52 55.2H488.29C491.81 55.2 494.78 57.7999 494.78 61.0999V324.4C494.78 327.6 491.92 330.2 488.29 330.2ZM289.52 55.5C286.11 55.5 283.36 57.9999 283.36 61.0999V324.4C283.36 327.5 286.11 330 289.52 330H488.29C491.7 330 494.45 327.5 494.45 324.4V61.0999C494.45 57.9999 491.7 55.5 488.29 55.5H289.52Z" fill="#E0E0E0"/>
<path d="M259.05 330.2H60.1702C56.6502 330.2 53.6802 327.6 53.6802 324.3V61.0999C53.6802 57.8999 56.5402 55.2 60.1702 55.2H258.94C262.46 55.2 265.43 57.7999 265.43 61.0999V324.4C265.54 327.6 262.57 330.2 259.05 330.2ZM60.1702 55.5C56.7602 55.5 54.0102 57.9999 54.0102 61.0999V324.4C54.0102 327.5 56.7602 330 60.1702 330H258.94C262.35 330 265.1 327.5 265.1 324.4V61.0999C265.1 57.9999 262.35 55.5 258.94 55.5H60.1702Z" fill="#E0E0E0"/>
<path d="M550 391.3H0V391.5H550V391.3Z" fill="#E0E0E0"/>
<path d="M74.5801 405.5H56.8701V405.7H74.5801V405.5Z" fill="#E0E0E0"/>
<path d="M246.29 402.8H187.44V403H246.29V402.8Z" fill="#E0E0E0"/>
<path d="M115.39 414.8H75.5698V415H115.39V414.8Z" fill="#E0E0E0"/>
<path d="M463.76 402.7H416.24V402.9H463.76V402.7Z" fill="#E0E0E0"/>
<path d="M480.48 402.7H473.55V402.9H480.48V402.7Z" fill="#E0E0E0"/>
<path d="M407.11 408.9H347.82V409.1H407.11V408.9Z" fill="#E0E0E0"/>
<path d="M154.44 49.2999C152.35 47.7999 149.16 47.6999 146.96 48.8999C143.88 43.2999 135.41 40.7999 129.36 43.7999C127.82 37.7999 121.22 33.0999 114.4 33.1999C107.58 33.2999 101.09 38.0999 99.6601 44.0999C99.4401 45.0999 99.3301 46.0999 98.5601 46.7999C97.3501 47.8999 95.2601 47.5999 93.5001 47.3999C88.0001 46.9999 82.3901 50.4999 80.8501 55.3999L157.08 55.0999C157.74 52.8999 156.53 50.7999 154.44 49.2999Z" fill="#F5F5F5"/>
<path d="M474.76 64.8999C472.67 63.3999 469.48 63.2999 467.28 64.4999C464.2 58.8999 455.73 56.3999 449.68 59.3999C448.14 53.3999 441.54 48.6999 434.72 48.7999C427.9 48.8999 421.41 53.6999 419.98 59.6999C419.76 60.6999 419.65 61.6999 418.88 62.3999C417.67 63.4999 415.58 63.1999 413.82 62.9999C408.32 62.5999 402.71 66.0999 401.17 70.9999L477.4 70.6999C477.95 68.3999 476.85 66.2999 474.76 64.8999Z" fill="#F5F5F5"/>
<path d="M516.45 193.8C514.36 192.3 511.17 192.2 508.97 193.4C505.89 187.8 497.42 185.3 491.37 188.3C489.83 182.3 483.23 177.6 476.41 177.7C469.59 177.8 463.1 182.6 461.67 188.6C461.45 189.6 461.34 190.6 460.57 191.3C459.36 192.4 457.27 192.1 455.51 191.9C450.01 191.5 444.4 195 442.86 199.9L519.09 199.6C519.75 197.3 518.54 195.2 516.45 193.8Z" fill="#EBEBEB"/>
<path d="M112.31 169.1C109.67 167.3 105.82 167.1 102.96 168.6C99.2198 161.6 88.6598 158.6 81.0698 162.2C79.0898 154.7 70.9498 148.9 62.4798 149C54.0098 149.1 46.0898 155 44.3298 162.6C43.9998 163.8 43.8898 165.1 42.8998 166C41.3598 167.4 38.8298 166.9 36.6298 166.8C29.8098 166.3 22.8798 170.7 21.0098 176.7L115.5 176.4C116.38 173.5 114.95 170.9 112.31 169.1Z" fill="#F5F5F5"/>
<path d="M141.68 252.9C139.04 251.1 135.19 250.9 132.33 252.4C128.59 245.4 118.03 242.4 110.44 246C108.46 238.5 100.32 232.7 91.8499 232.8C83.3799 232.9 75.4599 238.8 73.6999 246.4C73.3699 247.6 73.2599 248.9 72.2699 249.8C70.7299 251.2 68.1999 250.7 65.9999 250.6C59.1799 250.1 52.2499 254.5 50.3799 260.5L144.87 260.2C145.75 257.3 144.32 254.7 141.68 252.9Z" fill="#F5F5F5"/>
<path d="M322.08 38.5C319.77 36.9 316.47 36.7 313.94 38.1C310.64 32.1 301.51 29.4 294.91 32.6C293.15 26.1 286.11 21.1 278.74 21.2C271.37 21.3 264.44 26.4 262.9 33C262.68 34 262.46 35.2 261.69 35.9C260.37 37.1 258.17 36.7 256.3 36.6C250.36 36.2 244.31 40 242.77 45.2L324.83 44.9C325.6 42.4 324.39 40.1 322.08 38.5Z" fill="#EBEBEB"/>
<path d="M504.79 445.1C504.79 448.5 401.94 451.2 275 451.2C148.06 451.2 45.21 448.5 45.21 445.1C45.21 441.7 148.06 439 275 439C401.94 439 504.79 441.8 504.79 445.1Z" fill="#F5F5F5"/>
<path d="M473.44 105.5H75.79V442.6H473.44V105.5Z" fill="#0E5D37"/>
<path opacity="0.3" d="M473.44 105.5H75.79V442.6H473.44V105.5Z" fill="white"/>
<path d="M304.7 152.5H88.9902V303.1H304.7V152.5Z" fill="#0E5D37"/>
<path d="M465.96 149.1H318.56V442.6H465.96V149.1Z" fill="#263238"/>
<path opacity="0.8" d="M304.7 152.5H88.9902V303.1H304.7V152.5Z" fill="white"/>
<path d="M452.43 166.6H334.18V293.1H452.43V166.6Z" fill="#0E5D37"/>
<path opacity="0.8" d="M452.43 166.6H334.18V293.1H452.43V166.6Z" fill="white"/>
<path opacity="0.6" d="M419.1 166.6L334.18 233.1V256.9L451.88 166.6H419.1Z" fill="white"/>
<path opacity="0.6" d="M452.43 181.8L334.18 273.3V284.8L452.43 194.7V181.8Z" fill="white"/>
<path opacity="0.6" d="M228.58 152.5L89.7603 235.2V267.5L272.91 152.5H228.58Z" fill="white"/>
<path opacity="0.6" d="M304.7 152.5L88.9902 289.5V303.1H91.9602L304.81 169.2L304.7 152.5Z" fill="white"/>
<path d="M347.82 314.8C347.82 318.5 344.52 321.5 340.45 321.5C336.38 321.5 333.08 318.5 333.08 314.8C333.08 311.1 336.38 308.1 340.45 308.1C344.52 308 347.82 311 347.82 314.8Z" fill="#0E5D37"/>
<path d="M311.19 301.8H82.7202V314.2H311.19V301.8Z" fill="#263238"/>
<path opacity="0.3" d="M297.88 332.5H106.04V412H297.88V332.5Z" stroke="white" stroke-miterlimit="10"/>
<path opacity="0.3" d="M287.54 341.1H116.71V403.5H287.54V341.1Z" stroke="white" stroke-miterlimit="10"/>
<path d="M102.96 67.7L59.6201 107.4H489.28L447.48 67.7H102.96Z" fill="#0E5D37"/>
<path d="M59.6201 107.4C59.6201 120.4 70.2901 130.8 83.4901 130.8C96.6901 130.8 107.47 120.3 107.47 107.4H59.6201Z" fill="#0E5D37"/>
<path d="M107.58 107.4C107.58 120.4 118.25 130.8 131.45 130.8C144.65 130.8 155.43 120.3 155.43 107.4H107.58Z" fill="#0E5D37"/>
<path d="M155.54 107.4C155.54 120.4 166.21 130.8 179.41 130.8C192.61 130.8 203.39 120.3 203.39 107.4H155.54Z" fill="#0E5D37"/>
<path d="M203.39 107.4C203.39 120.4 214.06 130.8 227.26 130.8C240.46 130.8 251.13 120.3 251.13 107.4H203.39Z" fill="#0E5D37"/>
<path d="M251.35 107.4C251.35 120.4 262.02 130.8 275.22 130.8C288.42 130.8 299.09 120.3 299.09 107.4H251.35Z" fill="#0E5D37"/>
<path d="M299.31 107.4C299.31 120.4 309.98 130.8 323.18 130.8C336.38 130.8 347.05 120.3 347.05 107.4H299.31Z" fill="#0E5D37"/>
<path d="M347.27 107.4C347.27 120.4 357.94 130.8 371.14 130.8C384.34 130.8 395.01 120.3 395.01 107.4H347.27Z" fill="#0E5D37"/>
<path d="M395.12 107.4C395.12 120.4 405.79 130.8 418.99 130.8C432.19 130.8 441.65 120.3 441.65 107.4H395.12Z" fill="#0E5D37"/>
<path d="M442.64 107.4C442.64 120.4 453.31 130.8 466.51 130.8C479.71 130.8 489.17 120.3 489.17 107.4H442.64Z" fill="#0E5D37"/>
<path opacity="0.5" d="M107.58 107.4L131.45 67.7H102.96L59.6201 107.4H107.58Z" fill="white"/>
<path opacity="0.5" d="M155.54 107.4C155.43 107.4 173.36 67.7999 173.36 67.7999H207.46L203.5 107.4H155.54Z" fill="white"/>
<path opacity="0.5" d="M286.22 67.7H248.16L251.35 107.4H299.31L286.22 67.7Z" fill="white"/>
<path opacity="0.5" d="M347.27 107.4L346.5 105.4L329.78 67.7H366.19L395.12 107.4" fill="white"/>
<path opacity="0.6" d="M59.6201 107.4C59.6201 120.4 70.2901 130.8 83.4901 130.8C96.6901 130.8 107.47 120.3 107.47 107.4H59.6201Z" fill="white"/>
<path opacity="0.6" d="M155.54 107.4C155.54 120.4 166.21 130.8 179.41 130.8C192.61 130.8 203.39 120.3 203.39 107.4H155.54Z" fill="white"/>
<path opacity="0.6" d="M251.35 107.4C251.35 120.4 262.02 130.8 275.22 130.8C288.42 130.8 299.09 120.3 299.09 107.4H251.35Z" fill="white"/>
<path opacity="0.6" d="M347.27 107.4C347.27 120.4 357.94 130.8 371.14 130.8C384.34 130.8 395.01 120.3 395.01 107.4H347.27Z" fill="white"/>
<path opacity="0.5" d="M442.64 107.4L409.86 67.7H447.48L489.28 107.4H442.64Z" fill="white"/>
<path opacity="0.6" d="M442.64 107.4C442.64 120.4 453.31 130.8 466.51 130.8C479.71 130.8 489.17 120.3 489.17 107.4H442.64Z" fill="white"/>
<path d="M356.84 215.4L393.36 182.7L428.34 215.4" stroke="#263238" stroke-miterlimit="10"/>
<path d="M431.42 214.6H353.1V256.6H431.42V214.6Z" fill="#FCFCFC"/>
<path d="M426.91 219H357.72V252.3H426.91V219Z" fill="#263238"/>
<path d="M371.168 240.589C370.26 240.589 369.455 240.406 368.751 240.039C368.048 239.672 367.492 239.167 367.084 238.525C366.687 237.872 366.488 237.128 366.488 236.291C366.488 235.455 366.687 234.716 367.084 234.074C367.492 233.431 368.048 232.932 368.751 232.575C369.455 232.208 370.26 232.024 371.168 232.024C372.075 232.024 372.881 232.208 373.585 232.575C374.298 232.932 374.854 233.431 375.252 234.074C375.649 234.716 375.848 235.455 375.848 236.291C375.848 237.128 375.649 237.872 375.252 238.525C374.854 239.167 374.298 239.672 373.585 240.039C372.881 240.406 372.075 240.589 371.168 240.589ZM371.168 238.28C371.504 238.28 371.8 238.203 372.055 238.05C372.32 237.897 372.529 237.673 372.682 237.377C372.835 237.071 372.912 236.71 372.912 236.291C372.912 235.873 372.835 235.522 372.682 235.236C372.529 234.94 372.32 234.716 372.055 234.563C371.8 234.41 371.504 234.334 371.168 234.334C370.842 234.334 370.546 234.41 370.281 234.563C370.026 234.716 369.817 234.94 369.654 235.236C369.501 235.522 369.424 235.873 369.424 236.291C369.424 236.71 369.501 237.071 369.654 237.377C369.817 237.673 370.026 237.897 370.281 238.05C370.546 238.203 370.842 238.28 371.168 238.28ZM382.41 240.589C381.706 240.589 381.105 240.436 380.605 240.13C380.105 239.814 379.723 239.345 379.458 238.723C379.203 238.091 379.076 237.286 379.076 236.307C379.076 235.318 379.198 234.512 379.443 233.89C379.687 233.258 380.054 232.789 380.544 232.483C381.044 232.177 381.666 232.024 382.41 232.024C383.164 232.024 383.848 232.203 384.459 232.559C385.081 232.906 385.571 233.401 385.928 234.043C386.295 234.675 386.478 235.43 386.478 236.307C386.478 237.184 386.295 237.943 385.928 238.586C385.571 239.228 385.081 239.723 384.459 240.069C383.848 240.416 383.164 240.589 382.41 240.589ZM377.194 243.419V232.162H379.963V233.569L379.947 236.307L380.1 239.06V243.419H377.194ZM381.798 238.28C382.124 238.28 382.415 238.203 382.67 238.05C382.935 237.897 383.144 237.673 383.297 237.377C383.46 237.082 383.542 236.725 383.542 236.307C383.542 235.889 383.46 235.532 383.297 235.236C383.144 234.94 382.935 234.716 382.67 234.563C382.415 234.41 382.124 234.334 381.798 234.334C381.472 234.334 381.176 234.41 380.911 234.563C380.656 234.716 380.447 234.94 380.284 235.236C380.131 235.532 380.054 235.889 380.054 236.307C380.054 236.725 380.131 237.082 380.284 237.377C380.447 237.673 380.656 237.897 380.911 238.05C381.176 238.203 381.472 238.28 381.798 238.28ZM392.173 240.589C391.194 240.589 390.337 240.406 389.603 240.039C388.879 239.661 388.313 239.152 387.906 238.509C387.508 237.857 387.309 237.117 387.309 236.291C387.309 235.466 387.503 234.731 387.89 234.089C388.288 233.436 388.833 232.932 389.527 232.575C390.22 232.208 391 232.024 391.867 232.024C392.683 232.024 393.427 232.192 394.1 232.529C394.773 232.855 395.308 233.34 395.706 233.982C396.104 234.624 396.302 235.404 396.302 236.322C396.302 236.424 396.297 236.541 396.287 236.674C396.277 236.806 396.267 236.929 396.257 237.041H389.695V235.511H394.712L393.611 235.94C393.621 235.562 393.549 235.236 393.396 234.961C393.254 234.685 393.05 234.471 392.785 234.318C392.53 234.165 392.229 234.089 391.882 234.089C391.536 234.089 391.23 234.165 390.965 234.318C390.71 234.471 390.511 234.691 390.368 234.976C390.225 235.251 390.154 235.578 390.154 235.955V236.399C390.154 236.806 390.235 237.158 390.399 237.454C390.572 237.75 390.817 237.979 391.133 238.142C391.449 238.295 391.826 238.372 392.265 238.372C392.672 238.372 393.019 238.315 393.305 238.203C393.6 238.081 393.891 237.897 394.176 237.653L395.706 239.243C395.308 239.682 394.819 240.018 394.238 240.253C393.656 240.477 392.968 240.589 392.173 240.589ZM403.041 232.024C403.684 232.024 404.265 232.157 404.785 232.422C405.305 232.677 405.713 233.074 406.009 233.615C406.315 234.155 406.467 234.854 406.467 235.71V240.452H403.561V236.184C403.561 235.593 403.439 235.165 403.194 234.9C402.96 234.624 402.628 234.487 402.2 234.487C401.894 234.487 401.614 234.558 401.359 234.701C401.104 234.833 400.905 235.042 400.762 235.328C400.62 235.613 400.548 235.986 400.548 236.444V240.452H397.642V232.162H400.411V234.517L399.875 233.829C400.191 233.227 400.625 232.779 401.175 232.483C401.726 232.177 402.348 232.024 403.041 232.024Z" fill="white"/>
<path d="M217.8 460.3L196.35 333.8H130.68L137.28 460.3H145.42L144.76 445H206.58L209.66 460.3H217.8Z" fill="white"/>
<path opacity="0.5" d="M217.8 460.3L196.35 333.8H130.68L137.28 460.3H145.42L144.76 445H206.58L209.66 460.3H217.8Z" fill="black"/>
<path d="M171.71 460.3L196.35 333.8H115.83L93.0601 460.3H102.3L104.83 444.6L165.88 445.3L163.24 460.3H171.71Z" fill="white"/>
<path d="M168.41 433.5L185.35 342.4H122.43L105.6 433.5H168.41Z" fill="#263238"/>
<path opacity="0.3" d="M108.24 433.5L124.74 344.8H184.91L185.35 342.4H122.43L105.6 433.5H108.24Z" fill="black"/>
<path d="M133.695 378.306L131.775 367.844H134.009L135.615 377.072H134.479L139.71 367.844H141.806L143.471 377.072H142.335L147.507 367.844H149.819L143.981 378.306H141.571L139.984 370.136H140.709L136.066 378.306H133.695ZM154.31 378.443C153.265 378.443 152.357 378.254 151.586 377.875C150.816 377.483 150.215 376.948 149.784 376.268C149.366 375.576 149.157 374.766 149.157 373.839C149.157 372.651 149.418 371.599 149.941 370.685C150.463 369.771 151.175 369.052 152.076 368.53C152.99 367.994 154.029 367.727 155.191 367.727C156.171 367.727 157.02 367.91 157.738 368.275C158.456 368.641 159.011 369.17 159.403 369.862C159.808 370.541 160.011 371.358 160.011 372.311C160.011 372.559 159.998 372.814 159.971 373.075C159.945 373.336 159.906 373.578 159.854 373.8H150.979L151.253 372.174H158.698L157.699 372.722C157.803 372.056 157.758 371.501 157.562 371.057C157.366 370.613 157.052 370.274 156.621 370.038C156.19 369.803 155.674 369.686 155.074 369.686C154.355 369.686 153.728 369.856 153.193 370.195C152.67 370.522 152.266 370.992 151.978 371.606C151.691 372.207 151.547 372.912 151.547 373.722C151.547 374.571 151.789 375.224 152.272 375.681C152.768 376.138 153.532 376.366 154.564 376.366C155.152 376.366 155.714 376.275 156.249 376.092C156.785 375.896 157.229 375.628 157.581 375.289L158.6 376.993C158.051 377.477 157.398 377.842 156.641 378.09C155.896 378.325 155.119 378.443 154.31 378.443Z" fill="white"/>
<path d="M136.835 391.183C136.362 391.183 135.929 391.082 135.536 390.878C135.151 390.674 134.841 390.383 134.609 390.005C134.383 389.619 134.27 389.157 134.27 388.619C134.27 388.124 134.35 387.67 134.51 387.255C134.678 386.841 134.911 386.48 135.209 386.175C135.507 385.869 135.853 385.633 136.245 385.466C136.646 385.298 137.082 385.215 137.555 385.215C138.042 385.215 138.461 385.302 138.81 385.477C139.166 385.651 139.435 385.917 139.617 386.273C139.799 386.622 139.883 387.059 139.868 387.583C139.854 388.303 139.723 388.936 139.475 389.481C139.228 390.02 138.882 390.438 138.439 390.736C137.995 391.034 137.46 391.183 136.835 391.183ZM137.184 390.016C137.577 390.016 137.922 389.925 138.22 389.743C138.519 389.554 138.755 389.296 138.93 388.968C139.104 388.641 139.192 388.263 139.192 387.834C139.192 387.382 139.057 387.026 138.788 386.764C138.519 386.502 138.14 386.371 137.653 386.371C137.268 386.371 136.922 386.466 136.616 386.655C136.318 386.837 136.082 387.092 135.907 387.419C135.733 387.746 135.645 388.124 135.645 388.554C135.645 389.005 135.78 389.361 136.049 389.623C136.318 389.885 136.696 390.016 137.184 390.016ZM138.613 391.107L138.875 389.776L139.246 388.226L139.432 386.666L139.704 385.28H141.068L139.912 391.107H138.613ZM141.696 391.107L142.853 385.28H144.152L143.824 386.939L143.704 386.459C143.973 385.986 144.315 385.662 144.73 385.487C145.145 385.306 145.65 385.215 146.247 385.215L145.996 386.513C145.937 386.499 145.883 386.491 145.832 386.491C145.781 386.484 145.723 386.48 145.657 386.48C145.126 386.48 144.686 386.622 144.337 386.906C143.988 387.182 143.755 387.626 143.639 388.237L143.06 391.107H141.696ZM149.096 391.183C148.514 391.183 148.009 391.078 147.58 390.867C147.15 390.649 146.816 390.351 146.576 389.972C146.343 389.587 146.227 389.136 146.227 388.619C146.227 387.957 146.372 387.372 146.663 386.862C146.954 386.353 147.35 385.953 147.852 385.662C148.362 385.364 148.94 385.215 149.587 385.215C150.133 385.215 150.606 385.317 151.006 385.52C151.406 385.724 151.715 386.019 151.933 386.404C152.159 386.782 152.272 387.237 152.272 387.768C152.272 387.906 152.264 388.048 152.25 388.194C152.235 388.339 152.213 388.474 152.184 388.597H147.241L147.394 387.692H151.541L150.984 387.997C151.042 387.626 151.017 387.317 150.908 387.07C150.799 386.822 150.624 386.633 150.384 386.502C150.144 386.371 149.856 386.306 149.522 386.306C149.122 386.306 148.773 386.4 148.474 386.59C148.183 386.771 147.958 387.033 147.798 387.375C147.638 387.71 147.558 388.103 147.558 388.554C147.558 389.027 147.692 389.39 147.961 389.645C148.238 389.899 148.663 390.027 149.238 390.027C149.566 390.027 149.878 389.976 150.177 389.874C150.475 389.765 150.722 389.616 150.919 389.427L151.486 390.376C151.18 390.645 150.817 390.849 150.395 390.987C149.98 391.118 149.547 391.183 149.096 391.183Z" fill="white"/>
<path d="M122.618 408.716C121.819 408.716 121.118 408.568 120.513 408.271C119.92 407.963 119.459 407.544 119.131 407.011C118.803 406.468 118.639 405.833 118.639 405.106C118.639 404.185 118.849 403.366 119.269 402.649C119.689 401.922 120.263 401.353 120.99 400.944C121.727 400.524 122.567 400.314 123.509 400.314C124.318 400.314 125.019 400.462 125.613 400.759C126.217 401.046 126.683 401.461 127.011 402.004C127.339 402.536 127.503 403.171 127.503 403.908C127.503 404.82 127.293 405.639 126.873 406.366C126.453 407.093 125.874 407.667 125.137 408.086C124.41 408.506 123.57 408.716 122.618 408.716ZM122.741 407.073C123.294 407.073 123.78 406.945 124.2 406.689C124.62 406.422 124.953 406.059 125.198 405.598C125.444 405.137 125.567 404.605 125.567 404C125.567 403.366 125.378 402.864 124.999 402.495C124.62 402.126 124.087 401.942 123.401 401.942C122.859 401.942 122.372 402.075 121.942 402.341C121.522 402.597 121.189 402.956 120.944 403.417C120.698 403.878 120.575 404.41 120.575 405.014C120.575 405.659 120.764 406.166 121.143 406.535C121.522 406.893 122.055 407.073 122.741 407.073ZM133.425 408.716C132.739 408.716 132.145 408.593 131.643 408.348C131.141 408.091 130.762 407.718 130.506 407.226C130.25 406.724 130.132 406.105 130.153 405.368C130.173 404.343 130.358 403.453 130.706 402.695C131.054 401.937 131.54 401.353 132.165 400.944C132.8 400.524 133.553 400.314 134.423 400.314C135.099 400.314 135.708 400.457 136.251 400.744C136.794 401.02 137.224 401.43 137.541 401.973C137.869 402.505 138.033 403.15 138.033 403.908C138.033 404.605 137.915 405.245 137.68 405.828C137.454 406.412 137.132 406.919 136.712 407.349C136.292 407.779 135.8 408.117 135.237 408.363C134.684 408.598 134.08 408.716 133.425 408.716ZM127.864 411.589L130.091 400.406H131.919L131.551 402.28L131.044 404.461L130.767 406.658L129.784 411.589H127.864ZM133.271 407.073C133.824 407.073 134.31 406.945 134.73 406.689C135.15 406.422 135.483 406.059 135.729 405.598C135.975 405.137 136.097 404.605 136.097 404C136.097 403.366 135.908 402.864 135.529 402.495C135.15 402.126 134.618 401.942 133.932 401.942C133.389 401.942 132.902 402.075 132.472 402.341C132.052 402.597 131.72 402.956 131.474 403.417C131.228 403.878 131.105 404.41 131.105 405.014C131.105 405.649 131.295 406.151 131.674 406.52C132.052 406.888 132.585 407.073 133.271 407.073ZM143.11 408.716C142.291 408.716 141.579 408.568 140.975 408.271C140.371 407.963 139.9 407.544 139.562 407.011C139.234 406.468 139.07 405.833 139.07 405.106C139.07 404.175 139.275 403.35 139.685 402.633C140.094 401.916 140.653 401.353 141.359 400.944C142.076 400.524 142.89 400.314 143.802 400.314C144.57 400.314 145.235 400.457 145.798 400.744C146.362 401.031 146.797 401.445 147.104 401.988C147.422 402.521 147.58 403.161 147.58 403.908C147.58 404.103 147.57 404.303 147.55 404.507C147.529 404.712 147.498 404.902 147.457 405.076H140.499L140.714 403.801H146.551L145.768 404.231C145.85 403.709 145.814 403.273 145.66 402.925C145.507 402.577 145.261 402.311 144.923 402.126C144.585 401.942 144.18 401.85 143.709 401.85C143.146 401.85 142.655 401.983 142.235 402.249C141.825 402.505 141.508 402.874 141.282 403.355C141.057 403.826 140.944 404.379 140.944 405.014C140.944 405.68 141.134 406.192 141.513 406.55C141.902 406.909 142.501 407.088 143.31 407.088C143.771 407.088 144.211 407.016 144.631 406.873C145.051 406.719 145.399 406.509 145.676 406.243L146.474 407.579C146.044 407.958 145.532 408.245 144.938 408.44C144.355 408.624 143.745 408.716 143.11 408.716ZM154.602 400.314C155.309 400.314 155.908 400.457 156.4 400.744C156.891 401.031 157.234 401.456 157.429 402.019C157.633 402.572 157.654 403.253 157.49 404.062L156.584 408.609H154.664L155.555 404.108C155.688 403.442 155.626 402.925 155.37 402.557C155.114 402.178 154.648 401.988 153.973 401.988C153.266 401.988 152.682 402.183 152.221 402.572C151.761 402.961 151.448 403.555 151.284 404.354L150.424 408.609H148.504L150.132 400.406H151.96L151.499 402.741L151.192 402.004C151.581 401.42 152.068 400.995 152.651 400.729C153.245 400.452 153.896 400.314 154.602 400.314Z" fill="white"/>
<g opacity="0.3">
<path d="M143.44 358.5C141.79 355.4 140.25 352.3 138.6 349.2C138.16 348.3 136.73 349.1 137.17 350C138.82 353.1 140.36 356.2 142.01 359.3C142.45 360.1 143.88 359.3 143.44 358.5Z" fill="white"/>
</g>
<g opacity="0.3">
<path d="M150.81 359.5C151.36 356 152.02 352.6 152.57 349.1C152.68 348.7 152.46 348.3 152.02 348.2C151.58 348.1 151.03 348.3 151.03 348.7C150.48 352.2 149.82 355.6 149.27 359.1C149.16 359.5 149.38 359.9 149.82 360C150.15 360.2 150.7 359.9 150.81 359.5Z" fill="white"/>
</g>
<g opacity="0.3">
<path d="M155.43 360.8C158.51 357.1 161.92 353.7 165.77 350.5C166.54 349.8 165.44 348.8 164.56 349.4C160.71 352.6 157.19 356.2 154 360C153.78 360.3 154 360.8 154.33 361C154.66 361.3 155.1 361.1 155.43 360.8Z" fill="white"/>
</g>
<g opacity="0.3">
<path d="M133.32 416.1C130.13 419 127.27 422 124.52 425.2C124.3 425.5 124.19 425.9 124.52 426.3C124.85 426.6 125.4 426.6 125.73 426.3C128.48 423.1 131.45 420 134.53 417.2C135.3 416.5 134.09 415.4 133.32 416.1Z" fill="white"/>
</g>
<g opacity="0.3">
<path d="M139.26 416.3C138.49 420.4 138.16 424.6 138.6 428.8C138.71 429.8 140.36 429.8 140.25 428.8C139.92 424.8 140.14 420.7 140.91 416.7C141.02 415.7 139.37 415.3 139.26 416.3Z" fill="white"/>
</g>
<g opacity="0.3">
<path d="M146.19 417.2C147.95 420.3 150.15 423.2 152.46 426C152.68 426.3 153.12 426.5 153.56 426.3C153.89 426.1 154.11 425.6 153.89 425.3C151.58 422.5 149.38 419.7 147.62 416.5C147.07 415.6 145.64 416.4 146.19 417.2Z" fill="white"/>
</g>
<path d="M507.1 290.1C489.61 308.8 484.44 336.4 494.23 359.2C505.12 350.3 512.82 336.8 513.37 325C513.92 313.1 510.51 301.5 507.1 290.1Z" fill="#0E5D37"/>
<path d="M504.02 361.3C498.08 369.6 495.22 379.7 496.1 389.6C505.56 386.6 513.92 376.9 518.98 369C524.04 361.1 526.79 352.2 529.32 343.4C518.98 346.6 509.96 353.1 504.02 361.3Z" fill="#0E5D37"/>
<path d="M501.82 322.6C494.78 345.6 491.15 369.4 491.15 393.3C491.15 400.1 491.48 407 492.03 413.8C492.03 414.3 492.91 414.3 492.91 413.8C490.82 389.9 492.36 365.8 497.53 342.3C498.96 335.8 500.61 329.3 502.59 322.8C502.81 322.4 501.93 322.2 501.82 322.6Z" fill="#263238"/>
<path d="M492.36 397.4C499.51 381.8 508.97 367.2 519.97 353.6C520.3 353.2 519.53 352.8 519.31 353.2C508.31 366.9 498.85 381.5 491.59 397.2C491.37 397.7 492.25 397.9 492.36 397.4Z" fill="#263238"/>
<path d="M482.13 374.3C487.08 381.2 489.5 389.6 488.73 397.9C480.81 395.4 473.88 387.3 469.7 380.7C465.52 374.1 463.21 366.7 461.01 359.3C469.7 362 477.18 367.4 482.13 374.3Z" fill="#0E5D37"/>
<path d="M492.14 403.3C486.2 390.5 478.39 378.7 469.48 367.5C469.15 367.1 468.49 367.5 468.82 367.9C477.73 379 485.54 390.8 491.37 403.5C491.59 403.9 492.36 403.7 492.14 403.3Z" fill="#263238"/>
<path d="M492.47 407.6C503.58 397.2 515.02 386.9 526.13 376.5C526.46 376.2 525.91 375.6 525.58 376C514.47 386.4 503.03 396.7 491.92 407.1C491.48 407.4 492.03 407.9 492.47 407.6Z" fill="#263238"/>
<path d="M526.57 371.6C516.89 380.1 508.09 389.4 500.28 399.3H502.04C509.41 399 516.56 395.7 521.18 390.5C525.8 385.3 527.78 378.2 526.57 371.6Z" fill="#0E5D37"/>
<path d="M480.7 351.4C484.88 357.6 488.73 363.9 492.47 370.3C492.69 370.7 493.46 370.3 493.13 369.9C489.5 363.5 485.54 357.2 481.36 351C481.14 350.6 480.37 351 480.7 351.4Z" fill="#263238"/>
<path d="M470.69 320.2C469.15 326.7 467.5 335.1 467.5 341.9C467.5 348.6 469.7 355.2 473.99 359.8C478.17 364.3 486.75 366.3 490.16 363.7L470.69 320.2Z" fill="#0E5D37"/>
<path d="M512.71 410.5H470.47V417.6H512.71V410.5Z" fill="#DDDDDD"/>
<path d="M505.89 443H479.6L474.87 416H509.63L505.89 443Z" fill="#DDDDDD"/>
<path opacity="0.2" d="M475.2 417.8H509.41L508.97 420.9H475.75L475.2 417.8Z" fill="black"/>
<path d="M48.1798 289C65.6698 307.7 70.8398 335.3 61.0498 358.1C50.1598 349.2 42.4598 335.7 41.9098 323.9C41.3598 312 44.7698 300.4 48.1798 289Z" fill="#0E5D37"/>
<path d="M51.26 360.2C57.2 368.5 60.06 378.6 59.18 388.5C49.72 385.5 41.36 375.8 36.3 367.9C31.24 360 28.49 351.1 25.96 342.3C36.3 345.5 45.32 352 51.26 360.2Z" fill="#0E5D37"/>
<path d="M52.6899 321.7C59.7299 344.8 63.3599 368.7 63.2499 392.7C63.2499 399.4 62.9199 406 62.3699 412.7C62.3699 413.2 63.1399 413.2 63.2499 412.7C65.3399 388.9 63.7999 364.9 58.7399 341.5C57.3099 334.8 55.5499 328.1 53.5699 321.6C53.3499 321.1 52.5799 321.3 52.6899 321.7Z" fill="#263238"/>
<path d="M63.6902 396.1C56.4302 380.5 46.9702 365.8 35.9702 352.1C35.6402 351.7 34.9802 352.1 35.3102 352.5C46.2002 366.1 55.6602 380.7 62.9202 396.3C63.1402 396.8 63.9102 396.6 63.6902 396.1Z" fill="#263238"/>
<path d="M73.1498 373.2C68.1998 380.1 65.7798 388.5 66.5498 396.8C74.4698 394.3 81.3998 386.2 85.5798 379.6C89.7598 373 92.0698 365.6 94.2698 358.2C85.6898 360.9 78.0998 366.3 73.1498 373.2Z" fill="#0E5D37"/>
<path d="M63.9102 402.4C69.7402 389.7 77.5502 377.9 86.4602 366.8C86.7902 366.4 86.0202 366 85.8002 366.4C76.7802 377.6 69.0802 389.4 63.1402 402.2C62.9202 402.6 63.6902 402.8 63.9102 402.4Z" fill="#263238"/>
<path d="M63.4698 405.9C52.3598 395.5 40.9198 385.2 29.8098 374.8C29.4798 374.5 28.8198 375 29.2598 375.3C40.2598 385.8 51.6998 396 62.8098 406.5C63.2498 406.8 63.7998 406.3 63.4698 405.9Z" fill="#263238"/>
<path d="M28.7099 370.5C38.3899 379 47.1899 388.3 54.9999 398.2H53.2399C45.8699 397.9 38.7199 394.6 34.0999 389.4C29.4799 384.2 27.4999 377.1 28.7099 370.5Z" fill="#0E5D37"/>
<path d="M73.9197 349.9C69.7397 356.1 65.8897 362.4 62.1497 368.8C61.9297 369.2 62.5897 369.6 62.8097 369.2C66.4397 362.8 70.3998 356.5 74.5798 350.3C74.9097 349.9 74.1397 349.5 73.9197 349.9Z" fill="#263238"/>
<path d="M84.5896 319.1C86.1296 325.6 87.7796 334 87.7796 340.8C87.7796 347.5 85.5796 354.1 81.2896 358.7C77.1096 363.2 68.5296 365.2 65.1196 362.6L84.5896 319.1Z" fill="#0E5D37"/>
<path d="M42.5452 416.605H84.7852V409.505H42.5452V416.605Z" fill="#DDDDDD"/>
<path d="M49.3899 441.9H75.6799L80.4099 414.9H45.6499L49.3899 441.9Z" fill="#DDDDDD"/>
<path opacity="0.2" d="M80.0801 416.7H45.8701L46.3101 419.8H79.5301L80.0801 416.7Z" fill="black"/>
<path d="M248.38 222.9L227.81 238L224.84 213.7H217.47C217.47 213.7 216.7 238.1 216.59 241.1C216.48 244 217.03 246.9 218.02 249.3C219.67 253.2 224.95 254.7 228.91 252.5L253.55 238.3L258.72 218.9L254.65 219.8C252.45 220.5 250.25 221.5 248.38 222.9Z" fill="#B97964"/>
<path d="M224.95 214.5C224.95 214.5 227.37 212.6 227.48 210.3C227.7 207.9 228.47 206.1 228.47 204.3C228.47 202.5 226.82 204.3 226.05 205.5C225.39 206.6 224.51 207.9 223.74 207.3C222.86 206.7 219.45 198.9 218.24 198.2C216.92 197.5 217.14 198.9 217.14 198.9C217.14 198.9 216.26 197 215.38 197.1C215.16 197.1 214.61 197.6 214.94 198.5C215.49 200.6 217.03 204.8 217.03 204.8C216.92 204.6 214.72 199.4 214.28 198.7C213.73 197.7 212.85 197.6 212.3 197.9C211.42 198.4 213.95 204.8 213.84 205.2C213.84 205.2 212.52 201.4 211.31 201.2C210.1 201 210.76 203.4 211.75 205.4C212.74 207.2 214.06 211.1 215.27 212.9C216.7 215.1 218.24 216.3 220.88 216C223.3 215.7 224.95 214.5 224.95 214.5Z" fill="#B97964"/>
<path opacity="0.2" d="M227.81 238C227.81 238 228.25 239.7 227.81 242C227.81 242 231 239.5 230.23 236.3L227.81 238Z" fill="black"/>
<path opacity="0.2" d="M217.03 198.8C218.02 200.4 218.79 202 219.56 203.6" stroke="black" stroke-width="0.5" stroke-miterlimit="10" stroke-linecap="round" stroke-linejoin="round"/>
<path opacity="0.2" d="M215.16 207.3C216.7 206.2 218.35 205.4 220.22 204.8" stroke="black" stroke-width="0.5" stroke-miterlimit="10" stroke-linecap="round" stroke-linejoin="round"/>
<path d="M304.26 452.6L294.69 453.4L289.52 431.4L304.26 430.1V452.6Z" fill="#B97964"/>
<path d="M293.37 449.6H296.78C297.55 449.6 298.21 450 298.76 450.5C300.74 452.9 302.17 452 304.26 449.7C305.58 449.6 306.02 451 306.13 451.3L308.66 459.7C308.88 460.4 308.44 461.1 307.67 461.3C307.56 461.3 307.34 461.4 307.23 461.4C303.16 461.4 301.18 461.4 296.01 461.4H280.28C275.99 461.4 275.11 457.5 276.87 457.1C284.79 455.5 290.4 453.4 292.82 451.3C293.37 451 292.82 450.7 293.37 449.6Z" fill="#263238"/>
<path d="M288.31 452.5C289.41 452.5 290.4 452.4 291.5 452.1C291.61 452.1 291.61 452 291.61 451.9L291.5 451.8C291.06 451.6 286.77 449.8 285.67 450.5C285.45 450.6 285.34 450.8 285.34 451C285.34 451.4 285.56 451.8 285.89 452C286.66 452.4 287.54 452.5 288.31 452.5ZM290.84 451.9C289.63 452.1 287.21 452.4 286.33 451.7C286.11 451.5 285.89 451.3 285.89 451C285.89 450.9 285.89 450.8 286 450.8C286.55 450.4 289.08 451.1 290.84 451.9Z" fill="#0E5D37"/>
<path d="M291.39 452.1H291.5C291.61 452.1 291.61 452 291.61 451.9C291.61 451.7 290.62 447.9 288.31 448.2C287.76 448.3 287.54 448.5 287.54 448.7C287.43 449.7 290.07 451.6 291.39 452.1ZM288.53 448.5C289.96 448.5 290.84 450.7 291.17 451.6C289.74 450.9 287.87 449.4 287.98 448.7C287.98 448.6 287.98 448.5 288.42 448.5H288.53Z" fill="#0E5D37"/>
<path d="M290.95 452C292.16 452.1 293.15 452.8 293.81 453.7" stroke="#0E5D37" stroke-width="0.5" stroke-miterlimit="10" stroke-linecap="round" stroke-linejoin="round"/>
<path d="M288.86 453.4C290.07 453.5 291.06 454.2 291.72 455.1" stroke="#0E5D37" stroke-width="0.5" stroke-miterlimit="10" stroke-linecap="round" stroke-linejoin="round"/>
<path d="M286.22 454.6C287.43 454.7 288.42 455.4 289.08 456.3" stroke="#0E5D37" stroke-width="0.5" stroke-miterlimit="10" stroke-linecap="round" stroke-linejoin="round"/>
<path d="M258.17 451.9L248.71 452.7L244.31 430.6L257.73 429.3L258.17 451.9Z" fill="#B97964"/>
<path d="M247.28 448.9H250.69C251.46 448.9 252.12 449.3 252.67 449.8C254.65 452.2 256.08 451.3 258.17 449C259.49 448.9 259.93 450.3 260.04 450.6L262.57 459C262.79 459.7 262.35 460.4 261.58 460.6C261.47 460.6 261.25 460.7 261.14 460.7C257.07 460.7 255.09 460.7 249.92 460.7H234.3C230.01 460.7 229.13 456.8 230.89 456.4C238.81 454.8 244.42 452.7 246.84 450.6C247.28 450.3 246.84 450.1 247.28 448.9Z" fill="#263238"/>
<path d="M242.22 451.8C243.32 451.8 244.31 451.7 245.41 451.4C245.52 451.4 245.52 451.3 245.52 451.2L245.41 451.1C244.97 450.9 240.68 449.1 239.58 449.8C239.36 449.9 239.25 450.1 239.25 450.3C239.25 450.7 239.47 451.1 239.8 451.3C240.68 451.7 241.45 451.9 242.22 451.8ZM244.75 451.2C243.54 451.4 241.12 451.7 240.24 451C240.02 450.8 239.8 450.6 239.8 450.3C239.8 450.2 239.8 450.1 239.91 450.1C240.46 449.7 242.99 450.5 244.75 451.2Z" fill="#0E5D37"/>
<path d="M245.41 451.4H245.52C245.63 451.4 245.63 451.3 245.63 451.2C245.63 451 244.64 447.2 242.33 447.5C241.78 447.6 241.56 447.8 241.56 448C241.34 449.1 243.98 451 245.41 451.4ZM242.44 447.8C243.87 447.8 244.75 450 245.08 450.9C243.65 450.2 241.78 448.7 241.89 448C241.89 447.9 241.89 447.8 242.33 447.8H242.44Z" fill="#0E5D37"/>
<path d="M244.97 451.3C246.18 451.4 247.17 452.1 247.83 453" stroke="#0E5D37" stroke-width="0.5" stroke-miterlimit="10" stroke-linecap="round" stroke-linejoin="round"/>
<path d="M242.88 452.8C244.09 452.9 245.08 453.6 245.74 454.5" stroke="#0E5D37" stroke-width="0.5" stroke-miterlimit="10" stroke-linecap="round" stroke-linejoin="round"/>
<path d="M240.24 454C241.45 454.1 242.44 454.8 243.1 455.7" stroke="#0E5D37" stroke-width="0.5" stroke-miterlimit="10" stroke-linecap="round" stroke-linejoin="round"/>
<path d="M242.88 288.2C242.22 290 234.52 349.1 234.63 361.9C234.74 372.2 243.54 441.8 243.54 441.8L260.04 441.3C260.04 441.3 259.16 406.9 259.71 395C260.15 383.1 257.07 360.7 257.07 360.7L276.87 306.9L276.1 288.9L242.88 288.2Z" fill="#263238"/>
<path d="M302.06 367.6C301.62 365.9 300.96 362.4 300.08 357.8C300.08 357.8 300.08 357.8 300.19 357.8C299.53 351.7 301.73 320.1 299.64 302.1C297.99 290.6 295.02 284.5 291.72 280.7C291.5 280.5 291.39 280.3 291.28 280.2C290.73 279.6 290.4 279.2 290.4 279.2C289.74 279.3 289.19 279.5 288.53 279.6C288.31 279.6 288.09 279.7 287.87 279.7C264.88 284.1 245.41 277.8 245.41 277.8C243.32 282.5 242.11 294.3 240.57 304.8C242.99 307.2 252.34 309.4 264.44 311.5L267.85 325.7C269.72 334.5 272.03 343.1 274.01 350.9L276.1 359.4C276.21 360 276.32 360.5 276.43 361.1C277.53 366 289.3 443.5 289.3 443.5L306.13 443.7C306.02 443.6 307.89 390.9 302.06 367.6Z" fill="#263238"/>
<path opacity="0.2" d="M243.32 282.7C243.32 282.7 251.24 290.6 264.99 290.8C278.63 290.9 294.03 283.7 294.03 283.7L292.27 281L252.89 284.9L244.75 281L243.32 282.7Z" fill="black"/>
<path opacity="0.2" d="M268.62 329.1C268.73 329.4 260.81 301.7 260.81 301.7C260.81 301.7 254.76 326.8 264.33 340.6L268.62 329.1Z" fill="black"/>
<path d="M255.31 218.6C246.84 222.6 235.95 231 235.95 231L245.63 246.6C245.63 246.6 265.54 234.2 263.45 229.7C261.25 224.9 261.14 217.7 255.31 218.6Z" fill="#263238"/>
<g opacity="0.3">
<path d="M250.69 228.4C249.59 230.1 249.26 231 248.6 232.9C247.94 234.8 247.61 238.3 247.39 240.1L251.02 241C250.8 236.7 250.8 232.8 250.69 228.4Z" fill="black"/>
</g>
<path d="M297.88 241.5L303.27 223.6C299.53 218.5 281.49 214 281.49 214L269.28 214.6C269.28 214.6 264.55 215.6 260.59 216.8C255.2 218.4 252.34 219.7 251.02 222.4C251.02 222.4 248.82 228.4 250.14 240.8C250.47 244.2 250.14 261.9 249.04 267.8L243.54 282.7C265.87 298.5 293.81 281.6 293.81 281.6C292.82 278.8 292.16 275.7 291.72 273C292.05 269.5 291.61 264.1 293.26 258C293.26 256.8 297.33 242.6 297.88 241.5Z" fill="#263238"/>
<path opacity="0.3" d="M295.9 246.5C295.9 246.5 287.32 236.7 288.75 232.6L297.55 240.1L295.9 246.5Z" fill="black"/>
<path d="M294.36 223.3C294.91 223.6 299.2 221.7 303.93 227C308.22 231.8 328.46 250.7 327.8 257.4C327.25 263.3 299.64 282.2 299.64 282.2L295.13 276.5L313.17 256.3L296.12 242.3L294.36 223.3Z" fill="#B97964"/>
<path d="M299.75 221.3C304.59 222.3 313.06 233.6 313.06 233.6L298.1 244.8C298.1 244.8 288.75 234.7 289.52 229C290.18 224.2 293.59 220.1 299.75 221.3Z" fill="#263238"/>
<path d="M249.15 235.1C249.15 234.3 249.81 233.7 250.69 233.7C257.51 233.9 284.35 233.7 285.45 235.4C286.77 237.3 284.79 261.2 286.99 263.5C289.19 265.8 291.94 265.5 291.94 265.5L291.83 270.8C291.83 270.8 289.41 269.9 288.75 271.8C287.98 273.7 294.69 357.4 289.74 358.9C284.79 360.4 236.94 363.7 233.75 358.9C230.56 354.1 238.7 294.9 241.45 282.5C244.2 270.1 246.73 261.8 248.16 255.6C249.59 249.5 249.37 238.9 249.15 235.1Z" fill="#FAF7F1"/>
<path d="M252.23 241.1C252.23 241.1 255.2 220.2 256.85 218C258.5 215.8 263.78 215.4 263.78 215.4C263.78 215.4 261.47 217.1 260.48 220.5C259.49 223.8 256.96 242.1 256.96 242.1L252.23 241.1Z" fill="white"/>
<path d="M275.77 239.6C275.77 239.6 280.39 217 286.77 215.4L291.61 216.8C291.61 216.8 281.6 225.3 281.49 240.4L275.77 239.6Z" fill="white"/>
<path opacity="0.3" d="M245.74 292.2C245.74 292.2 268.51 293.9 277.97 292.2C277.97 292.2 278.85 309.9 274.78 313.1C270.05 316.8 246.73 318.6 245.74 308.7C245.08 302 245.74 292.2 245.74 292.2Z" fill="black"/>
<path opacity="0.3" d="M256.3 235.5C256.3 235.9 255.97 236.3 255.42 236.3C254.98 236.3 254.54 236 254.54 235.5C254.54 235.1 254.87 234.7 255.42 234.7C255.86 234.7 256.3 235.1 256.3 235.5Z" fill="black"/>
<path opacity="0.3" d="M280.39 235.5C280.39 235.9 280.06 236.3 279.51 236.3C278.96 236.3 278.63 236 278.63 235.5C278.63 235.1 278.96 234.7 279.51 234.7C280.06 234.7 280.39 235.1 280.39 235.5Z" fill="black"/>
<path d="M310.09 211.2C309.32 210.2 308 209.6 306.79 208.9C302.28 206.3 299.64 202 298.32 197.6C297 193.2 296.78 188.7 295.79 184.2C295.35 182.2 294.8 180.1 293.37 178.5C291.94 176.8 287.43 174.2 284.24 178V184.5C283.03 187.6 283.14 190.9 283.58 194.1C284.02 197.3 281.6 192.4 281.38 195.6C281.27 197.5 281.38 206.3 281.38 208.2C281.38 210.1 284.24 213.5 285.67 215.1C287.32 217.1 290.29 218.2 293.26 218.7C297.11 219.3 301.07 219.1 304.7 218.1C306.46 217.6 308.22 216.9 309.43 215.7C310.53 214.3 310.97 212.6 310.09 211.2Z" fill="#263238"/>
<path d="M284.35 177.5C286.22 177.8 287.76 179.2 288.53 180.8C289.08 181.9 289.3 183 289.08 184.2C288.86 185.3 288.09 186.4 286.99 186.9C285.89 187.4 284.35 187.2 283.47 186.4C282.7 185.6 282.59 184.5 282.81 183.4C283.03 182.4 283.58 181.4 283.91 180.4C284.24 179.4 284.46 178.3 284.13 177.3" fill="#0E5D37"/>
<path d="M284.24 214.8C284.24 214.8 280.39 217.5 275.55 221.3C274.56 222.1 273.46 222.8 272.25 223.4C269.06 224.9 267.63 224.6 266.86 223.1C266.64 222.8 266.31 221.9 266.2 221.6C265.54 219.2 264.55 217.8 266.64 216.3C268.95 214.6 270.16 213.1 269.72 210.8C269.5 209.5 268.95 208.1 268.4 206.8L270.27 204.8L279.95 195.9C279.62 201.8 279.18 211.5 284.24 214.8Z" fill="#B97964"/>
<path opacity="0.2" d="M269.83 211.2C272.47 209.8 275.44 207.3 275.11 204.4C275 203.2 274.67 202.1 274.34 201.3L268.95 207.8C269.28 208.9 269.5 209.6 269.83 211.2Z" fill="black"/>
<path d="M282.7 186.3C281.82 195.4 281.6 199.2 276.43 204C268.73 211.2 256.74 208.7 254.76 199.8C252.89 191.7 254.76 178.2 264.55 174.4C274.12 170.6 283.58 177.2 282.7 186.3Z" fill="#B97964"/>
<path d="M270.27 189.1C270.27 189.9 269.61 190.6 268.95 190.7C268.29 190.7 267.85 190 267.85 189.2C267.85 188.4 268.51 187.7 269.17 187.6C269.83 187.6 270.27 188.3 270.27 189.1Z" fill="#263238"/>
<path d="M259.93 189C259.93 189.8 259.27 190.5 258.61 190.5C257.95 190.5 257.51 189.9 257.51 189C257.51 188.2 258.17 187.5 258.83 187.5C259.49 187.5 259.93 188.2 259.93 189Z" fill="#263238"/>
<path d="M271.92 185.6C271.81 185.6 271.7 185.6 271.59 185.5C269.83 184.4 268.18 185.1 268.18 185.1C267.96 185.2 267.63 185.1 267.52 184.9C267.41 184.7 267.52 184.4 267.85 184.3C267.96 184.3 270.05 183.4 272.14 184.8C272.36 184.9 272.36 185.2 272.25 185.4C272.14 185.6 272.03 185.6 271.92 185.6Z" fill="#263238"/>
<path d="M256.41 185.4C256.3 185.4 256.19 185.3 256.19 185.2C256.08 185 256.19 184.7 256.52 184.6C259.16 183.6 261.03 184.7 261.03 184.8C261.25 184.9 261.25 185.2 261.14 185.4C261.03 185.6 260.7 185.7 260.48 185.5C260.37 185.5 258.94 184.6 256.85 185.4C256.63 185.4 256.52 185.4 256.41 185.4Z" fill="#263238"/>
<path d="M278.41 192C278.41 192 275.33 187.8 276.65 179.5C276.87 178.1 275.88 176.8 274.45 176.5C270.16 175.7 264.44 170.8 257.4 180.6C257.4 180.6 260.92 168.1 280.39 173.6C292.82 177.1 285.89 191.2 284.13 192.6C282.15 194.1 278.41 192 278.41 192Z" fill="#263238"/>
<path d="M285.67 193.7C284.46 195.6 282.59 196.7 280.83 197.1C278.19 197.7 276.87 193.8 277.75 191.4C278.52 189.2 281.16 187.8 283.69 188.3C286.22 188.8 286.99 191.5 285.67 193.7Z" fill="#B97964"/>
<path d="M262.57 188.8C262.57 188.8 261.03 192.2 259.27 194.3C258.94 194.7 259.16 195.2 259.6 195.4C260.81 195.8 262.24 195.4 262.24 195.4L262.57 188.8Z" fill="#A24E3F"/>
<path d="M269.39 187.6L267.08 187.1C267.08 187.1 268.29 188.7 269.39 187.6Z" fill="#263238"/>
<path d="M259.05 187.6L256.74 187.1C256.74 187.1 258.06 188.6 259.05 187.6Z" fill="#263238"/>
<path d="M277.75 173.1C269.06 167.8 259.93 172.3 259.93 172.3C249.48 177.8 254.1 187.1 254.1 187.1C261.36 183.6 264.99 182.2 271.92 178.6C270.27 181 273.02 184.3 276.1 186.8C279.18 189.3 278.3 190.3 278.3 190.3C286.66 182 286.44 178.4 277.75 173.1Z" fill="#263238"/>
<path opacity="0.2" d="M283.91 190.6C283.36 190.2 282.48 190.2 281.93 190.5C281.38 190.8 280.94 191.4 280.72 192C280.39 192.7 280.39 193.5 280.5 194.3" stroke="black" stroke-width="0.5" stroke-miterlimit="10" stroke-linecap="round" stroke-linejoin="round"/>
<path d="M262.9 198C263.67 199 264.66 201 264.66 201C264.88 201 265.1 200.9 265.32 200.8C268.18 200.1 269.28 198.9 269.61 197.8C269.83 197.2 269.72 196.6 269.61 196.1C269.5 195.6 269.28 195.2 269.28 195.2C267.96 196.4 265.32 197.3 263.89 197.7C263.34 197.9 262.9 198 262.9 198Z" fill="#263238"/>
<path d="M263.89 197.7L264.44 198.6C267.19 197.9 268.95 197.1 269.61 196.2C269.5 195.7 269.28 195.3 269.28 195.3C267.96 196.5 265.32 197.3 263.89 197.7Z" fill="white"/>
<path d="M265.32 200.8C268.18 200.1 269.28 198.9 269.61 197.8C268.62 198.1 267.52 198.5 266.53 199.2C265.87 199.7 265.54 200.3 265.32 200.8Z" fill="#DC5753"/>
<path opacity="0.3" d="M313.06 256.1C313.06 256.1 314.71 255.2 318.01 255.3C318.01 255.3 315.48 252.9 311.52 254.8L313.06 256.1Z" fill="black"/>
<path d="M295.79 277.4C295.79 277.4 291.83 272.3 290.18 272C288.53 271.7 280.83 272.5 280.61 273.5C280.5 274.5 281.6 274.6 281.6 274.6L279.73 276.6C279.73 276.6 279.73 277.2 280.61 277.3C280.61 277.3 280.72 278.8 281.6 278.8C282.48 278.9 285.89 277.8 285.89 277.8L283.03 279.6C283.03 279.6 282.59 280.3 284.79 280.1C286.99 279.9 287.76 278.9 287.76 278.9C287.76 278.9 292.82 282.8 295.35 282.8C297.88 282.8 299.53 282 299.53 282L295.79 277.4Z" fill="#B97964"/>
</svg>
