<svg width="960" height="844" viewBox="0 0 960 844" fill="none" xmlns="http://www.w3.org/2000/svg">
<path d="M852.288 557.378H505.344C499.2 557.378 494.016 552.989 494.016 547.418V103.137C494.016 97.7353 499.008 93.1777 505.344 93.1777H852.288C858.432 93.1777 863.616 97.5665 863.616 103.137V547.587C863.616 552.989 858.624 557.378 852.288 557.378ZM505.344 93.6841C499.392 93.6841 494.592 97.9041 494.592 103.137V547.587C494.592 552.82 499.392 557.04 505.344 557.04H852.288C858.24 557.04 863.04 552.82 863.04 547.587V103.137C863.04 97.9041 858.24 93.6841 852.288 93.6841H505.344Z" fill="#E0E0E0"/>
<path d="M452.16 557.378H105.024C98.8798 557.378 93.6958 552.989 93.6958 547.418V103.137C93.6958 97.7353 98.6878 93.1777 105.024 93.1777H451.968C458.112 93.1777 463.296 97.5665 463.296 103.137V547.587C463.488 552.989 458.304 557.378 452.16 557.378ZM105.024 93.6841C99.0718 93.6841 94.2718 97.9041 94.2718 103.137V547.587C94.2718 552.82 99.0718 557.04 105.024 557.04H451.968C457.92 557.04 462.72 552.82 462.72 547.587V103.137C462.72 97.9041 457.92 93.6841 451.968 93.6841H105.024Z" fill="#E0E0E0"/>
<path d="M960 660.515H0V660.852H960V660.515Z" fill="#E0E0E0"/>
<path d="M130.176 684.484H99.2642V684.821H130.176V684.484Z" fill="#E0E0E0"/>
<path d="M429.888 679.927H327.168V680.264H429.888V679.927Z" fill="#E0E0E0"/>
<path d="M201.408 700.183H131.904V700.52H201.408V700.183Z" fill="#E0E0E0"/>
<path d="M809.472 679.758H726.528V680.095H809.472V679.758Z" fill="#E0E0E0"/>
<path d="M838.656 679.758H826.56V680.095H838.656V679.758Z" fill="#E0E0E0"/>
<path d="M710.592 690.223H607.104V690.561H710.592V690.223Z" fill="#E0E0E0"/>
<path d="M269.568 83.2185C265.92 80.6865 260.352 80.5177 256.512 82.5433C251.136 73.0905 236.352 68.8705 225.792 73.9345C223.104 63.8065 211.584 55.8729 199.68 56.0417C187.776 56.2105 176.448 64.3129 173.952 74.4409C173.568 76.1289 173.376 77.8169 172.032 78.9985C169.92 80.8553 166.272 80.3489 163.2 80.0113C153.6 79.3361 143.808 85.2441 141.12 93.5153L274.176 93.0089C275.328 89.2953 273.216 85.7505 269.568 83.2185Z" fill="#F5F5F5"/>
<path d="M828.672 109.551C825.024 107.019 819.456 106.85 815.616 108.876C810.24 99.4233 795.456 95.2033 784.896 100.267C782.208 90.1393 770.688 82.2057 758.784 82.3745C746.88 82.5433 735.552 90.6457 733.056 100.774C732.672 102.462 732.48 104.15 731.136 105.331C729.024 107.188 725.376 106.682 722.304 106.344C712.704 105.669 702.912 111.577 700.224 119.848L833.28 119.342C834.24 115.459 832.32 111.914 828.672 109.551Z" fill="#F5F5F5"/>
<path d="M901.44 327.135C897.792 324.603 892.224 324.434 888.384 326.459C883.008 317.007 868.224 312.787 857.664 317.851C854.976 307.723 843.456 299.789 831.552 299.958C819.648 300.127 808.32 308.229 805.824 318.357C805.44 320.045 805.248 321.733 803.904 322.915C801.792 324.771 798.144 324.265 795.072 323.927C785.472 323.252 775.68 329.16 772.992 337.431L906.048 336.925C907.2 333.043 905.088 329.498 901.44 327.135Z" fill="#EBEBEB"/>
<path d="M196.032 285.441C191.424 282.403 184.704 282.065 179.712 284.597C173.184 272.781 154.752 267.717 141.504 273.794C138.048 261.134 123.84 251.343 109.056 251.512C94.2719 251.681 80.4479 261.64 77.3759 274.469C76.7999 276.495 76.6079 278.689 74.8799 280.208C72.1919 282.571 67.7759 281.727 63.9359 281.559C52.0319 280.715 39.9359 288.142 36.6719 298.27L201.6 297.763C203.136 292.868 200.64 288.479 196.032 285.441Z" fill="#F5F5F5"/>
<path d="M247.296 426.895C242.688 423.857 235.968 423.519 230.976 426.051C224.448 414.235 206.016 409.171 192.768 415.248C189.312 402.588 175.104 392.798 160.32 392.967C145.536 393.135 131.712 403.094 128.64 415.923C128.064 417.949 127.872 420.143 126.144 421.663C123.456 424.026 119.04 423.182 115.2 423.013C103.296 422.169 91.2 429.596 87.936 439.724L252.864 439.218C254.4 434.323 251.904 429.934 247.296 426.895Z" fill="#F5F5F5"/>
<path d="M562.176 64.9881C558.144 62.2873 552.384 61.9497 547.968 64.3129C542.208 54.1849 526.272 49.6273 514.752 55.0289C511.68 44.0569 499.392 35.6169 486.528 35.7857C473.664 35.9545 461.568 44.5633 458.88 55.7041C458.496 57.3921 458.112 59.4177 456.768 60.5993C454.464 62.6249 450.624 61.9497 447.36 61.7809C436.992 61.1057 426.432 67.5201 423.744 76.2977L566.976 75.7913C568.32 71.5713 566.208 67.6889 562.176 64.9881Z" fill="#EBEBEB"/>
<path d="M881.088 751.329C881.088 757.068 701.568 761.626 480 761.626C258.432 761.626 78.9121 757.068 78.9121 751.329C78.9121 745.59 258.432 741.032 480 741.032C701.568 741.032 881.088 745.758 881.088 751.329Z" fill="#F5F5F5"/>
<path d="M826.368 178.084H132.288V747.109H826.368V178.084Z" fill="#0E5D37"/>
<path opacity="0.3" d="M826.368 178.084H132.288V747.109H826.368V178.084Z" fill="white"/>
<path d="M531.84 257.42H155.328V511.633H531.84V257.42Z" fill="#0E5D37"/>
<path d="M813.312 251.681H556.032V747.109H813.312V251.681Z" fill="#263238"/>
<path opacity="0.8" d="M531.84 257.42H155.328V511.633H531.84V257.42Z" fill="white"/>
<path d="M789.696 281.221H583.296V494.753H789.696V281.221Z" fill="#0E5D37"/>
<path opacity="0.8" d="M789.696 281.221H583.296V494.753H789.696V281.221Z" fill="white"/>
<path opacity="0.6" d="M731.52 281.221L583.296 393.473V433.647L788.736 281.221H731.52Z" fill="white"/>
<path opacity="0.6" d="M789.696 306.878L583.296 461.33V480.742L789.696 328.654V306.878Z" fill="white"/>
<path opacity="0.6" d="M398.976 257.42L156.672 397.018V451.54L476.352 257.42H398.976Z" fill="white"/>
<path opacity="0.6" d="M531.84 257.42L155.328 488.676V511.633H160.512L532.032 285.61L531.84 257.42Z" fill="white"/>
<path d="M607.104 531.382C607.104 537.628 601.344 542.692 594.24 542.692C587.136 542.692 581.376 537.628 581.376 531.382C581.376 525.137 587.136 520.073 594.24 520.073C601.344 519.904 607.104 524.968 607.104 531.382Z" fill="#0E5D37"/>
<path d="M543.168 509.438H144.384V530.37H543.168V509.438Z" fill="#263238"/>
<path opacity="0.3" d="M519.936 561.26H185.088V695.456H519.936V561.26Z" stroke="white" stroke-miterlimit="10"/>
<path opacity="0.3" d="M501.888 575.777H203.712V681.108H501.888V575.777Z" stroke="white" stroke-miterlimit="10"/>
<path d="M179.712 114.278L104.064 181.291H854.016L781.056 114.278H179.712Z" fill="#0E5D37"/>
<path d="M104.064 181.291C104.064 203.235 122.688 220.79 145.728 220.79C168.768 220.79 187.584 203.066 187.584 181.291H104.064Z" fill="#0E5D37"/>
<path d="M187.776 181.291C187.776 203.235 206.4 220.79 229.44 220.79C252.48 220.79 271.296 203.066 271.296 181.291H187.776Z" fill="#0E5D37"/>
<path d="M271.488 181.291C271.488 203.235 290.112 220.79 313.152 220.79C336.192 220.79 355.008 203.066 355.008 181.291H271.488Z" fill="#0E5D37"/>
<path d="M355.008 181.291C355.008 203.235 373.632 220.79 396.672 220.79C419.712 220.79 438.336 203.066 438.336 181.291H355.008Z" fill="#0E5D37"/>
<path d="M438.72 181.291C438.72 203.235 457.344 220.79 480.384 220.79C503.424 220.79 522.048 203.066 522.048 181.291H438.72Z" fill="#0E5D37"/>
<path d="M522.432 181.291C522.432 203.235 541.056 220.79 564.096 220.79C587.136 220.79 605.76 203.066 605.76 181.291H522.432Z" fill="#0E5D37"/>
<path d="M606.144 181.291C606.144 203.235 624.768 220.79 647.808 220.79C670.848 220.79 689.472 203.066 689.472 181.291H606.144Z" fill="#0E5D37"/>
<path d="M689.664 181.291C689.664 203.235 708.288 220.79 731.328 220.79C754.368 220.79 770.88 203.066 770.88 181.291H689.664Z" fill="#0E5D37"/>
<path d="M772.608 181.291C772.608 203.235 791.232 220.79 814.272 220.79C837.312 220.79 853.824 203.066 853.824 181.291H772.608Z" fill="#0E5D37"/>
<path opacity="0.5" d="M187.776 181.291L229.44 114.278H179.712L104.064 181.291H187.776Z" fill="white"/>
<path opacity="0.5" d="M271.488 181.291C271.296 181.291 302.592 114.446 302.592 114.446H362.112L355.2 181.291H271.488Z" fill="white"/>
<path opacity="0.5" d="M499.584 114.278H433.152L438.72 181.291H522.432L499.584 114.278Z" fill="white"/>
<path opacity="0.5" d="M606.144 181.291L604.8 177.915L575.616 114.278H639.168L689.664 181.291" fill="white"/>
<path opacity="0.6" d="M104.064 181.291C104.064 203.235 122.688 220.79 145.728 220.79C168.768 220.79 187.584 203.066 187.584 181.291H104.064Z" fill="white"/>
<path opacity="0.6" d="M271.488 181.291C271.488 203.235 290.112 220.79 313.152 220.79C336.192 220.79 355.008 203.066 355.008 181.291H271.488Z" fill="white"/>
<path opacity="0.6" d="M438.72 181.291C438.72 203.235 457.344 220.79 480.384 220.79C503.424 220.79 522.048 203.066 522.048 181.291H438.72Z" fill="white"/>
<path opacity="0.6" d="M606.144 181.291C606.144 203.235 624.768 220.79 647.808 220.79C670.848 220.79 689.472 203.066 689.472 181.291H606.144Z" fill="white"/>
<path opacity="0.5" d="M772.608 181.291L715.392 114.278H781.056L854.016 181.291H772.608Z" fill="white"/>
<path opacity="0.6" d="M772.608 181.291C772.608 203.235 791.232 220.79 814.272 220.79C837.312 220.79 853.824 203.066 853.824 181.291H772.608Z" fill="white"/>
<path d="M622.848 363.595L686.592 308.398L747.648 363.595" stroke="#263238" stroke-miterlimit="10"/>
<path d="M753.024 362.245H616.32V433.141H753.024V362.245Z" fill="#FCFCFC"/>
<path d="M745.152 369.672H624.384V425.882H745.152V369.672Z" fill="#263238"/>
<path d="M644.059 395.7C643.152 395.7 642.346 395.517 641.642 395.15C640.939 394.782 640.383 394.278 639.975 393.635C639.578 392.983 639.379 392.238 639.379 391.402C639.379 390.566 639.578 389.827 639.975 389.185C640.383 388.542 640.939 388.043 641.642 387.686C642.346 387.319 643.152 387.135 644.059 387.135C644.967 387.135 645.772 387.319 646.476 387.686C647.189 388.043 647.745 388.542 648.143 389.185C648.54 389.827 648.739 390.566 648.739 391.402C648.739 392.238 648.54 392.983 648.143 393.635C647.745 394.278 647.189 394.782 646.476 395.15C645.772 395.517 644.967 395.7 644.059 395.7ZM644.059 393.391C644.396 393.391 644.691 393.314 644.946 393.161C645.211 393.008 645.42 392.784 645.573 392.488C645.726 392.182 645.803 391.82 645.803 391.402C645.803 390.984 645.726 390.632 645.573 390.347C645.42 390.051 645.211 389.827 644.946 389.674C644.691 389.521 644.396 389.445 644.059 389.445C643.733 389.445 643.437 389.521 643.172 389.674C642.917 389.827 642.708 390.051 642.545 390.347C642.392 390.632 642.315 390.984 642.315 391.402C642.315 391.82 642.392 392.182 642.545 392.488C642.708 392.784 642.917 393.008 643.172 393.161C643.437 393.314 643.733 393.391 644.059 393.391ZM655.301 395.7C654.597 395.7 653.996 395.547 653.496 395.241C652.997 394.925 652.614 394.456 652.349 393.834C652.094 393.202 651.967 392.396 651.967 391.418C651.967 390.429 652.089 389.623 652.334 389.001C652.579 388.369 652.946 387.9 653.435 387.594C653.935 387.288 654.557 387.135 655.301 387.135C656.056 387.135 656.739 387.313 657.351 387.67C657.973 388.017 658.462 388.512 658.819 389.154C659.186 389.786 659.369 390.541 659.369 391.418C659.369 392.294 659.186 393.054 658.819 393.697C658.462 394.339 657.973 394.833 657.351 395.18C656.739 395.527 656.056 395.7 655.301 395.7ZM650.085 398.53V387.273H652.854V388.68L652.839 391.418L652.991 394.171V398.53H650.085ZM654.689 393.391C655.016 393.391 655.306 393.314 655.561 393.161C655.826 393.008 656.035 392.784 656.188 392.488C656.351 392.193 656.433 391.836 656.433 391.418C656.433 391 656.351 390.643 656.188 390.347C656.035 390.051 655.826 389.827 655.561 389.674C655.306 389.521 655.016 389.445 654.689 389.445C654.363 389.445 654.067 389.521 653.802 389.674C653.547 389.827 653.338 390.051 653.175 390.347C653.022 390.643 652.946 391 652.946 391.418C652.946 391.836 653.022 392.193 653.175 392.488C653.338 392.784 653.547 393.008 653.802 393.161C654.067 393.314 654.363 393.391 654.689 393.391ZM665.064 395.7C664.085 395.7 663.229 395.517 662.494 395.15C661.77 394.772 661.205 394.262 660.797 393.62C660.399 392.967 660.2 392.228 660.2 391.402C660.2 390.576 660.394 389.842 660.781 389.2C661.179 388.547 661.725 388.043 662.418 387.686C663.111 387.319 663.891 387.135 664.758 387.135C665.574 387.135 666.318 387.303 666.991 387.64C667.664 387.966 668.199 388.45 668.597 389.093C668.995 389.735 669.194 390.515 669.194 391.433C669.194 391.535 669.188 391.652 669.178 391.785C669.168 391.917 669.158 392.04 669.148 392.152H662.586V390.622H667.603L666.502 391.051C666.512 390.673 666.44 390.347 666.288 390.072C666.145 389.796 665.941 389.582 665.676 389.429C665.421 389.276 665.12 389.2 664.773 389.2C664.427 389.2 664.121 389.276 663.856 389.429C663.601 389.582 663.402 389.801 663.259 390.087C663.116 390.362 663.045 390.689 663.045 391.066V391.509C663.045 391.917 663.127 392.269 663.29 392.565C663.463 392.86 663.708 393.09 664.024 393.253C664.34 393.406 664.717 393.482 665.156 393.482C665.564 393.482 665.91 393.426 666.196 393.314C666.491 393.192 666.782 393.008 667.068 392.764L668.597 394.354C668.199 394.793 667.71 395.129 667.129 395.364C666.548 395.588 665.859 395.7 665.064 395.7ZM675.933 387.135C676.575 387.135 677.156 387.268 677.676 387.533C678.196 387.788 678.604 388.185 678.9 388.726C679.206 389.266 679.359 389.965 679.359 390.821V395.562H676.453V391.295C676.453 390.704 676.33 390.276 676.085 390.01C675.851 389.735 675.52 389.597 675.091 389.597C674.785 389.597 674.505 389.669 674.25 389.812C673.995 389.944 673.796 390.153 673.654 390.439C673.511 390.724 673.439 391.096 673.439 391.555V395.562H670.533V387.273H673.302V389.628L672.766 388.94C673.083 388.338 673.516 387.89 674.067 387.594C674.617 387.288 675.239 387.135 675.933 387.135Z" fill="white"/>
<path d="M313 776.986L287.109 617H207.841L215.808 776.986H225.633L224.837 757.636H299.457L303.174 776.986H313Z" fill="white"/>
<path opacity="0.5" d="M313 776.986L287.109 617H207.841L215.808 776.986H225.633L224.837 757.636H299.457L303.174 776.986H313Z" fill="black"/>
<path d="M257.367 776.986L287.109 617H189.917L162.432 776.986H173.585L176.639 757.13L250.33 758.016L247.143 776.986H257.367Z" fill="white"/>
<path d="M253.384 743.092L273.831 627.876H197.884L177.569 743.092H253.384Z" fill="#263238"/>
<path opacity="0.3" d="M180.755 743.092L200.672 630.912H273.3L273.831 627.876H197.884L177.569 743.092H180.755Z" fill="black"/>
<path d="M210.864 668.257L208.944 657.796H211.178L212.784 667.023H211.648L216.879 657.796H218.975L220.64 667.023H219.504L224.676 657.796H226.988L221.149 668.257H218.74L217.153 660.088H217.878L213.235 668.257H210.864ZM231.478 668.395C230.434 668.395 229.526 668.205 228.755 667.826C227.985 667.435 227.384 666.899 226.953 666.22C226.535 665.528 226.326 664.718 226.326 663.791C226.326 662.602 226.587 661.551 227.11 660.636C227.632 659.722 228.344 659.004 229.245 658.481C230.159 657.946 231.198 657.678 232.36 657.678C233.34 657.678 234.189 657.861 234.907 658.227C235.625 658.592 236.18 659.121 236.572 659.814C236.977 660.493 237.18 661.309 237.18 662.263C237.18 662.511 237.166 662.765 237.14 663.027C237.114 663.288 237.075 663.529 237.023 663.751H228.148L228.422 662.125H235.867L234.868 662.674C234.972 662.008 234.927 661.453 234.731 661.009C234.535 660.565 234.221 660.225 233.79 659.99C233.359 659.755 232.843 659.637 232.243 659.637C231.524 659.637 230.897 659.807 230.362 660.147C229.839 660.473 229.434 660.943 229.147 661.557C228.86 662.158 228.716 662.863 228.716 663.673C228.716 664.522 228.958 665.175 229.441 665.632C229.937 666.089 230.701 666.318 231.733 666.318C232.321 666.318 232.883 666.226 233.418 666.044C233.953 665.848 234.398 665.58 234.75 665.24L235.769 666.945C235.22 667.428 234.567 667.794 233.81 668.042C233.065 668.277 232.288 668.395 231.478 668.395Z" fill="white"/>
<path d="M214.663 686.906C214.19 686.906 213.757 686.804 213.364 686.601C212.979 686.397 212.67 686.106 212.437 685.728C212.211 685.342 212.099 684.88 212.099 684.342C212.099 683.847 212.179 683.393 212.339 682.978C212.506 682.563 212.739 682.203 213.037 681.898C213.335 681.592 213.681 681.356 214.074 681.188C214.474 681.021 214.91 680.937 215.383 680.937C215.87 680.937 216.289 681.025 216.638 681.199C216.994 681.374 217.263 681.639 217.445 681.996C217.627 682.345 217.711 682.782 217.696 683.305C217.682 684.026 217.551 684.658 217.303 685.204C217.056 685.742 216.711 686.161 216.267 686.459C215.823 686.757 215.288 686.906 214.663 686.906ZM215.012 685.739C215.405 685.739 215.75 685.648 216.049 685.466C216.347 685.277 216.583 685.018 216.758 684.691C216.932 684.364 217.02 683.985 217.02 683.556C217.02 683.105 216.885 682.749 216.616 682.487C216.347 682.225 215.969 682.094 215.481 682.094C215.096 682.094 214.75 682.189 214.445 682.378C214.146 682.56 213.91 682.814 213.735 683.142C213.561 683.469 213.473 683.847 213.473 684.276C213.473 684.727 213.608 685.084 213.877 685.346C214.146 685.608 214.525 685.739 215.012 685.739ZM216.441 686.83L216.703 685.499L217.074 683.949L217.26 682.389L217.533 681.003H218.897L217.74 686.83H216.441ZM219.525 686.83L220.681 681.003H221.98L221.652 682.662L221.532 682.181C221.801 681.709 222.143 681.385 222.558 681.21C222.973 681.028 223.478 680.937 224.075 680.937L223.824 682.236C223.766 682.221 223.711 682.214 223.66 682.214C223.609 682.207 223.551 682.203 223.486 682.203C222.954 682.203 222.514 682.345 222.165 682.629C221.816 682.905 221.583 683.349 221.467 683.96L220.889 686.83H219.525ZM226.924 686.906C226.342 686.906 225.837 686.801 225.408 686.59C224.978 686.372 224.644 686.073 224.404 685.695C224.171 685.309 224.055 684.858 224.055 684.342C224.055 683.68 224.2 683.094 224.491 682.585C224.782 682.076 225.179 681.676 225.68 681.385C226.19 681.087 226.768 680.937 227.415 680.937C227.961 680.937 228.434 681.039 228.834 681.243C229.234 681.447 229.543 681.741 229.762 682.127C229.987 682.505 230.1 682.96 230.1 683.491C230.1 683.629 230.092 683.771 230.078 683.916C230.063 684.062 230.042 684.196 230.012 684.32H225.069L225.222 683.414H229.369L228.812 683.72C228.87 683.349 228.845 683.04 228.736 682.792C228.627 682.545 228.452 682.356 228.212 682.225C227.972 682.094 227.685 682.029 227.35 682.029C226.95 682.029 226.601 682.123 226.302 682.312C226.011 682.494 225.786 682.756 225.626 683.098C225.466 683.433 225.386 683.825 225.386 684.276C225.386 684.749 225.52 685.113 225.79 685.368C226.066 685.622 226.492 685.75 227.066 685.75C227.394 685.75 227.706 685.699 228.005 685.597C228.303 685.488 228.55 685.339 228.747 685.149L229.314 686.099C229.009 686.368 228.645 686.572 228.223 686.71C227.808 686.841 227.375 686.906 226.924 686.906Z" fill="white"/>
<path d="M197.178 707.748C196.38 707.748 195.678 707.6 195.074 707.303C194.48 706.996 194.019 706.576 193.692 706.043C193.364 705.5 193.2 704.866 193.2 704.138C193.2 703.217 193.41 702.398 193.83 701.681C194.25 700.954 194.823 700.385 195.55 699.976C196.288 699.556 197.127 699.346 198.069 699.346C198.878 699.346 199.58 699.494 200.174 699.791C200.778 700.078 201.244 700.493 201.572 701.036C201.899 701.568 202.063 702.203 202.063 702.94C202.063 703.852 201.853 704.671 201.433 705.398C201.013 706.125 200.435 706.699 199.698 707.118C198.971 707.538 198.131 707.748 197.178 707.748ZM197.301 706.105C197.854 706.105 198.341 705.977 198.761 705.721C199.18 705.454 199.513 705.091 199.759 704.63C200.005 704.169 200.128 703.637 200.128 703.033C200.128 702.398 199.938 701.896 199.559 701.527C199.18 701.159 198.648 700.974 197.962 700.974C197.419 700.974 196.933 701.107 196.503 701.374C196.083 701.63 195.75 701.988 195.504 702.449C195.258 702.91 195.135 703.442 195.135 704.046C195.135 704.691 195.325 705.198 195.704 705.567C196.083 705.925 196.615 706.105 197.301 706.105ZM207.985 707.748C207.299 707.748 206.705 707.625 206.203 707.38C205.702 707.124 205.323 706.75 205.067 706.258C204.811 705.756 204.693 705.137 204.713 704.4C204.734 703.376 204.918 702.485 205.266 701.727C205.615 700.969 206.101 700.385 206.726 699.976C207.361 699.556 208.113 699.346 208.984 699.346C209.66 699.346 210.269 699.489 210.812 699.776C211.354 700.053 211.784 700.462 212.102 701.005C212.43 701.537 212.593 702.183 212.593 702.94C212.593 703.637 212.476 704.277 212.24 704.86C212.015 705.444 211.692 705.951 211.272 706.381C210.853 706.811 210.361 707.149 209.798 707.395C209.245 707.631 208.641 707.748 207.985 707.748ZM202.425 710.621L204.652 699.438H206.48L206.111 701.312L205.604 703.493L205.328 705.69L204.345 710.621H202.425ZM207.832 706.105C208.385 706.105 208.871 705.977 209.291 705.721C209.711 705.454 210.044 705.091 210.289 704.63C210.535 704.169 210.658 703.637 210.658 703.033C210.658 702.398 210.469 701.896 210.09 701.527C209.711 701.159 209.178 700.974 208.492 700.974C207.949 700.974 207.463 701.107 207.033 701.374C206.613 701.63 206.28 701.988 206.034 702.449C205.789 702.91 205.666 703.442 205.666 704.046C205.666 704.681 205.855 705.183 206.234 705.552C206.613 705.92 207.145 706.105 207.832 706.105ZM217.671 707.748C216.852 707.748 216.14 707.6 215.536 707.303C214.932 706.996 214.46 706.576 214.123 706.043C213.795 705.5 213.631 704.866 213.631 704.138C213.631 703.207 213.836 702.382 214.245 701.665C214.655 700.949 215.213 700.385 215.92 699.976C216.637 699.556 217.451 699.346 218.362 699.346C219.13 699.346 219.796 699.489 220.359 699.776C220.922 700.063 221.357 700.478 221.665 701.02C221.982 701.553 222.141 702.193 222.141 702.94C222.141 703.135 222.131 703.335 222.11 703.539C222.09 703.744 222.059 703.934 222.018 704.108H215.06L215.275 702.833H221.112L220.328 703.263C220.41 702.741 220.374 702.305 220.221 701.957C220.067 701.609 219.821 701.343 219.483 701.159C219.145 700.974 218.741 700.882 218.27 700.882C217.707 700.882 217.215 701.015 216.795 701.281C216.386 701.537 216.068 701.906 215.843 702.387C215.618 702.858 215.505 703.411 215.505 704.046C215.505 704.712 215.694 705.224 216.073 705.582C216.462 705.941 217.062 706.12 217.871 706.12C218.331 706.12 218.772 706.048 219.192 705.905C219.611 705.751 219.96 705.541 220.236 705.275L221.035 706.612C220.605 706.99 220.093 707.277 219.499 707.472C218.915 707.656 218.306 707.748 217.671 707.748ZM229.163 699.346C229.869 699.346 230.469 699.489 230.96 699.776C231.452 700.063 231.795 700.488 231.989 701.051C232.194 701.604 232.215 702.285 232.051 703.094L231.144 707.641H229.224L230.115 703.14C230.248 702.474 230.187 701.957 229.931 701.589C229.675 701.21 229.209 701.02 228.533 701.02C227.826 701.02 227.243 701.215 226.782 701.604C226.321 701.993 226.009 702.587 225.845 703.386L224.985 707.641H223.065L224.693 699.438H226.521L226.06 701.773L225.753 701.036C226.142 700.452 226.628 700.027 227.212 699.761C227.806 699.484 228.456 699.346 229.163 699.346Z" fill="white"/>
<g opacity="0.3">
<path d="M223.244 648.238C221.252 644.318 219.393 640.397 217.402 636.477C216.87 635.338 215.144 636.35 215.675 637.488C217.667 641.409 219.526 645.33 221.518 649.25C222.049 650.262 223.775 649.25 223.244 648.238Z" fill="white"/>
</g>
<g opacity="0.3">
<path d="M232.139 649.503C232.803 645.077 233.6 640.777 234.264 636.35C234.396 635.844 234.131 635.338 233.6 635.212C233.069 635.085 232.405 635.338 232.405 635.844C231.741 640.271 230.944 644.571 230.28 648.997C230.148 649.503 230.413 650.009 230.944 650.136C231.343 650.388 232.007 650.009 232.139 649.503Z" fill="white"/>
</g>
<g opacity="0.3">
<path d="M237.716 651.147C241.434 646.468 245.55 642.168 250.197 638.121C251.126 637.235 249.798 635.971 248.736 636.73C244.089 640.777 239.84 645.33 235.99 650.136C235.724 650.515 235.99 651.147 236.388 651.4C236.786 651.78 237.317 651.527 237.716 651.147Z" fill="white"/>
</g>
<g opacity="0.3">
<path d="M211.028 721.086C207.178 724.754 203.726 728.548 200.406 732.595C200.141 732.974 200.008 733.48 200.406 733.986C200.805 734.365 201.468 734.365 201.867 733.986C205.186 729.939 208.771 726.018 212.489 722.477C213.418 721.592 211.958 720.201 211.028 721.086Z" fill="white"/>
</g>
<g opacity="0.3">
<path d="M218.198 721.339C217.269 726.524 216.87 731.836 217.401 737.148C217.534 738.413 219.526 738.413 219.393 737.148C218.995 732.089 219.26 726.904 220.19 721.845C220.323 720.58 218.331 720.074 218.198 721.339Z" fill="white"/>
</g>
<g opacity="0.3">
<path d="M226.563 722.477C228.687 726.398 231.343 730.066 234.131 733.607C234.397 733.986 234.928 734.239 235.459 733.986C235.857 733.733 236.123 733.101 235.857 732.721C233.069 729.18 230.413 725.639 228.289 721.592C227.625 720.454 225.899 721.465 226.563 722.477Z" fill="white"/>
</g>
<path d="M885.12 489.689C854.592 521.254 845.568 567.843 862.656 606.33C881.664 591.306 895.104 568.518 896.064 548.6C897.024 528.513 891.072 508.932 885.12 489.689Z" fill="#0E5D37"/>
<path d="M879.744 609.874C869.376 623.885 864.384 640.934 865.92 657.645C882.432 652.581 897.024 636.207 905.856 622.872C914.688 609.537 919.488 594.514 923.904 579.659C905.856 585.061 890.112 596.033 879.744 609.874Z" fill="#0E5D37"/>
<path d="M875.904 544.549C863.616 583.373 857.28 623.547 857.28 663.89C857.28 675.369 857.856 687.016 858.816 698.494C858.816 699.338 860.352 699.338 860.352 698.494C856.704 658.151 859.392 617.47 868.416 577.802C870.912 566.83 873.792 555.858 877.248 544.886C877.632 544.211 876.096 543.874 875.904 544.549Z" fill="#263238"/>
<path d="M859.392 670.811C871.872 644.478 888.384 619.834 907.584 596.877C908.16 596.202 906.816 595.526 906.432 596.202C887.232 619.327 870.72 643.972 858.048 670.474C857.664 671.318 859.2 671.655 859.392 670.811Z" fill="#263238"/>
<path d="M841.536 631.818C850.176 643.466 854.4 657.645 853.056 671.655C839.232 667.435 827.136 653.762 819.84 642.622C812.544 631.481 808.512 618.99 804.672 606.498C819.84 611.056 832.896 620.171 841.536 631.818Z" fill="#0E5D37"/>
<path d="M859.008 680.77C848.64 659.164 835.008 639.246 819.456 620.34C818.88 619.665 817.728 620.34 818.304 621.015C833.856 639.752 847.488 659.67 857.664 681.108C858.048 681.783 859.392 681.446 859.008 680.77Z" fill="#263238"/>
<path d="M859.584 688.029C878.976 670.474 898.944 653.087 918.336 635.532C918.912 635.026 917.952 634.013 917.376 634.688C897.984 652.243 878.016 669.63 858.624 687.185C857.856 687.691 858.816 688.535 859.584 688.029Z" fill="#263238"/>
<path d="M919.104 627.261C902.208 641.609 886.848 657.307 873.216 674.018H876.288C889.152 673.512 901.632 667.942 909.696 659.164C917.76 650.386 921.216 638.402 919.104 627.261Z" fill="#0E5D37"/>
<path d="M839.04 593.163C846.336 603.629 853.056 614.263 859.584 625.066C859.968 625.742 861.312 625.066 860.736 624.391C854.4 613.588 847.488 602.954 840.192 592.488C839.808 591.813 838.464 592.488 839.04 593.163Z" fill="#263238"/>
<path d="M821.568 540.498C818.88 551.47 816 565.649 816 577.127C816 588.437 819.84 599.578 827.328 607.342C834.624 614.938 849.6 618.314 855.552 613.926L821.568 540.498Z" fill="#0E5D37"/>
<path d="M894.912 692.924H821.184V704.909H894.912V692.924Z" fill="#DDDDDD"/>
<path d="M883.008 747.784H837.12L828.864 702.208H889.536L883.008 747.784Z" fill="#DDDDDD"/>
<path opacity="0.2" d="M829.44 705.246H889.152L888.384 710.479H830.4L829.44 705.246Z" fill="black"/>
<path d="M84.0963 487.832C114.624 519.398 123.648 565.986 106.56 604.473C87.5523 589.45 74.1122 566.662 73.1522 546.743C72.1922 526.656 78.1443 507.075 84.0963 487.832Z" fill="#0E5D37"/>
<path d="M89.472 608.018C99.84 622.028 104.832 639.077 103.296 655.788C86.784 650.724 72.192 634.35 63.36 621.015C54.528 607.68 49.728 592.657 45.312 577.802C63.36 583.204 79.104 594.176 89.472 608.018Z" fill="#0E5D37"/>
<path d="M91.9679 543.03C104.256 582.023 110.592 622.366 110.4 662.878C110.4 674.187 109.824 685.328 108.864 696.638C108.864 697.482 110.208 697.482 110.4 696.638C114.048 656.463 111.36 615.951 102.528 576.452C100.032 565.142 96.9599 553.833 93.5039 542.861C93.1199 542.017 91.7759 542.355 91.9679 543.03Z" fill="#263238"/>
<path d="M111.168 668.617C98.4961 642.284 81.9841 617.47 62.7841 594.345C62.2081 593.67 61.0561 594.345 61.6321 595.02C80.6401 617.977 97.1521 642.622 109.824 668.954C110.208 669.798 111.552 669.461 111.168 668.617Z" fill="#263238"/>
<path d="M127.68 629.962C119.04 641.609 114.816 655.788 116.16 669.798C129.984 665.578 142.08 651.906 149.376 640.765C156.672 629.624 160.704 617.133 164.544 604.642C149.568 609.199 136.32 618.315 127.68 629.962Z" fill="#0E5D37"/>
<path d="M111.552 679.251C121.728 657.814 135.36 637.895 150.912 619.158C151.488 618.483 150.144 617.808 149.76 618.483C134.016 637.389 120.576 657.307 110.208 678.914C109.824 679.589 111.168 679.926 111.552 679.251Z" fill="#263238"/>
<path d="M110.784 685.159C91.3922 667.604 71.4242 650.218 52.0321 632.662C51.4561 632.156 50.3041 633 51.0721 633.506C70.2722 651.23 90.2401 668.448 109.632 686.172C110.4 686.679 111.36 685.835 110.784 685.159Z" fill="#263238"/>
<path d="M50.1119 625.404C67.0079 639.752 82.3679 655.45 95.9999 672.162H92.9279C80.0639 671.655 67.5839 666.085 59.5199 657.307C51.4559 648.53 47.9999 636.545 50.1119 625.404Z" fill="#0E5D37"/>
<path d="M129.024 590.631C121.728 601.097 115.008 611.731 108.48 622.534C108.096 623.21 109.248 623.885 109.632 623.21C115.968 612.406 122.88 601.772 130.176 591.306C130.752 590.631 129.408 589.956 129.024 590.631Z" fill="#263238"/>
<path d="M147.648 538.641C150.336 549.613 153.216 563.792 153.216 575.27C153.216 586.58 149.376 597.721 141.888 605.486C134.592 613.082 119.616 616.458 113.664 612.069L147.648 538.641Z" fill="#0E5D37"/>
<path d="M74.2603 703.23H147.988V691.245H74.2603V703.23Z" fill="#DDDDDD"/>
<path d="M86.2082 745.927H132.096L140.352 700.351H79.6802L86.2082 745.927Z" fill="#DDDDDD"/>
<path opacity="0.2" d="M139.776 703.39H80.064L80.832 708.622H138.816L139.776 703.39Z" fill="black"/>
<path d="M433.536 376.255L397.632 401.744L392.448 360.726H379.584C379.584 360.726 378.24 401.913 378.048 406.977C377.856 411.872 378.816 416.767 380.544 420.818C383.424 427.402 392.64 429.934 399.552 426.22L442.56 402.25L451.584 369.503L444.48 371.022C440.64 372.204 436.8 373.892 433.536 376.255Z" fill="#B97964"/>
<path d="M392.64 362.076C392.64 362.076 396.864 358.869 397.056 354.986C397.44 350.935 398.784 347.897 398.784 344.858C398.784 341.82 395.904 344.858 394.56 346.884C393.408 348.741 391.872 350.935 390.528 349.922C388.992 348.91 383.04 335.743 380.928 334.562C378.624 333.38 379.008 335.743 379.008 335.743C379.008 335.743 377.472 332.536 375.936 332.705C375.552 332.705 374.592 333.549 375.168 335.068C376.128 338.613 378.816 345.702 378.816 345.702C378.624 345.365 374.784 336.587 374.016 335.406C373.056 333.718 371.52 333.549 370.56 334.055C369.024 334.899 373.44 345.702 373.248 346.378C373.248 346.378 370.944 339.963 368.832 339.626C366.72 339.288 367.872 343.339 369.6 346.715C371.328 349.754 373.632 356.337 375.744 359.375C378.24 363.089 380.928 365.114 385.536 364.608C389.76 364.102 392.64 362.076 392.64 362.076Z" fill="#B97964"/>
<path opacity="0.2" d="M397.632 401.744C397.632 401.744 398.4 404.614 397.632 408.496C397.632 408.496 403.2 404.276 401.856 398.874L397.632 401.744Z" fill="black"/>
<path opacity="0.2" d="M378.816 335.574C380.544 338.275 381.888 340.976 383.232 343.677" stroke="black" stroke-width="0.5" stroke-miterlimit="10" stroke-linecap="round" stroke-linejoin="round"/>
<path opacity="0.2" d="M375.552 349.922C378.24 348.066 381.12 346.715 384.384 345.702" stroke="black" stroke-width="0.5" stroke-miterlimit="10" stroke-linecap="round" stroke-linejoin="round"/>
<path d="M531.072 763.989L514.368 765.339L505.344 728.203L531.072 726.009V763.989Z" fill="#B97964"/>
<path d="M512.064 758.925H518.016C519.36 758.925 520.512 759.6 521.472 760.444C524.928 764.495 527.424 762.976 531.072 759.094C533.376 758.925 534.144 761.288 534.336 761.794L538.752 775.974C539.136 777.155 538.368 778.337 537.024 778.674C536.832 778.674 536.448 778.843 536.256 778.843C529.152 778.843 525.696 778.843 516.672 778.843H489.216C481.728 778.843 480.192 772.26 483.264 771.585C497.088 768.884 506.88 765.339 511.104 761.794C512.064 761.288 511.104 760.782 512.064 758.925Z" fill="#263238"/>
<path d="M503.232 763.82C505.152 763.82 506.88 763.651 508.8 763.145C508.992 763.145 508.992 762.976 508.992 762.807L508.8 762.638C508.032 762.301 500.544 759.262 498.624 760.444C498.24 760.613 498.048 760.95 498.048 761.288C498.048 761.963 498.432 762.638 499.008 762.976C500.352 763.651 501.888 763.82 503.232 763.82ZM507.648 762.807C505.536 763.145 501.312 763.651 499.776 762.47C499.392 762.132 499.008 761.794 499.008 761.288C499.008 761.119 499.008 760.95 499.2 760.95C500.16 760.275 504.576 761.457 507.648 762.807Z" fill="#0E5D37"/>
<path d="M508.608 763.145H508.8C508.992 763.145 508.992 762.976 508.992 762.807C508.992 762.47 507.264 756.055 503.232 756.562C502.272 756.73 501.888 757.068 501.888 757.406C501.696 759.094 506.304 762.301 508.608 763.145ZM503.616 757.068C506.112 757.068 507.648 760.782 508.224 762.301C505.728 761.119 502.464 758.587 502.656 757.406C502.656 757.237 502.656 757.068 503.424 757.068H503.616Z" fill="#0E5D37"/>
<path d="M507.84 762.976C509.952 763.145 511.68 764.326 512.832 765.846" stroke="#0E5D37" stroke-width="0.5" stroke-miterlimit="10" stroke-linecap="round" stroke-linejoin="round"/>
<path d="M504.192 765.339C506.304 765.508 508.032 766.69 509.184 768.209" stroke="#0E5D37" stroke-width="0.5" stroke-miterlimit="10" stroke-linecap="round" stroke-linejoin="round"/>
<path d="M499.584 767.365C501.696 767.534 503.424 768.715 504.576 770.234" stroke="#0E5D37" stroke-width="0.5" stroke-miterlimit="10" stroke-linecap="round" stroke-linejoin="round"/>
<path d="M450.624 762.807L434.112 764.158L426.432 726.853L449.856 724.658L450.624 762.807Z" fill="#B97964"/>
<path d="M431.616 757.743H437.568C438.912 757.743 440.064 758.418 441.024 759.262C444.48 763.314 446.976 761.794 450.624 757.912C452.928 757.743 453.696 760.107 453.888 760.613L458.304 774.792C458.688 775.974 457.92 777.155 456.576 777.493C456.384 777.493 456 777.662 455.808 777.662C448.704 777.662 445.248 777.662 436.224 777.662H408.96C401.472 777.662 399.936 771.078 403.008 770.403C416.832 767.702 426.624 764.158 430.848 760.613C431.616 760.107 430.848 759.769 431.616 757.743Z" fill="#263238"/>
<path d="M422.784 762.638C424.704 762.638 426.432 762.47 428.352 761.963C428.544 761.963 428.544 761.794 428.544 761.626L428.352 761.457C427.584 761.119 420.096 758.081 418.176 759.262C417.792 759.431 417.6 759.769 417.6 760.106C417.6 760.782 417.984 761.457 418.56 761.794C420.096 762.47 421.44 762.807 422.784 762.638ZM427.2 761.626C425.088 761.963 420.864 762.47 419.328 761.288C418.944 760.95 418.56 760.613 418.56 760.106C418.56 759.938 418.56 759.769 418.752 759.769C419.712 759.094 424.128 760.444 427.2 761.626Z" fill="#0E5D37"/>
<path d="M428.351 761.963H428.543C428.735 761.963 428.735 761.794 428.735 761.626C428.735 761.288 427.007 754.874 422.975 755.38C422.015 755.549 421.631 755.886 421.631 756.224C421.247 758.081 425.855 761.288 428.351 761.963ZM423.167 755.886C425.663 755.886 427.199 759.6 427.775 761.119C425.279 759.938 422.015 757.406 422.207 756.224C422.207 756.055 422.207 755.886 422.975 755.886H423.167Z" fill="#0E5D37"/>
<path d="M427.583 761.794C429.695 761.963 431.424 763.145 432.576 764.664" stroke="#0E5D37" stroke-width="0.5" stroke-miterlimit="10" stroke-linecap="round" stroke-linejoin="round"/>
<path d="M423.936 764.326C426.048 764.495 427.776 765.677 428.928 767.196" stroke="#0E5D37" stroke-width="0.5" stroke-miterlimit="10" stroke-linecap="round" stroke-linejoin="round"/>
<path d="M419.328 766.352C421.44 766.521 423.168 767.702 424.32 769.222" stroke="#0E5D37" stroke-width="0.5" stroke-miterlimit="10" stroke-linecap="round" stroke-linejoin="round"/>
<path d="M423.936 486.482C422.784 489.52 409.344 589.281 409.536 610.887C409.728 628.274 425.088 745.758 425.088 745.758L453.888 744.914C453.888 744.914 452.352 686.847 453.312 666.76C454.08 646.673 448.704 608.862 448.704 608.862L483.264 518.047L481.92 487.663L423.936 486.482Z" fill="#263238"/>
<path d="M527.232 620.509C526.464 617.639 525.312 611.731 523.776 603.966C523.776 603.966 523.776 603.966 523.968 603.966C522.816 593.67 526.656 540.329 523.008 509.945C520.128 490.533 514.944 480.236 509.184 473.822C508.8 473.484 508.608 473.146 508.416 472.978C507.456 471.965 506.88 471.29 506.88 471.29C505.728 471.458 504.768 471.796 503.616 471.965C503.232 471.965 502.848 472.134 502.464 472.134C462.336 479.561 428.352 468.926 428.352 468.926C424.704 476.86 422.592 496.778 419.904 514.502C424.128 518.554 440.448 522.267 461.568 525.812L467.52 549.782C470.784 564.636 474.816 579.153 478.272 592.319L481.92 606.667C482.112 607.68 482.304 608.524 482.496 609.537C484.416 617.808 504.96 748.628 504.96 748.628L534.336 748.966C534.144 748.797 537.408 659.839 527.232 620.509Z" fill="#263238"/>
<path opacity="0.2" d="M424.704 477.198C424.704 477.198 438.528 490.533 462.528 490.87C486.336 491.039 513.216 478.886 513.216 478.886L510.144 474.328L441.408 480.911L427.2 474.328L424.704 477.198Z" fill="black"/>
<path opacity="0.2" d="M468.863 555.521C469.055 556.027 455.231 509.27 455.231 509.27C455.231 509.27 444.671 551.638 461.375 574.933L468.863 555.521Z" fill="black"/>
<path d="M445.632 368.997C430.848 375.749 411.84 389.928 411.84 389.928L428.736 416.261C428.736 416.261 463.488 395.33 459.84 387.734C456 379.631 455.808 367.478 445.632 368.997Z" fill="#263238"/>
<g opacity="0.3">
<path d="M437.568 385.539C435.648 388.409 435.072 389.928 433.92 393.135C432.768 396.342 432.192 402.25 431.808 405.289L438.144 406.808C437.76 399.55 437.76 392.966 437.568 385.539Z" fill="black"/>
</g>
<path d="M519.936 407.652L529.344 377.437C522.816 368.828 491.328 361.232 491.328 361.232L470.016 362.245C470.016 362.245 461.76 363.933 454.848 365.958C445.44 368.659 440.448 370.854 438.144 375.411C438.144 375.411 434.304 385.539 436.608 406.47C437.184 412.21 436.608 442.087 434.688 452.046L425.088 477.198C464.064 503.868 512.832 475.341 512.832 475.341C511.104 470.614 509.952 465.382 509.184 460.824C509.76 454.916 508.992 445.801 511.872 435.504C511.872 433.478 518.976 409.509 519.936 407.652Z" fill="#263238"/>
<path opacity="0.3" d="M516.48 416.092C516.48 416.092 501.504 399.55 504 392.629L519.36 405.289L516.48 416.092Z" fill="black"/>
<path d="M513.792 376.93C514.752 377.437 522.24 374.23 530.496 383.176C537.984 391.278 573.312 423.182 572.16 434.491C571.2 444.45 523.008 476.354 523.008 476.354L515.136 466.732L546.624 432.634L516.864 409.002L513.792 376.93Z" fill="#B97964"/>
<path d="M523.2 373.554C531.648 375.242 546.432 394.317 546.432 394.317L520.32 413.222C520.32 413.222 504 396.174 505.344 386.552C506.496 378.45 512.448 371.529 523.2 373.554Z" fill="#263238"/>
<path d="M434.88 396.849C434.88 395.498 436.032 394.486 437.568 394.486C449.472 394.823 496.32 394.486 498.24 397.355C500.544 400.562 497.088 440.906 500.928 444.788C504.768 448.67 509.568 448.164 509.568 448.164L509.376 457.11C509.376 457.11 505.152 455.591 504 458.798C502.656 462.006 514.368 603.291 505.728 605.823C497.088 608.355 413.568 613.926 408 605.823C402.432 597.721 416.64 497.791 421.44 476.86C426.24 455.929 430.656 441.918 433.152 431.453C435.648 421.156 435.264 403.263 434.88 396.849Z" fill="#FAF7F1"/>
<path d="M440.256 406.977C440.256 406.977 445.44 371.698 448.32 367.984C451.2 364.27 460.416 363.595 460.416 363.595C460.416 363.595 456.384 366.465 454.656 372.204C452.928 377.774 448.512 408.665 448.512 408.665L440.256 406.977Z" fill="white"/>
<path d="M481.344 404.445C481.344 404.445 489.408 366.296 500.544 363.595L508.992 365.958C508.992 365.958 491.52 380.306 491.328 405.795L481.344 404.445Z" fill="white"/>
<path opacity="0.3" d="M428.928 493.234C428.928 493.234 468.672 496.103 485.184 493.234C485.184 493.234 486.72 523.111 479.616 528.513C471.36 534.758 430.656 537.797 428.928 521.086C427.776 509.776 428.928 493.234 428.928 493.234Z" fill="black"/>
<path opacity="0.3" d="M447.36 397.524C447.36 398.199 446.784 398.874 445.824 398.874C445.056 398.874 444.288 398.368 444.288 397.524C444.288 396.849 444.864 396.174 445.824 396.174C446.592 396.174 447.36 396.849 447.36 397.524Z" fill="black"/>
<path opacity="0.3" d="M489.408 397.524C489.408 398.199 488.832 398.874 487.872 398.874C486.912 398.874 486.336 398.368 486.336 397.524C486.336 396.849 486.912 396.174 487.872 396.174C488.832 396.174 489.408 396.849 489.408 397.524Z" fill="black"/>
<path d="M541.248 356.506C539.904 354.818 537.6 353.805 535.488 352.623C527.616 348.234 523.008 340.976 520.704 333.549C518.4 326.122 518.016 318.526 516.288 310.93C515.52 307.554 514.56 304.009 512.064 301.308C509.568 298.438 501.696 294.05 496.128 300.464V311.436C494.016 316.669 494.208 322.239 494.976 327.641C495.744 333.042 491.52 324.771 491.136 330.173C490.944 333.38 491.136 348.234 491.136 351.442C491.136 354.649 496.128 360.388 498.624 363.089C501.504 366.465 506.688 368.322 511.872 369.166C518.592 370.178 525.504 369.841 531.84 368.153C534.912 367.309 537.984 366.127 540.096 364.102C542.016 361.738 542.784 358.869 541.248 356.506Z" fill="#263238"/>
<path d="M496.32 299.62C499.584 300.126 502.272 302.49 503.616 305.19C504.576 307.047 504.96 308.904 504.576 310.93C504.192 312.786 502.848 314.643 500.928 315.487C499.008 316.331 496.32 315.994 494.784 314.643C493.44 313.293 493.248 311.436 493.632 309.579C494.016 307.891 494.976 306.203 495.552 304.515C496.128 302.827 496.512 300.97 495.936 299.282" fill="#0E5D37"/>
<path d="M496.128 362.582C496.128 362.582 489.408 367.14 480.96 373.554C479.232 374.905 477.312 376.086 475.2 377.099C469.632 379.631 467.136 379.125 465.792 376.593C465.408 376.086 464.832 374.567 464.64 374.061C463.488 370.01 461.76 367.646 465.408 365.114C469.44 362.245 471.552 359.713 470.784 355.83C470.4 353.636 469.44 351.273 468.48 349.078L471.744 345.702L488.64 330.679C488.064 340.638 487.296 357.012 496.128 362.582Z" fill="#B97964"/>
<path opacity="0.2" d="M470.976 356.506C475.584 354.142 480.768 349.922 480.192 345.027C480 343.002 479.424 341.145 478.848 339.794L469.44 350.766C470.016 352.623 470.4 353.805 470.976 356.506Z" fill="black"/>
<path d="M493.44 314.474C491.904 329.835 491.52 336.25 482.496 344.352C469.056 356.506 448.128 352.286 444.672 337.262C441.408 323.59 444.672 300.802 461.76 294.387C478.464 287.973 494.976 299.114 493.44 314.474Z" fill="#B97964"/>
<path d="M471.744 319.201C471.744 320.551 470.592 321.733 469.44 321.902C468.288 321.902 467.52 320.72 467.52 319.37C467.52 318.019 468.672 316.838 469.824 316.669C470.976 316.669 471.744 317.85 471.744 319.201Z" fill="#263238"/>
<path d="M453.696 319.032C453.696 320.382 452.544 321.564 451.392 321.564C450.24 321.564 449.472 320.551 449.472 319.032C449.472 317.682 450.624 316.5 451.776 316.5C452.928 316.5 453.696 317.682 453.696 319.032Z" fill="#263238"/>
<path d="M474.624 313.293C474.432 313.293 474.24 313.293 474.048 313.124C470.976 311.267 468.096 312.449 468.096 312.449C467.712 312.618 467.136 312.449 466.944 312.111C466.752 311.774 466.944 311.267 467.52 311.098C467.712 311.098 471.36 309.579 475.008 311.942C475.392 312.111 475.392 312.618 475.2 312.955C475.008 313.293 474.816 313.293 474.624 313.293Z" fill="#263238"/>
<path d="M447.552 312.955C447.36 312.955 447.168 312.786 447.168 312.618C446.976 312.28 447.168 311.774 447.744 311.605C452.352 309.917 455.616 311.774 455.616 311.942C456 312.111 456 312.618 455.808 312.955C455.616 313.293 455.04 313.462 454.656 313.124C454.464 313.124 451.968 311.605 448.32 312.955C447.936 312.955 447.744 312.955 447.552 312.955Z" fill="#263238"/>
<path d="M485.952 324.096C485.952 324.096 480.576 317.006 482.88 302.996C483.264 300.633 481.536 298.438 479.04 297.932C471.552 296.582 461.568 288.31 449.28 304.853C449.28 304.853 455.424 283.753 489.408 293.037C511.104 298.945 499.008 322.746 495.936 325.109C492.48 327.641 485.952 324.096 485.952 324.096Z" fill="#263238"/>
<path d="M498.624 326.966C496.512 330.173 493.248 332.03 490.176 332.705C485.568 333.718 483.264 327.134 484.8 323.083C486.144 319.37 490.752 317.006 495.168 317.85C499.584 318.694 500.928 323.252 498.624 326.966Z" fill="#B97964"/>
<path d="M458.304 318.694C458.304 318.694 455.616 324.434 452.544 327.978C451.968 328.654 452.352 329.498 453.12 329.835C455.232 330.51 457.728 329.835 457.728 329.835L458.304 318.694Z" fill="#A24E3F"/>
<path d="M470.208 316.669L466.176 315.825C466.176 315.825 468.288 318.526 470.208 316.669Z" fill="#263238"/>
<path d="M452.16 316.669L448.128 315.825C448.128 315.825 450.432 318.357 452.16 316.669Z" fill="#263238"/>
<path d="M484.8 292.193C469.632 283.246 453.696 290.842 453.696 290.842C435.456 300.126 443.52 315.825 443.52 315.825C456.192 309.917 462.528 307.554 474.624 301.477C471.744 305.528 476.544 311.098 481.92 315.318C487.296 319.538 485.76 321.226 485.76 321.226C500.352 307.216 499.968 301.139 484.8 292.193Z" fill="#263238"/>
<path opacity="0.2" d="M495.552 321.733C494.592 321.058 493.056 321.058 492.096 321.564C491.136 322.07 490.368 323.083 489.984 324.096C489.408 325.278 489.408 326.628 489.6 327.978" stroke="black" stroke-width="0.5" stroke-miterlimit="10" stroke-linecap="round" stroke-linejoin="round"/>
<path d="M458.88 334.224C460.224 335.912 461.952 339.288 461.952 339.288C462.336 339.288 462.72 339.119 463.104 338.95C468.096 337.769 470.016 335.743 470.592 333.886C470.976 332.874 470.784 331.861 470.592 331.017C470.4 330.173 470.016 329.498 470.016 329.498C467.712 331.523 463.104 333.042 460.608 333.718C459.648 334.055 458.88 334.224 458.88 334.224Z" fill="#263238"/>
<path d="M460.608 333.718L461.568 335.237C466.368 334.055 469.44 332.705 470.592 331.186C470.4 330.342 470.016 329.667 470.016 329.667C467.712 331.692 463.104 333.042 460.608 333.718Z" fill="white"/>
<path d="M463.104 338.95C468.096 337.769 470.016 335.743 470.592 333.886C468.864 334.393 466.944 335.068 465.216 336.25C464.064 337.094 463.488 338.106 463.104 338.95Z" fill="#DC5753"/>
<path opacity="0.3" d="M546.432 432.297C546.432 432.297 549.312 430.778 555.072 430.946C555.072 430.946 550.656 426.895 543.744 430.102L546.432 432.297Z" fill="black"/>
<path d="M516.288 468.251C516.288 468.251 509.376 459.642 506.496 459.136C503.616 458.63 490.176 459.98 489.792 461.668C489.6 463.356 491.52 463.525 491.52 463.525L488.256 466.901C488.256 466.901 488.256 467.914 489.792 468.082C489.792 468.082 489.984 470.614 491.52 470.614C493.056 470.783 499.008 468.926 499.008 468.926L494.016 471.965C494.016 471.965 493.248 473.146 497.088 472.809C500.928 472.471 502.272 470.783 502.272 470.783C502.272 470.783 511.104 477.366 515.52 477.366C519.936 477.366 522.816 476.016 522.816 476.016L516.288 468.251Z" fill="#B97964"/>
</svg>
