<svg xmlns="http://www.w3.org/2000/svg" xmlns:xlink="http://www.w3.org/1999/xlink" width="164.186" height="174.463" viewBox="0 0 164.186 174.463"><defs><clipPath id="a"><rect width="74.042" height="59.246" transform="translate(0 0)" fill="#fff"/></clipPath></defs><g transform="translate(-371.808 -389.983)"><path d="M83.771,161.2A75.535,75.535,0,1,0,8.439,85.663,75.433,75.433,0,0,0,83.771,161.2Z" transform="translate(365.627 394.772)" fill="#e03338" opacity="0.3"/><path d="M20.431,101.9H17.7V99.167a.909.909,0,1,0-1.819,0V101.9H13.156a.912.912,0,0,0,0,1.823h2.728v2.735a.909.909,0,1,0,1.819,0v-2.735h2.728a.98.98,0,0,0,.909-.912A.874.874,0,0,0,20.431,101.9Z" transform="translate(367.427 436.437)" fill="#ccdcff"/><path d="M118.2,17.181h-2.729V14.445a.909.909,0,1,0-1.819,0v2.736h-2.728a.912.912,0,0,0,0,1.824h2.728V21.74a.909.909,0,1,0,1.819,0V19H118.2a.912.912,0,0,0,0-1.824Z" transform="translate(413.651 396.382)" fill="#ffb5d7"/><path d="M84.242,8.8a2.432,2.432,0,1,0-2.425-2.432A2.429,2.429,0,0,0,84.242,8.8Z" transform="translate(400.32 391.844)" fill="#e03338" opacity="0.3"/><path d="M11.867,33.745a3.8,3.8,0,1,0-4.775-2.439A3.8,3.8,0,0,0,11.867,33.745Z" transform="translate(364.902 402.432)" fill="#e2ebff"/><path d="M16.974,24.566a2.583,2.583,0,1,0-3.247-1.659A2.585,2.585,0,0,0,16.974,24.566Z" transform="translate(368.067 399.214)" fill="#e2ebff"/><path d="M120.209,51.758a5.768,5.768,0,1,0-8.137-.367A5.787,5.787,0,0,0,120.209,51.758Z" transform="translate(413.911 409.708)" fill="#e2ebff"/><path d="M118.711,32.312a2.428,2.428,0,1,0-3.426-.155A2.435,2.435,0,0,0,118.711,32.312Z" transform="translate(415.843 403.262)" fill="#e2ebff"/><path d="M24.494,31.281V17.755a6.089,6.089,0,0,1,6.063-6.079h70.026l31.375,34.5,1.213,99.4a6.089,6.089,0,0,1-6.063,6.08H30.557a6.089,6.089,0,0,1-6.063-6.08V46.935" transform="translate(373.218 395.503)" fill="#fff"/><path d="M24.494,31.281V17.755a6.089,6.089,0,0,1,6.063-6.079h70.026l31.375,34.5,1.213,99.4a6.089,6.089,0,0,1-6.063,6.08H30.557a6.089,6.089,0,0,1-6.063-6.08V46.935" transform="translate(373.218 395.503)" fill="none" stroke="#182052" stroke-linecap="round" stroke-linejoin="round" stroke-miterlimit="10" stroke-width="2"/><path d="M57.954,94.18H54.468a1.368,1.368,0,0,1,0-2.736h3.486a1.368,1.368,0,0,1,0,2.736Z" transform="translate(386.744 433.217)" fill="#c0d6ff"/><path d="M56.714,94.18H36.252a1.368,1.368,0,0,1,0-2.736H56.714a1.36,1.36,0,0,1,1.364,1.368C58.23,93.572,57.624,94.18,56.714,94.18Z" transform="translate(378.132 433.217)" fill="#c0d6ff"/><path d="M83.4,27.081H37.167a1.976,1.976,0,0,1,0-3.951H83.4a1.976,1.976,0,0,1,0,3.951Z" transform="translate(378.278 400.919)" fill="#c0d6ff"/><path d="M54.75,34.615H37.167a1.976,1.976,0,0,1,0-3.951H54.9a2.009,2.009,0,0,1,1.97,1.976A2.147,2.147,0,0,1,54.75,34.615Z" transform="translate(378.278 404.481)" fill="#c0d6ff"/><path d="M76.157,20.344v14.59a7.2,7.2,0,0,0,7.124,6.991h24.252" transform="translate(397.643 399.602)" fill="none" stroke="#182052" stroke-linecap="round" stroke-linejoin="round" stroke-miterlimit="10" stroke-width="2"/><path d="M112.081,47.484H39.175a4.763,4.763,0,0,0-4.7,4.863V94.6a4.862,4.862,0,0,0,4.7,4.863H111.93a4.763,4.763,0,0,0,4.7-4.863V52.347A4.637,4.637,0,0,0,112.081,47.484Zm-47.9,37.388V75.448H86.466v9.423Zm22.281,2.888v8.663H64.185V87.759Zm0-24.773v9.423H64.185V62.986ZM64.185,60.1V50.371H86.466V60.1ZM113.9,72.561H89.346V63.138H113.9Zm-52.6,0H37.356V63.138h23.8v9.423ZM37.356,75.448h23.8v9.423h-23.8Zm51.989,0H113.9v9.423H89.346Zm24.555-23.1V60.1H89.346V50.371h22.736A1.988,1.988,0,0,1,113.9,52.347ZM39.175,50.371H61.153V60.1h-23.8V52.347A1.988,1.988,0,0,1,39.175,50.371ZM37.356,94.6V87.759h23.8v8.663H39.175A1.845,1.845,0,0,1,37.356,94.6Zm74.725,1.824H89.346V87.759H113.9V94.6A1.845,1.845,0,0,1,112.081,96.422Z" transform="translate(377.937 412.433)" fill="#c0d6ff"/><path d="M112.7,10.71l-8.791,1.976a.862.862,0,0,1-1.061-.608l-1.97-8.815a1.158,1.158,0,0,0-1.516-.912h-.152a11.105,11.105,0,1,0,15.005,9.575,1.239,1.239,0,0,0-1.364-1.216C112.7,10.558,112.7,10.558,112.7,10.71Z" transform="translate(405.133 391.077)" fill="#e03338"/><path d="M99.274,1.316l1.97,8.815a.938.938,0,0,0,1.214.76l8.791-1.976a.939.939,0,0,0,.757-1.216A11.144,11.144,0,0,0,100.183.1C99.577.253,99.122.708,99.274,1.316Z" transform="translate(408.559 389.983)" fill="#84a2ff"/><path d="M88.509,105.4a1.435,1.435,0,0,0,1.97.3c.152,0,.152-.153.3-.3l5.457-6.839a1.444,1.444,0,0,0-.3-1.976,2.151,2.151,0,0,0-.909-.3H92.45v-4.1A.4.4,0,0,0,92,91.722H87.3a.4.4,0,0,0-.455.456v4.1H84.265A1.36,1.36,0,0,0,82.9,97.649a2.165,2.165,0,0,0,.3.912Z" transform="translate(400.832 433.348)" fill="#fff"/><path d="M90.882,90.971h-4.85a.485.485,0,0,1-.455-.456v-.608a.485.485,0,0,1,.455-.456h4.85a.485.485,0,0,1,.455.456v.608A.485.485,0,0,1,90.882,90.971Z" transform="translate(402.097 432.275)" fill="#fff"/><path d="M82.373,109.328a3.4,3.4,0,0,1-3.486-3.343v-5.471a1.684,1.684,0,0,1,1.667-1.672,1.56,1.56,0,0,1,1.516,1.672v5.623h19.1v-5.623a1.521,1.521,0,0,1,1.516-1.52,1.662,1.662,0,0,1,1.667,1.52v5.471a3.4,3.4,0,0,1-3.486,3.343Z" transform="translate(398.934 436.715)" fill="#fff"/><g transform="translate(457.553 505.201)" clip-path="url(#a)"><path d="M145.515,80.19a14.2,14.2,0,0,0-6.4-8.487c-3.519-2.082-7.2-2.4-11.2-2.722a136.365,136.365,0,0,0-21.428-.641c-6.4.16-13.753-.16-19.67,2.562-8.476,3.683-9.6,11.849-9.915,20.656-.32,6.565-.32,14.411,1.439,20.816a14.253,14.253,0,0,0,10.715,10.248c6.717,1.6,21.109,1.922,28.145,1.762h1.92c5.6-.161,11.513-.161,16.631-2.081a13.836,13.836,0,0,0,8.477-7.206c1.918-3.843,2.4-8.647,2.559-13.931C147.274,94.441,147.114,86.595,145.515,80.19Z" transform="translate(-74.83 -65.939)" fill="#e03338"/><path d="M136.99,122.6c4.477-1.6,7.2-4.163,8.8-7.365,1.918-3.843,2.4-8.807,2.559-14.251.319-6.725.319-14.892-1.6-21.3a14.311,14.311,0,0,0-6.555-8.647c-3.519-2.082-7.517-2.4-11.515-2.722a169.489,169.489,0,0,0-22.069-.8c-2.239,0-4.638,0-7.036.16M85.656,70.238c-8.156,4-9.115,12.009-9.435,20.816-.32,6.725-.32,14.892,1.6,21.3a15.072,15.072,0,0,0,11.034,10.568c6.877,1.762,21.749,1.922,28.946,1.762h1.918c1.92,0,3.838-.161,5.918-.161m-34.383-56.2a.587.587,0,0,0-.48.16Z" transform="translate(-75.261 -66.396)" fill="none" stroke="#182052" stroke-linecap="round" stroke-linejoin="round" stroke-miterlimit="10" stroke-width="2"/><g transform="translate(31.664 10.71)"><rect width="10.309" height="27.246" rx="5.155" transform="translate(0)" fill="#fff"/><circle cx="3.682" cy="3.682" r="3.682" transform="translate(1.473 31.664)" fill="#fff"/></g></g></g></svg>