<svg width="176" height="142" viewBox="0 0 176 142" fill="none" xmlns="http://www.w3.org/2000/svg">
<path d="M163.875 130.509H59.9932C58.5616 130.509 57.3984 129.395 57.3984 128.023V76.7626C57.3984 75.3911 58.5616 74.2767 59.9932 74.2767H163.875C165.306 74.2767 166.469 75.3911 166.469 76.7626V128.023C166.514 129.395 165.351 130.509 163.875 130.509Z" fill="#F0F3F5"/>
<path fill-rule="evenodd" clip-rule="evenodd" d="M127.906 128.323V128.324C127.906 129.524 126.877 130.509 125.624 130.509H2.28163C1.02897 130.509 0 129.524 0 128.324V95.8355C0 94.6354 1.02897 93.6497 2.28163 93.6497H22.6777C25.641 93.4561 27.4813 93.5279 28.5839 93.6497H30.0639V14.0147C30.0639 8.91435 33.6877 7.2428 42.3668 7.2428H83.5705V57.1749H89.6996V27.43H134.169V97.8493H153.675V103.378C153.675 103.378 162.309 128.323 151.617 128.323H127.906Z" fill="#F0F3F5"/>
<path fill-rule="evenodd" clip-rule="evenodd" d="M9.93164 21.216C9.93164 20.7425 10.3322 20.3588 10.8264 20.3588H66.1672C66.6614 20.3588 67.0619 20.7425 67.0619 21.216V127.252C67.0619 127.726 66.6614 128.109 66.1672 128.109H10.8264C10.3322 128.109 9.93164 127.726 9.93164 127.252V21.216ZM11.7212 75.0913V126.395H65.2724V75.0913H11.7212ZM65.2724 73.3768H11.7212V22.0732H65.2724V73.3768Z" fill="#999999"/>
<path fill-rule="evenodd" clip-rule="evenodd" d="M33.3457 27.4306C33.3457 26.9897 33.7188 26.6323 34.179 26.6323H59.5454C60.0056 26.6323 60.3787 26.9897 60.3787 27.4306C60.3787 27.8715 60.0056 28.229 59.5454 28.229H34.179C33.7188 28.229 33.3457 27.8715 33.3457 27.4306ZM33.3457 31.6309C33.3457 31.19 33.7188 30.8326 34.179 30.8326H49.9715C50.4317 30.8326 50.8048 31.19 50.8048 31.6309C50.8048 32.0718 50.4317 32.4293 49.9715 32.4293H34.179C33.7188 32.4293 33.3457 32.0718 33.3457 31.6309ZM33.3457 35.8741C33.3457 35.4332 33.7188 35.0758 34.179 35.0758H59.5454C60.0056 35.0758 60.3787 35.4332 60.3787 35.8741C60.3787 36.315 60.0056 36.6724 59.5454 36.6724H34.179C33.7188 36.6724 33.3457 36.315 33.3457 35.8741Z" fill="#999999"/>
<path d="M17.806 28.5022C18.4238 28.5022 18.9246 28.0224 18.9246 27.4306C18.9246 26.8388 18.4238 26.359 17.806 26.359C17.1883 26.359 16.6875 26.8388 16.6875 27.4306C16.6875 28.0224 17.1883 28.5022 17.806 28.5022Z" fill="#999999"/>
<path d="M22.1908 28.5022C22.8086 28.5022 23.3094 28.0224 23.3094 27.4306C23.3094 26.8388 22.8086 26.359 22.1908 26.359C21.5731 26.359 21.0723 26.8388 21.0723 27.4306C21.0723 28.0224 21.5731 28.5022 22.1908 28.5022Z" fill="#999999"/>
<path d="M26.6185 28.5022C27.2363 28.5022 27.7371 28.0224 27.7371 27.4306C27.7371 26.8388 27.2363 26.359 26.6185 26.359C26.0008 26.359 25.5 26.8388 25.5 27.4306C25.5 28.0224 26.0008 28.5022 26.6185 28.5022Z" fill="#999999"/>
<path d="M17.806 32.7024C18.4238 32.7024 18.9246 32.2226 18.9246 31.6308C18.9246 31.039 18.4238 30.5592 17.806 30.5592C17.1883 30.5592 16.6875 31.039 16.6875 31.6308C16.6875 32.2226 17.1883 32.7024 17.806 32.7024Z" fill="#999999"/>
<path d="M22.1908 32.7024C22.8086 32.7024 23.3094 32.2226 23.3094 31.6308C23.3094 31.039 22.8086 30.5592 22.1908 30.5592C21.5731 30.5592 21.0723 31.039 21.0723 31.6308C21.0723 32.2226 21.5731 32.7024 22.1908 32.7024Z" fill="#999999"/>
<path d="M26.6185 32.7024C27.2363 32.7024 27.7371 32.2226 27.7371 31.6308C27.7371 31.039 27.2363 30.5592 26.6185 30.5592C26.0008 30.5592 25.5 31.039 25.5 31.6308C25.5 32.2226 26.0008 32.7024 26.6185 32.7024Z" fill="#999999"/>
<path d="M17.806 36.9456C18.4238 36.9456 18.9246 36.4658 18.9246 35.874C18.9246 35.2821 18.4238 34.8024 17.806 34.8024C17.1883 34.8024 16.6875 35.2821 16.6875 35.874C16.6875 36.4658 17.1883 36.9456 17.806 36.9456Z" fill="#999999"/>
<path d="M22.1908 36.9456C22.8086 36.9456 23.3094 36.4658 23.3094 35.874C23.3094 35.2821 22.8086 34.8024 22.1908 34.8024C21.5731 34.8024 21.0723 35.2821 21.0723 35.874C21.0723 36.4658 21.5731 36.9456 22.1908 36.9456Z" fill="#999999"/>
<path d="M26.6185 36.9456C27.2363 36.9456 27.7371 36.4658 27.7371 35.874C27.7371 35.2821 27.2363 34.8024 26.6185 34.8024C26.0008 34.8024 25.5 35.2821 25.5 35.874C25.5 36.4658 26.0008 36.9456 26.6185 36.9456Z" fill="#999999"/>
<path fill-rule="evenodd" clip-rule="evenodd" d="M33.3457 43.2888C33.3457 42.8479 33.7188 42.4905 34.179 42.4905H59.5454C60.0056 42.4905 60.3787 42.8479 60.3787 43.2888C60.3787 43.7297 60.0056 44.0871 59.5454 44.0871H34.179C33.7188 44.0871 33.3457 43.7297 33.3457 43.2888ZM33.3457 47.4891C33.3457 47.0482 33.7188 46.6908 34.179 46.6908H59.5454C60.0056 46.6908 60.3787 47.0482 60.3787 47.4891C60.3787 47.93 60.0056 48.2874 59.5454 48.2874H34.179C33.7188 48.2874 33.3457 47.93 33.3457 47.4891ZM33.3457 51.6901C33.3457 51.2492 33.7188 50.8918 34.179 50.8918H55.4295C55.8897 50.8918 56.2628 51.2492 56.2628 51.6901C56.2628 52.131 55.8897 52.4884 55.4295 52.4884H34.179C33.7188 52.4884 33.3457 52.131 33.3457 51.6901Z" fill="#999999"/>
<path d="M17.806 44.3605C18.4238 44.3605 18.9246 43.8807 18.9246 43.2889C18.9246 42.6971 18.4238 42.2173 17.806 42.2173C17.1883 42.2173 16.6875 42.6971 16.6875 43.2889C16.6875 43.8807 17.1883 44.3605 17.806 44.3605Z" fill="#999999"/>
<path d="M22.1908 44.3605C22.8086 44.3605 23.3094 43.8807 23.3094 43.2889C23.3094 42.6971 22.8086 42.2173 22.1908 42.2173C21.5731 42.2173 21.0723 42.6971 21.0723 43.2889C21.0723 43.8807 21.5731 44.3605 22.1908 44.3605Z" fill="#999999"/>
<path d="M26.6185 44.3605C27.2363 44.3605 27.7371 43.8807 27.7371 43.2889C27.7371 42.6971 27.2363 42.2173 26.6185 42.2173C26.0008 42.2173 25.5 42.6971 25.5 43.2889C25.5 43.8807 26.0008 44.3605 26.6185 44.3605Z" fill="#999999"/>
<path d="M17.806 48.5608C18.4238 48.5608 18.9246 48.081 18.9246 47.4892C18.9246 46.8974 18.4238 46.4176 17.806 46.4176C17.1883 46.4176 16.6875 46.8974 16.6875 47.4892C16.6875 48.081 17.1883 48.5608 17.806 48.5608Z" fill="#999999"/>
<path d="M22.1908 48.5608C22.8086 48.5608 23.3094 48.081 23.3094 47.4892C23.3094 46.8974 22.8086 46.4176 22.1908 46.4176C21.5731 46.4176 21.0723 46.8974 21.0723 47.4892C21.0723 48.081 21.5731 48.5608 22.1908 48.5608Z" fill="#999999"/>
<path d="M26.6185 48.5608C27.2363 48.5608 27.7371 48.081 27.7371 47.4892C27.7371 46.8974 27.2363 46.4176 26.6185 46.4176C26.0008 46.4176 25.5 46.8974 25.5 47.4892C25.5 48.081 26.0008 48.5608 26.6185 48.5608Z" fill="#999999"/>
<path d="M17.806 52.7617C18.4238 52.7617 18.9246 52.282 18.9246 51.6901C18.9246 51.0983 18.4238 50.6185 17.806 50.6185C17.1883 50.6185 16.6875 51.0983 16.6875 51.6901C16.6875 52.282 17.1883 52.7617 17.806 52.7617Z" fill="#999999"/>
<path d="M22.1889 52.7617C22.8066 52.7617 23.3074 52.282 23.3074 51.6901C23.3074 51.0983 22.8066 50.6185 22.1889 50.6185C21.5711 50.6185 21.0703 51.0983 21.0703 51.6901C21.0703 52.282 21.5711 52.7617 22.1889 52.7617Z" fill="#999999"/>
<path d="M26.6185 52.7617C27.2363 52.7617 27.7371 52.282 27.7371 51.6901C27.7371 51.0983 27.2363 50.6185 26.6185 50.6185C26.0008 50.6185 25.5 51.0983 25.5 51.6901C25.5 52.282 26.0008 52.7617 26.6185 52.7617Z" fill="#999999"/>
<path fill-rule="evenodd" clip-rule="evenodd" d="M33.3457 59.1035C33.3457 58.6626 33.7188 58.3052 34.179 58.3052H59.5454C60.0056 58.3052 60.3787 58.6626 60.3787 59.1035C60.3787 59.5444 60.0056 59.9018 59.5454 59.9018H34.179C33.7188 59.9018 33.3457 59.5444 33.3457 59.1035ZM33.3457 63.346C33.3457 62.9051 33.7188 62.5477 34.179 62.5477H59.5454C60.0056 62.5477 60.3787 62.9051 60.3787 63.346C60.3787 63.7869 60.0056 64.1443 59.5454 64.1443H34.179C33.7188 64.1443 33.3457 63.7869 33.3457 63.346ZM33.3457 67.547C33.3457 67.1061 33.7188 66.7486 34.179 66.7486H59.5454C60.0056 66.7486 60.3787 67.1061 60.3787 67.547C60.3787 67.9878 60.0056 68.3453 59.5454 68.3453H34.179C33.7188 68.3453 33.3457 67.9878 33.3457 67.547Z" fill="#999999"/>
<path d="M17.806 60.1751C18.4238 60.1751 18.9246 59.6953 18.9246 59.1035C18.9246 58.5116 18.4238 58.0319 17.806 58.0319C17.1883 58.0319 16.6875 58.5116 16.6875 59.1035C16.6875 59.6953 17.1883 60.1751 17.806 60.1751Z" fill="#999999"/>
<path d="M22.1889 60.1751C22.8066 60.1751 23.3074 59.6953 23.3074 59.1035C23.3074 58.5116 22.8066 58.0319 22.1889 58.0319C21.5711 58.0319 21.0703 58.5116 21.0703 59.1035C21.0703 59.6953 21.5711 60.1751 22.1889 60.1751Z" fill="#999999"/>
<path d="M26.6185 60.1751C27.2363 60.1751 27.7371 59.6953 27.7371 59.1035C27.7371 58.5116 27.2363 58.0319 26.6185 58.0319C26.0008 58.0319 25.5 58.5116 25.5 59.1035C25.5 59.6953 26.0008 60.1751 26.6185 60.1751Z" fill="#999999"/>
<path d="M17.806 64.4191C18.4238 64.4191 18.9246 63.9393 18.9246 63.3475C18.9246 62.7557 18.4238 62.2759 17.806 62.2759C17.1883 62.2759 16.6875 62.7557 16.6875 63.3475C16.6875 63.9393 17.1883 64.4191 17.806 64.4191Z" fill="#999999"/>
<path d="M22.1908 64.4191C22.8086 64.4191 23.3094 63.9393 23.3094 63.3475C23.3094 62.7557 22.8086 62.2759 22.1908 62.2759C21.5731 62.2759 21.0723 62.7557 21.0723 63.3475C21.0723 63.9393 21.5731 64.4191 22.1908 64.4191Z" fill="#999999"/>
<path d="M26.6185 64.4191C27.2363 64.4191 27.7371 63.9393 27.7371 63.3475C27.7371 62.7557 27.2363 62.2759 26.6185 62.2759C26.0008 62.2759 25.5 62.7557 25.5 63.3475C25.5 63.9393 26.0008 64.4191 26.6185 64.4191Z" fill="#999999"/>
<path d="M17.806 68.6199C18.4238 68.6199 18.9246 68.1401 18.9246 67.5483C18.9246 66.9565 18.4238 66.4767 17.806 66.4767C17.1883 66.4767 16.6875 66.9565 16.6875 67.5483C16.6875 68.1401 17.1883 68.6199 17.806 68.6199Z" fill="#999999"/>
<path d="M22.1889 68.6199C22.8066 68.6199 23.3074 68.1401 23.3074 67.5483C23.3074 66.9565 22.8066 66.4767 22.1889 66.4767C21.5711 66.4767 21.0703 66.9565 21.0703 67.5483C21.0703 68.1401 21.5711 68.6199 22.1889 68.6199Z" fill="#999999"/>
<path d="M26.6185 68.6199C27.2363 68.6199 27.7371 68.1401 27.7371 67.5483C27.7371 66.9565 27.2363 66.4767 26.6185 66.4767C26.0008 66.4767 25.5 66.9565 25.5 67.5483C25.5 68.1401 26.0008 68.6199 26.6185 68.6199Z" fill="#999999"/>
<path fill-rule="evenodd" clip-rule="evenodd" d="M33.3477 80.6629C33.3477 80.222 33.7207 79.8646 34.1809 79.8646H59.5473C60.0075 79.8646 60.3806 80.222 60.3806 80.6629C60.3806 81.1038 60.0075 81.4613 59.5473 81.4613H34.1809C33.7207 81.4613 33.3477 81.1038 33.3477 80.6629ZM33.3477 84.8632C33.3477 84.4223 33.7207 84.0649 34.1809 84.0649H49.9734C50.4336 84.0649 50.8067 84.4223 50.8067 84.8632C50.8067 85.3041 50.4336 85.6616 49.9734 85.6616H34.1809C33.7207 85.6616 33.3477 85.3041 33.3477 84.8632ZM33.3477 89.1064C33.3477 88.6655 33.7207 88.3081 34.1809 88.3081H59.5473C60.0075 88.3081 60.3806 88.6655 60.3806 89.1064C60.3806 89.5473 60.0075 89.9047 59.5473 89.9047H34.1809C33.7207 89.9047 33.3477 89.5473 33.3477 89.1064Z" fill="#999999"/>
<path d="M17.806 81.7345C18.4238 81.7345 18.9246 81.2547 18.9246 80.6629C18.9246 80.0711 18.4238 79.5913 17.806 79.5913C17.1883 79.5913 16.6875 80.0711 16.6875 80.6629C16.6875 81.2547 17.1883 81.7345 17.806 81.7345Z" fill="#999999"/>
<path d="M22.1908 81.7345C22.8086 81.7345 23.3094 81.2547 23.3094 80.6629C23.3094 80.0711 22.8086 79.5913 22.1908 79.5913C21.5731 79.5913 21.0723 80.0711 21.0723 80.6629C21.0723 81.2547 21.5731 81.7345 22.1908 81.7345Z" fill="#999999"/>
<path d="M26.6185 81.7345C27.2363 81.7345 27.7371 81.2547 27.7371 80.6629C27.7371 80.0711 27.2363 79.5913 26.6185 79.5913C26.0008 79.5913 25.5 80.0711 25.5 80.6629C25.5 81.2547 26.0008 81.7345 26.6185 81.7345Z" fill="#999999"/>
<path d="M17.806 85.9349C18.4238 85.9349 18.9246 85.4552 18.9246 84.8633C18.9246 84.2715 18.4238 83.7917 17.806 83.7917C17.1883 83.7917 16.6875 84.2715 16.6875 84.8633C16.6875 85.4552 17.1883 85.9349 17.806 85.9349Z" fill="#999999"/>
<path d="M22.1908 85.9349C22.8086 85.9349 23.3094 85.4552 23.3094 84.8633C23.3094 84.2715 22.8086 83.7917 22.1908 83.7917C21.5731 83.7917 21.0723 84.2715 21.0723 84.8633C21.0723 85.4552 21.5731 85.9349 22.1908 85.9349Z" fill="#999999"/>
<path d="M26.6185 85.9349C27.2363 85.9349 27.7371 85.4552 27.7371 84.8633C27.7371 84.2715 27.2363 83.7917 26.6185 83.7917C26.0008 83.7917 25.5 84.2715 25.5 84.8633C25.5 85.4552 26.0008 85.9349 26.6185 85.9349Z" fill="#999999"/>
<path d="M17.806 90.1781C18.4238 90.1781 18.9246 89.6983 18.9246 89.1065C18.9246 88.5147 18.4238 88.0349 17.806 88.0349C17.1883 88.0349 16.6875 88.5147 16.6875 89.1065C16.6875 89.6983 17.1883 90.1781 17.806 90.1781Z" fill="#999999"/>
<path d="M22.1908 90.1781C22.8086 90.1781 23.3094 89.6983 23.3094 89.1065C23.3094 88.5147 22.8086 88.0349 22.1908 88.0349C21.5731 88.0349 21.0723 88.5147 21.0723 89.1065C21.0723 89.6983 21.5731 90.1781 22.1908 90.1781Z" fill="#999999"/>
<path d="M26.6185 90.1781C27.2363 90.1781 27.7371 89.6983 27.7371 89.1065C27.7371 88.5147 27.2363 88.0349 26.6185 88.0349C26.0008 88.0349 25.5 88.5147 25.5 89.1065C25.5 89.6983 26.0008 90.1781 26.6185 90.1781Z" fill="#999999"/>
<path fill-rule="evenodd" clip-rule="evenodd" d="M33.3477 96.5211C33.3477 96.0802 33.7207 95.7228 34.1809 95.7228H59.5473C60.0075 95.7228 60.3806 96.0802 60.3806 96.5211C60.3806 96.962 60.0075 97.3194 59.5473 97.3194H34.1809C33.7207 97.3194 33.3477 96.962 33.3477 96.5211ZM33.3477 100.721C33.3477 100.28 33.7207 99.9231 34.1809 99.9231H59.5473C60.0075 99.9231 60.3806 100.28 60.3806 100.721C60.3806 101.162 60.0075 101.52 59.5473 101.52H34.1809C33.7207 101.52 33.3477 101.162 33.3477 100.721ZM33.3477 104.965C33.3477 104.524 33.7207 104.166 34.1809 104.166H55.4314C55.8917 104.166 56.2647 104.524 56.2647 104.965C56.2647 105.405 55.8917 105.763 55.4314 105.763H34.1809C33.7207 105.763 33.3477 105.405 33.3477 104.965Z" fill="#999999"/>
<path d="M17.806 97.5928C18.4238 97.5928 18.9246 97.113 18.9246 96.5212C18.9246 95.9294 18.4238 95.4496 17.806 95.4496C17.1883 95.4496 16.6875 95.9294 16.6875 96.5212C16.6875 97.113 17.1883 97.5928 17.806 97.5928Z" fill="#999999"/>
<path d="M22.1908 97.5928C22.8086 97.5928 23.3094 97.113 23.3094 96.5212C23.3094 95.9294 22.8086 95.4496 22.1908 95.4496C21.5731 95.4496 21.0723 95.9294 21.0723 96.5212C21.0723 97.113 21.5731 97.5928 22.1908 97.5928Z" fill="#999999"/>
<path d="M26.6185 97.5928C27.2363 97.5928 27.7371 97.113 27.7371 96.5212C27.7371 95.9294 27.2363 95.4496 26.6185 95.4496C26.0008 95.4496 25.5 95.9294 25.5 96.5212C25.5 97.113 26.0008 97.5928 26.6185 97.5928Z" fill="#999999"/>
<path d="M17.806 101.793C18.4238 101.793 18.9246 101.313 18.9246 100.722C18.9246 100.13 18.4238 99.6499 17.806 99.6499C17.1883 99.6499 16.6875 100.13 16.6875 100.722C16.6875 101.313 17.1883 101.793 17.806 101.793Z" fill="#999999"/>
<path d="M22.1908 101.793C22.8086 101.793 23.3094 101.313 23.3094 100.722C23.3094 100.13 22.8086 99.6499 22.1908 99.6499C21.5731 99.6499 21.0723 100.13 21.0723 100.722C21.0723 101.313 21.5731 101.793 22.1908 101.793Z" fill="#999999"/>
<path d="M26.6185 101.793C27.2363 101.793 27.7371 101.313 27.7371 100.722C27.7371 100.13 27.2363 99.6499 26.6185 99.6499C26.0008 99.6499 25.5 100.13 25.5 100.722C25.5 101.313 26.0008 101.793 26.6185 101.793Z" fill="#999999"/>
<path d="M17.806 106.036C18.4238 106.036 18.9246 105.556 18.9246 104.965C18.9246 104.373 18.4238 103.893 17.806 103.893C17.1883 103.893 16.6875 104.373 16.6875 104.965C16.6875 105.556 17.1883 106.036 17.806 106.036Z" fill="#999999"/>
<path d="M22.1908 106.036C22.8086 106.036 23.3094 105.556 23.3094 104.965C23.3094 104.373 22.8086 103.893 22.1908 103.893C21.5731 103.893 21.0723 104.373 21.0723 104.965C21.0723 105.556 21.5731 106.036 22.1908 106.036Z" fill="#999999"/>
<path d="M26.6185 106.036C27.2363 106.036 27.7371 105.556 27.7371 104.965C27.7371 104.373 27.2363 103.893 26.6185 103.893C26.0008 103.893 25.5 104.373 25.5 104.965C25.5 105.556 26.0008 106.036 26.6185 106.036Z" fill="#999999"/>
<path fill-rule="evenodd" clip-rule="evenodd" d="M33.3477 112.336C33.3477 111.895 33.7207 111.537 34.1809 111.537H59.5473C60.0075 111.537 60.3806 111.895 60.3806 112.336C60.3806 112.777 60.0075 113.134 59.5473 113.134H34.1809C33.7207 113.134 33.3477 112.777 33.3477 112.336ZM33.3477 116.578C33.3477 116.137 33.7207 115.78 34.1809 115.78H59.5473C60.0075 115.78 60.3806 116.137 60.3806 116.578C60.3806 117.019 60.0075 117.377 59.5473 117.377H34.1809C33.7207 117.377 33.3477 117.019 33.3477 116.578ZM33.3477 120.779C33.3477 120.338 33.7207 119.981 34.1809 119.981H41.339C41.7992 119.981 42.1723 120.338 42.1723 120.779C42.1723 121.22 41.7992 121.578 41.339 121.578H34.1809C33.7207 121.578 33.3477 121.22 33.3477 120.779Z" fill="#999999"/>
<path d="M17.806 113.408C18.4238 113.408 18.9246 112.928 18.9246 112.336C18.9246 111.744 18.4238 111.265 17.806 111.265C17.1883 111.265 16.6875 111.744 16.6875 112.336C16.6875 112.928 17.1883 113.408 17.806 113.408Z" fill="#999999"/>
<path d="M22.1908 113.408C22.8086 113.408 23.3094 112.928 23.3094 112.336C23.3094 111.744 22.8086 111.265 22.1908 111.265C21.5731 111.265 21.0723 111.744 21.0723 112.336C21.0723 112.928 21.5731 113.408 22.1908 113.408Z" fill="#999999"/>
<path d="M26.6185 113.408C27.2363 113.408 27.7371 112.928 27.7371 112.336C27.7371 111.744 27.2363 111.265 26.6185 111.265C26.0008 111.265 25.5 111.744 25.5 112.336C25.5 112.928 26.0008 113.408 26.6185 113.408Z" fill="#999999"/>
<path d="M17.806 117.651C18.4238 117.651 18.9246 117.172 18.9246 116.58C18.9246 115.988 18.4238 115.508 17.806 115.508C17.1883 115.508 16.6875 115.988 16.6875 116.58C16.6875 117.172 17.1883 117.651 17.806 117.651Z" fill="#999999"/>
<path d="M22.1908 117.651C22.8086 117.651 23.3094 117.172 23.3094 116.58C23.3094 115.988 22.8086 115.508 22.1908 115.508C21.5731 115.508 21.0723 115.988 21.0723 116.58C21.0723 117.172 21.5731 117.651 22.1908 117.651Z" fill="#999999"/>
<path d="M26.6185 117.651C27.2363 117.651 27.7371 117.172 27.7371 116.58C27.7371 115.988 27.2363 115.508 26.6185 115.508C26.0008 115.508 25.5 115.988 25.5 116.58C25.5 117.172 26.0008 117.651 26.6185 117.651Z" fill="#999999"/>
<path d="M17.806 121.852C18.4238 121.852 18.9246 121.372 18.9246 120.781C18.9246 120.189 18.4238 119.709 17.806 119.709C17.1883 119.709 16.6875 120.189 16.6875 120.781C16.6875 121.372 17.1883 121.852 17.806 121.852Z" fill="#999999"/>
<path d="M22.1908 121.852C22.8086 121.852 23.3094 121.372 23.3094 120.781C23.3094 120.189 22.8086 119.709 22.1908 119.709C21.5731 119.709 21.0723 120.189 21.0723 120.781C21.0723 121.372 21.5731 121.852 22.1908 121.852Z" fill="#999999"/>
<path d="M26.6185 121.852C27.2363 121.852 27.7371 121.372 27.7371 120.781C27.7371 120.189 27.2363 119.709 26.6185 119.709C26.0008 119.709 25.5 120.189 25.5 120.781C25.5 121.372 26.0008 121.852 26.6185 121.852Z" fill="#999999"/>
<path fill-rule="evenodd" clip-rule="evenodd" d="M26.305 0.244446C26.6583 0.575506 26.6645 1.11823 26.3189 1.45664L24.3057 3.42821C23.9601 3.76663 23.3936 3.77259 23.0404 3.44153C22.6872 3.11047 22.6809 2.56775 23.0265 2.22934L25.0397 0.257767C25.3853 -0.0806507 25.9518 -0.0866146 26.305 0.244446ZM15.8754 0.25107C16.2248 -0.0836895 16.7913 -0.0836895 17.1407 0.25107L19.1987 2.22264C19.5481 2.5574 19.5481 3.10015 19.1987 3.43491C18.8492 3.76967 18.2827 3.76967 17.9333 3.43491L15.8754 1.46334C15.5259 1.12858 15.5259 0.585829 15.8754 0.25107ZM22.4966 6.59438C22.846 6.25962 23.4125 6.25962 23.7619 6.59438L26.312 9.03741C26.6614 9.37217 26.6614 9.91492 26.312 10.2497C25.9626 10.5844 25.396 10.5844 25.0466 10.2497L22.4966 7.80665C22.1471 7.47189 22.1471 6.92914 22.4966 6.59438ZM19.2056 7.1154C19.5512 7.45382 19.5449 7.99654 19.1917 8.3276L17.1337 10.2563C16.7805 10.5874 16.214 10.5814 15.8684 10.243C15.5229 9.90457 15.5291 9.36185 15.8823 9.03079L17.9403 7.10208C18.2935 6.77102 18.86 6.77698 19.2056 7.1154Z" fill="#999999"/>
<path d="M45.4541 137.667L86.1209 141.996C87.1499 142.082 88.0446 140.668 88.0446 138.91V53.8758C88.0446 52.0756 87.1946 50.7041 86.1209 50.7898L45.4541 55.9759C44.5594 56.0616 43.7988 57.4332 43.7988 59.1047V134.496C43.7988 136.167 44.5146 137.582 45.4541 137.667Z" fill="white"/>
<path d="M156.761 138.996L86.209 141.953C84.3748 142.039 82.8984 140.625 82.8984 138.868V53.8758C82.8984 52.0756 84.3748 50.7041 86.209 50.7898L156.761 53.7472C158.327 53.8329 159.624 55.2044 159.624 56.876V135.824C159.624 137.496 158.327 138.91 156.761 138.996Z" fill="#05431E" fill-opacity="0.2"/>
<path fill-rule="evenodd" clip-rule="evenodd" d="M63.6573 59.2801C63.7042 59.7514 63.3434 60.1699 62.8514 60.2148L47.8195 61.5863C47.3276 61.6312 46.8908 61.2855 46.8439 60.8142C46.7971 60.3429 47.1579 59.9245 47.6498 59.8796L62.6818 58.5081C63.1737 58.4632 63.6105 58.8089 63.6573 59.2801ZM63.6583 64.9056C63.6993 65.3774 63.3334 65.7917 62.8409 65.831L47.809 67.0311C47.3165 67.0704 46.884 66.7198 46.843 66.248C46.802 65.7763 47.1679 65.3619 47.6604 65.3226L62.6923 64.1225C63.1847 64.0832 63.6172 64.4338 63.6583 64.9056ZM63.6593 70.5751C63.693 71.0474 63.3207 71.4565 62.8277 71.4889L47.7958 72.4746C47.3028 72.507 46.8757 72.1503 46.842 71.678C46.8082 71.2057 47.1806 70.7966 47.6736 70.7642L62.7055 69.7784C63.1985 69.7461 63.6255 70.1028 63.6593 70.5751ZM63.6603 80.58C63.6838 81.0529 63.3028 81.4545 62.8092 81.477L47.7772 82.1627C47.2836 82.1853 46.8644 81.8202 46.8409 81.3473C46.8174 80.8744 47.1985 80.4728 47.6921 80.4503L62.724 79.7645C63.2176 79.742 63.6368 80.1071 63.6603 80.58ZM63.6608 86.2042C63.6784 86.6773 63.2924 87.0745 62.7985 87.0914L47.7666 87.6057C47.2728 87.6226 46.8581 87.2528 46.8405 86.7797C46.8228 86.3066 47.2089 85.9093 47.7027 85.8924L62.7347 85.3781C63.2285 85.3612 63.6431 85.7311 63.6608 86.2042ZM63.6612 91.8745C63.6715 92.3478 63.2793 92.7395 62.7852 92.7493L47.7533 93.0494C47.2592 93.0592 46.8504 92.6835 46.8401 92.2102C46.8298 91.7369 47.222 91.3452 47.716 91.3353L62.748 91.0353C63.242 91.0254 63.6509 91.4011 63.6612 91.8745Z" fill="white"/>
<path fill-rule="evenodd" clip-rule="evenodd" d="M46.8398 101.879C46.8398 101.405 47.2404 101.021 47.7346 101.021H62.7665C63.2607 101.021 63.6613 101.405 63.6613 101.879C63.6613 102.352 63.2607 102.736 62.7665 102.736H47.7346C47.2404 102.736 46.8398 102.352 46.8398 101.879ZM46.8399 107.311C46.8458 106.838 47.2511 106.458 47.7453 106.464L62.7772 106.636C63.2713 106.641 63.6671 107.03 63.6612 107.503C63.6554 107.976 63.25 108.355 62.7559 108.35L47.724 108.178C47.2298 108.173 46.834 107.784 46.8399 107.311ZM46.8401 112.787C46.8519 112.314 47.2619 111.939 47.7559 111.95L62.7878 112.293C63.2819 112.305 63.6728 112.697 63.661 113.171C63.6493 113.644 63.2393 114.018 62.7452 114.007L47.7133 113.664C47.2193 113.653 46.8283 113.26 46.8401 112.787Z" fill="white"/>
<path fill-rule="evenodd" clip-rule="evenodd" d="M46.8409 122.411C46.8644 121.938 47.2836 121.573 47.7772 121.595L62.8091 122.281C63.3027 122.304 63.6838 122.705 63.6603 123.178C63.6368 123.651 63.2176 124.016 62.724 123.994L47.6921 123.308C47.1985 123.285 46.8174 122.884 46.8409 122.411ZM46.8415 127.887C46.8708 127.414 47.2945 127.054 47.7878 127.082L62.8197 127.939C63.313 127.967 63.6891 128.373 63.6598 128.846C63.6304 129.319 63.2067 129.679 62.7134 129.651L47.6815 128.794C47.1882 128.765 46.8121 128.359 46.8415 127.887ZM46.8422 133.32C46.8774 132.848 47.3055 132.492 47.7984 132.526L62.8303 133.555C63.3232 133.588 63.6943 133.999 63.6591 134.471C63.6239 134.943 63.1957 135.298 62.7028 135.265L47.6709 134.236C47.178 134.202 46.8069 133.792 46.8422 133.32Z" fill="white"/>
<path fill-rule="evenodd" clip-rule="evenodd" d="M159.608 83.5345L82.8821 82.0772L82.9176 80.3632L159.643 81.8204L159.608 83.5345ZM159.638 112.337L81.5706 113.409L81.5449 111.695L159.613 110.623L159.638 112.337Z" fill="white"/>
<path d="M93.8141 60.7769C93.8141 61.8056 93.0087 62.62 92.0692 62.5343C91.0848 62.4915 90.3242 61.5913 90.3242 60.5626C90.3242 59.5338 91.1296 58.7194 92.0692 58.8051C93.0535 58.8909 93.8141 59.7482 93.8141 60.7769Z" fill="white"/>
<path fill-rule="evenodd" clip-rule="evenodd" d="M100.122 62.9622C101.061 63.0051 101.822 62.2336 101.822 61.2049C101.822 60.1763 101.016 59.3191 100.122 59.2762C99.1375 59.2334 98.377 60.0049 98.377 61.0335C98.377 62.0622 99.1822 62.9194 100.122 62.9622ZM107.906 63.3908C108.846 63.4337 109.606 62.6622 109.606 61.6336C109.606 60.6049 108.846 59.7477 107.906 59.7048C106.967 59.662 106.206 60.4335 106.206 61.4621C106.206 62.4908 106.967 63.348 107.906 63.3908Z" fill="white"/>
<path fill-rule="evenodd" clip-rule="evenodd" d="M115.601 63.7338C116.54 63.7767 117.256 63.0052 117.256 62.0194C117.256 61.0336 116.54 60.1764 115.601 60.1335C114.706 60.0907 113.945 60.8622 113.945 61.8479C113.945 62.8337 114.706 63.6909 115.601 63.7338ZM123.161 64.1189C124.056 64.1617 124.772 63.3902 124.772 62.4045C124.772 61.4187 124.011 60.6043 123.161 60.5186C122.267 60.4758 121.551 61.2472 121.551 62.233C121.551 63.2188 122.267 64.076 123.161 64.1189ZM132.109 62.7902C132.109 63.776 131.393 64.5475 130.543 64.5046C129.648 64.4618 128.933 63.6474 128.933 62.6616C128.933 61.6758 129.648 60.9044 130.543 60.9472C131.393 60.9901 132.109 61.8473 132.109 62.7902ZM137.746 64.8486C138.596 64.8915 139.312 64.1628 139.312 63.177C139.312 62.2341 138.641 61.3769 137.746 61.3341C136.896 61.2912 136.18 62.0198 136.18 63.0056C136.18 63.9914 136.896 64.8057 137.746 64.8486ZM146.38 63.5624C146.38 64.5053 145.709 65.2768 144.859 65.2339C144.009 65.191 143.338 64.3767 143.338 63.3909C143.338 62.4051 144.009 61.6765 144.859 61.7194C145.709 61.7622 146.38 62.6194 146.38 63.5624ZM151.838 65.5762C152.644 65.6191 153.315 64.8905 153.315 63.9476C153.315 62.9618 152.644 62.1474 151.838 62.1474C150.988 62.0617 150.317 62.8332 150.317 63.7761C150.317 64.719 150.988 65.5334 151.838 65.5762Z" fill="white"/>
<path fill-rule="evenodd" clip-rule="evenodd" d="M92.069 93.4793C93.0085 93.4793 93.8138 92.665 93.8138 91.6363C93.8138 90.5648 93.0532 89.7505 92.069 89.7505C91.1295 89.7505 90.3242 90.5648 90.3242 91.5935C90.3242 92.6221 91.0848 93.4793 92.069 93.4793ZM100.122 93.565C101.061 93.565 101.822 92.7507 101.822 91.7221C101.822 90.6934 101.017 89.8791 100.122 89.8362C99.1376 89.8362 98.377 90.6506 98.377 91.6792C98.377 92.7078 99.1823 93.565 100.122 93.565Z" fill="white"/>
<path fill-rule="evenodd" clip-rule="evenodd" d="M109.605 91.8077C109.605 92.8364 108.845 93.6079 107.905 93.6079C106.966 93.6079 106.205 92.7507 106.205 91.7649C106.205 90.7362 106.966 89.9219 107.905 89.9648C108.845 90.0076 109.605 90.822 109.605 91.8077ZM117.255 91.9363C117.255 92.9221 116.54 93.7365 115.6 93.7365C114.705 93.7365 113.945 92.9221 113.945 91.8935C113.945 90.8648 114.705 90.0933 115.6 90.0933C116.54 90.0933 117.255 90.9505 117.255 91.9363ZM123.161 93.78C124.056 93.8228 124.771 93.0085 124.771 92.0227C124.771 91.0369 124.011 90.2226 123.161 90.2226C122.266 90.1797 121.55 90.9941 121.55 91.9799C121.55 92.9656 122.266 93.78 123.161 93.78Z" fill="white"/>
<path fill-rule="evenodd" clip-rule="evenodd" d="M130.544 93.9073C131.394 93.9073 132.11 93.1358 132.11 92.15C132.11 91.1642 131.394 90.3499 130.544 90.3499C129.649 90.3499 128.934 91.1213 128.934 92.1071C128.934 93.0929 129.649 93.9073 130.544 93.9073ZM137.747 93.993C138.597 93.993 139.313 93.2215 139.313 92.2357C139.313 91.2499 138.642 90.4784 137.747 90.4356C136.897 90.4356 136.181 91.2071 136.181 92.1928C136.181 93.1786 136.897 93.993 137.747 93.993ZM146.381 92.3214C146.381 93.2643 145.71 94.0358 144.86 94.0358C144.01 94.0358 143.339 93.2215 143.339 92.2786C143.339 91.3356 144.01 90.5213 144.86 90.5642C145.71 90.5642 146.381 91.3785 146.381 92.3214ZM151.839 94.1216C152.645 94.1216 153.316 93.3501 153.316 92.4071C153.316 91.4642 152.645 90.6927 151.839 90.6499C150.989 90.6499 150.318 91.3785 150.318 92.3643C150.318 93.3501 150.989 94.1216 151.839 94.1216Z" fill="white"/>
<path d="M93.8141 122.453C93.8141 123.482 93.0087 124.339 92.0692 124.382C91.0848 124.425 90.3242 123.611 90.3242 122.539C90.3242 121.468 91.1296 120.653 92.0692 120.61C93.0535 120.61 93.8141 121.425 93.8141 122.453Z" fill="white"/>
<path fill-rule="evenodd" clip-rule="evenodd" d="M115.601 123.696C116.541 123.696 117.256 122.839 117.256 121.853C117.256 120.825 116.541 120.053 115.601 120.096C114.706 120.096 113.946 120.953 113.946 121.939C113.946 122.925 114.706 123.739 115.601 123.696ZM109.606 122.025C109.606 123.053 108.846 123.868 107.906 123.91C106.967 123.953 106.206 123.139 106.206 122.11C106.206 121.082 106.967 120.267 107.906 120.225C108.846 120.225 109.606 121.039 109.606 122.025ZM101.822 122.239C101.822 123.268 101.061 124.125 100.122 124.125C99.1822 124.168 98.377 123.353 98.377 122.325C98.377 121.296 99.1375 120.439 100.122 120.439C101.016 120.396 101.822 121.21 101.822 122.239Z" fill="white"/>
<path fill-rule="evenodd" clip-rule="evenodd" d="M151.838 122.667C152.644 122.667 153.315 121.853 153.315 120.91C153.315 119.967 152.644 119.196 151.838 119.239C150.988 119.239 150.317 120.053 150.317 120.996C150.317 121.939 150.988 122.71 151.838 122.667ZM146.38 121.082C146.38 122.025 145.709 122.839 144.859 122.882C144.009 122.925 143.338 122.153 143.338 121.167C143.338 120.182 144.009 119.41 144.859 119.367C145.709 119.367 146.38 120.139 146.38 121.082ZM137.746 123.053C138.596 123.01 139.312 122.239 139.312 121.253C139.312 120.31 138.641 119.539 137.746 119.539C136.896 119.539 136.18 120.353 136.18 121.339C136.18 122.325 136.896 123.096 137.746 123.053ZM132.109 121.468C132.109 122.454 131.393 123.268 130.543 123.268C129.648 123.311 128.933 122.497 128.933 121.511C128.933 120.525 129.648 119.711 130.543 119.711C131.393 119.711 132.109 120.482 132.109 121.468ZM124.772 121.639C124.772 122.625 124.056 123.439 123.161 123.482C122.267 123.525 121.551 122.71 121.551 121.725C121.551 120.739 122.267 119.924 123.161 119.882C124.011 119.882 124.772 120.653 124.772 121.639Z" fill="white"/>
<path opacity="0.7" d="M156.761 53.7473L126.25 52.5472V69.9485C126.25 71.3629 127.458 72.5201 128.934 72.5201L138.821 72.4772C143.027 72.6058 143.429 75.9918 144.279 78.2205C144.458 78.7348 145.219 78.692 145.398 78.1776C146.024 76.0775 146.874 72.6058 150.185 72.6487L159.669 72.7773V56.8761C159.624 55.2474 158.327 53.833 156.761 53.7473Z" fill="white"/>
<path d="M173.316 23.9596L139.717 21.688C138.241 21.688 137.033 22.8452 137.033 24.2596V55.119C137.033 56.5333 138.241 57.6906 139.717 57.6906L150.455 57.8191C154.884 57.9906 155.063 61.7194 156.047 63.9053C156.226 64.291 156.807 64.2482 156.897 63.8624C157.523 61.8051 158.284 57.9477 161.773 57.9906L173.316 58.162C174.792 58.162 176 57.0048 176 55.5904V26.5312C176.045 25.1168 174.792 23.9596 173.316 23.9596Z" fill="white"/>
<path fill-rule="evenodd" clip-rule="evenodd" d="M156.985 31.1606C157.48 31.1606 157.88 31.5444 157.88 32.0178V38.9247L164.537 39.1762C165.03 39.1948 165.415 39.5934 165.395 40.0665C165.376 40.5395 164.96 40.9079 164.466 40.8892L157.88 40.6404V48.0476C157.88 48.521 157.48 48.9048 156.985 48.9048C156.491 48.9048 156.091 48.521 156.091 48.0476V40.5728L148.584 40.2892C148.09 40.2705 147.706 39.8719 147.725 39.3989C147.745 38.9258 148.161 38.5575 148.655 38.5761L156.091 38.8571V32.0178C156.091 31.5444 156.491 31.1606 156.985 31.1606Z" fill="white"/>
</svg>
