<svg width="228" height="146" viewBox="0 0 228 146" fill="none" xmlns="http://www.w3.org/2000/svg">
<path d="M128.64 64.49L124.932 77H122.61L119.982 67.532L117.192 77L114.888 77.018L111.342 64.49H113.52L116.112 74.678L118.92 64.49H121.224L123.834 74.624L126.444 64.49H128.64ZM129.648 71.996C129.648 71 129.852 70.118 130.26 69.35C130.68 68.582 131.244 67.988 131.952 67.568C132.672 67.136 133.464 66.92 134.328 66.92C135.108 66.92 135.786 67.076 136.362 67.388C136.95 67.688 137.418 68.066 137.766 68.522V67.082H139.836V77H137.766V75.524C137.418 75.992 136.944 76.382 136.344 76.694C135.744 77.006 135.06 77.162 134.292 77.162C133.44 77.162 132.66 76.946 131.952 76.514C131.244 76.07 130.68 75.458 130.26 74.678C129.852 73.886 129.648 72.992 129.648 71.996ZM137.766 72.032C137.766 71.348 137.622 70.754 137.334 70.25C137.058 69.746 136.692 69.362 136.236 69.098C135.78 68.834 135.288 68.702 134.76 68.702C134.232 68.702 133.74 68.834 133.284 69.098C132.828 69.35 132.456 69.728 132.168 70.232C131.892 70.724 131.754 71.312 131.754 71.996C131.754 72.68 131.892 73.28 132.168 73.796C132.456 74.312 132.828 74.708 133.284 74.984C133.752 75.248 134.244 75.38 134.76 75.38C135.288 75.38 135.78 75.248 136.236 74.984C136.692 74.72 137.058 74.336 137.334 73.832C137.622 73.316 137.766 72.716 137.766 72.032ZM144.926 68.756V74.246C144.926 74.618 145.01 74.888 145.178 75.056C145.358 75.212 145.658 75.29 146.078 75.29H147.338V77H145.718C144.794 77 144.086 76.784 143.594 76.352C143.102 75.92 142.856 75.218 142.856 74.246V68.756H141.686V67.082H142.856V64.616H144.926V67.082H147.338V68.756H144.926ZM148.545 72.032C148.545 71.012 148.749 70.118 149.157 69.35C149.577 68.57 150.153 67.97 150.885 67.55C151.617 67.13 152.457 66.92 153.405 66.92C154.605 66.92 155.595 67.208 156.375 67.784C157.167 68.348 157.701 69.158 157.977 70.214H155.763C155.583 69.722 155.295 69.338 154.899 69.062C154.503 68.786 154.005 68.648 153.405 68.648C152.565 68.648 151.893 68.948 151.389 69.548C150.897 70.136 150.651 70.964 150.651 72.032C150.651 73.1 150.897 73.934 151.389 74.534C151.893 75.134 152.565 75.434 153.405 75.434C154.593 75.434 155.379 74.912 155.763 73.868H157.977C157.689 74.876 157.149 75.68 156.357 76.28C155.565 76.868 154.581 77.162 153.405 77.162C152.457 77.162 151.617 76.952 150.885 76.532C150.153 76.1 149.577 75.5 149.157 74.732C148.749 73.952 148.545 73.052 148.545 72.032ZM165.152 66.92C165.908 66.92 166.58 67.082 167.168 67.406C167.768 67.73 168.236 68.21 168.572 68.846C168.92 69.482 169.094 70.25 169.094 71.15V77H167.06V71.456C167.06 70.568 166.838 69.89 166.394 69.422C165.95 68.942 165.344 68.702 164.576 68.702C163.808 68.702 163.196 68.942 162.74 69.422C162.296 69.89 162.074 70.568 162.074 71.456V77H160.022V63.68H162.074V68.234C162.422 67.814 162.86 67.49 163.388 67.262C163.928 67.034 164.516 66.92 165.152 66.92ZM187.169 64.49L182.471 77H180.095L175.379 64.49H177.575L181.283 74.894L185.009 64.49H187.169ZM189.929 65.768C189.557 65.768 189.245 65.642 188.993 65.39C188.741 65.138 188.615 64.826 188.615 64.454C188.615 64.082 188.741 63.77 188.993 63.518C189.245 63.266 189.557 63.14 189.929 63.14C190.289 63.14 190.595 63.266 190.847 63.518C191.099 63.77 191.225 64.082 191.225 64.454C191.225 64.826 191.099 65.138 190.847 65.39C190.595 65.642 190.289 65.768 189.929 65.768ZM190.937 67.082V77H188.885V67.082H190.937ZM192.947 71.996C192.947 71 193.151 70.118 193.559 69.35C193.979 68.582 194.543 67.988 195.251 67.568C195.971 67.136 196.769 66.92 197.645 66.92C198.293 66.92 198.929 67.064 199.553 67.352C200.189 67.628 200.693 68 201.065 68.468V63.68H203.135V77H201.065V75.506C200.729 75.986 200.261 76.382 199.661 76.694C199.073 77.006 198.395 77.162 197.627 77.162C196.763 77.162 195.971 76.946 195.251 76.514C194.543 76.07 193.979 75.458 193.559 74.678C193.151 73.886 192.947 72.992 192.947 71.996ZM201.065 72.032C201.065 71.348 200.921 70.754 200.633 70.25C200.357 69.746 199.991 69.362 199.535 69.098C199.079 68.834 198.587 68.702 198.059 68.702C197.531 68.702 197.039 68.834 196.583 69.098C196.127 69.35 195.755 69.728 195.467 70.232C195.191 70.724 195.053 71.312 195.053 71.996C195.053 72.68 195.191 73.28 195.467 73.796C195.755 74.312 196.127 74.708 196.583 74.984C197.051 75.248 197.543 75.38 198.059 75.38C198.587 75.38 199.079 75.248 199.535 74.984C199.991 74.72 200.357 74.336 200.633 73.832C200.921 73.316 201.065 72.716 201.065 72.032ZM214.92 71.798C214.92 72.17 214.896 72.506 214.848 72.806H207.27C207.33 73.598 207.624 74.234 208.152 74.714C208.68 75.194 209.328 75.434 210.096 75.434C211.2 75.434 211.98 74.972 212.436 74.048H214.65C214.35 74.96 213.804 75.71 213.012 76.298C212.232 76.874 211.26 77.162 210.096 77.162C209.148 77.162 208.296 76.952 207.54 76.532C206.796 76.1 206.208 75.5 205.776 74.732C205.356 73.952 205.146 73.052 205.146 72.032C205.146 71.012 205.35 70.118 205.758 69.35C206.178 68.57 206.76 67.97 207.504 67.55C208.26 67.13 209.124 66.92 210.096 66.92C211.032 66.92 211.866 67.124 212.598 67.532C213.33 67.94 213.9 68.516 214.308 69.26C214.716 69.992 214.92 70.838 214.92 71.798ZM212.778 71.15C212.766 70.394 212.496 69.788 211.968 69.332C211.44 68.876 210.786 68.648 210.006 68.648C209.298 68.648 208.692 68.876 208.188 69.332C207.684 69.776 207.384 70.382 207.288 71.15H212.778ZM221.242 77.162C220.306 77.162 219.46 76.952 218.704 76.532C217.948 76.1 217.354 75.5 216.922 74.732C216.49 73.952 216.274 73.052 216.274 72.032C216.274 71.024 216.496 70.13 216.94 69.35C217.384 68.57 217.99 67.97 218.758 67.55C219.526 67.13 220.384 66.92 221.332 66.92C222.28 66.92 223.138 67.13 223.906 67.55C224.674 67.97 225.28 68.57 225.724 69.35C226.168 70.13 226.39 71.024 226.39 72.032C226.39 73.04 226.162 73.934 225.706 74.714C225.25 75.494 224.626 76.1 223.834 76.532C223.054 76.952 222.19 77.162 221.242 77.162ZM221.242 75.38C221.77 75.38 222.262 75.254 222.718 75.002C223.186 74.75 223.564 74.372 223.852 73.868C224.14 73.364 224.284 72.752 224.284 72.032C224.284 71.312 224.146 70.706 223.87 70.214C223.594 69.71 223.228 69.332 222.772 69.08C222.316 68.828 221.824 68.702 221.296 68.702C220.768 68.702 220.276 68.828 219.82 69.08C219.376 69.332 219.022 69.71 218.758 70.214C218.494 70.706 218.362 71.312 218.362 72.032C218.362 73.1 218.632 73.928 219.172 74.516C219.724 75.092 220.414 75.38 221.242 75.38Z" fill="white"/>
<g filter="url(#filter0_d_1116_977)">
<rect x="50" y="46" width="46" height="46" rx="23" fill="#F2F2F2"/>
<path d="M71.235 63.1919C71.0067 63.0636 70.7488 62.9973 70.4869 62.9996C70.2251 63.0018 69.9684 63.0726 69.7424 63.2049C69.5163 63.3372 69.3289 63.5263 69.1987 63.7535C69.0684 63.9807 68.9999 64.2381 69 64.4999V73.4999C69.0001 73.7617 69.0687 74.0189 69.199 74.246C69.3293 74.473 69.5168 74.662 69.7428 74.7942C69.9688 74.9263 70.2254 74.9971 70.4872 74.9993C70.749 75.0015 71.0068 74.9352 71.235 74.8069L79.235 70.3069C79.4668 70.1764 79.6597 69.9866 79.794 69.7569C79.9282 69.5272 79.999 69.266 79.999 68.9999C79.999 68.7339 79.9282 68.4727 79.794 68.243C79.6597 68.0133 79.4668 67.8235 79.235 67.6929L71.235 63.1929V63.1919Z" fill="#F2C94C"/>
</g>
<defs>
<filter id="filter0_d_1116_977" x="0" y="0" width="146" height="146" filterUnits="userSpaceOnUse" color-interpolation-filters="sRGB">
<feFlood flood-opacity="0" result="BackgroundImageFix"/>
<feColorMatrix in="SourceAlpha" type="matrix" values="0 0 0 0 0 0 0 0 0 0 0 0 0 0 0 0 0 0 127 0" result="hardAlpha"/>
<feOffset dy="4"/>
<feGaussianBlur stdDeviation="25"/>
<feComposite in2="hardAlpha" operator="out"/>
<feColorMatrix type="matrix" values="0 0 0 0 0 0 0 0 0 0 0 0 0 0 0 0 0 0 0.1 0"/>
<feBlend mode="normal" in2="BackgroundImageFix" result="effect1_dropShadow_1116_977"/>
<feBlend mode="normal" in="SourceGraphic" in2="effect1_dropShadow_1116_977" result="shape"/>
</filter>
</defs>
</svg>
