<svg width="82" height="149" viewBox="0 0 82 149" fill="none" xmlns="http://www.w3.org/2000/svg">
<g clip-path="url(#clip0_1048_5124)">
<path d="M49.0321 21.6783C49.0324 21.6786 49.0328 21.6789 49.0331 21.6791L57.389 27.4951C57.4851 27.562 57.5971 27.6023 57.7137 27.6122C57.8304 27.622 57.9475 27.601 58.0535 27.5512L67.0107 23.3318C67.8433 22.9521 67.7731 21.747 66.9013 21.4681L41.3446 13.2916C41.1677 13.2349 40.9785 13.2286 40.7981 13.2734C40.6178 13.3183 40.4536 13.4124 40.3238 13.5454C40.194 13.6784 40.1038 13.8448 40.0634 14.0262C40.0229 14.2075 40.0338 14.3966 40.0948 14.5721L48.8876 39.9233C49.1876 40.7881 50.3949 40.8282 50.7534 39.9875L54.7538 30.9299C54.8013 30.8227 54.8198 30.7049 54.8073 30.5884C54.7948 30.4718 54.7517 30.3606 54.6826 30.266L48.6647 22.0538C48.628 22.0029 48.6105 21.9406 48.6152 21.8781C48.6198 21.8155 48.6464 21.7566 48.6903 21.7117C48.7341 21.6668 48.7923 21.6388 48.8548 21.6326C48.917 21.6264 48.9794 21.6423 49.0311 21.6775C49.0314 21.6777 49.0318 21.678 49.0321 21.6783Z" fill="#F2C94C"/>
</g>
<path d="M14.2222 147.5C34.2222 135.833 67.8222 106.3 42.2222 81.5C10.2222 50.5 -16.2778 118.5 18.2222 124.5C52.7222 130.5 107.222 87 64.2222 37" stroke="#F2C94C" stroke-width="3" stroke-linejoin="round" stroke-dasharray="8 8"/>
<defs>
<clipPath id="clip0_1048_5124">
<rect width="32" height="32" fill="white" transform="translate(49.9004 45.2515) rotate(-135.694)"/>
</clipPath>
</defs>
</svg>
