<svg width="24" height="25" viewBox="0 0 24 25" fill="none" xmlns="http://www.w3.org/2000/svg">
<path d="M2 2.44092H3.74001C4.82001 2.44092 5.67 3.37092 5.58 4.44092L4.75 14.4009C4.61 16.0309 5.89999 17.4309 7.53999 17.4309H18.19C19.63 17.4309 20.89 16.2509 21 14.8209L21.54 7.32092C21.66 5.66092 20.4 4.31091 18.73 4.31091H5.82001" stroke="#2F313F" stroke-width="1.5" stroke-miterlimit="10" stroke-linecap="round" stroke-linejoin="round"/>
<path d="M16.25 22.4409C16.9404 22.4409 17.5 21.8813 17.5 21.1909C17.5 20.5006 16.9404 19.9409 16.25 19.9409C15.5596 19.9409 15 20.5006 15 21.1909C15 21.8813 15.5596 22.4409 16.25 22.4409Z" stroke="#2F313F" stroke-width="1.5" stroke-miterlimit="10" stroke-linecap="round" stroke-linejoin="round"/>
<path d="M8.25 22.4409C8.94036 22.4409 9.5 21.8813 9.5 21.1909C9.5 20.5006 8.94036 19.9409 8.25 19.9409C7.55964 19.9409 7 20.5006 7 21.1909C7 21.8813 7.55964 22.4409 8.25 22.4409Z" stroke="#2F313F" stroke-width="1.5" stroke-miterlimit="10" stroke-linecap="round" stroke-linejoin="round"/>
<path d="M9 8.44092H21" stroke="#2F313F" stroke-width="1.5" stroke-miterlimit="10" stroke-linecap="round" stroke-linejoin="round"/>
</svg>
