<svg width="120" height="120" viewBox="0 0 120 120" fill="none" xmlns="http://www.w3.org/2000/svg">
<g clip-path="url(#clip0_1111_10272)">
<path d="M61.76 10.535C74.165 19.33 74.13 19.215 89.225 19.125C90.445 19.125 91.52 19.805 91.845 20.78C96.43 34.725 96.555 34.97 109.035 43.55C109.915 44.16 110.17 45.085 109.905 45.815C105.05 59.82 105.01 59.985 109.905 74.195C110.17 74.92 109.92 75.845 109.03 76.46C96.685 84.955 96.505 85.11 91.845 99.225C91.52 100.2 90.445 100.88 89.215 100.88C74.24 100.785 74.215 100.635 61.765 109.465C60.74 110.19 59.26 110.185 58.245 109.465C45.87 100.71 45.93 100.77 30.78 100.88C29.56 100.88 28.485 100.2 28.165 99.235C24.035 86.74 23.63 85.135 13.54 78.225L10.97 76.455C10.09 75.845 9.835 74.92 10.1 74.19C14.43 61.67 15.095 60.165 11.065 48.62C10.335 46.5 9.195 44.775 10.97 43.54C23.26 35.085 23.5 34.93 28.155 20.775C28.48 19.8 29.555 19.12 30.785 19.12C45.83 19.225 45.765 19.36 58.24 10.535C59.27 9.81 60.755 9.83 61.76 10.535ZM60 0C57.365 0 54.725 0.785 52.49 2.355C43.705 8.535 43.64 9.165 36.73 9.165L30.815 9.125H30.775C25.255 9.125 20.36 12.55 18.67 17.605C14.61 29.77 16.005 27.88 5.27 35.325C1.895 37.665 0 41.385 0 45.235C0 46.505 0.205 47.795 0.635 49.05C4.785 61.19 4.77 58.865 0.635 70.95C0.205 72.205 0 73.49 0 74.765C0 78.615 1.895 82.335 5.275 84.675C16.01 92.12 14.62 90.245 18.675 102.395C20.365 107.45 25.255 110.875 30.78 110.875H30.82C44.08 110.835 41.765 110.1 52.495 117.645C54.725 119.21 57.365 120 60 120C62.635 120 65.275 119.215 67.51 117.645C76.31 111.455 76.32 110.84 83.415 110.84L89.185 110.875H89.225C94.745 110.875 99.64 107.45 101.33 102.395C105.39 90.255 103.97 92.13 114.73 84.675C118.105 82.33 120 78.615 120 74.765C120 73.495 119.795 72.205 119.365 70.95C115.21 58.81 115.23 61.135 119.365 49.05C119.795 47.795 120 46.505 120 45.235C120 41.385 118.105 37.665 114.725 35.325C103.965 27.865 105.385 29.74 101.325 17.605C99.635 12.55 94.745 9.125 89.22 9.125H89.18L83.4 9.16C76.32 9.16 76.3 8.54 67.505 2.355C65.275 0.785 62.635 0 60 0ZM80.89 41.665C80.89 39.335 76.76 35 68.76 35C56.25 35 51.72 42.5 35 42.5V67.32C43.83 68.675 52.42 71.405 56.72 86.33C57.915 90.485 58.67 95 62.655 95C68.595 95 69.14 82.19 66.875 73.045C70.155 71.325 76.25 70.705 79.32 70.835C83.75 71.015 85 68.79 85 67.11C85 64.585 82.92 63.735 81.615 63.335C80.09 62.865 79.395 61.315 81.535 61.03C83.625 60.75 84.685 59.39 84.685 57.98C84.685 56.365 83.3 54.68 80.465 54.455C78.725 54.32 78.295 52.895 80.385 52.425C82.14 52.025 83.13 50.795 83.13 49.47C83.13 47.9 81.735 46.2 78.565 45.615C76.65 45.265 76.46 43.39 78.485 43.23C80.21 43.095 80.89 42.5 80.89 41.665Z" fill="black"/>
</g>
<defs>
<clipPath id="clip0_1111_10272">
<rect width="120" height="120" fill="white"/>
</clipPath>
</defs>
</svg>
