<svg width="134" height="121" viewBox="0 0 134 121" fill="none" xmlns="http://www.w3.org/2000/svg">
<path d="M67 120.927C104.003 120.927 134 103.547 134 82.1074C134 60.6681 104.003 43.2881 67 43.2881C29.9969 43.2881 0 60.6681 0 82.1074C0 103.547 29.9969 120.927 67 120.927Z" fill="#F5F5F5"/>
<path d="M68.5286 97.2099L45.2793 83.7039L71.8539 68.2725L95.1063 81.7754L68.5286 97.2099Z" fill="#E0E0E0"/>
<path d="M5.2207 93.0329L35.2071 110.446L60.3583 95.8434L30.372 78.4307L5.2207 93.0329Z" fill="#E0E0E0"/>
<path d="M49.5622 11.1863V9.47205C49.5494 9.373 49.5114 9.27895 49.4519 9.19898C49.3924 9.11901 49.3134 9.05583 49.2225 9.01553L38.9317 3.07773C38.6865 2.95374 38.4158 2.88916 38.1413 2.88916C37.8668 2.88916 37.5961 2.95374 37.3509 3.07773L7.77518 20.1582C7.68432 20.1985 7.60532 20.2617 7.54583 20.3417C7.48633 20.4216 7.44835 20.5157 7.43555 20.6147V22.329C7.44806 22.4281 7.48593 22.5223 7.54546 22.6023C7.60499 22.6824 7.68414 22.7455 7.77518 22.7855L18.0629 28.714C18.3082 28.838 18.5788 28.9026 18.8533 28.9026C19.1278 28.9026 19.3985 28.838 19.6437 28.714L49.2195 11.6335C49.3105 11.5935 49.3896 11.5304 49.4492 11.4503C49.5087 11.3703 49.5466 11.2761 49.5591 11.177L49.5622 11.1863Z" fill="#F0F0F0"/>
<path d="M7.77377 21.0619L18.0615 26.9997C18.3063 27.1252 18.5772 27.1906 18.8519 27.1906C19.1267 27.1906 19.3975 27.1252 19.6423 26.9997L49.2181 9.91925C49.6534 9.6677 49.6534 9.26087 49.2181 9.00622L38.9303 3.07773C38.6851 2.95374 38.4144 2.88916 38.1399 2.88916C37.8654 2.88916 37.5947 2.95374 37.3495 3.07773L7.77377 20.1582C7.33843 20.4036 7.33843 20.8104 7.77377 21.0619Z" fill="#FAFAFA"/>
<path d="M18.8533 27.1924V28.9036C18.5783 28.9076 18.3066 28.8425 18.0629 28.7142L7.77518 22.7919C7.68414 22.7519 7.60499 22.6887 7.54546 22.6087C7.48593 22.5287 7.44806 22.4345 7.43555 22.3354V20.618C7.4416 20.5486 7.46381 20.4816 7.50039 20.4224C7.37997 20.6429 7.46951 20.8975 7.77518 21.0745L18.0629 27.003C18.3059 27.1331 18.5781 27.1984 18.8533 27.1924Z" fill="#E0E0E0"/>
<path d="M24.3809 12.7081L33.097 17.7049L47.4943 9.39446L38.7812 4.39453L24.3809 12.7081Z" fill="#E0E0E0"/>
<path d="M33.1959 17.3258L24.7885 12.4718C25.007 11.7549 24.9907 10.9863 24.7422 10.2793L33.0971 15.0805C33.0971 15.0805 33.2577 15.6115 33.1959 17.3258Z" fill="white"/>
<path d="M32.6672 14.4065C32.9019 14.559 33.0974 14.765 33.238 15.0079C33.3786 15.2507 33.4602 15.5235 33.4762 15.804V17.4375C33.4762 17.953 33.1118 18.1611 32.6672 17.9065L24.3926 13.1115V12.7078L32.5684 17.3971C32.8371 17.5524 33.0532 17.4251 33.0532 17.1176V15.6021C33.0439 15.4338 32.9951 15.2701 32.9109 15.1244C32.8266 14.9786 32.7093 14.855 32.5684 14.7636L24.3926 10.0587V9.59912L32.6672 14.4065Z" fill="#EBEBEB"/>
<path d="M24.3926 9.61481L38.7806 1.30127L47.0645 6.0838C47.2997 6.23642 47.4957 6.4429 47.6363 6.68635C47.7769 6.9298 47.8582 7.20328 47.8735 7.4844V9.12724C47.8844 9.22769 47.8681 9.32926 47.8262 9.42113C47.7844 9.51301 47.7185 9.59174 47.6357 9.64897L33.2384 17.9625C33.3197 17.904 33.3842 17.8249 33.4254 17.7333C33.4666 17.6417 33.4831 17.5408 33.4731 17.4408V15.8042C33.4581 15.5234 33.3769 15.2502 33.2362 15.0073C33.0956 14.7643 32.8995 14.5584 32.6641 14.4067L24.3926 9.61481Z" fill="#FAFAFA"/>
<path d="M33.2383 14.9999C33.3851 15.2395 33.467 15.5136 33.476 15.7949V17.4315C33.486 17.5316 33.4696 17.6325 33.4284 17.7241C33.3872 17.8157 33.3227 17.8947 33.2414 17.9533L47.6386 9.63972C47.7215 9.58249 47.7873 9.50375 47.8292 9.41188C47.871 9.32001 47.8874 9.21845 47.8764 9.11799V7.48447C47.8674 7.20315 47.7854 6.92909 47.6386 6.68945L33.2383 14.9999Z" fill="#F0F0F0"/>
<path d="M15.5189 0.27002L15.4355 1.37559L25.1675 6.62707L25.3867 5.98111L15.5189 0.27002Z" fill="#EBEBEB"/>
<path d="M25.2572 6.23906L15.8309 0.76709L14.1914 1.71739L23.803 7.37258L25.2572 6.23906Z" fill="white"/>
<path d="M22.0337 6.78564L21.1074 17.7731C21.112 17.8971 21.146 18.0182 21.2067 18.1263C21.2675 18.2344 21.353 18.3262 21.4563 18.3942L26.9244 21.5773C27.0116 21.6259 27.1088 21.6535 27.2084 21.6581L23.8121 7.74215C23.7131 7.7367 23.6163 7.71024 23.5281 7.66451L23.1359 7.4347L22.0337 6.78564Z" fill="#E0E0E0"/>
<path d="M24.2207 7.65217L25.1964 6.81057L25.9096 6.18946C25.9837 6.07145 26.0701 5.98449 26.0238 5.87891L29.3769 19.6924C29.4232 19.7886 29.4356 20.0029 29.3028 20.0837L27.6139 21.5371C27.4861 21.6052 27.3409 21.6333 27.1971 21.6178L23.8008 7.70186C23.9426 7.72649 24.0884 7.70922 24.2207 7.65217Z" fill="#F0F0F0"/>
<path d="M25.9122 5.78873C26.1037 5.90053 26.0574 6.02475 25.9122 6.19245L24.2203 7.64895C24.1126 7.70555 23.9929 7.73511 23.8714 7.73511C23.7499 7.73511 23.6302 7.70555 23.5225 7.64895L22.0343 6.78561C21.8398 6.67381 21.8058 6.51232 21.9571 6.42537C22.0565 6.38481 22.1638 6.36764 22.2708 6.37517C22.3779 6.38271 22.4818 6.41475 22.5746 6.46885L23.7479 7.15207C23.7838 7.17035 23.8234 7.17987 23.8637 7.17987C23.9039 7.17987 23.9435 7.17035 23.9794 7.15207L25.2145 6.07134C25.2793 6.03407 25.2793 5.97507 25.2145 5.9378L15.5195 0.270183L15.9827 0L25.9122 5.78873Z" fill="#FAFAFA"/>
<path d="M12.709 0.80127L21.9809 6.18628V23.9313L12.709 18.5432V0.80127Z" fill="#EBEBEB"/>
<path d="M21.6819 6.48132L12.7095 1.30127C12.1607 1.88645 11.4421 2.28212 10.6562 2.43169L19.5546 7.59C19.5546 7.59 20.1289 7.45335 21.6819 6.48132Z" fill="white"/>
<path d="M18.6935 7.57456C18.9609 7.70928 19.2559 7.77942 19.5549 7.77942C19.854 7.77942 20.149 7.70928 20.4164 7.57456L21.9231 6.68638C22.3986 6.40998 22.3986 5.96589 21.9231 5.6895L13.0834 0.583984L12.7098 0.801374L21.4075 5.85409C21.4716 5.87291 21.5279 5.91214 21.568 5.96589C21.6081 6.01965 21.6298 6.08503 21.6298 6.15222C21.6298 6.21942 21.6081 6.2848 21.568 6.33856C21.5279 6.39231 21.4716 6.43154 21.4075 6.45036L20.0026 7.26401C19.8422 7.34513 19.6651 7.38737 19.4855 7.38737C19.3059 7.38737 19.1288 7.34513 18.9683 7.26401L10.2737 2.20818L9.84766 2.45352L18.6935 7.57456Z" fill="#FAFAFA"/>
<path d="M9.85156 2.45361V20.1956L18.6943 25.3011C18.9617 25.4358 19.2567 25.5059 19.5558 25.5059C19.8548 25.5059 20.1498 25.4358 20.4172 25.3011L21.9301 24.4284C22.0284 24.3848 22.1133 24.3154 22.1758 24.2274C22.2382 24.1394 22.276 24.0362 22.2852 23.9284V6.18647C22.2756 6.29451 22.2369 6.39787 22.1732 6.48543C22.1096 6.57299 22.0234 6.64142 21.9239 6.68336L20.4172 7.57465C20.1498 7.70937 19.8548 7.77951 19.5558 7.77951C19.2567 7.77951 18.9617 7.70937 18.6943 7.57465L9.85156 2.45361Z" fill="#EBEBEB"/>
<path d="M19.555 7.76414C19.8547 7.77007 20.1511 7.69956 20.4164 7.55917L21.9232 6.68341C22.0215 6.64058 22.1064 6.57177 22.1689 6.48427C22.2314 6.39678 22.2692 6.29389 22.2782 6.18652V23.9285C22.2691 24.0362 22.2313 24.1395 22.1688 24.2274C22.1064 24.3154 22.0215 24.3849 21.9232 24.4285L20.4103 25.3011C20.1449 25.4415 19.8486 25.512 19.5488 25.5061L19.555 7.76414Z" fill="#F0F0F0"/>
<path d="M94.0385 72.1696C93.9921 71.3839 93.8872 70.4429 93.7606 69.3498C93.2882 65.2008 92.6429 59.5176 94.3534 54.0736C95.3939 50.76 97.901 46.8315 101.816 45.7415C102.687 45.4992 104.792 45.1421 105.601 47.0209C105.715 47.2924 105.783 47.581 105.802 47.875C105.885 49.0675 105.351 50.1203 104.758 51.0799C104.076 52.1948 103.286 53.2538 102.52 54.2848C101.797 55.2599 101.047 56.2661 100.393 57.3096C99.6857 58.4434 99.0664 59.6301 98.5401 60.8592L98.29 60.7505C98.8153 59.509 99.4346 58.3098 100.143 57.1636C100.8 56.1109 101.554 55.0985 102.282 54.1202C103.042 53.0954 103.826 52.0395 104.505 50.937C105.073 50.0054 105.586 49.0085 105.509 47.8936C105.492 47.6307 105.431 47.3724 105.33 47.1296C104.607 45.4495 102.668 45.7849 101.869 46.0054C98.0585 47.0675 95.61 50.9122 94.5911 54.1544C92.8991 59.5456 93.5414 65.1946 94.0107 69.3187C94.1342 70.415 94.2422 71.3622 94.2886 72.1541L94.0385 72.1696Z" fill="#F06D06"/>
<path d="M94.3164 76.6852C94.2959 76.6882 94.2752 76.6882 94.2547 76.6852C94.1954 76.6736 94.1397 76.6482 94.0919 76.611C94.0442 76.5738 94.0058 76.5258 93.9799 76.471C93.926 76.3172 93.926 76.1496 93.9799 75.9958C94.0234 75.6982 94.0234 75.3959 93.9799 75.0983C93.9799 74.9306 93.9521 74.7536 93.9521 74.5952V72.6667C94.1987 69.2024 95.2079 65.8365 96.9069 62.8128C98.4136 60.1762 100.081 58.4216 102.156 57.2849C103.274 56.6668 104.501 56.2714 105.768 56.1203C106.887 55.996 108.012 56.2949 108.924 56.9588C109.865 57.7073 110.288 58.9899 109.933 60.0054C109.683 60.7165 109.112 61.2476 108.528 61.729C107.488 62.583 106.352 63.3469 105.256 64.0861C104.345 64.7072 103.403 65.3283 102.523 66.0115C99.831 68.1015 97.5725 70.7023 95.8756 73.6667C95.5978 74.148 95.3353 74.6449 95.0945 75.1418L94.9957 75.3374C94.8994 75.5149 94.8148 75.6985 94.7425 75.8871C94.7271 75.9275 94.7116 76.0113 94.69 76.1076C94.6743 76.2847 94.6184 76.4558 94.5264 76.6076C94.4685 76.659 94.3936 76.6867 94.3164 76.6852ZM106.213 56.3781C106.074 56.3781 105.935 56.3781 105.793 56.3967C104.563 56.5411 103.373 56.925 102.289 57.5272C100.263 58.6358 98.6297 60.3594 97.1477 62.9494C95.4716 65.9356 94.475 69.2587 94.23 72.6791V74.589C94.23 74.7381 94.23 74.8996 94.2578 75.0704C94.3074 75.3956 94.3074 75.7265 94.2578 76.0517C94.2246 76.1525 94.2246 76.2614 94.2578 76.3623C94.2657 76.378 94.277 76.3917 94.2909 76.4025C94.3048 76.4132 94.3209 76.4207 94.338 76.4244C94.3931 76.3096 94.4306 76.1871 94.4492 76.061C94.4639 75.9748 94.4846 75.8897 94.5109 75.8064C94.5862 75.6069 94.6749 75.4129 94.7765 75.2256L94.8722 75.0331C95.1192 74.53 95.3847 74.03 95.6626 73.5424C96.2398 72.5376 96.8802 71.5708 97.58 70.6481C98.9633 68.8302 100.577 67.2025 102.381 65.8065C103.27 65.1233 104.215 64.4867 105.129 63.8718C106.222 63.1358 107.349 62.3749 108.383 61.5302C108.933 61.0799 109.473 60.5737 109.702 59.9277C110.01 59.0178 109.631 57.8657 108.775 57.1855C108.037 56.6318 107.133 56.3471 106.213 56.3781Z" fill="#F06D06"/>
<path d="M94.0845 74.033H94.0505C94.0331 74.029 94.0167 74.0216 94.0023 74.011C93.9878 74.0005 93.9756 73.9872 93.9664 73.9718C93.9572 73.9565 93.9511 73.9394 93.9486 73.9216C93.9461 73.9039 93.9472 73.8858 93.9517 73.8684C96.499 63.6512 103.542 59.0922 107.302 58.0084C107.337 57.9988 107.373 58.0032 107.405 58.0206C107.436 58.038 107.459 58.0671 107.469 58.1016C107.479 58.1366 107.474 58.174 107.457 58.2058C107.44 58.2377 107.411 58.2616 107.376 58.2724C103.671 59.3376 96.7336 63.8375 94.2173 73.9336C94.2087 73.9623 94.1911 73.9875 94.1672 74.0054C94.1433 74.0233 94.1143 74.033 94.0845 74.033Z" fill="#F06D06"/>
<path d="M94.0703 65.6482C94.034 65.6451 94.0003 65.6277 93.9767 65.5998C93.953 65.5719 93.9411 65.5358 93.9437 65.4992C94.7557 54.4652 101.931 48.4187 102.746 47.7696C102.76 47.758 102.776 47.7492 102.793 47.744C102.811 47.7387 102.829 47.7371 102.847 47.7391C102.865 47.7412 102.882 47.7468 102.898 47.7558C102.913 47.7648 102.927 47.7769 102.938 47.7914C102.949 47.8054 102.957 47.8216 102.962 47.8389C102.967 47.8562 102.969 47.8743 102.967 47.8922C102.965 47.9101 102.959 47.9274 102.951 47.9431C102.942 47.9589 102.93 47.9727 102.916 47.9839C102.11 48.6268 95.0182 54.6018 94.2185 65.5209C94.2146 65.5571 94.1971 65.5905 94.1695 65.6142C94.142 65.6379 94.1065 65.65 94.0703 65.6482Z" fill="#F06D06"/>
<path d="M93.2126 27.1674L76.0427 17.2017C75.9099 17.1058 75.7543 17.047 75.5916 17.0312C75.4289 17.0154 75.265 17.0431 75.1164 17.1116L73.8814 17.829C73.7456 17.9241 73.6376 18.0541 73.5687 18.2053C73.4997 18.3566 73.4723 18.5237 73.4893 18.6893V65.9587C73.5145 66.4193 73.6473 66.8674 73.8769 67.2667C74.1065 67.666 74.4264 68.0052 74.8107 68.2568L91.9776 78.2101C92.11 78.3065 92.2655 78.3659 92.4282 78.3822C92.5909 78.3986 92.755 78.3713 92.9038 78.3033L94.1388 77.5828C94.273 77.4872 94.3795 77.3574 94.4473 77.2068C94.5151 77.0562 94.5419 76.8901 94.5248 76.7257V29.4655C94.5008 29.0057 94.3696 28.558 94.1416 28.1588C93.9136 27.7595 93.5954 27.4199 93.2126 27.1674Z" fill="#263238"/>
<path d="M77.1881 66.769L75.9531 67.4864V71.418C75.9594 71.5332 75.9925 71.6452 76.05 71.7451C76.1074 71.8449 76.1874 71.9297 76.2835 71.9926L76.8609 72.328C76.9633 72.3801 77.0765 72.4073 77.1912 72.4073C77.306 72.4073 77.4192 72.3801 77.5216 72.328L78.099 71.9926C78.3041 71.8593 78.4628 71.665 78.5529 71.4367L79.6675 68.2069L77.1881 66.769Z" fill="#263238"/>
<path d="M75.9531 71.4184C75.9594 71.5336 75.9925 71.6456 76.05 71.7455C76.1074 71.8453 76.1874 71.9301 76.2835 71.993L76.8609 72.3284C76.9008 72.3526 76.9456 72.3675 76.992 72.3719C77.0385 72.3762 77.0853 72.37 77.1289 72.3535C77.1726 72.3371 77.212 72.3109 77.2442 72.277C77.2764 72.243 77.3005 72.2022 77.3147 72.1575L78.4232 68.9247L75.9531 67.4868V71.4184Z" fill="#37474F"/>
<path d="M89.5768 73.9399L88.3418 74.6604V78.5889C88.3475 78.7043 88.38 78.8167 88.4369 78.917C88.4938 79.0174 88.5733 79.1029 88.6691 79.1666L89.2495 79.502C89.3514 79.5541 89.4641 79.5812 89.5784 79.5812C89.6926 79.5812 89.8053 79.5541 89.9072 79.502L90.4877 79.1666C90.6928 79.0333 90.8514 78.839 90.9415 78.6107L92.053 75.3778L89.5768 73.9399Z" fill="#263238"/>
<path d="M88.3418 78.5892C88.3475 78.7045 88.38 78.8169 88.4369 78.9173C88.4938 79.0176 88.5733 79.1031 88.6691 79.1668L89.2495 79.5022C89.2894 79.5265 89.3343 79.5414 89.3807 79.5457C89.4271 79.5501 89.4739 79.5438 89.5176 79.5274C89.5613 79.5109 89.6007 79.4848 89.6329 79.4508C89.665 79.4169 89.6892 79.376 89.7034 79.3314L90.818 76.0985L88.348 74.6606L88.3418 78.5892Z" fill="#37474F"/>
<path d="M74.8926 17.9565L92.0595 27.8942C92.4438 28.1466 92.7638 28.4864 92.9933 28.8862C93.2229 29.2859 93.3557 29.7345 93.3809 30.1955V77.4649C93.4136 77.631 93.3938 77.8031 93.3242 77.9572C93.2547 78.1114 93.1389 78.2397 92.9932 78.3243C92.8475 78.4089 92.679 78.4455 92.5116 78.4289C92.3441 78.4124 92.186 78.3435 92.0595 78.232L74.8926 68.2756C74.5087 68.0238 74.1892 67.6845 73.9602 67.2852C73.7311 66.8859 73.5989 66.4379 73.5742 65.9775V18.7205C73.5412 18.5547 73.5607 18.3828 73.6301 18.2288C73.6994 18.0748 73.815 17.9466 73.9606 17.8622C74.1062 17.7778 74.2745 17.7415 74.4417 17.7585C74.6089 17.7754 74.7666 17.8446 74.8926 17.9565Z" fill="#37474F"/>
<path d="M49.9629 82.567L68.5315 93.3495L94.5287 78.2534L93.2906 77.5329L74.722 66.7505L49.9629 81.1292V82.567Z" fill="#455A64"/>
<path d="M68.5312 93.3493V91.9115L94.5285 76.8154V78.2533L68.5312 93.3493Z" fill="#263238"/>
<path d="M68.6493 91.2563L68.4609 91.129C71.7554 86.1136 71.7338 77.4491 71.4651 75.2752C71.4435 75.1293 71.4281 75.0392 71.425 75.005L71.6504 74.9678C71.6504 75.0361 71.6751 75.1168 71.6874 75.2131C71.9283 76.7503 73.2899 85.1012 74.9016 87.6353L74.7102 87.7595C73.435 85.7689 72.3451 80.3963 71.7986 77.2969C71.8326 80.8155 71.3231 87.2098 68.6493 91.2563Z" fill="#FAFAFA"/>
<path d="M79.4913 83.5981C79.2103 83.5142 72.6462 81.5143 72.041 78.6013L72.2664 78.5547C72.8407 81.3341 79.4882 83.359 79.5561 83.3807L79.4913 83.5981Z" fill="#FAFAFA"/>
<path d="M72.8653 82.4179L72.6986 81.7068C72.6758 81.5761 72.6096 81.4571 72.511 81.3692C72.4123 81.2812 72.2869 81.2294 72.1552 81.2223C72.0465 81.2063 71.9355 81.2242 71.8372 81.2737C71.739 81.3231 71.6581 81.4016 71.6056 81.4987L71.3926 81.4086C71.464 81.2666 71.5775 81.1503 71.7174 81.0757C71.8573 81.0012 72.0167 80.9721 72.1737 80.9925C72.2873 80.9997 72.3981 81.0311 72.4987 81.0846C72.5993 81.1382 72.6875 81.2126 72.7573 81.3031C72.7943 81.0086 72.9438 80.7402 73.1741 80.5546C73.2614 80.5087 73.359 80.4863 73.4575 80.4896C73.556 80.4928 73.6519 80.5217 73.736 80.5732L73.6341 80.7782C73.5827 80.7449 73.5236 80.7254 73.4625 80.7216C73.4014 80.7178 73.3404 80.7298 73.2853 80.7565C73.0228 80.9055 72.9209 81.4801 72.9055 81.6881L72.8653 82.4179Z" fill="#FAFAFA"/>
<path d="M73.5112 84.7877L73.3074 84.1417C73.0758 83.4119 72.6899 82.9927 72.2329 82.9647C72.042 82.961 71.8542 83.0134 71.6924 83.1155C71.5306 83.2175 71.4019 83.3648 71.3221 83.5393L71.1152 83.4399C71.2129 83.2218 71.3727 83.0379 71.5745 82.9113C71.7762 82.7847 72.0107 82.7211 72.2484 82.7287C72.5232 82.7442 72.9956 82.8933 73.3475 83.6138C73.4247 83.0455 73.6563 82.1324 74.2522 81.7505C74.4661 81.6326 74.7066 81.5721 74.9505 81.5748C75.1944 81.5775 75.4334 81.6434 75.6447 81.766L75.549 81.9741C75.3721 81.8689 75.1714 81.811 74.966 81.8061C74.7605 81.8012 74.5573 81.8494 74.3757 81.9461C73.5822 82.443 73.5297 84.0858 73.5297 84.1045L73.5112 84.7877Z" fill="#FAFAFA"/>
<path d="M70.7233 86.3652L70.5195 86.2596C70.9765 85.3745 71.9799 84.7379 72.8506 84.7814C73.0354 84.7835 73.2172 84.8274 73.3829 84.9096C73.5485 84.9918 73.6937 85.1104 73.8078 85.2565C73.8916 84.8097 74.0645 84.3845 74.316 84.0066C74.5675 83.6288 74.8925 83.306 75.2713 83.0578C75.6778 82.7862 76.1469 82.6244 76.6336 82.588C77.1203 82.5515 77.6081 82.6417 78.0501 82.8497L77.9605 83.0578C77.5534 82.8682 77.1048 82.7864 76.6574 82.8201C76.21 82.8538 75.7786 83.0019 75.404 83.2504C75.0036 83.5114 74.6694 83.863 74.4281 84.2772C74.1869 84.6913 74.0453 85.1564 74.0146 85.6354V86.2224L73.7985 85.6758C73.7269 85.4815 73.5981 85.3138 73.4293 85.1951C73.2605 85.0763 73.0597 85.0122 72.8537 85.0112C72.0541 84.9708 71.1432 85.5547 70.7233 86.3652Z" fill="#FAFAFA"/>
<path d="M69.4702 89.7936L69.2695 89.6819C69.5474 89.1725 71.0264 86.6136 72.777 86.1508C73.0241 86.0796 73.2834 86.0619 73.5378 86.0988C73.7922 86.1358 74.0359 86.2265 74.2528 86.3651L74.1355 86.5608C73.9442 86.4392 73.7296 86.3595 73.5056 86.3268C73.2817 86.2942 73.0534 86.3094 72.8357 86.3713C71.5512 86.713 70.2236 88.4272 69.4702 89.7936Z" fill="#FAFAFA"/>
<path d="M92.0525 62.4372V63.8751L68.5315 77.5333L49.9629 66.7508V65.313L73.4839 51.6548L92.0525 62.4372Z" fill="#263238"/>
<path d="M92.0525 62.4372L68.5315 76.0954L49.9629 65.313L73.4839 51.6548L92.0525 62.4372Z" fill="#455A64"/>
<path d="M92.0525 46.6234V48.0582L68.5315 61.7195L49.9629 50.9339V49.4992L73.4839 35.8379L92.0525 46.6234Z" fill="#263238"/>
<path d="M92.0525 46.6234L68.5315 60.2816L49.9629 49.4992L73.4839 35.8379L92.0525 46.6234Z" fill="#455A64"/>
<path d="M68.4508 41.5275L51.2839 31.5742C51.1515 31.4778 50.996 31.4184 50.8333 31.4021C50.6706 31.3857 50.5065 31.413 50.3577 31.481C50.1354 31.6084 49.345 32.0711 49.1227 32.1984C48.9874 32.2939 48.8801 32.424 48.8116 32.5752C48.7432 32.7265 48.7163 32.8934 48.7336 33.0587V80.3157C48.7588 80.7763 48.8916 81.2243 49.1212 81.6236C49.3508 82.0229 49.6708 82.3621 50.0551 82.6138L67.2219 92.5702C67.3544 92.6665 67.5099 92.7259 67.6726 92.7423C67.8353 92.7586 67.9994 92.7314 68.1482 92.6633C68.3705 92.5329 69.1671 92.0733 69.3832 91.9397C69.5191 91.8453 69.6274 91.716 69.6968 91.5653C69.7663 91.4146 69.7945 91.2479 69.7784 91.0826V43.8287C69.753 43.367 69.6195 42.918 69.3888 42.5181C69.158 42.1181 68.8366 41.7787 68.4508 41.5275Z" fill="#263238"/>
<path opacity="0.2" d="M68.5304 48.7818L69.7716 48.0613V43.7446L68.5273 44.4651L68.5304 48.7818Z" fill="black"/>
<path opacity="0.2" d="M93.2941 34.4032L94.5353 33.6858V29.3691L93.291 30.0896L93.2941 34.4032Z" fill="black"/>
<path d="M52.4381 81.1294L51.2031 81.8468V85.7784C51.2094 85.8935 51.2425 86.0056 51.3 86.1054C51.3574 86.2053 51.4374 86.2901 51.5335 86.3529L52.1109 86.6883C52.2133 86.7404 52.3265 86.7676 52.4412 86.7676C52.556 86.7676 52.6692 86.7404 52.7716 86.6883L53.349 86.3529C53.5533 86.2202 53.7119 86.0271 53.8028 85.8001L54.9175 82.5673L52.4381 81.1294Z" fill="#263238"/>
<path d="M51.2012 85.7783C51.2074 85.8935 51.2406 86.0055 51.298 86.1053C51.3554 86.2052 51.4354 86.29 51.5315 86.3528L52.1089 86.6882C52.1488 86.7125 52.1936 86.7274 52.2401 86.7318C52.2865 86.7361 52.3333 86.7298 52.377 86.7134C52.4207 86.697 52.4601 86.6708 52.4922 86.6369C52.5244 86.6029 52.5485 86.5621 52.5628 86.5174L53.6774 83.2845L51.2073 81.8467L51.2012 85.7783Z" fill="#37474F"/>
<path d="M64.8171 88.3184L63.582 89.0357V92.9674C63.5877 93.0823 63.6203 93.1943 63.6772 93.2941C63.734 93.3939 63.8136 93.4789 63.9093 93.5419L64.4898 93.8773C64.5916 93.9294 64.7043 93.9565 64.8186 93.9565C64.9329 93.9565 65.0456 93.9294 65.1474 93.8773L65.7279 93.5419C65.9314 93.4082 66.0897 93.2154 66.1818 92.9891L67.2933 89.7562L64.8171 88.3184Z" fill="#263238"/>
<path d="M63.582 92.9521C63.5877 93.0671 63.6203 93.179 63.6772 93.2789C63.734 93.3787 63.8136 93.4636 63.9093 93.5266L64.4898 93.862C64.5297 93.8863 64.5745 93.9012 64.6209 93.9056C64.6674 93.9099 64.7142 93.9037 64.7578 93.8872C64.8015 93.8708 64.8409 93.8446 64.8731 93.8107C64.9053 93.7767 64.9294 93.7359 64.9436 93.6912L66.0552 90.4584L63.5851 89.0205L63.582 92.9521Z" fill="#37474F"/>
<path d="M50.043 32.2944L67.2129 42.2477C67.5969 42.5002 67.9164 42.8401 68.1454 43.2399C68.3745 43.6397 68.5067 44.0881 68.5313 44.5489V93.3494C68.5313 93.3494 67.5773 92.7811 67.2129 92.5699L50.0461 82.6135C49.6618 82.3619 49.3418 82.0226 49.1122 81.6234C48.8826 81.2241 48.7499 80.776 48.7246 80.3154V33.0584C48.6916 32.8926 48.7111 32.7206 48.7805 32.5667C48.8498 32.4127 48.9654 32.2845 49.111 32.2001C49.2566 32.1157 49.4249 32.0794 49.5921 32.0963C49.7593 32.1133 49.917 32.1825 50.043 32.2944Z" fill="#37474F"/>
<path opacity="0.2" d="M67.2129 42.2477L50.043 32.2944C49.917 32.1825 49.7593 32.1133 49.5921 32.0963C49.4249 32.0794 49.2566 32.1157 49.111 32.2001C48.9654 32.2845 48.8498 32.4127 48.7805 32.5667C48.7111 32.7206 48.6916 32.8926 48.7246 33.0584V37.2788L68.5313 48.7693V44.5489C68.5067 44.0881 68.3745 43.6397 68.1454 43.2399C67.9164 42.8401 67.5969 42.5001 67.2129 42.2477Z" fill="black"/>
<path d="M90.8133 46.7388C90.7833 46.738 90.7547 46.7256 90.7334 46.7042C90.7121 46.6829 90.6999 46.6541 90.6991 46.6239V32.444L77.2528 40.2513C77.2402 40.2595 77.226 40.265 77.2112 40.2674C77.1964 40.2698 77.1813 40.2691 77.1667 40.2653C77.1522 40.2615 77.1386 40.2547 77.1269 40.2454C77.1151 40.236 77.1054 40.2243 77.0984 40.2109C77.0906 40.1979 77.0854 40.1834 77.0832 40.1684C77.081 40.1534 77.0818 40.138 77.0856 40.1233C77.0893 40.1086 77.0959 40.0947 77.105 40.0826C77.1141 40.0704 77.1255 40.0602 77.1385 40.0525L90.7732 32.1458C90.7903 32.1351 90.8101 32.1294 90.8303 32.1294C90.8505 32.1294 90.8703 32.1351 90.8874 32.1458C90.9045 32.1561 90.9186 32.1707 90.9283 32.1881C90.9381 32.2055 90.9431 32.2252 90.943 32.2452V46.6239C90.9431 46.6404 90.9398 46.6567 90.9331 46.6717C90.9264 46.6868 90.9166 46.7002 90.9043 46.7111C90.892 46.722 90.8775 46.7301 90.8618 46.7349C90.8461 46.7397 90.8296 46.741 90.8133 46.7388Z" fill="#FAFAFA"/>
<path d="M88.3381 43.1424H88.3042C88.2748 43.1357 88.2491 43.1176 88.2329 43.092C88.2167 43.0664 88.2113 43.0354 88.2177 43.0057L90.521 32.9717L85.9515 40.9312C85.9444 40.9445 85.9347 40.9562 85.923 40.9656C85.9114 40.975 85.8979 40.982 85.8835 40.986C85.8691 40.9901 85.854 40.9912 85.8391 40.9892C85.8243 40.9873 85.81 40.9823 85.7971 40.9747C85.7838 40.9673 85.7721 40.9573 85.7627 40.9452C85.7533 40.9332 85.7464 40.9194 85.7424 40.9047C85.7383 40.8899 85.7373 40.8745 85.7392 40.8593C85.7412 40.8442 85.7462 40.8295 85.7539 40.8163L90.6939 32.1891C90.7081 32.1654 90.7301 32.1475 90.756 32.1384C90.782 32.1293 90.8103 32.1297 90.836 32.1394C90.8613 32.1498 90.8821 32.169 90.8946 32.1935C90.9071 32.218 90.9104 32.2462 90.9039 32.273L88.4339 43.0585C88.4283 43.0807 88.4162 43.1006 88.3991 43.1155C88.382 43.1305 88.3607 43.1399 88.3381 43.1424Z" fill="#FAFAFA"/>
<path d="M83.3878 39.5619C83.3721 39.5619 83.3565 39.5587 83.3422 39.5522C83.3278 39.5458 83.3149 39.5364 83.3044 39.5246C83.2833 39.5031 83.2715 39.4741 83.2715 39.4439C83.2715 39.4136 83.2833 39.3846 83.3044 39.3631L90.7331 32.1738C90.7545 32.1525 90.7833 32.1406 90.8134 32.1406C90.8434 32.1406 90.8723 32.1525 90.8937 32.1738C90.915 32.1958 90.9269 32.2253 90.9269 32.2561C90.9269 32.2868 90.915 32.3163 90.8937 32.3384L83.465 39.5246C83.4552 39.5356 83.4434 39.5446 83.4301 39.551C83.4169 39.5574 83.4025 39.5611 83.3878 39.5619Z" fill="#FAFAFA"/>
<path d="M90.8147 44.4437C90.7847 44.4429 90.7561 44.4306 90.7348 44.4092C90.7136 44.3878 90.7013 44.359 90.7005 44.3288C90.7005 42.4469 88.6133 42.3195 88.5238 42.3164C88.5069 42.3152 88.4905 42.3104 88.4756 42.3024C88.4607 42.2944 88.4477 42.2833 88.4373 42.2698C88.4276 42.2566 88.4209 42.2414 88.4177 42.2253C88.4145 42.2092 88.4149 42.1926 88.4188 42.1767C88.495 41.7922 88.4691 41.3944 88.3439 41.0231C88.2187 40.6519 87.9986 40.3203 87.7056 40.0618C87.5985 39.9543 87.4698 39.8711 87.3282 39.8175C87.1866 39.764 87.0352 39.7414 86.8843 39.7512C86.8037 39.765 86.727 39.7959 86.6594 39.842C86.5918 39.8881 86.5347 39.9482 86.4922 40.0183C86.4793 40.041 86.4591 40.0586 86.435 40.0681C86.4109 40.0777 86.3842 40.0788 86.3594 40.0711C86.3347 40.0635 86.3134 40.0476 86.2988 40.0262C86.2842 40.0048 86.2773 39.979 86.2791 39.9531C86.2791 39.8817 86.4057 38.2078 84.9422 38.0432C84.9234 38.0409 84.9054 38.034 84.8899 38.0232C84.8743 38.0124 84.8615 37.9979 84.8527 37.9811C84.8443 37.9648 84.8399 37.9467 84.8399 37.9283C84.8399 37.9099 84.8443 37.8918 84.8527 37.8755C84.8527 37.8755 85.5011 36.655 85.251 36.0556C85.2221 35.9853 85.1771 35.9227 85.1197 35.8731C85.0623 35.8234 84.9941 35.7881 84.9206 35.7699C84.906 35.766 84.8923 35.7592 84.8804 35.7498C84.8685 35.7404 84.8586 35.7286 84.8514 35.7152C84.8442 35.7019 84.8397 35.6871 84.8383 35.672C84.837 35.6568 84.8387 35.6415 84.8434 35.6271C84.8527 35.5983 84.8726 35.5742 84.899 35.5597C84.9254 35.5453 84.9564 35.5416 84.9854 35.5494C85.0918 35.577 85.1903 35.6292 85.2728 35.7021C85.3554 35.7749 85.4199 35.8662 85.4609 35.9687C85.6987 36.537 85.2973 37.478 85.1244 37.832C86.2606 38.0525 86.4705 39.1301 86.5014 39.6643C86.603 39.5918 86.7188 39.542 86.8411 39.5183C87.0266 39.5002 87.2139 39.5247 87.3887 39.5897C87.5636 39.6548 87.7215 39.7589 87.8507 39.8941C88.1575 40.1662 88.3923 40.5107 88.534 40.8966C88.6757 41.2826 88.72 41.6979 88.6627 42.1052C89.1629 42.1705 90.929 42.5214 90.9259 44.335C90.9243 44.3639 90.9121 44.3911 90.8915 44.4112C90.8709 44.4314 90.8435 44.443 90.8147 44.4437Z" fill="#FAFAFA"/>
<path d="M90.8134 41.3443C90.7846 41.3444 90.7569 41.3335 90.7357 41.314C90.7145 41.2944 90.7015 41.2675 90.6992 41.2387C90.6498 40.5803 90.27 39.7294 89.7914 39.5182C89.6966 39.4756 89.5915 39.4617 89.4889 39.4783C89.3864 39.4948 89.2909 39.5411 89.214 39.6114C89.1952 39.6236 89.1732 39.63 89.1507 39.63C89.1283 39.63 89.1063 39.6236 89.0875 39.6114C89.0679 39.6006 89.0519 39.5842 89.0415 39.5643C89.031 39.5445 89.0266 39.5219 89.0288 39.4996C89.0288 39.4996 89.1307 38.335 88.6089 37.8536C88.4957 37.7586 88.3615 37.6921 88.2176 37.6596C88.0737 37.6272 87.9241 37.6299 87.7814 37.6673C87.7617 37.6715 87.7413 37.6703 87.7223 37.6637C87.7032 37.6571 87.6863 37.6455 87.6733 37.63C87.6601 37.6144 87.6512 37.5956 87.6474 37.5755C87.6436 37.5553 87.6451 37.5345 87.6517 37.5151C87.7567 37.2263 87.9605 36.4158 87.6857 36.127C87.556 35.9934 87.3183 35.981 86.9756 36.0928C86.9522 36.1006 86.9269 36.1006 86.9035 36.0927C86.8802 36.0849 86.8599 36.0697 86.8459 36.0493C86.8318 36.0294 86.8242 36.0055 86.8242 35.981C86.8242 35.9565 86.8318 35.9326 86.8459 35.9127C87.0373 35.6704 87.5097 34.9624 87.3924 34.6239C87.373 34.5771 87.3417 34.5364 87.3015 34.5058C87.2614 34.4753 87.2139 34.456 87.1639 34.45C87.1493 34.4463 87.1355 34.4398 87.1234 34.4308C87.1113 34.4218 87.1011 34.4105 87.0933 34.3975C87.0856 34.3845 87.0805 34.3701 87.0783 34.3552C87.0761 34.3402 87.0768 34.3249 87.0805 34.3102C87.0834 34.2954 87.0893 34.2814 87.0978 34.269C87.1063 34.2566 87.1173 34.2461 87.1301 34.2382C87.1429 34.2303 87.1572 34.2252 87.172 34.2232C87.1869 34.2211 87.202 34.2222 87.2164 34.2264C87.3031 34.2391 87.3849 34.2744 87.4537 34.3289C87.5225 34.3834 87.5759 34.4552 87.6085 34.5369C87.7351 34.9065 87.4263 35.4686 87.2102 35.7791C87.3215 35.7525 87.4377 35.7536 87.5485 35.7823C87.6593 35.8109 87.7615 35.8664 87.8462 35.9437C88.1859 36.2978 88.0222 37.0462 87.9204 37.3971C88.0709 37.379 88.2236 37.3932 88.3684 37.4387C88.5131 37.4842 88.6466 37.56 88.7602 37.6611C89.2202 38.0835 89.2696 38.9033 89.2634 39.2791C89.36 39.2334 89.4655 39.2097 89.5722 39.2097C89.6789 39.2097 89.7844 39.2334 89.8809 39.2791C90.4645 39.5368 90.869 40.453 90.9276 41.1952C90.9289 41.2101 90.9272 41.2252 90.9225 41.2394C90.9179 41.2537 90.9105 41.2668 90.9007 41.2781C90.8909 41.2894 90.8789 41.2986 90.8655 41.3052C90.8521 41.3118 90.8375 41.3155 90.8227 41.3163L90.8134 41.3443Z" fill="#FAFAFA"/>
<path d="M97.4657 27.214C97.451 27.0491 97.3929 26.8911 97.2974 26.7563C97.2019 26.6215 97.0724 26.5147 96.9223 26.4469L78.5173 15.7576C78.1081 15.5494 77.656 15.4409 77.1974 15.4409C76.7388 15.4409 76.2867 15.5494 75.8775 15.7576L47.5708 32.1984C47.4206 32.2661 47.2911 32.3729 47.1956 32.5078C47.1001 32.6426 47.042 32.8006 47.0273 32.9655V34.4033C47.042 34.5682 47.1001 34.7262 47.1956 34.861C47.2911 34.9958 47.4206 35.1026 47.5708 35.1704L65.9757 45.8566C66.3844 46.0662 66.8368 46.1755 67.2956 46.1755C67.7545 46.1755 68.2068 46.0662 68.6155 45.8566L96.9223 29.4189C97.0724 29.3512 97.2019 29.2444 97.2974 29.1095C97.3929 28.9747 97.451 28.8167 97.4657 28.6518V27.214Z" fill="#37474F"/>
<path d="M65.9749 44.4187L47.5699 33.7325C46.8413 33.3071 46.8413 32.6207 47.5699 32.1984L75.8767 15.7576C76.2859 15.5494 76.738 15.4409 77.1966 15.4409C77.6552 15.4409 78.1073 15.5494 78.5165 15.7576L96.9215 26.4469C97.6532 26.8724 97.6532 27.5556 96.9215 27.9811L68.6147 44.4187C68.206 44.6284 67.7536 44.7377 67.2948 44.7377C66.8359 44.7377 66.3836 44.6284 65.9749 44.4187Z" fill="#455A64"/>
<path opacity="0.1" d="M93.2905 31.5244L84.6269 42.31L69.7726 50.9372L69.7695 45.1857L93.2905 31.5244Z" fill="black"/>
<path opacity="0.1" d="M92.0533 48.0581L84.6277 58.1232L69.7734 66.7535V60.9989L92.0533 48.0581Z" fill="black"/>
<path opacity="0.1" d="M92.0533 63.875L84.6277 73.9401L69.7734 82.5704V76.8158L92.0533 63.875Z" fill="black"/>
<path d="M57.9777 95.2875L35.2038 108.514L9.55859 93.5857L32.3324 80.3623L57.9777 95.2875Z" fill="#F06D06"/>
<path opacity="0.5" d="M57.9777 95.2875L35.2038 108.514L9.55859 93.5857L32.3324 80.3623L57.9777 95.2875Z" fill="black"/>
<path d="M32.3324 62.4341V80.3624L9.55859 93.5858V75.6606L32.3324 62.4341Z" fill="#F06D06"/>
<path opacity="0.23" d="M32.3324 62.4341V80.3624L9.55859 93.5858V75.6606L32.3324 62.4341Z" fill="black"/>
<path d="M35.2039 90.5859V108.514L9.55859 93.5858V75.6606L35.2039 90.5859Z" fill="#F06D06"/>
<path opacity="0.38" d="M35.2039 90.5859V108.514L9.55859 93.5858V75.6606L35.2039 90.5859Z" fill="black"/>
<path d="M57.9792 77.3593V95.2876L32.334 80.3624V62.4341L57.9792 77.3593Z" fill="#F06D06"/>
<path opacity="0.4" d="M57.9792 77.3593V95.2876L32.334 80.3624V62.4341L57.9792 77.3593Z" fill="black"/>
<path d="M57.9789 95.2877V77.3594L35.2051 90.5859V108.514L57.9789 95.2877Z" fill="#F06D06"/>
<path opacity="0.23" d="M57.9789 95.2877V77.3594L35.2051 90.5859V108.514L57.9789 95.2877Z" fill="black"/>
<path d="M32.334 62.4341L32.3649 52.5088L57.9484 67.4527L57.9792 77.3593L32.334 62.4341Z" fill="#F06D06"/>
<path opacity="0.2" d="M32.334 62.4341L32.3649 52.5088L57.9484 67.4527L57.9792 77.3593L32.334 62.4341Z" fill="black"/>
<path d="M35.2051 90.5858L37.3417 81.9027L59.9086 68.7974L57.9789 77.3593L35.2051 90.5858Z" fill="#F06D06"/>
<path opacity="0.3" d="M35.2051 90.5858L37.3417 81.9027L59.9086 68.7974L57.9789 77.3593L35.2051 90.5858Z" fill="black"/>
<path d="M9.55885 75.6606L6.8418 66.6546L29.6156 53.4312L32.3327 62.4341L9.55885 75.6606Z" fill="#F06D06"/>
<path opacity="0.1" d="M9.55885 75.6606L6.8418 66.6546L29.6156 53.4312L32.3327 62.4341L9.55885 75.6606Z" fill="black"/>
<path d="M9.55922 75.6608L4.19922 68.2168L29.8476 83.142L35.2045 90.586L9.55922 75.6608Z" fill="#F06D06"/>
<path opacity="0.45" d="M9.55922 75.6608L4.19922 68.2168L29.8476 83.142L35.2045 90.586L9.55922 75.6608Z" fill="black"/>
<g opacity="0.7">
<path d="M41.9096 103.181C41.8725 103.181 41.8368 103.167 41.8103 103.141C41.7837 103.115 41.7684 103.079 41.7676 103.042V99.8865C41.7684 99.8489 41.7836 99.813 41.81 99.7864C41.8365 99.7597 41.8722 99.7444 41.9096 99.7437C41.9467 99.7445 41.9821 99.7599 42.008 99.7866C42.034 99.8133 42.0486 99.8491 42.0485 99.8865V103.042C42.0485 103.079 42.0339 103.114 42.0079 103.141C41.9818 103.167 41.9465 103.181 41.9096 103.181Z" fill="white"/>
<path d="M41.4993 100.98C41.4809 100.983 41.4621 100.983 41.4437 100.98C41.41 100.964 41.3835 100.936 41.3698 100.902C41.356 100.867 41.3559 100.828 41.3696 100.794L41.8698 99.6353L42.4255 100.281C42.4454 100.31 42.454 100.345 42.4497 100.38C42.4453 100.415 42.4283 100.447 42.4019 100.47C42.3756 100.493 42.3416 100.506 42.3067 100.505C42.2717 100.505 42.2382 100.491 42.2125 100.468L41.9501 100.157L41.6413 100.902C41.6279 100.928 41.6073 100.949 41.582 100.963C41.5567 100.977 41.5279 100.983 41.4993 100.98Z" fill="white"/>
<path d="M43.2034 102.44C43.1663 102.439 43.1309 102.423 43.105 102.397C43.079 102.37 43.0644 102.334 43.0645 102.297V99.1446C43.0645 99.1076 43.0791 99.072 43.1051 99.0458C43.1312 99.0196 43.1665 99.0049 43.2034 99.0049C43.2402 99.0049 43.2756 99.0196 43.3016 99.0458C43.3277 99.072 43.3423 99.1076 43.3423 99.1446V102.294C43.3427 102.312 43.3395 102.331 43.3327 102.349C43.326 102.366 43.3158 102.382 43.3029 102.396C43.29 102.409 43.2746 102.42 43.2575 102.428C43.2404 102.435 43.222 102.439 43.2034 102.44Z" fill="white"/>
<path d="M42.7935 100.238C42.7751 100.241 42.7563 100.241 42.7379 100.238C42.721 100.23 42.7057 100.22 42.6929 100.206C42.6801 100.193 42.6701 100.177 42.6635 100.16C42.6569 100.142 42.6538 100.124 42.6544 100.105C42.6549 100.087 42.6592 100.068 42.6669 100.051L43.164 98.8774L43.7198 99.5203C43.7454 99.5469 43.7597 99.5826 43.7597 99.6197C43.7597 99.6568 43.7454 99.6924 43.7198 99.719C43.7068 99.7322 43.6914 99.7426 43.6745 99.7497C43.6575 99.7569 43.6393 99.7605 43.6209 99.7605C43.6026 99.7605 43.5844 99.7569 43.5674 99.7497C43.5505 99.7426 43.5351 99.7322 43.5221 99.719L43.2597 99.4085L42.9509 100.154C42.9382 100.184 42.9156 100.208 42.8869 100.224C42.8583 100.239 42.8253 100.244 42.7935 100.238Z" fill="white"/>
</g>
<g opacity="0.7">
<path d="M38.1774 105.322C38.1246 105.323 38.0725 105.31 38.0261 105.285C37.9703 105.249 37.9251 105.198 37.8952 105.139C37.8653 105.079 37.8519 105.013 37.8563 104.946V104.558C37.8571 104.52 37.8724 104.485 37.899 104.459C37.9255 104.433 37.9612 104.418 37.9983 104.418C38.0352 104.418 38.0705 104.433 38.0966 104.459C38.1226 104.485 38.1373 104.521 38.1373 104.558V104.946C38.1373 105.002 38.1373 105.033 38.165 105.039C38.1928 105.045 38.2083 105.039 38.2546 105.014C38.3415 104.934 38.4099 104.835 38.4552 104.725C38.5006 104.615 38.5216 104.497 38.517 104.378V102.763C38.517 102.726 38.5317 102.69 38.5577 102.664C38.5838 102.638 38.6191 102.623 38.656 102.623C38.6928 102.623 38.7282 102.638 38.7542 102.664C38.7803 102.69 38.7949 102.726 38.7949 102.763V104.378C38.8018 104.545 38.7693 104.712 38.7001 104.865C38.6309 105.018 38.527 105.152 38.3966 105.257C38.3306 105.298 38.2549 105.32 38.1774 105.322Z" fill="white"/>
<path d="M36.7051 104.021V103.778C36.7418 103.156 36.9225 102.552 37.2329 102.012C37.5433 101.473 37.9748 101.014 38.4928 100.673C38.9991 100.381 39.4808 100.337 39.8513 100.555C40.0489 100.691 40.2065 100.878 40.3075 101.097C40.4085 101.315 40.4493 101.557 40.4256 101.797V101.878L36.7051 104.021ZM39.3326 100.685C39.0854 100.697 38.8452 100.771 38.6348 100.903C38.1909 101.196 37.815 101.583 37.5327 102.036C37.2503 102.488 37.0681 102.997 36.9984 103.527L40.1384 101.701C40.1518 101.521 40.1188 101.341 40.0425 101.177C39.9663 101.014 39.8493 100.873 39.7031 100.769C39.589 100.709 39.4613 100.68 39.3326 100.685Z" fill="white"/>
</g>
<path opacity="0.7" d="M4.19922 68.2168L29.8476 83.142L35.2045 90.586L29.5635 83.406L4.19922 68.2168Z" fill="white"/>
<path opacity="0.7" d="M57.9789 77.3594L35.2051 90.5859V108.514L35.6312 90.9461L57.9789 77.3594Z" fill="white"/>
<path d="M24.5574 70.1888C26.907 69.8472 29.0528 68.3254 30.4237 66.4124C31.063 65.5186 31.5339 64.5144 31.8131 63.4498C32.1096 62.4541 32.1584 61.4005 31.9551 60.3815C31.5321 58.6765 29.9637 57.6672 28.3056 57.456C27.4643 57.3447 26.6088 57.4286 25.8047 57.7014C24.971 57.9892 24.2476 58.5321 23.7361 59.2542C23.4153 59.6388 23.2135 60.1095 23.1556 60.6082C23.1507 60.8035 23.2191 60.9935 23.3473 61.1403C23.4755 61.2871 23.654 61.3798 23.8472 61.4001C24.3444 61.4422 24.8412 61.3154 25.2582 61.0398C25.7667 60.753 26.2146 60.369 26.5766 59.9094C27.3532 58.9454 27.9344 57.8376 28.2871 56.6486C28.5346 55.6284 28.5346 54.5633 28.2871 53.5431C28.0991 52.4759 27.6141 51.4841 26.8885 50.6829C26.0566 49.9219 25.0009 49.4542 23.8812 49.3506C22.7668 49.1966 21.6321 49.3029 20.5651 49.6611C20.0965 49.8041 19.6623 50.043 19.29 50.363C19.0244 50.6114 18.7219 51.0214 18.8299 51.4251C18.938 51.8288 19.5246 52.0089 19.9229 51.9561C20.5124 51.845 21.0524 51.5507 21.4667 51.1145C21.9285 50.6573 22.3207 50.1341 22.6307 49.5618C22.8611 49.1504 22.9813 48.686 22.9796 48.214C22.9395 46.245 20.7751 44.9718 19.08 44.6115C18.6224 44.5154 18.1537 44.484 17.6875 44.5184C17.5301 44.5184 17.6258 44.7792 17.7524 44.7699C18.6645 44.7282 19.571 44.9342 20.3768 45.3662C21.1718 45.7337 21.8394 46.3317 22.2942 47.0835C22.4968 47.4542 22.5968 47.8728 22.5838 48.2956C22.5708 48.7184 22.4452 49.1299 22.2201 49.4872C21.9177 50.0169 21.5413 50.5 21.1024 50.922C20.735 51.2574 20.1761 51.6456 19.6605 51.6083C19.5754 51.6081 19.492 51.5838 19.4199 51.5383C19.3479 51.4927 19.29 51.4276 19.2529 51.3506C19.2374 51.2486 19.2457 51.1444 19.2774 51.0462C19.309 50.9481 19.363 50.8587 19.4351 50.7853C19.7077 50.49 20.0449 50.2625 20.42 50.1208C21.3463 49.7335 22.3493 49.5676 23.3501 49.6363C24.3815 49.6551 25.3845 49.9791 26.2339 50.568C26.9738 51.1859 27.4993 52.0244 27.7344 52.9623C28.0323 53.9152 28.125 54.9209 28.0062 55.9126C27.8228 56.9105 27.4416 57.861 26.8854 58.7076C26.3142 59.6579 25.5979 60.5709 24.5234 60.9436C24.2579 61.0398 23.7021 61.1796 23.5971 60.7914C23.4921 60.4032 23.7947 59.925 23.9892 59.6237C24.4194 58.9428 25.0465 58.4107 25.7862 58.0989C26.5 57.8111 27.2706 57.6942 28.037 57.7573C29.4913 57.866 30.9671 58.6299 31.4735 60.0833C31.7275 60.9519 31.7551 61.8717 31.5538 62.7541C31.3721 63.7214 31.0264 64.65 30.5318 65.4994C29.4678 67.3041 27.8564 68.7181 25.9344 69.5335C25.4774 69.7323 25.0081 69.9 24.5296 70.0552C24.4802 70.0739 24.5018 70.1981 24.5574 70.1888Z" fill="#E0E0E0"/>
<path d="M14.7425 43.2263C13.5075 43.1362 11.8062 44.1145 12.4114 44.8287C13.0166 45.543 14.6221 44.3877 14.6221 44.3877C14.6221 44.3877 14.4708 45.8318 14.9957 45.9964C15.5206 46.161 16.2307 44.7822 15.7058 43.9002C15.9589 44.0006 16.2332 44.035 16.5031 44.0002C16.773 43.9655 17.0298 43.8627 17.2496 43.7014C17.9968 43.1486 17.2064 42.6269 16.1535 42.7201C16.1535 42.7201 16.9069 40.2356 15.3847 40.7108C14.6221 40.9437 14.3535 41.8412 14.7425 43.2263Z" fill="#F06D06"/>
<path opacity="0.65" d="M14.7425 43.2263C13.5075 43.1362 11.8062 44.1145 12.4114 44.8287C13.0166 45.543 14.6221 44.3877 14.6221 44.3877C14.6221 44.3877 14.4708 45.8318 14.9957 45.9964C15.5206 46.161 16.2307 44.7822 15.7058 43.9002C15.9589 44.0006 16.2332 44.035 16.5031 44.0002C16.773 43.9655 17.0298 43.8627 17.2496 43.7014C17.9968 43.1486 17.2064 42.6269 16.1535 42.7201C16.1535 42.7201 16.9069 40.2356 15.3847 40.7108C14.6221 40.9437 14.3535 41.8412 14.7425 43.2263Z" fill="white"/>
<path d="M15.891 43.7541C15.8226 43.6868 15.7505 43.6236 15.6749 43.5647C15.5668 43.4808 15.4526 43.4001 15.3445 43.3194C15.2393 43.2424 15.1289 43.1729 15.0141 43.1113C14.9481 43.0744 14.88 43.0412 14.8103 43.0119C14.7141 42.9665 14.6071 42.9492 14.5016 42.9622C14.4739 42.963 14.447 42.9712 14.4236 42.9861C14.4002 43.0009 14.3812 43.0218 14.3686 43.0466C14.3559 43.0713 14.3502 43.099 14.3518 43.1268C14.3535 43.1546 14.3626 43.1814 14.3781 43.2044C14.463 43.2969 14.5689 43.3673 14.6868 43.4094L14.8536 43.4995C14.9678 43.5678 15.0697 43.6454 15.1623 43.7231C15.2549 43.8007 15.3785 43.8752 15.4711 43.9529C15.6303 44.0828 15.8084 44.1875 15.999 44.2634C16.0076 44.2681 16.0171 44.2705 16.0268 44.2705C16.0365 44.2705 16.0461 44.2681 16.0546 44.2634C16.2121 44.1392 15.9805 43.8442 15.891 43.7541Z" fill="#455A64"/>
</svg>
