<svg width="36" height="36" viewBox="0 0 36 36" fill="none" xmlns="http://www.w3.org/2000/svg">
<rect width="36" height="36" rx="18" fill="#F5F2FF"/>
<g clip-path="url(#clip0_1_10151)">
<path d="M20 21.3334C19.467 21.7483 18.7668 22 18 22C17.2332 22 16.533 21.7483 16 21.3334" stroke="#7F27FF" stroke-width="1.5" stroke-linecap="round"/>
<path d="M11.5673 18.809C11.3319 17.2775 11.2142 16.5118 11.5038 15.833C11.7933 15.1541 12.4357 14.6897 13.7204 13.7607L14.6803 13.0667C16.2785 11.9112 17.0776 11.3334 17.9997 11.3334C18.9217 11.3334 19.7208 11.9112 21.319 13.0667L22.2789 13.7607C23.5637 14.6897 24.206 15.1541 24.4956 15.833C24.7851 16.5118 24.6674 17.2775 24.4321 18.809L24.2314 20.115C23.8978 22.286 23.7309 23.3715 22.9523 24.0191C22.1737 24.6667 21.0355 24.6667 18.7589 24.6667H17.2405C14.9639 24.6667 13.8256 24.6667 13.047 24.0191C12.2684 23.3715 12.1016 22.286 11.768 20.115L11.5673 18.809Z" stroke="#7F27FF" stroke-width="1.5" stroke-linejoin="round"/>
</g>
<defs>
<clipPath id="clip0_1_10151">
<rect width="16" height="16" fill="white" transform="translate(10 10)"/>
</clipPath>
</defs>
</svg>
