<svg width="1176" height="124" viewBox="0 0 1176 124" fill="none" xmlns="http://www.w3.org/2000/svg">
<g clip-path="url(#clip0_40000016_20157)">
<rect width="1176" height="124" rx="10" fill="#05431E"/>
<g opacity="0.2">
<path opacity="0.0144928" d="M741.428 158.538L805.747 42.6722C808.689 37.3722 809.42 31.125 807.781 25.289L753.032 -169.609C751.742 -174.199 749.059 -178.275 745.352 -181.272L610.58 -290.272C603.859 -295.707 594.658 -296.916 586.762 -293.4L483.794 -247.556C475.898 -244.04 470.639 -236.394 470.181 -227.762L461.004 -54.6724C460.751 -49.9119 461.984 -45.1905 464.532 -41.1613L572.736 129.938C575.976 135.061 581.108 138.698 587.015 140.058L716.158 169.789C726.147 172.089 736.453 167.5 741.428 158.538Z" stroke="url(#paint0_linear_40000016_20157)" stroke-width="4"/>
<path opacity="0.0289855" d="M719.45 164.794L789.372 53.4447C792.601 48.3035 793.666 42.0944 792.335 36.1713L748.388 -159.42C747.34 -164.085 744.864 -168.308 741.304 -171.501L613.458 -286.16C607.032 -291.923 597.919 -293.603 589.859 -290.509L485.328 -250.384C477.269 -247.29 471.621 -239.944 470.702 -231.36L452.415 -60.6067C451.906 -55.8522 452.891 -51.0573 455.234 -46.8889L553.452 127.87C556.426 133.162 561.372 137.064 567.212 138.724L693.681 174.685C703.515 177.481 714.013 173.451 719.45 164.794Z" stroke="url(#paint1_linear_40000016_20157)" stroke-width="4"/>
<path opacity="0.0434783" d="M697.415 170.355L772.645 63.789C776.151 58.8221 777.549 52.6689 776.531 46.6747L743.307 -149.018C742.505 -153.747 740.244 -158.106 736.841 -161.486L616.142 -281.383C610.025 -287.458 601.024 -289.603 592.825 -286.939L487.045 -252.569C478.845 -249.905 472.825 -242.879 471.448 -234.369L444.273 -66.425C443.507 -61.6904 444.24 -56.8347 446.37 -52.5374L534.517 125.31C537.217 130.757 541.964 134.914 547.72 136.871L671.221 178.866C680.873 182.148 691.535 178.684 697.415 170.355Z" stroke="url(#paint2_linear_40000016_20157)" stroke-width="4"/>
<path opacity="0.057971" d="M675.361 175.228L755.591 73.6912C759.366 68.9136 761.093 62.834 760.392 56.7854L737.781 -138.427C737.227 -143.206 735.189 -147.691 731.953 -151.252L618.596 -275.956C612.804 -282.326 603.94 -284.929 595.623 -282.701L488.907 -254.106C480.591 -251.878 474.215 -245.192 472.385 -236.779L436.567 -72.1031C435.544 -67.402 436.022 -62.4985 437.932 -58.0829L515.956 122.282C518.374 127.87 522.909 132.272 528.567 134.522L648.816 182.34C658.264 186.097 669.058 183.205 675.361 175.228Z" stroke="url(#paint3_linear_40000016_20157)" stroke-width="4"/>
<path opacity="0.0724638" d="M653.323 179.414L738.233 83.1364C742.267 78.5627 744.319 72.5743 743.938 66.4878L731.797 -127.673C731.495 -132.49 729.687 -137.09 726.626 -140.822L620.782 -269.896C615.331 -276.545 606.626 -279.597 598.215 -277.809L490.876 -254.994C482.466 -253.206 475.755 -246.877 473.478 -238.586L429.285 -77.6198C428.007 -72.9658 428.225 -68.0278 429.909 -63.505L497.79 118.808C499.918 124.523 504.228 129.159 509.773 131.697L626.502 185.115C635.722 189.334 646.617 187.019 653.323 179.414Z" stroke="url(#paint4_linear_40000016_20157)" stroke-width="4"/>
<path opacity="0.0869565" d="M631.339 182.925L720.601 92.1132C724.882 87.7574 727.256 81.8775 727.197 75.7701L725.352 -116.784C725.306 -121.626 723.733 -126.329 720.858 -130.224L622.671 -263.23C617.572 -270.137 609.049 -273.629 600.569 -272.286L492.914 -255.236C484.434 -253.892 477.408 -247.937 474.693 -239.792L422.413 -82.9551C420.882 -78.3621 420.839 -73.403 422.291 -68.7843L480.04 114.916C481.871 120.743 485.945 125.601 491.363 128.421L604.319 187.205C613.287 191.872 624.252 190.136 631.339 182.925Z" stroke="url(#paint5_linear_40000016_20157)" stroke-width="4"/>
<path opacity="0.101449" d="M609.447 185.777L702.723 100.619C707.241 96.4948 709.929 90.7406 710.194 84.6292L718.444 -105.779C718.655 -110.631 717.323 -115.426 714.641 -119.476L624.232 -255.969C619.497 -263.117 611.179 -267.038 602.653 -266.142L494.989 -254.826C486.462 -253.93 479.142 -248.365 475.997 -240.389L415.942 -88.081C414.16 -83.5624 413.854 -78.5957 415.069 -73.8928L462.727 110.639C464.257 116.562 468.083 121.631 473.359 124.726L582.303 188.63C590.998 193.731 602.002 192.575 609.447 185.777Z" stroke="url(#paint6_linear_40000016_20157)" stroke-width="4"/>
<path opacity="0.115942" d="M587.682 187.954L684.627 108.619C689.368 104.738 692.365 99.1268 692.954 93.0283L711.069 -94.7084C711.537 -99.559 710.452 -104.433 707.971 -108.627L625.434 -248.163C621.075 -255.532 612.984 -259.87 604.434 -259.422L497.065 -253.795C488.515 -253.347 480.922 -248.187 477.357 -240.403L409.857 -93.0036C407.828 -88.573 407.259 -83.6124 408.231 -78.8374L445.871 105.977C447.094 111.981 450.662 117.249 455.783 120.612L560.489 189.38C568.891 194.898 579.903 194.32 587.682 187.954Z" stroke="url(#paint7_linear_40000016_20157)" stroke-width="4"/>
<path opacity="0.130435" d="M566.076 189.509L666.338 116.143C671.291 112.519 674.589 107.067 675.501 100.998L703.224 -83.5612C703.95 -88.3963 703.117 -93.3371 700.845 -97.6664L626.249 -239.799C622.276 -247.369 614.432 -252.111 605.883 -252.111H499.105C490.556 -252.111 482.713 -247.369 478.74 -239.799L404.144 -97.6664C401.872 -93.3371 401.038 -88.3963 401.765 -83.5613L429.488 100.998C430.399 107.067 433.698 112.519 438.65 116.143L538.912 189.509C547 195.427 557.989 195.427 566.076 189.509Z" stroke="url(#paint8_linear_40000016_20157)" stroke-width="4"/>
<path opacity="0.144928" d="M544.664 190.439L647.885 123.169C653.035 119.814 656.627 114.536 657.86 108.515L694.908 -72.3809C695.892 -77.1869 695.314 -82.1818 693.258 -86.6358L626.648 -230.921C623.07 -238.671 615.494 -243.802 606.97 -244.249L501.075 -249.799C492.551 -250.246 484.48 -245.934 480.112 -238.601L398.785 -102.068C396.274 -97.8537 395.177 -92.9467 395.654 -88.0641L413.59 95.7132C414.187 101.831 417.208 107.454 421.978 111.33L517.603 189.02C525.358 195.321 536.293 195.894 544.664 190.439Z" stroke="url(#paint9_linear_40000016_20157)" stroke-width="4"/>
<path opacity="0.15942" d="M523.478 190.734L629.298 129.667C634.631 126.59 638.507 121.504 640.059 115.547L686.125 -61.22C687.366 -65.9835 687.047 -71.0196 685.213 -75.588L626.61 -221.584C623.435 -229.494 616.146 -234.999 607.669 -235.89L502.944 -246.897C494.467 -247.788 486.193 -243.918 481.443 -236.841L393.766 -106.22C391.022 -102.133 389.663 -97.2734 389.886 -92.3559L398.194 90.1256C398.474 96.2756 401.207 102.057 405.783 106.175L496.595 187.909C503.999 194.572 514.85 195.713 523.478 190.734Z" stroke="url(#paint10_linear_40000016_20157)" stroke-width="4"/>
<path opacity="0.173913" d="M502.551 190.459L610.607 135.68C616.107 132.892 620.257 128.012 622.126 122.135L676.88 -50.059C678.376 -54.7665 678.318 -59.8308 676.713 -64.5024L626.112 -211.771C623.347 -219.819 616.364 -225.683 607.958 -227.014L504.68 -243.371C496.274 -244.703 487.821 -241.284 482.704 -234.484L389.071 -110.06C386.101 -106.113 384.481 -101.315 384.45 -96.3754L383.312 84.3107C383.274 90.477 385.712 96.4007 390.082 100.752L475.921 186.241C482.957 193.248 493.695 194.949 502.551 190.459Z" stroke="url(#paint11_linear_40000016_20157)" stroke-width="4"/>
<path opacity="0.188406" d="M481.908 189.613L591.833 141.185C597.486 138.695 601.899 134.036 604.08 128.257L667.17 -38.9447C668.92 -43.5826 669.124 -48.6619 667.753 -53.4256L625.128 -201.534C622.778 -209.699 616.118 -215.903 607.807 -217.67L506.245 -239.257C497.934 -241.024 489.327 -238.065 483.859 -231.561L384.677 -113.595C381.487 -109.801 379.608 -105.078 379.321 -100.129L368.949 78.2783C368.591 84.4446 370.727 90.4959 374.878 95.0699L455.603 184.022C462.255 191.351 472.85 193.603 481.908 189.613Z" stroke="url(#paint12_linear_40000016_20157)" stroke-width="4"/>
<path opacity="0.202899" d="M461.582 188.212L573.012 146.178C578.801 143.995 583.466 139.571 585.954 133.906L657.008 -27.9067C659.009 -32.4618 659.478 -37.5426 658.346 -42.387L623.645 -190.908C621.715 -199.168 615.395 -205.696 607.201 -207.891L507.617 -234.575C499.423 -236.77 490.686 -234.277 484.885 -228.089L380.572 -116.816C377.169 -113.187 375.036 -108.552 374.49 -103.607L355.119 72.054C354.441 78.2037 356.269 84.3674 360.19 89.1529L435.675 181.27C441.928 188.901 452.352 191.694 461.582 188.212Z" stroke="url(#paint13_linear_40000016_20157)" stroke-width="4"/>
<path opacity="0.217391" d="M441.598 186.285L554.166 150.668C560.075 148.799 564.979 144.624 567.768 139.089L646.397 -16.963C648.644 -21.422 649.379 -26.4909 648.49 -31.4042L621.64 -179.919C620.134 -188.253 614.169 -195.084 606.115 -197.701L508.762 -229.333C500.708 -231.95 491.867 -229.929 485.749 -224.072L376.733 -119.704C373.126 -116.251 370.741 -111.718 369.938 -106.79L341.825 65.676C340.828 71.7928 342.342 78.0531 346.023 83.0387L416.158 178.019C421.999 185.929 432.223 189.251 441.598 186.285Z" stroke="url(#paint14_linear_40000016_20157)" stroke-width="4"/>
<path opacity="0.231884" d="M421.983 183.864L535.327 154.666C541.338 153.118 546.469 149.204 549.552 143.816L635.35 -6.13186C637.839 -10.4816 638.839 -15.5252 638.198 -20.4955L619.104 -168.594C618.023 -176.979 612.429 -184.096 604.535 -187.125L509.655 -223.547C501.762 -226.576 492.843 -225.032 486.429 -219.523L373.142 -122.241C369.34 -118.976 366.708 -114.559 365.647 -109.661L329.073 59.1819C327.758 65.2493 328.952 71.5904 332.384 76.764L397.078 174.304C402.495 182.471 412.492 186.309 421.983 183.864Z" stroke="url(#paint15_linear_40000016_20157)" stroke-width="4"/>
<path opacity="0.246377" d="M402.756 180.959L516.515 158.162C522.613 156.94 527.956 153.301 531.326 148.074L623.87 4.54924C626.596 0.321661 627.861 -4.68296 627.471 -9.69805L616.017 -156.98C615.362 -165.395 610.151 -172.775 602.441 -176.208L510.265 -217.248C502.555 -220.681 493.583 -219.614 486.892 -214.47L369.776 -124.431C365.788 -121.365 362.915 -117.077 361.597 -112.222L316.862 52.5885C315.233 58.5902 316.103 64.9958 319.275 70.3449L378.453 170.139C383.435 178.54 393.179 182.879 402.756 180.959Z" stroke="url(#paint16_linear_40000016_20157)" stroke-width="4"/>
<path opacity="0.26087" d="M383.941 177.604L497.76 161.167C503.926 160.277 509.467 156.923 513.115 151.874L611.971 15.063C614.929 10.9703 616.457 6.01808 616.321 0.970585L612.37 -145.106C612.142 -153.528 607.327 -161.152 599.82 -164.977L510.569 -210.453C503.062 -214.278 494.064 -213.692 487.116 -208.926L366.615 -126.26C362.452 -123.404 359.344 -119.257 357.771 -114.459L305.194 45.9329C303.254 51.8526 303.798 58.3064 306.702 63.818L360.305 165.56C364.842 174.172 374.308 178.995 383.941 177.604Z" stroke="url(#paint17_linear_40000016_20157)" stroke-width="4"/>
<path opacity="0.275362" d="M365.56 173.842L479.088 163.709C485.304 163.154 491.028 160.097 494.946 155.24L599.666 25.4059C602.848 21.4605 604.638 16.5742 604.757 11.5068L608.153 -132.986C608.351 -141.394 603.943 -149.24 596.66 -153.445L510.542 -203.165C503.259 -207.37 494.26 -207.265 487.078 -202.889L363.641 -127.702C359.312 -125.065 355.975 -121.072 354.15 -116.343L294.07 39.2641C291.823 45.086 292.037 51.5713 294.665 57.232L342.654 160.616C346.737 169.413 355.9 174.704 365.56 173.842Z" stroke="url(#paint18_linear_40000016_20157)" stroke-width="4"/>
<path opacity="0.289855" d="M347.631 169.669L460.524 165.763C466.772 165.547 472.663 162.796 476.84 158.145L586.968 35.5234C590.368 31.7374 592.416 26.9306 592.793 21.8557L603.361 -120.689C603.982 -129.062 599.991 -137.107 592.95 -141.679L510.164 -195.442C503.123 -200.014 494.15 -200.387 486.755 -196.414L360.831 -128.782C356.348 -126.374 352.79 -122.547 350.715 -117.901L283.487 32.5799C280.937 38.2881 280.821 44.7884 283.164 50.5843L325.514 155.305C329.137 164.264 337.973 170.003 347.631 169.669Z" stroke="url(#paint19_linear_40000016_20157)" stroke-width="4"/>
<path opacity="0.304348" d="M330.169 165.141L442.089 167.365C448.35 167.49 454.392 165.055 458.819 160.624L573.888 45.421C577.498 41.8062 579.803 37.0921 580.437 32.0225L597.984 -108.224C599.025 -116.539 595.461 -124.762 588.681 -129.687L509.41 -187.281C502.631 -192.207 493.709 -193.055 486.123 -189.496L358.163 -129.469C353.537 -127.299 349.766 -123.651 347.444 -119.1L273.437 25.9368C270.591 31.5157 270.142 38.0142 272.196 43.9312L308.897 149.686C312.054 158.782 320.542 164.949 330.169 165.141Z" stroke="url(#paint20_linear_40000016_20157)" stroke-width="4"/>
<path opacity="0.318841" d="M313.19 160.276L423.808 168.518C430.066 168.984 436.242 166.873 440.905 162.675L560.444 55.0686C564.257 51.6365 566.813 47.0283 567.705 41.9767L592.023 -95.6358C593.478 -103.872 590.348 -112.249 583.848 -117.512L508.264 -178.719C501.764 -183.983 492.919 -185.303 485.165 -182.167L355.616 -129.77C350.86 -127.846 346.884 -124.388 344.32 -119.945L263.918 19.354C260.781 24.7883 260.001 31.2683 261.758 37.2919L292.819 143.78C295.505 152.988 303.624 159.563 313.19 160.276Z" stroke="url(#paint21_linear_40000016_20157)" stroke-width="4"/>
<path opacity="0.333333" d="M296.705 155.1L405.703 169.228C411.937 170.036 418.23 168.258 423.119 164.306L546.651 64.4434C550.656 61.2051 553.459 56.7159 554.61 51.695L585.472 -82.963C587.337 -91.0996 584.647 -99.6078 578.443 -105.193L506.704 -169.787C500.501 -175.373 491.758 -177.159 483.861 -174.454L353.167 -129.685C348.294 -128.016 344.122 -124.759 341.32 -120.437L254.917 12.8563C251.498 18.1313 250.387 24.5759 251.842 30.6913L277.286 137.616C279.498 146.912 287.228 153.872 296.705 155.1Z" stroke="url(#paint22_linear_40000016_20157)" stroke-width="4"/>
<path opacity="0.347826" d="M280.73 149.669L387.798 169.535C393.99 170.684 400.383 169.243 405.484 165.549L532.528 73.5516C536.717 70.5177 539.762 66.1602 541.17 61.1829L578.336 -70.2162C580.604 -78.2327 578.359 -86.8488 572.468 -92.7397L504.72 -160.488C498.829 -166.379 490.213 -168.624 482.196 -166.356L350.797 -129.19C345.82 -127.782 341.462 -124.737 338.429 -120.548L246.431 6.4964C242.737 11.5974 241.296 17.9899 242.445 24.1821L262.312 131.25C264.048 140.61 271.37 147.932 280.73 149.669Z" stroke="url(#paint23_linear_40000016_20157)" stroke-width="4"/>
<path opacity="0.362319" d="M265.271 143.978L370.112 169.418C376.243 170.906 382.717 169.81 388.017 166.385L518.092 82.3423C522.456 79.5233 525.736 75.3102 527.4 70.389L570.617 -57.4642C573.279 -65.3406 571.484 -74.0407 565.92 -80.2194L502.294 -150.884C496.731 -157.062 488.266 -159.758 480.154 -157.933L348.484 -128.317C343.416 -127.177 338.883 -124.355 335.623 -120.31L238.444 0.267885C234.485 5.18074 232.718 11.5045 233.556 17.7583L247.899 124.684C249.159 134.081 256.057 141.742 265.271 143.978Z" stroke="url(#paint24_linear_40000016_20157)" stroke-width="4"/>
<path opacity="0.376812" d="M250.336 138.081L352.664 168.917C358.717 170.741 365.254 169.993 370.738 166.849L503.364 90.823C507.891 88.2284 511.4 84.172 513.317 79.3197L562.319 -44.7185C565.368 -52.4352 564.024 -61.1956 558.803 -67.6436L499.415 -140.981C494.193 -147.429 485.904 -150.565 477.722 -149.188L346.206 -127.045C341.061 -126.179 336.364 -123.589 332.885 -119.702L230.946 -5.78047C226.73 -1.06938 224.639 5.1692 225.165 11.4692L234.052 117.972C234.837 127.382 241.295 135.356 250.336 138.081Z" stroke="url(#paint25_linear_40000016_20157)" stroke-width="4"/>
<path opacity="0.391304" d="M235.931 132.018L335.471 168.055C341.426 170.211 348.008 169.816 353.663 166.962L488.359 98.9873C493.037 96.6264 496.769 92.7388 498.936 87.9679L553.445 -32.0023C556.87 -39.5402 555.979 -48.3372 551.113 -55.0355L496.068 -130.798C491.201 -137.497 483.11 -141.062 474.883 -140.134L343.94 -125.366C338.733 -124.779 333.882 -122.431 330.191 -118.711L223.92 -11.6133C219.458 -7.11709 217.049 -0.980039 217.259 5.35051L220.773 111.155C221.085 120.554 227.088 128.816 235.931 132.018Z" stroke="url(#paint26_linear_40000016_20157)" stroke-width="4"/>
<path opacity="0.405797" d="M222.059 125.788L318.552 166.819C324.393 169.303 331 169.262 336.809 166.708L473.1 106.79C477.919 104.671 481.865 100.964 484.28 96.2873L544.008 -19.3822C547.799 -26.723 547.361 -35.5328 542.861 -42.4616L492.248 -120.399C487.748 -127.328 479.878 -131.311 471.63 -130.834L341.668 -123.317C336.413 -123.013 331.421 -120.916 327.526 -117.375L217.353 -17.2383C212.657 -12.9697 209.933 -6.95036 209.826 -0.604875L208.063 104.235C207.905 113.599 213.441 122.123 222.059 125.788Z" stroke="url(#paint27_linear_40000016_20157)" stroke-width="4"/>
<path opacity="0.42029" d="M208.723 119.459L301.923 165.265C307.63 168.07 314.244 168.387 320.192 166.14L457.608 114.257C462.555 112.389 466.707 108.874 469.366 104.303L534.015 -6.85145C538.16 -13.9772 538.174 -22.7761 534.052 -29.915L487.945 -109.774C483.824 -116.913 476.197 -121.3 467.953 -121.274L339.366 -120.863C334.078 -120.846 328.958 -119.008 324.867 -115.658L211.226 -22.5943C206.307 -18.5654 203.275 -12.6795 202.85 -6.33482L195.919 97.2819C195.297 106.586 200.354 115.345 208.723 119.459Z" stroke="url(#paint28_linear_40000016_20157)" stroke-width="4"/>
<path opacity="0.434783" d="M195.923 113.036L285.599 163.384C291.154 166.504 297.755 167.178 303.827 165.248L441.904 121.35C446.966 119.74 451.315 116.428 454.213 111.976L523.479 5.53211C527.965 -1.36159 528.428 -10.126 524.694 -17.4543L483.155 -98.9796C479.421 -106.308 472.058 -111.085 463.844 -111.507L337.016 -118.036C331.711 -118.309 326.475 -116.737 322.197 -113.588L205.523 -27.6844C200.392 -23.9067 197.058 -18.1699 196.316 -11.8417L184.339 90.3018C183.258 99.5231 187.827 108.49 195.923 113.036Z" stroke="url(#paint29_linear_40000016_20157)" stroke-width="4"/>
<path opacity="0.449275" d="M183.655 106.56L269.591 161.209C274.979 164.635 281.548 165.667 287.726 164.06L426.008 128.072C431.173 126.728 435.71 123.629 438.841 119.307L512.412 17.75C517.226 11.1047 518.135 2.39806 514.797 -5.09825L477.872 -88.034C474.534 -95.5303 467.455 -100.681 459.296 -101.55L334.596 -114.831C329.289 -115.396 323.95 -114.098 319.495 -111.159L200.223 -32.4761C194.893 -28.9605 191.265 -23.3879 190.206 -17.092L173.316 83.3378C171.783 92.453 175.856 101.6 183.655 106.56Z" stroke="url(#paint30_linear_40000016_20157)" stroke-width="4"/>
<path opacity="0.463768" d="M171.923 100.048L253.918 158.744C259.12 162.468 265.638 163.857 271.906 162.577L409.947 134.399C415.202 133.327 419.916 130.452 423.276 126.271L500.833 29.7582C505.961 23.377 507.311 14.7511 504.377 7.10848L472.098 -76.9813C469.164 -84.6239 462.389 -90.1311 454.309 -91.442L332.092 -111.269C326.799 -112.128 321.371 -111.11 316.749 -108.391L195.309 -36.9639C189.795 -33.7205 185.881 -28.3271 184.507 -22.079L162.848 76.406C160.871 85.3926 164.441 94.6924 171.923 100.048Z" stroke="url(#paint31_linear_40000016_20157)" stroke-width="4"/>
<path opacity="0.478261" d="M160.713 93.5567L238.584 156.038C243.584 160.05 250.031 161.793 256.372 160.847L393.737 140.353C399.068 139.558 403.949 136.916 407.53 132.889L488.753 41.5567C494.18 35.4543 495.964 26.9318 493.44 19.165L465.826 -65.823C463.303 -73.5898 456.85 -79.436 448.872 -81.1832L329.478 -107.331C324.214 -108.484 318.712 -107.752 313.932 -105.262L190.755 -41.1007C185.069 -38.1392 180.878 -32.9393 179.191 -26.7547L152.918 69.565C150.507 78.401 153.569 87.8249 160.713 93.5567Z" stroke="url(#paint32_linear_40000016_20157)" stroke-width="4"/>
<path opacity="0.492754" d="M150.021 87.1062L223.6 153.104C228.382 157.393 234.74 159.487 241.135 158.879L377.404 145.92C382.795 145.407 387.833 143.008 391.629 139.145L476.191 53.1106C481.902 47.3009 484.113 38.904 482.004 31.0354L459.059 -54.597C456.951 -62.4656 450.837 -68.6319 442.987 -70.8082L326.737 -103.036C321.518 -104.482 315.956 -104.041 311.03 -101.789L186.538 -44.878C180.696 -42.2072 176.237 -37.2148 174.24 -31.1091L143.518 62.8357C140.685 71.4998 143.236 81.0196 150.021 87.1062Z" stroke="url(#paint33_linear_40000016_20157)" stroke-width="4"/>
<path opacity="0.507246" d="M139.844 80.7094L208.979 149.946C213.528 154.502 219.777 156.942 226.209 156.675L360.972 151.078C366.411 150.852 371.593 148.705 375.598 145.017L463.171 64.3784C469.149 58.8744 471.779 50.6248 470.089 42.6769L451.804 -43.3471C450.115 -51.2951 444.357 -57.7618 436.658 -60.3588L323.856 -98.4067C318.698 -100.146 313.091 -100 308.03 -97.9947L182.641 -48.2948C176.657 -45.9228 171.941 -41.1514 169.638 -35.1399L134.641 56.2311C131.396 64.7027 133.434 74.2901 139.844 80.7094Z" stroke="url(#paint34_linear_40000016_20157)" stroke-width="4"/>
<path opacity="0.521739" d="M130.163 74.4009L194.723 146.595C199.023 151.404 205.145 154.185 211.595 154.262L344.46 155.833C349.931 155.897 355.246 154.009 359.45 150.508L449.708 75.3429C455.935 70.1567 458.974 62.0756 457.706 54.0711L444.059 -32.0953C442.791 -40.0998 437.404 -46.8464 429.878 -49.8544L320.811 -93.4496C315.731 -95.4803 310.093 -95.6334 304.909 -93.8812L179.033 -51.3298C172.922 -49.264 167.959 -44.7265 165.355 -38.8243L126.265 49.7861C122.621 58.0451 124.146 67.672 130.163 74.4009Z" stroke="url(#paint35_linear_40000016_20157)" stroke-width="4"/>
<path opacity="0.536232" d="M120.976 68.2277L180.842 143.091C184.88 148.14 190.856 151.257 197.307 151.678L327.896 160.202C333.385 160.56 338.82 158.939 343.216 155.634L435.829 86.0019C442.289 81.1446 445.726 73.2527 444.881 65.2143L435.835 -20.8485C434.99 -28.8869 429.988 -35.8919 422.659 -39.2999L317.593 -88.1552C312.606 -90.4743 306.952 -90.9294 301.658 -89.4378L175.695 -53.9495C169.472 -52.1964 164.275 -47.9053 161.375 -42.1272L118.382 43.5475C114.353 51.575 115.366 61.2131 120.976 68.2277Z" stroke="url(#paint36_linear_40000016_20157)" stroke-width="4"/>
<path opacity="0.550725" d="M112.264 62.1875L167.34 139.43C171.101 144.705 176.913 148.149 183.346 148.916L311.301 164.157C316.791 164.811 322.334 163.465 326.913 160.366L421.554 96.3062C428.229 91.7879 432.052 84.105 431.63 76.0555L427.138 -9.66215C426.716 -17.7117 422.111 -24.953 415 -28.7487L314.182 -82.5646C309.304 -85.1686 303.651 -85.9279 298.258 -84.7035L172.598 -56.1704C166.28 -54.7358 160.86 -50.703 157.671 -45.0634L110.971 37.5126C106.573 45.2905 107.077 54.912 112.264 62.1875Z" stroke="url(#paint37_linear_40000016_20157)" stroke-width="4"/>
<path opacity="0.565217" d="M104.016 56.3178L154.218 135.645C157.691 141.131 163.32 144.895 169.718 146.006L294.696 167.713C300.173 168.664 305.81 167.599 310.563 164.714L406.908 106.249C413.779 102.079 417.975 94.624 417.975 86.586V1.45039C417.975 -6.58754 413.779 -14.0423 406.908 -18.2123L310.563 -76.678C305.81 -79.5624 300.173 -80.6275 294.696 -79.6761L169.718 -57.9695C163.32 -56.8584 157.691 -53.095 154.218 -47.6083L104.016 31.7187C99.2626 39.2295 99.2626 48.8069 104.016 56.3178Z" stroke="url(#paint38_linear_40000016_20157)" stroke-width="4"/>
<path opacity="0.57971" d="M96.2148 50.6553L141.481 131.771C144.652 137.453 150.082 141.527 156.425 142.981L278.104 170.882C283.553 172.132 289.271 171.354 294.188 168.694L391.914 115.824C398.964 112.011 403.519 104.803 403.939 96.7988L408.358 12.4767C408.777 4.47294 405 -3.17202 398.388 -7.70162L306.724 -70.4962C302.112 -73.6559 296.506 -75.0274 290.956 -74.3543L167.027 -59.3249C160.567 -58.5415 154.741 -55.0581 150.993 -49.7381L97.4964 26.2015C92.4048 33.429 91.9066 42.9352 96.2148 50.6553Z" stroke="url(#paint39_linear_40000016_20157)" stroke-width="4"/>
<path opacity="0.594203" d="M88.8431 45.1902L129.126 127.798C131.985 133.66 137.198 138.033 143.468 139.829L261.548 173.638C266.953 175.186 272.738 174.7 277.809 172.273L376.6 124.985C383.808 121.534 388.709 114.59 389.544 106.643L398.297 23.3594C399.133 15.4121 395.783 7.60086 389.45 2.72747L302.649 -64.067C298.194 -67.4958 292.636 -69.1738 287.027 -68.7837L164.499 -60.263C157.992 -59.8105 151.984 -56.617 147.969 -51.4773L91.3908 20.9502C85.9782 27.8791 84.9894 37.2874 88.8431 45.1902Z" stroke="url(#paint40_linear_40000016_20157)" stroke-width="4"/>
<path opacity="0.608696" d="M81.8844 39.9802L117.156 123.784C119.692 129.809 124.671 134.47 130.85 136.603L245.049 176.021C250.394 177.866 256.232 177.677 261.447 175.49L360.991 133.751C368.338 130.67 373.568 124.007 374.814 116.138L387.806 34.1117C389.052 26.2429 386.138 18.2896 380.102 13.0893L298.328 -57.3683C294.044 -61.0595 288.55 -63.043 282.896 -62.9401L162.107 -60.7409C155.571 -60.6219 149.395 -57.7276 145.121 -52.7811L85.6791 16.0216C79.9634 22.6374 78.4928 31.9219 81.8844 39.9802Z" stroke="url(#paint41_linear_40000016_20157)" stroke-width="4"/>
<path opacity="0.623188" d="M75.3197 35.0174L105.568 119.722C107.771 125.892 112.502 130.83 118.572 133.296L228.629 178.008C233.899 180.149 239.775 180.261 245.123 178.323L345.115 142.081C352.582 139.375 358.124 133.008 359.775 125.24L376.898 44.6823C378.55 36.9139 376.076 28.8432 370.356 23.3339L293.749 -50.4444C289.652 -54.3903 284.238 -56.6779 278.553 -56.8655L159.824 -60.7836C153.276 -60.9997 146.947 -58.4129 142.424 -53.6724L80.3385 11.4062C74.3381 17.6958 72.3963 26.831 75.3197 35.0174Z" stroke="url(#paint42_linear_40000016_20157)" stroke-width="4"/>
<path opacity="0.637681" d="M69.1294 30.3529L94.3598 115.666C96.2221 121.963 100.687 127.164 106.63 129.958L212.31 179.639C217.488 182.073 223.389 182.49 228.858 180.807L329 149.998C336.567 147.67 342.404 141.614 344.453 133.968L365.591 55.0824C367.639 47.4355 365.612 39.2724 360.223 33.4731L288.902 -43.2793C285.007 -47.4713 279.688 -50.0606 273.986 -50.5416L157.625 -60.3565C151.081 -60.9084 144.614 -58.637 139.852 -54.1146L75.3457 7.15345C69.0798 13.1047 66.6787 22.066 69.1294 30.3529Z" stroke="url(#paint43_linear_40000016_20157)" stroke-width="4"/>
<path opacity="0.652174" d="M63.2931 25.9681L83.5277 111.6C85.0413 118.005 89.2269 123.456 95.0251 126.571L196.112 180.885C201.184 183.61 207.093 184.334 212.672 182.914L312.675 157.455C320.321 155.508 326.436 149.777 328.874 142.273L353.899 65.2553C356.337 57.751 354.759 49.5206 349.717 43.4511L283.778 -35.9255C280.099 -40.3542 274.892 -43.242 269.188 -44.0185L155.482 -59.4947C148.96 -60.3824 142.37 -58.4333 137.38 -54.1406L70.6769 3.24315C64.1653 8.84505 61.3178 17.6086 63.2931 25.9681Z" stroke="url(#paint44_linear_40000016_20157)" stroke-width="4"/>
<path opacity="0.666667" d="M57.7859 21.8969L73.063 107.561C74.2213 114.057 78.1132 119.742 83.7493 123.171L180.052 181.775C185.001 184.786 190.904 185.82 196.582 184.667L296.163 164.461C303.87 162.897 310.243 157.504 313.061 150.163L341.837 75.1994C344.655 67.8579 343.527 59.5855 338.847 53.2665L278.364 -28.3824C274.916 -33.0377 269.837 -36.2202 264.144 -37.2936L153.364 -58.1817C146.881 -59.4042 140.185 -57.7836 134.978 -53.7318L66.3038 -0.292958C59.5665 4.94971 56.2871 13.4927 57.7859 21.8969Z" stroke="url(#paint45_linear_40000016_20157)" stroke-width="4"/>
<path opacity="0.681159" d="M52.5899 18.1637L62.9641 103.581C63.7614 110.146 67.3461 116.05 72.8031 119.786L164.153 182.328C168.964 185.621 174.847 186.965 180.61 186.087L279.499 171.021C287.246 169.841 293.859 164.798 297.047 157.639L329.429 84.9071C332.616 77.7481 331.939 69.4589 327.633 62.912L272.659 -20.6573C269.455 -25.5283 264.52 -29.0006 258.853 -30.3719L151.251 -56.41C144.823 -57.9654 138.037 -56.6787 132.624 -52.8784L62.2051 -3.43248C55.2627 1.44226 51.5671 9.74266 52.5899 18.1637Z" stroke="url(#paint46_linear_40000016_20157)" stroke-width="4"/>
<path opacity="0.695652" d="M47.6783 14.7632L53.2195 99.6591C53.6513 106.274 56.9163 112.381 62.1775 116.415L148.431 182.536C153.088 186.107 158.934 187.762 164.772 187.163L262.707 177.113C270.475 176.315 277.307 171.632 280.852 164.675L316.688 94.3424C320.233 87.385 320.006 79.1044 316.085 72.3517L266.651 -12.7868C263.704 -17.8618 258.929 -21.6185 253.303 -23.2878L149.111 -54.2025C142.756 -56.0882 135.896 -55.14 130.29 -51.601L58.3511 -6.18328C51.2244 -1.68397 47.1294 6.35292 47.6783 14.7632Z" stroke="url(#paint47_linear_40000016_20157)" stroke-width="4"/>
<path opacity="0.710145" d="M43.0341 11.7071L43.8275 95.8137C43.8902 102.459 46.8239 108.752 51.8729 113.072L132.908 182.413C137.397 186.254 143.191 188.22 149.09 187.905L245.822 182.732C253.59 182.316 260.622 178.002 264.512 171.265L303.641 103.491C307.531 96.7533 307.752 88.5062 304.227 81.5707L260.341 -4.78796C257.665 -10.0544 253.065 -14.0891 247.494 -16.0559L146.926 -51.5639C140.66 -53.7763 133.743 -53.1704 127.957 -49.9022L54.7215 -8.53602C47.4317 -4.41843 42.9551 3.33516 43.0341 11.7071Z" stroke="url(#paint48_linear_40000016_20157)" stroke-width="4"/>
<path opacity="0.724638" d="M38.6243 9.01761L34.7695 92.0752C34.4607 98.7295 37.0521 105.191 41.8734 109.788L117.594 181.983C121.898 186.088 127.625 188.365 133.573 188.337L228.863 187.891C236.613 187.854 243.824 183.917 248.045 177.417L290.301 112.349C294.522 105.85 295.185 97.6612 292.066 90.5664L253.716 3.33261C251.322 -2.11204 246.913 -6.41778 241.412 -8.68086L144.66 -48.4901C138.5 -51.0248 131.543 -50.7641 125.59 -47.7754L51.2806 -10.4713C43.849 -6.74056 39.0098 0.711046 38.6243 9.01761Z" stroke="url(#paint49_linear_40000016_20157)" stroke-width="4"/>
<path opacity="0.73913" d="M34.4317 6.70457L26.0424 88.4616C25.3607 95.1047 27.6 101.716 32.1782 106.578L102.511 181.263C106.616 185.623 112.261 188.209 118.244 188.472L211.867 192.591C219.58 192.93 226.948 189.378 231.486 183.132L276.694 120.908C281.232 114.663 282.334 106.557 279.628 99.3271L246.779 11.5584C244.68 5.94955 240.476 1.38064 235.061 -1.1769L142.297 -44.9879C136.259 -47.8397 129.279 -47.9263 123.172 -45.2252L48.0084 -11.9822C40.4565 -8.64214 35.2746 -1.50994 34.4317 6.70457Z" stroke="url(#paint50_linear_40000016_20157)" stroke-width="4"/>
<path opacity="0.753623" d="M30.4301 4.77452L17.6333 84.9883C16.5786 91.5992 18.4566 98.3416 22.7771 103.455L87.6715 180.265C91.5639 184.872 97.1102 187.766 103.116 188.323L194.859 196.834C202.515 197.544 210.019 194.382 214.858 188.407L262.84 129.153C267.679 123.178 269.212 115.18 266.926 107.839L239.526 19.8703C237.732 14.1119 233.749 9.28839 228.433 6.43889L139.81 -41.0678C133.909 -44.2307 126.924 -44.6658 120.677 -42.2597L44.8764 -13.0651C37.2256 -10.1184 31.7218 -3.32178 30.4301 4.77452Z" stroke="url(#paint51_linear_40000016_20157)" stroke-width="4"/>
<path opacity="0.768116" d="M26.5938 3.21415L9.52911 81.6525C8.1024 88.2104 9.61123 95.0644 13.6599 100.417L73.0906 178.987C76.7554 183.832 82.1882 187.031 88.2029 187.884L177.866 200.607C185.447 201.682 193.066 198.915 198.189 193.225L248.763 137.058C253.886 131.367 255.842 123.501 253.98 116.074L231.955 28.2318C230.477 22.3392 226.728 17.2705 221.527 14.1322L137.175 -36.76C131.428 -40.2271 124.454 -41.0112 118.081 -38.9068L41.8563 -13.7365C34.1281 -11.1846 28.324 -4.73847 26.5938 3.21415Z" stroke="url(#paint52_linear_40000016_20157)" stroke-width="4"/>
<path opacity="0.782609" d="M22.8982 2.06461L1.71719 78.5058C-0.0794519 84.9898 1.05318 91.9354 4.8167 97.5126L58.7806 177.484C62.2039 182.557 67.5077 186.056 73.5184 187.208L160.916 203.951C168.403 205.386 176.116 203.016 181.507 197.625L234.482 144.65C239.873 139.259 242.242 131.547 240.808 124.059L224.065 36.6616C222.913 30.6509 219.414 25.347 214.341 21.9238L134.369 -32.0401C128.792 -35.8036 121.847 -36.9363 115.363 -35.1396L38.9214 -13.9586C31.1373 -11.8017 25.0551 -5.71953 22.8982 2.06461Z" stroke="url(#paint53_linear_40000016_20157)" stroke-width="4"/>
<path opacity="0.797101" d="M19.3178 1.2836L-5.81668 75.517C-7.97996 81.9062 -7.22947 88.9229 -3.76385 94.71L44.7531 175.726C47.9212 181.017 53.0808 184.813 59.074 186.264L144.033 206.83C151.41 208.616 159.194 206.647 164.835 201.568L220.021 151.878C225.662 146.799 228.434 139.264 227.429 131.741L215.856 45.0971C215.039 38.9851 211.803 33.4568 206.873 29.7531L131.372 -26.9666C125.978 -31.0181 119.079 -32.4979 112.498 -31.0144L36.0443 -13.777C28.2255 -12.0142 21.8883 -6.30814 19.3178 1.2836Z" stroke="url(#paint54_linear_40000016_20157)" stroke-width="4"/>
<path opacity="0.811594" d="M15.8305 0.912636L-13.0839 72.7385C-15.6094 79.012 -15.2459 86.0791 -12.0901 92.0604L31.0213 173.772C33.9211 179.268 38.9213 183.356 44.8836 185.107L127.246 209.292C134.496 211.42 142.329 209.853 148.201 205.098L205.403 158.776C211.275 154.021 214.437 146.685 213.862 139.151L207.33 53.5605C206.857 47.3645 203.897 41.6234 199.124 37.6444L128.162 -21.5137C122.968 -25.8441 116.131 -27.6689 109.469 -26.503L33.2012 -13.1539C25.3687 -11.7829 18.8 -6.46365 15.8305 0.912636Z" stroke="url(#paint55_linear_40000016_20157)" stroke-width="4"/>
<path opacity="0.826087" d="M12.4103 0.932107L-20.1008 70.1635C-22.9829 76.3007 -23.0102 83.3969 -20.1754 89.5561L17.5941 171.62C20.2127 177.309 25.0384 181.685 30.9564 183.736L110.579 211.328C117.684 213.79 125.545 212.623 131.629 208.203L190.65 165.322C196.734 160.901 200.273 153.786 200.127 146.267L198.49 62.0156C198.368 55.7535 195.698 49.8118 191.096 45.5632L124.72 -15.7168C119.739 -20.3161 112.981 -22.483 106.254 -21.6385L30.3644 -12.1123C22.539 -11.13 15.7627 -6.20669 12.4103 0.932107Z" stroke="url(#paint56_linear_40000016_20157)" stroke-width="4"/>
<path opacity="0.84058" d="M9.03402 1.3418L-26.8817 67.8043C-30.1136 73.7848 -30.5343 80.8886 -28.0309 87.2088L4.48121 169.291C6.8064 175.161 11.4427 179.817 17.3029 182.168L94.056 212.952C101.002 215.738 108.868 214.97 115.145 210.895L175.786 171.513C182.063 167.438 185.964 160.563 186.244 153.085L189.339 70.4463C189.575 64.1367 187.207 58.0074 182.79 53.4955L121.028 -9.59151C116.273 -14.4491 109.612 -16.9541 102.834 -16.4342L27.5094 -10.6563C19.7116 -10.0581 12.7521 -5.53856 9.03402 1.3418Z" stroke="url(#paint57_linear_40000016_20157)" stroke-width="4"/>
<path opacity="0.855072" d="M5.67376 2.14172L-33.4465 65.6741C-37.0201 71.4778 -37.8357 78.5675 -35.6732 85.031L-8.31354 166.807C-6.29359 172.845 -1.8615 177.775 3.92761 180.424L77.6973 214.182C84.4679 217.28 92.3194 216.909 98.7677 213.186L160.83 177.354C167.278 173.631 171.526 167.017 172.228 159.605L179.878 78.8395C180.478 72.5015 178.424 66.1981 174.206 61.43L117.065 -3.15238C112.549 -8.2569 106.001 -11.0955 99.1882 -10.9025L24.6074 -8.78958C16.8571 -8.57002 9.73904 -4.46042 5.67376 2.14172Z" stroke="url(#paint58_linear_40000016_20157)" stroke-width="4"/>
<path opacity="0.869565" d="M2.31466 3.3279L-39.8024 63.7819C-43.7087 69.389 -44.9195 76.4427 -43.1065 83.0314L-20.775 164.189C-19.0716 170.379 -14.8582 175.576 -9.15364 178.522L61.5324 215.03C68.1136 218.429 75.9289 218.45 82.5286 215.088L145.811 182.844C152.411 179.481 156.987 173.146 158.106 165.823L170.118 87.1785C171.088 80.8316 169.36 74.3684 165.353 69.3516L112.822 3.58208C108.557 -1.7574 102.139 -4.92397 95.3065 -5.05943L21.6423 -6.52002C13.9591 -6.67236 6.70747 -2.97746 2.31466 3.3279Z" stroke="url(#paint59_linear_40000016_20157)" stroke-width="4"/>
<path opacity="0.884058" d="M-1.07441 4.87955L-45.9748 62.1214C-50.2036 67.5124 -51.8086 74.5081 -50.3528 81.2034L-32.9064 161.441C-31.5303 167.769 -27.5499 173.225 -21.9431 176.466L45.5749 215.5C51.9529 219.187 59.7112 219.596 66.4414 216.6L130.744 187.97C137.475 184.974 142.362 178.934 143.89 171.727L160.06 95.433C161.403 89.0974 160.012 82.4892 156.23 77.232L108.276 10.5773C104.275 5.0155 98.0017 1.52723 91.1658 1.06248L18.5826 -3.8723C10.9855 -4.38881 3.6252 -1.1118 -1.07441 4.87955Z" stroke="url(#paint60_linear_40000016_20157)" stroke-width="4"/>
<path opacity="0.898551" d="M-4.51027 6.82388L-51.9746 60.733C-56.5143 65.8891 -58.5115 72.8047 -57.4197 79.5872L-44.6975 158.617C-43.659 165.068 -39.9257 170.773 -34.4297 174.307L29.8494 215.641C36.0114 219.603 43.6924 220.393 50.5318 217.768L115.656 192.769C122.495 190.144 127.675 184.417 129.603 177.349L149.714 103.621C151.433 97.3173 150.39 90.5797 146.845 85.0907L103.418 17.8473C99.6914 12.0763 93.5798 8.27344 86.756 7.47935L15.4109 -0.823128C7.91827 -1.69505 0.474383 1.1624 -4.51027 6.82388Z" stroke="url(#paint61_linear_40000016_20157)" stroke-width="4"/>
<path opacity="0.913043" d="M-8.01602 9.11057L-57.8203 59.5809C-62.6586 64.4838 -65.0447 71.2971 -64.3225 78.1474L-56.147 155.696C-55.4557 162.254 -51.9831 168.199 -46.6112 172.023L14.3735 215.431C20.3074 219.655 27.8912 220.818 34.8183 218.567L100.566 197.205C107.493 194.954 112.944 189.555 115.262 182.65L139.086 111.686C141.184 105.435 140.499 98.5844 137.204 92.873L98.2356 25.3291C94.7934 19.3626 88.8582 15.2531 82.0622 14.1303L12.1039 2.57322C4.73357 1.35565 -2.76899 3.79337 -8.01602 9.11057Z" stroke="url(#paint62_linear_40000016_20157)" stroke-width="4"/>
<path opacity="0.927536" d="M-11.6131 11.7592L-63.5296 58.6988C-68.6527 63.3307 -71.4231 70.0197 -71.0753 76.9176L-67.2531 152.727C-66.9179 159.375 -63.7198 165.551 -58.4846 169.66L-0.836214 214.917C4.8585 219.388 12.3258 220.916 19.319 219.042L85.4937 201.311C92.4869 199.437 98.1896 194.38 100.886 187.661L128.183 119.643C130.662 113.466 130.343 106.519 127.31 100.594L92.7153 33.03C89.5676 26.8824 83.8238 22.4748 77.0711 21.0249L8.64028 6.33232C1.40929 4.77978 -6.12715 6.79916 -11.6131 11.7592Z" stroke="url(#paint63_linear_40000016_20157)" stroke-width="4"/>
<path opacity="0.942029" d="M-15.3206 14.7424L-69.1189 58.0737C-74.5121 62.4176 -77.661 68.9604 -77.6913 75.8854L-78.0142 149.714C-78.0436 156.434 -75.133 162.83 -70.0474 167.222L-15.7627 214.103C-10.3175 218.805 -2.98538 220.689 4.0522 219.193L70.4607 205.077C77.4983 203.581 83.4304 198.879 86.4922 192.368L117.016 127.46C119.875 121.38 119.932 114.353 117.173 108.226L86.8487 40.9114C84.0044 34.5974 78.4665 29.9011 71.7727 28.1263L5.00112 10.4229C-2.07422 8.547 -9.62 10.1509 -15.3206 14.7424Z" stroke="url(#paint64_linear_40000016_20157)" stroke-width="4"/>
<path opacity="0.956522" d="M-19.1568 18.0602L-74.6042 57.72C-80.2519 61.7596 -83.7723 68.1344 -84.1833 75.0659L-88.4297 146.689C-88.8313 153.462 -86.2212 160.068 -81.2977 164.738L-30.3906 213.021C-25.2041 217.94 -18.0252 220.168 -10.9649 219.05L55.4871 208.525C62.5474 207.407 68.6864 203.069 72.0989 196.788L105.594 135.137C108.834 129.174 109.275 122.086 106.8 115.767L80.6284 48.9623C78.0956 42.4971 72.7775 37.5221 66.158 35.4255L1.16879 14.8409C-5.73539 12.6541 -13.2663 13.8469 -19.1568 18.0602Z" stroke="url(#paint65_linear_40000016_20157)" stroke-width="4"/>
<path opacity="0.971014" d="M-23.1416 21.7001L-80.0037 57.6391C-85.889 61.3588 -89.7726 67.5442 -90.5658 74.4611L-98.5017 143.67C-99.2826 150.479 -96.9855 157.283 -92.2364 162.225L-44.7078 211.691C-39.7884 216.811 -32.7801 219.372 -25.7187 218.629L40.5889 211.66C47.6503 210.918 53.973 206.956 57.7204 200.925L93.9259 142.659C97.5436 136.837 98.376 129.705 96.1964 123.206L74.0446 57.1599C71.8307 50.5591 66.7459 45.3163 60.2158 42.9015L-2.87591 19.5701C-9.59425 17.0856 -17.0866 17.8731 -23.1416 21.7001Z" stroke="url(#paint66_linear_40000016_20157)" stroke-width="4"/>
<path opacity="0.985507" d="M-27.2897 25.6363L-85.3337 57.8207C-91.4389 61.2059 -95.6762 67.1807 -96.8519 74.0618L-108.232 140.668C-109.399 147.495 -107.427 154.484 -102.864 159.694L-58.7007 210.128C-54.0558 215.433 -47.2345 218.314 -40.1935 217.945L25.788 214.487C32.8291 214.118 39.3118 210.54 43.3768 204.779L82.0268 150.005C86.0197 144.346 87.2502 137.189 85.3766 130.522L67.0962 65.4697C65.2076 58.7491 60.369 53.25 53.9435 50.5215L-7.14678 24.5806C-13.6655 21.8126 -21.096 22.202 -27.2897 25.6363Z" stroke="url(#paint67_linear_40000016_20157)" stroke-width="4"/>
<path d="M-31.6214 29.8674L-90.6142 58.2769C-96.9205 61.3138 -101.501 67.0572 -103.058 73.8812L-117.628 137.717C-119.186 144.541 -117.551 151.702 -113.187 157.175L-72.3627 208.367C-67.9986 213.839 -61.3801 217.027 -54.3806 217.027H11.0965C18.096 217.027 24.7146 213.839 29.0786 208.367L69.903 157.175C74.2671 151.702 75.9017 144.541 74.3442 137.717L59.7742 73.8812C58.2166 67.0572 53.6364 61.3138 47.3301 58.2768L-11.6627 29.8674C-17.969 26.8305 -25.3151 26.8305 -31.6214 29.8674Z" stroke="url(#paint68_linear_40000016_20157)" stroke-width="4"/>
</g>
</g>
<defs>
<linearGradient id="paint0_linear_40000016_20157" x1="734.045" y1="175.959" x2="516.193" y2="-313.343" gradientUnits="userSpaceOnUse">
<stop offset="0.2" stop-color="#4792EA"/>
<stop offset="1" stop-color="#DD5202"/>
</linearGradient>
<linearGradient id="paint1_linear_40000016_20157" x1="711.171" y1="181.738" x2="520.921" y2="-313.882" gradientUnits="userSpaceOnUse">
<stop offset="0.2" stop-color="#4792EA"/>
<stop offset="1" stop-color="#DD5202"/>
</linearGradient>
<linearGradient id="paint2_linear_40000016_20157" x1="688.271" y1="186.776" x2="525.681" y2="-313.625" gradientUnits="userSpaceOnUse">
<stop offset="0.2" stop-color="#4792EA"/>
<stop offset="1" stop-color="#DD5202"/>
</linearGradient>
<linearGradient id="paint3_linear_40000016_20157" x1="665.384" y1="191.081" x2="530.429" y2="-312.578" gradientUnits="userSpaceOnUse">
<stop offset="0.2" stop-color="#4792EA"/>
<stop offset="1" stop-color="#DD5202"/>
</linearGradient>
<linearGradient id="paint4_linear_40000016_20157" x1="642.547" y1="194.657" x2="535.12" y2="-310.746" gradientUnits="userSpaceOnUse">
<stop offset="0.2" stop-color="#4792EA"/>
<stop offset="1" stop-color="#DD5202"/>
</linearGradient>
<linearGradient id="paint5_linear_40000016_20157" x1="619.801" y1="197.517" x2="539.712" y2="-308.147" gradientUnits="userSpaceOnUse">
<stop offset="0.2" stop-color="#4792EA"/>
<stop offset="1" stop-color="#DD5202"/>
</linearGradient>
<linearGradient id="paint6_linear_40000016_20157" x1="597.186" y1="199.68" x2="544.165" y2="-304.783" gradientUnits="userSpaceOnUse">
<stop offset="0.2" stop-color="#4792EA"/>
<stop offset="1" stop-color="#DD5202"/>
</linearGradient>
<linearGradient id="paint7_linear_40000016_20157" x1="574.739" y1="201.131" x2="548.439" y2="-300.694" gradientUnits="userSpaceOnUse">
<stop offset="0.2" stop-color="#4792EA"/>
<stop offset="1" stop-color="#DD5202"/>
</linearGradient>
<linearGradient id="paint8_linear_40000016_20157" x1="552.494" y1="201.926" x2="552.494" y2="-295.86" gradientUnits="userSpaceOnUse">
<stop offset="0.2" stop-color="#4792EA"/>
<stop offset="1" stop-color="#DD5202"/>
</linearGradient>
<linearGradient id="paint9_linear_40000016_20157" x1="530.487" y1="202.065" x2="556.291" y2="-290.317" gradientUnits="userSpaceOnUse">
<stop offset="0.2" stop-color="#4792EA"/>
<stop offset="1" stop-color="#DD5202"/>
</linearGradient>
<linearGradient id="paint10_linear_40000016_20157" x1="508.752" y1="201.541" x2="559.796" y2="-284.115" gradientUnits="userSpaceOnUse">
<stop offset="0.2" stop-color="#4792EA"/>
<stop offset="1" stop-color="#DD5202"/>
</linearGradient>
<linearGradient id="paint11_linear_40000016_20157" x1="487.325" y1="200.421" x2="562.977" y2="-277.229" gradientUnits="userSpaceOnUse">
<stop offset="0.2" stop-color="#4792EA"/>
<stop offset="1" stop-color="#DD5202"/>
</linearGradient>
<linearGradient id="paint12_linear_40000016_20157" x1="466.228" y1="198.706" x2="565.792" y2="-269.706" gradientUnits="userSpaceOnUse">
<stop offset="0.2" stop-color="#4792EA"/>
<stop offset="1" stop-color="#DD5202"/>
</linearGradient>
<linearGradient id="paint13_linear_40000016_20157" x1="445.5" y1="196.416" x2="568.219" y2="-261.577" gradientUnits="userSpaceOnUse">
<stop offset="0.2" stop-color="#4792EA"/>
<stop offset="1" stop-color="#DD5202"/>
</linearGradient>
<linearGradient id="paint14_linear_40000016_20157" x1="425.164" y1="193.582" x2="570.223" y2="-252.863" gradientUnits="userSpaceOnUse">
<stop offset="0.2" stop-color="#4792EA"/>
<stop offset="1" stop-color="#DD5202"/>
</linearGradient>
<linearGradient id="paint15_linear_40000016_20157" x1="405.248" y1="190.241" x2="571.779" y2="-243.589" gradientUnits="userSpaceOnUse">
<stop offset="0.2" stop-color="#4792EA"/>
<stop offset="1" stop-color="#DD5202"/>
</linearGradient>
<linearGradient id="paint16_linear_40000016_20157" x1="385.772" y1="186.403" x2="572.857" y2="-233.797" gradientUnits="userSpaceOnUse">
<stop offset="0.2" stop-color="#4792EA"/>
<stop offset="1" stop-color="#DD5202"/>
</linearGradient>
<linearGradient id="paint17_linear_40000016_20157" x1="366.761" y1="182.105" x2="573.436" y2="-223.517" gradientUnits="userSpaceOnUse">
<stop offset="0.2" stop-color="#4792EA"/>
<stop offset="1" stop-color="#DD5202"/>
</linearGradient>
<linearGradient id="paint18_linear_40000016_20157" x1="348.237" y1="177.396" x2="573.493" y2="-212.76" gradientUnits="userSpaceOnUse">
<stop offset="0.2" stop-color="#4792EA"/>
<stop offset="1" stop-color="#DD5202"/>
</linearGradient>
<linearGradient id="paint19_linear_40000016_20157" x1="330.218" y1="172.273" x2="573.01" y2="-201.594" gradientUnits="userSpaceOnUse">
<stop offset="0.2" stop-color="#4792EA"/>
<stop offset="1" stop-color="#DD5202"/>
</linearGradient>
<linearGradient id="paint20_linear_40000016_20157" x1="312.717" y1="166.794" x2="571.965" y2="-190.029" gradientUnits="userSpaceOnUse">
<stop offset="0.2" stop-color="#4792EA"/>
<stop offset="1" stop-color="#DD5202"/>
</linearGradient>
<linearGradient id="paint21_linear_40000016_20157" x1="295.753" y1="160.982" x2="570.344" y2="-178.11" gradientUnits="userSpaceOnUse">
<stop offset="0.2" stop-color="#4792EA"/>
<stop offset="1" stop-color="#DD5202"/>
</linearGradient>
<linearGradient id="paint22_linear_40000016_20157" x1="279.335" y1="154.866" x2="568.134" y2="-165.878" gradientUnits="userSpaceOnUse">
<stop offset="0.2" stop-color="#4792EA"/>
<stop offset="1" stop-color="#DD5202"/>
</linearGradient>
<linearGradient id="paint23_linear_40000016_20157" x1="263.478" y1="148.502" x2="565.324" y2="-153.344" gradientUnits="userSpaceOnUse">
<stop offset="0.2" stop-color="#4792EA"/>
<stop offset="1" stop-color="#DD5202"/>
</linearGradient>
<linearGradient id="paint24_linear_40000016_20157" x1="248.189" y1="141.891" x2="561.905" y2="-140.581" gradientUnits="userSpaceOnUse">
<stop offset="0.2" stop-color="#4792EA"/>
<stop offset="1" stop-color="#DD5202"/>
</linearGradient>
<linearGradient id="paint25_linear_40000016_20157" x1="233.473" y1="135.088" x2="557.87" y2="-127.603" gradientUnits="userSpaceOnUse">
<stop offset="0.2" stop-color="#4792EA"/>
<stop offset="1" stop-color="#DD5202"/>
</linearGradient>
<linearGradient id="paint26_linear_40000016_20157" x1="219.336" y1="128.137" x2="553.21" y2="-114.437" gradientUnits="userSpaceOnUse">
<stop offset="0.2" stop-color="#4792EA"/>
<stop offset="1" stop-color="#DD5202"/>
</linearGradient>
<linearGradient id="paint27_linear_40000016_20157" x1="205.78" y1="121.038" x2="547.928" y2="-101.155" gradientUnits="userSpaceOnUse">
<stop offset="0.2" stop-color="#4792EA"/>
<stop offset="1" stop-color="#DD5202"/>
</linearGradient>
<linearGradient id="paint28_linear_40000016_20157" x1="192.806" y1="113.864" x2="542.019" y2="-87.7545" gradientUnits="userSpaceOnUse">
<stop offset="0.2" stop-color="#4792EA"/>
<stop offset="1" stop-color="#DD5202"/>
</linearGradient>
<linearGradient id="paint29_linear_40000016_20157" x1="180.412" y1="106.621" x2="535.487" y2="-74.299" gradientUnits="userSpaceOnUse">
<stop offset="0.2" stop-color="#4792EA"/>
<stop offset="1" stop-color="#DD5202"/>
</linearGradient>
<linearGradient id="paint30_linear_40000016_20157" x1="168.594" y1="99.353" x2="528.333" y2="-60.8129" gradientUnits="userSpaceOnUse">
<stop offset="0.2" stop-color="#4792EA"/>
<stop offset="1" stop-color="#DD5202"/>
</linearGradient>
<linearGradient id="paint31_linear_40000016_20157" x1="157.353" y1="92.0781" x2="520.568" y2="-47.3469" gradientUnits="userSpaceOnUse">
<stop offset="0.2" stop-color="#4792EA"/>
<stop offset="1" stop-color="#DD5202"/>
</linearGradient>
<linearGradient id="paint32_linear_40000016_20157" x1="146.674" y1="84.8561" x2="512.192" y2="-33.9079" gradientUnits="userSpaceOnUse">
<stop offset="0.2" stop-color="#4792EA"/>
<stop offset="1" stop-color="#DD5202"/>
</linearGradient>
<linearGradient id="paint33_linear_40000016_20157" x1="136.55" y1="77.7094" x2="503.216" y2="-20.5385" gradientUnits="userSpaceOnUse">
<stop offset="0.2" stop-color="#4792EA"/>
<stop offset="1" stop-color="#DD5202"/>
</linearGradient>
<linearGradient id="paint34_linear_40000016_20157" x1="126.975" y1="70.6526" x2="493.657" y2="-7.28806" gradientUnits="userSpaceOnUse">
<stop offset="0.2" stop-color="#4792EA"/>
<stop offset="1" stop-color="#DD5202"/>
</linearGradient>
<linearGradient id="paint35_linear_40000016_20157" x1="117.931" y1="63.7222" x2="483.52" y2="5.81856" gradientUnits="userSpaceOnUse">
<stop offset="0.2" stop-color="#4792EA"/>
<stop offset="1" stop-color="#DD5202"/>
</linearGradient>
<linearGradient id="paint36_linear_40000016_20157" x1="109.41" y1="56.9669" x2="472.827" y2="18.7702" gradientUnits="userSpaceOnUse">
<stop offset="0.2" stop-color="#4792EA"/>
<stop offset="1" stop-color="#DD5202"/>
</linearGradient>
<linearGradient id="paint37_linear_40000016_20157" x1="101.393" y1="50.3859" x2="461.592" y2="31.5087" gradientUnits="userSpaceOnUse">
<stop offset="0.2" stop-color="#4792EA"/>
<stop offset="1" stop-color="#DD5202"/>
</linearGradient>
<linearGradient id="paint38_linear_40000016_20157" x1="93.8652" y1="44.0182" x2="449.83" y2="44.0182" gradientUnits="userSpaceOnUse">
<stop offset="0.2" stop-color="#4792EA"/>
<stop offset="1" stop-color="#DD5202"/>
</linearGradient>
<linearGradient id="paint39_linear_40000016_20157" x1="86.8075" y1="37.9018" x2="437.564" y2="56.2842" gradientUnits="userSpaceOnUse">
<stop offset="0.2" stop-color="#4792EA"/>
<stop offset="1" stop-color="#DD5202"/>
</linearGradient>
<linearGradient id="paint40_linear_40000016_20157" x1="80.1994" y1="32.0278" x2="424.813" y2="68.2482" gradientUnits="userSpaceOnUse">
<stop offset="0.2" stop-color="#4792EA"/>
<stop offset="1" stop-color="#DD5202"/>
</linearGradient>
<linearGradient id="paint41_linear_40000016_20157" x1="74.022" y1="26.4551" x2="411.598" y2="79.9219" gradientUnits="userSpaceOnUse">
<stop offset="0.2" stop-color="#4792EA"/>
<stop offset="1" stop-color="#DD5202"/>
</linearGradient>
<linearGradient id="paint42_linear_40000016_20157" x1="68.2534" y1="21.1764" x2="397.945" y2="91.2545" gradientUnits="userSpaceOnUse">
<stop offset="0.2" stop-color="#4792EA"/>
<stop offset="1" stop-color="#DD5202"/>
</linearGradient>
<linearGradient id="paint43_linear_40000016_20157" x1="62.8711" y1="16.2434" x2="383.877" y2="102.257" gradientUnits="userSpaceOnUse">
<stop offset="0.2" stop-color="#4792EA"/>
<stop offset="1" stop-color="#DD5202"/>
</linearGradient>
<linearGradient id="paint44_linear_40000016_20157" x1="57.8519" y1="11.6381" x2="369.42" y2="112.873" gradientUnits="userSpaceOnUse">
<stop offset="0.2" stop-color="#4792EA"/>
<stop offset="1" stop-color="#DD5202"/>
</linearGradient>
<linearGradient id="paint45_linear_40000016_20157" x1="53.1681" y1="7.39448" x2="354.598" y2="123.102" gradientUnits="userSpaceOnUse">
<stop offset="0.2" stop-color="#4792EA"/>
<stop offset="1" stop-color="#DD5202"/>
</linearGradient>
<linearGradient id="paint46_linear_40000016_20157" x1="48.7988" y1="3.53721" x2="339.441" y2="132.94" gradientUnits="userSpaceOnUse">
<stop offset="0.2" stop-color="#4792EA"/>
<stop offset="1" stop-color="#DD5202"/>
</linearGradient>
<linearGradient id="paint47_linear_40000016_20157" x1="44.7145" y1="0.0607425" x2="323.974" y2="142.351" gradientUnits="userSpaceOnUse">
<stop offset="0.2" stop-color="#4792EA"/>
<stop offset="1" stop-color="#DD5202"/>
</linearGradient>
<linearGradient id="paint48_linear_40000016_20157" x1="40.895" y1="-3.02328" x2="308.23" y2="151.323" gradientUnits="userSpaceOnUse">
<stop offset="0.2" stop-color="#4792EA"/>
<stop offset="1" stop-color="#DD5202"/>
</linearGradient>
<linearGradient id="paint49_linear_40000016_20157" x1="37.3049" y1="-5.69323" x2="292.231" y2="159.858" gradientUnits="userSpaceOnUse">
<stop offset="0.2" stop-color="#4792EA"/>
<stop offset="1" stop-color="#DD5202"/>
</linearGradient>
<linearGradient id="paint50_linear_40000016_20157" x1="33.9239" y1="-7.93981" x2="276.012" y2="167.948" gradientUnits="userSpaceOnUse">
<stop offset="0.2" stop-color="#4792EA"/>
<stop offset="1" stop-color="#DD5202"/>
</linearGradient>
<linearGradient id="paint51_linear_40000016_20157" x1="30.7232" y1="-9.75718" x2="259.599" y2="175.583" gradientUnits="userSpaceOnUse">
<stop offset="0.2" stop-color="#4792EA"/>
<stop offset="1" stop-color="#DD5202"/>
</linearGradient>
<linearGradient id="paint52_linear_40000016_20157" x1="27.6741" y1="-11.1597" x2="243.024" y2="182.742" gradientUnits="userSpaceOnUse">
<stop offset="0.2" stop-color="#4792EA"/>
<stop offset="1" stop-color="#DD5202"/>
</linearGradient>
<linearGradient id="paint53_linear_40000016_20157" x1="24.7497" y1="-12.1071" x2="226.314" y2="189.457" gradientUnits="userSpaceOnUse">
<stop offset="0.2" stop-color="#4792EA"/>
<stop offset="1" stop-color="#DD5202"/>
</linearGradient>
<linearGradient id="paint54_linear_40000016_20157" x1="21.9217" y1="-12.6432" x2="209.498" y2="195.682" gradientUnits="userSpaceOnUse">
<stop offset="0.2" stop-color="#4792EA"/>
<stop offset="1" stop-color="#DD5202"/>
</linearGradient>
<linearGradient id="paint55_linear_40000016_20157" x1="19.1656" y1="-12.7276" x2="192.607" y2="201.455" gradientUnits="userSpaceOnUse">
<stop offset="0.2" stop-color="#4792EA"/>
<stop offset="1" stop-color="#DD5202"/>
</linearGradient>
<linearGradient id="paint56_linear_40000016_20157" x1="16.4529" y1="-12.3817" x2="175.669" y2="206.76" gradientUnits="userSpaceOnUse">
<stop offset="0.2" stop-color="#4792EA"/>
<stop offset="1" stop-color="#DD5202"/>
</linearGradient>
<linearGradient id="paint57_linear_40000016_20157" x1="13.7583" y1="-11.6073" x2="158.712" y2="211.602" gradientUnits="userSpaceOnUse">
<stop offset="0.2" stop-color="#4792EA"/>
<stop offset="1" stop-color="#DD5202"/>
</linearGradient>
<linearGradient id="paint58_linear_40000016_20157" x1="11.0515" y1="-10.4063" x2="141.762" y2="215.99" gradientUnits="userSpaceOnUse">
<stop offset="0.2" stop-color="#4792EA"/>
<stop offset="1" stop-color="#DD5202"/>
</linearGradient>
<linearGradient id="paint59_linear_40000016_20157" x1="8.31571" y1="-8.78465" x2="124.852" y2="219.93" gradientUnits="userSpaceOnUse">
<stop offset="0.2" stop-color="#4792EA"/>
<stop offset="1" stop-color="#DD5202"/>
</linearGradient>
<linearGradient id="paint60_linear_40000016_20157" x1="5.51781" y1="-6.76516" x2="108.002" y2="223.417" gradientUnits="userSpaceOnUse">
<stop offset="0.2" stop-color="#4792EA"/>
<stop offset="1" stop-color="#DD5202"/>
</linearGradient>
<linearGradient id="paint61_linear_40000016_20157" x1="2.63917" y1="-4.32287" x2="91.2416" y2="226.494" gradientUnits="userSpaceOnUse">
<stop offset="0.2" stop-color="#4792EA"/>
<stop offset="1" stop-color="#DD5202"/>
</linearGradient>
<linearGradient id="paint62_linear_40000016_20157" x1="-0.344987" y1="-1.51044" x2="74.5953" y2="229.132" gradientUnits="userSpaceOnUse">
<stop offset="0.2" stop-color="#4792EA"/>
<stop offset="1" stop-color="#DD5202"/>
</linearGradient>
<linearGradient id="paint63_linear_40000016_20157" x1="-3.45758" y1="1.68924" x2="58.0856" y2="231.372" gradientUnits="userSpaceOnUse">
<stop offset="0.2" stop-color="#4792EA"/>
<stop offset="1" stop-color="#DD5202"/>
</linearGradient>
<linearGradient id="paint64_linear_40000016_20157" x1="-6.71915" y1="5.24637" x2="41.7361" y2="233.211" gradientUnits="userSpaceOnUse">
<stop offset="0.2" stop-color="#4792EA"/>
<stop offset="1" stop-color="#DD5202"/>
</linearGradient>
<linearGradient id="paint65_linear_40000016_20157" x1="-10.149" y1="9.15822" x2="25.5696" y2="234.677" gradientUnits="userSpaceOnUse">
<stop offset="0.2" stop-color="#4792EA"/>
<stop offset="1" stop-color="#DD5202"/>
</linearGradient>
<linearGradient id="paint66_linear_40000016_20157" x1="-13.7682" y1="13.4097" x2="9.60435" y2="235.785" gradientUnits="userSpaceOnUse">
<stop offset="0.2" stop-color="#4792EA"/>
<stop offset="1" stop-color="#DD5202"/>
</linearGradient>
<linearGradient id="paint67_linear_40000016_20157" x1="-17.5922" y1="17.9723" x2="-6.13736" y2="236.545" gradientUnits="userSpaceOnUse">
<stop offset="0.2" stop-color="#4792EA"/>
<stop offset="1" stop-color="#DD5202"/>
</linearGradient>
<linearGradient id="paint68_linear_40000016_20157" x1="-21.642" y1="22.8418" x2="-21.642" y2="236.987" gradientUnits="userSpaceOnUse">
<stop offset="0.2" stop-color="#4792EA"/>
<stop offset="1" stop-color="#DD5202"/>
</linearGradient>
<clipPath id="clip0_40000016_20157">
<rect width="1176" height="124" rx="10" fill="white"/>
</clipPath>
</defs>
</svg>
