<svg width="37" height="36" viewBox="0 0 37 36" fill="none" xmlns="http://www.w3.org/2000/svg">
<rect x="0.5" width="36" height="36" rx="18" fill="#F0F7FE"/>
<path d="M15.166 15L17.1274 16.1596C18.2708 16.8357 18.7279 16.8357 19.8713 16.1596L21.8327 15" stroke="#387ADF" stroke-width="1.2" stroke-linecap="round" stroke-linejoin="round"/>
<path d="M17.4997 23C17.1888 22.9959 16.8776 22.9899 16.5656 22.9821C14.4666 22.9293 13.4171 22.903 12.663 22.1456C11.9089 21.3882 11.8871 20.3657 11.8435 18.3209C11.8295 17.6634 11.8295 17.0097 11.8435 16.3522C11.8871 14.3074 11.9089 13.2849 12.663 12.5276C13.4171 11.7702 14.4666 11.7438 16.5656 11.691C17.8592 11.6585 19.1401 11.6585 20.4338 11.691C22.5328 11.7438 23.5823 11.7702 24.3364 12.5276C25.0905 13.285 25.1122 14.3074 25.1558 16.3523C25.1623 16.655 25.1658 16.7976 25.1663 17" stroke="#387ADF" stroke-width="1.2" stroke-linecap="round" stroke-linejoin="round"/>
<path d="M23.166 21.3333C23.166 21.8855 22.7183 22.3333 22.166 22.3333C21.6137 22.3333 21.166 21.8855 21.166 21.3333C21.166 20.781 21.6137 20.3333 22.166 20.3333C22.7183 20.3333 23.166 20.781 23.166 21.3333ZM23.166 21.3333V21.6666C23.166 22.2189 23.6137 22.6666 24.166 22.6666C24.7183 22.6666 25.166 22.2189 25.166 21.6666V21.3333C25.166 19.6764 23.8229 18.3333 22.166 18.3333C20.5092 18.3333 19.166 19.6764 19.166 21.3333C19.166 22.9901 20.5092 24.3333 22.166 24.3333" stroke="#387ADF" stroke-width="1.2" stroke-linecap="round" stroke-linejoin="round"/>
</svg>
