<svg width="60" height="61" viewBox="0 0 60 61" fill="none" xmlns="http://www.w3.org/2000/svg">
<path opacity="0.21" fill-rule="evenodd" clip-rule="evenodd" d="M0 30.6328V37.6328C0 50.3354 10.2975 60.6328 23 60.6328H30H37C49.7025 60.6328 60 50.3354 60 37.6328V30.6328V23.6328C60 10.9303 49.7025 0.632812 37 0.632812H30H23C10.2975 0.632812 0 10.9303 0 23.6328V30.6328Z" fill="#4AD991"/>
<path d="M19.1111 41.5217H42.4444C43.3036 41.5217 44 42.2181 44 43.0773C44 43.9364 43.3036 44.6328 42.4444 44.6328H17.5556C16.6964 44.6328 16 43.9364 16 43.0773V18.1884C16 17.3293 16.6964 16.6328 17.5556 16.6328C18.4147 16.6328 19.1111 17.3293 19.1111 18.1884V41.5217Z" fill="#4AD991"/>
<path opacity="0.5" d="M24.9131 34.8068C24.3255 35.4336 23.3411 35.4653 22.7143 34.8777C22.0876 34.2902 22.0558 33.3057 22.6434 32.679L28.4767 26.4568C29.045 25.8506 29.9893 25.7981 30.6213 26.3374L35.2253 30.2662L41.224 22.6679C41.7563 21.9936 42.7345 21.8785 43.4088 22.4109C44.0831 22.9432 44.1982 23.9214 43.6658 24.5957L36.6658 33.4623C36.1191 34.1549 35.1063 34.2545 34.4351 33.6817L29.7311 29.6676L24.9131 34.8068Z" fill="#4AD991"/>
</svg>
