<svg width="60" height="60" viewBox="0 0 60 60" fill="none" xmlns="http://www.w3.org/2000/svg">
<path opacity="0.21" fill-rule="evenodd" clip-rule="evenodd" d="M0 30V37C0 49.7025 10.2975 60 23 60H30H37C49.7025 60 60 49.7025 60 37V30V23C60 10.2975 49.7025 0 37 0H30H23C10.2975 0 0 10.2975 0 23V30Z" fill="#8280FF"/>
<path fill-rule="evenodd" clip-rule="evenodd" d="M15 25.3171L27.9005 32.7652C28.0394 32.8454 28.1851 32.9034 28.3333 32.9401V47.3854L15.9201 40.0392C15.3498 39.7017 15 39.0882 15 38.4256V25.3171ZM45 25.1191V38.4256C45 39.0882 44.6502 39.7017 44.0799 40.0392L31.6667 47.3854V32.8136C31.6969 32.7985 31.7269 32.7824 31.7566 32.7652L45 25.1191Z" fill="#3D42DF"/>
<path opacity="0.499209" fill-rule="evenodd" clip-rule="evenodd" d="M15.4053 21.7014C15.5628 21.5024 15.7617 21.3343 15.9936 21.2108L29.1186 14.2201C29.6696 13.9266 30.3305 13.9266 30.8815 14.2201L44.0065 21.2108C44.1852 21.306 44.3444 21.4277 44.4801 21.5697L30.0899 29.8778C29.9953 29.9325 29.9081 29.995 29.8286 30.064C29.7491 29.995 29.6618 29.9325 29.5672 29.8778L15.4053 21.7014Z" fill="#3D42DF"/>
</svg>
