<svg width="36" height="36" viewBox="0 0 36 36" fill="none" xmlns="http://www.w3.org/2000/svg">
<rect width="36" height="36" rx="18" fill="#EEFBF2"/>
<path d="M13.1603 19.579L14.4623 18.6544C14.8296 18.3936 15.202 18.2188 15.6269 18.1056C16.1147 17.9758 16.3333 17.7096 16.3333 17.1407C16.3333 15.6975 19.6667 15.544 19.6667 17.1407C19.6667 17.7096 19.8853 17.9758 20.3731 18.1056C20.8014 18.2197 21.1733 18.3956 21.5377 18.6544L22.8397 19.579C23.4289 19.9974 23.7031 20.1996 23.8561 20.5213C24 20.8238 24 21.1787 24 21.8883C24 23.1641 24 23.802 23.6428 24.2109C23.2101 24.7062 22.0853 24.6637 21.3944 24.6637H14.6056C13.9146 24.6637 12.8127 24.7324 12.3572 24.2109C12 23.802 12 23.1641 12 21.8883C12 21.1787 12 20.8238 12.1439 20.5213C12.2968 20.1996 12.5711 19.9974 13.1603 19.579Z" stroke="#1A8149" stroke-width="1.2"/>
<path d="M19.3327 21.3333C19.3327 22.0697 18.7357 22.6667 17.9993 22.6667C17.263 22.6667 16.666 22.0697 16.666 21.3333C16.666 20.597 17.263 20 17.9993 20C18.7357 20 19.3327 20.597 19.3327 21.3333Z" stroke="#1A8149" stroke-width="1.2"/>
<path d="M14.6398 12.4651C13.7608 12.7161 13.1289 13.0274 12.5506 13.403C11.6351 13.9977 11.2426 15.0694 11.3504 16.1034C11.3959 16.5405 11.7468 16.7494 12.1536 16.6364C12.4627 16.5505 12.7723 16.4669 13.0794 16.3758C13.9777 16.1093 14.189 15.7854 14.3138 14.8659L14.6398 12.4651ZM14.6398 12.4651C16.8121 11.845 19.1873 11.845 21.3596 12.4651M21.3596 12.4651C22.2385 12.7161 22.8704 13.0274 23.4487 13.403C24.3642 13.9977 24.7567 15.0694 24.649 16.1034C24.6034 16.5405 24.2526 16.7494 23.8457 16.6364C23.5367 16.5505 23.2271 16.4669 22.9199 16.3758C22.0216 16.1093 21.8103 15.7854 21.6855 14.8659L21.3596 12.4651Z" stroke="#1A8149" stroke-width="1.2" stroke-linejoin="round"/>
</svg>
