<svg width="1234" height="981" viewBox="0 0 1234 981" fill="none" xmlns="http://www.w3.org/2000/svg">
<path d="M486.477 34.1621C594.056 62.1873 420.84 307.741 942.107 307.741C1217.38 307.741 1158.06 508.366 1324.17 522.601" stroke="#C2E9DD"/>
<path d="M697.686 -80.0723C805.265 -52.0471 632.049 193.507 1153.32 193.507C1428.59 193.507 1369.27 394.132 1535.38 408.367" stroke="#C2E9DD"/>
<path d="M-158.041 157.12C16.562 139.334 374.041 139.309 302.336 244.177C183.682 417.708 463.047 588.192 1208.85 621.891" stroke="#C2E9DD"/>
<path d="M-398.678 221.8C-182.849 199.85 259.035 199.818 170.399 329.238C23.73 543.395 369.056 753.792 1290.95 795.381" stroke="#C2E9DD"/>
<path d="M-621.746 330.013C-377.423 305.156 122.799 305.121 22.4619 451.678C-143.571 694.193 247.346 932.451 1290.95 979.547" stroke="#C2E9DD"/>
</svg>
