<svg width="35" height="24" viewBox="0 0 35 24" fill="none" xmlns="http://www.w3.org/2000/svg">
<path d="M23.1391 4.8C23.1391 6.07304 22.5472 7.29394 21.4935 8.19411C20.4398 9.09429 19.0107 9.6 17.5206 9.6C16.0305 9.6 14.6014 9.09429 13.5477 8.19411C12.494 7.29394 11.9021 6.07304 11.9021 4.8C11.9021 3.52696 12.494 2.30606 13.5477 1.40589C14.6014 0.505713 16.0305 0 17.5206 0C19.0107 0 20.4398 0.505713 21.4935 1.40589C22.5472 2.30606 23.1391 3.52696 23.1391 4.8ZM32.5034 8C32.5034 8.84869 32.1087 9.66263 31.4063 10.2627C30.7038 10.8629 29.7511 11.2 28.7577 11.2C27.7643 11.2 26.8115 10.8629 26.1091 10.2627C25.4066 9.66263 25.012 8.84869 25.012 8C25.012 7.15131 25.4066 6.33737 26.1091 5.73726C26.8115 5.13714 27.7643 4.8 28.7577 4.8C29.7511 4.8 30.7038 5.13714 31.4063 5.73726C32.1087 6.33737 32.5034 7.15131 32.5034 8ZM25.012 19.2C25.012 17.5026 24.2227 15.8747 22.8178 14.6745C21.4129 13.4743 19.5075 12.8 17.5206 12.8C15.5338 12.8 13.6283 13.4743 12.2234 14.6745C10.8185 15.8747 10.0293 17.5026 10.0293 19.2V24H25.012V19.2ZM10.0293 8C10.0293 8.84869 9.63462 9.66263 8.93217 10.2627C8.22971 10.8629 7.27698 11.2 6.28357 11.2C5.29015 11.2 4.33742 10.8629 3.63497 10.2627C2.93251 9.66263 2.53788 8.84869 2.53788 8C2.53788 7.15131 2.93251 6.33737 3.63497 5.73726C4.33742 5.13714 5.29015 4.8 6.28357 4.8C7.27698 4.8 8.22971 5.13714 8.93217 5.73726C9.63462 6.33737 10.0293 7.15131 10.0293 8ZM28.7577 24V19.2C28.7604 17.5733 28.2769 15.9728 27.353 14.5504C28.1834 14.3689 29.0512 14.3518 29.8905 14.5004C30.7297 14.649 31.5182 14.9593 32.1956 15.4079C32.8731 15.8564 33.4217 16.4311 33.7996 17.0883C34.1775 17.7455 34.3747 18.4678 34.3762 19.2V24H28.7577ZM7.6882 14.5504C6.76441 15.9729 6.28094 17.5733 6.28357 19.2V24H0.66504V19.2C0.664679 18.4673 0.860682 17.7442 1.23803 17.0862C1.61538 16.4282 2.16405 15.8527 2.842 15.4039C3.51995 14.955 4.30918 14.6448 5.1492 14.4968C5.98923 14.3489 6.85775 14.3672 7.6882 14.5504Z" fill="#AAB2C8"/>
</svg>
