<svg width="231" height="158" viewBox="0 0 231 158" fill="none" xmlns="http://www.w3.org/2000/svg">
<path d="M70.2561 18.2879C103.496 18.2879 126.323 2.5625 142.339 2.5625C158.356 2.5625 191.995 10.9716 191.995 78.2664C191.995 145.561 146.741 155.436 129.124 155.436C46.6272 155.441 11.388 18.2879 70.2561 18.2879Z" fill="#E8F2F2"/>
<path d="M176.569 26.3327C172.595 26.3327 169.361 23.379 169.361 19.7493C169.361 16.1197 172.595 13.166 176.569 13.166C180.543 13.166 183.778 16.1197 183.778 19.7493C183.778 23.379 180.543 26.3327 176.569 26.3327ZM176.569 17.5549C175.243 17.5549 174.166 18.5424 174.166 19.7493C174.166 20.9563 175.243 21.9438 176.569 21.9438C177.896 21.9438 178.972 20.9563 178.972 19.7493C178.972 18.5424 177.896 17.5549 176.569 17.5549Z" fill="#A6AEAE"/>
<path d="M155.989 20.6071C152.879 20.6071 150.348 18.2955 150.348 15.4549C150.348 12.6143 152.879 10.3027 155.989 10.3027C159.099 10.3027 161.63 12.6143 161.63 15.4549C161.63 18.2955 159.099 20.6071 155.989 20.6071ZM155.989 13.7375C154.951 13.7375 154.109 14.5103 154.109 15.4549C154.109 16.3995 154.951 17.1723 155.989 17.1723C157.027 17.1723 157.869 16.3995 157.869 15.4549C157.869 14.5103 157.027 13.7375 155.989 13.7375Z" fill="#A6AEAE"/>
<path d="M182.315 39.4985C180.242 39.4985 178.554 37.9574 178.554 36.0637C178.554 34.17 180.242 32.6289 182.315 32.6289C184.389 32.6289 186.076 34.17 186.076 36.0637C186.076 37.9574 184.389 39.4985 182.315 39.4985ZM182.315 34.9188C181.623 34.9188 181.061 35.434 181.061 36.0637C181.061 36.6934 181.623 37.2086 182.315 37.2086C183.007 37.2086 183.569 36.6934 183.569 36.0637C183.569 35.434 183.007 34.9188 182.315 34.9188Z" fill="#A6AEAE"/>
<path d="M122 132.75C92.35 132.75 68.25 108.65 68.25 79C68.25 49.35 92.35 25.25 122 25.25C151.65 25.25 175.75 49.35 175.75 79C175.75 108.65 151.65 132.75 122 132.75ZM122 32.75C96.5 32.75 75.75 53.5 75.75 79C75.75 104.5 96.5 125.25 122 125.25C147.5 125.25 168.25 104.5 168.25 79C168.25 53.5 147.5 32.75 122 32.75Z" fill="#292D32"/>
<path d="M114.9 96.9C113.9 96.9 112.95 96.5 112.25 95.8L98.1002 81.65C96.6502 80.2 96.6502 77.8 98.1002 76.35C99.5502 74.9 101.95 74.9 103.4 76.35L114.9 87.85L140.6 62.15C142.05 60.7 144.45 60.7 145.9 62.15C147.35 63.6 147.35 66 145.9 67.45L117.55 95.8C116.85 96.5 115.9 96.9 114.9 96.9Z" fill="#04A386"/>
</svg>
