<svg width="84" height="84" viewBox="0 0 84 84" fill="none" xmlns="http://www.w3.org/2000/svg">
<circle cx="42" cy="42" r="42" fill="url(#paint0_linear_1_83156)"/>
<path d="M38.0305 41.0225C37.8555 41.005 37.6455 41.005 37.453 41.0225C33.288 40.8825 29.9805 37.47 29.9805 33.27C29.9805 28.9825 33.4455 25.5 37.7505 25.5C42.038 25.5 45.5205 28.9825 45.5205 33.27C45.503 37.47 42.1955 40.8825 38.0305 41.0225Z" stroke="#3D42DF" stroke-width="2.625" stroke-linecap="round" stroke-linejoin="round"/>
<path d="M50.7172 29C54.1122 29 56.8422 31.7475 56.8422 35.125C56.8422 38.4325 54.2172 41.1275 50.9447 41.25C50.8047 41.2325 50.6472 41.2325 50.4897 41.25" stroke="#3D42DF" stroke-width="2.625" stroke-linecap="round" stroke-linejoin="round"/>
<path d="M29.2807 47.48C25.0457 50.315 25.0457 54.935 29.2807 57.7525C34.0932 60.9725 41.9857 60.9725 46.7982 57.7525C51.0332 54.9175 51.0332 50.2975 46.7982 47.48C42.0032 44.2775 34.1107 44.2775 29.2807 47.48Z" stroke="#3D42DF" stroke-width="2.625" stroke-linecap="round" stroke-linejoin="round"/>
<path d="M54.0947 57C55.3547 56.7375 56.5447 56.23 57.5247 55.4775C60.2547 53.43 60.2547 50.0525 57.5247 48.005C56.5622 47.27 55.3897 46.78 54.1472 46.5" stroke="#3D42DF" stroke-width="2.625" stroke-linecap="round" stroke-linejoin="round"/>
<defs>
<linearGradient id="paint0_linear_1_83156" x1="74.55" y1="2.14197e-06" x2="42" y2="84" gradientUnits="userSpaceOnUse">
<stop stop-color="#3A88C0" stop-opacity="0.15"/>
<stop offset="1" stop-color="#EFFFF6"/>
</linearGradient>
</defs>
</svg>
